<?xml version="1.0" encoding="utf-8"?>
<!-- Generator: Adobe Illustrator 25.4.1, SVG Export Plug-In . SVG Version: 6.00 Build 0)  -->
<svg version="1.1" id="Capa_1" xmlns="http://www.w3.org/2000/svg" xmlns:xlink="http://www.w3.org/1999/xlink" x="0px" y="0px"
	 viewBox="0 0 250 100" style="enable-background:new 0 0 250 100;" xml:space="preserve">
<g>
	<path d="M82.3,30.4C82,30,81.8,29.5,81.6,29c0-0.3-0.3-0.4-0.3-0.4c0,0-0.1,0-0.1,0c-0.9,0.2-1.8,0.4-2.7,0.7
		c-0.2,0.1-0.3,0.2-0.4,0.5c-0.3,1-0.5,2-0.7,3c0,0.1-0.1,0.3,0.1,0.4c0,0,0,0,0.1,0l-0.2,0.4l0.5-0.3c1.3-0.9,2.7-1.6,4.1-2.3
		c0.1,0,0.2-0.1,0.3-0.2C82.3,30.7,82.3,30.6,82.3,30.4L82.3,30.4z"/>
	<path d="M75.9,32.9l0.3,0.5l0-0.4c0,0,0.1,0,0.1,0c0.2,0,0.2-0.2,0.3-0.4c0.3-1,0.6-2,0.9-2.9c0.1-0.2,0.1-0.4,0-0.6
		c-0.6-0.7-1.1-1.5-1.7-2.3c-0.1-0.1-0.2-0.2-0.3-0.2c-0.1,0-0.2,0.1-0.3,0.2c-0.5,0.3-1,0.6-1.4,0.9l0,0c-0.1,0.1-0.1,0.2-0.1,0.4
		c0,0.1,0,0.3,0.1,0.3C74.3,29.9,75.1,31.5,75.9,32.9"/>
	<path d="M76.9,38.5c1.2-1,2.5-1.9,3.8-2.8c0.1,0,0.2-0.1,0.2-0.2c0.1-0.1,0.1-0.2,0-0.3l0,0c-0.3-0.4-0.5-0.9-0.8-1.3
		c-0.1-0.3-0.3-0.3-0.3-0.3c0,0-0.1,0-0.2,0c-0.9,0.3-1.7,0.6-2.6,1c-0.2,0.1-0.3,0.3-0.3,0.5c-0.1,1-0.3,2-0.3,3
		c0,0.1,0,0.3,0.1,0.4c0,0,0,0,0.1,0l-0.2,0.4L76.9,38.5z"/>
	<path d="M75.3,38.7l-0.1-0.4c0,0,0,0,0.1,0c0.2-0.1,0.2-0.3,0.2-0.4c0.2-1,0.4-2,0.6-3c0.1-0.3,0-0.5-0.1-0.6
		c-0.7-0.7-1.3-1.4-1.9-2.1c-0.2-0.2-0.4-0.2-0.6,0.1c-0.4,0.3-0.9,0.7-1.3,1.1l0,0c-0.1,0.1-0.1,0.2-0.1,0.4c0,0.1,0,0.3,0.1,0.3
		c0.9,1.5,1.8,2.9,2.8,4.2L75.3,38.7z"/>
	<path d="M79.3,26c-0.2,0.7-0.5,1.3-0.7,2c0,0.1-0.1,0.2,0,0.4c0,0,0,0,0,0l-0.2,0.3l0.5-0.3c1-0.5,2-1,3-1.4c0.1,0,0.2-0.1,0.2-0.2
		c0.1-0.1,0.1-0.2,0.1-0.3l0,0c-0.1-0.3-0.2-0.7-0.3-1c0-0.1,0-0.2-0.1-0.2c0,0-0.1-0.1-0.3-0.1c-0.6,0.1-1.3,0.2-1.9,0.4
		C79.5,25.7,79.4,25.8,79.3,26"/>
	<path d="M77.6,28l0.2,0.5l0-0.4l0,0c0.1,0,0.2-0.2,0.2-0.3c0.3-0.7,0.5-1.3,0.8-1.9c0.1-0.2,0.1-0.3,0-0.5c-0.3-0.5-0.7-1.1-1-1.7
		c-0.1-0.1-0.2-0.2-0.2-0.2c-0.1,0-0.2,0-0.2,0.1c-0.3,0.2-0.7,0.4-1,0.5l0,0c-0.1,0.1-0.1,0.2-0.1,0.3c0,0.1,0,0.2,0,0.3
		C76.7,25.8,77.2,26.9,77.6,28"/>
	<path d="M80.3,65.5L80.3,65.5c0.3,0,0.5,0,0.7,0c0.1,0,0.2-0.1,0.3-0.2c0.1-0.1,0.1-0.3,0-0.4c-3.6-7.2-5.3-15.3-4.9-23.4
		c0-0.3-0.1-0.6-0.4-0.7c-0.2-0.1-0.4-0.2-0.6-0.3c-0.3-0.1-0.5,0.1-0.5,0.4c-0.5,8.3,1.1,16.7,4.7,24.2
		C79.8,65.3,80.1,65.5,80.3,65.5 M80.3,65.4L80.3,65.4L80.3,65.4L80.3,65.4z"/>
	<path d="M80.4,24.5c0.2-0.4,0.3-0.8,0.5-1.1c0.1-0.2,0.2-0.6,0-0.7c-0.1-0.2-0.2-0.3-0.3-0.5c-0.1-0.2-0.4-0.1-0.6,0.2
		c-0.3,0.6-0.6,1.2-0.8,1.8l-0.1,0.1l1.2,0.4L80.4,24.5z"/>
	<path d="M177.9,29.7c0.3,1,0.6,1.9,0.9,2.9c0,0.1,0.1,0.3,0.3,0.4c0,0,0.1,0,0.1,0l0,0.4l0.3-0.5c0.8-1.4,1.6-2.9,2.3-4.4
		c0.1-0.1,0.1-0.2,0.1-0.4c0-0.1-0.1-0.3-0.1-0.4l0,0c-0.5-0.3-0.9-0.6-1.4-0.9c-0.1-0.1-0.2-0.2-0.3-0.2c-0.1,0-0.2,0-0.3,0.2
		c-0.5,0.8-1.1,1.5-1.7,2.3C177.9,29.3,177.8,29.5,177.9,29.7"/>
	<path d="M177.9,32.9c-0.2-1-0.4-2-0.7-2.9c-0.1-0.3-0.2-0.4-0.4-0.5c-0.9-0.3-1.8-0.5-2.7-0.7c0,0-0.1,0-0.1,0
		c-0.1,0-0.3,0-0.3,0.4c-0.2,0.5-0.4,0.9-0.7,1.4l0,0.1c0,0.1,0,0.2,0.1,0.3c0.1,0.1,0.2,0.2,0.2,0.2c1.4,0.7,2.8,1.5,4.1,2.4
		l0.4,0.3l-0.2-0.3c0,0,0,0,0.1,0C178,33.2,178,32.9,177.9,32.9"/>
	<path d="M183.1,33.5L183.1,33.5c-0.5-0.4-0.9-0.8-1.3-1.1c-0.2-0.2-0.4-0.3-0.6-0.1c-0.6,0.7-1.3,1.4-1.9,2.1
		c-0.1,0.1-0.1,0.3-0.1,0.6c0.2,1,0.4,2,0.6,3c0,0.1,0.1,0.3,0.2,0.4c0,0,0.1,0,0.1,0l-0.1,0.4l0.3-0.4c1-1.3,1.9-2.7,2.8-4.1
		c0.1-0.1,0.1-0.2,0.1-0.3C183.2,33.7,183.2,33.6,183.1,33.5"/>
	<path d="M178.9,38.1c-0.1-1-0.2-2-0.3-3c0-0.3-0.1-0.4-0.3-0.5c-0.9-0.4-1.7-0.7-2.6-1c-0.1,0-0.1,0-0.2,0c-0.1,0-0.3,0-0.3,0.3
		c-0.3,0.4-0.5,0.9-0.8,1.3l0,0c0,0.1,0,0.2,0,0.3c0.1,0.1,0.1,0.2,0.2,0.2c1.3,0.8,2.6,1.8,3.8,2.8l0.4,0.3l-0.1-0.3c0,0,0,0,0.1,0
		C178.9,38.4,178.9,38.2,178.9,38.1"/>
	<path d="M177.3,27.9c0,0.1,0.1,0.2,0.2,0.3l0,0l0,0.4l0.2-0.5c0.5-1,0.9-2.1,1.3-3.1c0-0.1,0.1-0.2,0-0.3c0-0.1-0.1-0.2-0.1-0.3
		l0,0c-0.3-0.2-0.7-0.4-1-0.5c-0.1-0.1-0.1-0.1-0.2-0.1c-0.1,0-0.2,0-0.2,0.2c-0.3,0.5-0.7,1.1-1,1.6c-0.1,0.1-0.1,0.3,0,0.5
		C176.7,26.6,177,27.2,177.3,27.9"/>
	<path d="M173.2,26.6L173.2,26.6c0,0.1,0,0.2,0.1,0.3c0.1,0.1,0.1,0.1,0.2,0.1c1,0.4,2,0.9,3,1.4l0.5,0.3l-0.2-0.3c0,0,0,0,0,0
		c0.1-0.1,0.1-0.3,0-0.3c-0.2-0.7-0.4-1.3-0.6-2c-0.1-0.2-0.2-0.3-0.3-0.3c-0.6-0.1-1.2-0.3-1.9-0.4c-0.1,0-0.2,0-0.3,0.1
		c-0.1,0.1-0.1,0.1-0.1,0.2C173.5,26,173.3,26.3,173.2,26.6"/>
	<path d="M179.9,40.7c-0.2-0.1-0.4-0.2-0.7-0.2c-0.1,0-0.3,0-0.4,0.1c-0.1,0.1-0.1,0.2-0.1,0.4c0.5,8-1,16.1-4.4,23.4
		c-0.1,0.3-0.1,0.6,0.1,0.8c0.2,0.2,0.3,0.4,0.5,0.5c0.1,0.1,0.2,0.1,0.3,0.1c0.2,0,0.3-0.1,0.4-0.3c3.6-7.5,5.2-15.8,4.8-24.1
		C180.4,41.1,180.2,40.8,179.9,40.7"/>
	<path d="M175.1,24.6l0.1,0.1l1.1-0.6l-0.1-0.1c-0.2-0.4-0.3-0.8-0.5-1.2c-0.1-0.2-0.3-0.5-0.6-0.5c-0.2,0-0.4,0-0.6,0
		c-0.1,0-0.2,0-0.2,0.1c-0.1,0.1-0.1,0.3,0,0.4C174.5,23.5,174.8,24.1,175.1,24.6"/>
	<path d="M170.6,50.3l1.7-1.3l0.9-0.7l0-1.2c-0.1-12-4.9-23.4-13.5-31.9c-8.6-8.5-19.9-13.2-32-13.2c-12.1,0-23.4,4.7-32,13.2
		c-8.6,8.5-13.4,19.8-13.5,31.9l0,1.2l1,0.7l1.6,1.2c1.4,22.5,20.1,40.3,42.9,40.3C150.5,90.5,169.2,72.7,170.6,50.3 M123.7,82.8
		c0.1-6.8,0.1-13.6,0.2-20.4h4.7c0,0.7,0,1.5,0,2.2c-1,0-1.9,0-2.9,0c0,2.2,0,4.4,0,6.7c0.9,0,1.8,0,2.8,0c0,0.8,0,1.5,0,2.3
		c-0.9,0-1.9,0-2.8,0c0,2.4,0,4.8,0,7.1c1,0,2.1,0,3.1,0c0,0.7,0,1.5,0,2.2C127.1,83,125.4,83,123.7,82.8 M124.6,55.3
		c0,0,0.1,0,0.1,0c0.4,0,0.8-0.3,0.9-0.8l2.2-17.3l2.2,17.3c0.1,0.4,0.4,0.8,0.9,0.8c0,0,0.1,0,0.1,0c0.5-0.1,0.8-0.5,0.8-1
		l-1.7-13.9l5.2,17.5h-14.8l5.3-17.9l-1.8,14.4C123.8,54.8,124.1,55.2,124.6,55.3 M137.1,81.7c-1.3-3.1-2.5-6.4-3.8-9.9
		c0.1,3.5,0.1,7.1,0.2,10.6c-0.6,0.1-1.2,0.2-1.9,0.2c-0.1-6.8-0.2-13.5-0.3-20.3h1c1.2,3.7,2.4,7.3,3.7,10.7
		c-0.1-3.6-0.2-7.1-0.3-10.7h1.8c0.2,6.3,0.4,12.7,0.6,19.1C137.8,81.5,137.4,81.6,137.1,81.7 M137.9,57.9l2.8-8.3l2.3,8.3H137.9z
		 M140.9,43.6l-4.3,13.1L128.6,30c0,0,0,0,0-0.1l-0.1-0.2V24h1.6c0.4,0,0.8-0.4,0.8-0.8c0-0.4-0.4-0.8-0.8-0.8h-1.6v-1.9
		c0-0.4-0.4-0.8-0.8-0.8c-0.4,0-0.8,0.4-0.8,0.8v1.9h-1.6c-0.4,0-0.8,0.4-0.8,0.8c0,0.4,0.4,0.8,0.8,0.8h1.6v5.7l-8,26.9l-4.3-13.1
		l-3.9,14.3H94.3c-0.2-0.6-0.4-1.2-0.5-1.8h11.9c0.5,0,0.9-0.4,0.9-0.9c0-0.5-0.4-0.9-0.9-0.9H93.4c-0.1-0.6-0.2-1.1-0.3-1.7h14.6
		c0.5,0,0.9-0.4,0.9-0.9c0-0.5-0.4-0.9-0.9-0.9H93l2.7-1.9l1-0.7l0-1.2c0.1-8.2,3.4-15.9,9.2-21.7c5.9-5.8,13.6-9,21.9-9
		s16,3.2,21.9,9c5.8,5.8,9.1,13.5,9.2,21.7l0,1.2l1,0.7l2.7,1.8h-15.4c-0.5,0-0.9,0.4-0.9,0.9c0,0.5,0.4,0.9,0.9,0.9h15.2
		c-0.1,0.6-0.2,1.2-0.3,1.7h-12.9c-0.5,0-0.9,0.4-0.9,0.9c0,0.5,0.4,0.9,0.9,0.9h12.5c-0.2,0.6-0.3,1.2-0.5,1.8h-16.3L140.9,43.6z
		 M117.5,57.9h-5l2.3-8.3L117.5,57.9z M165.9,55.9c-0.6,0-1-0.5-1-1c0-0.6,0.5-1,1-1c0.6,0,1,0.5,1,1
		C166.9,55.4,166.4,55.9,165.9,55.9 M84.5,47.2C84.7,23.5,104,4.4,127.7,4.4c23.7,0,43,19.2,43.2,42.8l-4.6,3.5l-5.1-3.5
		c-0.2-18.3-15.1-33-33.4-33c-18.3,0-33.2,14.7-33.4,33l-5,3.5L84.5,47.2z M89.3,55.9c-0.6,0-1-0.5-1-1c0-0.6,0.5-1,1-1
		c0.6,0,1,0.5,1,1C90.3,55.4,89.9,55.9,89.3,55.9 M104.4,76.3c-0.1-0.6-0.1-1.3-0.2-1.9c0-0.3-0.1-0.7-0.1-1
		c-0.8-0.4-1.5-0.8-2.3-1.3c-0.1,0-0.1-0.1-0.2-0.1c-0.2,0.7-0.3,1.3-0.5,2c-0.6-0.4-1.1-0.9-1.6-1.4c0.2-0.7,0.4-1.5,0.7-2.3
		c0.6-2.3,1.3-4.9,2.1-7.8h1.9c0.7,4.1,1.3,8.6,1.9,13.5c0.1,0.5,0.1,1,0.2,1.5C105.6,77,105,76.7,104.4,76.3 M113.7,80.8
		c-1.8-0.6-3.5-1.3-5.2-2.2c0-0.3,0-0.6,0-1c0.2-5.1,0.5-10.2,0.7-15.3h1.9c-0.2,5.1-0.4,10.2-0.7,15.2c1.1,0.4,2.2,0.8,3.3,1.1
		c0,0.5,0,1.1-0.1,1.6C113.7,80.5,113.7,80.7,113.7,80.8 M116,81.5c0-0.1,0-0.1,0-0.2c0.2-6.3,0.4-12.6,0.6-18.9h1.9
		c-0.2,5.8-0.3,11.6-0.5,17.4c1.1,0.2,2.3,0.4,3.4,0.5c0,0.7,0,1.5,0,2.2c-0.7-0.1-1.5-0.2-2.2-0.4C118.1,82,117,81.8,116,81.5
		 M144.8,79c-0.4,0.2-0.8,0.4-1.2,0.5c-0.7,0.3-1.4,0.6-2.1,0.9c-0.2-6-0.5-12-0.7-18h3.3c1.4,0,2.8,0.8,2.8,2.6
		c0.2,4.2,0.3,6,0.5,10.2c0.1,1.2-0.6,2.4-1.5,3.2C145.4,78.6,145.1,78.8,144.8,79 M154.5,72.6c-1.4,1.2-2.8,2.3-4.3,3.3
		c0-0.2,0-0.4,0-0.6c-0.2-4.3-0.3-8.6-0.5-12.8h4.7v1.1c-0.9,0.1-1.9,0.2-2.8,0.2l0.1,4c0.9-0.3,1.7-0.5,2.5-0.8c0,0.4,0,0.8,0,1.1
		c-0.8,0.4-1.7,0.7-2.5,1c0,1.4,0.1,2.8,0.1,4.3c0.5-0.3,1-0.7,1.5-1.1c0.4-0.3,0.7-0.5,1.1-0.8V72.6z"/>
	<path d="M103,66.3c-0.4,1.6-0.8,3-1.1,4.4c0.7,0.3,1.3,0.7,2,1c-0.2-1.9-0.5-3.7-0.7-5.4C103.1,66.4,103,66.4,103,66.3"/>
	<path d="M143.6,64.2c-0.3,0-0.7,0-1,0c0.2,4.5,0.4,9,0.6,13.5c0.3-0.1,0.6-0.2,0.9-0.4c0.9-0.4,1.3-1.2,1.2-1.9
		c-0.2-3.7-0.3-6.3-0.5-10C144.9,64.7,144.4,64.2,143.6,64.2"/>
	<path d="M86.9,43.7L86.9,43.7c-0.3,0-0.6,0.3-0.6,0.6l0,2.3c0,0.3,0.3,0.6,0.6,0.6h0c0.3,0,0.6-0.3,0.6-0.6l0-2.3
		C87.5,43.9,87.3,43.7,86.9,43.7"/>
	<path d="M89.9,47.7l0-3.5c0-0.3-0.3-0.6-0.6-0.6c-0.3,0-0.6,0.3-0.6,0.6l0,3.5c0,0.3,0.3,0.6,0.6,0.6h0
		C89.6,48.3,89.9,48,89.9,47.7"/>
	<path d="M91.7,43.7L91.7,43.7c-0.3,0-0.6,0.3-0.6,0.6l0,2.3c0,0.3,0.3,0.6,0.6,0.6h0c0.3,0,0.6-0.3,0.6-0.6l0-2.3
		C92.3,43.9,92,43.7,91.7,43.7"/>
	<path d="M89.7,41.8c0.6,0,1-0.4,1-1c0-0.6-0.5-1-1-1c-0.6,0-1,0.5-1,1C88.6,41.4,89.1,41.8,89.7,41.8"/>
	<path d="M163.9,43.3L163.9,43.3c-0.3,0-0.6,0.3-0.6,0.6l0,2.3c0,0.3,0.3,0.6,0.6,0.6h0c0.3,0,0.6-0.3,0.6-0.6l0-2.3
		C164.5,43.5,164.2,43.3,163.9,43.3"/>
	<path d="M166.8,47.3l0-3.4c0-0.3-0.3-0.6-0.6-0.6c-0.3,0-0.6,0.3-0.6,0.6l0,3.5c0,0.3,0.3,0.6,0.6,0.6h0
		C166.5,47.9,166.8,47.6,166.8,47.3"/>
	<path d="M168.6,43.3L168.6,43.3c-0.3,0-0.6,0.3-0.6,0.6l0,2.3c0,0.3,0.3,0.6,0.6,0.6c0.3,0,0.6-0.3,0.6-0.6l0-2.3
		C169.2,43.5,168.9,43.3,168.6,43.3"/>
	<path d="M165.7,41.4c0.6,0,1-0.4,1-1c0-0.6-0.5-1-1-1s-1,0.5-1,1C164.7,41,165.1,41.4,165.7,41.4"/>
	<path d="M91.5,35.7c1.5,0.6,3.2-0.1,3.8-1.6c0.3-0.7,0.3-1.4,0-2.1c0-0.1-0.1-0.1-0.2-0.1l-0.9,0.3c-0.1,0-0.1,0.1-0.1,0.2
		c0.1,0.4,0.1,0.8,0,1.1c-0.3,0.8-1.3,1.2-2.1,0.9c-0.8-0.3-1.3-1.2-1-2.1c0.1-0.4,0.4-0.7,0.8-0.9c0.1,0,0.1-0.1,0.1-0.2l-0.4-0.8
		c0-0.1-0.1-0.1-0.2-0.1c-0.7,0.3-1.1,0.8-1.4,1.5C89.3,33.4,90,35.1,91.5,35.7"/>
	<path d="M98.6,27.4c0.1,0,0.2,0,0.2,0l2-2.7c0.1-0.1,0-0.2,0-0.2l-0.7-0.5c-0.1,0-0.2,0-0.2,0l-1.4,1.8l-0.9-0.7l1.1-1.5
		c0.1-0.1,0-0.2,0-0.2L98,22.9c-0.1,0-0.2,0-0.2,0l-1.1,1.5l-0.8-0.6l1.4-1.8c0.1-0.1,0-0.2,0-0.2l-0.7-0.5c-0.1,0-0.2,0-0.2,0
		l-2,2.7c-0.1,0.1,0,0.2,0,0.2L98.6,27.4z"/>
	<path d="M104.7,20.6c0,0.1,0.1,0.1,0.2,0l0.8-0.6c0.1,0,0.1-0.1,0-0.2l-1.2-1.6l0.4-0.3l2.1,1.1c0,0,0.1,0,0.1,0l0.9-0.6
		c0.1-0.1,0.1-0.2,0-0.3l-2.1-1c0.4-0.6,0.4-1.4,0-2c-0.6-0.8-1.7-0.9-2.4-0.3l-1.9,1.5c-0.1,0.1-0.1,0.1,0,0.2L104.7,20.6z
		 M104.1,15.7c0.3-0.2,0.7-0.2,0.9,0.1c0.2,0.3,0.2,0.7-0.1,0.9l-0.9,0.7l-0.8-1L104.1,15.7z"/>
	<path d="M114.8,14.8c0,0,0.1,0.1,0.2,0l0.1,0c0.1,0,0.1-0.1,0.1-0.1l0.4-6c0-0.1-0.1-0.2-0.2-0.1l-1,0.4c-0.1,0-0.1,0.1-0.1,0.1
		l-0.2,3.2l0,0l-2.3-2.3c0,0-0.1-0.1-0.2,0l-1,0.4c-0.1,0-0.1,0.2-0.1,0.2L114.8,14.8z"/>
	<path d="M122.7,12.7l3.3-0.3c0.1,0,0.1-0.1,0.1-0.2l-0.1-0.9c0-0.1-0.1-0.1-0.2-0.1l-2.2,0.2l-0.1-1.1l1.8-0.2
		c0.1,0,0.1-0.1,0.1-0.2l-0.1-0.9c0-0.1-0.1-0.1-0.2-0.1l-1.8,0.2l-0.1-1l2.2-0.2c0.1,0,0.1-0.1,0.1-0.2l-0.1-0.9
		c0-0.1-0.1-0.1-0.2-0.1l-3.3,0.3c-0.1,0-0.1,0.1-0.1,0.2l0.5,5.3C122.5,12.6,122.6,12.7,122.7,12.7"/>
	<path d="M134.1,13c0.7,0.1,1.4,0,2.1-0.4c0.1,0,0.1-0.1,0-0.2l-0.5-0.8c0-0.1-0.1-0.1-0.2,0c-0.3,0.2-0.8,0.3-1.1,0.2
		c-0.9-0.2-1.4-1-1.3-1.9c0.2-0.9,0.9-1.5,1.8-1.4c0.4,0.1,0.8,0.3,1,0.6c0,0.1,0.1,0.1,0.2,0l0.7-0.5c0.1-0.1,0.1-0.1,0-0.2
		c-0.5-0.6-1-0.9-1.8-1.1c-1.6-0.3-3.1,0.8-3.4,2.4C131.5,11.3,132.5,12.8,134.1,13"/>
	<path d="M144.4,16.5c0.1,0,0.2,0,0.2-0.1l0.4-0.8c0-0.1,0-0.2-0.1-0.2l-2-1l0.5-1l1.7,0.8c0.1,0,0.2,0,0.2-0.1l0.4-0.8
		c0-0.1,0-0.2-0.1-0.2l-1.7-0.8l0.4-0.9l2,1c0.1,0,0.2,0,0.2-0.1l0.4-0.8c0-0.1,0-0.2-0.1-0.2l-3-1.4c-0.1,0-0.2,0-0.2,0.1l-2.3,4.8
		c0,0.1,0,0.2,0.1,0.2L144.4,16.5z"/>
	<path d="M150,20.4c0.1,0.1,0.2,0,0.2,0l1.3-1.6l0.4,0.4l-0.6,2.3c0,0,0,0.1,0,0.1l0.8,0.7c0.1,0.1,0.2,0,0.3-0.1L153,20
		c0.7,0.2,1.5,0.1,2-0.4c0.6-0.7,0.5-1.8-0.2-2.5l-1.8-1.6c-0.1-0.1-0.2,0-0.2,0l-3.5,4c-0.1,0.1-0.1,0.2,0,0.2L150,20.4z
		 M153.1,17.1l0.9,0.8c0.2,0.2,0.3,0.6,0.1,0.9c-0.2,0.3-0.6,0.3-0.9,0.1l-0.9-0.8L153.1,17.1z"/>
	<path d="M156.7,27.6c0,0.1,0.1,0.1,0.2,0l4.1-2.9c0.1,0,0.1-0.1,0-0.2l-0.6-0.8c0-0.1-0.1-0.1-0.2,0l-4.1,2.9c-0.1,0-0.1,0.1,0,0.2
		L156.7,27.6z"/>
	<path d="M160.8,23.4l1.4,0.8c0.1,0,0.2,0,0.2-0.1l0.2-0.5c0-0.1,0-0.2-0.1-0.2l-1.5-0.6c-0.1,0-0.1,0-0.2,0l-0.2,0.3
		C160.7,23.3,160.7,23.3,160.8,23.4"/>
	<path d="M159.5,32.3l0.3,0.8c0.1,0.2,0.2,0.2,0.3,0.2l0.7,0l0.8,2l-0.5,0.5c-0.1,0.1-0.1,0.2-0.1,0.3l0.3,0.8
		c0,0.1,0.2,0.1,0.2,0.1l4.1-4.3c0,0,0.1-0.1,0-0.2l0-0.1c0-0.1-0.1-0.1-0.1-0.1l-6-0.4C159.5,32.1,159.4,32.2,159.5,32.3
		 M163.4,33.5L163.4,33.5l-1,1.1l-0.4-1.1L163.4,33.5z"/>
	<polygon points="108.6,36.2 107.8,38.6 105.3,38.6 107.3,40 106.5,42.4 108.6,40.9 110.6,42.4 109.8,40 111.8,38.6 109.3,38.6 	"/>
	<polygon points="146.6,29.5 143.5,29.6 142.6,26.6 141.6,29.6 138.5,29.5 141,31.3 140.1,34.3 142.6,32.5 145.1,34.3 144.1,31.3 	
		"/>
	<path d="M116.2,92.6L116.2,92.6c-0.1,0-0.2,0-0.2,0l-1.9,2l0,0l-0.6-2.7c0,0-0.1-0.1-0.1-0.1l-0.1,0c0,0-0.1,0-0.1,0.1l-1.6,3.5
		c0,0.1,0,0.1,0.1,0.1l0.6,0.2c0.1,0,0.1,0,0.1-0.1l0.7-1.6l0,0l0.4,2c0,0,0,0.1,0.1,0.1l0.1,0c0,0,0.1,0,0.1,0l1.4-1.5l0,0
		l-0.2,1.7c0,0,0,0.1,0.1,0.1l0.6,0.2c0.1,0,0.1,0,0.1-0.1l0.4-3.8C116.3,92.7,116.3,92.6,116.2,92.6"/>
	<path d="M120.3,93.1l1.1-0.3c0,0,0.1-0.1,0.1-0.2l-0.1-0.4c0-0.1-0.1-0.1-0.1,0l-1,0.4c0,0-0.1,0.1,0,0.1l0.1,0.2
		C120.2,93.1,120.2,93.1,120.3,93.1"/>
	<path d="M121.8,93.6l-2.3-0.3c-0.1,0-0.1,0-0.1,0.1l-0.5,3.7c0,0.1,0,0.1,0.1,0.1l2.3,0.3c0.1,0,0.1,0,0.1-0.1l0.1-0.6
		c0-0.1,0-0.1-0.1-0.1l-1.5-0.2l0.1-0.8l1.3,0.2c0.1,0,0.1,0,0.1-0.1l0.1-0.6c0-0.1,0-0.1-0.1-0.1l-1.3-0.2l0.1-0.7l1.5,0.2
		c0.1,0,0.1,0,0.1-0.1l0.1-0.6C121.9,93.7,121.9,93.6,121.8,93.6"/>
	<path d="M127.4,94l-0.8,0c0,0-0.1,0-0.1,0l-0.7,1l0,0l-0.6-1.1c0,0-0.1-0.1-0.1-0.1l-0.8,0c-0.1,0-0.1,0.1-0.1,0.2l1.1,1.8
		l-1.2,1.8c-0.1,0.1,0,0.2,0.1,0.2l0.8,0c0,0,0.1,0,0.1,0l0.8-1.1l0,0l0.7,1.2c0,0,0.1,0.1,0.1,0.1l0.8,0c0.1,0,0.1-0.1,0.1-0.2
		l-1.1-1.9l1.2-1.7C127.5,94.1,127.5,94,127.4,94"/>
	<path d="M130.7,93.9l-0.7,0c-0.1,0-0.1,0.1-0.1,0.1l0.2,3.7c0,0.1,0.1,0.1,0.1,0.1l0.7,0c0.1,0,0.1-0.1,0.1-0.1l-0.2-3.7
		C130.8,93.9,130.8,93.9,130.7,93.9"/>
	<path d="M136.7,96.1c0,0-0.1,0-0.1,0c-0.2,0.2-0.4,0.3-0.7,0.4c-0.6,0.1-1.2-0.4-1.3-1c-0.1-0.6,0.3-1.2,0.9-1.3
		c0.3,0,0.6,0,0.8,0.2c0,0,0.1,0,0.1,0l0.4-0.5c0-0.1,0-0.1,0-0.2c-0.4-0.3-0.9-0.4-1.4-0.3c-1.1,0.2-1.9,1.2-1.7,2.3
		c0.2,1.1,1.2,1.9,2.3,1.7c0.5-0.1,0.9-0.3,1.3-0.7c0,0,0-0.1,0-0.2L136.7,96.1z"/>
	<path d="M140.7,92.2c-1.1,0.3-1.7,1.4-1.4,2.5c0.3,1.1,1.4,1.7,2.5,1.4c1.1-0.3,1.7-1.4,1.4-2.5C142.9,92.6,141.8,91.9,140.7,92.2
		 M141.5,95.2c-0.6,0.2-1.2-0.2-1.4-0.8c-0.2-0.6,0.2-1.2,0.8-1.4c0.6-0.2,1.2,0.2,1.4,0.8C142.5,94.5,142.1,95.1,141.5,95.2"/>
	<path d="M101.8,86.6C101.8,86.6,101.8,86.6,101.8,86.6C101.8,86.6,101.8,86.6,101.8,86.6C101.8,86.6,101.8,86.6,101.8,86.6
		L101.8,86.6c-0.2-0.1-0.4-0.3-0.7-0.4c0,0,0,0,0,0h0c0,0,0,0,0,0c0,0,0,0,0,0c0,0,0,0,0,0c0,0,0,0,0,0c0,0,0,0,0,0c0,0,0,0,0,0
		c-0.1-0.1-0.2-0.1-0.3-0.2l-2.5,3.9c0.4,0.2,0.8,0.5,1.2,0.7L101.8,86.6C101.8,86.6,101.8,86.6,101.8,86.6"/>
	<path d="M99,84.8L99,84.8C99,84.8,99,84.8,99,84.8C99,84.7,99,84.7,99,84.8C99,84.7,99,84.7,99,84.8L99,84.8
		C99,84.7,99,84.7,99,84.8C99,84.7,99,84.7,99,84.8C98.9,84.7,98.9,84.7,99,84.8L99,84.8C98.9,84.7,98.9,84.7,99,84.8
		C98.9,84.7,98.9,84.7,99,84.8l-0.1-0.1c-0.1-0.1-0.1-0.1-0.2-0.2L96,88.3c0.4,0.3,0.7,0.5,1.1,0.8l2.6-3.8
		C99.5,85.1,99.3,84.9,99,84.8"/>
	<path d="M93.4,80.2C93.4,80.2,93.4,80.2,93.4,80.2C93.4,80.2,93.4,80.2,93.4,80.2C93.4,80.2,93.4,80.2,93.4,80.2
		C93.4,80.2,93.4,80.1,93.4,80.2C93.4,80.1,93.4,80.1,93.4,80.2C93.4,80.1,93.3,80.1,93.4,80.2c-0.1-0.1-0.1-0.1-0.1-0.1
		c0,0,0,0,0,0c0,0,0,0,0,0c0,0,0,0,0,0c0,0,0,0,0,0l0,0c0,0,0,0,0,0l0,0c0,0,0,0,0,0c0,0,0,0,0,0l0,0c0,0,0,0,0,0h0c0,0,0,0,0,0h0
		c0,0,0,0,0,0l0,0c0,0,0,0,0,0c0,0,0,0,0,0c0,0,0,0,0,0l0,0c0,0,0,0,0,0c0,0,0,0,0,0l0,0c0,0,0,0,0,0c0,0,0,0,0,0c0,0,0,0,0,0
		c0,0,0,0,0,0c0,0,0,0,0,0c0,0,0,0,0,0c0,0,0,0,0,0L89.7,83c0.3,0.3,0.7,0.6,1,0.9l3.1-3.4C93.7,80.4,93.5,80.3,93.4,80.2"/>
	<path d="M103.9,87.8L103.9,87.8C103.9,87.8,103.9,87.8,103.9,87.8C103.9,87.8,103.9,87.8,103.9,87.8
		C103.9,87.8,103.9,87.8,103.9,87.8C103.9,87.8,103.9,87.8,103.9,87.8L103.9,87.8C103.9,87.8,103.9,87.8,103.9,87.8L103.9,87.8
		c-0.2-0.1-0.3-0.2-0.5-0.3l0,0c0,0,0,0,0,0c0,0,0,0,0,0c0,0,0,0,0,0c-0.2-0.1-0.3-0.2-0.5-0.3l-2.3,4c0.4,0.2,0.8,0.4,1.2,0.7
		l2.2-4.1C104,87.9,104,87.8,103.9,87.8"/>
	<path d="M91.9,78.7C91.9,78.7,91.9,78.7,91.9,78.7C91.9,78.6,91.9,78.6,91.9,78.7C91.8,78.6,91.8,78.6,91.9,78.7
		C91.8,78.6,91.8,78.6,91.9,78.7C91.8,78.6,91.8,78.6,91.9,78.7C91.8,78.6,91.8,78.6,91.9,78.7C91.8,78.6,91.8,78.6,91.9,78.7
		c-0.2-0.2-0.4-0.4-0.5-0.5c0,0,0,0,0,0h0c0,0,0,0,0,0c0,0,0,0,0,0c0,0,0,0,0,0l0,0c0,0,0,0,0,0c0,0,0,0,0,0c0,0,0,0,0,0
		c0,0,0,0,0,0c0,0,0,0,0,0c0,0,0,0,0,0c0,0,0,0,0,0c0,0,0,0,0,0c0,0,0,0,0,0c0,0,0,0,0,0c0,0,0,0,0,0c0,0,0,0,0,0c0,0,0,0,0,0
		c0,0,0,0,0,0L87.7,81c0.3,0.3,0.6,0.7,0.9,1L91.9,78.7C91.9,78.7,91.9,78.7,91.9,78.7"/>
	<path d="M95.7,82.2c-0.1-0.1-0.3-0.2-0.4-0.4c0,0,0,0,0,0c0,0,0,0,0,0c0,0,0,0,0,0c0,0,0,0,0,0c0,0,0,0,0,0c0,0,0,0,0,0l0,0
		c0,0,0,0,0,0l0,0c0,0,0,0,0,0c0,0,0,0,0,0c0,0,0,0,0,0c0,0,0,0,0,0c-0.1-0.1-0.2-0.2-0.3-0.3l-3,3.5c0.3,0.3,0.7,0.6,1,0.9
		L95.7,82.2L95.7,82.2z"/>
	<path d="M96.7,83L96.7,83C96.7,83,96.7,83,96.7,83L96.7,83l-2.9,3.6c0.4,0.3,0.7,0.6,1.1,0.8l2.8-3.7C97.3,83.5,97,83.3,96.7,83"/>
	<path d="M168.5,72.8C168.5,72.8,168.5,72.8,168.5,72.8L168.5,72.8C168.5,72.8,168.4,72.8,168.5,72.8l3.7,2.7
		c0.3-0.4,0.5-0.8,0.8-1.1l-3.8-2.6C168.9,72.1,168.7,72.5,168.5,72.8"/>
	<path d="M84.3,68.7L84.3,68.7c-0.1-0.2-0.2-0.4-0.3-0.5c0,0,0,0,0,0l0,0c0,0,0,0,0,0l0,0c0,0,0,0,0,0c0,0,0,0,0,0c0,0,0,0,0,0
		c0,0,0,0,0,0c0,0,0,0,0,0c0,0,0,0,0,0c0,0,0,0,0,0c0,0,0,0,0,0c0,0,0,0,0,0c0,0,0,0,0,0c0,0,0,0,0,0l0,0c0,0,0,0,0,0c0,0,0,0,0,0
		c0,0,0,0,0,0c0,0,0,0,0,0c0,0,0,0,0,0c0,0,0,0,0,0c0,0,0,0,0,0c0,0,0,0,0,0c0,0,0,0,0,0c0,0,0,0,0,0c0,0,0,0,0,0c0,0,0,0,0,0
		c0,0,0,0,0,0c0,0,0,0,0,0c0,0,0,0,0,0l0,0c0,0,0,0,0,0c0,0,0,0,0,0c0,0,0,0,0,0l0,0c0,0,0,0,0,0v0c0,0,0,0,0,0h0
		c0-0.1-0.1-0.1-0.1-0.2l-4.1,2.2c0.2,0.4,0.4,0.8,0.7,1.2L84.3,68.7C84.4,68.7,84.3,68.7,84.3,68.7"/>
	<path d="M170.5,69.7C170.5,69.8,170.4,69.8,170.5,69.7L170.5,69.7c-0.1,0.1-0.1,0.2-0.1,0.2c0,0,0,0,0,0c-0.1,0.2-0.2,0.3-0.3,0.5
		l0,0c0,0,0,0,0,0c0,0.1-0.1,0.1-0.1,0.2l3.9,2.5c0.2-0.4,0.5-0.8,0.7-1.2L170.5,69.7C170.5,69.7,170.5,69.7,170.5,69.7"/>
	<path d="M171.7,67.5C171.7,67.5,171.7,67.5,171.7,67.5C171.7,67.5,171.7,67.5,171.7,67.5C171.7,67.5,171.7,67.5,171.7,67.5
		C171.7,67.5,171.7,67.5,171.7,67.5C171.7,67.5,171.7,67.5,171.7,67.5C171.7,67.6,171.7,67.6,171.7,67.5
		C171.7,67.6,171.7,67.6,171.7,67.5L171.7,67.5c-0.1,0.2-0.2,0.4-0.3,0.6v0c0,0,0,0,0,0l0,0c0,0,0,0,0,0c0,0,0,0,0,0c0,0,0,0,0,0
		c-0.1,0.1-0.1,0.3-0.2,0.4l4,2.3c0.2-0.4,0.4-0.8,0.7-1.2L171.7,67.5C171.8,67.5,171.8,67.5,171.7,67.5"/>
	<path d="M108.3,89.9C108.3,89.9,108.3,89.9,108.3,89.9L108.3,89.9C108.3,89.9,108.3,89.9,108.3,89.9
		C108.3,89.9,108.3,89.9,108.3,89.9C108.3,89.9,108.3,89.9,108.3,89.9L108.3,89.9C108.3,89.9,108.3,89.9,108.3,89.9L108.3,89.9
		C108.2,89.9,108.2,89.9,108.3,89.9C108.2,89.9,108.2,89.9,108.3,89.9l-0.1,0c0,0,0,0,0,0c0,0,0,0,0,0h0c0,0,0,0,0,0c0,0,0,0,0,0
		c0,0,0,0,0,0h0c0,0,0,0,0,0c0,0,0,0,0,0c0,0,0,0,0,0h0c0,0,0,0,0,0h0c0,0,0,0,0,0h0c0,0,0,0,0,0h0c0,0,0,0,0,0h0
		c-0.2-0.1-0.4-0.2-0.5-0.2l-1.9,4.2c0.4,0.2,0.8,0.4,1.3,0.6l1.8-4.3C108.5,90,108.4,90,108.3,89.9L108.3,89.9z"/>
	<path d="M167.5,74.2L167.5,74.2C167.5,74.2,167.5,74.2,167.5,74.2C167.5,74.2,167.4,74.2,167.5,74.2
		C167.4,74.2,167.4,74.2,167.5,74.2C167.4,74.2,167.4,74.2,167.5,74.2C167.4,74.2,167.4,74.2,167.5,74.2
		C167.4,74.2,167.4,74.2,167.5,74.2L167.5,74.2C167.4,74.2,167.4,74.2,167.5,74.2L167.5,74.2C167.4,74.2,167.4,74.2,167.5,74.2
		L167.5,74.2C167.4,74.3,167.4,74.3,167.5,74.2c-0.2,0.3-0.4,0.5-0.5,0.7l3.6,2.9c0.3-0.4,0.6-0.7,0.8-1.1l-3.7-2.8
		C167.6,74,167.5,74.1,167.5,74.2"/>
	<path d="M106.1,88.9L106.1,88.9C106.1,88.9,106.1,88.9,106.1,88.9c-0.3-0.1-0.6-0.3-0.9-0.4l-2.1,4.1c0.4,0.2,0.8,0.4,1.2,0.6
		l2-4.2C106.2,89,106.2,89,106.1,88.9"/>
	<path d="M160.2,81.9C160.2,81.9,160.2,81.9,160.2,81.9C160.2,81.9,160.2,81.9,160.2,81.9L160.2,81.9
		C160.1,81.9,160.1,81.9,160.2,81.9C160.1,81.9,160.1,81.9,160.2,81.9C160.1,81.9,160.1,81.9,160.2,81.9
		C160.1,81.9,160.1,81.9,160.2,81.9c-0.1,0.1-0.1,0.1-0.1,0.1c0,0,0,0,0,0c0,0,0,0,0,0c0,0,0,0,0,0c0,0,0,0,0,0c0,0,0,0,0,0
		c0,0,0,0,0,0c0,0,0,0,0,0c0,0,0,0,0,0c0,0,0,0,0,0c0,0,0,0,0,0c0,0,0,0,0,0l0,0c0,0,0,0,0,0l3,3.5c0.4-0.3,0.7-0.6,1-0.9l-3.1-3.5
		C160.6,81.5,160.4,81.7,160.2,81.9"/>
	<path d="M152.1,87.5L152.1,87.5C152.1,87.5,152.1,87.5,152.1,87.5C152.1,87.5,152.1,87.5,152.1,87.5
		C152.1,87.5,152.1,87.5,152.1,87.5C152,87.5,152,87.5,152.1,87.5C152,87.5,152,87.5,152.1,87.5C152,87.5,152,87.5,152.1,87.5
		C152,87.5,152,87.5,152.1,87.5C152,87.5,152,87.6,152.1,87.5C152,87.6,152,87.6,152.1,87.5C152,87.6,152,87.6,152.1,87.5
		c-0.1,0.1-0.1,0.1-0.1,0.1c0,0,0,0,0,0c0,0,0,0,0,0c0,0,0,0,0,0l0,0c0,0,0,0,0,0c0,0,0,0,0,0c0,0,0,0,0,0c0,0,0,0,0,0h0
		c0,0,0,0,0,0h0c-0.1,0-0.1,0.1-0.2,0.1h0c0,0,0,0,0,0c0,0,0,0,0,0h0c0,0,0,0,0,0c0,0,0,0,0,0l0,0c0,0,0,0,0,0c0,0,0,0,0,0l0,0
		c0,0,0,0,0,0c0,0,0,0,0,0c0,0,0,0,0,0l0,0c0,0,0,0,0,0c0,0,0,0,0,0c0,0,0,0,0,0c0,0,0,0,0,0l2.2,4c0.4-0.2,0.8-0.4,1.2-0.7l-2.3-4
		C152.4,87.3,152.3,87.4,152.1,87.5"/>
	<path d="M90,76.6C90,76.6,90,76.6,90,76.6C90,76.6,90,76.6,90,76.6C90,76.6,90,76.6,90,76.6C90,76.6,90,76.6,90,76.6
		C90,76.6,90,76.6,90,76.6C90,76.6,90,76.6,90,76.6c-0.2-0.3-0.4-0.5-0.6-0.7l-3.5,3c0.3,0.4,0.6,0.7,0.9,1l3.5-3
		C90.2,76.8,90.1,76.7,90,76.6"/>
	<path d="M156.4,84.8L156.4,84.8C156.4,84.8,156.4,84.8,156.4,84.8C156.4,84.8,156.4,84.8,156.4,84.8
		C156.4,84.8,156.4,84.8,156.4,84.8C156.4,84.8,156.4,84.8,156.4,84.8C156.4,84.8,156.4,84.8,156.4,84.8
		C156.4,84.8,156.4,84.8,156.4,84.8L156.4,84.8C156.4,84.8,156.4,84.8,156.4,84.8C156.4,84.8,156.4,84.8,156.4,84.8
		c-0.2,0.1-0.4,0.2-0.5,0.3c0,0,0,0,0,0c0,0-0.1,0-0.1,0.1l2.6,3.8c0.4-0.3,0.8-0.5,1.1-0.8l-2.7-3.7
		C156.7,84.6,156.6,84.7,156.4,84.8"/>
	<path d="M149.8,88.7L149.8,88.7C149.8,88.7,149.8,88.7,149.8,88.7L149.8,88.7L149.8,88.7C149.8,88.7,149.8,88.7,149.8,88.7
		L149.8,88.7c-0.2,0.1-0.4,0.2-0.6,0.3l2,4.2c0.4-0.2,0.8-0.4,1.2-0.6l-2.1-4.1C150.2,88.5,150,88.6,149.8,88.7"/>
	<path d="M146.9,90l1.8,4.2c0.4-0.2,0.8-0.4,1.3-0.5l-1.9-4.2C147.7,89.7,147.3,89.9,146.9,90"/>
	<path d="M158.8,83L158.8,83C158.8,83,158.8,83,158.8,83C158.8,83,158.8,83,158.8,83C158.8,83,158.7,83,158.8,83
		C158.7,83.1,158.7,83.1,158.8,83C158.7,83.1,158.7,83.1,158.8,83C158.7,83.1,158.7,83.1,158.8,83c-0.1,0.1-0.1,0.1-0.1,0.1
		c0,0,0,0,0,0c0,0,0,0,0,0c0,0,0,0,0,0c0,0,0,0,0,0c0,0,0,0,0,0c0,0,0,0,0,0c0,0,0,0,0,0c0,0,0,0,0,0c0,0,0,0,0,0l0,0c0,0,0,0,0,0h0
		c0,0,0,0,0,0c-0.2,0.2-0.4,0.3-0.6,0.4l2.8,3.7c0.4-0.3,0.7-0.6,1.1-0.8L158.8,83C158.9,83,158.8,83,158.8,83"/>
	<path d="M154.6,86L154.6,86C154.6,86,154.6,86,154.6,86L154.6,86C154.6,86,154.5,86,154.6,86C154.5,86,154.5,86,154.6,86L154.6,86
		C154.5,86.1,154.5,86.1,154.6,86C154.5,86.1,154.5,86.1,154.6,86C154.5,86.1,154.5,86.1,154.6,86L154.6,86
		c-0.3,0.2-0.6,0.4-0.9,0.5l2.4,3.9c0.4-0.2,0.8-0.5,1.2-0.7l-2.5-3.9C154.7,85.9,154.6,86,154.6,86"/>
	<path d="M166.1,75.8C166.1,75.9,166.1,75.9,166.1,75.8C166.1,75.9,166.1,75.9,166.1,75.8C166.1,75.9,166.1,75.9,166.1,75.8
		C166.1,75.9,166.1,75.9,166.1,75.8C166.1,75.9,166.1,75.9,166.1,75.8c-0.1,0.1-0.1,0.1-0.1,0.1v0c0,0,0,0,0,0
		c-0.1,0.2-0.3,0.3-0.4,0.5l0,0c0,0,0,0,0,0c0,0,0,0,0,0c0,0,0,0,0,0c0,0,0,0,0,0v0c0,0,0,0,0,0l0,0c-0.1,0.1-0.1,0.2-0.2,0.2l3.5,3
		c0.3-0.3,0.6-0.7,0.9-1L166.1,75.8C166.1,75.8,166.1,75.8,166.1,75.8"/>
	<path d="M85.4,70.5C85.4,70.5,85.4,70.5,85.4,70.5C85.4,70.5,85.4,70.5,85.4,70.5C85.4,70.4,85.4,70.4,85.4,70.5
		C85.4,70.4,85.4,70.4,85.4,70.5C85.4,70.4,85.4,70.4,85.4,70.5C85.4,70.4,85.4,70.4,85.4,70.5L85.4,70.5c-0.2-0.3-0.3-0.5-0.4-0.7
		l-3.9,2.4c0.2,0.4,0.5,0.8,0.7,1.2l3.9-2.5C85.6,70.7,85.5,70.6,85.4,70.5"/>
	<path d="M164.3,77.9L164.3,77.9C164.3,77.9,164.3,77.9,164.3,77.9C164.3,77.9,164.3,77.9,164.3,77.9
		C164.3,77.9,164.3,78,164.3,77.9C164.3,78,164.2,78,164.3,77.9C164.2,78,164.2,78,164.3,77.9C164.2,78,164.2,78,164.3,77.9
		c-0.1,0.1-0.1,0.1-0.1,0.1c0,0,0,0,0,0c0,0,0,0,0,0c0,0,0,0,0,0c0,0,0,0,0,0c0,0,0,0,0,0c0,0,0,0,0,0c0,0,0,0,0,0c0,0,0,0,0,0
		c0,0,0,0,0,0c0,0,0,0,0,0c0,0,0,0,0,0c0,0,0,0,0,0c0,0,0,0,0,0c0,0,0,0,0,0c0,0,0,0,0,0c0,0,0,0,0,0l0,0c0,0,0,0,0,0c0,0,0,0,0,0
		c0,0,0,0,0,0c0,0,0,0,0,0c0,0,0,0,0,0c0,0,0,0,0,0c0,0,0,0,0,0l0,0c0,0,0,0,0,0h0c-0.1,0.1-0.2,0.2-0.3,0.3l3.3,3.2
		c0.3-0.3,0.6-0.7,0.9-1l-3.4-3.1C164.4,77.8,164.4,77.9,164.3,77.9"/>
	<path d="M87.8,74l-3.7,2.8c0.3,0.4,0.6,0.7,0.8,1.1l3.6-2.9C88.4,74.6,88.1,74.3,87.8,74"/>
	<path d="M86.5,72.2L86.5,72.2C86.5,72.1,86.5,72.1,86.5,72.2L86.5,72.2C86.5,72.1,86.5,72.1,86.5,72.2
		C86.5,72.1,86.5,72.1,86.5,72.2C86.5,72.1,86.5,72.1,86.5,72.2c-0.1-0.1-0.1-0.2-0.2-0.3l-3.8,2.6c0.3,0.4,0.5,0.8,0.8,1.1l3.7-2.7
		C86.9,72.7,86.7,72.4,86.5,72.2"/>
	<path d="M161.8,80.4l3.1,3.4c0.3-0.3,0.7-0.6,1-0.9l-3.2-3.3C162.4,79.9,162.1,80.2,161.8,80.4"/>
</g>
</svg>
