<?xml version="1.0" encoding="utf-8"?>
<!-- Generator: Adobe Illustrator 25.4.1, SVG Export Plug-In . SVG Version: 6.00 Build 0)  -->
<svg version="1.1" id="Capa_1" xmlns="http://www.w3.org/2000/svg" xmlns:xlink="http://www.w3.org/1999/xlink" x="0px" y="0px"
	 viewBox="0 0 250 100" style="enable-background:new 0 0 250 100;" xml:space="preserve">
<g>
	<g>
		<g>
			<path d="M243.6,47.5c0.4-0.2,0.7-0.6,0.7-1c0-0.6-0.5-1.1-1.1-1.1h-1.4c-0.1,0-0.1,0-0.1,0.1v3.4c0,0.1,0,0.1,0.1,0.1h0.3
				c0,0,0.1,0,0.1-0.1v-1.3h0.8l0.7,1.3c0,0,0,0,0.1,0h0.4c0.1,0,0.1-0.1,0.1-0.1L243.6,47.5z M242.3,45.9h0.9
				c0.3,0,0.6,0.3,0.6,0.6c0,0.3-0.3,0.6-0.6,0.6h-0.9V45.9z"/>
			<path d="M242.9,43.6c-2,0-3.6,1.6-3.6,3.6c0,2,1.6,3.6,3.6,3.6c2,0,3.6-1.6,3.6-3.6C246.5,45.3,244.9,43.6,242.9,43.6z
				 M242.9,50.4c-1.7,0-3.1-1.4-3.1-3.1c0-1.7,1.4-3.1,3.1-3.1c1.7,0,3.1,1.4,3.1,3.1C246,49,244.6,50.4,242.9,50.4z"/>
		</g>
	</g>
	<g>
		<g>
			<path d="M227.5,55.8c-3.1-0.8-5-1.3-5.3-2.9c-0.2-1.1,0.3-1.9,0.8-2.3c0.7-0.5,1.6-0.6,1.7-0.6h10.7v-4.4h-9.7
				c-0.1,0-8.6,0.1-8.6,6.8c0,5.5,5.6,6.8,9.8,7.8c1.5,0.4,2.7,0.7,3.5,1.1c0.5,0.2,2.1,0.9,1.7,2.7c-0.4,1.8-2.2,2-2.3,2H219v4.4
				h9.7c0.1,0,8.6-0.1,8.6-6.8C237.2,58.2,231.6,56.8,227.5,55.8z"/>
			<path d="M98.7,65.7l0,1.6v3.1l-4.7,0v-4.7h0V45.5h1.9l4.5,3.3c0,0,0.7-3.3,3.7-3.3h4.5v4.7h-5.6c0,0-4.2,0-4.2,4.2V65.7z"/>
			<path d="M127.5,57.9v-3.5c0,0,0-4.2,4.2-4.2h9.2v-4.7h-9.2c0,0-9,0-9,8.9v3.2v-0.8v4.7c0,8.9,9,8.9,9,8.9h9.2v-4.7h-9.2
				c-4.2,0-4.2-4.2-4.2-4.2v-5V57.9z"/>
			<path d="M75.9,57.9v-3.5c0,0,0-4.2,4.3-4.2h9.2v-4.7h-9.2c0,0-9,0-9,8.9v3.2v-0.8v4.7c0,8.9,9,8.9,9,8.9h9.2v-4.7h-9.2
				c-4.3,0-4.3-4.3-4.3-4.3v-5V57.9z"/>
			<g>
				<polygon points="145.7,65.7 145.7,65.7 145.7,70.4 150.4,70.4 150.4,65.7 150.4,65.7 150.4,45.5 145.7,45.5 				"/>
				<path d="M167.3,70.4l-8.5-12.3l8.2-12.6h-5.5c0,0-8.3,12.9-8.3,12.9l8.4,11.9H167.3z"/>
			</g>
			<path d="M212.4,50.2v-4.7h-6.6V39h-1.7l-3,4.5v2.1l-1.6,0l-1.7,2.1v2.6h3.2v11.3c0,8.9,9,8.9,9,8.9h2.3v-4.7h-2.3
				c-4.3,0-4.3-4.3-4.3-4.3V50.2H212.4z"/>
			<g>
				<path d="M118,65.7v4.7l-4.7,0v-4.7h0V45.5h4.7L118,65.7L118,65.7z"/>
			</g>
			<g>
				<path d="M59.1,45.5c-1.6,0-6.2,0-6.2,0c-4.8,0-7.6,3.9-7.6,7.7c0,1.5,0,8.3,0,8.3c0,8.9,9,8.9,9,8.9H65v-4.7H54.3
					c-3.6,0-4.2-3.1-4.2-4.2c0-0.3,0-1.2,0-1.2H59c4.5,0,7.4-3.8,7.4-7.1C66.4,48.9,63.1,45.5,59.1,45.5z M59,55.6
					c-0.2,0-1.5,0-1.5,0H50v-2.7c0-1.8,1.5-2.7,2.7-2.7c0.7,0,5.9,0,6.2,0c1.1,0,2.7,0.8,2.7,2.8C61.6,55,59.6,55.6,59,55.6z"/>
			</g>
			<g>
				<path d="M185.8,45.5c-1.6,0-6.2,0-6.2,0c-4.8,0-7.6,3.9-7.6,7.7c0,1.5,0,8.3,0,8.3c0,8.9,9,8.9,9,8.9h10.7v-4.7h-10.7
					c-3.6,0-4.2-3.1-4.2-4.2c0-0.3,0-1.2,0-1.2h8.9c4.5,0,7.4-3.8,7.4-7.1C193.1,48.9,189.9,45.5,185.8,45.5z M185.8,55.6
					c-0.2,0-1.5,0-1.5,0h-7.5v-2.7c0-1.8,1.5-2.7,2.7-2.7c0.7,0,5.9,0,6.2,0c1.1,0,2.7,0.8,2.7,2.8C188.4,55,186.4,55.6,185.8,55.6z
					"/>
			</g>
		</g>
		<path d="M36.2,48.7l-0.7-0.6c1.5-1.4,2.5-3.5,2.5-6c0-5.4-4.4-8.1-8.3-8.1c-1.2,0-3.2,0-3.2,0c-3.3,0-7.1,0-8.5,0
			c-1.5,0-2.8-0.9-3.4-1.9c-0.9-1.2-0.8-2.6-0.8-2.6H8.8c0,1.6,0.5,4.1,2.4,6.3c1.7,1.8,3.7,3.1,8,3.1c0.3,0,4.2,0,4.2,0h3.9
			c0.7,0,2,0,2.3,0c1.5,0,3.3,1.1,3.3,3.3c0,3.2-3.3,3.4-3.3,3.4h-1.2c0,0-6.3,0-7,0v0H16c-0.4,0-0.6,0.3-0.6,0.3s-5.9,6.6-6.2,6.9
			c-0.2,0.2-0.3,0.5-0.3,0.7v5.1c0.1,6.5,5.4,11.7,11.9,11.8l8,0c6.6,0,11.9-5.3,11.9-12C40.5,54.7,39,51.2,36.2,48.7z M28.5,65.3
			l-8,0c-3.8,0-6.8-3.1-6.7-6.9l0-7.3l7.6,0l0,0h7.1c3.8,0,7,3.3,7,7.1C35.5,62.2,31.8,65.3,28.5,65.3z"/>
		<path d="M118.1,36.5c0,1.3-1.1,2.4-2.4,2.4c-1.3,0-2.4-1.1-2.4-2.4c0-1.3,1.1-2.4,2.4-2.4C117,34,118.1,35.1,118.1,36.5z"/>
	</g>
</g>
</svg>
