<?xml version="1.0" encoding="utf-8"?>
<!-- Generator: Adobe Illustrator 25.4.1, SVG Export Plug-In . SVG Version: 6.00 Build 0)  -->
<svg version="1.1" id="Capa_1" xmlns="http://www.w3.org/2000/svg" xmlns:xlink="http://www.w3.org/1999/xlink" x="0px" y="0px"
	 viewBox="0 0 250 100" style="enable-background:new 0 0 250 100;" xml:space="preserve">
<style type="text/css">
	.st0{fill:none;stroke:#000000;stroke-width:3;stroke-miterlimit:10;}
	.st1{fill:none;stroke:#000000;stroke-linecap:round;stroke-miterlimit:10;}
</style>
<g>
	<polygon class="st0" points="78.7,6.1 68,28.2 75.3,61 121.8,97.3 168.1,61 175.7,28 164.6,6.1 139.3,1.4 121.8,17.9 104.4,1.4 	
		"/>
	<polygon class="st1" points="121.8,97.3 97.9,61.5 121.8,42.4 	"/>
	<polygon class="st1" points="121.8,97.3 144.4,61.5 121.8,42.4 	"/>
	<polygon class="st1" points="97.9,61.5 75.3,61 86.6,42.4 	"/>
	<polygon class="st1" points="144.4,61.5 168.1,61 155.1,42.4 	"/>
	<polygon class="st1" points="86.6,42.4 68,28.2 78.7,6.1 	"/>
	<polygon class="st1" points="104.4,1.4 86.6,42.4 78.7,6.1 	"/>
	<polygon class="st1" points="121.8,25.1 86.6,42.4 104.4,1.4 	"/>
	<polygon class="st1" points="121.8,17.9 121.8,25.1 104.4,1.4 	"/>
	<polygon class="st1" points="121.8,42.4 86.6,42.4 121.8,25.1 	"/>
	<polygon class="st1" points="139.3,1.4 121.8,25.1 121.8,17.9 	"/>
	<polygon class="st1" points="155.1,42.4 121.8,42.4 121.8,25.1 	"/>
	<polygon class="st1" points="139.3,1.4 155.1,42.4 121.8,25.1 	"/>
	<polygon class="st1" points="168.1,61 155.1,42.4 175.7,28 	"/>
	<polygon class="st1" points="164.6,6.1 155.1,42.4 175.7,28 	"/>
	<polyline class="st1" points="139.3,1.4 155.1,42.4 164.6,6.1 	"/>
	<g>
		<g>
			<path d="M74.3,19.7c0,0,1.9-1.2,2.2-3.2c0.4-2.4-3.3-1.4-4.3-0.3c-0.4,0.5-8.5,7.5-8,19.2c0,0,0.1,5.2,5.2,3.7
				c5.1-1.5,11-8.4,11-8.4l-1.7,3.4c0,0-4.3,4.3-8.5,6.4s-9.8,2.6-9.8-4.7s2.5-11.9,7.2-17c4.7-5.1,8-4.8,8.8-4.5s1.3,0.9,1.2,2.1
				c-0.1,1.2-0.5,2.8-2.6,4.3C73.8,21.6,73.5,20.3,74.3,19.7z"/>
			<path d="M84.4,14.7l-7.9,25.6c0,0-0.6,1.4,0.6,1.6c1.3,0.2,1.6-0.5,2.5-2.8c0.9-2.3,1.5-5.2,4.2-8.4c2.7-3.2,3.4-3,3.3-1.6
				c-0.1,1.4-0.3,2.5-1.1,4.6c-0.8,2.1-2.2,6.9-0.4,7.2c1.9,0.2,4.2-1.4,7.6-5.2l-0.6-1.2c0,0-2,2.6-3.3,3.7c-1.4,1.1-3.4,2-2.3-0.7
				c1-2.7,2.1-5,2.5-7.3c0.4-2.4-0.6-4.2-2.1-3.7c-1.5,0.5-3.2,2.1-4.9,4.4l4.7-15.1c0,0,0.8-1.6-0.9-2C85,13.3,84.4,14.7,84.4,14.7
				z"/>
			<path d="M105.1,36C105.1,36,105.1,36,105.1,36c0.6-1.1,2.8-7.1,0.7-10.1c-1.7-2.5-4.3-1.3-5.7,0.1c-0.2-0.1-2.5-0.7-5.3,2.1
				c-3,2.9-2.7,9-1.3,10.9c1.4,1.9,3.3,2.5,6.3,1.8c1.9-0.5,3.4-2,4.3-3.2c1.2,0,3.2-0.6,5.9-3.2l1.4-3.5
				C111.3,31,108.4,35.5,105.1,36z M102.8,25.6c2,0,1.8,3.6,1.7,4.7c-0.2,1.1-0.6,4-1.4,5.5c0,0-2.9-0.6-3-7.1
				C100,28.6,100.8,25.5,102.8,25.6z M95.3,38.7c-0.8-2-0.1-5.5,1.1-8.2c1.3-2.7,3.2-3.7,3.2-3.7c-3,5.2,2.8,10.3,2.8,10.3
				C99.3,41.2,96.1,40.7,95.3,38.7z"/>
			<path d="M141.1,36.1C141.1,36.1,141.1,36.1,141.1,36.1c0.6-1.1,2.8-7.1,0.7-10.1c-1.7-2.5-4.3-1.3-5.7,0.1
				c-0.2-0.1-2.5-0.7-5.3,2.1c-3,2.9-2.7,9-1.3,10.9c1.4,1.9,3.3,2.5,6.3,1.8c1.9-0.5,3.4-2,4.3-3.2c1.2,0,3.2-0.6,5.9-3.2l1.4-3.5
				C147.3,31.1,144.3,35.6,141.1,36.1z M138.8,25.6c2,0,1.8,3.6,1.7,4.7c-0.2,1.1-0.6,4-1.4,5.5c0,0-2.9-0.6-3-7.1
				C136,28.7,136.8,25.6,138.8,25.6z M131.3,38.8c-0.8-2-0.1-5.5,1.1-8.2c1.3-2.7,3.2-3.7,3.2-3.7c-3,5.2,2.8,10.3,2.8,10.3
				C135.3,41.3,132,40.8,131.3,38.8z"/>
			<path d="M124.1,39.6c-2.6,1.5-5,2.6-6.6,0.6c-1.6-2-0.4-7.2-0.4-7.2s0.8,1.7,4,0.9c3.3-0.8,4.1-3.2,4.1-5.7c0-2.4-2-3.7-4.1-3.3
				c-2.1,0.3-4,1.8-8,6.5l4.4-14.5c0,0,0.8-1.8-0.7-2.2c-1.5-0.3-1.8,1.2-1.8,1.2L108,39.4c0,0-0.7,1.7,0.5,2.1
				c1.2,0.4,1.9-0.4,2.2-1.7c0.3-1.3,1.3-5.3,4.9-8.2c0,0-1,4.6-0.5,7.9c0.5,3.3,5.7,6.3,13.8-2.7l0.1-1.9
				C129.1,34.8,126.7,38.1,124.1,39.6z M117.5,29.3c0,0,1.9-2.4,4.3-2.2c2.4,0.2,2.3,3.1,0.3,4.3c-2,1.2-4.2,1.6-5.2-1.2
				C116.9,30.3,117.1,29.8,117.5,29.3z"/>
			<path d="M148.9,39c-1.9,0.8-1.5-1.9-1.3-2.6c0.3-0.7,1.6-5.9,2.8-9.2s1.1-2.7,2.1-3.6c1-0.9,3.1-2.6,4.7-4.6
				c1.7-2,1.2-4.6,1.2-4.6s-1-3.4-4.6-0.3c-3.6,3.1-5,9.7-5,9.7c-2.1,1.1-2.9,0.6-3.3,0.2c-0.4-0.4,0.1-1.6,0.1-1.6
				c0.2-0.6-0.1-0.9-0.4-0.9c-0.3,0-1.4,0.8-0.9,3s3.7,1,3.7,1c-0.3,0.6-3.7,9.9-3.2,13.8c0.5,3.9,3.7,1.9,6.2,0.4
				c2.5-1.5,6.8-4.6,6.8-4.6l0.4-2.2C152.5,37.6,150.8,38.3,148.9,39z M155.5,15.4c0,0,1.8-2.5,1.8-0.4c-0.1,2.1-1.1,3.5-2,4.4
				c-0.9,1-2.4,2.3-3,2.5C152.2,22,153.1,19,155.5,15.4z"/>
			<path d="M174.8,32.2l-1.4,2.1c0,0-1.6,2.4-3.7,3.8c-2.1,1.4-3.5,2.2-2.5-1c1-3.3,2.9-8,3.3-9.3c0.4-1.3,0.8-2,0.4-2.6
				c-0.4-0.7-1.3-0.7-1.5-0.1c-0.3,0.6-1.1,1.9-1.1,1.9s0.1-2.3-1.4-2.6c-1.5-0.3-5,1.5-7.8,5.8c-2.8,4.3-2.2,7.9-2.1,8.5
				c0.1,0.5,0.7,2.5,2.9,2.4c2.2-0.1,4.6-3.9,4.6-3.9s-0.9,4.6,1.7,3.8c2.5-0.7,4.5-2,7.4-5.3S174.8,32.2,174.8,32.2z M164.9,33.8
				c-1.6,2.8-4.4,6.7-5.5,5.4c-1.1-1.3-0.1-4.5,1.4-7c1.5-2.4,3.9-5.4,3.9-5.4s1.9-2,2-0.2C166.9,28.2,166.6,31,164.9,33.8z"/>
			<path d="M184.8,31c0,0-0.7-0.1-1.3,1.5c-0.6,1.6-2.2,5.2-5,6.8c-2.8,1.6-4.5,1.1-3.1-3.7c1.4-4.8,3.6-11.5,3.6-11.5l0.1-0.2l3,0
				c0,0,1.3,0,1.2-0.7c0-0.7-1.1-0.7-1.1-0.7l-2.7,0l2-6.2c0,0,0.8-1.7-0.7-2.1c-1.5-0.4-1.8,1.1-1.8,1.1s-1.1,3.6-2.2,7.3l-2.3,0
				c0,0-1.3-0.1-1.4,0.7c-0.1,0.6,0.9,0.7,0.9,0.7l2.5,0c-0.7,2.4-1.4,4.6-1.7,5.6c-0.8,2.7-3.4,10.4,0.1,11.6
				c3.4,1.2,8.3-3.1,10.3-8.4C185,32.7,185.8,31.1,184.8,31z"/>
		</g>
	</g>
	<g>
		<g>
			<path d="M118.5,49.8c0,0-1,1.1,0.3,2.2s2-0.4,1.7-1.3C120.1,49.8,119.6,49,118.5,49.8z"/>
			<path d="M86,50.7c0,0-0.9,1,0.2,2.1c1.1,1.1,1.7-0.4,1.5-1.2C87.4,50.7,87,50,86,50.7z"/>
			<path d="M184.7,61.5c-0.3-0.5-1.5,1.2-1.5,1.2s-2,3.1-4.2,4.8c-2.2,1.7-3.7,2.3-2.6-1c1.1-3.3,3.4-10.2,3.4-10.2s0.7-1.6-0.6-1.9
				s-1.4,1-1.4,1l-0.5,1.4c0,0-0.2-2.8-1.8-2.9c-1.6-0.1-4,1.1-6.6,4.8c-2.6,3.8-2.7,7.2-2.7,7.2l-0.6,0.1c0,0-1.7,3.1-4,3.8
				c-2.3,0.7-3.2,0-2.5-2.7c0.4-1.5,2.1-7.9,3.7-13.3c1.3,0,2.4,0,2.7,0c0.9,0,1.3-0.3,1.3-1c0-0.7-1.1-0.5-1.1-0.5l-2.5,0.1
				c1-3.6,1.8-6.5,1.8-6.5s0.5-1.7-0.9-1.9c-1.4-0.2-1.7,1.6-2,2.4c-0.1,0.3-0.8,3-1.6,6.1l-2,0c-0.7,0-1.7-0.1-1.9,0.7
				c-0.2,0.8,1,0.8,1,0.8s1.1,0,2.5,0c-1.2,4.4-2.4,9.1-2.4,9.1l-4.1,4.5c0,0-4.7,4.7-4.3,1.9c0.4-2.8,1.5-6.9,1.5-6.9
				s1.7-6.3-1.5-7.2c-3.1-0.9-7.3,3.8-7.3,3.8l0.9-3c0,0,0.8-1.4-1-1.8c-1.1-0.3-1.9,2.2-1.9,2.2l-1.5,5.5c0,0-0.7,1.9-2.2,3.9
				c-1.4,2-5.6,5.6-8.7,5.1c-3-0.5-1.4-5.1-1.4-5.1s2.2-1.4,5.4-4.4c3.2-3,2.7-5.1,1.9-5.7s-2.4-1.3-5.3,1.5c-3,2.9-5.1,7.7-5.4,9.5
				l-0.6-0.1c0,0-1.2,1.4-2.4,2.4s-3.6,3-3.2,0.1c0.3-2.9,2.4-10.9,2.4-10.9s0.8-2.5-0.5-2.8c-1.3-0.3-1.3,0.2-1.6,2.2
				c-0.3,1.9-1.3,5.8-1.8,7.2l-0.8,0.6c0,0-3.1,3.7-4.2,4.8s-3.3,2.8-2.6,0c0.7-2.8,2.5-9.2,2.5-9.2s1.4-3.8-1.4-4.3
				c-2.8-0.5-5.4,3.6-5.4,3.6s0.8-4.1-1.6-4.3c-2.5-0.2-6,3.5-6.5,4.6l1-3.5c0,0,0.3-1.2-1-1.3c-1.3-0.1-1.6,0.6-1.9,1.9
				c-0.3,1.2-2,7.3-2,7.3s-0.4,1.7-1.2,2.7c-0.9,1-2.9,2.9-3.7,3.3c-0.8,0.4-2.7,1.7-2.3-1c0.3-2.7,2.6-11.2,2.6-11.2
				s0.8-2.1-0.4-2.2c-1.2-0.1-1.4,0.8-1.7,1.9c-0.3,1.2-0.8,3.8-0.8,3.8s-1.3-3.6-3.8-4.6c0,0,2.3-2.3,1.5-8
				c-0.8-5.7-8.5-0.6-8.5-0.6s-2.9,1.7-5.4,5.7l1.4-5.3c0,0,0.9-2.6-1.2-2.8c-2-0.2-4.8,0.5-6,3.5s-0.3,5.3,0,6.4
				c0.2,1.1,0.9,0.6,1,0.5c0.2-0.1,0.1-0.6,0.1-1.3c0,0-1.2-7.6,3.9-7.6l-6.1,23.6c0,0-0.9,2.7,0.9,3c1.8,0.3,2.3-1.1,2.5-3.1
				c0.2-2,2.5-12.9,2.5-12.9s1.2-3.1,4.6-6c3.5-3,5.9-3.5,6.7-2c0.8,1.5-0.2,5.3-0.2,5.3s-3.9-1.1-7.7,1.3c-3.7,2.4-3.5,5.1-3.5,5.1
				s0.5,3.2,4.6,2.1c4.1-1.1,7.3-4.1,8.3-5.9c0,0,2.4,1.9,3,3.6c0.6,1.7,1,2.1,0.3,4c-0.7,1.9-1.8,6.6,0.3,7.3
				c2.1,0.7,4.2-1.2,6.6-4.1l-0.5,2.3c0,0-0.1,1.6,1.2,1.7c1.3,0.1,1.9-0.9,2.3-3s1.6-6.6,4.2-9.3c2.6-2.8,3.2-3.3,3.9-3.1
				c0.6,0.1,1.5,1.4,0.5,3.8c-1,2.4-3.4,9.1-3.4,9.1s-0.7,1.6,0.6,1.7c1.3,0.1,2.1-2.5,2.1-2.5s0.5-1.4,1.9-4.6
				c1.4-3.1,2.9-5.1,3.7-6.1c0.9-1,2.2-1.9,2.1,0.3c-0.1,2.2-2,8.3-2.3,9.5c-0.3,1.2-0.9,3.8,1.1,4c2,0.2,4.8-3,7.7-6.2
				c0,0-1.8,4.4,0.5,5.5c2.3,1.1,4-0.9,7.1-4.2c0,0,0,4,4.7,3.8c4.7-0.2,8-2.7,10.3-6.3l-1,3.9c0,0-0.5,1.7,0.7,2s1.8-0.5,2.3-2.1
				c0.4-1.6,2-9.1,5-10.9c3.1-1.9,5.3-2.3,4.8,0.8c-0.5,3.1-1.6,8.4-1.6,8.4s-1.2,4.5,1.5,3.9c2.7-0.5,8-6.4,8-6.4s-1.7,6.5,2.8,6.1
				c4.5-0.3,6.2-4,6.2-4s0,3.3,2.8,3.5c2.8,0.1,4.9-4.5,4.9-4.5s-1.5,6,2.8,3.9c4.3-2.1,7.5-7.3,7.5-7.3S185,62,184.7,61.5z
				 M129.7,58.7c2.2-2.3,2.9-2.1,3.2-1.7c0.3,0.4-0.5,2.5-2.3,4.1c-1.8,1.6-3.8,2.7-3.8,2.7S127.5,61.1,129.7,58.7z M74.1,60.6
				c-1.9,1.5-4.7,3.2-5.7,1.8c-1-1.4,0.4-3.1,0.4-3.1s1.2-1.3,4.1-2.3c3-0.9,4.1,0.2,4.1,0.2S75.9,59.1,74.1,60.6z M172.7,65.7
				c0,0-2.5,4.1-3.8,3.5c-1.2-0.6-1-3.4,0.5-6.5c1.4-3.1,3.7-5.7,3.7-5.7s2.3-2.6,2.8-0.2S172.7,65.7,172.7,65.7z"/>
			<g>
				<path d="M187,56.9c-0.3,0-0.5-0.1-0.7-0.2c-0.2-0.1-0.4-0.3-0.6-0.4c-0.2-0.2-0.3-0.4-0.4-0.6c-0.1-0.2-0.1-0.5-0.1-0.8
					c0-0.3,0.1-0.5,0.2-0.7c0.1-0.2,0.3-0.4,0.4-0.6c0.2-0.2,0.4-0.3,0.6-0.4c0.2-0.1,0.5-0.1,0.8-0.1c0.3,0,0.5,0.1,0.7,0.2
					s0.4,0.3,0.6,0.4c0.2,0.2,0.3,0.4,0.4,0.6c0.1,0.2,0.1,0.5,0.1,0.8c0,0.3-0.1,0.5-0.2,0.7c-0.1,0.2-0.3,0.4-0.4,0.6
					c-0.2,0.2-0.4,0.3-0.6,0.4C187.6,56.8,187.3,56.9,187,56.9z M187.1,56.6c0.2,0,0.5,0,0.7-0.1c0.2-0.1,0.4-0.2,0.5-0.3
					c0.1-0.1,0.3-0.3,0.4-0.5c0.1-0.2,0.1-0.4,0.1-0.7c0-0.2,0-0.5-0.1-0.7c-0.1-0.2-0.2-0.4-0.3-0.5c-0.1-0.2-0.3-0.3-0.5-0.4
					c-0.2-0.1-0.4-0.1-0.6-0.2c-0.2,0-0.5,0-0.7,0.1c-0.2,0.1-0.4,0.2-0.5,0.3c-0.2,0.1-0.3,0.3-0.4,0.5c-0.1,0.2-0.1,0.4-0.1,0.7
					c0,0.2,0,0.5,0.1,0.7c0.1,0.2,0.2,0.4,0.3,0.5c0.1,0.2,0.3,0.3,0.5,0.4C186.6,56.5,186.8,56.6,187.1,56.6z M188,56l-0.3,0
					l-0.6-1l-0.5,0l0,1l-0.3,0l0.1-2.2l0.9,0c0.3,0,0.5,0.1,0.6,0.2c0.1,0.1,0.2,0.2,0.2,0.4c0,0.1,0,0.2-0.1,0.3
					c0,0.1-0.1,0.1-0.2,0.2c-0.1,0-0.1,0.1-0.2,0.1c-0.1,0-0.2,0-0.3,0L188,56z M187.1,54.8c0.1,0,0.2,0,0.2,0c0.1,0,0.2,0,0.2,0
					c0.1,0,0.1-0.1,0.2-0.1c0.1-0.1,0.1-0.1,0.1-0.2c0-0.1,0-0.2,0-0.2c0-0.1-0.1-0.1-0.1-0.1c-0.1,0-0.1,0-0.2-0.1
					c-0.1,0-0.1,0-0.2,0l-0.6,0l0,0.8L187.1,54.8z"/>
			</g>
		</g>
	</g>
</g>
</svg>
