<?xml version="1.0" encoding="utf-8"?>
<!-- Generator: Adobe Illustrator 25.4.1, SVG Export Plug-In . SVG Version: 6.00 Build 0)  -->
<svg version="1.1" id="Capa_1" xmlns="http://www.w3.org/2000/svg" xmlns:xlink="http://www.w3.org/1999/xlink" x="0px" y="0px"
	 viewBox="0 0 250 100" style="enable-background:new 0 0 250 100;" xml:space="preserve">
<g>
	<g>
		<g>
			<path d="M71.8,34.5c0.6-0.4,1.4-0.6,2.2-0.6c0.9,0,1.7,0.2,2.3,0.7c0.6,0.5,1,1.1,1.2,1.9c0,0.1,0.1,0.2,0.2,0.2h1.8
				c0.1,0,0.3-0.1,0.2-0.3c-0.2-0.8-0.5-1.6-0.9-2.2c-0.5-0.7-1.2-1.3-2-1.7c-0.8-0.4-1.7-0.6-2.8-0.6c-1.3,0-2.5,0.3-3.4,0.9
				s-1.7,1.4-2.3,2.4c-0.5,1-0.8,2.2-0.8,3.6c0,1.4,0.3,2.6,0.8,3.6c0.5,1,1.3,1.8,2.3,2.4s2.1,0.8,3.4,0.8c1,0,1.9-0.2,2.8-0.6
				c0.8-0.4,1.5-0.9,2-1.6c0.5-0.6,0.8-1.4,0.9-2.2c0-0.1-0.1-0.3-0.2-0.3h-1.8c-0.1,0-0.2,0.1-0.2,0.2c-0.2,0.8-0.6,1.4-1.2,1.9
				c-0.6,0.5-1.4,0.7-2.3,0.7c-0.8,0-1.6-0.2-2.2-0.6c-0.6-0.4-1.1-1-1.4-1.7s-0.5-1.6-0.5-2.5c0-1,0.2-1.8,0.5-2.6
				S71.1,34.9,71.8,34.5z"/>
			<path d="M89.5,35.7h-1.6c-0.1,0-0.2,0.1-0.2,0.2v4.7c0,1-0.2,1.8-0.7,2.4c-0.5,0.6-1.1,0.9-1.9,0.9c-0.8,0-1.3-0.3-1.7-0.8
				c-0.4-0.5-0.6-1.2-0.6-2.2v-5c0-0.1-0.1-0.2-0.2-0.2h-1.6c-0.1,0-0.2,0.1-0.2,0.2v5.2c0,1.6,0.4,2.8,1.1,3.5
				c0.7,0.7,1.7,1.1,2.8,1.1c1.3,0,2.3-0.5,3-1.4v1c0,0.1,0.1,0.2,0.2,0.2h1.6c0.1,0,0.2-0.1,0.2-0.2v-9.4
				C89.7,35.8,89.6,35.7,89.5,35.7z"/>
			<path d="M97.1,40c-0.6-0.2-1.3-0.3-2.1-0.4c-0.6-0.1-1.1-0.1-1.4-0.2c-0.3-0.1-0.5-0.2-0.7-0.3c-0.2-0.1-0.3-0.4-0.3-0.7
				c0-0.4,0.2-0.7,0.6-0.9c0.4-0.2,0.9-0.3,1.5-0.3c0.6,0,1.1,0.1,1.5,0.4c0.3,0.3,0.6,0.6,0.6,0.9c0,0.1,0.1,0.2,0.2,0.2h1.6
				c0.1,0,0.3-0.1,0.2-0.3c-0.1-0.9-0.5-1.6-1.2-2.1c-0.8-0.6-1.8-0.8-3-0.8c-0.8,0-1.4,0.1-2,0.4c-0.6,0.3-1.1,0.6-1.4,1.1
				c-0.3,0.5-0.5,1-0.5,1.6c0,0.6,0.2,1.2,0.5,1.5c0.3,0.4,0.8,0.7,1.4,0.8c0.6,0.2,1.3,0.3,2.1,0.4c0.6,0.1,1.1,0.2,1.4,0.2
				c0.3,0.1,0.5,0.2,0.7,0.4c0.2,0.2,0.3,0.4,0.3,0.8c0,0.4-0.2,0.7-0.6,1C96,43.9,95.5,44,94.9,44c-0.7,0-1.3-0.2-1.7-0.5
				c-0.4-0.3-0.6-0.6-0.7-1.1c0-0.1-0.1-0.2-0.2-0.2h-1.5c-0.1,0-0.2,0.1-0.2,0.3c0.1,0.9,0.5,1.7,1.2,2.2c0.8,0.6,1.9,0.9,3.2,0.9
				c0.8,0,1.5-0.1,2.1-0.4c0.6-0.3,1.1-0.6,1.5-1.1c0.4-0.5,0.5-1,0.5-1.6c0-0.7-0.2-1.2-0.5-1.7C98.2,40.5,97.7,40.2,97.1,40z"/>
			<path d="M105.7,43.7h-1.3c-0.4,0-0.6-0.1-0.8-0.2c-0.2-0.2-0.2-0.4-0.2-0.8v-5.2h2.1c0.1,0,0.2-0.1,0.2-0.2v-1.4
				c0-0.1-0.1-0.2-0.2-0.2h-2.1v-2.5c0-0.1-0.1-0.2-0.2-0.2h-1.6c-0.1,0-0.2,0.1-0.2,0.2v2.5h-1.5c-0.1,0-0.2,0.1-0.2,0.2v1.4
				c0,0.1,0.1,0.2,0.2,0.2h1.5v5.4c0,0.9,0.2,1.6,0.6,2c0.4,0.4,1.1,0.7,2.1,0.7h1.8c0.1,0,0.2-0.1,0.2-0.2V44
				C105.9,43.8,105.8,43.7,105.7,43.7z"/>
			<path d="M114.1,36.2c-0.8-0.4-1.6-0.6-2.6-0.6c-1,0-1.9,0.2-2.6,0.6c-0.8,0.4-1.4,1-1.8,1.8c-0.4,0.8-0.6,1.6-0.6,2.6
				c0,1,0.2,1.9,0.6,2.7c0.4,0.8,1,1.4,1.8,1.8c0.8,0.4,1.6,0.6,2.6,0.6c1,0,1.9-0.2,2.6-0.6c0.8-0.4,1.4-1,1.8-1.8
				c0.4-0.8,0.6-1.7,0.6-2.7c0-1-0.2-1.9-0.6-2.6C115.4,37.2,114.9,36.6,114.1,36.2z M113.6,43c-0.5,0.6-1.2,0.9-2.1,0.9
				c-0.9,0-1.6-0.3-2.1-0.9c-0.5-0.6-0.8-1.4-0.8-2.4s0.3-1.8,0.8-2.4c0.5-0.6,1.2-0.9,2.1-0.9c0.9,0,1.6,0.3,2.1,0.9
				c0.5,0.6,0.8,1.4,0.8,2.4S114.1,42.4,113.6,43z"/>
			<path d="M128.6,35.6c-0.8,0-1.5,0.2-2,0.5c-0.6,0.3-1,0.8-1.4,1.3c-0.3-0.6-0.7-1.1-1.2-1.4c-0.5-0.3-1.1-0.4-1.8-0.4
				c-1.2,0-2.2,0.5-2.9,1.4v-1.1c0-0.1-0.1-0.2-0.2-0.2h-1.6c-0.1,0-0.2,0.1-0.2,0.2v9.4c0,0.1,0.1,0.2,0.2,0.2h1.6
				c0.1,0,0.2-0.1,0.2-0.2v-5.1c0-0.9,0.2-1.6,0.6-2.1c0.4-0.5,1-0.8,1.7-0.8c0.7,0,1.2,0.2,1.6,0.7c0.4,0.4,0.5,1.1,0.5,2v5.3
				c0,0.1,0.1,0.2,0.2,0.2h1.6c0.1,0,0.2-0.1,0.2-0.2v-5.1c0-0.9,0.2-1.6,0.6-2.1c0.4-0.5,1-0.8,1.7-0.8c0.7,0,1.2,0.2,1.5,0.7
				c0.3,0.5,0.5,1.1,0.5,2v5.3c0,0.1,0.1,0.2,0.2,0.2h1.6c0.1,0,0.2-0.1,0.2-0.2V40c0-1.5-0.3-2.7-1-3.4
				C130.6,35.9,129.7,35.6,128.6,35.6z"/>
			<path d="M140.3,36.1c-0.7-0.4-1.6-0.6-2.5-0.6c-0.9,0-1.8,0.2-2.5,0.6c-0.7,0.4-1.3,1-1.7,1.8c-0.4,0.8-0.6,1.7-0.6,2.7
				c0,1,0.2,1.9,0.6,2.6c0.4,0.8,1,1.3,1.8,1.8c0.8,0.4,1.7,0.6,2.7,0.6c1.2,0,2.2-0.3,3-1c0.7-0.6,1.2-1.3,1.4-2.2
				c0-0.2-0.1-0.3-0.2-0.3h-1.6c-0.1,0-0.2,0.1-0.2,0.2c-0.2,0.5-0.4,0.8-0.8,1.1c-0.4,0.3-1,0.5-1.6,0.5c-0.8,0-1.5-0.3-1.9-0.8
				c-0.5-0.5-0.8-1.2-0.8-2v-0.1h7.5c0-0.3,0.1-0.5,0.1-0.8c0-1-0.2-1.8-0.6-2.5C141.6,37.1,141,36.5,140.3,36.1z M135.2,39.5
				c0.1-0.7,0.4-1.3,0.9-1.7c0.5-0.4,1.1-0.6,1.8-0.6c0.7,0,1.3,0.2,1.8,0.6s0.8,1,0.9,1.7H135.2z"/>
			<path d="M148.9,35.7h-0.2c-0.8,0-1.4,0.1-1.8,0.4c-0.5,0.3-0.8,0.6-1.1,1.1v-1.2c0-0.1-0.1-0.2-0.2-0.2h-1.6
				c-0.1,0-0.2,0.1-0.2,0.2v9.4c0,0.1,0.1,0.2,0.2,0.2h1.6c0.1,0,0.2-0.1,0.2-0.2v-4.7c0-0.9,0.2-1.6,0.6-2.1c0.4-0.6,1-0.8,1.9-0.8
				h0.7c0.1,0,0.2-0.1,0.2-0.2v-1.5C149.1,35.8,149,35.7,148.9,35.7z"/>
			<path d="M162.1,38.4c-0.6-0.3-1.4-0.5-2.3-0.6c-0.9-0.2-1.5-0.3-2-0.4c-0.5-0.1-0.8-0.3-1.1-0.6c-0.3-0.3-0.4-0.6-0.4-1
				c0-0.6,0.2-1.1,0.7-1.4c0.5-0.3,1.1-0.5,1.9-0.5c0.8,0,1.5,0.2,2,0.6c0.5,0.4,0.8,0.9,0.9,1.5c0,0.1,0.1,0.2,0.2,0.2h1.7
				c0.1,0,0.3-0.1,0.2-0.3c-0.1-0.7-0.3-1.3-0.7-1.9c-0.4-0.6-1-1.1-1.8-1.5c-0.8-0.4-1.6-0.5-2.6-0.5c-0.9,0-1.8,0.2-2.5,0.5
				c-0.7,0.3-1.3,0.8-1.7,1.4c-0.4,0.6-0.6,1.3-0.6,2.1c0,0.8,0.2,1.5,0.6,2c0.4,0.5,0.9,0.9,1.5,1.1c0.6,0.3,1.4,0.5,2.2,0.6
				c0.9,0.2,1.5,0.3,2,0.4c0.5,0.1,0.9,0.3,1.1,0.6c0.3,0.3,0.4,0.6,0.4,1.1c0,0.6-0.3,1.1-0.8,1.5c-0.5,0.4-1.2,0.5-2,0.5
				c-0.9,0-1.7-0.2-2.3-0.7c-0.5-0.4-0.9-1-1-1.7c0-0.1-0.1-0.2-0.2-0.2l-1.7,0c-0.1,0-0.3,0.1-0.2,0.2c0.1,0.8,0.3,1.5,0.7,2.1
				c0.5,0.7,1.1,1.2,1.9,1.6c0.8,0.4,1.7,0.6,2.8,0.6c1,0,1.8-0.2,2.6-0.5c0.8-0.4,1.4-0.8,1.8-1.5c0.4-0.6,0.6-1.3,0.6-2.1
				c0-0.8-0.2-1.5-0.6-2C163.2,39,162.7,38.6,162.1,38.4z"/>
			<path d="M172.3,36.1c-0.7-0.4-1.6-0.6-2.5-0.6c-0.9,0-1.8,0.2-2.5,0.6c-0.7,0.4-1.3,1-1.7,1.8c-0.4,0.8-0.6,1.7-0.6,2.7
				c0,1,0.2,1.9,0.6,2.6c0.4,0.8,1,1.3,1.8,1.8c0.8,0.4,1.7,0.6,2.7,0.6c1.2,0,2.2-0.3,3-1c0.7-0.6,1.2-1.3,1.4-2.2
				c0-0.2-0.1-0.3-0.2-0.3h-1.6c-0.1,0-0.2,0.1-0.2,0.2c-0.2,0.5-0.4,0.8-0.8,1.1c-0.4,0.3-1,0.5-1.6,0.5c-0.8,0-1.5-0.3-1.9-0.8
				c-0.5-0.5-0.8-1.2-0.8-2v-0.1h7.5c0-0.3,0.1-0.5,0.1-0.8c0-1-0.2-1.8-0.6-2.5C173.6,37.1,173,36.5,172.3,36.1z M167.2,39.5
				c0.1-0.7,0.4-1.3,0.9-1.7c0.5-0.4,1.1-0.6,1.8-0.6c0.7,0,1.3,0.2,1.8,0.6s0.8,1,0.9,1.7H167.2z"/>
			<path d="M180.6,35.7h-0.2c-0.8,0-1.4,0.1-1.8,0.4c-0.5,0.3-0.8,0.6-1.1,1.1l0-1.2c0-0.1-0.1-0.2-0.2-0.2h-1.6
				c-0.1,0-0.2,0.1-0.2,0.2v9.4c0,0.1,0.1,0.2,0.2,0.2h1.6c0.1,0,0.2-0.1,0.2-0.2v-4.7c0-0.9,0.2-1.6,0.6-2.1c0.4-0.6,1-0.8,1.9-0.8
				h0.7c0.1,0,0.2-0.1,0.2-0.2v-1.5C180.8,35.8,180.7,35.7,180.6,35.7z"/>
			<path d="M190.7,35.7H189c-0.1,0-0.2,0.1-0.2,0.2l-2.6,7.5l-2.7-7.5c0-0.1-0.1-0.2-0.2-0.2h-1.7c-0.2,0-0.3,0.2-0.2,0.3l3.5,9.4
				c0,0.1,0.1,0.2,0.2,0.2h2.2c0.1,0,0.2-0.1,0.2-0.2l3.5-9.4C191,35.8,190.8,35.7,190.7,35.7z"/>
			<path d="M193.5,35.7h-1.6c-0.1,0-0.2,0.1-0.2,0.2v9.4c0,0.1,0.1,0.2,0.2,0.2h1.6c0.1,0,0.2-0.1,0.2-0.2v-9.4
				C193.7,35.8,193.6,35.7,193.5,35.7z"/>
			<path d="M192.7,31.7c-0.4,0-0.7,0.1-0.9,0.4c-0.2,0.2-0.4,0.5-0.4,0.9c0,0.4,0.1,0.7,0.4,0.9c0.2,0.2,0.5,0.4,0.9,0.4
				s0.7-0.1,0.9-0.4c0.2-0.2,0.4-0.5,0.4-0.9c0-0.4-0.1-0.7-0.4-0.9C193.3,31.8,193,31.7,192.7,31.7z"/>
			<path d="M203.6,42H202c-0.1,0-0.2,0.1-0.2,0.2c-0.1,0.5-0.4,0.9-0.8,1.2c-0.4,0.3-1,0.5-1.6,0.5c-0.8,0-1.5-0.3-2-0.9
				c-0.5-0.6-0.8-1.4-0.8-2.4c0-1,0.3-1.7,0.8-2.4c0.5-0.6,1.2-0.9,2-0.9c0.6,0,1.1,0.2,1.6,0.5c0.4,0.3,0.6,0.7,0.8,1.2
				c0,0.1,0.1,0.2,0.2,0.2h1.7c0.2,0,0.3-0.1,0.2-0.3c-0.2-1-0.7-1.8-1.4-2.4c-0.8-0.6-1.8-1-3-1c-1,0-1.9,0.2-2.6,0.6
				c-0.8,0.4-1.3,1-1.7,1.8c-0.4,0.8-0.6,1.6-0.6,2.6c0,1,0.2,1.9,0.6,2.7c0.4,0.8,1,1.4,1.7,1.8c0.7,0.4,1.6,0.6,2.6,0.6
				c1.2,0,2.3-0.3,3.1-1c0.7-0.6,1.2-1.4,1.4-2.4C203.9,42.1,203.8,42,203.6,42z"/>
			<path d="M214.2,41.1c0-0.3,0.1-0.5,0.1-0.8c0-1-0.2-1.8-0.6-2.5c-0.4-0.7-1-1.3-1.7-1.6c-0.7-0.4-1.6-0.6-2.5-0.6
				c-0.9,0-1.8,0.2-2.5,0.6c-0.7,0.4-1.3,1-1.7,1.8c-0.4,0.8-0.6,1.7-0.6,2.7c0,1,0.2,1.9,0.6,2.6c0.4,0.8,1,1.3,1.8,1.8
				c0.8,0.4,1.7,0.6,2.7,0.6c1.2,0,2.2-0.3,3-1c0.7-0.6,1.2-1.3,1.4-2.2c0-0.2-0.1-0.3-0.2-0.3h-1.6c-0.1,0-0.2,0.1-0.2,0.2
				c-0.2,0.5-0.4,0.8-0.8,1.1c-0.4,0.3-1,0.5-1.6,0.5c-0.8,0-1.5-0.3-1.9-0.8c-0.5-0.5-0.8-1.2-0.8-2v-0.1H214.2z M207.7,37.9
				c0.5-0.4,1.1-0.6,1.8-0.6c0.7,0,1.3,0.2,1.8,0.6s0.8,1,0.9,1.7h-5.3C206.9,38.8,207.2,38.3,207.7,37.9z"/>
		</g>
		<g>
			<path d="M162.6,61.7H156v-3.9h5.2c0.1,0,0.2-0.1,0.2-0.2v-1.4c0-0.1-0.1-0.2-0.2-0.2H156v-3.7h6.4c0.1,0,0.2-0.1,0.2-0.2v-1.5
				c0-0.1-0.1-0.2-0.2-0.2h-8.3c-0.1,0-0.2,0.1-0.2,0.2v13c0,0.1,0.1,0.2,0.2,0.2h8.6c0.1,0,0.2-0.1,0.2-0.2v-1.5
				C162.9,61.8,162.8,61.7,162.6,61.7z"/>
			<path d="M169.5,58.6l3.2-4.4c0.1-0.2,0-0.4-0.2-0.4h-1.7c-0.1,0-0.1,0-0.2,0.1l-2.3,3.2l-2.3-3.2c0-0.1-0.1-0.1-0.2-0.1H164
				c-0.2,0-0.3,0.2-0.2,0.4l3.2,4.5l-3.4,4.7c-0.1,0.2,0,0.4,0.2,0.4h1.7c0.1,0,0.1,0,0.2-0.1l2.6-3.5l2.5,3.5
				c0,0.1,0.1,0.1,0.2,0.1h1.8c0.2,0,0.3-0.2,0.2-0.4L169.5,58.6z"/>
			<path d="M181.5,54.3c-0.7-0.4-1.5-0.6-2.4-0.6c-1.4,0-2.4,0.5-3.2,1.6V54c0-0.1-0.1-0.2-0.2-0.2H174c-0.1,0-0.2,0.1-0.2,0.2v13.3
				c0,0.1,0.1,0.2,0.2,0.2h1.6c0.1,0,0.2-0.1,0.2-0.2v-5c0.3,0.5,0.8,0.8,1.3,1.1c0.5,0.3,1.2,0.4,1.9,0.4c0.9,0,1.7-0.2,2.4-0.6
				c0.7-0.4,1.3-1,1.7-1.8c0.4-0.8,0.6-1.7,0.6-2.7c0-1-0.2-1.9-0.6-2.7C182.7,55.2,182.2,54.7,181.5,54.3z M180.8,61.1
				c-0.5,0.6-1.2,0.9-2.1,0.9c-0.9,0-1.6-0.3-2.1-0.9c-0.5-0.6-0.8-1.4-0.8-2.4c0-1,0.3-1.7,0.8-2.3s1.2-0.9,2.1-0.9
				c0.9,0,1.6,0.3,2.1,0.9c0.5,0.6,0.8,1.4,0.8,2.4C181.6,59.7,181.3,60.5,180.8,61.1z"/>
			<path d="M191.7,54.2c-0.7-0.4-1.6-0.6-2.5-0.6c-0.9,0-1.8,0.2-2.5,0.6s-1.3,1-1.7,1.8c-0.4,0.8-0.6,1.7-0.6,2.7
				c0,1,0.2,1.9,0.6,2.6c0.4,0.8,1,1.3,1.8,1.8c0.8,0.4,1.7,0.6,2.7,0.6c1.2,0,2.2-0.3,3-1c0.7-0.6,1.2-1.3,1.4-2.2
				c0-0.2-0.1-0.3-0.2-0.3H192c-0.1,0-0.2,0.1-0.2,0.2c-0.2,0.5-0.4,0.8-0.8,1.1c-0.4,0.3-1,0.5-1.6,0.5c-0.8,0-1.5-0.3-1.9-0.8
				c-0.5-0.5-0.8-1.2-0.8-2v-0.1h7.5c0-0.3,0.1-0.5,0.1-0.8c0-1-0.2-1.8-0.6-2.5C193,55.2,192.5,54.6,191.7,54.2z M186.7,57.6
				c0.1-0.7,0.4-1.3,0.9-1.7c0.5-0.4,1.1-0.6,1.8-0.6c0.7,0,1.3,0.2,1.8,0.6c0.5,0.4,0.8,1,0.9,1.7H186.7z"/>
			<path d="M200,53.8h-0.2c-0.8,0-1.4,0.1-1.8,0.4c-0.5,0.3-0.8,0.6-1.1,1.1V54c0-0.1-0.1-0.2-0.2-0.2h-1.6c-0.1,0-0.2,0.1-0.2,0.2
				v9.4c0,0.1,0.1,0.2,0.2,0.2h1.6c0.1,0,0.2-0.1,0.2-0.2v-4.7c0-0.9,0.2-1.6,0.6-2.1c0.4-0.6,1-0.8,1.9-0.8h0.7
				c0.1,0,0.2-0.1,0.2-0.2V54C200.3,53.9,200.2,53.8,200,53.8z"/>
			<path d="M203.1,53.8h-1.6c-0.1,0-0.2,0.1-0.2,0.2v9.4c0,0.1,0.1,0.2,0.2,0.2h1.6c0.1,0,0.2-0.1,0.2-0.2V54
				C203.3,53.9,203.2,53.8,203.1,53.8z"/>
			<path d="M202.3,49.8c-0.4,0-0.7,0.1-0.9,0.4c-0.2,0.2-0.4,0.5-0.4,0.9c0,0.4,0.1,0.7,0.4,0.9c0.2,0.2,0.5,0.4,0.9,0.4
				s0.7-0.1,0.9-0.4c0.2-0.2,0.4-0.5,0.4-0.9c0-0.4-0.1-0.7-0.4-0.9C202.9,49.9,202.6,49.8,202.3,49.8z"/>
			<path d="M211.6,54.2c-0.7-0.4-1.6-0.6-2.5-0.6c-0.9,0-1.8,0.2-2.5,0.6s-1.3,1-1.7,1.8s-0.6,1.7-0.6,2.7c0,1,0.2,1.9,0.6,2.6
				c0.4,0.8,1,1.3,1.8,1.8c0.8,0.4,1.7,0.6,2.7,0.6c1.2,0,2.2-0.3,3-1c0.7-0.6,1.2-1.3,1.4-2.2c0-0.2-0.1-0.3-0.2-0.3h-1.6
				c-0.1,0-0.2,0.1-0.2,0.2c-0.2,0.5-0.4,0.8-0.8,1.1c-0.4,0.3-1,0.5-1.6,0.5c-0.8,0-1.5-0.3-1.9-0.8c-0.5-0.5-0.8-1.2-0.8-2v-0.1
				h7.5c0-0.3,0.1-0.5,0.1-0.8c0-1-0.2-1.8-0.6-2.5C212.9,55.2,212.3,54.6,211.6,54.2z M206.5,57.6c0.1-0.7,0.4-1.3,0.9-1.7
				c0.5-0.4,1.1-0.6,1.8-0.6c0.7,0,1.3,0.2,1.8,0.6c0.5,0.4,0.8,1,0.9,1.7H206.5z"/>
			<path d="M219.9,53.6c-1.4,0-2.4,0.5-3.2,1.4V54c0-0.1-0.1-0.2-0.2-0.2h-1.6c-0.1,0-0.2,0.1-0.2,0.2v9.4c0,0.1,0.1,0.2,0.2,0.2
				h1.6c0.1,0,0.2-0.1,0.2-0.2v-4.7c0-1,0.2-1.8,0.7-2.4c0.5-0.6,1.1-0.9,1.9-0.9c0.8,0,1.4,0.2,1.8,0.7c0.4,0.5,0.6,1.2,0.6,2.1
				v5.1c0,0.1,0.1,0.2,0.2,0.2h1.6c0.1,0,0.2-0.1,0.2-0.2v-5.2c0-1.6-0.4-2.8-1.1-3.5S221,53.6,219.9,53.6z"/>
			<path d="M233.7,60.1h-1.7c-0.1,0-0.2,0.1-0.2,0.2c-0.1,0.5-0.4,0.9-0.8,1.2c-0.4,0.3-1,0.5-1.6,0.5c-0.8,0-1.5-0.3-2-0.9
				c-0.5-0.6-0.8-1.4-0.8-2.4c0-1,0.3-1.8,0.8-2.4c0.5-0.6,1.2-0.9,2-0.9c0.6,0,1.1,0.2,1.6,0.5c0.4,0.3,0.6,0.7,0.8,1.2
				c0,0.1,0.1,0.2,0.2,0.2h1.7c0.2,0,0.3-0.1,0.2-0.3c-0.2-1-0.7-1.8-1.4-2.4c-0.8-0.6-1.8-1-3-1c-1,0-1.9,0.2-2.6,0.6
				c-0.8,0.4-1.3,1-1.7,1.8s-0.6,1.6-0.6,2.6c0,1,0.2,1.9,0.6,2.7c0.4,0.8,1,1.4,1.7,1.8c0.7,0.4,1.6,0.6,2.6,0.6
				c1.2,0,2.3-0.3,3.1-1c0.7-0.6,1.2-1.4,1.4-2.4C234,60.2,233.9,60.1,233.7,60.1z"/>
			<path d="M244.3,59.1c0-0.3,0.1-0.5,0.1-0.8c0-1-0.2-1.8-0.6-2.5c-0.4-0.7-1-1.3-1.7-1.6c-0.7-0.4-1.6-0.6-2.5-0.6
				c-0.9,0-1.8,0.2-2.5,0.6s-1.3,1-1.7,1.8c-0.4,0.8-0.6,1.7-0.6,2.7c0,1,0.2,1.9,0.6,2.6c0.4,0.8,1,1.3,1.8,1.8
				c0.8,0.4,1.7,0.6,2.7,0.6c1.2,0,2.2-0.3,3-1c0.7-0.6,1.2-1.3,1.4-2.2c0-0.2-0.1-0.3-0.2-0.3h-1.6c-0.1,0-0.2,0.1-0.2,0.2
				c-0.2,0.5-0.4,0.8-0.8,1.1c-0.4,0.3-1,0.5-1.6,0.5c-0.8,0-1.5-0.3-1.9-0.8c-0.5-0.5-0.8-1.2-0.8-2v-0.1H244.3z M237.8,56
				c0.5-0.4,1.1-0.6,1.8-0.6c0.7,0,1.3,0.2,1.8,0.6c0.5,0.4,0.8,1,0.9,1.7h-5.3C237,56.9,237.3,56.4,237.8,56z"/>
			<path d="M71.8,52.6c0.6-0.4,1.4-0.6,2.2-0.6c0.9,0,1.7,0.2,2.3,0.7c0.6,0.5,1,1.1,1.2,1.9c0,0.1,0.1,0.2,0.2,0.2h1.8
				c0.1,0,0.3-0.1,0.2-0.3c-0.2-0.8-0.5-1.6-0.9-2.2c-0.5-0.7-1.2-1.3-2-1.7C76,50.2,75.1,50,74.1,50c-1.3,0-2.5,0.3-3.4,0.9
				c-1,0.6-1.7,1.4-2.3,2.4c-0.5,1-0.8,2.2-0.8,3.6c0,1.4,0.3,2.6,0.8,3.6c0.5,1,1.3,1.8,2.3,2.4s2.1,0.8,3.4,0.8
				c1,0,1.9-0.2,2.8-0.6c0.8-0.4,1.5-0.9,2-1.6c0.5-0.6,0.8-1.4,0.9-2.2c0-0.1-0.1-0.3-0.2-0.3h-1.8c-0.1,0-0.2,0.1-0.2,0.2
				c-0.2,0.8-0.6,1.4-1.2,1.9c-0.6,0.5-1.4,0.7-2.3,0.7c-0.8,0-1.6-0.2-2.2-0.6c-0.6-0.4-1.1-1-1.4-1.7s-0.5-1.6-0.5-2.5
				c0-1,0.2-1.8,0.5-2.6S71.1,53,71.8,52.6z"/>
			<path d="M89.5,53.8h-1.6c-0.1,0-0.2,0.1-0.2,0.2v4.7c0,1-0.2,1.8-0.7,2.4c-0.5,0.6-1.1,0.9-1.9,0.9c-0.8,0-1.3-0.3-1.7-0.8
				C83,60.7,82.8,60,82.8,59v-5c0-0.1-0.1-0.2-0.2-0.2h-1.6c-0.1,0-0.2,0.1-0.2,0.2v5.2c0,1.6,0.4,2.8,1.1,3.5
				c0.7,0.7,1.7,1.1,2.8,1.1c1.3,0,2.3-0.5,3-1.4v1c0,0.1,0.1,0.2,0.2,0.2h1.6c0.1,0,0.2-0.1,0.2-0.2V54
				C89.7,53.9,89.6,53.8,89.5,53.8z"/>
			<path d="M97.1,58.1c-0.6-0.2-1.3-0.3-2.1-0.4c-0.6-0.1-1.1-0.1-1.4-0.2c-0.3-0.1-0.5-0.2-0.7-0.3c-0.2-0.1-0.3-0.4-0.3-0.7
				c0-0.4,0.2-0.7,0.6-0.9c0.4-0.2,0.9-0.3,1.5-0.3c0.6,0,1.1,0.1,1.5,0.4c0.3,0.3,0.6,0.6,0.6,0.9c0,0.1,0.1,0.2,0.2,0.2h1.6
				c0.1,0,0.3-0.1,0.2-0.3c-0.1-0.9-0.5-1.6-1.2-2.1c-0.8-0.6-1.8-0.8-3-0.8c-0.8,0-1.4,0.1-2,0.4c-0.6,0.3-1.1,0.6-1.4,1.1
				c-0.3,0.5-0.5,1-0.5,1.6c0,0.6,0.2,1.2,0.5,1.5c0.3,0.4,0.8,0.7,1.4,0.8c0.6,0.2,1.3,0.3,2.1,0.4c0.6,0.1,1.1,0.2,1.4,0.2
				c0.3,0.1,0.5,0.2,0.7,0.4c0.2,0.2,0.3,0.4,0.3,0.8c0,0.4-0.2,0.7-0.6,1c-0.4,0.2-0.9,0.4-1.5,0.4c-0.7,0-1.3-0.2-1.7-0.5
				c-0.4-0.3-0.6-0.6-0.7-1.1c0-0.1-0.1-0.2-0.2-0.2h-1.5c-0.1,0-0.2,0.1-0.2,0.3c0.1,0.9,0.5,1.7,1.2,2.2c0.8,0.6,1.9,0.9,3.2,0.9
				c0.8,0,1.5-0.1,2.1-0.4c0.6-0.3,1.1-0.6,1.5-1.1c0.4-0.5,0.5-1,0.5-1.6c0-0.7-0.2-1.2-0.5-1.7C98.2,58.6,97.7,58.3,97.1,58.1z"/>
			<path d="M105.7,61.8h-1.3c-0.4,0-0.6-0.1-0.8-0.2c-0.2-0.2-0.2-0.4-0.2-0.8v-5.2h2.1c0.1,0,0.2-0.1,0.2-0.2V54
				c0-0.1-0.1-0.2-0.2-0.2h-2.1v-2.5c0-0.1-0.1-0.2-0.2-0.2h-1.6c-0.1,0-0.2,0.1-0.2,0.2v2.5h-1.5c-0.1,0-0.2,0.1-0.2,0.2v1.4
				c0,0.1,0.1,0.2,0.2,0.2h1.5V61c0,0.9,0.2,1.6,0.6,2c0.4,0.4,1.1,0.7,2.1,0.7h1.8c0.1,0,0.2-0.1,0.2-0.2V62
				C105.9,61.9,105.8,61.8,105.7,61.8z"/>
			<path d="M114.1,54.3c-0.8-0.4-1.6-0.6-2.6-0.6c-1,0-1.9,0.2-2.6,0.6c-0.8,0.4-1.4,1-1.8,1.8c-0.4,0.8-0.6,1.6-0.6,2.6
				c0,1,0.2,1.9,0.6,2.7c0.4,0.8,1,1.4,1.8,1.8c0.8,0.4,1.6,0.6,2.6,0.6c1,0,1.9-0.2,2.6-0.6c0.8-0.4,1.4-1,1.8-1.8
				c0.4-0.8,0.6-1.7,0.6-2.7c0-1-0.2-1.9-0.6-2.6C115.4,55.3,114.9,54.7,114.1,54.3z M113.6,61.1c-0.5,0.6-1.2,0.9-2.1,0.9
				c-0.9,0-1.6-0.3-2.1-0.9c-0.5-0.6-0.8-1.4-0.8-2.4s0.3-1.8,0.8-2.4c0.5-0.6,1.2-0.9,2.1-0.9c0.9,0,1.6,0.3,2.1,0.9
				c0.5,0.6,0.8,1.4,0.8,2.4S114.1,60.5,113.6,61.1z"/>
			<path d="M128.6,53.6c-0.8,0-1.5,0.2-2,0.5c-0.6,0.3-1,0.8-1.4,1.3c-0.3-0.6-0.7-1.1-1.2-1.4c-0.5-0.3-1.1-0.4-1.8-0.4
				c-1.2,0-2.2,0.5-2.9,1.4V54c0-0.1-0.1-0.2-0.2-0.2h-1.6c-0.1,0-0.2,0.1-0.2,0.2v9.4c0,0.1,0.1,0.2,0.2,0.2h1.6
				c0.1,0,0.2-0.1,0.2-0.2v-5.1c0-0.9,0.2-1.6,0.6-2.1c0.4-0.5,1-0.8,1.7-0.8c0.7,0,1.2,0.2,1.6,0.7c0.4,0.4,0.5,1.1,0.5,2v5.3
				c0,0.1,0.1,0.2,0.2,0.2h1.6c0.1,0,0.2-0.1,0.2-0.2v-5.1c0-0.9,0.2-1.6,0.6-2.1c0.4-0.5,1-0.8,1.7-0.8c0.7,0,1.2,0.2,1.5,0.7
				c0.3,0.5,0.5,1.1,0.5,2v5.3c0,0.1,0.1,0.2,0.2,0.2h1.6c0.1,0,0.2-0.1,0.2-0.2v-5.3c0-1.5-0.3-2.7-1-3.4
				C130.6,54,129.7,53.6,128.6,53.6z"/>
			<path d="M140.3,54.2c-0.7-0.4-1.6-0.6-2.5-0.6c-0.9,0-1.8,0.2-2.5,0.6c-0.7,0.4-1.3,1-1.7,1.8c-0.4,0.8-0.6,1.7-0.6,2.7
				c0,1,0.2,1.9,0.6,2.6c0.4,0.8,1,1.3,1.8,1.8c0.8,0.4,1.7,0.6,2.7,0.6c1.2,0,2.2-0.3,3-1c0.7-0.6,1.2-1.3,1.4-2.2
				c0-0.2-0.1-0.3-0.2-0.3h-1.6c-0.1,0-0.2,0.1-0.2,0.2c-0.2,0.5-0.4,0.8-0.8,1.1c-0.4,0.3-1,0.5-1.6,0.5c-0.8,0-1.5-0.3-1.9-0.8
				c-0.5-0.5-0.8-1.2-0.8-2v-0.1h7.5c0-0.3,0.1-0.5,0.1-0.8c0-1-0.2-1.8-0.6-2.5C141.6,55.2,141,54.6,140.3,54.2z M135.2,57.6
				c0.1-0.7,0.4-1.3,0.9-1.7s1.1-0.6,1.8-0.6c0.7,0,1.3,0.2,1.8,0.6s0.8,1,0.9,1.7H135.2z"/>
			<path d="M148.9,53.8h-0.2c-0.8,0-1.4,0.1-1.8,0.4c-0.5,0.3-0.8,0.6-1.1,1.1V54c0-0.1-0.1-0.2-0.2-0.2h-1.6
				c-0.1,0-0.2,0.1-0.2,0.2v9.4c0,0.1,0.1,0.2,0.2,0.2h1.6c0.1,0,0.2-0.1,0.2-0.2v-4.7c0-0.9,0.2-1.6,0.6-2.1c0.4-0.6,1-0.8,1.9-0.8
				h0.7c0.1,0,0.2-0.1,0.2-0.2V54C149.1,53.9,149,53.8,148.9,53.8z"/>
		</g>
		<g>
			<path d="M221.3,35.8l2.7,7.5l2.6-7.5c0-0.1,0.1-0.2,0.2-0.2h1.7c0.2,0,0.3,0.2,0.2,0.3l-3.5,9.4c0,0.1-0.1,0.2-0.2,0.2h-2.2
				c-0.1,0-0.2-0.1-0.2-0.2l-3.5-9.4c-0.1-0.2,0.1-0.3,0.2-0.3h1.7C221.1,35.7,221.2,35.7,221.3,35.8z"/>
			<path d="M231.5,43.6c0.4,0.3,1,0.5,1.7,0.5c0.6,0,1.1-0.1,1.5-0.4c0.4-0.2,0.6-0.6,0.6-1c0-0.3-0.1-0.6-0.3-0.8
				c-0.2-0.2-0.4-0.3-0.7-0.4c-0.3-0.1-0.8-0.1-1.4-0.2c-0.9-0.1-1.6-0.2-2.1-0.4c-0.6-0.2-1-0.4-1.3-0.8c-0.3-0.4-0.5-0.9-0.5-1.5
				c0-0.6,0.2-1.1,0.5-1.6c0.3-0.5,0.8-0.8,1.4-1.1c0.6-0.3,1.3-0.4,2-0.4c1.2,0,2.3,0.3,3,0.8c0.7,0.5,1.1,1.2,1.2,2.1
				c0,0.1-0.1,0.3-0.2,0.3h-1.6c-0.1,0-0.2-0.1-0.2-0.2c-0.1-0.4-0.3-0.7-0.6-0.9c-0.4-0.3-0.9-0.4-1.5-0.4c-0.6,0-1.1,0.1-1.5,0.3
				c-0.4,0.2-0.6,0.5-0.6,0.9c0,0.3,0.1,0.5,0.3,0.7c0.2,0.1,0.4,0.3,0.7,0.3c0.3,0.1,0.7,0.1,1.4,0.2c0.8,0.1,1.6,0.2,2.1,0.4
				c0.6,0.2,1,0.5,1.4,0.9c0.3,0.4,0.5,1,0.5,1.6c0,0.6-0.2,1.2-0.5,1.6c-0.4,0.5-0.9,0.8-1.5,1.1c-0.6,0.3-1.3,0.4-2.1,0.4
				c-1.3,0-2.4-0.3-3.2-0.9c-0.7-0.5-1.2-1.3-1.2-2.2c0-0.1,0.1-0.3,0.2-0.3h1.5c0.1,0,0.2,0.1,0.2,0.2
				C230.9,42.9,231.1,43.3,231.5,43.6z"/>
		</g>
		<g>
			<g>
				<path d="M89.4,72.6c-0.1,0.6-0.3,2.2,0.4,2.5c1.3,0.6,3.3-1.8,4.1-2.7c1.3-1.4,2.5-2.8,3.8-4.2c1.2-1.4,2.4-2.8,3.7-4.3
					c0.5-0.5,1-1.6,1.7-1.9c0.1-0.1,0.3,0,0.3,0.2c0,0.4-0.2,0.8-0.3,1.2c-0.3,0.9-0.6,1.7-1,2.6c-0.7,1.7-1.4,3.5-2.2,5.2
					c-1.6,3.3-4.1,7.9-8.2,8.1c-0.3,0-0.3-0.4,0-0.4c4.1-0.2,6.6-5.1,8.1-8.4c0.7-1.7,1.4-3.3,2.1-5c0.3-0.7,0.5-1.4,0.8-2.1
					c0-0.1,0.1-0.2,0.1-0.3c-2.3,2.6-4.6,5.4-7,8c-0.8,0.9-5.2,6.3-6.5,4.1c-1.2-2,0.4-4.9,1.2-6.7c0.6-1.4,2.1-4.3,1.1-5.8
					c-0.8-1.4-3.1-0.6-4.2,0.1c-1.1,0.6-2.2,1.4-3,2.4c-0.8,1-2,2.4-2,3.8c0,1.6,1.8,2.6,3.3,2.8c0.3,0,0.3,0.5,0,0.4
					c-1.1-0.1-2.5-0.6-3.1-1.6c-0.8-1-0.6-2.3-0.1-3.4c1-2,2.7-3.8,4.8-4.9c1.2-0.6,4-1.6,4.8,0.1c0.7,1.4,0,3.2-0.5,4.6
					c-0.5,1.3-1,2.5-1.5,3.8C89.7,71.3,89.5,71.9,89.4,72.6z"/>
				<path d="M105.7,73.5c-0.5,0.7-1.4,1.7-2.3,1.8c-0.2,0-0.5-0.1-0.6-0.3c-0.1-0.1-0.1-0.5-0.2-0.8c-0.1,0-0.3,0-0.3-0.2
					c-0.5,0.4-2.9,2.5-3.2,1.7c-0.2-0.5,0.3-1.3,0.6-1.7c0.7-0.9,1.5-1.8,2.5-2.3c1.6-0.7,1.1,1,0.6,2c0.2,0.3,0.1,0.7,0.2,0.9
					c0.3,0.8,2-1.1,2.2-1.4C105.5,73.1,105.8,73.3,105.7,73.5z M103,72.3c0.1-0.6-1.6,0.6-1.6,0.6c-0.3,0.2-0.5,0.5-0.8,0.8
					c-0.3,0.4-1.1,1.3-1.1,1.8c0,0,1.3-0.8,1.4-0.9c0.3-0.3,1.1-1.1,1.7-1.1C102.7,73.1,102.9,72.7,103,72.3z"/>
				<path d="M106.6,71.9c-0.4,0.7-0.8,1.4-1.3,2.2c0.5-0.5,1-1,1.5-1.4c0.3-0.3,1.2-0.9,1.6-0.6c0.8,0.5-0.1,1.8-0.4,2.6
					c0.8-0.5,1.3-1.3,2.1-1.8c0.4-0.3,0.9-0.5,1.2-0.1c0.1,0.1,0.2,0.4,0.1,0.6c0,0.1-0.6,1.8,0.2,1.5c0.9-0.3,1.9-0.9,2.4-1.7
					c0.2-0.2,0.5,0,0.4,0.2c-0.5,0.7-2.6,2.6-3.6,1.8c-0.2-0.1-0.2-0.5-0.2-0.7c0-0.1,0-0.3,0.1-0.4c0,0,0.5-1.5-0.3-0.9
					c-0.9,0.7-1.6,1.6-2.7,2.2c-0.1,0.1-0.3,0-0.3-0.2c-0.1-0.9,0.8-1.7,0.8-2.6c0-0.5-2.1,1.3-2.3,1.5c-0.5,0.5-1,1.1-1.5,1.6
					c0,0-0.1,0.1-0.1,0.1c-0.1,0.1-0.4-0.1-0.3-0.3c0.6-1.3,1.4-2.5,2.1-3.7C106.4,71.5,106.7,71.7,106.6,71.9z"/>
				<path d="M117.9,73.6c-0.8,0.8-2,2.3-3.3,2.2c-0.6,0-0.9-0.7-0.9-1.2c0.1-0.8,0.6-1.6,1-2.3c0.1-0.2,0.4-0.1,0.4,0.1
					c0,0.1,0,0.3,0,0.4c0,0.2-0.2,0.2-0.3,0.2c-0.2,0.4-0.4,0.8-0.5,1.3c-0.2,0.8,0.3,1.4,1.1,0.9c0.9-0.5,1.6-1.2,2.3-2
					C117.8,73,118.1,73.3,117.9,73.6z M115.1,71.4C115.1,71.4,115.1,71.4,115.1,71.4c0-0.5,0.7-0.5,0.7-0.1c0,0,0,0.1,0,0.1
					C115.8,71.9,115.1,71.9,115.1,71.4z"/>
			</g>
			<g>
				<path d="M120.2,70.7c1.6-0.7,3.6-1.5,5.5-1.3c0.3-0.4,0.7-0.8,1-1.2c2.4-2.8,5.3-5.8,8.9-7c3.8-1.3,1.5,4.4,0.7,5.9
					c-1.9,4-3.9,8-5.9,12c0,0,0,0,0,0c0,0.2-0.4,0.2-0.4-0.1c-0.3-2.8,0.3-6.9-2.6-8.6c-0.5-0.3-1.1-0.5-1.6-0.6
					c-0.8,1-1.5,2-2.2,3.1c-0.5,0.7-0.9,1.5-1.3,2.3c-0.3,0.7-0.9,1.6-0.9,2.3c0,0.3-0.4,0.3-0.4,0c0-0.6,0.4-1.3,0.6-1.8
					c0.5-1,1-2,1.7-3c0.7-1,1.4-2,2.1-2.9c-1.7-0.1-3.4,0.5-5,1.2C120.1,71.2,119.9,70.8,120.2,70.7z M126.2,69.5
					c0.5,0.1,1,0.3,1.5,0.6c2.7,1.9,2.6,5.2,2.7,8.2c1.5-3.2,3.1-6.4,4.7-9.5c0.8-1.6,1.6-3.1,2-4.9c0.1-0.7,0.7-2.8-0.7-2.5
					c-0.7,0.2-1.4,0.5-2.1,0.8c-3,1.6-5.4,4-7.6,6.5C126.6,69,126.4,69.3,126.2,69.5z"/>
				<path d="M140.1,66.2c-1.1,1.7-2.2,3.4-3.1,5.2c-0.6,1.1-1.3,2.4-1.3,3.6c0,1,1.1,0.4,1.6,0c0.6-0.4,1.3-0.9,1.7-1.6
					c0.2-0.2,0.5,0.1,0.3,0.3c-0.6,0.8-2.5,2.8-3.7,2.2c-0.9-0.4-0.1-2.4,0.1-2.9c1-2.5,2.5-4.9,4-7.1
					C139.8,65.7,140.2,65.9,140.1,66.2z"/>
				<path d="M140.4,71.9c-0.4,0.7-0.8,1.4-1.3,2.2c0.5-0.5,1-1,1.5-1.4c0.3-0.3,1.2-0.9,1.6-0.6c0.8,0.5-0.1,1.8-0.4,2.6
					c0.8-0.5,1.3-1.3,2.1-1.8c0.4-0.3,0.9-0.5,1.2-0.1c0.1,0.1,0.2,0.4,0.1,0.6c0,0.1-0.6,1.8,0.2,1.5c0.9-0.3,1.9-0.9,2.4-1.7
					c0.2-0.2,0.5,0,0.4,0.2c-0.5,0.7-2.6,2.6-3.6,1.8c-0.2-0.1-0.2-0.5-0.2-0.7c0-0.1,0-0.3,0.1-0.4c0,0,0.5-1.5-0.3-0.9
					c-0.9,0.7-1.6,1.6-2.7,2.2c-0.1,0.1-0.3,0-0.3-0.2c-0.1-0.9,0.8-1.7,0.8-2.6c0-0.5-2.1,1.3-2.3,1.5c-0.5,0.5-1,1.1-1.5,1.6
					c0,0-0.1,0.1-0.1,0.1c-0.1,0.1-0.4-0.1-0.3-0.3c0.6-1.3,1.4-2.5,2.1-3.7C140.2,71.5,140.5,71.7,140.4,71.9z"/>
				<path d="M153.2,73.5c-0.5,0.7-1.4,1.7-2.3,1.8c-0.2,0-0.5-0.1-0.6-0.3c-0.1-0.1-0.1-0.5-0.2-0.8c-0.1,0-0.3,0-0.3-0.2
					c-0.5,0.4-2.9,2.5-3.2,1.7c-0.2-0.5,0.3-1.3,0.6-1.7c0.7-0.9,1.5-1.8,2.5-2.3c1.6-0.7,1.1,1,0.6,2c0.2,0.3,0.1,0.7,0.2,0.9
					c0.3,0.8,2-1.1,2.2-1.4C153,73.1,153.3,73.3,153.2,73.5z M150.5,72.3c0.1-0.6-1.6,0.6-1.6,0.6c-0.3,0.2-0.5,0.5-0.8,0.8
					c-0.3,0.4-1.1,1.3-1.1,1.8c0,0,1.3-0.8,1.4-0.9c0.3-0.3,1.1-1.1,1.7-1.1C150.2,73.1,150.4,72.7,150.5,72.3z"/>
				<path d="M155.7,73.1c0.3-0.1,0.6-0.1,0.8,0.2c0.1,0.2,0.2,0.5,0.1,0.8c0.7-0.4,1.4-0.7,2.2-0.9c0.3,0,0.4,0.4,0.1,0.4
					c-0.9,0.2-1.8,0.5-2.6,1.1c-0.2,0.4-0.4,0.8-0.5,1.1c-0.5,1-1.1,2.1-2,3c-0.3,0.3-1.7,1.6-1.7,0.3c-0.1-1,1.6-2.6,2.2-3.2
					c0.5-0.5,1-1,1.6-1.4c0-0.1,0-0.1,0.1-0.2c0.2-0.7,0.1-1-0.5-0.6c0,0,0,0.1,0,0.1c0,0.2-0.2,0.2-0.3,0.1
					c-0.4,0.3-0.8,0.6-1.2,0.9c-0.3,0.2-1.4,1.2-1.9,0.8c-0.6-0.6,0.4-1.9,0.8-2.4c0.6-0.7,1.5-1.7,2.5-1.4
					C155.9,72,155.8,72.6,155.7,73.1z M154.3,72.5c-0.6,0.4-1.3,1-1.6,1.7c0,0.1-0.5,1.1-0.2,1c0.3-0.1,0.5-0.3,0.8-0.4
					c0.5-0.4,1-0.8,1.6-1.1c0.1-0.1,0.2-0.2,0.4-0.3c0-0.2,0.1-0.3,0.1-0.5C155.5,72.1,154.7,72.2,154.3,72.5z M155.7,75.3
					c-0.7,0.6-1.4,1.3-1.9,2c-0.4,0.5-1,1.1-1.1,1.7c-0.1,0.4,0.7-0.3,0.8-0.4c0.1-0.1,0.3-0.3,0.4-0.4c0.2-0.2,0.3-0.4,0.5-0.6
					C154.8,76.9,155.3,76.1,155.7,75.3z"/>
				<path d="M158.8,74.5c-0.4,1.4,0.8,0.5,1.2,0.1c0.9-0.8,1.6-1.8,2.5-2.6c0.2-0.2,0.4,0,0.3,0.3c-0.3,0.7-0.8,1.4-1,2.1
					c-0.3,1.3,1.2,0.5,1.6,0.1c0.3-0.3,0.6-0.7,0.9-1.1c0.2-0.2,0.5,0,0.4,0.2c-0.6,0.8-2.1,2.7-3.2,1.7c-0.4-0.4-0.2-1.1,0.1-1.7
					c-0.7,0.9-1.5,1.9-2.6,2.1c-0.6,0.1-0.8-0.5-0.7-0.9c0.2-1,0.9-1.9,1.6-2.8c0.1-0.2,0.5,0,0.4,0.2
					C159.7,72.9,159,73.7,158.8,74.5z"/>
				<path d="M164.4,74.4c-0.3,0.7-0.2,1.3,0.9,1.1c1.3-0.1,2.6-1.1,3.3-2.1c0.1-0.2,0.5,0,0.4,0.2c-0.6,0.9-1.5,1.6-2.5,2
					c-0.6,0.3-1.7,0.5-2.3,0c-1.1-1.1,0.7-3,1.6-3.6c0.4-0.3,1.4-0.8,1.6,0c0.2,0.6-0.2,1.1-0.6,1.5
					C166.3,73.9,164.9,74.8,164.4,74.4z M164.6,73.9c0,0.6,1.8-0.6,1.9-0.8c0.3-0.4,0.6-1.4-0.4-0.9c-0.4,0.2-0.7,0.5-1,0.8
					C165,73.2,164.8,73.5,164.6,73.9z"/>
				<path d="M172.7,74c0.6-0.2,1.2-0.6,1.7-1c0.2-0.2,0.5,0.1,0.3,0.3c-0.8,0.7-2.6,1.9-3.3,0.4c-0.3-0.6-0.6-0.9-1.2-0.5
					c-0.4,0.3-0.7,0.5-1,0.8c-0.4,0.4-0.9,0.9-1.2,1.4c0,0,0,0,0,0c0,0.1-0.1,0.1-0.1,0.2c-0.1,0.2-0.5,0-0.4-0.2
					c0.1-0.1,0.2-0.3,0.3-0.4c0,0,0,0,0,0c0.6-1,1-2,1.5-3.1c0.1-0.3,0.5,0,0.4,0.2c-0.2,0.4-0.4,0.9-0.6,1.3
					c0.4-0.4,0.8-0.7,1.3-0.8c0.5-0.2,0.8-0.1,1.2,0.3C171.8,73.3,171.8,74.3,172.7,74z"/>
			</g>
			<g>
				<path d="M184.7,63.4c1-0.8,2.2-1.4,3.4-1.9c1-0.4,2.5-1.2,3.6-0.7c2.9,1.3-3.5,7.5-4.9,8.1c-0.2,0.1-0.3-0.2-0.3-0.3
					c0.1-0.1,0.1-0.1,0.2-0.2c0.1-0.1,0.2-0.1,0.3,0c0.9-0.5,1.6-1.4,2.3-2.1c0.8-0.9,1.7-1.8,2.3-2.9c0.3-0.6,0.8-1.9-0.3-2.1
					c-0.6-0.1-1.3,0.1-1.9,0.3c-3.2,1.2-6.2,3.3-8.4,6c-1.3,1.6-3.3,4.3-3.1,6.5c0.3,3.2,4.3,1,5.8,0.2c1.1-0.6,2.2-1.2,3.3-1.8
					c0.5-0.2,2-1.2,2.6-0.8c0.1,0.1,0.1,0.2,0.1,0.3c-1,2-2.1,4.3-3.7,6c-0.6,0.7-2.6,2.6-2.9,0.7c-0.1-0.3,0.4-0.4,0.4-0.1
					c0.3,1.5,2.5-1.1,2.9-1.7c1-1.6,2-3.2,2.8-4.9c-0.7,0-2.3,1-2.8,1.2c-1.8,1-7.3,5-8.7,1.9c-0.8-1.8,0.3-4,1.2-5.5
					C180.5,67.1,182.4,65.1,184.7,63.4z"/>
				<path d="M194.5,73.6c-0.8,0.8-2,2.3-3.3,2.2c-0.6,0-0.9-0.7-0.9-1.2c0.1-0.8,0.6-1.6,1-2.3c0.1-0.2,0.4-0.1,0.4,0.1
					c0,0.1,0,0.3,0,0.4c0,0.2-0.2,0.2-0.3,0.2c-0.2,0.4-0.4,0.8-0.5,1.3c-0.2,0.8,0.3,1.4,1.1,0.9c0.9-0.5,1.6-1.2,2.3-2
					C194.4,73,194.7,73.3,194.5,73.6z M191.6,71.6C191.6,71.6,191.6,71.6,191.6,71.6c0-0.3,0.4-0.3,0.4,0c0,0,0,0,0,0
					C192.1,71.9,191.6,71.9,191.6,71.6z"/>
				<path d="M198.7,66.2c-1.1,1.7-2.2,3.4-3.1,5.2c-0.6,1.1-1.3,2.4-1.3,3.6c0,1,1.1,0.4,1.6,0c0.6-0.4,1.3-0.9,1.7-1.6
					c0.2-0.2,0.5,0.1,0.3,0.3c-0.6,0.8-2.5,2.8-3.7,2.2c-0.9-0.4-0.1-2.4,0.1-2.9c1-2.5,2.5-4.9,4-7.1
					C198.5,65.7,198.9,65.9,198.7,66.2z"/>
			</g>
			<g>
				<path d="M67.6,75.9c0,0,0-0.1,0-0.1c0.3-0.9,0.9-1.9,1.7-2.8l0,0c1.4-2.6,2.6-5.2,4.2-7.7c0.1-0.2,0.5,0,0.4,0.2
					c-1.3,2.1-2.4,4.3-3.5,6.5c0.5-0.4,1.1-0.7,1.7-0.8c1.5-0.2,1.8,0.9,1.6,1.9c0.6,0,1.2,0.1,1.8,0.2c0.3,0.1,0.2,0.5-0.1,0.4
					c-0.5-0.1-1.1-0.2-1.8-0.2c-0.2,0.6-0.5,1.1-0.8,1.4c-0.7,0.7-1.6,1.5-2.7,1.3c-0.6-0.1-1-0.7-0.8-1.3c0.3-0.9,1.2-1.3,2.1-1.5
					c0.7-0.2,1.4-0.3,2-0.3c0.1-0.8-0.1-1.7-1-1.5c-0.6,0.1-1.3,0.4-1.7,0.8c-0.4,0.3-0.7,0.7-1,1.1c-0.5,0.8-0.9,1.7-1.4,2.5
					C67.8,76.3,67.5,76.1,67.6,75.9z M73.1,73.6c-1.1,0-2.2,0.2-3,0.8c-0.6,0.4-1,1.7,0.2,1.6c0.3,0,0.6-0.1,0.9-0.3
					c0.7-0.4,1.5-1,1.8-1.8C73.1,73.7,73.1,73.6,73.1,73.6z"/>
				<path d="M77.5,74.4c0.1-0.2,0.2-0.4,0.3-0.6c-0.3,0.3-0.7,0.7-1.1,0.9c-0.3,0.2-1.2,0.9-1.6,0.4c-0.3-0.4,0-1.1,0.1-1.5
					c0.2-0.5,0.4-1.1,0.7-1.6c0.1-0.2,0.5,0,0.4,0.2c-0.4,0.7-0.9,1.7-0.9,2.5c0,0.6,1.4-0.5,1.5-0.6c0.8-0.7,1.4-1.4,2-2.3
					c0.1-0.2,0.5,0,0.4,0.2c0,0,0,0,0,0c0,0,0,0,0,0c-0.4,0.6-0.7,1.2-1,1.9c0.6-0.4,1.3-0.7,1.9-0.8c0.3-0.1,0.4,0.3,0.1,0.4
					c-0.8,0.2-1.7,0.8-2.4,1.2c0,0-0.1,0-0.1,0.1c-0.6,1.2-1.3,2.4-2.4,3.2c-0.4,0.3-1.2,0.7-1.4,0c-0.1-0.3,0.2-0.7,0.3-0.9
					c0.6-0.7,1.3-1.4,2.1-1.9C76.8,74.9,77.2,74.6,77.5,74.4z M77,75.3c-0.9,0.6-1.8,1.3-2.4,2.2c-0.2,0.3-0.1,0.5,0.3,0.3
					c0.6-0.4,1-0.9,1.4-1.5C76.6,76,76.8,75.6,77,75.3z"/>
			</g>
		</g>
		<g>
			<path d="M46.4,65.7c0.1,0.1,0.1,0.2,0.2,0.4C46.5,66,46.5,65.8,46.4,65.7z"/>
			<path d="M47.3,67.6c0,0.1,0.1,0.2,0.1,0.3C47.4,67.8,47.4,67.7,47.3,67.6z"/>
			<path d="M44.4,62.9C44.4,62.9,44.4,62.9,44.4,62.9C44.4,62.9,44.4,62.9,44.4,62.9C44.4,62.9,44.4,62.9,44.4,62.9z"/>
			<path d="M46.9,66.6c0.1,0.1,0.1,0.2,0.2,0.4C47,66.9,46.9,66.7,46.9,66.6z"/>
			<path d="M45.9,64.9c0.1,0.1,0.2,0.2,0.2,0.4C46,65.1,46,65,45.9,64.9z"/>
			<path d="M16.7,63.6c0.1-0.1,0.2-0.2,0.3-0.3C16.8,63.4,16.7,63.5,16.7,63.6z"/>
			<path d="M16.1,64.4c0.1-0.1,0.2-0.2,0.3-0.4C16.3,64.2,16.2,64.3,16.1,64.4z"/>
			<path d="M45.3,64.1c0.1,0.1,0.2,0.2,0.3,0.4C45.5,64.3,45.4,64.2,45.3,64.1z"/>
			<path d="M44.7,63.3c0.1,0.1,0.2,0.2,0.3,0.3C44.9,63.5,44.8,63.4,44.7,63.3z"/>
			<path d="M14.6,67c0.1-0.1,0.1-0.2,0.2-0.4C14.7,66.7,14.7,66.9,14.6,67z"/>
			<path d="M15.5,65.2c0.1-0.1,0.2-0.2,0.2-0.4C15.7,65,15.6,65.1,15.5,65.2z"/>
			<path d="M14.2,67.9c0-0.1,0.1-0.2,0.1-0.3C14.3,67.7,14.3,67.8,14.2,67.9z"/>
			<path d="M17.3,62.9C17.3,62.9,17.3,62.9,17.3,62.9C17.3,62.9,17.3,62.9,17.3,62.9C17.3,62.9,17.3,62.9,17.3,62.9z"/>
			<path d="M15.1,66.1c0.1-0.1,0.1-0.2,0.2-0.4C15.2,65.8,15.1,66,15.1,66.1z"/>
			<path d="M30.8,20.3C5.2,20.4-5.8,52.4,13.4,68.4c0.2,0.2,0.6,0.1,0.7-0.2c0.7-1.8,1.7-3.5,2.9-5c0.2-0.2,0.1-0.5,0-0.7
				C3.4,50.2,12.1,27.1,30.8,27.1c18.7,0.1,27.4,23.1,13.9,35.5c-0.2,0.2-0.2,0.5,0,0.7c1.2,1.5,2.2,3.2,2.9,5
				c0.1,0.3,0.5,0.4,0.7,0.2C67.5,52.4,56.4,20.4,30.8,20.3z"/>
			<path d="M49.9,47.5c0-10.7-8.8-19.3-19.5-19C20,28.7,11.7,37.4,11.8,47.8c0.1,5.5,2.4,10.3,6.1,13.8c0.2,0.2,0.5,0.2,0.6,0
				c1.8-1.7,4-3.1,6.5-3.9c0.6-0.2,0.6-0.9,0.1-1.3c-2.9-1.9-4.8-5.1-4.8-8.8c0-6,5.1-10.9,11.3-10.4c5,0.4,9.1,4.4,9.6,9.4
				c0.4,4.1-1.6,7.8-4.8,9.9c-0.5,0.3-0.4,1.1,0.1,1.3c2.4,0.8,4.6,2.2,6.5,3.9c0.2,0.2,0.5,0.2,0.6,0
				C47.5,58.1,49.9,53.1,49.9,47.5z"/>
		</g>
	</g>
	<g>
		<path d="M245.7,62.8c0-0.1,0-0.1,0-0.2v0c0-0.1,0-0.2-0.1-0.2c-0.1-0.1-0.2-0.1-0.3-0.1H245v1h0.2v-0.3h0.2c0,0,0,0,0,0
			c0,0,0,0,0,0l0.2,0.3h0.3l-0.2-0.4C245.7,62.9,245.7,62.8,245.7,62.8z M245.5,62.6C245.5,62.7,245.5,62.7,245.5,62.6
			c-0.1,0.1-0.1,0.1-0.2,0.1h-0.2v-0.3h0.2c0.1,0,0.1,0,0.1,0C245.5,62.5,245.5,62.6,245.5,62.6L245.5,62.6z"/>
		<path d="M246.1,62.1c-0.1-0.1-0.2-0.2-0.3-0.2c-0.1,0-0.2-0.1-0.4-0.1h0c-0.1,0-0.3,0-0.4,0.1c-0.1,0-0.2,0.1-0.3,0.2
			c-0.1,0.1-0.2,0.2-0.2,0.3s-0.1,0.2-0.1,0.4v0c0,0.1,0,0.3,0.1,0.4c0,0.1,0.1,0.2,0.2,0.3c0.1,0.1,0.2,0.2,0.3,0.2
			c0.1,0,0.2,0.1,0.4,0.1h0c0.1,0,0.3,0,0.4-0.1c0.1-0.1,0.2-0.1,0.3-0.2c0.1-0.1,0.2-0.2,0.2-0.3c0-0.1,0.1-0.2,0.1-0.4v0
			c0-0.1,0-0.3-0.1-0.4C246.2,62.3,246.1,62.2,246.1,62.1z M246.1,62.8c0,0.1,0,0.3-0.1,0.4c-0.1,0.1-0.2,0.2-0.3,0.3
			c-0.1,0.1-0.2,0.1-0.4,0.1h0c-0.1,0-0.3,0-0.4-0.1c-0.1-0.1-0.2-0.2-0.3-0.3c-0.1-0.1-0.1-0.2-0.1-0.4v0c0-0.1,0-0.3,0.1-0.4
			s0.2-0.2,0.3-0.3c0.1-0.1,0.2-0.1,0.4-0.1h0c0.1,0,0.3,0,0.4,0.1c0.1,0.1,0.2,0.2,0.3,0.3S246.1,62.6,246.1,62.8L246.1,62.8z"/>
	</g>
</g>
</svg>
