<?xml version="1.0" encoding="utf-8"?>
<!-- Generator: Adobe Illustrator 25.4.1, SVG Export Plug-In . SVG Version: 6.00 Build 0)  -->
<svg version="1.1" id="Capa_1" xmlns="http://www.w3.org/2000/svg" xmlns:xlink="http://www.w3.org/1999/xlink" x="0px" y="0px"
	 viewBox="0 0 250 100" style="enable-background:new 0 0 250 100;" xml:space="preserve">
<g>
	<polygon points="73.1,69.5 73.1,68.8 77.7,68.8 77.7,69.5 75.8,69.5 75.8,75 75,75 75,69.5 	"/>
	<path d="M97.5,73.1v-4.3h0.8v4.3c0,0.4,0.2,0.7,0.5,0.9c0.3,0.2,0.7,0.3,1.1,0.3c0.4,0,0.8-0.1,1.1-0.3c0.3-0.2,0.5-0.5,0.5-0.9
		v-4.3h0.8v4.3c0,0.6-0.2,1-0.7,1.4c-0.4,0.4-1,0.5-1.6,0.5c-0.6,0-1.2-0.2-1.6-0.5C97.7,74.1,97.5,73.7,97.5,73.1"/>
	<polygon points="122.4,75 122.4,68.8 123.2,68.8 123.2,74.3 126.4,74.3 126.4,75 	"/>
	<path d="M146.2,73.1v-4.3h0.8v4.3c0,0.4,0.2,0.7,0.5,0.9c0.3,0.2,0.7,0.3,1.1,0.3c0.4,0,0.8-0.1,1.1-0.3c0.3-0.2,0.5-0.5,0.5-0.9
		v-4.3h0.8v4.3c0,0.6-0.2,1-0.7,1.4c-0.4,0.4-1,0.5-1.6,0.5c-0.6,0-1.2-0.2-1.6-0.5C146.5,74.1,146.2,73.7,146.2,73.1"/>
	<polygon points="171.1,75 171.1,68.8 172.1,68.8 174,73.7 176,68.8 176.9,68.8 176.9,75 176.2,75 176.2,70.3 174.3,75 173.8,75 
		171.9,70.3 171.9,75 	"/>
	<path d="M56.5,42.7c-0.3,0-0.4,0.2-0.4,0.5c-0.2,1.2-0.5,1.7-1.2,2c-0.7,0.3-1.9,0.3-2.6,0.3c-0.7,0-4,0-4.6-0.1
		c-1.6-0.2-2.5-0.7-2.6-2.2c0-0.6,0-2.1,0-3.2c0-0.5,0-0.9,0-1.2v-2.3c0-0.2,0-0.2,0.1-0.2c0.6,0,6,0,6.5,0c1.1,0.1,1.4,0.7,1.5,1.1
		c0.1,0.3,0.1,0.5,0.1,0.7c0,0.1,0,0.2,0,0.3c0,0.2,0.1,0.4,0.4,0.4c0.4,0,0.4-0.4,0.4-0.7c0-0.1,0-0.5,0.1-0.9c0-0.4,0-0.7,0.1-1
		c0.1-1,0.2-1.5,0.2-1.8c0-0.2,0-0.2,0-0.3c0-0.2-0.1-0.3-0.3-0.3c-0.2,0-0.3,0.1-0.5,0.4l0,0c-0.2,0.3-0.6,0.3-1.3,0.4
		c-0.4,0-4.5,0.1-7.1,0.1c-0.1,0-0.1,0-0.1-0.2v-7.2c0-0.2,0-0.2,0.1-0.2c0.5,0,7.4,0.1,7.9,0.1c1.4,0.2,1.6,0.5,1.8,1
		c0.1,0.3,0.2,0.8,0.2,1c0,0.1,0,0.5,0.4,0.5c0.2,0,0.3-0.1,0.4-0.4c0-0.2,0.1-0.8,0.1-1.3c0-0.3,0-0.5,0-0.6
		c0.1-0.9,0.1-1.3,0.2-1.6c0-0.1,0-0.2,0-0.3c0-0.3-0.2-0.4-0.3-0.4c-0.1,0-0.2,0-0.3,0.1c-0.1,0-0.1,0-0.2,0
		c-0.3,0.1-0.8,0.1-1.2,0.2c-0.5,0-9,0-11,0c-0.3,0-0.9,0-1.5,0l-0.3,0c-0.4,0-0.7,0-1.1,0c-0.4,0-0.8,0-1.2,0c-0.3,0-0.7,0-0.7,0.4
		c0,0.4,0.4,0.4,0.6,0.4c0.4,0,0.9,0,1.1,0.1c0.9,0.2,1.1,0.6,1.1,1.5c0.1,0.9,0.1,1.7,0.1,6.1v5c0,2.6,0,4.9-0.1,6.1
		c-0.1,0.9-0.3,1.4-0.7,1.5c-0.3,0.1-0.7,0.1-1,0.1c-0.1,0-0.6,0-0.6,0.3c0,0.3,0.2,0.4,0.7,0.4c0.3,0,0.6,0,0.9,0
		c0.3,0,0.7,0,1.1,0c0.7,0,1.3,0,1.6,0c0.8,0,1.7,0,3,0.1l0.8,0c1.1,0,6.3,0.1,8,0.1c1.1,0,1.4,0,1.7-0.8c0.1-0.6,0.4-2.5,0.4-3.2
		C56.9,43,56.9,42.7,56.5,42.7"/>
	<path d="M91.6,42.5c-0.4,0-0.4,0.4-0.4,0.5c-0.1,0.5-0.4,1.3-0.7,1.6c-0.7,0.7-3.6,0.8-5.2,0.8c-0.2,0-1.6,0-1.8,0
		c-1.7,0-2.3-0.2-2.7-0.6c-0.6-0.5-0.6-2.6-0.6-6.1v-5c0-4.4,0-5.1,0.1-6.1c0.1-1,0.3-1.4,1-1.5c0.3-0.1,0.8-0.1,1.1-0.1
		c0.2,0,0.6,0,0.6-0.4c0-0.4-0.5-0.4-0.7-0.4c-0.6,0-1.6,0-2.4,0.1c-0.7,0-1.2,0-1.5,0c-0.3,0-0.9,0-1.5,0c-0.8,0-1.7-0.1-2.5-0.1
		c-0.3,0-0.8,0-0.8,0.4c0,0.4,0.4,0.4,0.6,0.4c0.4,0,0.7,0,0.9,0.1c0.9,0.2,1.1,0.6,1.1,1.5c0.1,0.9,0.1,1.7,0.1,6.1v5
		c0,2.6,0,4.9-0.1,6.1c-0.1,0.9-0.3,1.4-0.7,1.5c-0.3,0.1-0.7,0.1-1,0.1c-0.1,0-0.6,0-0.6,0.3c0,0.3,0.2,0.4,0.7,0.4
		c0.3,0,0.6,0,0.9,0c0.3,0,0.7,0,1.1,0c0.7,0,1.3,0,1.6,0c1.1,0,2.1,0,3.5,0.1c0.3,0,0.6,0,1,0c1.1,0,5.4,0.1,7,0.1
		c1.4,0,1.7-0.1,1.9-0.9c0.2-0.8,0.4-3,0.4-3.3C91.9,42.9,91.9,42.5,91.6,42.5"/>
	<path d="M122.6,46.5c-0.3,0-0.7,0-1.2-0.1c-0.6-0.2-1.8-0.7-2.9-3c-1.2-2.4-8.2-16.6-8.5-17.4c-0.3-0.7-0.5-1-0.8-1
		c-0.4,0-0.6,0.4-0.9,1.2l-8.5,17.7c-0.6,1.5-1.1,2.3-2.3,2.5c-0.2,0-0.6,0.1-0.9,0.1c-0.1,0-0.5,0-0.5,0.3c0,0.4,0.4,0.4,0.7,0.4
		c1,0,2.1,0,2.7-0.1c0.3,0,0.5,0,0.6,0c0.4,0,1,0,1.5,0c0.5,0,1.1,0,1.5,0c0.2,0,0.6,0,0.6-0.4c0-0.3-0.3-0.3-0.5-0.3h-0.4
		c-0.9,0-1-0.4-1-0.8c0-0.3,0.3-1,0.6-1.7l2.3-5.2c0-0.1,0.1-0.1,0.1-0.1h7.5c0.1,0,0.1,0,0.2,0.1l3.4,7.1c0.1,0.1,0.1,0.2,0,0.3
		c0,0.1-0.1,0.1-0.2,0.2c-0.2,0-0.5,0-0.5,0.4c0,0.3,0.4,0.3,0.8,0.3l0.1,0c2.3,0.1,4.4,0.1,5.4,0.1c1,0,1.4,0,1.4-0.4
		C123.1,46.5,122.7,46.5,122.6,46.5 M111.9,37.3C111.9,37.3,111.9,37.3,111.9,37.3l-6.1,0c0,0-0.3,0-0.3,0l3-7.3c0-0.1,0-0.1,0-0.1
		c0,0,0,0.1,0,0.1L111.9,37.3z"/>
	<path d="M243.8,46.5c-0.3,0-0.7,0-1.2-0.1c-0.6-0.2-1.8-0.7-2.9-3c-1.2-2.4-8.2-16.6-8.5-17.4c-0.3-0.7-0.5-1-0.8-1
		c-0.4,0-0.6,0.4-0.9,1.2L221,43.9c-0.6,1.5-1.1,2.3-2.3,2.5c-0.2,0-0.6,0.1-0.9,0.1c-0.1,0-0.5,0-0.5,0.3c0,0.4,0.4,0.4,0.7,0.4
		c1,0,2.1,0,2.7-0.1c0.3,0,0.5,0,0.6,0c0.4,0,1,0,1.5,0c0.5,0,1.1,0,1.5,0c0.2,0,0.6,0,0.6-0.4c0-0.3-0.3-0.3-0.6-0.3H224
		c-0.9,0-1-0.4-1-0.8c0-0.3,0.3-1,0.6-1.7l2.3-5.2c0-0.1,0.1-0.1,0.1-0.1h7.5c0.1,0,0.1,0,0.2,0.1l3.4,7.1c0.1,0.1,0.1,0.2,0,0.3
		c0,0.1-0.1,0.1-0.2,0.2c-0.2,0-0.5,0-0.5,0.4c0,0.3,0.4,0.3,0.9,0.3l0.1,0c2.3,0.1,4.4,0.1,5.4,0.1c1,0,1.4,0,1.4-0.4
		C244.3,46.5,243.9,46.5,243.8,46.5 M233,37.3C233,37.3,233,37.3,233,37.3l-6.1,0c0,0-0.3,0-0.3,0l3-7.3c0-0.1,0-0.1,0-0.1
		c0,0,0,0.1,0,0.1L233,37.3z"/>
	<path d="M161.9,46.5c-0.2,0-0.5,0-0.8-0.1l0,0c-0.4-0.1-3-0.3-4.5-1.9c-1.5-1.5-3.1-3.6-5.2-6.3l-0.9-1.2c2.6-2.1,4.2-4.1,4.2-6.4
		c0-2.1-1.3-3.5-2-4c-1.6-1.1-5.6-1.3-7.3-1.3c-0.4,0-1.2,0-1.9,0c-0.8,0-1.6,0-2.1,0c-0.2,0-0.6,0-1.1,0c-0.8,0-1.8-0.1-2.8-0.1
		c-0.3,0-0.7,0-0.7,0.4c0,0.4,0.4,0.4,0.6,0.4c0.4,0,0.9,0,1.1,0.1c0.9,0.2,1.1,0.6,1.1,1.5c0.1,0.9,0.1,1.7,0.1,6.1v5
		c0,2.6,0,4.9-0.1,6.1c-0.1,0.9-0.3,1.4-0.7,1.5c-0.3,0.1-0.7,0.1-1,0.1c-0.1,0-0.6,0-0.6,0.3c0,0.3,0.2,0.4,0.7,0.4
		c0.7,0,1.6,0,2.3-0.1c0.5,0,0.9,0,1.2,0c0.1,0,0.5,0,0.9,0c0.9,0,2.2,0.1,3.3,0.1c0.5,0,0.7-0.1,0.7-0.4c0-0.1,0-0.3-0.5-0.3
		c-0.3,0-1-0.1-1.4-0.1c-0.7-0.1-0.9-0.6-1-1.5c-0.1-1.2-0.1-3.5-0.1-6.1v-0.4c0-0.1,0-0.1,0.1-0.1l4,0.1c0.2,0,0.3,0,0.4,0.2
		c0.2,0.2,0.7,1,1.4,1.9c0.5,0.7,1,1.4,1.5,2.1c1.7,2.3,2.7,3.6,4,4.2c0.8,0.4,3,0.6,4.5,0.6h2.7c0.2,0,0.7,0,0.7-0.4
		C162.4,46.8,162.4,46.5,161.9,46.5 M151,32.1c0,2.6-1.5,3.7-2.1,4.2c-0.5,0.4-2.3,0.5-3.4,0.5c-0.8,0-1.6-0.1-2.1-0.3
		c-0.1-0.1-0.2-0.1-0.2-0.4v-8.7c0-0.2,0-0.3,0.2-0.3c0.3-0.1,0.7-0.1,1.5-0.1C147.9,27,151,28,151,32.1"/>
	<path d="M178.5,25c-9.2,0-14.4,5.9-14.4,11.3c0,5.5,4,11.3,14.1,11.3c7,0,14.3-4.9,14.3-11.8C192.5,29.1,185.7,25,178.5,25
		 M179.4,46c-7,0-11.1-4.3-11.1-10.5c0-7.7,6.8-8.8,9.4-8.8c5.9,0,10.6,5.2,10.6,10.3C188.2,45.1,181.3,46,179.4,46"/>
	<path d="M15,25.4c-1,0-2,0-2.9,0.1c-0.6,0-1.1,0-1.5,0c-0.3,0-0.8,0-1.4,0c-0.8,0-1.8-0.1-2.7-0.1c-0.3,0-0.7,0-0.7,0.4
		c0,0.4,0.4,0.4,0.6,0.4c0.4,0,0.9,0,1.1,0.1c0.9,0.2,1.1,0.6,1.1,1.5c0.1,0.9,0.1,1.7,0.1,6.1v5c0,2.6,0,4.9-0.1,6.1
		c-0.1,0.9-0.3,1.4-0.7,1.5c-0.3,0.1-0.7,0.1-1,0.1c-0.1,0-0.6,0-0.6,0.3c0,0.3,0.2,0.4,0.7,0.4c0.3,0,0.6,0,0.9,0
		c0.3,0,0.7,0,1.1,0c0.7,0,1.3,0,1.6,0c0.6,0,1.5,0.1,2.5,0.1l0.3,0c1.1,0.1,4.9,0.2,5.9,0.2c12.3,0,14.1-7.1,14.1-11.5
		c0-3.7-2.3-6.2-3.7-7.4C25.6,25.3,18.6,25.4,15,25.4 M19.3,45.9c-2.7,0-5.9,0.2-6.5-1.1c-0.2-0.3-0.3-1.6-0.3-2.1
		c0-0.5-0.1-2.7-0.1-5.8v-3.6c0-2.2,0-4.7,0-5.7c0-0.3,0.1-0.4,0.3-0.5c0.2-0.1,1.2-0.2,1.8-0.2c3.4,0,8.1-0.1,11.7,2.8
		c0.9,0.7,3.4,2.8,3.4,7.1C29.7,41.1,26,45.9,19.3,45.9"/>
	<path d="M201,29.4c0-1.7,1.3-3.3,4.7-3.3c5.8,0,4.4,4.4,5.8,4.4c0.3,0,0.4-0.1,0.4-0.3v-2.9c0-1.3,0-1.7-3.3-2.2
		c-0.9-0.1-1.7-0.2-2.3-0.2c-5.4,0-8.1,2.9-8.1,5.9c0,6.2,12.8,5.9,12.8,11.7c0,1.8-1.6,3.7-5.7,3.7c-1.1,0-2-0.1-2.7-0.4
		c-1.7-0.5-2.9-1.5-3.4-3.1c-0.2-0.5-0.3-1.1-0.3-1.4c0-0.1,0-0.6-0.4-0.6c-0.4,0-0.5,0.6-0.5,0.8l0,0.1c0,0.6-0.1,2.1-0.1,3.5
		c0,0.6,0.1,0.9,0.6,1c2.4,0.8,4.4,1.2,6.1,1.2c5.2,0,9.2-2,9.2-6.5C213.9,33.3,201,34,201,29.4"/>
</g>
</svg>
