<?xml version="1.0" encoding="utf-8"?>
<!-- Generator: Adobe Illustrator 25.4.1, SVG Export Plug-In . SVG Version: 6.00 Build 0)  -->
<svg version="1.1" id="Capa_1" xmlns="http://www.w3.org/2000/svg" xmlns:xlink="http://www.w3.org/1999/xlink" x="0px" y="0px"
	 viewBox="0 0 250 100" style="enable-background:new 0 0 250 100;" xml:space="preserve">
<g>
	<path d="M161.4,44.3c2.9,1.3,5.7,2.7,6.5,6.1c0.1-0.1,0.2-0.2,0.2-0.3c2.9-4.8,7.2-7,12.8-6.6c2.6,0.2,4.9,1.2,7,2.6
		c1.3,0.9,2.2,2,2.8,3.5c0.1-0.2,0.2-0.3,0.3-0.5c2.5-4,6.1-5.9,10.7-5.7c4.6,0.2,7.9,2.5,10,6.6c0.8,1.6,1.1,3.3,1.1,5.1
		c0,4,0,8,0,11.9c0,0.9,0.1,1,1,1c3.9,0.2,6.2,3.5,5.2,7.2c-0.1,0.2-0.1,0.5,0,0.7c1,3.4-1.1,6.8-4.4,7.1c-2.5,0.3-4.8-0.2-6.9-1.5
		c-3.8-2.2-5.7-5.6-5.8-10c0-3.9,0-7.9-0.1-11.8c0-0.2,0-0.5,0-0.7c0-0.4-0.2-0.6-0.6-0.6c-0.4,0-0.6,0.2-0.6,0.6c0,0.2,0,0.3,0,0.5
		c0,3,0,6,0,9.1c0,2.4-1.4,4.4-3.6,5.1c-3.7,1.2-6.8-1-7.3-4.1c-0.1-0.4-0.1-0.9-0.1-1.3c0-2.9,0-5.7,0-8.6c0-0.2,0-0.4,0-0.5
		c-0.1,0-0.1-0.1-0.2-0.1c-0.5,0.6-1,1.2-1.6,1.8c0,0,0,0.1,0.1,0.1c1.1,1.5,1.3,3.2,0.8,5.1c-0.1,0.2-0.1,0.5,0,0.8
		c0.9,3.1-0.8,6.3-3.7,7c-0.3,0.1-0.6,0.1-0.8,0.1c-2.1,0-4.2,0.1-6.2-0.1c-5.5-0.5-10.3-5-11.2-10.5c-0.2-1.2-0.2-2.5-0.2-3.8
		c0-0.2,0-0.4,0-0.6c0,0-0.1-0.1-0.1-0.1c-0.5,0.6-1.1,1.3-1.7,1.9c0.8,1,1.3,2.3,1.1,3.7c-0.2,1.2-0.1,2.4,0,3.6
		c0.2,2.9-1.6,5.2-4.4,5.7c-0.3,0.1-0.7,0.1-1,0.1c-1.8,0-3.7,0.1-5.5-0.1c-4.8-0.6-8.2-3.2-10.3-7.5c-0.1-0.2-0.2-0.4-0.3-0.6
		c-1.8,4.6-4.9,7.5-9.9,8c-4.9,0.5-8.8-1.5-11.5-5.8c0,0.3,0,0.5,0,0.7c0,2.7,0,5.4,0,8.1c0,1.9-0.7,3.5-2.3,4.6
		c-1.8,1.3-3.8,1.4-5.8,0.4c-1.9-0.9-2.9-2.5-3-4.7c0-1,0-2,0-3.1c0-0.2,0-0.3,0-0.5c-4.2,0.8-7.9-0.1-11.1-2.9
		c-3.2-2.8-4.6-6.3-4.6-10.5c-0.1,0.1-0.2,0.3-0.3,0.4c-4,6-12.1,8-18.1,4.2c-4.8-3-6.8-7.4-6.3-13c0-0.5,0-1.1-0.1-1.6
		c-0.2-3.7,0.7-6.9,3.1-9.8c0.1-0.1,0.1-0.1,0.1-0.2c-0.6-0.9-1.3-1.8-1.9-2.8c0,0.2,0,0.4,0,0.6c0,0.8,0,1.6-0.2,2.4
		c-0.6,2.6-3.2,4.4-5.9,4.1c-3-0.4-4.9-2.5-4.9-5.5c0-0.5,0-1-0.1-1.6c-0.1,0.1-0.2,0.3-0.3,0.4c-2.3,3.7-5.4,6-9.7,6.6
		c-9,1.2-16.1-6.1-15.1-14.6c0-0.4,0-0.8,0-1.3c-0.8-6.7,3.4-12.8,9.8-14.4c1.9-0.5,3.8-0.6,5.7,0c0-0.9,0-1.8,0-2.7
		c0-0.6,0-1.2,0.1-1.8c0.5-2.1,1.7-3.6,3.8-4.1c2.2-0.6,4.2-0.1,5.8,1.7C61.9,7.7,62,7.8,62.1,8c0.1-0.1,0.2-0.3,0.3-0.4
		c1.7-1.9,3.8-2.7,6.2-2.1c2.4,0.6,3.9,2.2,4.5,4.6c0.3,1,0.2,2-0.1,3.1c-0.1,0.2-0.1,0.5,0,0.8c0.4,1.4,0.3,2.8-0.3,4.2
		c-0.1,0.2-0.1,0.5-0.1,0.8c0,0.7,0,1.5,0,2.2c2.7-4.5,6.6-7,12-6.9c5.3,0,9.2,2.5,11.9,7.1c0-0.4,0-0.9,0-1.3
		c0.1-0.9,0-1.7-0.4-2.5c-0.5-1.2-0.4-2.4-0.1-3.6c0.1-0.2,0.1-0.4,0-0.6c-1-3.4,0.9-6.8,4.3-7.7c3.4-0.9,6.7,1.1,7.6,4.5
		c0,0.1,0.1,0.2,0.1,0.4c1.8-1.3,3.7-1.6,5.7-0.8c2,0.8,3.1,2.4,3.4,4.6c0.2,0,0.4,0,0.6,0c2.1,0,4.1,0,6.2,0c2.4,0,4.5,1.4,5.1,3.5
		c0.2,0.8,0.2,1.7,0.3,2.5c0,0.2,0,0.4,0,0.6c2.8-4.4,6.8-6.7,12-6.6c5.3,0.1,9.1,2.7,11.7,7.3c0-0.3,0-0.4,0-0.6c0-3.2,0-6.5,0-9.7
		c0-2.3,1-4,3.2-4.9c2.2-0.9,4.4-0.7,6.2,0.9c1.1,0.9,1.5,2.2,1.6,3.6c0,0.3,0,0.7,0,1c0,8.9,0,17.7,0,26.6
		C164.3,40.9,163.7,43,161.4,44.3z M95.2,32.3C95.2,32.3,95.2,32.3,95.2,32.3c0-1.6,0-3.2,0-4.8c0-2.2-0.6-4.3-1.9-6.2
		c-2.8-3.9-7.7-5.4-12.4-3.8c-4.3,1.4-7,5.6-6.9,10.3c0.2,5.9,4.6,10.3,10.5,10.3c0.7,0,1.4-0.2,1.9-0.6c0.9-0.7,1.2-2,0.9-3.2
		c-0.3-1.1-1.3-1.7-2.5-1.8c-0.5,0-1.1-0.1-1.6-0.2c-2.5-0.7-4-3.2-3.5-5.7c0.5-2.6,2.8-4.3,5.5-4.1c2.4,0.2,4.4,2.4,4.4,4.9
		c0,3.3,0,6.6,0,9.9c0,1-0.6,1.6-1.6,1.6c-1.3,0-2.5,0-3.8,0c-1.4,0-2.8,0.3-4.1,0.9c-4.9,2.3-7.3,8-5.6,13.3
		c2.5,7.4,12.4,9.5,17.8,3.6c2-2.2,2.9-4.8,2.7-7.7c-0.1-1.1-0.9-2-1.9-2.2c-1.9-0.5-3.6,0.8-3.6,2.8c0,2.6-2,4.6-4.5,4.9
		c-2.7,0.3-5.2-1.7-5.4-4.4c-0.3-2.8,1.7-5.3,4.5-5.5c1.4-0.1,2.9,0,4.3-0.1c3.6-0.1,6.5-2.9,6.7-6.5C95.3,36.2,95.2,34.2,95.2,32.3
		z M120.2,64.7c0-2.6,0-5.2,0-7.8c0-0.8-0.1-1.7-0.2-2.5c-1.8-7.8-10.4-10.1-16-6.7c-3.9,2.4-5.7,7-4.7,11.6
		c1.1,4.8,5.4,8.2,10.3,8.1c0.7,0,1.4-0.2,2-0.7c0.8-0.8,1.1-2.1,0.7-3.2c-0.4-1-1.3-1.7-2.6-1.7c-3.1,0-5.8-3-4.9-6.4
		c0.6-2.4,2.9-3.9,5.4-3.6c2.5,0.3,4.4,2.3,4.4,4.8c0,2.3,0,4.7,0,7c0,3.1,0,6.2,0,9.3c0,1.5,0.8,2.5,2.1,2.8c2,0.4,3.5-0.8,3.5-2.8
		C120.2,70.2,120.2,67.4,120.2,64.7z M60.3,19.8c0-2.9,0-5.7,0-8.6c0-1.7-1.1-2.8-2.8-2.7c-1.6,0-2.7,1.1-2.7,2.8c0,0.3,0,0.6,0,0.9
		c0,5.1,0,10.2,0,15.4c0,2.2-1.5,4.2-3.6,4.8c-2.2,0.6-4.5-0.3-5.7-2.3c-1.1-1.9-0.8-4.4,0.7-6c1-1.1,2.2-1.6,3.7-1.6
		c1.7,0,2.8-1.2,2.8-2.8c0-1.6-1.2-2.8-2.9-2.8c-1.6,0-3.2,0.3-4.6,1c-5.1,2.5-7,7.9-5.4,13.1c1.7,5.4,7.7,8.4,13.3,6.7
		c3.4-1,7.4-4.4,7.4-10.1C60.3,24.9,60.3,22.4,60.3,19.8z M210.2,61.2c0-2,0-4.1,0-6.1c0-0.8-0.1-1.7-0.3-2.5
		c-1.1-3.9-4.6-6.4-8.9-6.3c-5,0.1-8.7,3.9-8.7,8.8c0,3.1,0,6.3,0,9.4c0,2.1,1.7,3.3,3.7,2.7c1.2-0.4,1.9-1.3,1.9-2.8
		c0-3.1,0-6.1,0-9.2c0-0.7,0.1-1.4,0.5-2c0.8-1.2,2.3-1.8,3.8-1.3c1.4,0.4,2.4,1.7,2.4,3.2c0,4,0,8.1,0,12.1c0,0.6,0,1.2,0.1,1.8
		c0.8,4.5,4.6,7.6,9.1,7.4c0.5,0,1.1-0.2,1.5-0.5c1-0.6,1.4-2,1-3.2c-0.4-1.2-1.4-1.9-2.7-1.9c-2.2,0-3.5-1.4-3.5-3.6
		C210.1,65.3,210.2,63.2,210.2,61.2z M109,22.2c0,2.3,0,4.6,0,6.9c0,0.8,0.1,1.6,0.3,2.4c0.9,3.4,3.1,5.6,6.6,6.3
		c3.7,0.8,6.9-0.2,9.2-3.3c1.4-1.8,1.9-4,1.7-6.2c-0.1-1.4-1.3-2.4-2.8-2.4c-1.5,0-2.6,1-2.8,2.4c0,0.5,0,1.1-0.1,1.6
		c-0.4,1.7-1.9,2.7-3.7,2.5c-1.6-0.2-2.9-1.6-2.9-3.3c0-2,0-4,0-6c0-0.4,0.1-0.6,0.5-0.6c2.2,0,4.4,0,6.5,0c1,0,1.9,0,2.9,0
		c0.7,0,1.3-0.2,1.8-0.8c0.9-1.1,0.8-3.3-0.4-4.2c-0.5-0.4-1.2-0.6-1.9-0.6c-3,0-6,0-9,0c-0.4,0-0.5-0.1-0.5-0.5c0-0.7,0-1.4,0-2.1
		c0-0.6-0.3-1.2-0.7-1.6c-0.8-0.8-2.1-1.1-3.2-0.7c-1,0.4-1.7,1.3-1.7,2.5C109,17.2,109,19.7,109,22.2z M151.9,31.1
		c0-0.5,0-1.1,0-1.6c0-1.3,0.1-2.6-0.2-3.9c-0.8-4.3-3.3-7.2-7.6-8.3c-4.4-1.1-8.3-0.1-11.3,3.6c-1.9,2.3-2.4,5-2.2,7.9
		c0.4,4.9,4.6,9.5,10.7,9.4c1.6,0,2.7-1.2,2.7-2.8c0-1.6-1.1-2.7-2.7-2.8c-0.3,0-0.5,0-0.8,0c-2-0.3-3.8-1.9-4.2-3.9
		c-0.4-2.2,0.5-4.3,2.4-5.4c1.8-1.1,4.2-0.8,5.8,0.5c1.2,1,1.8,2.3,1.8,3.9c0,2.5,0,5,0,7.6c0,1.2,0.4,2.1,1.5,2.6
		c1.8,0.8,4.2-0.1,4.1-2.6C151.8,33.8,151.9,32.5,151.9,31.1z M157.7,51.9c-0.1,0.1-0.2,0.2-0.3,0.3c-0.9,0.9-1.8,1.8-2.7,2.7
		c-0.7,0.7-1,1.6-0.7,2.7c0.3,1.1,1,1.8,2.1,2c1,0.2,1.9-0.1,2.6-0.8c1.9-1.8,3.7-3.6,5.6-5.4c1.1-1.1,1.2-2.7,0-3.9
		c-4.3-4.6-11.9-4.3-15.9,0.5c-1.9,2.3-2.5,5.1-2.3,8c0.4,4.4,3.8,8.3,8.1,9.1c2.2,0.4,4.5,0.3,6.7,0.2c0.6,0,1.2-0.4,1.6-0.9
		c0.8-1,0.8-2.1,0.4-3.1c-0.5-1-1.3-1.5-2.5-1.5c-1.2,0-2.4,0-3.6,0c-3.1,0-5.3-2.3-5.1-5.4C151.9,53.5,154.9,51.2,157.7,51.9z
		 M180.9,52c-0.2,0.2-0.4,0.3-0.5,0.4c-0.9,0.9-1.7,1.7-2.6,2.6c-0.7,0.7-1,1.6-0.7,2.6c0.6,2.1,3,2.8,4.7,1.3
		c1.9-1.8,3.8-3.7,5.7-5.6c1.1-1.1,1.1-2.7,0-3.9c-4.2-4.4-11.4-4.3-15.5,0.2c-2.3,2.5-3,5.4-2.6,8.7c0.5,4.3,3.9,8.1,8.1,8.9
		c2.2,0.4,4.4,0.2,6.6,0.2c0.1,0,0.2,0,0.2,0c1.4-0.3,2.1-1.6,2-3.2c-0.1-1.3-1.2-2.3-2.5-2.3c-1.3,0-2.5,0-3.8,0
		c-0.5,0-0.9,0-1.3-0.1c-2.6-0.6-4.2-3.3-3.6-6.1C175.5,53,178.2,51.3,180.9,52z M124.2,54c0,1.4,0,2.9,0,4.3c0,5,3.3,8.6,8.3,9
		c5.1,0.4,9.4-3.3,9.6-8.5c0.1-3.3,0-6.7,0-10c0-1.3-0.8-2.2-1.9-2.5c-2-0.5-3.7,0.7-3.7,2.8c0,3.1,0,6.3,0,9.4
		c0,1.8-1.4,3.2-3.1,3.2c-1.8,0.1-3.3-1.2-3.5-3c0-0.2,0-0.4,0-0.7c0-3,0-6,0-9c0-1.4-0.8-2.5-2.1-2.8c-1.9-0.4-3.4,0.8-3.5,2.8
		C124.2,50.7,124.2,52.4,124.2,54z M161.6,23.2C161.6,23.2,161.6,23.2,161.6,23.2c0-4,0-8.1,0-12.1c0-1.3-0.6-2.2-1.6-2.5
		c-1.4-0.4-2.8-0.1-3.5,0.9c-0.4,0.6-0.5,1.2-0.5,1.9c0,7.8,0,15.7,0,23.5c0,0.3,0,0.6,0.1,0.8c0.2,1.1,0.9,1.9,2,2.1
		c2,0.4,3.6-0.8,3.6-2.9C161.6,31.2,161.6,27.2,161.6,23.2z M64.4,27.5c0,2.6,0,5.2,0,7.8c0,1.4,0.8,2.4,2,2.7
		c2,0.5,3.6-0.8,3.6-2.9c0-5.1,0-10.2,0-15.3c0-0.3,0-0.6-0.1-0.9c-0.1-0.7-0.5-1.3-1.1-1.7c-1.8-0.9-4.4-0.2-4.4,2.6
		C64.4,22.4,64.4,24.9,64.4,27.5z M104.9,27.4c0-2.5,0-5.1,0-7.6c0-0.4,0-0.8-0.1-1.2c-0.2-0.8-0.7-1.3-1.5-1.5
		c-0.6-0.1-1.3-0.2-2-0.1c-1,0.2-1.6,0.8-1.9,1.8c-0.1,0.3-0.1,0.7-0.1,1c0,5.1,0,10.2,0,15.2c0,0.2,0,0.5,0,0.7
		c0.1,1.1,0.9,1.9,2,2.2c2,0.5,3.6-0.8,3.6-2.9C104.9,32.5,104.9,30,104.9,27.4z M121.5,50.5c0-0.5,0-1,0-1.5c0-2.1,1-3.8,2.9-4.8
		c1.9-1,3.9-0.9,5.8,0.3c1.6,1,2.3,2.6,2.4,4.5c0,3,0,6,0,9.1c0,0.1,0,0.3,0,0.4c0,0.4,0.3,0.6,0.7,0.6c0.4,0,0.6-0.2,0.6-0.9
		c0-3.1,0-6.1,0-9.2c0-1.9,0.8-3.5,2.4-4.6c0.1-0.1,0.1-0.1,0.3-0.2c-1.7-0.6-3.2-1.6-4.4-2.8c-1.3-1.2-2.3-2.6-3-4.2
		c-2.6,5.9-7.1,8.4-13.5,7.6C118.1,46.1,120,48,121.5,50.5z M67.2,14.9c1.9,0,3.4-1.6,3.4-3.4c0-1.9-1.5-3.4-3.4-3.4
		c-1.9,0-3.5,1.6-3.4,3.5C63.8,13.4,65.3,14.9,67.2,14.9z M105.5,11.5c0-1.9-1.5-3.4-3.4-3.4c-1.9,0-3.4,1.6-3.4,3.4
		c0,1.9,1.6,3.5,3.5,3.4C104,14.9,105.5,13.4,105.5,11.5z M145.2,43.5c-0.8,0.5-1.5,0.9-2.3,1.4c1.7,1.5,1.9,3.5,1.8,5.7
		c1.5-2.6,3.5-4.5,6.1-5.8C148.8,45.2,146.9,44.9,145.2,43.5z M97.9,43.1c-0.3,1-0.7,2-1,2.9c0,0.1,0,0.3,0.1,0.4
		c0.2,0.6,0.6,1.2,0.7,1.8c0.2,0.5,0.1,1.1,0.2,1.8c1.4-2.3,3.2-4,5.6-5.2C101.4,45.2,99.4,44.7,97.9,43.1z M112.6,43.8
		c-2-1.1-3.7-2.7-4.9-4.6c0,2.1-0.8,3.8-2.6,5C107.6,43.4,110.1,43.3,112.6,43.8z M151.9,44.3c0.9-0.2,2-0.5,3.1-0.7
		c-0.3-0.4-0.7-0.9-1-1.2C153.2,43,152.5,43.7,151.9,44.3z M51.3,29.2c0-0.1,0-0.1,0-0.2c-0.8,0.2-1.5,0.3-2.3,0.5
		c0,0.1,0,0.1,0,0.2C49.8,29.9,50.6,29.7,51.3,29.2z M111.1,59.3c-0.7-0.7-1.6-0.8-2.4-0.3C109.5,59.1,110.2,59.2,111.1,59.3z
		 M142.7,30c-0.7-0.7-1.7-0.8-2.3-0.3C141.2,29.8,141.9,29.9,142.7,30z M83.8,29.6c0,0,0,0.1,0,0.1c0.7,0.1,1.5,0.2,2.2,0.3
		C85.5,29.3,84.5,29.2,83.8,29.6z M83.8,51.5c0,0,0,0.1,0,0.1c0.7,0.3,1.6,0.3,2.2-0.3C85.1,51.4,84.5,51.5,83.8,51.5z"/>
	<path d="M176.5,90.6c-0.5,0.5-1,0.9-1.5,1.4c-0.5,0.5-1.2,0.7-1.9,0.7c-0.9,0-1.5-0.5-1.5-1.4c0-0.5,0-0.9,0.1-1.4
		c0.3-1.1,0.7-2.1,1-3.1c0.3-1,0.7-2,1-3.1c0.1-0.3,0.2-0.4,0.5-0.4c0.7,0.1,1.3,0.4,1.6,1.1c0.1,0.2,0,0.6-0.1,0.8
		c-0.6,1.4-1.2,2.8-1.8,4.3c-0.2,0.5-0.3,1.1-0.3,1.6c0,0.3,0.2,0.4,0.4,0.3c0.3-0.2,0.6-0.3,0.9-0.6c1.2-1.1,2.2-2.5,2.7-4
		c0.4-1,0.7-2,1-3c0.1-0.4,0.4-0.5,0.7-0.4c0.4,0.1,0.7,0.3,1,0.6c0.5,0.4,0.5,0.7,0.2,1.3c-0.6,1.5-1.3,2.9-1.9,4.4
		c-0.2,0.5-0.2,1-0.3,1.5c-0.1,0.4,0.2,0.4,0.5,0.3c0.3-0.1,0.5-0.3,0.7-0.5c0.6-0.7,1.3-1.4,1.8-2.2c0.7-1.1,1.3-2.2,2-3.4
		c-0.4-0.5-0.2-1,0.1-1.5c0.4-0.7,0.8-1.4,1.2-2.2c0.4,0.2,0.8,0.4,1.1,0.7c0.3,0.3,0.3,0.7,0,1.2c-0.2,0.4-0.5,0.7-0.8,1.2
		c0.3-0.1,0.4-0.1,0.6-0.2c0.8-0.4,1.7-0.7,2.5-1.2c0.5-0.3,0.8,0.1,1.1,0.3c0.3,0.1,0.3,0.4,0.2,0.7c-0.2,0.4-0.4,0.8-0.6,1.1
		c-0.7,0.9-1.4,1.8-2.1,2.7c-0.4,0.5-0.7,1-1,1.6c-0.1,0.2-0.2,0.5-0.2,0.7c0,0.2,0,0.4,0.1,0.5c0.1,0.1,0.4,0.1,0.6,0
		c1-0.5,1.7-1.2,2.3-2.1c1.1-1.6,1.8-3.4,2.6-5.2c0.2-0.4,0.5-0.5,0.8-0.4c0.3,0.1,0.6,0.3,0.9,0.6c0.3,0.3,0.4,0.7,0.2,1.2
		c-0.8,1.5-1.6,2.9-2.4,4.4c-0.2,0.4-0.4,0.9-0.5,1.4c-0.1,0.4,0.1,0.6,0.5,0.4c0.4-0.2,0.8-0.5,1.2-0.8c1-0.9,1.8-1.9,2.5-3.1
		c0.8-1.5,1.8-2.7,3.2-3.5c0.9-0.5,1.9-0.8,2.9-0.7c0.9,0.1,1.5,0.7,1.6,1.6c0,0.2,0,0.5,0.1,0.7c0,0.3-0.1,0.5-0.5,0.5
		c-0.3,0-0.5-0.1-0.5-0.4c0-0.3-0.1-0.6-0.2-0.9c-0.1-0.5-0.5-0.8-1-0.6c-0.5,0.1-1,0.3-1.3,0.6c-1.5,1.3-2.4,3-2.7,5
		c0,0.1,0,0.2,0,0.4c0,0.4,0,0.9,0.5,1.1c0.4,0.2,0.8,0,1.2-0.3c1.3-1.2,2.5-2.5,2.8-4.4c0-0.1,0.3-0.3,0.4-0.3
		c0.6-0.1,1.5,0.6,1.6,1.2c0,0.2,0,0.5-0.1,0.7c-0.3,0.8-0.6,1.6-0.8,2.3c-0.1,0.3-0.1,0.7-0.1,1c0,0,0.1,0.1,0.1,0.1
		c0.3-0.1,0.6-0.2,0.8-0.4c0.5-0.4,0.9-0.8,1.3-1.3c0.6-0.8,1.1-1.6,1.6-2.3c0.2-0.3,0.4-0.4,0.7-0.2c0.1,0.1,0.2,0.3,0.2,0.4
		c-0.9,1.5-1.8,3.1-3.2,4.3c-0.7,0.5-1.4,0.9-2.2,0.8c-0.9-0.1-1.4-0.6-1.5-1.5c0-0.1,0-0.2,0-0.4c-0.5,0.4-0.9,0.8-1.3,1.1
		c-0.6,0.4-1.3,0.8-2.1,0.6c-1.1-0.2-1.7-0.9-1.9-2c0-0.1,0-0.2-0.2-0.4c-0.1,0.1-0.2,0.3-0.3,0.4c-0.6,0.5-1.1,1.1-1.8,1.5
		c-0.5,0.3-1.1,0.5-1.7,0.6c-0.9,0.1-1.4-0.4-1.4-1.3c0-0.1,0-0.2,0-0.5c-0.2,0.2-0.3,0.3-0.5,0.4c-0.8,0.7-1.6,1.2-2.6,1.4
		c-1.5,0.2-2.5-0.8-2-2.3c0.3-0.7,0.7-1.4,1.1-2.1c0.6-1,1.4-1.9,2.1-2.8c-0.6,0.1-1.2,0.1-1.7,0.2c-0.1,0-0.2,0.2-0.3,0.3
		c-0.5,0.8-0.9,1.6-1.5,2.4c-0.7,1-1.4,2-2.1,3c-0.5,0.6-1.1,1.1-1.9,1.3c-1.4,0.4-2.3-0.2-2.3-1.7
		C176.5,90.8,176.5,90.7,176.5,90.6z"/>
	<path d="M172.6,77.9c-0.3,0.3-0.6,0.5-1,0.8c-3.2,2.7-6,5.8-8.5,9.2c-0.1,0.2-0.2,0.3-0.3,0.5c-0.7,1.9-1.4,3.8-2.2,5.7
		c0,0,0,0-0.1,0.2c-0.3-0.2-0.7-0.4-1-0.7c-1-0.8-1.1-0.9-0.6-2.1c1.3-3.1,2.6-6.1,3.9-9.1c0.7-1.6,1.4-3.1,2-4.6
		c0.1-0.2,0.1-0.4,0.3-0.7c-0.3,0.1-0.4,0.1-0.6,0.2c-0.4,0.3-0.7,0.6-1,0.9c-1.9,2-3.6,4.3-5,6.7c-0.2,0.4-0.4,0.8-0.5,1.1
		c-1.1-0.3-1.8-1.9-1.1-2.7c1.9-2.6,4.2-4.8,6.9-6.6c0.4-0.3,0.9-0.5,1.3-0.6c0.9-0.3,1.9,0.5,1.8,1.4c0,0.6-0.2,1.2-0.4,1.8
		c-0.5,1.4-1.1,2.8-1.6,4.2c-0.1,0.2-0.2,0.4-0.2,0.6c0.1-0.1,0.2-0.2,0.3-0.4c1.9-2.4,4-4.7,6.4-6.6c0.8-0.6,1.7-1.1,2.6-1.7
		c0.3-0.2,0.6-0.2,0.9,0c0.4,0.3,0.8,0.7,1.2,1c0.1,0.1,0.1,0.4,0,0.5c-1.5,2-2.7,4.3-3.8,6.5c-1,2.1-2,4.2-2.5,6.5
		c-0.2,0.9-0.3,1.9-0.3,2.8c0,0.8,0.4,1.2,1.2,1.2c0.6,0,1.1-0.1,1.7-0.1c0.1,0,0.1,0,0.2,0c-0.2,0.4-0.4,0.8-0.8,0.8
		c-0.8,0-1.6,0.1-2.4-0.1c-1.4-0.3-2-1.2-2.1-2.6c-0.1-1.3,0.2-2.6,0.6-3.8c1-3.2,2.5-6.3,4.1-9.2C172.3,78.6,172.5,78.3,172.6,77.9
		C172.6,78,172.6,78,172.6,77.9z"/>
	<path d="M134.5,89.9c-0.5,0.5-0.9,1-1.3,1.4c-1.3,1.2-2.8,1.6-4.5,1.3c-1.3-0.2-2.1-1.1-2.1-2.5c0-0.4,0-0.9,0.2-1.3
		c0.9-2.8,2.6-4.8,5.5-5.5c0.5-0.1,1,0,1.5,0.1c0.5,0.1,0.7,0.5,0.8,1c0,0.5-0.1,1-0.5,1.3c-0.2,0.1-0.4,0.1-0.6,0.1
		c0-0.2,0-0.4,0-0.6c0-0.1,0.1-0.2,0.1-0.3c0-0.2,0-0.5-0.1-0.7c-0.1-0.1-0.5-0.1-0.6,0c-0.4,0.2-0.8,0.4-1.1,0.7
		c-1.2,1.1-2,2.5-2.4,4c-0.1,0.6,0,1.2,0.1,1.8c0.2,0.7,0.7,1,1.4,0.7c0.5-0.2,1-0.4,1.5-0.7c1.2-0.9,2.1-2,2.7-3.5
		c0.8-2.1,2.3-3.5,4.5-4.1c0.5-0.1,1.2-0.1,1.7,0.1c0.4,0.1,0.8,0.4,0.9,0.7c0.7,1.4,1.1,2.8,0.5,4.4c-0.6,1.4-1.4,2.5-2.6,3.4
		c-2.2,1.5-4.8,0.4-5.3-1.8C134.6,90,134.6,90,134.5,89.9z M141.2,84.7c-0.1-0.5-0.4-0.6-0.8-0.5c-0.7,0.1-1.3,0.5-1.8,1
		c-1,1.1-1.7,2.4-1.8,3.8c-0.1,0.6,0,1.2,0.2,1.7c0.2,0.6,0.6,0.9,1.2,0.8c0.4-0.1,0.9-0.3,1.3-0.5c1.2-1,1.9-2.4,2.2-4
		c0.1-0.4,0-0.8,0-1.2c-0.5,0.2-0.9,0.5-1.2,1c-0.1,0.1-0.2,0.3-0.3,0.2c-0.1,0-0.3-0.2-0.3-0.3c-0.3-0.6-0.1-1.1,0.4-1.5
		C140.6,85,140.9,84.9,141.2,84.7z"/>
	<path d="M148.8,84.9c-0.2,0.1-0.4,0.2-0.6,0.4c-0.8,0.8-1.7,1.7-2.5,2.6c-0.1,0.1-0.2,0.3-0.2,0.5c-0.5,1.3-0.9,2.6-1.1,4
		c0,0.4-0.2,0.5-0.5,0.4c-0.1,0-0.2-0.1-0.3-0.1c-0.9-0.3-1.2-0.6-0.9-1.6c0.4-1.6,0.9-3.1,1.4-4.7c0.3-0.8,0.6-1.7,0.9-2.5
		c0.1-0.1,0.3-0.3,0.4-0.3c0.8,0,1.6,0.6,1.8,1.4c0.1-0.1,0.3-0.2,0.4-0.3c0.7-0.6,1.4-1,2.4-1.2c0.9-0.1,1.8,0.9,1.4,1.8
		c-0.5,1.2-1.1,2.5-1.6,3.7c-0.3,0.7-0.4,1.4-0.5,2.1c0,0.1,0.1,0.3,0.1,0.4c0.1,0,0.3,0,0.4-0.1c0.9-0.6,1.6-1.3,2.2-2.2
		c0.4-0.5,0.7-1.1,1-1.6c0.2-0.3,0.4-0.4,0.7-0.2c0.4,0.2,0.1,0.4,0,0.6c-0.7,1.2-1.4,2.5-2.5,3.5c-0.4,0.4-0.8,0.7-1.2,1
		c-0.4,0.2-0.8,0.3-1.3,0.4c-1.1,0-1.8-0.8-1.7-1.8c0.1-0.9,0.4-1.7,0.7-2.6c0.3-0.8,0.6-1.6,0.9-2.4c0.1-0.3,0.1-0.6,0.2-0.8
		C148.9,85,148.9,85,148.8,84.9z"/>
	<path d="M193.8,82.9c-0.6-0.2-1-0.5-1.2-1c-0.1-0.2-0.1-0.4-0.1-0.6c0.2-0.9,0.4-1.8,0.6-2.7c0-0.1,0.3-0.2,0.4-0.2
		c0.7,0.3,1.2,0.8,1.6,1.4c0.1,0.1,0,0.4-0.1,0.6C194.6,81.2,194.2,82,193.8,82.9z"/>
</g>
</svg>
