<?xml version="1.0" encoding="utf-8"?>
<!-- Generator: Adobe Illustrator 25.4.1, SVG Export Plug-In . SVG Version: 6.00 Build 0)  -->
<svg version="1.1" id="Capa_1" xmlns="http://www.w3.org/2000/svg" xmlns:xlink="http://www.w3.org/1999/xlink" x="0px" y="0px"
	 viewBox="0 0 250 100" style="enable-background:new 0 0 250 100;" xml:space="preserve">
<g>
	<g>
		<g>
			<path d="M12.2,72.9H22V75h-7.4v3.6h6.9v1.9h-6.9v4h7.6v2.1h-10V72.9z"/>
			<path d="M24,72.9h2.8l3.1,4.8l3.2-4.8h2.7l-4.5,6.6l4.8,7.1h-2.9l-3.4-5.2l-3.5,5.2h-2.7l4.8-7.1L24,72.9z"/>
			<path d="M47,77.3c-0.4-1.6-1.4-2.7-3.4-2.7c-2.9,0-4.1,2.6-4.1,5.2c0,2.6,1.2,5.2,4.1,5.2c2.1,0,3.3-1.6,3.5-3.6h2.3
				c-0.2,3.3-2.5,5.5-5.8,5.5c-4.1,0-6.5-3.2-6.5-7.1c0-3.9,2.4-7.1,6.5-7.1c3.1,0,5.5,1.7,5.8,4.7H47z"/>
			<path d="M52.9,72.9h9.8V75h-7.4v3.6h6.9v1.9h-6.9v4h7.6v2.1h-10V72.9z"/>
			<path d="M66.4,72.9h9.8V75h-7.4v3.6h6.9v1.9h-6.9v4h7.6v2.1h-10V72.9z"/>
			<path d="M80,72.9h5.7c4.2,0,6,3.1,6,6.8c0,3.8-1.8,6.8-6,6.8H80V72.9z M82.4,84.6h2.3c3.7,0,4.5-2.1,4.5-4.9
				c0-2.7-0.8-4.9-4.5-4.9h-2.3V84.6z"/>
			<path d="M103.8,81.2l-5.1-8.3h2.8l3.6,6.1l3.6-6.1h2.7l-5.1,8.3v5.4h-2.4V81.2z"/>
			<path d="M124.9,79.8c0,3.9-2.4,7.1-6.5,7.1c-4.1,0-6.5-3.2-6.5-7.1c0-3.9,2.4-7.1,6.5-7.1C122.4,72.6,124.9,75.9,124.9,79.8z
				 M114.2,79.8c0,2.6,1.2,5.2,4.1,5.2c2.9,0,4.1-2.6,4.1-5.2c0-2.6-1.2-5.2-4.1-5.2C115.4,74.6,114.2,77.1,114.2,79.8z"/>
			<path d="M127.8,72.9h2.4v7.9c0,1.8,0.1,4,3.2,4c3.1,0,3.2-2.1,3.2-4v-7.9h2.4v8.7c0,3.5-2.2,5.2-5.6,5.2c-3.4,0-5.6-1.7-5.6-5.2
				V72.9z"/>
			<path d="M142.7,72.9h6.5c3,0,4.5,1.4,4.5,3.7c0,2.6-1.8,3.3-2.3,3.4v0c0.8,0.1,2,0.7,2,2.9c0,1.6,0.2,3,0.7,3.6h-2.6
				c-0.4-0.6-0.4-1.3-0.4-2c0-2.5-0.5-3.6-2.7-3.6H145v5.6h-2.4V72.9z M145,79.1h3.9c1.5,0,2.3-0.7,2.3-2.2c0-1.7-1.1-2.1-2.4-2.1
				H145V79.1z"/>
			<path d="M162.3,72.9h2.5l3.4,10.8h0l3.5-10.8h2.4l-4.7,13.6h-2.7L162.3,72.9z"/>
			<path d="M176.6,72.9h2.4v13.6h-2.4V72.9z"/>
			<path d="M184.4,82c0,2.1,1.5,2.9,3.5,2.9c2.1,0,2.9-1,2.9-2.1c0-1.1-0.6-1.5-1.1-1.7c-1-0.4-2.2-0.6-4.1-1.1c-2.3-0.6-3-2-3-3.5
				c0-2.7,2.5-4,5-4c2.9,0,5.2,1.5,5.2,4.4h-2.4c-0.1-1.8-1.3-2.4-2.9-2.4c-1.1,0-2.5,0.4-2.5,1.8c0,1,0.6,1.5,1.6,1.8
				c0.2,0.1,3.2,0.8,3.9,1c1.8,0.5,2.7,2.1,2.7,3.5c0,3.1-2.7,4.3-5.4,4.3c-3.1,0-5.6-1.5-5.7-4.9H184.4z"/>
			<path d="M196.3,72.9h2.4v13.6h-2.4V72.9z"/>
			<path d="M214.9,79.8c0,3.9-2.4,7.1-6.5,7.1c-4.1,0-6.5-3.2-6.5-7.1c0-3.9,2.4-7.1,6.5-7.1C212.5,72.6,214.9,75.9,214.9,79.8z
				 M204.2,79.8c0,2.6,1.2,5.2,4.1,5.2c2.9,0,4.2-2.6,4.2-5.2c0-2.6-1.2-5.2-4.2-5.2C205.5,74.6,204.2,77.1,204.2,79.8z"/>
			<path d="M218,72.9h2.5l6.2,10h0v-10h2.3v13.6h-2.5l-6.2-10h-0.1v10H218V72.9z"/>
		</g>
	</g>
	<g>
		<g>
			<path d="M162.3,12c-14.7,0-23.2,11-23.2,26.1c0,15.1,8.5,26.1,23.2,26.1c14.7,0,23.2-11,23.2-26.1C185.5,23,177,12,162.3,12z
				 M162.3,55.4c-9.3,0-12.9-8.6-12.9-17.3c0-8.7,3.6-17.3,12.9-17.3c9.3,0,12.9,8.6,12.9,17.3C175.3,46.8,171.7,55.4,162.3,55.4z"
				/>
			<polygon points="12.2,13.4 49,13.4 49,22.2 22.4,22.2 22.4,33.1 47.2,33.1 47.2,41.7 22.4,41.7 22.4,53.9 49,53.9 49,62.7 
				12.2,62.7 			"/>
			<path d="M53.4,62.7h10.2V47.9h9.3c12.5,0,21-6.2,21-17.3c0-11.1-8.4-17.3-21-17.3H53.4V62.7z M72.9,39.1h-9.3V22.2l0,0h9.3
				c6.4,0,10.7,2.8,10.7,8.5C83.7,36.3,79.4,39.1,72.9,39.1z"/>
			<path d="M199.9,13.4h-10.5v49.3h10v-20c0-5.5-0.2-10.3-0.4-14.6c1.2,2.5,4.8,9.9,6.4,12.7l13.1,21.9h10.5V13.4h-10v19.5
				c0,5.5,0.2,10.8,0.4,15.1c-1.2-2.5-4.8-9.9-6.4-12.7L199.9,13.4z"/>
			<path d="M105.6,46.4c0,6.6,5.5,9.2,11.4,9.2c3.8,0,10-1.1,10-6.2c0-5.4-7.6-6.4-14.9-8.3C104.4,39,97,36.2,97,27
				c0-10.2,9.6-15.1,18.6-15.1c10.4,0,19.9,4.5,19.9,16h-10.2c-0.4-6-5-7.5-10.2-7.5c-3.5,0-7.9,1.5-7.9,5.6c0,3.8,2.5,4.4,15,7.6
				c3.6,0.9,15,3.1,15,14.4c0,9.1-7.2,16-20.7,16c-11,0-21.3-5.4-21.2-17.7H105.6z"/>
		</g>
		<g>
			<path d="M234,18.3c0-2.7,2.2-4.9,4.9-4.9c2.7,0,4.9,2.2,4.9,4.9c0,2.7-2.2,4.9-4.9,4.9C236.2,23.3,234,21.1,234,18.3z M239,23.8
				c3,0,5.4-2.4,5.4-5.4c0-3-2.4-5.4-5.4-5.4c-3,0-5.4,2.4-5.4,5.4C233.5,21.3,236,23.8,239,23.8z"/>
			<path d="M239.5,18.2c0.6,0,1.1-0.4,1.1-1.1c0-0.7-0.5-1.1-1.1-1.1l-1.6,0v5.5h-1.1v-6.4h2.8c1.3,0,2.2,0.9,2.2,1.9
				c0,0.9-0.7,1.7-1.4,1.8l1.8,2.6h-1.3l-2.1-3.3H239.5z"/>
		</g>
		<path d="M262-11.2"/>
		<path d="M-20.7-11.2"/>
		<path d="M-20.7,111.2"/>
		<path d="M262,111.2"/>
	</g>
</g>
</svg>
