<?xml version="1.0" encoding="utf-8"?>
<!-- Generator: Adobe Illustrator 25.4.1, SVG Export Plug-In . SVG Version: 6.00 Build 0)  -->
<svg version="1.1" id="Capa_1" xmlns="http://www.w3.org/2000/svg" xmlns:xlink="http://www.w3.org/1999/xlink" x="0px" y="0px"
	 viewBox="0 0 250 100" style="enable-background:new 0 0 250 100;" xml:space="preserve">
<path d="M99.4,27.5V22c0-5.9,2-6.7,6.8-8.3L127,7.3l20.8,6.4c5.2,1.8,6.8,3.1,6.8,8.4v5.4h1.1V22c0-6.5-2.7-7.7-7.6-9.4l-21-6.5
	l-0.1,0l-21.1,6.5c-2.6,0.9-4.5,1.5-5.7,2.8c-1.4,1.5-1.8,3.9-1.8,6.6v5.4H99.4"/>
<path d="M154.5,50v5.3c0,4.7-1.6,6.6-6.8,8.3L127,70.1l-20.8-6.4c-5.2-1.8-6.8-3.5-6.8-8.4V50h-1.1v5.3c0,6.1,2.7,7.7,7.6,9.4
	l21,6.5l0.1,0l21.1-6.5c2.6-0.9,4.4-1.8,5.6-3.1c1.4-1.5,2-3.6,2-6.3V50H154.5"/>
<path d="M96.8,27.5v-6.9c0-5,2-7.4,7.6-9.3l22.6-7l22.6,7c5.6,1.9,7.6,4.3,7.6,9.3v6.9h0.6v-6.9c0-6-3.1-8.3-8-9.9L127,3.6
	l-22.8,7.1c-4.9,1.7-8,3.9-8,9.9v6.9H96.8"/>
<path d="M157.2,50v6.7c0,5-2,7.4-7.6,9.3L127,73l-22.6-7c-5.6-1.9-7.6-4.3-7.6-9.3V50h-0.6v6.7c0,6,3.1,8.3,8,9.9l22.8,7.1l22.8-7.1
	c4.9-1.7,8-3.9,8-9.9V50H157.2"/>
<path d="M114.5,80.8c0,0.1,0,0.2,0.1,0.3c0.1,0.1,0.2,0.1,0.3,0.1c0.1,0,0.2,0,0.3-0.1c0.1-0.1,0.1-0.2,0.1-0.3v-2.1h0.2v2.1
	c0,0.2-0.1,0.3-0.2,0.4c-0.1,0.1-0.3,0.2-0.4,0.2c-0.2,0-0.3-0.1-0.4-0.2c-0.1-0.1-0.2-0.3-0.2-0.4v-2.1h0.2V80.8"/>
<polyline points="117.3,81.4 116.4,79.1 116.4,81.4 116.2,81.4 116.2,78.7 116.4,78.7 117.3,80.9 117.3,78.7 117.5,78.7 117.5,81.4 
	117.3,81.4 "/>
<path d="M118.9,78.7l0.6,2.7h-0.2l-0.1-0.5h-0.8l-0.1,0.5h-0.2l0.6-2.7H118.9 M118.8,79.1l-0.4,1.7h0.7L118.8,79.1z"/>
<path d="M121.5,80.8c0,0.1,0,0.2,0.1,0.3c0.1,0.1,0.2,0.1,0.3,0.1c0.1,0,0.2,0,0.3-0.1c0.1-0.1,0.1-0.2,0.1-0.3v-0.1h0.2v0.1
	c0,0.2-0.1,0.3-0.2,0.4c-0.1,0.1-0.3,0.2-0.4,0.2c-0.2,0-0.3-0.1-0.4-0.2c-0.1-0.1-0.2-0.3-0.2-0.4v-1.5c0-0.2,0.1-0.3,0.2-0.4
	c0.1-0.1,0.3-0.2,0.4-0.2c0.2,0,0.3,0.1,0.4,0.2c0.1,0.1,0.2,0.3,0.2,0.4v0.1h-0.2v-0.1c0-0.1,0-0.2-0.1-0.3
	c-0.1-0.1-0.2-0.1-0.3-0.1c-0.1,0-0.2,0-0.3,0.1c-0.1,0.1-0.1,0.2-0.1,0.3V80.8"/>
<path d="M123.4,81.4h-0.2v-2.7h0.6c0.2,0,0.3,0.1,0.4,0.2c0.1,0.1,0.2,0.3,0.2,0.4v0.7c0,0.2-0.1,0.4-0.3,0.5
	c0.2,0.1,0.3,0.3,0.3,0.5v0.4h-0.2V81c0-0.1,0-0.2-0.1-0.3c-0.1-0.1-0.2-0.1-0.3-0.1h-0.4V81.4 M123.4,78.8v1.5h0.4
	c0.1,0,0.2,0,0.3-0.1c0.1-0.1,0.1-0.2,0.1-0.3v-0.7c0-0.1,0-0.2-0.1-0.3c-0.1-0.1-0.2-0.1-0.3-0.1H123.4z"/>
<polyline points="125.2,81.4 125.2,78.7 126.1,78.7 126.1,78.8 125.3,78.8 125.3,80.4 126,80.4 126,80.5 125.3,80.5 125.3,81.2 
	126.1,81.2 126.1,81.4 125.2,81.4 "/>
<path d="M127.5,78.7l0.6,2.7h-0.2l-0.1-0.5H127l-0.1,0.5h-0.2l0.6-2.7H127.5 M127.4,79.1l-0.4,1.7h0.7L127.4,79.1z"/>
<path d="M128.9,80.8c0,0.1,0,0.2,0.1,0.3c0.1,0.1,0.2,0.1,0.3,0.1c0.1,0,0.2,0,0.3-0.1c0.1-0.1,0.1-0.2,0.1-0.3v-0.1h0.2v0.1
	c0,0.2-0.1,0.3-0.2,0.4c-0.1,0.1-0.3,0.2-0.4,0.2c-0.2,0-0.3-0.1-0.4-0.2c-0.1-0.1-0.2-0.3-0.2-0.4v-1.5c0-0.2,0.1-0.3,0.2-0.4
	c0.1-0.1,0.3-0.2,0.4-0.2c0.2,0,0.3,0.1,0.4,0.2c0.1,0.1,0.2,0.3,0.2,0.4v0.1h-0.2v-0.1c0-0.1,0-0.2-0.1-0.3
	c-0.1-0.1-0.2-0.1-0.3-0.1c-0.1,0-0.2,0-0.3,0.1c-0.1,0.1-0.1,0.2-0.1,0.3V80.8"/>
<rect x="130.7" y="78.7" width="0.2" height="2.7"/>
<path d="M131.6,79.3c0-0.2,0.1-0.3,0.2-0.4c0.1-0.1,0.3-0.2,0.4-0.2c0.2,0,0.3,0.1,0.4,0.2c0.1,0.1,0.2,0.3,0.2,0.4v1.5
	c0,0.2-0.1,0.3-0.2,0.4c-0.1,0.1-0.3,0.2-0.4,0.2c-0.2,0-0.3-0.1-0.4-0.2c-0.1-0.1-0.2-0.3-0.2-0.4V79.3 M131.8,80.8
	c0,0.1,0,0.2,0.1,0.3c0.1,0.1,0.2,0.1,0.3,0.1c0.1,0,0.2,0,0.3-0.1c0.1-0.1,0.1-0.2,0.1-0.3v-1.6c0-0.1,0-0.2-0.1-0.3
	c-0.1-0.1-0.2-0.1-0.3-0.1c-0.1,0-0.2,0-0.3,0.1c-0.1,0.1-0.1,0.2-0.1,0.3V80.8z M132,78.4l0-0.1l0.5-0.2l0,0.1L132,78.4z"/>
<polyline points="134.7,81.4 133.7,79.1 133.7,81.4 133.6,81.4 133.6,78.7 133.7,78.7 134.7,80.9 134.7,78.7 134.8,78.7 134.8,81.4 
	134.7,81.4 "/>
<path d="M136.7,81.4v-2.7h0.6c0.2,0,0.3,0.1,0.4,0.2c0.1,0.1,0.2,0.3,0.2,0.4v1.5c0,0.2-0.1,0.3-0.2,0.4c-0.1,0.1-0.3,0.2-0.4,0.2
	H136.7 M136.8,78.8v2.4h0.4c0.1,0,0.2,0,0.3-0.1c0.1-0.1,0.1-0.2,0.1-0.3v-1.5c0-0.1,0-0.2-0.1-0.3c-0.1-0.1-0.2-0.1-0.3-0.1H136.8z
	"/>
<polyline points="138.6,81.4 138.6,78.7 139.6,78.7 139.6,78.8 138.8,78.8 138.8,80.4 139.4,80.4 139.4,80.5 138.8,80.5 138.8,81.2 
	139.6,81.2 139.6,81.4 138.6,81.4 "/>
<path d="M99.2,84.6c0-0.6,0.2-1.1,0.6-1.5c0.4-0.4,0.9-0.6,1.5-0.6c0.6,0,1.1,0.2,1.5,0.6c0.4,0.4,0.6,0.9,0.6,1.5v5.7
	c0,0.6-0.2,1.1-0.6,1.5c-0.4,0.4-0.9,0.6-1.5,0.6c-0.6,0-1.1-0.2-1.5-0.6c-0.4-0.4-0.6-0.9-0.6-1.5V84.6 M99.8,90.3
	c0,0.4,0.1,0.8,0.4,1.1c0.3,0.3,0.7,0.4,1.1,0.4c0.4,0,0.8-0.1,1.1-0.4c0.3-0.3,0.5-0.7,0.5-1.1v-5.7c0-0.4-0.1-0.8-0.5-1.1
	c-0.3-0.3-0.7-0.5-1.1-0.5c-0.4,0-0.8,0.1-1.1,0.5c-0.3,0.3-0.4,0.7-0.4,1.1V90.3z"/>
<polyline points="105.4,91.1 105.4,83.7 106,83.7 106,90.5 107.9,90.5 107.9,91.1 105.4,91.1 "/>
<rect x="109.5" y="83.7" width="0.6" height="7.4"/>
<polyline points="113.2,91.1 111.8,83.7 112.4,83.7 113.5,89.7 114.7,83.7 115.3,83.7 113.8,91.1 113.2,91.1 "/>
<rect x="117" y="83.7" width="0.6" height="7.4"/>
<path d="M121.3,83.7l1.4,7.4h-0.6l-0.3-1.6h-1.7l-0.3,1.6h-0.6l1.4-7.4H121.3 M121,85.1l-0.7,3.9h1.5L121,85.1z"/>
<polyline points="130.6,91.1 130.6,85 129.6,86.8 129,86.8 128.1,85 128.1,91.1 127.5,91.1 127.5,83.7 128.1,83.7 129.3,86 
	130.6,83.7 131.2,83.7 131.2,91.1 130.6,91.1 "/>
<polyline points="133,91.1 133,83.7 135.8,83.7 135.8,84.3 133.7,84.3 133.7,88.1 135.5,88.1 135.5,88.7 133.7,88.7 133.7,90.5 
	135.8,90.5 135.8,91.1 133,91.1 "/>
<path d="M137.5,91.1v-7.4h1.5c0.4,0,0.8,0.1,1.1,0.5c0.3,0.3,0.5,0.7,0.5,1.1v4.3c0,0.4-0.1,0.8-0.5,1.1c-0.3,0.3-0.7,0.4-1.1,0.4
	H137.5 M138.1,84.3v6.3h0.9c0.5,0,0.9-0.4,0.9-0.9v-4.4c0-0.5-0.4-0.9-0.9-0.9H138.1z"/>
<rect x="142.5" y="83.7" width="0.6" height="7.4"/>
<polyline points="147.9,91.1 145.7,85.4 145.7,91.1 145.1,91.1 145.1,83.7 145.7,83.7 147.9,89.5 147.9,83.7 148.5,83.7 148.5,91.1 
	147.9,91.1 "/>
<path d="M152.5,82.5l2.1,9.9H154l-0.4-1.9h-2.8l-0.4,1.9h-0.6l2.1-9.9H152.5 M152.2,83.8l-1.3,6.1h2.6L152.2,83.8z"/>
<rect x="117.2" y="96" width="19.4" height="0.4"/>
<path d="M113.7,59.7c1.1,0,24.7,0,26.2,0c1.5,0,1.5-1.2,1.5-1.2h-28.9C112.5,58.5,112.6,59.7,113.7,59.7"/>
<path d="M140.3,18c-4,0-22.1,0-26.2,0c-1.5,0-1.5,1.2-1.5,1.2h28.9C141.4,19.1,141.3,18,140.3,18"/>
<path d="M87.8,31.6h-1.9v-0.3h11.5l0.3,3.7h-0.3c0-2.5-1.6-3.3-3.9-3.3H90v6.9h1.6c2.2,0,2.5-1.4,2.5-2.8h0.3v5.7h-0.3
	c0-1.6-0.2-2.6-2.5-2.6H90V46h3c3.5,0,5.2-0.4,5.2-4.1h0.3v4.4H85.9V46h1.9V31.6"/>
<path d="M97.9,31.2h6.5v0.3h-2.3v11.3c0,2.5,1.9,3.6,3.7,3.6c3,0,4.9-1.4,4.9-4.7V33c0-1.2-0.4-1.5-1.3-1.5h-1.2v-0.3h5v0.3h-1
	c-0.9,0-1.2,0.4-1.2,1.5V42c0,3.4-2.4,4.7-5.3,4.7c-3.6,0-5.9-0.8-5.9-4.3V31.6h-2.1V31.2"/>
<path d="M114.1,31.6h-2.2v-0.3h6.6c2.5,0,5.2,0.6,5.2,3.8c0,2.6-3,3.3-4.6,3.5v0c2.5,0.2,3.8,0.8,4.1,3.6l0.3,2.6
	c0.2,1.3,0.8,1.4,1.1,1.4c0.4,0,0.7-0.1,0.9-0.2l0.1,0.3c-0.4,0.2-1,0.3-1.8,0.3c-2.6,0-2.8-1.4-3.1-3.9l-0.2-1.3
	c-0.1-1.4-0.5-2.6-3-2.6h-1.4V46h2.2v0.3h-6.6V46h2.2V31.6 M116.3,38.4h1.1c2.5,0,4-0.9,4-3.4c0-1.7-0.6-3.5-3.6-3.5h-1.5V38.4z"/>
<path d="M131.8,30.9c3.6,0,6.8,3.5,6.8,7.9c0,4.4-3.2,7.9-6.8,7.9c-3.6,0-6.8-3.5-6.8-7.9C124.9,34.4,128.1,30.9,131.8,30.9
	 M131.8,46.4c3.8,0,4.4-4.8,4.4-7.6c0-2.8-0.5-7.6-4.4-7.6c-3.8,0-4.4,4.8-4.4,7.6C127.4,41.6,127.9,46.4,131.8,46.4z"/>
<path d="M148.9,31.6h-0.5c-3.8,0-4.7,0.6-4.7,4.1h-0.3v-4.5h13.2v4.5h-0.3c0-3.5-0.9-4.1-4.7-4.1h-0.5V46h2.2v0.3h-6.6V46h2.2V31.6"
	/>
<path d="M158.2,31.6h-1.9v-0.3h11.5l0.3,3.7h-0.3c0-2.5-1.6-3.3-3.9-3.3h-3.4v6.9h1.6c2.2,0,2.5-1.4,2.5-2.8h0.3v5.7h-0.3
	c0-1.6-0.2-2.6-2.5-2.6h-1.6V46h3c3.5,0,5.2-0.4,5.2-4.1h0.3v4.4h-12.6V46h1.9V31.6"/>
<path d="M167,51.3c-1,0-1.8-0.8-1.8-1.8c0-1,0.8-1.8,1.8-1.8c1,0,1.8,0.8,1.8,1.8C168.9,50.4,168,51.3,167,51.3 M167,47.7
	c-0.9,0-1.7,0.8-1.7,1.7c0,0.9,0.8,1.7,1.7,1.7c0.9,0,1.7-0.8,1.7-1.7C168.7,48.5,167.9,47.7,167,47.7z"/>
<path d="M167.4,50.5h0.3l-0.4-0.9c0.3-0.1,0.4-0.3,0.4-0.7c0-0.4-0.2-0.7-0.7-0.7h-0.7v2.2h0.3v-0.9h0.4L167.4,50.5 M166.6,49.4
	v-0.8h0.4c0.3,0,0.4,0.1,0.4,0.4c0,0.3-0.1,0.4-0.4,0.4H166.6z"/>
</svg>
