<?xml version="1.0" encoding="utf-8"?>
<!-- Generator: Adobe Illustrator 25.4.1, SVG Export Plug-In . SVG Version: 6.00 Build 0)  -->
<svg version="1.1" id="Capa_1" xmlns="http://www.w3.org/2000/svg" xmlns:xlink="http://www.w3.org/1999/xlink" x="0px" y="0px"
	 viewBox="0 0 250 100" style="enable-background:new 0 0 250 100;" xml:space="preserve">
<g>
	<g>
		<path d="M199.5,64.1c-2.5,1.7-5.5,2.6-9.1,2.6c-3.3,0-6.2-0.7-8.6-2.2c-2.5-1.5-4.3-3.6-5.7-6.3c-1.3-2.7-2-6-2-9.7s0.7-7,2-9.7
			c1.3-2.7,3.2-4.8,5.6-6.3c2.4-1.5,5.3-2.2,8.6-2.2c3.5,0,6.5,0.8,8.9,2.3c2.4,1.5,4.1,3.8,5,6.9l-6.4,2.8
			c-0.5-2.1-1.4-3.6-2.6-4.6c-1.2-0.9-2.7-1.4-4.7-1.4c-2.9,0-5.1,1.1-6.7,3.2c-1.6,2.1-2.4,5.1-2.4,9c0,3.9,0.8,6.9,2.4,9
			c1.6,2.1,3.8,3.2,6.7,3.2c4.1,0,6.7-2.1,7.8-6.3l6.5,2C203.8,59.8,202.1,62.4,199.5,64.1z"/>
	</g>
	<g>
		<path d="M231.9,32.4c2.4,1.5,4.3,3.6,5.6,6.3c1.3,2.7,2,6,2,9.7s-0.7,7-2,9.7c-1.3,2.7-3.2,4.8-5.6,6.3c-2.4,1.5-5.3,2.2-8.6,2.2
			c-3.3,0-6.2-0.7-8.6-2.2c-2.5-1.5-4.3-3.6-5.7-6.3c-1.3-2.7-2-6-2-9.7s0.7-7,2-9.7c1.3-2.7,3.2-4.8,5.7-6.3
			c2.5-1.5,5.3-2.2,8.6-2.2C226.6,30.2,229.5,30.9,231.9,32.4z M216.7,39.4c-1.6,2.1-2.3,5.1-2.3,9c0,3.9,0.8,6.9,2.3,9
			c1.6,2.1,3.8,3.1,6.6,3.1c2.8,0,5-1,6.6-3.1c1.6-2.1,2.3-5.1,2.3-9c0-3.9-0.8-6.9-2.3-9c-1.6-2.1-3.7-3.1-6.6-3.1
			C220.4,36.3,218.2,37.3,216.7,39.4z"/>
	</g>
	<g>
		<path d="M102,60.2v6H76V30.7h25.3v6H83v8.8h14.4v5.7H83v9H102z"/>
	</g>
	<g>
		<path d="M37.8,36.7H26.5v29.4h-7.1V36.7H8.1v-6h29.7V36.7z"/>
	</g>
	<g>
		<path d="M69.7,30.7v35.4h-7.1V51.2H47.8v14.9h-7.1V30.7h7.1v14.5h14.9V30.7H69.7z"/>
	</g>
	<g>
		<path d="M108.8,32.7v14.1H125v2.6h-16.2v17.2h-2.6V30.2h23v2.5H108.8z"/>
	</g>
	<g>
		<path d="M136.1,66.6h-2.6V30.2h2.6V66.6z"/>
	</g>
	<g>
		<path d="M172.4,54.7h-13.9v2.9h9.4c-0.9,1.8-2.8,4.4-4.3,5.3c-1.7,1-3.8,1.6-6.2,1.6c-4,0-7.1-1.4-9.3-4.3
			c-2.2-2.9-3.4-6.8-3.4-11.9c0-3.3,0.5-6.2,1.6-8.6c1.1-2.4,2.5-4.3,4.5-5.6c1.9-1.3,4.1-2,6.6-2c2.8,0,5.2,0.7,7,2
			c1.9,1.3,3.2,3.2,4,5.8l2.4-1.3c-1.1-3-2.7-5.3-4.9-6.7c-2.2-1.5-5-2.2-8.4-2.2c-3.1,0-5.8,0.8-8.1,2.3c-2.3,1.5-4.1,3.7-5.4,6.5
			c-1.3,2.8-1.9,6.1-1.9,9.9c0,3.8,0.6,7.1,1.9,9.9c1.2,2.8,3,5,5.3,6.5c2.3,1.5,5,2.3,8.1,2.3c2.9,0,5.3-0.6,7.3-1.8
			c2-1.2,5.3-4.8,6.2-7c0,0-0.2-0.3-0.5-0.6h2.1V54.7z"/>
	</g>
	<g>
		<rect x="163.9" y="61.4" transform="matrix(-1.836970e-16 1 -1 -1.836970e-16 233.7877 -108.0054)" width="13.9" height="2.9"/>
	</g>
</g>
</svg>
