<?xml version="1.0" encoding="utf-8"?>
<!-- Generator: Adobe Illustrator 25.4.1, SVG Export Plug-In . SVG Version: 6.00 Build 0)  -->
<svg version="1.1" id="Capa_1" xmlns="http://www.w3.org/2000/svg" xmlns:xlink="http://www.w3.org/1999/xlink" x="0px" y="0px"
	 viewBox="0 0 250 100" style="enable-background:new 0 0 250 100;" xml:space="preserve">
<style type="text/css">
	.st0{fill:#1D1D1B;}
</style>
<g>
	<g>
		<g>
			<g>
				<path class="st0" d="M9.7,21.2c0.1-0.1,0.1-0.1,0.1-0.1c0.1,0.3-0.1,0.5-0.1,0.9c0,0.1-0.1,0.1-0.1,0.1
					c-0.1,0.3-0.1,0.6-0.1,0.9c-0.1,0.2-0.1,0.4-0.1,0.6c0,0.1,0.1,0.3-0.1,0.5c0.1,0.6-0.1,1.1-0.1,1.6c0,0.4-0.1,0.8-0.1,1.2
					c-0.1,0.3-0.1,0.5-0.1,0.8c0,0.2-0.1,0.3-0.1,0.5s0.1,0.5,0,0.6C8.9,29.1,9,29.3,9,29.5c-0.1,0.2-0.1,0.3-0.1,0.5
					c-0.1,0.1,0,0.3-0.1,0.5c-0.1,0.3,0,0.5-0.1,0.8c-0.1,0.3,0,0.7-0.1,0.9c-0.1,0.3-0.1,0.6-0.1,0.9c-0.1,0.3-0.1,0.5-0.1,0.8
					c-0.1,0.3,0,0.7-0.1,0.9c-0.1,0.3,0,0.7-0.1,0.9c-0.1,0.3,0,0.7-0.1,0.9c-0.1,0.4-0.1,0.7-0.1,1.1c-0.1,0.3,0,0.7-0.1,1
					c-0.1,0.3,0,0.7-0.1,1c-0.1,0.4,0,0.7-0.1,1.1C7.9,41.1,8,41.5,7.9,42c-0.1,0.3,0,0.6-0.1,0.9c-0.1,0.5,0,0.9-0.1,1.2
					c-0.1,0.4,0,0.8-0.1,1.1c-0.1,0.5,0,0.9-0.1,1.2c-0.1,0.5,0,0.9-0.1,1.3c-0.1,0.5,0,0.9-0.1,1.3c-0.1,0.5,0,0.9-0.1,1.4
					c-0.1,0.5,0,1-0.1,1.4c-0.1,0.5,0,0.9-0.1,1.4c-0.1,0.5,0,1-0.1,1.5C7,55.3,7,55.7,7,56.2C7,56.3,7,56.4,6.9,56.4
					c0,0.1,0,0.2,0.1,0.3c0.1-0.5,0.3-1.1,0.5-1.6c0.3-0.7,0.5-1.2,0.8-1.9c0.3-0.6,0.6-1.2,0.8-1.8c0.4-0.5,0.5-1.1,0.9-1.5
					c0.3-0.5,0.5-0.9,0.8-1.3c0.1-0.2,0.3-0.4,0.4-0.6c0.3-0.3,0.5-0.7,0.9-1c0.5-0.3,0.7-0.3,1.2-0.2c0.2,0.1,0.4,0,0.5,0.1
					c0.6,0.3,1,0.7,1.1,1.3c0.1,0.3,0.1,0.5,0.2,0.8c0.1,0.5,0.1,0.9,0.1,1.4c0,1.2,0,2.4,0,3.6c0,0.1,0,0.3,0,0.4
					c0.5-0.8,1-1.5,1.5-2.2c0.4-0.6,0.9-1.1,1.2-1.7c0.3-0.5,0.6-0.8,0.9-1.2c0.3-0.5,0.7-0.9,1.1-1.4c0.1-0.2,0.3-0.4,0.5-0.6
					c0.1-0.1,0.2-0.3,0.3-0.4c0.1-0.1,0.2-0.2,0.3-0.4c0.1-0.1,0.2-0.2,0.3-0.3c0.1-0.1,0.3-0.1,0.5-0.1c0.3,0,0.6,0.1,0.8,0.3
					c0.1,0.1,0.1,0.1,0.1,0.2c0,0.1-0.1,0.3-0.1,0.4c0,0,0,0-0.1,0.1c-0.3,0.2-0.5,0.5-0.8,0.9c-0.3,0.4-0.6,0.8-0.9,1.2
					c-0.4,0.5-0.8,1.1-1.1,1.6c-0.5,0.7-0.9,1.3-1.2,2c-0.3,0.5-0.6,0.9-0.9,1.2c-0.3,0.5-0.7,1.1-1,1.6C16.3,56,16,56.6,15.7,57
					c-0.2,0.3-0.4,0.5-0.5,0.5c-0.3,0.1-0.3,0.1-0.6-0.1c-0.2-0.1-0.4-0.2-0.7-0.3c-0.3-0.1-0.6-0.5-0.7-0.8
					c-0.1-0.3-0.1-0.5-0.1-0.8c0-0.9,0-1.7,0-2.6c0-0.6,0.1-1.2,0.1-1.8c0-0.7,0-1.2,0-1.9c0.1-0.4-0.1-0.8-0.1-1.2
					c-0.3,0.2-0.6,0.5-0.8,0.7c-0.3,0.5-0.7,0.9-0.9,1.2c-0.1,0.2-0.3,0.4-0.4,0.6c-0.3,0.6-0.7,1.2-0.9,1.8c-0.3,0.8-0.7,1.6-1,2.4
					c-0.4,0.9-0.7,2-1.1,3c-0.2,0.5-0.3,1-0.5,1.4c-0.1,0.6-0.3,1.1-0.5,1.7C7.2,61.3,7.1,61.6,7,62c-0.1,0.3-0.1,0.5-0.2,0.8
					c-0.1,0.4-0.3,0.7-0.3,1.1c0,0.1-0.1,0.1-0.1,0.2c-0.2,0.3-0.3,0.2-0.5-0.1c-0.1,0-0.1,0.1-0.2,0.1c-0.2-0.1-0.4-0.3-0.6-0.3
					c-0.3-0.2-0.4-0.4-0.3-0.7c0-0.6-0.1-1.1,0-1.7c0.1-0.7,0-1.4,0.1-2.1c0.1-0.5,0.1-1,0.1-1.5c0-0.3,0.1-0.6,0.1-0.9
					c-0.1-0.3-0.1-0.6,0-0.9c0.1-0.5,0-0.9,0.1-1.2c0-0.3,0.1-0.6,0.1-0.9c0-0.3-0.1-0.6,0-0.8c0.1-0.4,0-0.8,0.1-1.2
					c0.1-0.5,0.1-1.1,0.1-1.6c0.1-0.3,0-0.7,0.1-1.1c0.1-0.5,0-1,0.1-1.4c0.1-0.3,0-0.7,0.1-1.1c0.1-0.4,0.1-0.8,0.1-1.2
					c0.1-0.3,0-0.7,0.1-1.1c0.1-0.4,0-0.8,0.1-1.2c0.1-0.3,0.1-0.6,0.1-0.9c0.1-0.4,0.1-0.8,0.1-1.2c0.1-0.2,0-0.5,0.1-0.8
					c0-0.1,0.1-0.3,0.1-0.5c0-0.2-0.1-0.4,0-0.6c0.1-0.2,0.1-0.5,0.1-0.7c0-0.4,0.1-0.7,0.1-1.1c0.1-0.3,0-0.5,0.1-0.8
					c0-0.2,0.1-0.4,0.1-0.6c0-0.2-0.1-0.4,0.1-0.5c0-0.1,0-0.1,0-0.1c0.1-0.5,0.1-0.9,0.1-1.2c0-0.2,0.1-0.4,0.1-0.6
					c0-0.1-0.1-0.3,0.1-0.5v-0.1c0.1-0.4,0-0.7,0.1-1.1c0-0.2,0-0.5,0.1-0.7c0-0.3,0.1-0.5,0.1-0.7s0.1-0.3,0.1-0.5
					c0-0.2,0-0.3,0.1-0.5c0.1-0.1,0-0.4,0.1-0.5c0.1-0.2,0-0.5,0.1-0.7c0-0.1,0.1-0.3,0.1-0.5c0-0.1,0-0.3,0.1-0.4c0,0,0-0.1,0-0.1
					c0.1-0.3,0-0.7,0.1-1.1c0.1-0.3,0-0.7,0.1-1c0.1-0.3,0.1-0.7,0.1-1c0-0.1,0.1-0.3,0.1-0.5C8,23.9,7.8,23.8,8,23.7v-0.1
					c0-0.2-0.1-0.3,0.1-0.5c0.1-0.1,0.1-0.3,0.1-0.5c0.1-0.3,0.1-0.7,0.3-1c0.1-0.3,0.2-0.5,0.5-0.7c0.3,0,0.6-0.1,0.9,0.1
					C9.7,21.1,9.7,21.1,9.7,21.2z"/>
				<path class="st0" d="M25.5,50.4c-0.1,0.3-0.3,0.5-0.5,0.8c-0.4,0.7-0.8,1.3-1.2,1.9c-0.3,0.4-0.6,0.7-0.9,1.1
					c-0.3,0.3-0.6,0.4-1,0.3c0,0-0.1,0.1-0.1,0c-0.5-0.3-1.2-0.4-1.6-0.9c-0.2-0.3-0.3-0.7-0.4-1c-0.1-0.7-0.1-1.3-0.1-2
					c0-0.5,0.1-1,0.3-1.5c0.1-0.3,0.2-0.7,0.3-1c0.3-0.6,0.5-1.2,0.9-1.8c0.3-0.6,0.7-1.1,0.9-1.6c0.4-0.3,0.7-0.8,1.1-1.1
					c0.3-0.1,0.5-0.4,0.9-0.5c0.5-0.3,1-0.3,1.5-0.3c0.3,0.1,0.7,0.1,1,0.3c0.5,0.3,0.9,0.6,1.2,1.1c0.1,0.1,0.1,0.3,0.2,0.4
					c0.1,0.1,0.1,0.3,0.1,0.5c0,0.1-0.2,0.2-0.3,0.1c-0.3-0.1-0.5-0.2-0.7-0.3c-0.2-0.2-0.3-0.3-0.5-0.6c-0.1-0.1-0.3-0.3-0.6-0.3
					c-0.2,0-0.4,0-0.5,0.1c-0.3,0.1-0.5,0.3-0.7,0.5c-0.3,0.2-0.5,0.5-0.8,0.7c-0.3,0.4-0.6,0.8-0.8,1.2C23.2,46.6,23,46.8,23,47
					c-0.3,0.7-0.7,1.4-0.9,2.2c-0.1,0.5-0.3,0.9-0.3,1.4c-0.1,0.2,0,0.5-0.1,0.7c-0.1,0.4-0.1,0.7-0.1,1.1c0,0.1,0.1,0.1,0.1,0.3
					c0.5-0.4,0.8-0.9,1.1-1.3c0.4-0.6,0.7-1.2,1.1-1.8c0.3-0.6,0.7-1.2,1.1-1.8c0.3-0.4,0.5-0.9,0.7-1.3c0.2-0.4,0.4-0.7,0.6-1.1
					c0.2-0.3,0.5-0.3,0.7-0.3c0.2,0,0.5,0.1,0.7,0.1c0.1,0.1,0.3,0.1,0.4,0.2c0.1,0.1,0.1,0.2,0.3,0.3c0.1,0,0.1,0.1,0.1,0.2
					c0.1,0.2,0.1,0.3,0.1,0.5c0,1.4,0,2.8,0,4.2c-0.1,0.6-0.1,1.1-0.1,1.6c0,0.5,0,1.1,0,1.6c0,0.5,0.1,1,0.2,1.5
					c0,0.1,0.1,0.1,0.1,0.2c0.2-0.2,0.4-0.3,0.7-0.5c0.1-0.1,0.3-0.3,0.4-0.4c0.3-0.3,0.6-0.7,0.9-1c0.2-0.3,0.4-0.5,0.6-0.8
					c0.9-1.2,1.6-2.5,2.5-3.7c0.2-0.3,0.5-0.7,0.8-1.1c0.3-0.5,0.7-1,1.1-1.5c0.1-0.2,0.3-0.3,0.4-0.5c0.1-0.2,0.3-0.2,0.5-0.3
					c0.3,0.1,0.6,0,0.8,0.3c0.1,0.2,0.1,0.2,0.1,0.5c-0.2,0.3-0.3,0.5-0.5,0.7c-0.3,0.4-0.5,0.8-0.7,1.2c-0.1,0.2-0.3,0.4-0.4,0.6
					c-0.3,0.5-0.6,0.9-0.9,1.4c-0.3,0.5-0.6,0.9-0.9,1.4c-0.5,0.7-0.9,1.4-1.3,2c-0.3,0.6-0.8,1.2-1.1,1.7c-0.1,0.2-0.3,0.3-0.5,0.5
					c-0.3,0.3-0.7,0.7-1.2,0.9c-0.2,0.1-0.4,0.1-0.6,0.2s-0.4,0-0.6,0c-0.1,0-0.2-0.1-0.3-0.1c-0.2-0.1-0.4-0.2-0.6-0.3
					c-0.5-0.1-0.9-0.4-1.1-0.8c-0.3-0.5-0.5-0.9-0.7-1.4c-0.1-0.3-0.1-0.7-0.1-1.1c0-0.4,0-0.8,0-1.1c0-1.1,0-2.2,0-3.3
					c0-0.1,0-0.1,0-0.2C26,49.6,25.8,50,25.5,50.4z"/>
				<path class="st0" d="M55.4,46.4v0.5c-0.3,0.3-0.6,0.4-0.9,0.5c-0.7,0.3-1.4,0.6-2.1,0.9c-0.5,0.3-1.2,0.5-1.7,0.7
					c-0.7,0.3-1.4,0.6-2.1,1c-0.3,0.1-0.5,0.3-0.9,0.4c-0.3,0.1-0.5,0.3-0.8,0.4c-0.6,0.3-1.1,0.6-1.6,0.9c-0.3,0.2-0.7,0.4-1,0.6
					c-0.2,0.1-0.3,0.3-0.4,0.5c-0.3,0.5-0.7,1.1-1.1,1.6c-0.4,0.5-0.9,1.1-1.4,1.5c-0.5,0.5-0.9,0.9-1.4,1.2
					c-0.3,0.2-0.6,0.4-0.9,0.5c-0.3,0.1-0.5,0.2-0.7,0.2c-0.1,0-0.1,0-0.1-0.1c-0.3-0.2-0.7-0.3-1-0.5c-0.3-0.3-0.3-0.5-0.1-0.9
					c0.1-0.1,0.1-0.3,0.3-0.4c0.3-0.3,0.5-0.7,0.9-0.9c0.3-0.3,0.7-0.6,1.1-0.9c0.3-0.3,0.7-0.7,1.1-0.9c0.6-0.5,1.2-1,1.8-1.4
					c0.1-0.1,0.1-0.1,0.2-0.2c0.3-0.5,0.5-1.1,0.7-1.6c0.2-0.5,0.4-1,0.4-1.5c0.1-0.3,0.1-0.7,0.1-0.9c0-0.2,0.1-0.5-0.1-0.7
					c-0.1-0.2,0.1-0.4-0.1-0.6c0-0.5-0.2-0.9-0.4-1.3c-0.2-0.3-0.4-0.7-0.7-0.9c-0.2-0.1-0.4-0.2-0.6-0.2c-0.3,0-0.7,0-1,0.1
					c-0.3,0.1-0.5,0.1-0.7,0.3c-0.5,0.3-1.1,0.6-1.6,1c-0.3,0.3-0.6,0.7-0.9,0.9c-0.4,0.4-0.6,0.9-0.9,1.3c0,0.1-0.1,0.2-0.1,0.3
					c0,0.9-0.1,1.8-0.1,2.7c0.1,0.9,0,1.7,0,2.6c-0.1,0.9-0.1,1.8-0.1,2.6c0,0.9-0.1,1.8-0.1,2.6c0.1,1.2-0.1,2.4-0.1,3.6
					c-0.1,1.2-0.1,2.4-0.1,3.6L36,69.2c0,1.2-0.1,2.4-0.1,3.6c0,0.8-0.1,1.6-0.1,2.4c0,0.9-0.1,1.6-0.1,2.4c0,0.4-0.1,0.7-0.1,1.1
					c0,0.4,0,0.7-0.1,1.1c0,0.2-0.1,0.3-0.1,0.5c-0.1,0.1-0.3,0.1-0.5,0.1C35,80.2,34.9,80,34.7,80h-0.1c0-0.1-0.1-0.1-0.1-0.1
					c-0.3-0.5-0.3-1.2-0.3-1.8V78c0.1-0.4,0.1-0.8,0.1-1.2c-0.1-1.2,0.1-2.6,0.1-3.8c-0.1-0.5,0-1,0-1.5c0-0.5,0.1-1,0-1.5
					c-0.1-0.9,0.1-1.8,0.1-2.6c-0.1-0.8,0.1-1.6,0-2.4c-0.1-0.5,0-1.1,0-1.7c0-0.6,0.1-1.2,0-1.7c-0.1-1.1,0.1-2.1,0.1-3.2
					c0.1-1.1,0.1-2.1,0.1-3.2c-0.1-1.1,0-2,0.1-3.1c0-1.1,0.1-2.1,0.1-3.1l0.3-6.3c0.1-1.1,0.1-2,0.1-3.1c0-0.5,0.1-0.9,0.1-1.4
					c0-0.5,0-1,0.1-1.4c0.1-0.4,0.1-0.9,0.1-1.3c0-0.3,0.1-0.6,0.2-0.9c0-0.1,0.1-0.1,0.2-0.2c0.3,0,0.7,0,0.9,0.3
					c0.1,0,0.1,0.1,0.1,0.1c0,0,0,0,0.1,0c0,0.3,0,0.5,0.1,0.7c0.1,0.1,0,0.3-0.1,0.5C37,36,36.8,36.1,37,36.2c0.1,0.1,0,0.2,0,0.3
					c0,1.3-0.1,2.6-0.1,3.8c0.1,1.5-0.1,3-0.1,4.5V45c0.1-0.1,0.3-0.3,0.4-0.4c0.3-0.4,0.8-0.7,1.2-1c0.4-0.3,0.9-0.5,1.4-0.7
					c0-0.1,0.1-0.1,0.1-0.1c0.4-0.1,0.8-0.2,1.2-0.2c0.7,0.1,1.2,0.1,1.8,0.5c0.3,0.1,0.5,0.3,0.7,0.5c0.5,0.5,1.1,1.1,1.3,1.8
					c0.2,0.5,0.3,0.9,0.4,1.4c0,0.3,0,0.6,0,0.9c0,0.2,0.1,0.3,0.1,0.5c0,0.2-0.1,0.4-0.1,0.6c-0.1,0.1,0,0.3-0.1,0.5
					c-0.1,0.3,0,0.5-0.1,0.8c0.2-0.1,0.5-0.3,0.7-0.4c0.6-0.3,1.2-0.5,1.7-0.8c0.5-0.3,1.1-0.4,1.5-0.7c0.6-0.1,1.2-0.4,1.7-0.7
					c1.1-0.3,2-0.8,3-1.1c0.2-0.1,0.5-0.3,0.7-0.3C54.8,46,55.1,46,55.4,46.4z"/>
				<path class="st0" d="M73.2,46.4v0.5c-0.3,0.3-0.6,0.4-0.9,0.5c-0.7,0.3-1.4,0.6-2.1,0.9c-0.5,0.3-1.2,0.5-1.7,0.7
					c-0.7,0.3-1.4,0.6-2.1,1c-0.3,0.1-0.5,0.3-0.9,0.4c-0.3,0.1-0.5,0.3-0.8,0.4c-0.6,0.3-1.1,0.6-1.6,0.9c-0.3,0.2-0.7,0.4-1,0.6
					c-0.2,0.1-0.3,0.3-0.4,0.5c-0.3,0.5-0.7,1.1-1.1,1.6c-0.4,0.5-0.9,1.1-1.4,1.5c-0.5,0.5-0.9,0.9-1.4,1.2
					c-0.3,0.2-0.6,0.4-0.9,0.5c-0.3,0.1-0.5,0.2-0.7,0.2c-0.1,0-0.1,0-0.1-0.1c-0.3-0.2-0.7-0.3-1-0.5c-0.3-0.3-0.3-0.5-0.1-0.9
					c0.1-0.1,0.1-0.3,0.3-0.4c0.3-0.3,0.5-0.7,0.9-0.9c0.3-0.3,0.7-0.6,1.1-0.9c0.3-0.3,0.7-0.7,1.1-0.9c0.6-0.5,1.2-1,1.8-1.4
					c0.1-0.1,0.1-0.1,0.2-0.2c0.3-0.5,0.5-1.1,0.7-1.6c0.2-0.5,0.4-1,0.4-1.5c0.1-0.3,0.1-0.7,0.1-0.9c0-0.2,0.1-0.5-0.1-0.7
					c-0.1-0.2,0.1-0.4-0.1-0.6c0-0.5-0.2-0.9-0.4-1.3c-0.2-0.3-0.4-0.7-0.7-0.9c-0.2-0.1-0.4-0.2-0.6-0.2c-0.3,0-0.7,0-1,0.1
					c-0.3,0.1-0.5,0.1-0.7,0.3c-0.5,0.3-1.1,0.6-1.6,1c-0.3,0.3-0.6,0.7-0.9,0.9c-0.4,0.4-0.6,0.9-0.9,1.3c0,0.1-0.1,0.2-0.1,0.3
					c0,0.9-0.1,1.8-0.1,2.7c0.1,0.9,0,1.7,0,2.6c-0.1,0.9-0.1,1.8-0.1,2.6c0,0.9-0.1,1.8-0.1,2.6c0.1,1.2-0.1,2.4-0.1,3.6
					c-0.1,1.2-0.1,2.4-0.1,3.6l-0.2,3.7c0,1.2-0.1,2.4-0.1,3.6c0,0.8-0.1,1.6-0.1,2.4c0,0.9-0.1,1.6-0.1,2.4c0,0.4-0.1,0.7-0.1,1.1
					c0,0.4,0,0.7-0.1,1.1c0,0.2-0.1,0.3-0.1,0.5c-0.1,0.1-0.3,0.1-0.5,0.1c-0.1-0.1-0.3-0.2-0.5-0.3h-0.1c0-0.1-0.1-0.1-0.1-0.1
					c-0.3-0.5-0.3-1.2-0.3-1.8V78c0.1-0.4,0.1-0.8,0.1-1.2c-0.1-1.2,0.1-2.6,0.1-3.8c-0.1-0.5,0-1,0-1.5c0-0.5,0.1-1,0-1.5
					c-0.1-0.9,0.1-1.8,0.1-2.6c-0.1-0.8,0.1-1.6,0-2.4c-0.1-0.5,0-1.1,0-1.7c0-0.6,0.1-1.2,0-1.7c-0.1-1.1,0.1-2.1,0.1-3.2
					c0.1-1.1,0.1-2.1,0.1-3.2c-0.1-1.1,0-2,0.1-3.1c0-1.1,0.1-2.1,0.1-3.1l0.3-6.3c0.1-1.1,0.1-2,0.1-3.1c0-0.5,0.1-0.9,0.1-1.4
					c0-0.5,0-1,0.1-1.4c0.1-0.4,0.1-0.9,0.1-1.3c0-0.3,0.1-0.6,0.2-0.9c0-0.1,0.1-0.1,0.2-0.2c0.3,0,0.7,0,0.9,0.3
					c0.1,0,0.1,0.1,0.1,0.1c0,0,0,0,0.1,0c0,0.3,0,0.5,0.1,0.7c0.1,0.1,0,0.3-0.1,0.5c-0.1,0.1-0.2,0.1-0.1,0.3c0.1,0.1,0,0.2,0,0.3
					c0,1.3-0.1,2.6-0.1,3.8c0.1,1.5-0.1,3-0.1,4.5V45c0.1-0.1,0.3-0.3,0.4-0.4c0.3-0.4,0.8-0.7,1.2-1c0.4-0.3,0.9-0.5,1.4-0.7
					c0-0.1,0.1-0.1,0.1-0.1c0.4-0.1,0.8-0.2,1.2-0.2c0.7,0.1,1.2,0.1,1.8,0.5c0.3,0.1,0.5,0.3,0.7,0.5c0.5,0.5,1.1,1.1,1.3,1.8
					c0.2,0.5,0.3,0.9,0.4,1.4c0,0.3,0,0.6,0,0.9c0,0.2,0.1,0.3,0.1,0.5c0,0.2-0.1,0.4-0.1,0.6c-0.1,0.1,0,0.3-0.1,0.5
					c-0.1,0.3,0,0.5-0.1,0.8c0.2-0.1,0.5-0.3,0.7-0.4c0.6-0.3,1.2-0.5,1.7-0.8c0.5-0.3,1.1-0.4,1.5-0.7c0.6-0.1,1.2-0.4,1.7-0.7
					c1.1-0.3,2-0.8,3-1.1c0.2-0.1,0.5-0.3,0.7-0.3C72.6,46,72.9,46,73.2,46.4z"/>
				<path class="st0" d="M80.1,45.4c-0.3,0.4-0.5,0.7-0.8,1.1c-0.3,0.4-0.5,0.7-0.7,1c-0.3,0.4-0.5,0.8-0.8,1.2
					c-0.3,0.3-0.5,0.7-0.8,1.1c-0.2,0.2-0.4,0.5-0.6,0.7c-0.1,0.1-0.3,0.3-0.3,0.5c-0.3,0.4-0.8,0.7-1.2,0.9
					C74.8,52,74.6,52,74.4,52c-0.3,0.1-0.5,0-0.7-0.1c-0.4-0.3-0.9-0.3-1.1-0.7c-0.1,0-0.1,0-0.2-0.1c-0.1-0.1-0.2-0.3-0.3-0.4
					c-0.3-0.4-0.4-1-0.5-1.4c-0.1-0.3,0-0.5-0.1-0.7c-0.1-0.3,0-0.5-0.1-0.7c-0.1-0.6-0.1-1.2-0.1-1.8c0-0.6,0-1.2,0-1.8
					c0-0.5,0.1-0.9,0.1-1.4c0.1-0.3,0.1-0.5,0.1-0.8c0-0.2,0.1-0.4,0.1-0.6c0-0.1,0-0.3,0.1-0.5c0.1-0.2,0.1-0.4,0.1-0.5
					c0.1-0.3,0.1-0.3,0.3-0.5c0.5-0.1,0.9,0.1,1.2,0.5c-0.1,0.1,0.1,0.3-0.1,0.4c-0.1,0.1-0.1,0.1-0.1,0.2c0,0.6,0,1.2,0,1.9
					c0,0.6-0.1,1.2-0.1,1.8c0,0.7,0,1.4,0,2c-0.1,0.6,0.1,1.1,0.1,1.7c0,0.3,0.1,0.6,0.1,0.9c0.1,0.3,0.2,0.6,0.3,0.9
					c0,0.1,0.1,0.1,0.1,0.1c0.1-0.1,0.3-0.3,0.5-0.5c0.3-0.2,0.5-0.5,0.7-0.7c0.4-0.4,0.8-0.9,1.1-1.3c0.2-0.3,0.5-0.6,0.7-0.9
					c0.3-0.5,0.7-0.9,1-1.4c0.3-0.4,0.7-0.9,0.9-1.2c0.7-1,1.4-2,2-2.9c0.2-0.3,0.5-0.6,0.7-0.9c0.1-0.2,0.3-0.2,0.5-0.3
					c0.3,0,0.5,0.1,0.8,0.1c0.1,0.1,0.3,0.1,0.5,0.3c0.5,0.5,0.6,0.5,0.6,1.4c0,0.5,0,1.1,0,1.6c0,0.2-0.1,0.5-0.1,0.7
					c-0.1,0.3,0,0.5-0.1,0.7c-0.1,0.3,0,0.6-0.1,0.9c0,0.2-0.1,0.3-0.1,0.5c0,0.2,0.1,0.4-0.1,0.6c0.1,0.5-0.1,0.9-0.1,1.2
					c0,0.2-0.1,0.4-0.1,0.6c-0.1,0.2,0.1,0.4-0.1,0.5c0,0.1,0,0.1,0,0.1c0,0.4-0.1,0.9-0.1,1.2c0,0.2-0.1,0.4-0.1,0.6
					c0.1,0.2,0.1,0.5-0.1,0.6v0.1c0,0.5-0.1,0.9-0.1,1.3c0,0.2-0.1,0.4-0.1,0.5c0,0.2,0.1,0.5,0,0.6c-0.1,0.3,0,0.6-0.1,0.9
					c-0.1,0.3,0,0.7-0.1,1.1c-0.1,0.3,0,0.7-0.1,0.9c0,0.3-0.1,0.5-0.1,0.7c0,0.2,0.1,0.5-0.1,0.7c-0.1,0,0,0.1,0,0.1
					c0.1,0.5-0.1,1.1-0.1,1.6c0,0.5-0.1,1-0.1,1.4c-0.2,0.3-0.1,0.7-0.1,1.1c0,0.2-0.1,0.5-0.1,0.7c0,0.3,0.1,0.5,0,0.7
					c-0.1,0.3-0.1,0.6-0.1,0.9c-0.1,0.3-0.1,0.5-0.1,0.7c0,0.3,0.1,0.5,0,0.7c-0.1,0.4-0.1,0.7-0.1,1.1c0,0.2-0.1,0.3-0.1,0.5
					c-0.1,0.2,0,0.4-0.1,0.5c-0.1,0.3,0,0.6-0.1,0.9c-0.1,0.4,0,0.8-0.1,1.1c-0.1,0.3-0.1,0.7-0.1,1.1c-0.1,0.4,0,0.9-0.1,1.2
					c-0.1,0.4,0,0.7-0.1,1.1c-0.1,0.5-0.1,0.9-0.1,1.4c-0.1,0.4-0.1,0.7-0.1,1.1c0,0.2-0.1,0.5-0.1,0.7c-0.1,0.3,0,0.5-0.1,0.7
					c-0.1,0.3,0,0.7-0.1,1c-0.1,0.3,0,0.7-0.1,1.1c-0.1,0.5-0.1,0.9-0.2,1.3c-0.1,0.3-0.1,0.5-0.2,0.7c-0.1,0.1-0.3,0.2-0.4,0.1
					c-0.2-0.3-0.5-0.3-0.8-0.4c-0.1-0.1-0.3-0.2-0.4-0.3c-0.1-0.2-0.1-0.4-0.1-0.6c0.1-0.1,0.1-0.1,0.1-0.1c0-0.5,0.1-0.9,0.1-1.3
					c0-0.7,0.1-1.3,0.1-2c0.2-0.4,0.1-0.7,0.1-1.1c0.1-0.5,0-1,0.1-1.5c0.1-0.4,0-0.9,0.1-1.3c0.1-0.6,0-1.2,0.1-1.8
					c0.1-0.7,0-1.4,0.1-2.1c0.1-0.9,0.1-1.8,0.1-2.7c0.1-0.3,0.2-0.7,0.1-1.1c0-0.4-0.1-0.8,0-1.1c0.1-0.6,0-1.1,0.1-1.6
					c0.1-0.5,0.1-1.1,0.1-1.6c0.1-0.4,0-0.9,0.1-1.2c0.1-0.5,0-0.9,0.1-1.3c0.1-0.3,0.1-0.7,0.1-1.1c0-0.2,0.1-0.4,0.1-0.6
					c0-0.2-0.1-0.4,0-0.6c0.1-0.3,0.1-0.7,0.1-0.9c0.1-0.4,0-0.7,0.1-1.1c0.1-0.3,0.1-0.5,0.1-0.8c0.1-0.2,0.1-0.4,0.1-0.6
					c-0.1-0.2-0.1-0.5,0.1-0.6c0-0.1,0-0.1,0-0.1c0-0.5,0.1-0.9,0.1-1.3c0.1-0.2,0.1-0.4,0.1-0.6c-0.1-0.2,0-0.3,0.1-0.5
					c0.1-0.4,0.1-0.8,0.1-1.1c0-0.2,0-0.4,0.1-0.6c0-0.1-0.1-0.3,0.1-0.5c0,0,0,0,0-0.1c-0.1-0.3,0.1-0.7,0.1-1
					c0-0.2,0.1-0.3,0.1-0.5c0.1-0.1,0-0.3,0.1-0.5c0.1-0.1,0-0.4,0.1-0.5c0.1-0.2,0-0.4,0.1-0.6c0-0.2,0.1-0.4,0.1-0.6
					c0-0.1,0-0.1,0-0.3C80.8,44.4,80.5,44.9,80.1,45.4z"/>
				<path class="st0" d="M105.4,50.6c-0.2,0.5-0.5,1.1-0.7,1.6c-0.5,0.8-1,1.5-1.7,2.2c-0.4,0.3-0.9,0.5-1.3,0.4
					c-0.1,0-0.2-0.1-0.3-0.1c-0.4-0.3-0.9-0.4-1.2-0.7c-0.3-0.3-0.5-0.6-0.6-1c-0.1-0.4-0.2-0.8-0.3-1.2c-0.1-0.2,0-0.4,0-0.6
					c0-0.1,0.1-0.3-0.1-0.5v-0.1c0.1-0.1,0.1-0.3,0.1-0.5c-0.1-0.4,0-0.9,0.1-1.2c0.1-0.4,0.1-0.9,0.3-1.3c0.1-0.3,0.3-0.7,0.3-1.1
					c0.1-0.4,0.2-0.7,0.4-1.1c0.2-0.5,0.4-0.9,0.7-1.3c0.3-0.5,0.6-0.8,0.9-1.2c0.3-0.4,0.9-0.7,1.2-1.1c0.4-0.1,0.7-0.3,1.1-0.5
					c0.3-0.1,0.6-0.1,0.9-0.1c0.4,0.1,0.9,0.2,1.1,0.5c0.1,0.1,0.2,0.1,0.3,0.3c0.2,0.2,0.3,0.4,0.3,0.7c0,0.2,0,0.3,0,0.5
					c0.1,0.1,0,0.3-0.1,0.5c-0.3-0.1-0.7-0.3-0.9-0.5c-0.1-0.1-0.1-0.3-0.1-0.4c-0.1-0.1-0.1-0.2-0.1-0.3c-0.5,0.1-0.9,0.3-1.2,0.5
					c-0.3,0.2-0.5,0.4-0.8,0.7c-0.5,0.6-0.9,1.2-1.2,1.9c-0.3,0.7-0.5,1.4-0.8,2c-0.1,0.4-0.3,0.8-0.3,1.2c-0.1,0.1,0,0.3-0.1,0.5
					c-0.1,0.2-0.1,0.3-0.1,0.5c-0.2,0.7-0.1,1.4-0.1,2.1c-0.1,0.4,0.1,0.8,0.2,1.2c0.1,0.1,0.2,0.2,0.3,0.1c0.2-0.1,0.4-0.2,0.5-0.4
					c0.5-0.4,0.8-0.9,1.1-1.4c0.3-0.4,0.4-0.7,0.6-1.1c0.2-0.3,0.4-0.7,0.5-1.1c0.2-0.5,0.4-0.9,0.6-1.4c0.3-0.9,0.7-1.9,1-2.8
					c0-0.1,0.1-0.3,0.2-0.4c0.3,0,0.7-0.1,0.9,0.1c0.1,0,0.1,0.1,0.2,0.1c0.5,0.3,0.7,0.6,0.8,1.1c0.1,0.6,0.1,1.1,0.2,1.7
					c0.1,0.5,0.1,1.1,0.1,1.6c0,1.2,0,2.5,0,3.7c0,0.1,0,0.3,0,0.5c0.5-0.8,1-1.4,1.5-2.1c0.3-0.4,0.6-0.8,0.9-1.1
					c0.4-0.5,0.9-1.1,1.2-1.6c0.3-0.3,0.6-0.7,0.9-1.1c0.3-0.3,0.6-0.7,0.9-1.1c0.2-0.3,0.7-0.3,1-0.2c0.4,0.1,0.4,0.1,0.7,0.5
					c0,0.2-0.1,0.4-0.3,0.5c-0.2,0.1-0.3,0.3-0.4,0.4c-0.1,0.2-0.3,0.3-0.4,0.5c-0.5,0.7-1,1.2-1.4,1.9c-0.4,0.5-0.8,1.1-1.2,1.6
					c-0.3,0.5-0.6,0.8-0.9,1.2c-0.3,0.5-0.7,1-1,1.4c-0.3,0.5-0.7,1-1,1.4c-0.2,0.3-0.3,0.5-0.5,0.8c-0.1,0.1-0.1,0.2-0.1,0.3
					c0,0.5-0.1,1.1-0.1,1.6c0.1,0.7-0.1,1.2-0.1,1.8c-0.1,0.3,0,0.7-0.1,1c-0.1,0.3-0.1,0.7-0.1,1c-0.1,0.2-0.1,0.5-0.1,0.7
					c-0.1,0.3,0,0.5-0.1,0.7c-0.1,0.3,0,0.7-0.1,1c-0.1,0.3-0.1,0.7-0.1,1c0,0.2,0,0.3-0.1,0.5c0,0.2,0.1,0.3-0.1,0.5
					c0,0.1,0,0.1,0,0.1c0,0.2,0,0.4-0.1,0.6c-0.1,0.1-0.1,0.3-0.1,0.5c-0.1,0.3-0.1,0.6-0.1,0.9c0,0.1-0.1,0.3-0.1,0.4
					c0,0.1,0,0.2-0.1,0.3c-0.1,0.2,0,0.4-0.1,0.6c-0.1,0.2-0.1,0.5-0.1,0.7c-0.1,0.2,0,0.4-0.1,0.6c0,0.4-0.1,0.7-0.2,1.1
					c-0.1,0.4-0.2,0.7-0.3,1.1c-0.1,0.5-0.3,0.9-0.4,1.4c-0.1,0.3-0.1,0.5-0.3,0.8c-0.1,0.2-0.2,0.5-0.3,0.7
					c-0.1,0.3-0.2,0.5-0.3,0.7c-0.3,0.6-0.5,1.3-1,1.9c-0.1,0.5-0.5,0.9-0.7,1.3c-0.3,0.5-0.8,1-1.2,1.4c-0.3,0.2-0.5,0.3-0.7,0.5
					c-0.4,0.2-0.8,0.3-1.2,0.1c-0.5-0.3-1.1-0.4-1.4-0.9c-0.3-0.3-0.5-0.7-0.6-1.1c-0.1-0.5-0.2-1.1-0.1-1.6c0-0.3,0-0.6,0-0.9
					c-0.1-0.2,0-0.3,0.1-0.5c0-0.2-0.1-0.4,0.1-0.5c0.1-0.2,0-0.4,0.1-0.6c0.1-0.1,0.1-0.4,0.1-0.6c0.1-0.1,0-0.3,0.1-0.5
					c0-0.6,0.3-1.1,0.3-1.6c0.2-0.5,0.3-1.1,0.5-1.6c0.1-0.5,0.3-0.9,0.5-1.4c0.1-0.4,0.3-0.8,0.5-1.2c0.2-0.4,0.3-0.8,0.5-1.2
					c0.2-0.4,0.4-0.9,0.6-1.2c0.3-0.5,0.4-1.1,0.7-1.6c0.5-0.9,0.9-1.8,1.2-2.7c0.3-0.5,0.5-0.9,0.7-1.4c0.3-0.5,0.5-0.9,0.7-1.3
					c0.3-0.6,0.6-1.2,0.9-1.8c0.2-0.3,0.4-0.7,0.7-1.1c0-0.1,0.1-0.2,0.1-0.3c0-0.9,0.1-1.8,0.1-2.7c-0.1-0.7-0.1-1.4,0-2
					c0.1-0.9,0-1.8,0.1-2.7c0-0.1,0-0.1,0-0.2c0,0-0.1,0-0.1-0.1C105.9,49.5,105.6,50.1,105.4,50.6z M101.1,79.3
					c0.3-0.5,0.6-1,0.9-1.5c0.4-0.6,0.5-1.2,0.9-1.8c0-0.3,0.3-0.7,0.3-1c0.1-0.3,0.3-0.7,0.3-1c0.2-0.6,0.3-1.1,0.5-1.6
					c0.1-0.4,0.3-0.7,0.3-1.1c0.2-0.2,0-0.4,0.1-0.6c0.1-0.1,0.1-0.4,0.1-0.6c0.1-0.2,0.1-0.3,0.1-0.6c0.2-0.1,0-0.3,0.1-0.5
					c0.1-0.2,0.1-0.4,0.1-0.6c0-0.4,0.1-0.8,0.1-1.2c0.1-0.2,0-0.4,0.1-0.6c0.1-0.2,0.1-0.4,0.1-0.7c0.1-0.2,0-0.4,0.1-0.7
					c0.1-0.2,0-0.5,0.1-0.7c0.1-0.3,0.1-0.7,0.1-1.1c0,0-0.1-0.1,0-0.1c0.1-0.1,0.1-0.3,0.1-0.5c0-0.1,0.1-0.3,0.1-0.5
					c0.1-0.5,0.1-0.9,0.1-1.2c0-0.1,0-0.1,0-0.1c0.2-0.1,0.1-0.3,0.1-0.5c-0.3,0.5-0.5,1-0.7,1.4c-0.2,0.5-0.5,0.9-0.7,1.4
					c-0.3,0.6-0.6,1.2-0.9,1.8c-0.3,0.7-0.6,1.4-0.9,2c-0.1,0.2-0.1,0.3-0.2,0.5c-0.2,0.6-0.5,1.2-0.7,1.8c-0.1,0.4-0.3,0.8-0.5,1.2
					c-0.3,0.7-0.5,1.4-0.7,2.2c-0.1,0.3-0.2,0.6-0.2,0.9c-0.1,0.4-0.3,0.8-0.3,1.2c-0.2,0.1-0.1,0.4-0.2,0.6c-0.1,0.1,0,0.4-0.1,0.5
					c-0.1,0.3-0.1,0.5-0.1,0.7c-0.1,0.3,0,0.5-0.1,0.7c0,0.2-0.1,0.4-0.1,0.7c0.1,0.4-0.1,0.9,0.1,1.3c0.1,0.3,0.1,0.6,0.2,0.9
					C100.4,80.3,100.8,79.9,101.1,79.3z"/>
				<path class="st0" d="M126.8,47.7c-0.6,0.2-1.2,0.5-1.8,0.7c-0.4,0.2-0.9,0.3-1.2,0.5c-0.5,0.2-1,0.4-1.4,0.5
					c-0.3,0.1-0.4,0.1-0.7,0.2c-0.1,0-0.3,0.1-0.2,0.3c0,0.4-0.2,0.7-0.3,1.1c0,0.3-0.1,0.5-0.2,0.8c-0.1,0.3-0.2,0.5-0.3,0.7
					c-0.1,0.3-0.4,0.7-0.5,1c-0.2,0.3-0.4,0.6-0.6,0.9c-0.3,0.3-0.5,0.6-0.7,0.8c-0.2,0.1-0.4,0.2-0.6,0.4c-0.3,0.3-0.8,0.3-1.1,0.5
					c-0.4-0.1-0.8,0.3-1.1,0c-0.7,0.1-1.2-0.4-1.8-0.6c-0.7-0.3-1.1-0.8-1.5-1.3c-0.1-0.3-0.3-0.5-0.4-0.7c-0.1-0.3-0.1-0.6-0.3-0.9
					c-0.1-0.3,0-0.5-0.1-0.9c-0.1-0.5,0-1.1-0.1-1.6c0-0.1,0.1-0.3,0.1-0.5c0-0.1-0.1-0.3,0.1-0.5c0-0.3,0.1-0.7,0.1-1
					c0.1-0.5,0.3-1,0.5-1.5c0.2-0.7,0.5-1.2,0.8-1.9c0.3-0.4,0.5-0.9,0.8-1.3c0.4-0.5,0.9-1.1,1.3-1.5c0.3-0.3,0.7-0.5,1.1-0.7
					c0.2-0.1,0.4,0,0.6-0.1c0.1-0.1,0.3-0.2,0.3-0.3c0.1,0,0.3,0,0.4,0c0.6,0,1.1,0.3,1.4,0.7c0.3,0.3,0.5,0.7,0.7,1.1
					c0.1,0.4,0.3,0.8,0.5,1.2c0.1,0.3,0.3,0.7,0.3,1.1c0.1,0.4,0.3,0.8,0.3,1.2c0.1,0.3,0.1,0.7,0.2,1c0.1,0.4,0.1,0.8,0.1,1.2
					c0.5-0.1,0.9-0.2,1.3-0.3c0.6-0.3,1.2-0.4,1.8-0.6c0.7-0.3,1.5-0.5,2.3-0.8c0.1-0.1,0.1-0.1,0.1-0.1c0.1,0,0.1,0,0.1,0
					c0.1-0.1,0.1-0.1,0.1-0.1c0.1,0,0.1,0,0.1-0.1c0.1,0,0.1,0,0.1,0h0.1h0.1c0.1,0,0.1,0,0.1,0c0.1,0,0.1,0,0.1,0c0,0,0,0,0.1,0
					c0,0,0,0,0.1,0c0.1,0.1,0.1,0.1,0.1,0.1c0.1,0,0.1,0,0.1,0.1h0.1v0.1c0,0,0,0.1,0.1,0.1v0.1c0,0,0,0,0,0.1v0.1
					c0,0.1,0,0.1,0,0.1c0,0.1,0,0.1,0,0.1h-0.1c0,0.1,0,0.1,0,0.1c-0.1,0-0.1,0.1-0.1,0.1s0,0.1,0,0.1c-0.1,0.1-0.1,0.1-0.1,0.1
					C127.6,47.4,127.2,47.5,126.8,47.7z M119.2,49.7c-0.9-0.1-1.6-0.5-2.4-0.9c-0.8-0.5-1.4-1.1-1.8-2c-0.2,0.7-0.5,1.2-0.6,1.8
					c-0.1,0.3-0.2,0.7-0.2,1c-0.1,0.3-0.2,0.7-0.1,1.1c0,0.3,0,0.5,0,0.8c0,0.3,0.1,0.7,0.1,1.1c0.1,0.1,0.1,0.3,0.2,0.5
					c0.1,0.4,0.3,0.7,0.5,1.1c0.1,0.2,0.3,0.3,0.5,0.3c0.5,0,0.9-0.2,1.2-0.4c0.4-0.3,0.9-0.6,1.2-1c0.4-0.5,0.7-1,0.9-1.5
					c0.1-0.3,0.3-0.6,0.4-0.9C119.1,50.3,119.3,50,119.2,49.7z M119.5,45.6c-0.1-0.2-0.1-0.5-0.1-0.7c-0.1-0.3-0.1-0.5-0.2-0.9
					c-0.2-0.5-0.4-1.1-0.6-1.6c0-0.1-0.1-0.1-0.2-0.1c-0.1,0.1-0.2,0.1-0.2-0.1c-0.3-0.1-0.6,0.1-0.8,0.3c-0.1,0.2-0.3,0.3-0.4,0.5
					c-0.2,0.2-0.4,0.5-0.5,0.9c0,0.3-0.1,0.5-0.2,0.7c-0.1,0.3-0.1,0.5-0.1,0.8c-0.1,0.1-0.1,0.4,0,0.5c0,0.2,0,0.3,0.1,0.5
					c0.1,0.3,0.2,0.6,0.4,0.9c0.3,0.3,0.5,0.6,0.9,0.9c0.4,0.2,0.8,0.5,1.2,0.5c0.1,0,0.1,0,0.2,0c0.4,0.1,0.6-0.1,0.6-0.5
					C119.5,47.2,119.6,46.4,119.5,45.6z"/>
				<path class="st0" d="M152.1,48.6c-0.2,0.5-0.6,1.1-0.7,1.6c-0.1,0.1-0.2,0.3-0.3,0.5c-0.2,0.5-0.5,1-0.7,1.5
					c-0.3,0.6-0.6,1.2-0.9,1.8c-0.5,1.2-1.1,2.3-1.6,3.5c-0.4,0.9-0.9,1.7-1.2,2.6c-0.4,0.9-0.9,1.7-1.2,2.6c-0.4,0.7-0.8,1.4-1.3,2
					c-0.3,0.4-0.7,0.7-1.1,0.9c-0.4,0.1-0.7,0.1-1,0c-0.3-0.2-0.7-0.3-0.9-0.5c-0.5-0.3-0.9-0.8-1.1-1.3c-0.1-0.2-0.1-0.5-0.2-0.7
					c-0.1-0.2-0.1-0.5-0.2-0.7c-0.1-0.2-0.1-0.4-0.1-0.6c-0.1-0.3-0.1-0.7-0.1-1.1c0-0.3-0.1-0.7-0.1-0.9c0-0.3,0.1-0.7,0-1
					c-0.1-0.5-0.1-1.1-0.1-1.5c-0.1-0.6-0.1-1.1,0-1.6c0.1-0.8,0-1.6,0.1-2.4c0-0.3,0.1-0.7,0.1-1c0-0.3-0.1-0.7,0-1
					c0.1-0.5,0-0.9,0.1-1.4c0.1-0.4,0-0.9,0.1-1.3c0.1-0.4,0-0.9,0.1-1.2c0.1-0.4,0-0.8,0.1-1.2c0.1-0.3,0-0.7,0.1-1.1
					c0.1-0.4,0-0.7,0.1-1.1c0.1-0.3,0.1-0.5,0.1-0.9c0.1-0.1,0.1-0.3,0.1-0.5c0-0.2-0.1-0.3,0-0.5c0.1-0.3,0.1-0.5,0.1-0.8
					c0-0.2,0.1-0.4,0.1-0.5c0.1-0.2,0-0.4,0.1-0.5c0-0.1,0-0.1,0-0.1c0-0.3,0-0.7,0.1-1.1c0-0.1,0.1-0.3,0.1-0.5
					c0-0.1,0-0.3,0.1-0.4c0.1-0.1,0-0.3,0.1-0.5c0.1-0.4,0.1-0.8,0.1-1.1c0.1-0.2,0-0.4,0.1-0.6c0.1-0.2,0-0.3,0.1-0.5
					c0.1-0.4,0.1-0.8,0.3-1.1c0.1-0.2,0-0.4,0.1-0.7c0.1-0.1,0.1-0.3,0.1-0.5c0-0.2,0.2-0.4,0.1-0.6c0.1-0.4,0.1-0.9,0.3-1.4
					c-0.1-0.2,0.1-0.5,0.1-0.7c0.1-0.2,0.1-0.4,0.1-0.7c0.1-0.6,0.3-1.2,0.5-1.9c0.1-0.3,0.1-0.7,0.3-1c0.1-0.3,0.1-0.7,0.3-0.9
					c0-0.5,0.3-0.9,0.3-1.3c0.2-0.6,0.4-1.1,0.6-1.6v-0.1c0.3-0.5,0.5-1.1,0.9-1.6c0.2-0.6,0.7-1,1.1-1.5c0.2-0.3,0.5-0.5,0.9-0.6
					c0.2-0.1,0.3-0.1,0.5,0c0.2,0.1,0.5,0,0.7,0.1c0.4,0.3,0.7,0.6,0.9,1.1c0.1,0.4,0.3,0.8,0.3,1.2c0.1,0.3,0.1,0.7,0.1,1.1
					c0.1,0.4,0,0.8,0,1.1c0,0.4,0,0.8,0,1.1c0,0.2-0.1,0.4-0.1,0.7c0,0.2,0.1,0.4,0,0.6c-0.1,0.4-0.1,0.9-0.2,1.2
					c0,0.2-0.1,0.3-0.1,0.5c0,0.2-0.1,0.3-0.1,0.6c0,0.1-0.1,0.3-0.1,0.5c-0.1,0.1,0,0.4-0.1,0.6c-0.1,0.2-0.1,0.5-0.1,0.7
					c-0.1,0.5-0.2,1.1-0.4,1.7c-0.1,0.3-0.1,0.6-0.2,0.9c-0.1,0.4-0.1,0.8-0.3,1.1c-0.1,0.4-0.2,0.8-0.3,1.2
					c-0.1,0.4-0.2,0.9-0.3,1.2c-0.2,0.5-0.3,1.1-0.5,1.6c-0.2,0.6-0.5,1.2-0.7,1.8c-0.1,0.5-0.5,1-0.5,1.5c-0.1,0.1-0.1,0.1-0.1,0.1
					c-0.1,0.3-0.3,0.7-0.5,1.1c-0.3,0.5-0.5,0.9-0.8,1.4c-0.3,0.5-0.5,1-0.9,1.4c-0.1,0.1-0.3,0.3-0.3,0.5c-0.3,0.3-0.5,0.6-0.8,0.8
					c-0.2,0.2-0.3,0.5-0.3,0.7c-0.1,0.7-0.1,1.3-0.1,2c-0.1,0.6-0.1,1.2-0.1,1.8c-0.2,0.5-0.1,1-0.1,1.4c0,0.5-0.1,0.9-0.1,1.4
					c0.1,0.5,0.1,0.9,0,1.4c-0.1,0.7-0.1,1.5-0.1,2.2c0,0.8-0.1,1.5,0,2.3c0.1,0.5,0.1,1,0.1,1.4c0.1,0.2,0.1,0.4,0.1,0.5
					c0,0.2-0.1,0.4,0.1,0.5c0.1,0.1,0,0.3,0,0.3c0,0.1,0.1,0.2,0.1,0.3c0.1,0.4,0.2,0.7,0.3,1.1c0.1-0.1,0.3-0.2,0.5-0.4
					c0.5-0.5,0.9-1.1,1.2-1.6c0.3-0.4,0.5-0.7,0.7-1.1c0.3-0.4,0.4-0.7,0.6-1.1c0.4-0.7,0.8-1.4,1.2-2.2c0.3-0.5,0.5-1,0.8-1.5
					c0.7-1.4,1.4-2.8,2.1-4.3c0.4-0.8,0.8-1.6,1.2-2.4c0.5-1.1,1-2,1.4-3c0.1-0.1,0.2-0.3,0.3-0.4c0.1-0.1,0.3,0.1,0.5,0.1
					c0.1,0,0.4,0,0.3,0.3c0,0,0,0,0.1,0c-0.1,0.1-0.1,0.1-0.1,0.2c0,0,0,0.1,0.1,0.1c0,0.1,0,0.1,0,0.1s0,0,0,0.1v0.1
					c-0.1,0.1-0.1,0.1-0.1,0.1c0,0.1,0,0.1,0,0.1v0.1c0,0.1,0,0.1,0,0.2C152.5,47.7,152.3,48.1,152.1,48.6z M142.2,44
					c-0.2,0.2-0.1,0.5-0.1,0.7c0.1-0.1,0.3-0.3,0.3-0.4c0.5-0.7,0.8-1.3,1.2-2c0.3-0.7,0.7-1.4,0.9-2.2c0.2-0.5,0.4-0.9,0.5-1.3
					c0.3-1,0.7-1.9,1-2.9c0.1-0.5,0.2-0.9,0.3-1.3c0.1-0.4,0.2-0.9,0.3-1.2c0.1-0.4,0.2-0.8,0.3-1.1c0.1-0.5,0.3-0.9,0.3-1.3
					c0.1-0.4,0.2-0.7,0.2-1.1c0.2-0.1,0-0.3,0.1-0.5c0.1-0.1,0-0.3,0.1-0.5c0.1-0.1,0-0.3,0.1-0.5c0.1-0.3,0.1-0.7,0.2-1.1
					c0-0.3,0.1-0.5,0.1-0.7c0-0.2,0-0.5,0.1-0.7c0-0.5,0.1-1.1,0.1-1.6c0-0.4,0.1-0.9-0.1-1.3c0.1-0.6-0.1-1.1-0.1-1.7
					c-0.1-0.1-0.1-0.4-0.3-0.5c-0.1,0.1-0.1,0.2-0.2,0.3c-0.3,0.4-0.6,0.8-0.8,1.2c-0.2,0.3-0.4,0.7-0.5,1.1
					c-0.1,0.3-0.3,0.7-0.4,1.1c-0.1,0.2-0.2,0.5-0.3,0.7c-0.1,0.3-0.2,0.5-0.3,0.8c-0.1,0.5-0.3,0.9-0.4,1.4
					c-0.1,0.4-0.2,0.8-0.3,1.2c-0.1,0.3-0.2,0.5-0.2,0.8c-0.1,0.4-0.3,0.7-0.2,1.1c-0.2,0.3-0.2,0.7-0.3,0.9
					c-0.1,0.4-0.2,0.7-0.2,1.1c-0.1,0.2,0,0.4-0.1,0.6c-0.1,0.3-0.1,0.7-0.3,1.1c-0.1,0.3,0,0.5-0.1,0.8c-0.1,0.2,0,0.4-0.1,0.5
					c-0.1,0.2,0,0.3-0.1,0.5c0,0.1-0.1,0.3-0.1,0.5c-0.1,0.3,0,0.5-0.1,0.8c0,0.2,0,0.3-0.1,0.5c0,0.2-0.1,0.3-0.1,0.5
					c0,0.3,0,0.7-0.1,1c0,0.2,0,0.3-0.1,0.5c0,0.2-0.1,0.3-0.1,0.5c0,0.4-0.1,0.7-0.1,1.1c0,0.1,0,0.1,0,0.1
					c-0.2,0.2-0.1,0.5-0.1,0.7c0,0.2-0.1,0.4-0.1,0.6C142.3,43,142.1,43.5,142.2,44L142.2,44z"/>
				<path class="st0" d="M167.3,47.9c-0.7,1.2-1.2,2.4-1.8,3.6c-0.5,0.9-0.9,1.9-1.4,2.8c-0.3,0.5-0.6,1.1-1.1,1.6
					c-0.2,0.2-0.4,0.3-0.7,0.3c-0.1,0.1-0.3,0-0.4-0.1c-0.2-0.2-0.5-0.2-0.7-0.3c-0.7-0.4-0.9-0.5-1.1-1.2c-0.1-0.3-0.2-0.7-0.2-1
					c0-0.1-0.1-0.3-0.1-0.5c0-0.1,0.1-0.3-0.1-0.5c-0.1,0,0,0,0-0.1c-0.1-0.4-0.1-0.9-0.1-1.2c0-0.7-0.1-1.4-0.1-2
					c0-0.7,0-1.4,0-2.1c0-0.3,0.1-0.5,0.1-0.7s0-0.5,0-0.8v-0.3c-0.4,0.8-0.8,1.5-1.2,2.2c-0.3,0.5-0.5,1.1-0.9,1.6
					c-0.1,0.1-0.1,0.3-0.3,0.5c-0.4,0.8-0.8,1.6-1.3,2.3c-0.2,0.5-0.5,0.9-0.8,1.4c-0.3,0.4-0.5,0.9-0.8,1.2c-0.3,0.4-0.6,0.7-0.9,1
					c-0.3,0.2-0.6,0.3-0.9,0.1c-0.5-0.2-0.9-0.4-1.2-0.7c-0.2-0.1-0.3-0.3-0.4-0.5c-0.1-0.3-0.3-0.6-0.4-1c-0.1-0.4-0.1-0.8-0.2-1.2
					c-0.1-0.5-0.1-1-0.1-1.4c0-0.5,0-1.1,0-1.6c0-0.2,0.1-0.4,0.1-0.6c0-0.2,0.1-0.4,0.1-0.6c0.1-0.3,0.1-0.7,0.1-0.9
					c0-0.1,0.1-0.3,0.1-0.3c0-0.2,0.1-0.4,0.1-0.6c0-0.2,0.1-0.4,0.1-0.6c0.1-0.5,0.2-0.9,0.3-1.3c0.1-0.4,0.2-0.8,0.3-1.2
					c0.1-0.3,0.2-0.7,0.3-1c0.1-0.6,0.3-1.1,0.5-1.6c0.1-0.3,0.3-0.5,0.4-0.7c0.3,0,0.6,0,0.9,0.1c0.1,0.1,0.2,0.1,0.3,0.2
					c0.1,0.1,0.1,0.1,0.1,0.1c0.4,0.1,0.3,0.4,0.2,0.6c-0.1,0.4-0.2,0.7-0.3,1.1c-0.1,0.5-0.3,1-0.3,1.4c-0.1,0.3-0.1,0.6-0.2,0.9
					c-0.1,0.2,0,0.4-0.1,0.5c0,0.3-0.1,0.5-0.1,0.9c-0.1,0.3-0.1,0.5-0.2,0.8c-0.1,0.3-0.1,0.7-0.2,1.1c0,0.3,0,0.5-0.1,0.7
					c-0.1,0.2,0,0.5-0.1,0.7c-0.1,0.3-0.1,0.6-0.1,0.9c-0.1,0.6,0,1.2-0.1,1.8c0,0.3,0,0.5,0,0.8c0.1,0.5,0.1,0.9,0.1,1.2
					c0,0.1,0.1,0.2,0.1,0.3c0.5-0.4,0.7-0.9,1.1-1.3c0.4-0.6,0.7-1.2,1.1-1.7c0.1-0.2,0.2-0.5,0.3-0.7c0.3-0.5,0.5-0.9,0.7-1.3
					c0.3-0.5,0.5-1.1,0.9-1.5c0.3-0.5,0.6-1.1,0.8-1.6c0.1-0.3,0.3-0.5,0.4-0.9c0.1-0.3,0.3-0.5,0.5-0.8c0.1-0.3,0.3-0.6,0.4-0.9
					c0.1-0.1,0.1-0.3,0.2-0.5c0.1-0.4,0.4-0.7,0.7-1c0.3-0.1,0.7,0,1,0.1c0.1,0.1,0.3,0.1,0.3,0.1c0.3,0.3,0.6,0.5,0.7,0.9
					c0,0,0,0,0,0.1c0.1,0.3,0.1,0.5,0.1,0.9c0,1.1,0.1,2.2,0,3.4c-0.1,0.7-0.1,1.3-0.1,2c-0.1,0.7-0.1,1.3,0,2
					c0,0.5,0.1,1.1,0.1,1.6c0.1,0.3,0.1,0.6,0.1,0.9c0,0.1,0.1,0.1,0.1,0.3c0.2-0.3,0.3-0.4,0.4-0.6c0.4-0.6,0.7-1.2,1.1-1.8
					c0.2-0.3,0.3-0.7,0.6-1.1c0.3-0.6,0.7-1.2,1-1.8c0.2-0.3,0.5-0.8,0.7-1.2c0.3-0.4,0.5-0.9,0.7-1.3c0.1-0.1,0.2-0.3,0.3-0.3
					c0.1,0,0.3-0.1,0.3,0.1c0.1-0.2,0.3,0,0.3,0c0.3,0.3,0.3,0.7,0.2,1.1C167.5,47.4,167.4,47.7,167.3,47.9z"/>
				<path class="st0" d="M181.3,47.2c-0.3,0.3-0.7,0.6-1.1,0.9c-0.5,0.4-0.9,0.8-1.3,1.2c-0.5,0.5-1.1,0.9-1.7,1.2
					c-0.4,0.3-0.7,0.7-1.2,0.9c-0.4,0.3-0.7,0.7-1.2,1c-0.2,0.1-0.4,0.3-0.5,0.5c-0.3,0.3-0.7,0.5-1.1,0.9c-0.3,0.2-0.6,0.5-0.9,0.7
					c-0.5,0.5-1.1,0.9-1.6,1.2c-0.3,0.1-0.5,0.3-0.8,0.4c-0.3,0.1-0.5,0.3-0.8,0.3c-0.2,0.1-0.4,0.1-0.6,0.1c-0.1,0-0.3,0.1-0.4,0.1
					c-0.5-0.1-0.9-0.1-1.2-0.3c-0.3-0.2-0.6-0.3-0.9-0.5c-0.7-0.3-1.1-0.8-1.4-1.4c-0.2-0.4-0.3-0.8-0.3-1.2c0-0.2-0.1-0.3-0.1-0.5
					c0-0.1,0-0.3,0-0.5c-0.1-0.2,0-0.4,0.1-0.6c0-0.3,0-0.5,0.1-0.7c0.1-0.1,0.1-0.4,0.1-0.5c0.1-0.3,0.1-0.7,0.2-0.9
					c0.1-0.3,0.1-0.5,0.3-0.7c0.1-0.2,0.1-0.5,0.2-0.7c0.2-0.7,0.5-1.3,0.8-2c0.3-0.5,0.6-1.1,1-1.6c0.1-0.3,0.3-0.5,0.4-0.7
					c0.2-0.2,0.3-0.4,0.5-0.5c0.6-0.7,1.3-1.1,2.1-1.3c0.3-0.1,0.6-0.2,0.9-0.1c0.3,0.1,0.7,0.1,1.1,0.2c0.3,0.2,0.7,0.4,0.9,0.8
					c0.3,0.3,0.3,0.8,0.2,1.2c0,0.1-0.1,0.3-0.3,0.3c-0.1-0.1-0.2-0.1-0.3-0.2c-0.3-0.1-0.5-0.3-0.5-0.5c-0.1-0.2-0.1-0.3-0.2-0.5
					c-0.6-0.1-1.1,0.2-1.5,0.5c-0.4,0.3-0.7,0.7-1.1,1.1c-0.7,0.8-1.1,1.8-1.6,2.7c-0.1,0.4-0.3,0.7-0.4,1.1
					c-0.1,0.3-0.3,0.7-0.3,1.1c-0.1,0.5-0.4,1.1-0.4,1.6c-0.1,0.2,0,0.5-0.1,0.7c-0.1,0.4-0.1,0.8-0.1,1.2c-0.1,0.5,0.1,0.9,0.3,1.3
					c0.1,0.3,0.3,0.4,0.4,0.6c0.7,0,1.3-0.3,2-0.5c0.7-0.4,1.4-0.9,2-1.3c0.4-0.3,0.7-0.6,1.1-0.9c0.5-0.4,1.1-0.9,1.6-1.2
					c0.5-0.3,0.9-0.7,1.4-1.1c0.3-0.3,0.7-0.5,1.1-0.8c0.3-0.3,0.7-0.5,1.1-0.8c0.5-0.3,1-0.7,1.5-1.1c0.2-0.1,0.5-0.3,0.7-0.5
					c0.3-0.2,0.5-0.4,0.7-0.5c0.5-0.3,1-0.3,1.4-0.1h0.1c0.1,0.1,0.1,0.3,0.1,0.5C181.6,46.8,181.5,47,181.3,47.2L181.3,47.2z"/>
				<path class="st0" d="M202.4,46.7C202.4,46.8,202.4,46.8,202.4,46.7c0,0.1,0,0.1-0.1,0.1c0,0,0,0,0,0.1c0,0,0,0.1-0.1,0.1
					c0,0,0,0,0,0.1v0.1l-0.1,0.1c0,0,0,0.1,0,0.1c-0.1,0.1-0.3,0.3-0.3,0.4c-0.2,0.2-0.4,0.5-0.5,0.7c-0.2,0.3-0.4,0.5-0.6,0.7
					c-0.3,0.3-0.5,0.7-0.7,1.1c-0.3,0.3-0.5,0.6-0.7,0.9c-0.2,0.3-0.4,0.6-0.7,0.9c-0.3,0.3-0.5,0.7-0.8,1c-0.3,0.4-0.7,0.8-0.9,1.2
					c-0.2,0.2-0.4,0.4-0.5,0.6c-0.3,0.3-0.5,0.5-0.7,0.9c-0.4,0.5-0.9,0.9-1.2,1.3c-0.3,0.3-0.7,0.5-1.1,0.7
					c-0.4,0.1-0.7,0.1-1.1-0.1c-0.1-0.1-0.4-0.3-0.6-0.3c-0.5-0.2-0.8-0.5-1.1-1c-0.3-0.5-0.3-1-0.6-1.4c0-0.3-0.1-0.7-0.2-1
					c-0.1-0.3-0.1-0.7-0.2-1.1c-0.1-0.1,0-0.2-0.1-0.3c0-0.1-0.1-0.2-0.1-0.3c0-0.3,0-0.6-0.1-0.9c-0.1-0.2-0.1-0.4-0.1-0.6
					c-0.1-0.2,0-0.4-0.1-0.6c-0.1-0.4-0.1-0.8-0.2-1.2c-0.1,0.1-0.1,0.1-0.1,0.2c-0.4,0.5-0.8,1.1-1.2,1.7c-0.3,0.4-0.5,0.8-0.8,1.1
					c-0.3,0.5-0.5,0.9-0.8,1.3c-0.3,0.5-0.5,0.9-0.9,1.4c-0.1,0.1-0.1,0.3-0.2,0.5c-0.3,0.6-0.6,1.2-0.9,1.7
					c-0.2,0.5-0.5,0.9-0.7,1.2c-0.1,0.3-0.3,0.6-0.4,0.9c-0.1,0.3-0.3,0.5-0.3,0.9c-0.1,0.3-0.3,0.6-0.5,0.9
					c-0.2,0.4-0.3,0.9-0.5,1.2c-0.1,0.3-0.2,0.6-0.3,0.9c-0.1,0.2-0.1,0.4-0.3,0.5c-0.1,0.2-0.2,0.3-0.4,0.3
					c-0.4-0.2-0.8-0.3-1.1-0.6c-0.3-0.1-0.3-0.4-0.3-0.6c-0.1-0.1-0.1-0.2-0.1-0.3c0-1.3,0-2.7,0.1-4c0-0.6,0.1-1.1,0.1-1.6
					c0-0.6,0-1.2,0-1.8c0-0.5-0.1-1.1,0-1.6c0.1-0.5,0.1-1.1,0.1-1.6s-0.1-1.1,0-1.6c0.1-1,0-1.9,0.1-2.9c0.1-0.8-0.1-1.6,0.1-2.4
					c0.1-0.7,0-1.4,0.1-2.1c0.1-0.7,0-1.3,0.1-2c0.1-0.6-0.1-1.2,0.1-1.8c0.1-0.6,0-1.2,0.1-1.8c0.1-0.5,0-1.1,0.1-1.5
					c0.1-0.5-0.1-1.1,0.1-1.6c0.1-0.5,0-1.1,0.1-1.6c0.1-0.5,0-1,0.1-1.4c0.1-0.5,0-1.1,0.1-1.5c0.1-0.5,0-0.9,0.1-1.4
					s0-0.9,0.1-1.3c0.1-0.5,0-0.9,0.1-1.4c0.1-0.5,0-0.9,0.1-1.4c0.1-0.5,0-0.9,0.1-1.3c0.1-0.5,0-0.9,0.1-1.4
					c0.1-0.5,0-0.9,0.1-1.3c0.1-0.5,0-0.9,0.1-1.3c0,0,0-0.1,0-0.1c0.1-0.1,0.1-0.2,0.2-0.3l0.1-0.1c0.1-0.1,0.1-0.1,0.2-0.1
					c0.1-0.1,0.1-0.1,0.1-0.1c0,0,0.1,0,0.1,0c0,0,0.1,0,0.1,0c0-0.1,0-0.1,0.1-0.1c0.1,0,0.1,0,0.2,0c0.1,0,0.1,0,0.2,0l0.1,0.1
					c0.1,0.1,0.1,0.1,0.3,0.1c0,0.1,0,0.1,0.1,0.1c0.1,0.1,0.1,0.2,0.1,0.3c0,0.2-0.1,0.5-0.1,0.7c0.1,0.3,0.1,0.6,0,0.9
					c-0.1,0.5-0.1,0.9-0.1,1.4c0,0.3-0.1,0.6-0.1,0.9c-0.1,0.3,0,0.7-0.1,0.9c-0.1,0.5,0,1-0.1,1.4c-0.1,0.5,0,1.1-0.1,1.7
					c-0.1,0.5-0.1,0.9-0.1,1.4c0,0.3-0.1,0.5-0.1,0.9c0.1,0.3,0.1,0.6,0,0.9c-0.1,0.5,0,0.9-0.1,1.3c0,0.3-0.1,0.6-0.1,0.9
					c0,0.3,0.1,0.6,0,0.9c-0.1,0.5-0.1,0.9-0.1,1.4c-0.1,0.6,0,1.2-0.1,1.8c-0.1,0.5-0.1,0.9-0.1,1.4c-0.1,0.3-0.1,0.7-0.1,1.1
					c-0.1,0.3,0,0.7-0.1,1.1c-0.1,0.6,0,1.2-0.1,1.8c-0.1,0.7,0,1.4-0.1,2.2c-0.1,0.8,0,1.5-0.1,2.3c-0.1,0.9,0.1,1.8-0.1,2.6
					c-0.1,0.9,0,1.8-0.1,2.6c-0.1,1.1-0.1,2.1-0.1,3.2c-0.2,0.4-0.1,0.9-0.1,1.2c0,0.4,0.1,0.9,0,1.2c0,0.3-0.1,0.7-0.1,1.1
					c0,0.4,0,0.7,0,1.1V59c0.6-1.1,1.1-2.2,1.7-3.4c0.3-0.6,0.6-1.2,1.1-1.8c0.2-0.3,0.3-0.6,0.5-0.9c0.1-0.3,0.3-0.5,0.5-0.8
					c0.4-0.6,0.7-1.1,1.1-1.7c0.4-0.5,0.8-1.1,1.2-1.6c0.2-0.3,0.4-0.7,0.7-0.9c0.2-0.3,0.4-0.6,0.7-0.9c0.3-0.3,0.5-0.7,0.8-1.1
					c0.3-0.3,0.5-0.7,0.8-1c0.3-0.4,0.6-0.7,0.9-1.1c0.1-0.2,0.3-0.3,0.5-0.5c0.3-0.4,0.7-0.8,1-1.2c0.3-0.4,0.6-0.7,0.9-1.2
					c0.3-0.3,0.6-0.6,0.9-1c0.1-0.1,0.2-0.3,0.3-0.3c0.2-0.1,0.5,0,0.7,0c0.1,0,0.3,0.1,0.3,0.1c0.1,0.1,0.3,0.2,0.3,0.3
					c0.1,0.1,0,0.2,0,0.3c-0.1,0.1-0.1,0.1-0.3,0.3c-0.1,0-0.1,0.1-0.2,0.1c-0.2,0.3-0.5,0.6-0.7,0.9c-0.3,0.5-0.7,0.9-1.1,1.4
					c-0.3,0.3-0.5,0.7-0.8,1c-0.3,0.4-0.7,0.8-1,1.2c-0.2,0.3-0.5,0.7-0.7,1c-0.3,0.3-0.5,0.7-0.7,1c-0.1,0.1-0.1,0.3-0.1,0.5
					c0.2,0.6,0.3,1.2,0.5,1.8c0.1,0.5,0.2,0.9,0.3,1.3c0.2,0.2,0,0.5,0.2,0.6c-0.1,0.2,0,0.4,0.1,0.6c0,0.2,0,0.4,0.1,0.6
					c0.1,0.3,0.1,0.5,0.2,0.7c0.1,0.3,0.1,0.5,0.1,0.8c0.2,0.7,0.4,1.3,0.7,1.9c0.1,0.1,0.1,0.1,0.1,0.1c0.3-0.3,0.7-0.5,1-0.8
					c0.3-0.3,0.7-0.7,1-1c0.1-0.1,0.3-0.3,0.5-0.5c0.2-0.2,0.3-0.3,0.5-0.5c0.2-0.3,0.5-0.5,0.7-0.7c0.4-0.5,0.8-1,1.2-1.5
					c0.3-0.3,0.6-0.7,0.9-1.1c0.3-0.4,0.7-0.8,0.9-1.1c0.2-0.2,0.3-0.4,0.5-0.6c0.4-0.5,0.7-0.9,1.1-1.3c0.3-0.3,0.5-0.7,0.9-0.9
					c0.1-0.1,0.1-0.1,0.3-0.1c0.1-0.1,0.2-0.1,0.3,0c0.1,0,0.2,0,0.3,0c0.1,0,0.1,0.1,0.3,0.1c0,0.1,0,0.1,0,0.2c0,0,0,0.1,0,0.1
					V46.7C202.4,46.7,202.4,46.7,202.4,46.7z"/>
				<path class="st0" d="M209.4,45.4c-0.3,0.4-0.5,0.7-0.8,1.1c-0.3,0.4-0.5,0.7-0.7,1c-0.3,0.4-0.5,0.8-0.8,1.2
					c-0.3,0.3-0.5,0.7-0.8,1.1c-0.2,0.2-0.4,0.5-0.6,0.7c-0.1,0.1-0.3,0.3-0.3,0.5c-0.3,0.4-0.8,0.7-1.2,0.9
					c-0.1,0.1-0.3,0.2-0.5,0.2c-0.3,0.1-0.5,0-0.7-0.1c-0.4-0.3-0.9-0.3-1.1-0.7c-0.1,0-0.1,0-0.2-0.1c-0.1-0.1-0.2-0.3-0.3-0.4
					c-0.3-0.4-0.4-1-0.5-1.4c-0.1-0.3,0-0.5-0.1-0.7c-0.1-0.3,0-0.5-0.1-0.7c-0.1-0.6-0.1-1.2-0.1-1.8c0-0.6,0-1.2,0-1.8
					c0-0.5,0.1-0.9,0.1-1.4c0.1-0.3,0.1-0.5,0.1-0.8c0-0.2,0.1-0.4,0.1-0.6c0-0.1,0-0.3,0.1-0.5c0.1-0.2,0.1-0.4,0.1-0.5
					c0.1-0.3,0.1-0.3,0.3-0.5c0.5-0.1,0.9,0.1,1.2,0.5c-0.1,0.1,0.1,0.3-0.1,0.4c-0.1,0.1-0.1,0.1-0.1,0.2c0,0.6,0,1.2,0,1.9
					c0,0.6-0.1,1.2-0.1,1.8c0,0.7,0,1.4,0,2c-0.1,0.6,0.1,1.1,0.1,1.7c0,0.3,0.1,0.6,0.1,0.9c0.1,0.3,0.2,0.6,0.3,0.9
					c0,0.1,0.1,0.1,0.1,0.1c0.1-0.1,0.3-0.3,0.5-0.5c0.3-0.2,0.5-0.5,0.7-0.7c0.4-0.4,0.8-0.9,1.1-1.3c0.2-0.3,0.5-0.6,0.7-0.9
					c0.3-0.5,0.7-0.9,1-1.4c0.3-0.4,0.7-0.9,0.9-1.2c0.7-1,1.4-2,2-2.9c0.2-0.3,0.5-0.6,0.7-0.9c0.1-0.2,0.3-0.2,0.5-0.3
					c0.3,0,0.5,0.1,0.8,0.1c0.1,0.1,0.3,0.1,0.5,0.3c0.5,0.5,0.6,0.5,0.6,1.4c0,0.5,0,1.1,0,1.6c0,0.2-0.1,0.5-0.1,0.7
					c-0.1,0.3,0,0.5-0.1,0.7c-0.1,0.3,0,0.6-0.1,0.9c0,0.2-0.1,0.3-0.1,0.5c0,0.2,0.1,0.4-0.1,0.6c0.1,0.5-0.1,0.9-0.1,1.2
					c0,0.2-0.1,0.4-0.1,0.6c-0.1,0.2,0.1,0.4-0.1,0.5c0,0.1,0,0.1,0,0.1c0,0.4-0.1,0.9-0.1,1.2c0,0.2-0.1,0.4-0.1,0.6
					c0.1,0.2,0.1,0.5-0.1,0.6v0.1c0,0.5-0.1,0.9-0.1,1.3c0,0.2-0.1,0.4-0.1,0.5c0,0.2,0.1,0.5,0,0.6c-0.1,0.3,0,0.6-0.1,0.9
					c-0.1,0.3,0,0.7-0.1,1.1c-0.1,0.3,0,0.7-0.1,0.9c0,0.3-0.1,0.5-0.1,0.7c0,0.2,0.1,0.5-0.1,0.7c-0.1,0,0,0.1,0,0.1
					c0.1,0.5-0.1,1.1-0.1,1.6c0,0.5-0.1,1-0.1,1.4c-0.2,0.3-0.1,0.7-0.1,1.1c0,0.2-0.1,0.5-0.1,0.7c0,0.3,0.1,0.5,0,0.7
					c-0.1,0.3-0.1,0.6-0.1,0.9c-0.1,0.3-0.1,0.5-0.1,0.7c0,0.3,0.1,0.5,0,0.7c-0.1,0.4-0.1,0.7-0.1,1.1c0,0.2-0.1,0.3-0.1,0.5
					c-0.1,0.2,0,0.4-0.1,0.5c-0.1,0.3,0,0.6-0.1,0.9c-0.1,0.4,0,0.8-0.1,1.1c-0.1,0.3-0.1,0.7-0.1,1.1c-0.1,0.4,0,0.9-0.1,1.2
					c-0.1,0.4,0,0.7-0.1,1.1c-0.1,0.5-0.1,0.9-0.1,1.4c-0.1,0.4-0.1,0.7-0.1,1.1c0,0.2-0.1,0.5-0.1,0.7c-0.1,0.3,0,0.5-0.1,0.7
					c-0.1,0.3,0,0.7-0.1,1c-0.1,0.3,0,0.7-0.1,1.1c-0.1,0.5-0.1,0.9-0.2,1.3c-0.1,0.3-0.1,0.5-0.2,0.7c-0.1,0.1-0.3,0.2-0.4,0.1
					c-0.2-0.3-0.5-0.3-0.8-0.4c-0.1-0.1-0.3-0.2-0.4-0.3c-0.1-0.2-0.1-0.4-0.1-0.6c0.1-0.1,0.1-0.1,0.1-0.1c0-0.5,0.1-0.9,0.1-1.3
					c0-0.7,0.1-1.3,0.1-2c0.2-0.4,0.1-0.7,0.1-1.1c0.1-0.5,0-1,0.1-1.5c0.1-0.4,0-0.9,0.1-1.3c0.1-0.6,0-1.2,0.1-1.8
					c0.1-0.7,0-1.4,0.1-2.1c0.1-0.9,0.1-1.8,0.1-2.7c0.1-0.3,0.2-0.7,0.1-1.1c0-0.4-0.1-0.8,0-1.1c0.1-0.6,0-1.1,0.1-1.6
					c0.1-0.5,0.1-1.1,0.1-1.6c0.1-0.4,0-0.9,0.1-1.2c0.1-0.5,0-0.9,0.1-1.3c0.1-0.3,0.1-0.7,0.1-1.1c0-0.2,0.1-0.4,0.1-0.6
					c0-0.2-0.1-0.4,0-0.6c0.1-0.3,0.1-0.7,0.1-0.9c0.1-0.4,0-0.7,0.1-1.1c0.1-0.3,0.1-0.5,0.1-0.8c0.1-0.2,0.1-0.4,0.1-0.6
					c-0.1-0.2-0.1-0.5,0.1-0.6c0-0.1,0-0.1,0-0.1c0-0.5,0.1-0.9,0.1-1.3c0.1-0.2,0.1-0.4,0.1-0.6c-0.1-0.2,0-0.3,0.1-0.5
					c0.1-0.4,0.1-0.8,0.1-1.1c0-0.2,0-0.4,0.1-0.6c0-0.1-0.1-0.3,0.1-0.5c0,0,0,0,0-0.1c-0.1-0.3,0.1-0.7,0.1-1
					c0-0.2,0.1-0.3,0.1-0.5c0.1-0.1,0-0.3,0.1-0.5c0.1-0.1,0-0.4,0.1-0.5c0.1-0.2,0-0.4,0.1-0.6c0-0.2,0.1-0.4,0.1-0.6
					c0-0.1,0-0.1,0-0.3C210.1,44.4,209.7,44.9,209.4,45.4z"/>
			</g>
		</g>
	</g>
	<g>
		<path class="st0" d="M240.6,56.1c-2.1-0.7-3.5-2.3-4.2-4.5c-0.1-0.4-0.5-0.4-0.5-0.4c-0.2,0-0.4,0.2-0.5,0.4
			c-0.7,2.1-2,3.7-4.2,4.5c-0.5,0.2-0.5,0.9,0,1c2.1,0.7,3.5,2.3,4.2,4.5c0.1,0.4,0.5,0.4,0.5,0.4c0.2,0,0.4-0.2,0.5-0.4
			c0.5-1.6,1.4-2.8,2.6-3.7c0,0,0,0,0,0c1.3-0.9,2-0.7,2-1.3C241,56.4,240.8,56.1,240.6,56.1z"/>
		<path class="st0" d="M233.3,36c-2.1-0.7-3.5-2.3-4.2-4.5c-0.1-0.4-0.5-0.4-0.5-0.4c-0.2,0-0.4,0.2-0.5,0.4c-0.7,2.1-2,3.7-4.2,4.5
			c-0.5,0.2-0.5,0.9,0,1c2.2,0.7,3.5,2.3,4.2,4.5c0.1,0.4,0.5,0.4,0.5,0.4c0.2,0,0.4-0.2,0.5-0.4c0.8-2.6,2.5-3.5,2.6-3.7
			c1.3-0.9,2-0.7,2-1.3C233.7,36.3,233.5,36,233.3,36z"/>
		<path class="st0" d="M249.6,42c-2.1-0.7-3.5-2.3-4.2-4.5c-0.1-0.4-0.5-0.4-0.5-0.4c-0.2,0-0.4,0.2-0.5,0.4c-0.7,2.1-2,3.7-4.2,4.5
			c-0.5,0.2-0.5,0.9,0,1c2.2,0.7,3.5,2.3,4.2,4.5c0.1,0.4,0.5,0.4,0.5,0.4c0.2,0,0.4-0.2,0.5-0.4c0.8-2.6,2.5-3.5,2.6-3.7
			c1.3-0.9,2-0.7,2-1.3C250,42.3,249.8,42.1,249.6,42z"/>
	</g>
</g>
</svg>
