<?xml version="1.0" encoding="utf-8"?>
<!-- Generator: Adobe Illustrator 25.4.1, SVG Export Plug-In . SVG Version: 6.00 Build 0)  -->
<svg version="1.1" id="Capa_1" xmlns="http://www.w3.org/2000/svg" xmlns:xlink="http://www.w3.org/1999/xlink" x="0px" y="0px"
	 viewBox="0 0 250 100" style="enable-background:new 0 0 250 100;" xml:space="preserve">
<style type="text/css">
	.st0{fill:#231F20;}
</style>
<g>
	<g>
		<path class="st0" d="M15.1,36.9h1.1v14.7h9.5V36.9h1.1v24h-1.1v-8.4h-9.5v8.4h-1.1V36.9z"/>
		<path class="st0" d="M43.2,38.8h0.2l6.1,22.1h-1l-1.1-4.1h-8.2L38,60.9h-1L43.2,38.8z M39.4,56h7.7l-3.2-11.9
			c-0.3-1-0.6-2.4-0.6-2.7c0,0.2-0.3,1.7-0.6,2.7L39.4,56z"/>
		<path class="st0" d="M61.4,54.2l-5.7-15.1h1l4.2,11.4c0.4,1.2,0.9,2.8,0.9,2.8s0.5-1.8,0.9-2.9L67,39.1h1l-5.6,15.1v6.7h-1V54.2z"
			/>
		<path class="st0" d="M77.5,39.1h8.9V40h-7.9v12.4h6.9v0.9h-6.9V60h8.3v0.9h-9.2V39.1z"/>
		<path class="st0" d="M99.8,40h-4.8v-0.9h10.5V40h-4.8v21h-1V40z"/>
		<path class="st0" d="M131.9,36.7h0.2l6.7,24.3h-1.1l-1.2-4.5h-9l-1.2,4.5h-1.1L131.9,36.7z M127.7,55.5h8.5l-3.6-13
			c-0.3-1.1-0.6-2.7-0.7-2.9c0,0.2-0.4,1.8-0.6,2.9L127.7,55.5z"/>
		<path class="st0" d="M149,39.1h2.9c4,0,5.9,2.3,5.9,5v0.3c0,2.1-0.9,3.7-3.1,4.4c3,0.7,4.4,2.9,4.4,5.7v0.5c0,3.2-1.9,6-6.5,6H149
			V39.1z M152.3,48.5c3.1,0,4.4-1.8,4.4-4.1v-0.3c0-2.3-1.5-4.1-5-4.1H150v8.6H152.3z M152.4,60c4.1,0,5.7-2.4,5.7-5.1v-0.5
			c0-2.8-1.6-5.1-5.7-5.1H150V60H152.4z"/>
		<path class="st0" d="M169,39.1h2.3c6,0,9.1,4.5,9.1,10.6v0.6c0,6.1-3.3,10.6-9.1,10.6H169V39.1z M171.2,60c5.3,0,8.2-4.2,8.2-9.7
			v-0.6c0-5.5-2.5-9.7-8.2-9.7h-1.3V60H171.2z"/>
		<path class="st0" d="M194.2,38.8h0.2l6.1,22.1h-1l-1.1-4.1h-8.2l-1.1,4.1h-1L194.2,38.8z M190.4,56h7.7l-3.2-11.9
			c-0.3-1-0.6-2.4-0.6-2.7c0,0.2-0.3,1.7-0.6,2.7L190.4,56z"/>
		<path class="st0" d="M210,39.1h1v21h7.2v0.9H210V39.1z"/>
	</g>
	<g>
		<path class="st0" d="M233.9,39.5h0.2l6.1,22.1h-1l-1.1-4.1h-8.2l-1.1,4.1h-1L233.9,39.5z M230.1,56.7h7.7l-3.2-11.9
			c-0.3-1-0.6-2.4-0.6-2.7c0,0.2-0.3,1.7-0.6,2.7L230.1,56.7z"/>
	</g>
</g>
</svg>
