<?xml version="1.0" encoding="utf-8"?>
<!-- Generator: Adobe Illustrator 25.4.1, SVG Export Plug-In . SVG Version: 6.00 Build 0)  -->
<svg version="1.1" id="Capa_1" xmlns="http://www.w3.org/2000/svg" xmlns:xlink="http://www.w3.org/1999/xlink" x="0px" y="0px"
	 viewBox="0 0 250 100" style="enable-background:new 0 0 250 100;" xml:space="preserve">
<g>
	<g>
		<g>
			<g>
				<path d="M94.7,49.1h-7.1v7.4h-4.7V31.3c3.9,0,7.9,0,11.8,0C107,31.3,107,49.1,94.7,49.1 M87.6,44.7h7.1c6.1,0,6-8.9,0-8.9h-7.1
					V44.7z"/>
				<polygon points="133,56.5 114.2,56.5 114.2,31.3 133,31.3 133,35.9 118.9,35.9 118.9,41.7 132.5,41.7 132.5,46.1 118.9,46.1 
					118.9,51.8 133,51.8 				"/>
				<polygon points="151.8,35.6 143.8,35.6 143.8,31.3 164.4,31.3 164.4,35.6 156.5,35.6 156.5,56.5 151.8,56.5 				"/>
				<rect x="174.5" y="31.3" width="4.7" height="25.1"/>
				<polygon points="204.4,56.6 199.5,56.6 189.1,31.3 194.4,31.3 202,50.9 209.6,31.3 214.9,31.3 				"/>
				<polygon points="236.2,36.6 227.5,56.5 222.4,56.5 233.6,31.3 238.8,31.3 250,56.5 244.9,56.5 				"/>
				<path d="M84.2,63h0.7l3.1,6.8h-0.8L86.4,68h-3.7l-0.8,1.8h-0.8L84.2,63z M86.1,67.4l-1.5-3.5L83,67.4H86.1z"/>
				<polygon points="92.2,63.1 97.1,63.1 97.1,63.8 93,63.8 93,66.1 96.7,66.1 96.7,66.8 93,66.8 93,69.1 97.2,69.1 97.2,69.8 
					92.2,69.8 				"/>
				<path d="M101.1,68.8l0.5-0.6c0.7,0.6,1.4,1,2.3,1c0.9,0,1.5-0.5,1.5-1.2v0c0-0.6-0.3-1-1.8-1.3c-1.6-0.3-2.3-0.8-2.3-2v0
					c0-1.1,0.9-1.9,2.2-1.9c1,0,1.7,0.3,2.4,0.8l-0.4,0.6c-0.6-0.5-1.3-0.7-2-0.7c-0.9,0-1.4,0.5-1.4,1.1v0c0,0.6,0.3,1,1.8,1.3
					c1.5,0.3,2.2,0.9,2.2,1.9v0c0,1.2-1,1.9-2.3,1.9C102.8,69.9,101.9,69.6,101.1,68.8"/>
				<polygon points="112.3,63.8 110,63.8 110,63.1 115.4,63.1 115.4,63.8 113.1,63.8 113.1,69.8 112.3,69.8 				"/>
				<polygon points="119.7,63.1 120.4,63.1 120.4,66.1 124.3,66.1 124.3,63.1 125.1,63.1 125.1,69.8 124.3,69.8 124.3,66.8 
					120.4,66.8 120.4,69.8 119.7,69.8 				"/>
				<polygon points="129.9,63.1 134.8,63.1 134.8,63.8 130.7,63.8 130.7,66.1 134.4,66.1 134.4,66.8 130.7,66.8 130.7,69.1 
					134.9,69.1 134.9,69.8 129.9,69.8 				"/>
				<polygon points="141.1,63.8 138.8,63.8 138.8,63.1 144.1,63.1 144.1,63.8 141.9,63.8 141.9,69.8 141.1,69.8 				"/>
				<rect x="148.5" y="63.1" width="0.8" height="6.8"/>
				<path d="M153.9,66.5L153.9,66.5c0-1.9,1.4-3.5,3.4-3.5c1.2,0,2,0.4,2.6,1.1l-0.5,0.6c-0.6-0.5-1.2-0.9-2.1-0.9
					c-1.5,0-2.6,1.2-2.6,2.8v0c0,1.6,1.1,2.8,2.6,2.8c0.9,0,1.5-0.4,2.2-1l0.5,0.5c-0.7,0.7-1.5,1.2-2.7,1.2
					C155.3,69.9,153.9,68.4,153.9,66.5"/>
				<polygon points="175.3,63.1 176.1,63.1 178,68.7 179.9,63 180.5,63 182.4,68.7 184.3,63.1 185.1,63.1 182.7,69.9 182,69.9 
					180.2,64.4 178.3,69.9 177.7,69.9 				"/>
				<polygon points="189.4,63.1 194.3,63.1 194.3,63.8 190.1,63.8 190.1,66.1 193.8,66.1 193.8,66.8 190.1,66.8 190.1,69.1 
					194.3,69.1 194.3,69.8 189.4,69.8 				"/>
				<polygon points="198.8,63.1 199.5,63.1 199.5,69.1 203.3,69.1 203.3,69.8 198.8,69.8 				"/>
				<polygon points="207.6,63.1 208.4,63.1 208.4,69.1 212.2,69.1 212.2,69.8 207.6,69.8 				"/>
				<polygon points="216.5,63.1 217.2,63.1 221.5,68.5 221.5,63.1 222.2,63.1 222.2,69.8 221.6,69.8 217.3,64.3 217.3,69.8 
					216.5,69.8 				"/>
				<polygon points="227,63.1 231.9,63.1 231.9,63.8 227.8,63.8 227.8,66.1 231.5,66.1 231.5,66.8 227.8,66.8 227.8,69.1 232,69.1 
					232,69.8 227,69.8 				"/>
				<path d="M236,68.8l0.5-0.6c0.7,0.6,1.4,1,2.3,1c0.9,0,1.5-0.5,1.5-1.2v0c0-0.6-0.3-1-1.8-1.3c-1.6-0.3-2.3-0.8-2.3-2v0
					c0-1.1,0.9-1.9,2.2-1.9c1,0,1.7,0.3,2.4,0.8l-0.4,0.6c-0.6-0.5-1.3-0.7-2-0.7c-0.9,0-1.4,0.5-1.4,1.1v0c0,0.6,0.3,1,1.8,1.3
					c1.5,0.3,2.2,0.9,2.2,1.9v0c0,1.2-1,1.9-2.3,1.9C237.7,69.9,236.8,69.6,236,68.8"/>
				<path d="M245,68.8l0.5-0.6c0.7,0.6,1.4,1,2.3,1c0.9,0,1.5-0.5,1.5-1.2v0c0-0.6-0.3-1-1.8-1.3c-1.6-0.3-2.3-0.8-2.3-2v0
					c0-1.1,0.9-1.9,2.2-1.9c1,0,1.7,0.3,2.4,0.8l-0.4,0.6c-0.6-0.5-1.3-0.7-2-0.7c-0.9,0-1.4,0.5-1.4,1.1v0c0,0.6,0.3,1,1.8,1.3
					c1.5,0.3,2.2,0.9,2.2,1.9v0c0,1.2-1,1.9-2.3,1.9C246.7,69.9,245.8,69.6,245,68.8"/>
				<path d="M169.8,66.5c0-0.8-0.6-1.4-1.4-1.4c-0.8,0-1.4,0.6-1.4,1.4c0,0.8,0.6,1.4,1.4,1.4C169.2,67.9,169.8,67.2,169.8,66.5z"/>
			</g>
		</g>
	</g>
	<path d="M13.1,68.6c-0.5-0.2-1.1-0.5-1.6-0.8c-0.1-0.1-0.3-0.2-0.4-0.2c-0.2-0.1-0.4-0.3-0.7-0.4c-0.2-0.1-0.4-0.3-0.6-0.4
		c0,0,0,0,0,0c-0.6-0.4-1.3-0.9-1.9-1.4c0,0,0,0,0,0c-0.2-0.2-0.4-0.3-0.5-0.5c-0.4-0.3-0.8-0.7-1.1-1.1c-0.2-0.2-0.3-0.4-0.5-0.5
		c0,0,0,0,0,0c-0.2-0.2-0.3-0.4-0.5-0.6c0,0,0,0,0,0c-0.2-0.2-0.3-0.4-0.5-0.6c-0.2-0.2-0.3-0.4-0.5-0.6c-0.2-0.2-0.3-0.4-0.5-0.6
		c-0.1-0.2-0.3-0.4-0.4-0.6c0,0,0,0,0-0.1c-0.1-0.2-0.3-0.4-0.4-0.6c0,0,0,0,0,0c-0.1-0.2-0.3-0.4-0.4-0.7c2.8-1.3,5.8-2,8.8-2.1
		c1,2.7,2.5,5.1,4.4,7.3c0.2,0.2,0.4,0.5,0.6,0.7c0.2,0.2,0.4,0.5,0.7,0.7c2.1,2,4.5,3.6,7.1,4.8c-0.8,0.1-1.5,0.1-2.3,0.1
		C18.8,70.4,15.8,69.8,13.1,68.6 M43.4,70.3c2.7-1.2,5.2-2.9,7.3-5c0.2-0.2,0.5-0.5,0.7-0.7c0.2-0.2,0.4-0.4,0.6-0.7
		c1.8-2.1,3.2-4.4,4.1-7c0.1,0,0.3,0,0.4,0c3.2,0,6.3,0.7,9.1,2c-0.1,0.1-0.2,0.3-0.2,0.4c-0.1,0.2-0.2,0.4-0.4,0.6c0,0,0,0,0,0.1
		c-0.1,0.2-0.3,0.4-0.4,0.7c-0.1,0.1-0.2,0.3-0.3,0.4c-0.1,0.1-0.1,0.2-0.2,0.2c-0.1,0.2-0.3,0.4-0.4,0.5c-0.1,0.1-0.2,0.2-0.2,0.3
		c-0.3,0.4-0.7,0.8-1,1.2c-0.1,0.1-0.2,0.2-0.3,0.3c-0.1,0.1-0.2,0.2-0.3,0.3c-0.2,0.2-0.4,0.4-0.6,0.5c-0.2,0.2-0.4,0.4-0.6,0.5
		c-0.4,0.3-0.8,0.7-1.2,1c0,0,0,0,0,0c-0.2,0.2-0.4,0.3-0.6,0.5c-0.2,0.1-0.4,0.3-0.6,0.4c-0.2,0.1-0.4,0.3-0.7,0.4
		c-0.2,0.1-0.4,0.3-0.7,0.4c-0.1,0.1-0.3,0.2-0.4,0.2c-0.5,0.3-1,0.5-1.6,0.8c-2.7,1.2-5.7,1.8-8.8,1.8
		C45.2,70.4,44.3,70.4,43.4,70.3 M39.8,69.5C39.8,69.5,39.8,69.5,39.8,69.5c-0.1,0-0.1,0-0.1,0c0,0,0,0,0,0c-0.1,0-0.1,0-0.2-0.1
		c0,0,0,0-0.1,0c0,0-0.1,0-0.1,0c0,0,0,0,0,0c0,0-0.1,0-0.1,0c-0.1,0-0.2-0.1-0.3-0.1c-0.1,0-0.1,0-0.2-0.1c-0.1,0-0.1,0-0.2-0.1
		c-0.1,0-0.2-0.1-0.4-0.1c0,0-0.1,0-0.1-0.1c0,0-0.1,0-0.1,0c0,0,0,0-0.1,0c0,0,0,0,0,0c0,0-0.1,0-0.1-0.1c0,0,0,0,0,0
		c-0.1,0-0.2-0.1-0.3-0.1c-0.1,0-0.2-0.1-0.3-0.1c-0.1-0.1-0.2-0.1-0.4-0.2c-0.2-0.1-0.3-0.2-0.5-0.2c-0.1-0.1-0.3-0.1-0.4-0.2
		c3.2-2.3,5.8-5.4,7.5-8.9c0.6-1.2,1.1-2.4,1.4-3.7c0.5-1.6,0.8-3.3,0.9-4.9c0,0,0-0.1,0-0.1c0.1-0.6,0.1-1.2,0.1-1.9
		c0-0.6,0-1.3-0.1-1.9c0.4-4.5,2.1-8.7,5-12.2c3.3,4,5.1,8.9,5.1,14.1c0,2.3-0.3,4.5-1,6.7c-0.1,0.2-0.1,0.4-0.2,0.6
		c-0.2,0.5-0.3,0.9-0.5,1.4c-0.8,2-1.9,3.8-3.3,5.4c-0.2,0.3-0.5,0.5-0.7,0.8c-0.2,0.2-0.4,0.4-0.6,0.6
		C46.8,66.5,43.5,68.5,39.8,69.5C39.9,69.5,39.9,69.5,39.8,69.5 M18.3,64.2c-0.2-0.2-0.4-0.4-0.6-0.6c-0.2-0.2-0.5-0.5-0.7-0.8
		c-1.5-1.8-2.8-3.7-3.7-5.9c-0.2-0.4-0.3-0.9-0.5-1.3c-0.1-0.2-0.1-0.4-0.2-0.6c-0.7-2.1-1-4.4-1-6.7c0-5.3,1.9-10.4,5.4-14.5
		c3,3.5,4.9,7.9,5.3,12.6v0c-0.1,0.6-0.1,1.2-0.1,1.9c0,0.6,0,1.3,0.1,1.9c0,0,0,0.1,0,0.1c0.1,1.7,0.4,3.4,0.9,5
		c0.3,1.1,0.8,2.3,1.3,3.3c0.8,1.7,1.8,3.3,3,4.8c0,0,0,0,0,0c0.5,0.6,1,1.1,1.4,1.6c0.8,1,1.6,2.1,2.2,3.3c0,0,0,0-0.1,0
		c0,0-0.1,0-0.1,0c0,0,0,0,0,0c0,0,0,0,0,0c0,0-0.1,0-0.1,0c-0.1,0-0.1,0.1-0.2,0.1c-0.1,0-0.2,0.1-0.2,0.1c0,0-0.1,0-0.1,0
		c-0.2,0.1-0.3,0.1-0.5,0.2c-0.1,0-0.2,0.1-0.3,0.1c-0.1,0-0.1,0-0.2,0.1c0,0,0,0-0.1,0c0,0-0.1,0-0.1,0c0,0-0.1,0-0.1,0
		c0,0-0.1,0-0.1,0l-0.2,0.1c0,0-0.1,0-0.1,0c-0.1,0-0.2,0.1-0.3,0.1c-0.1,0-0.1,0-0.2,0c-0.1,0-0.1,0-0.2,0.1
		c-0.1,0-0.2,0.1-0.3,0.1c0,0,0,0,0,0h0C24.2,68.6,20.9,66.8,18.3,64.2 M30.4,63.8c-0.5-0.6-0.9-1.1-1.4-1.6c0,0,0,0,0,0
		c-2.8-3.4-4.4-7.6-4.8-12c0-0.6,0.1-1.2,0.1-1.9c0-0.6,0-1.3-0.1-1.9c0.6-6.7,4.2-12.8,9.8-16.6c5.6,3.7,9.3,9.9,9.8,16.6v0
		c-0.1,0.6-0.1,1.2-0.1,1.9c0,0.6,0,1.3,0.1,1.9c-0.6,6.7-4.2,12.8-9.8,16.6C32.7,65.9,31.5,64.9,30.4,63.8 M33.5,28
		c-0.2,0.1-0.3,0.2-0.5,0.3c0,0,0,0,0,0c-0.1,0.1-0.2,0.2-0.4,0.3c0,0,0,0,0,0c0,0,0,0,0,0c0,0,0,0,0,0c-0.1,0.1-0.3,0.2-0.4,0.3
		c-0.2,0.2-0.4,0.3-0.6,0.5c-0.1,0.1-0.2,0.1-0.2,0.2c0,0,0,0-0.1,0.1c-0.1,0.1-0.2,0.2-0.3,0.3c0,0,0,0,0,0c0,0,0,0,0,0
		c0,0,0,0,0,0c-0.1,0.1-0.2,0.1-0.3,0.2c-0.1,0.1-0.2,0.1-0.2,0.2c-0.1,0.1-0.2,0.2-0.3,0.2c-0.1,0.1-0.1,0.1-0.2,0.2
		c0,0-0.1,0.1-0.1,0.1L29.6,31v0c0,0,0,0,0,0c-0.2,0.2-0.4,0.4-0.6,0.6c0,0-0.1,0.1-0.1,0.1c-0.2,0.2-0.3,0.3-0.5,0.5
		c-0.1,0.1-0.2,0.2-0.3,0.3c-0.3,0.3-0.5,0.6-0.7,0.9c-0.1,0.1-0.1,0.2-0.2,0.3c-0.1,0.1-0.2,0.3-0.3,0.4c-0.1,0.2-0.3,0.4-0.4,0.5
		c-0.1,0.1-0.2,0.3-0.3,0.5c-0.1,0.1-0.2,0.3-0.2,0.4c0,0-0.1,0.1-0.1,0.1c-0.1,0.1-0.2,0.3-0.2,0.4c0,0,0,0,0,0
		c-0.1,0.1-0.2,0.3-0.3,0.4c-0.2,0.3-0.4,0.7-0.6,1c-0.1,0.1-0.1,0.2-0.2,0.4c-0.2,0.3-0.3,0.7-0.4,1c-0.1,0.2-0.1,0.3-0.2,0.5
		c0,0,0,0,0,0c-0.1,0.2-0.1,0.3-0.2,0.5c-0.1,0.2-0.1,0.3-0.2,0.5c0,0,0,0.1,0,0.1c-0.1,0.3-0.2,0.6-0.3,0.9c0,0,0,0,0,0
		c-0.1-0.2-0.1-0.4-0.2-0.7c-0.1-0.2-0.1-0.4-0.2-0.5c-0.1-0.3-0.2-0.5-0.3-0.8c-0.1-0.2-0.2-0.4-0.3-0.6c-0.1-0.2-0.2-0.4-0.3-0.6
		c0,0,0-0.1,0-0.1c-0.1-0.2-0.2-0.4-0.3-0.5c-0.1-0.2-0.2-0.4-0.3-0.6c-0.1-0.2-0.2-0.4-0.3-0.6c0,0,0,0,0,0
		c-0.1-0.2-0.2-0.4-0.3-0.6c-0.1-0.2-0.2-0.4-0.4-0.6c-0.1-0.2-0.2-0.4-0.4-0.6c0-0.1-0.1-0.1-0.1-0.2c-0.1-0.2-0.2-0.3-0.3-0.4
		c-0.1-0.2-0.3-0.4-0.4-0.5c-0.4-0.6-0.9-1.1-1.4-1.6L17,31.1l-0.7,0.7c-4.2,4.5-6.6,10.3-6.6,16.5c0,0.2,0,0.3,0,0.5
		c0,0.3,0,0.5,0,0.8c0,0.1,0,0.2,0,0.3c0,0.6,0.1,1.2,0.2,1.7c0,0.1,0,0.3,0.1,0.4c0,0.2,0.1,0.4,0.1,0.5c0,0.1,0,0.2,0.1,0.3
		c0.1,0.7,0.3,1.4,0.5,2c-0.1,0-0.1,0-0.2,0c-0.1,0-0.2,0-0.2,0c-0.1,0-0.2,0-0.3,0c-0.1,0-0.3,0-0.4,0c-0.2,0-0.4,0-0.6,0.1
		c-0.1,0-0.2,0-0.4,0.1c-0.1,0-0.3,0-0.4,0.1c-0.7,0.1-1.3,0.2-2,0.4c-0.2,0.1-0.4,0.1-0.7,0.2c0,0,0,0,0,0C5.2,55.9,5,56,4.8,56
		c-0.1,0-0.1,0-0.2,0c-0.2,0-0.3,0.1-0.5,0.2c-0.1,0-0.2,0.1-0.3,0.1c-0.1,0-0.2,0.1-0.2,0.1c-0.1,0-0.3,0.1-0.4,0.1
		c-0.1,0-0.2,0.1-0.3,0.1c-0.1,0-0.2,0.1-0.2,0.1c-0.1,0.1-0.3,0.1-0.4,0.2c-0.2,0.1-0.3,0.1-0.5,0.2c-0.1,0.1-0.3,0.1-0.4,0.2
		c-0.2,0.1-0.4,0.2-0.6,0.3L0,58.1l0.4,0.8c2.2,4.5,5.9,8.2,10.3,10.6c0,0,0.1,0,0.1,0l0.3,0.2l0,0c3.3,1.7,7,2.6,10.7,2.6
		c2,0,4-0.2,5.9-0.7l0.2-0.1c0.8-0.2,1.7-0.5,2.5-0.8c0.3-0.1,0.7-0.3,1-0.4c0.1-0.1,0.3-0.1,0.4-0.2c0.3-0.2,0.7-0.3,1-0.5l0,0
		l0.8-0.4l0,0c0,0,0,0,0,0c0.1,0,0.2-0.1,0.3-0.1c0.1,0.1,0.3,0.2,0.4,0.2c0,0,0,0,0,0c0,0,0,0,0,0c0,0,0,0,0,0l0,0l0.8,0.4
		c1.4,0.7,2.9,1.3,4.3,1.7c0.1,0,0.2,0,0.3,0.1c2,0.5,4.1,0.8,6.2,0.8c3.7,0,7.4-0.9,10.7-2.6l0,0l0.4-0.2
		c4.5-2.4,8.1-6.2,10.3-10.7l0.4-0.8l-0.8-0.4c-0.2-0.1-0.5-0.2-0.7-0.3c-0.3-0.1-0.6-0.3-0.9-0.4c-0.1,0-0.2-0.1-0.2-0.1
		c-0.1-0.1-0.3-0.1-0.4-0.2c-0.1,0-0.2-0.1-0.3-0.1c-0.2-0.1-0.4-0.2-0.7-0.2c-0.4-0.1-0.8-0.3-1.2-0.4c-0.2-0.1-0.4-0.1-0.6-0.2
		c0,0-0.1,0-0.1,0c-0.2,0-0.3-0.1-0.5-0.1c-0.1,0-0.1,0-0.2,0c-0.1,0-0.2-0.1-0.4-0.1c-0.1,0-0.2,0-0.4-0.1c-0.1,0-0.1,0-0.2,0
		c-0.2,0-0.4-0.1-0.6-0.1c-0.2,0-0.4-0.1-0.6-0.1c-0.2,0-0.4,0-0.5-0.1c0,0-0.1,0-0.1,0c-0.2,0-0.3,0-0.5,0c-0.1,0-0.2,0-0.3,0
		c-0.1,0-0.2,0-0.2,0c-0.2,0-0.3,0-0.5,0c-0.1,0-0.1,0-0.2,0c-0.1,0-0.2,0-0.3,0c0-0.1,0.1-0.3,0.1-0.4c0-0.2,0.1-0.3,0.1-0.5
		c0-0.1,0.1-0.2,0.1-0.3c0.1-0.3,0.1-0.5,0.2-0.8c0-0.1,0-0.2,0.1-0.3c0-0.1,0-0.2,0.1-0.3c0-0.2,0.1-0.3,0.1-0.5
		c0.1-0.3,0.1-0.7,0.1-1c0-0.3,0.1-0.6,0.1-0.8c0-0.1,0-0.3,0-0.4c0-0.3,0-0.5,0-0.8c0-0.2,0-0.3,0-0.5c0-6-2.2-11.7-6.2-16.1
		l-0.7-0.8L50,32.2c-0.1,0.1-0.2,0.3-0.3,0.4c-0.1,0.1-0.2,0.2-0.3,0.4c-0.1,0.1-0.2,0.2-0.3,0.3c-0.2,0.3-0.5,0.6-0.7,0.9
		c-0.1,0.1-0.1,0.2-0.2,0.3c0,0.1-0.1,0.1-0.1,0.2c-0.1,0.1-0.1,0.2-0.2,0.3c-0.2,0.3-0.4,0.5-0.5,0.8c-0.1,0.1-0.1,0.2-0.2,0.3
		c-0.2,0.3-0.4,0.6-0.5,0.9c-0.1,0.1-0.1,0.2-0.2,0.3c-0.1,0.1-0.1,0.3-0.2,0.4c-0.1,0.2-0.2,0.4-0.3,0.6c0,0,0,0,0,0
		c-0.1,0.2-0.2,0.4-0.3,0.6c-0.1,0.2-0.2,0.4-0.2,0.6c0,0,0,0.1,0,0.1c-0.1,0.2-0.1,0.4-0.2,0.6c-0.1,0.2-0.2,0.5-0.2,0.7
		c-0.1,0.2-0.1,0.4-0.2,0.6c0,0,0,0,0,0c-0.1-0.2-0.1-0.3-0.2-0.5c0-0.1-0.1-0.2-0.1-0.3c-0.1-0.3-0.2-0.5-0.3-0.8
		c-0.1-0.1-0.1-0.3-0.2-0.4c0-0.1,0-0.1-0.1-0.2c0-0.1-0.1-0.3-0.2-0.4c-0.1-0.3-0.3-0.7-0.4-1c-0.1-0.1-0.1-0.2-0.2-0.4
		c-0.1-0.2-0.2-0.3-0.3-0.5c-0.1-0.1-0.1-0.3-0.2-0.4c0-0.1-0.1-0.1-0.1-0.2c-0.1-0.1-0.2-0.3-0.3-0.4c0,0,0,0,0,0
		c-0.1-0.1-0.1-0.2-0.2-0.4c0,0-0.1-0.1-0.1-0.1c-0.1-0.1-0.2-0.3-0.2-0.4c-0.1-0.2-0.2-0.3-0.3-0.5c-0.1-0.2-0.3-0.4-0.4-0.5
		c-0.1-0.1-0.2-0.3-0.3-0.4c-0.1-0.1-0.1-0.2-0.2-0.3c-0.2-0.3-0.5-0.6-0.7-0.9c-0.1-0.1-0.2-0.2-0.3-0.3c-0.1-0.2-0.3-0.3-0.5-0.5
		c0,0-0.1-0.1-0.1-0.1c-0.2-0.2-0.4-0.4-0.6-0.6c0,0,0,0,0,0v0c-0.1-0.1-0.1-0.1-0.2-0.2c-0.1-0.1-0.1-0.1-0.2-0.2
		c-0.1-0.1-0.2-0.2-0.3-0.2c-0.1-0.1-0.2-0.1-0.3-0.2c-0.1-0.1-0.2-0.1-0.3-0.2c0,0,0,0,0,0c0,0,0,0,0,0c0,0,0,0,0,0
		c-0.1-0.1-0.2-0.2-0.3-0.2c0,0-0.1-0.1-0.1-0.1c0,0-0.1,0-0.1-0.1c0,0,0,0-0.1-0.1c0,0-0.1-0.1-0.1-0.1c-0.2-0.2-0.4-0.3-0.6-0.5
		c-0.1-0.1-0.3-0.2-0.4-0.3c0,0,0,0,0,0c0,0,0,0-0.1,0c-0.1-0.1-0.2-0.2-0.4-0.3c0,0,0,0,0,0c-0.2-0.1-0.3-0.2-0.5-0.3L34,27.7
		L33.5,28z"/>
</g>
</svg>
