<?xml version="1.0" encoding="utf-8"?>
<!-- Generator: Adobe Illustrator 25.4.1, SVG Export Plug-In . SVG Version: 6.00 Build 0)  -->
<svg version="1.1" id="Capa_1" xmlns="http://www.w3.org/2000/svg" xmlns:xlink="http://www.w3.org/1999/xlink" x="0px" y="0px"
	 viewBox="0 0 250 100" style="enable-background:new 0 0 250 100;" xml:space="preserve">
<style type="text/css">
	.st0{fill:#FFFFFF;}
</style>
<rect id="XMLID_31_" x="75.7" y="2" width="95.6" height="95.6"/>
<g id="XMLID_20_">
	<path id="XMLID_56_" class="st0" d="M91.1,53.5H94c0.5,1.7,1.8,2.5,3.8,2.5c2,0,3.2-1,3.2-2.5c0-1.2-0.7-1.9-2.4-2.3l-2.8-0.7
		c-2.8-0.7-4.2-2.2-4.2-4.5c0-2.9,2.3-5,5.7-5c3.5,0,5.7,1.8,6.3,4.6h-2.8c-0.5-1.5-1.7-2.2-3.5-2.2c-1.8,0-3,0.9-3,2.3
		c0,1.1,0.7,1.8,2.2,2.2l2.9,0.7c2.7,0.6,4.3,2.2,4.3,4.6c0,3.1-2.5,5.1-6,5.1C94.2,58.4,91.6,56.6,91.1,53.5z"/>
	<path id="XMLID_58_" class="st0" d="M112.1,58.2h-5.6V41.4h5.6c4.9,0,8.1,3.3,8.1,8.4S117.1,58.2,112.1,58.2z M109.3,43.9v11.7h2.7
		c3.5,0,5.4-2.2,5.4-5.8c0-3.6-1.9-5.9-5.4-5.9H109.3z"/>
	<path id="XMLID_61_" class="st0" d="M136.9,46.5l-4.5,11.6h-2l-4.6-11.6v11.6h-2.7V41.4h3.2l5.1,12.9l5-12.9h3.2v16.7h-2.7V46.5z"
		/>
	<path id="XMLID_63_" class="st0" d="M153.4,41.4h3.1l-5.7,8.1l5.9,8.6h-3.2l-4.3-6.3l-4.3,6.3h-3.2l5.9-8.5l-5.6-8.2h3.2l4,5.9
		L153.4,41.4z"/>
</g>
</svg>
