<?xml version="1.0" encoding="utf-8"?>
<!-- Generator: Adobe Illustrator 25.4.1, SVG Export Plug-In . SVG Version: 6.00 Build 0)  -->
<svg version="1.1" id="Capa_1" xmlns="http://www.w3.org/2000/svg" xmlns:xlink="http://www.w3.org/1999/xlink" x="0px" y="0px"
	 viewBox="0 0 250 100" style="enable-background:new 0 0 250 100;" xml:space="preserve">
<style type="text/css">
	.st0{clip-path:url(#SVGID_00000035523250559545267980000016041582321783761543_);}
	.st1{clip-path:url(#SVGID_00000183955949380625363950000013884800757616042400_);}
	.st2{clip-path:url(#SVGID_00000021114086403715940820000007804880499129210775_);}
	.st3{clip-path:url(#SVGID_00000145754245487698061480000018049099800133342606_);}
	.st4{clip-path:url(#SVGID_00000057860083472100250550000008606126268129223596_);}
	.st5{clip-path:url(#SVGID_00000049201492309579220370000012012763354992888981_);}
	.st6{clip-path:url(#SVGID_00000090981088027297533650000006091217024320130453_);}
	.st7{clip-path:url(#SVGID_00000075123124437052689610000015326801052406519953_);}
	.st8{clip-path:url(#SVGID_00000083086468311808400920000001555502611231526820_);}
	.st9{clip-path:url(#SVGID_00000161595699902201874690000007239396911106186152_);}
	.st10{clip-path:url(#SVGID_00000078765625503721071550000013868369527734904473_);}
</style>
<g>
	<g>
		<g>
			<defs>
				<path id="SVGID_1_" d="M191.7,31.7c-2.2,0.1-4.3,2-4.3,3.9v0c0,1.8,1.1,2.4,2.7,2.4c2.1,0,4.4-2.1,4.4-4
					C194.4,32.2,193.3,31.7,191.7,31.7C191.7,31.7,191.7,31.7,191.7,31.7"/>
			</defs>
			<use xlink:href="#SVGID_1_"  style="overflow:visible;"/>
			<clipPath id="SVGID_00000046325986229995922000000015514609495891704745_">
				<use xlink:href="#SVGID_1_"  style="overflow:visible;"/>
			</clipPath>
			
				<rect x="187.2" y="31.5" transform="matrix(0.9986 -5.302265e-02 5.302265e-02 0.9986 -1.5817 10.1692)" style="clip-path:url(#SVGID_00000046325986229995922000000015514609495891704745_);" width="7.4" height="6.8"/>
		</g>
		<g>
			<g>
				<defs>
					<path id="SVGID_00000050658021853703936210000010667492429884866735_" d="M42.7,28.3c-5.1,0.5-9.9,2.2-13.5,5.9
						c-3,3-2.8,6.3,0.7,8.8c3,2.2,6.2,4,9.3,6.2c3,2.2,3.4,4.5,1.3,7.6c-2.9,4.2-7.1,5.9-12,5.9c-4.8,0.1-6.5-2.6-4.7-7.1
						c0.9-2.4,2.6-4.2,4.5-6.5c-4.7,0.9-8.3,2.6-11,6c-1.1,1.4-1.7,2.8-1.7,4c0,2,1.5,3.7,4.3,4.8c7.2,2.9,17.9,1.3,25-4.8
						c0.8-0.7,1.5-1.5,2.1-2.3c3.7-5,3-8.9-2.1-12.2c-1.1-0.7-2.2-1.3-3.4-1.9c-1.9-1-3.8-2.1-5.4-3.6c-1.5-1.4-1.7-3-0.3-4.5
						c2.8-3.2,6.2-4.5,10.4-3.9c1.6,0.2,2.2,1.2,1.8,2.7c-0.4,1.5-0.8,2.9-1.2,4.4c2.8-0.4,6.2-3.3,6.8-5.7c0.4-1.8-0.2-2.8-2-3.2
						c-2-0.4-4-0.6-6-0.6C44.6,28.2,43.6,28.3,42.7,28.3"/>
				</defs>
				<use xlink:href="#SVGID_00000050658021853703936210000010667492429884866735_"  style="overflow:visible;"/>
				<clipPath id="SVGID_00000137834855488004878010000001796318788180504511_">
					<use xlink:href="#SVGID_00000050658021853703936210000010667492429884866735_"  style="overflow:visible;"/>
				</clipPath>
				
					<rect x="14.5" y="27.2" transform="matrix(0.9986 -5.296117e-02 5.296117e-02 0.9986 -2.4653 1.9035)" style="clip-path:url(#SVGID_00000137834855488004878010000001796318788180504511_);" width="40.4" height="40.5"/>
			</g>
			<g>
				<defs>
					<path id="SVGID_00000124147499440064360330000005264192471853439878_" d="M173.3,27.8c-5.3,0.9-9.8,3.3-13.1,7.6
						c-3,3.8-5,8.2-7.2,12.5c-2.8,5.4-5.4,10.9-10.8,15.3h3.1h19.4c5,0,10.8-5.8,10.8-10.8c0-0.4,0.1-0.9-0.4-1.1
						c-0.6-0.2-1,0.3-1.3,0.6c-1.8,2-3.8,3.8-5.9,5.4c-4.7,3.7-10,3.9-15.8,3.5c4.3-4.9,6.5-10.6,9.2-16.1c2-4.1,4-8.2,6.8-11.9
						c1.4-1.8,3.1-3.2,5.5-3.5c0.8-0.1,2.1,0.1,2-1c-0.1-0.7-0.6-0.9-1.1-0.9C174.1,27.7,173.7,27.7,173.3,27.8"/>
				</defs>
				<use xlink:href="#SVGID_00000124147499440064360330000005264192471853439878_"  style="overflow:visible;"/>
				<clipPath id="SVGID_00000013165194530273788190000004800905506990381488_">
					<use xlink:href="#SVGID_00000124147499440064360330000005264192471853439878_"  style="overflow:visible;"/>
				</clipPath>
				
					<rect x="141.2" y="26.8" transform="matrix(0.9986 -5.296544e-02 5.296544e-02 0.9986 -2.1846 8.4831)" style="clip-path:url(#SVGID_00000013165194530273788190000004800905506990381488_);" width="35.4" height="37.3"/>
			</g>
			<g>
				<defs>
					<path id="SVGID_00000026882033850820304930000012536688921037533075_" d="M68.2,45.9c-1,1.7-2.3,3.9-3.3,5.5
						c-2,3.4-2.4,5-7,7.7c-0.8,0.5-1.9,1-2.8,0.3c-0.8-0.7-0.2-1.6,0.1-2.4c1-2,1.9-4.1,3-6c1.6-2.9,3.2-5.8,4.9-8.9
						c-3.8-0.2-6.4,0.9-8,4.1c-1.8,3.6-3.7,7-5.5,10.6c-0.6,1.3-1.6,2.8-1.6,4.2c0,0.8,0.3,1.5,1,2.2c2,1.8,4.6,0.7,6.8-0.5
						c1.8-1,3.4-2.3,5-3.5c-0.2,1.1-0.2,1.8-0.3,2.6c-0.2,2.2-0.3,4.4,1.6,6c0.4,0.3,0.9,0.6,1.3,0.6c0.6,0.1,0.5,0,0.5-1.3
						c0-2.1,1-4,1.9-5.9c2.9-5.6,5.9-11.1,8.8-16.7c0.4-0.7,0.6-1.3,1.2-2.4C75.6,42,75,42,74.4,42C71.9,42,70,42.9,68.2,45.9"/>
				</defs>
				<use xlink:href="#SVGID_00000026882033850820304930000012536688921037533075_"  style="overflow:visible;"/>
				<clipPath id="SVGID_00000010310456751603215300000009927391891566189453_">
					<use xlink:href="#SVGID_00000026882033850820304930000012536688921037533075_"  style="overflow:visible;"/>
				</clipPath>
				
					<rect x="47.5" y="41.1" transform="matrix(0.9986 -5.295926e-02 5.295926e-02 0.9986 -2.832 3.3703)" style="clip-path:url(#SVGID_00000010310456751603215300000009927391891566189453_);" width="29.3" height="28"/>
			</g>
			<g>
				<defs>
					<path id="SVGID_00000024718683661873891170000005548114678876919178_" d="M211.7,29.2c-6.1,1.3-10,5.1-12.6,10.6
						c-1.4,2.9-1,2.9-3.7,2.8c-1.3-0.1-1.4-0.2-2.4,1.9c1.2,0.1,2.2,0.1,3.5,0.2c-5.5,9.5-8.8,20.1-17.7,27.3
						c2.2,0.3,3.8-0.5,5.4-1.4c4.3-2.5,7.4-6.2,9.8-10.5c2.5-4.6,4.7-8.8,7.1-13.2c1.6-2.9,0.9-2.5,3.7-2.4c3.2,0.1,2.6,0.5,4.6-2
						h-5.9c1.4-2.8,2.3-4.9,3.6-7.1c1.1-1.9,2.1-3.4,4.2-4.1c1-0.3,2.6-0.6,3,0.7c0.5,1.4,0.5,1.4,1.5,1c1-0.4,1.9-1.1,1.9-2.2
						c0.1-0.9-0.8-1.3-1.6-1.5c-0.7-0.2-1.4-0.3-2.1-0.3C213.2,28.9,212.5,29,211.7,29.2"/>
				</defs>
				<use xlink:href="#SVGID_00000024718683661873891170000005548114678876919178_"  style="overflow:visible;"/>
				<clipPath id="SVGID_00000183929849911511750830000004899844423121972909_">
					<use xlink:href="#SVGID_00000024718683661873891170000005548114678876919178_"  style="overflow:visible;"/>
				</clipPath>
				
					<rect x="177.7" y="27.9" transform="matrix(0.9986 -5.300703e-02 5.300703e-02 0.9986 -2.4054 10.5809)" style="clip-path:url(#SVGID_00000183929849911511750830000004899844423121972909_);" width="41.1" height="45.4"/>
			</g>
			<g>
				<defs>
					<path id="SVGID_00000014623991722102595270000010720127565450343858_" d="M218.2,43.7c0.7-0.4,1.8-0.8,2.3-0.4
						c0.3,0.2,0.5,0.5,0.5,0.8c0,0.6-0.4,1.2-0.7,1.7c-2.1,3.5-4.8,6.2-9.6,7.1C213,49.1,215,45.9,218.2,43.7 M202.9,58.1v0.2
						c0,3.1,1.7,5.1,4.8,5.4c5.6,0.5,10.4-1.3,14.4-5.1c0.8-0.8,1.4-1.7,1-3.5c-1,1-1.6,1.7-2.4,2.4c-2.5,2.2-5.2,4-8.8,3.7
						c-2-0.2-3-1.1-2.8-3.3c0.1-1.7,0.5-3.4,2.6-3.6c3.8-0.4,7.3-1.9,10.5-4c1.4-0.9,2.6-2,3.3-3.6c1.2-2.8,0-4.9-3-5.3
						c-0.5-0.1-1-0.1-1.5-0.1C212.8,41.4,203.1,50,202.9,58.1"/>
				</defs>
				<use xlink:href="#SVGID_00000014623991722102595270000010720127565450343858_"  style="overflow:visible;"/>
				<clipPath id="SVGID_00000140726719361315995170000002363298364012259745_">
					<use xlink:href="#SVGID_00000014623991722102595270000010720127565450343858_"  style="overflow:visible;"/>
				</clipPath>
				
					<rect x="202.3" y="40.8" transform="matrix(0.9986 -5.302455e-02 5.302455e-02 0.9986 -2.4984 11.4611)" style="clip-path:url(#SVGID_00000140726719361315995170000002363298364012259745_);" width="25" height="24.1"/>
			</g>
			<g>
				<defs>
					<path id="SVGID_00000052103412225171878700000003977755719708386724_" d="M143,41.6c-2.6,0.5-7.7,4.8-8.7,5.2
						c0.8-1.7,1.6-3.2,2.4-4.8c-3.5-0.3-6,0.6-7.5,3.7c-2.8,5.5-5.8,11-8.7,16.4c-0.3,0.6-1.3,2.1-1.3,2.1s2,0.1,2.7,0
						c2.9-0.3,3.9-1.9,5.5-4.8c2.4-4.4,4.7-9.5,9.2-12.3c1.1-0.7,2.6-1.9,3.7-1.2c1.2,0.9-1,4.5-1.5,5.5c3.9-1.3,10.3-6.7,7.1-9.6
						c-0.4-0.4-0.9-0.5-1.4-0.5C144,41.4,143.5,41.5,143,41.6"/>
				</defs>
				<use xlink:href="#SVGID_00000052103412225171878700000003977755719708386724_"  style="overflow:visible;"/>
				<clipPath id="SVGID_00000181066455658512515680000010410093532851965838_">
					<use xlink:href="#SVGID_00000052103412225171878700000003977755719708386724_"  style="overflow:visible;"/>
				</clipPath>
				
					<rect x="118.7" y="40.7" transform="matrix(0.9986 -5.300982e-02 5.300982e-02 0.9986 -2.6143 7.1867)" style="clip-path:url(#SVGID_00000181066455658512515680000010410093532851965838_);" width="31" height="24.4"/>
			</g>
			<g>
				<defs>
					<path id="SVGID_00000181791139037079586880000007962807547127661725_" d="M183.5,45.3c-1.7,3.3-3.4,6.6-5.2,9.8
						c-0.8,1.4-1.5,2.9-1.7,4.6c0,0.4-0.1,0.7-0.1,1.1c0,1.5,0.5,2.8,2,3.7c0.7,0.4,1.2,0.7,1.2,0.7s2.7-5.9,4.2-9
						c2.2-4.6,4.8-9.5,7.4-14.4c-0.3,0-0.6,0-0.9,0C187.2,41.6,184.9,42.4,183.5,45.3"/>
				</defs>
				<use xlink:href="#SVGID_00000181791139037079586880000007962807547127661725_"  style="overflow:visible;"/>
				<clipPath id="SVGID_00000141426558914101650310000018204987600755008899_">
					<use xlink:href="#SVGID_00000181791139037079586880000007962807547127661725_"  style="overflow:visible;"/>
				</clipPath>
				
					<rect x="175.9" y="41.2" transform="matrix(0.9986 -5.289418e-02 5.289418e-02 0.9986 -2.5611 9.8019)" style="clip-path:url(#SVGID_00000141426558914101650310000018204987600755008899_);" width="16" height="24.2"/>
			</g>
			<g>
				<defs>
					<path id="SVGID_00000129165626939141599640000012543974414510670211_" d="M82,62.1c-1.9-0.4-1-3.1-0.9-3.4
						c2.1-4.5,4.1-9.1,8.2-12.3c0.7-0.5,1.4-1,2.2-1.3c1.4-0.6,2.1-0.1,2.1,1.1c0,0.2,0,0.3,0,0.5C92.9,52,89.8,58,85.6,61.2
						c-0.8,0.6-1.7,1-2.7,1C82.6,62.2,82.3,62.2,82,62.1 M82,45.6c-3.6,7-7.3,13.9-11,20.8c-1.7,3.2-3.4,6.3-5.1,9.6
						c4.5,0.7,6.1,0,8-3.9c1.7-3.3,3.4-6.5,5.1-9.8c3.2,2.4,7.4,2.5,11.3-0.2c5.2-3.6,7.5-8.6,8.9-13.9c0.5-2,0.6-4.2-1.3-5.5
						c-1.5-1-3.7-0.8-5.7,0c-1.3,0.5-2.7,1-4.1,1.9c0.5-1,0.8-1.7,1.2-2.7c-0.3,0-0.7,0-1,0C85.8,41.9,83.4,42.9,82,45.6"/>
				</defs>
				<use xlink:href="#SVGID_00000129165626939141599640000012543974414510670211_"  style="overflow:visible;"/>
				<clipPath id="SVGID_00000134963804134961856370000010757319749548912821_">
					<use xlink:href="#SVGID_00000129165626939141599640000012543974414510670211_"  style="overflow:visible;"/>
				</clipPath>
				
					<rect x="65" y="40.8" transform="matrix(0.9986 -5.295008e-02 5.295008e-02 0.9986 -3.0184 4.4714)" style="clip-path:url(#SVGID_00000134963804134961856370000010757319749548912821_);" width="35.7" height="36.7"/>
			</g>
			<g>
				<defs>
					<path id="SVGID_00000049914558873712527010000011935948249867747997_" d="M114.5,43.7c0.7-0.4,1.5-1.1,2.3-0.4
						c0.3,0.3,0.4,0.6,0.4,0.9c0,0.5-0.3,1-0.6,1.5c-2.1,3.6-4.8,6.4-9.7,7.2C109.2,49.1,111.2,45.9,114.5,43.7 M99.1,57.7
						c0,0.2,0,0.4,0,0.6c0,3.2,1.8,5.2,5.2,5.4c5.4,0.4,10-1.4,13.9-5.1c0.9-0.8,1.6-1.8,0.9-3.8c-0.8,1-1.3,1.8-1.9,2.4
						c-2.5,2.2-5.1,4.2-8.7,4c-2.1-0.1-3.3-1.1-3.2-3.2c0.1-1.8,0.1-3.5,2.8-3.7c3.1-0.2,6-1.5,8.7-3c2-1.1,3.9-2.3,4.9-4.5
						c1.3-2.8,0-5-3.1-5.4c-0.4-0.1-0.9-0.1-1.3-0.1C109.1,41.4,99.6,49.7,99.1,57.7"/>
				</defs>
				<use xlink:href="#SVGID_00000049914558873712527010000011935948249867747997_"  style="overflow:visible;"/>
				<clipPath id="SVGID_00000132806305068920409460000010789462422726268038_">
					<use xlink:href="#SVGID_00000049914558873712527010000011935948249867747997_"  style="overflow:visible;"/>
				</clipPath>
				
					<rect x="98.5" y="40.8" transform="matrix(0.9986 -5.303913e-02 5.303913e-02 0.9986 -2.6422 5.9611)" style="clip-path:url(#SVGID_00000132806305068920409460000010789462422726268038_);" width="25" height="24"/>
			</g>
		</g>
		<g>
			<defs>
				<path id="SVGID_00000018957481396323154090000005920929450667299200_" d="M231.4,27.4c0.1,0,0.4-0.1,0.7-0.1
					c0.8,0,1.2,0.3,1.2,0.8c0,0.6-0.6,0.8-1.3,0.8h-0.6V27.4z M230.1,26.6V32h1.3v-2.1h0.6c0.7,0,1,0.3,1.1,0.8
					c0.2,0.7,0.3,1.1,0.4,1.3h1.3c-0.1-0.2-0.2-0.5-0.4-1.3c-0.2-0.7-0.4-1.1-1-1.3v-0.1c0.6-0.2,1.1-0.6,1.1-1.3
					c0-0.5-0.2-0.9-0.6-1.2c-0.4-0.3-0.8-0.4-1.8-0.4C231.3,26.4,230.6,26.6,230.1,26.6 M232.2,33.5c-2.4,0-4.2-1.9-4.2-4.3
					c0-2.4,1.8-4.3,4.2-4.3c2.4,0,4.2,1.9,4.2,4.4C236.4,31.6,234.6,33.5,232.2,33.5C232.3,33.5,232.2,33.5,232.2,33.5 M226.6,29.2
					c0,3,2.5,5.4,5.6,5.4c3.1,0,5.6-2.4,5.6-5.4c0-3-2.4-5.4-5.5-5.4C229.1,23.8,226.6,26.2,226.6,29.2"/>
			</defs>
			<use xlink:href="#SVGID_00000018957481396323154090000005920929450667299200_"  style="overflow:visible;"/>
			<clipPath id="SVGID_00000152256016135305668680000011876406146722686343_">
				<use xlink:href="#SVGID_00000018957481396323154090000005920929450667299200_"  style="overflow:visible;"/>
			</clipPath>
			
				<rect x="226.6" y="23.8" style="clip-path:url(#SVGID_00000152256016135305668680000011876406146722686343_);" width="11.1" height="10.9"/>
		</g>
	</g>
</g>
</svg>
