<?xml version="1.0" encoding="utf-8"?>
<!-- Generator: Adobe Illustrator 25.4.1, SVG Export Plug-In . SVG Version: 6.00 Build 0)  -->
<svg version="1.1" id="Capa_1" xmlns="http://www.w3.org/2000/svg" xmlns:xlink="http://www.w3.org/1999/xlink" x="0px" y="0px"
	 viewBox="0 0 250 100" style="enable-background:new 0 0 250 100;" xml:space="preserve">
<g>
	<g>
		<path d="M34.3,18.1c-1.1,0-4.3-1.2-4.7,1.3c-0.4,2.5,0,6,0,7c-0.1,1-0.1,9.8-0.6,11.4c-0.5,1.6-2.5,12.4-2.6,13.6
			c-0.1,1.2-3.4-6.8-4.7-7.5c-1.3-0.7-2.5-1.1-3.3,0.6c-0.8,1.7-1.7,7-3.6,8.8c-1.9,1.7-4.4-15.1-4.2-16.7c0.2-1.6,0.5-3.6-0.1-4.2
			C10,31.6,9.6,33,9.6,33s-0.3-2.4-0.3-8.1c0-5.7,0-7.2-2.9-6.8c0,0-3.5-0.2-3.3,1.2c0.2,1.5,3.2,17.2,4.3,24.9
			C8.6,52,12,60.4,11.8,61.1c-0.2,0.7,1,2,2.7,1.7c1.7-0.3,2.7-2.7,3.1-3.5c0.4-0.7,3.1-6.8,3.1-6.8s4.5,9.2,6.9,9.8
			c2.4,0.5,2.9,0,3.2-1c0.3-1,2.1-23.1,4.3-33.2C37.2,18,35.4,18.1,34.3,18.1z"/>
		<path d="M51,31.7c-0.1-1.3-0.1-2-0.8-0.6c-0.7,1.4,0-8.9-0.2-9.5c-0.1-0.7,0.1-2.6-2.1-2.6c0,0-3.1-0.5-3.4,0.9
			c-0.2,1.4,0.6,9.7,0.9,11.2c0.2,1.5,0.4,4.4,0.4,4.9c-0.1,0.5-1.1-1.1-1.2-1.5c-0.1-0.4-1.3-0.3,0,3.3c1.3,3.6,1,14.6,0.8,16
			c-0.2,1.4-1.9,9.2,0.1,9c2-0.1,4.4,0.5,4.7-2.5c0.3-3-0.3-5.9-0.4-7.6c-0.1-1.7-1.1-9.9-0.5-14C49.9,34.6,51.1,33,51,31.7z"/>
		<path d="M90.5,18.9c-1.3-0.4-5.2-2-5.6,1.7c-0.4,3.8-0.5,5.2-0.8,6.1c-0.3,1-1,1.5-1.2,1c0,0-1.2-1.9,0,3.7c0,0,0.6,1.9-0.9,6.8
			c-1.5,4.9-2.8,12.9-2.8,12.9s-3-4.5-3.4-5.8c-0.5-1.3-3.1-1.2-3.4-0.3c-0.3,0.8-1.9,2.5-2,2.9s-1.6,2-2.1,3.3
			c-0.5,1.3-1.8-13.1-1.8-13.4s0.1-1.6-0.1-3.3c-0.3-1.7-0.7,1.3-0.9-3.2c-0.2-4.5-0.3-10.9-0.3-10.9s-0.9-2.5-4.8-2.5
			c0,0-2-0.5-1.6,1.2c0.4,1.6,1,5.6,1.2,6.6c0.2,1,0.7,4.5,0.8,5.3c0.1,0.8,1.3,14.9,1.8,17.4c0.5,2.5,2.4,8.7,2.5,9.4
			c0.1,0.7,0.1,4.9,1.7,5.1c1.6,0.2,1.9,0.2,2.3-0.9c0.4-1.1,1.6-5.6,2.1-6.3c0.4-0.7,2.7-4.3,3-4.9c0.2-0.5,1.8,4.8,2.8,6.9
			c0.9,2,1.2,4.6,3.1,4.7c1.8,0,2.5,0.1,2.8-1.4c0.3-1.5,0.8-6.3,1.2-8.2c0.4-1.9,2.5-12.8,2.9-15.6c0.4-2.8,1.7-10.8,2.3-12.3
			C89.5,23.1,91.8,19.3,90.5,18.9z"/>
		<path d="M100.8,35.8c-0.6,1,0.1-4.4,0.1-4.4s0.1-6.4,0.1-7.5c0-1,1.9-5.1-0.4-5.6c0,0-4.5-0.6-4.6,1.2c-0.1,1.8,0.6,8.5,0.3,9.9
			C96,30.8,94.8,29,94.8,29c0,0-0.9,0,0,2.2c0.9,2.3,1.3,9.2,1.2,9.6s0.5,6.8-0.1,8.1c-0.6,1.3-3,13.7-0.3,13.8
			c2.7,0.1,4.2,0.3,4.3-0.7c0.1-1,0-5.7,0.1-6.7c0.1-0.9,0.1-7.2,0.4-9.5c0.4-2.3,1.3-8.6,1.5-10C102.2,34.6,101.4,34.8,100.8,35.8z
			"/>
		<path d="M139,18.2c-1.6,0-6-1.2-5.8,0.9c0.2,2.1,1,9.5,1,10.8s-0.2,9.2-0.7,10.2c-0.4,1.1-1.5,3.9-0.8,3.7
			c0.7-0.1-0.7,14.9-7.7,14.6c-7.1-0.2-8.1-14.8-8.2-16.5c-0.1-1.7,1-2.9-0.1-3.3c-1.1-0.4-1.2,1.1-1.2-3s2.9-16.4,0.8-16.8
			c-2.1-0.5-2.9-1.2-4.9-0.7c0,0-1.2-0.3-1.1,1.7c0.1,2.1,0.9,5.8,0.6,7c-0.3,1.2,0.5,16.7,1.3,19.4c0.8,2.7,1,15.4,9.7,16.4
			c8.7,1,10.8-2.5,10.6-2.9c-0.2-0.4,5.1-5.6,5.7-11.4c0.6-5.8,1-15.2,1.5-17.2c0.6-2-0.8-0.6-0.8-0.6s0.4-3.6,0.6-5.2
			C139.5,23.7,140.6,18.3,139,18.2z"/>
		<path d="M246.8,62.2c-0.4-1-3.9-9.2-3.9-9.2s-1.6-3.4-1.9-5.2c-0.3-1.8-2.2-11.9-2.3-12.2c-0.1-0.3-2.1-7-2.1-7s-2.2-8.7-2.4-8.9
			c-0.2-0.2-0.1-1.8-2.9-1.7c0,0-2.1-0.6-3.2,1.9c-1.1,2.6-5.5,13.2-5.5,13.2s-1.8,1.7-2.1,1.3c-0.4-0.3-1.1-0.2-0.7,1.8
			c0.4,2-0.8,4.3-0.8,4.3l-5.7,20.8c0,0-1,1.1,1.4,1.2c2.4,0.1,5.5,0.4,5.3-1.4c-0.2-1.8,2.7-14.8,3.4-16.6c0.7-1.8,8.4-2.2,9-2.3
			c0.6,0,1.7-0.4,1.9-1c0.1-0.6,0.1-1.9-0.2-2.6c-0.3-0.7-0.9-0.4-1.4-0.3c-0.4,0.1-5.6,1.5-5.9,1.3c-0.3-0.2-2.8,0.6-2.8,0.6
			s4.3-11.2,6-13.8c1.6-2.6,1.8-2.1,2.2-0.4c0.4,1.7,2.9,13,3.2,14.5c0.3,1.5,1.1,8.4,1.9,10.7c0.8,2.3,1.5,7.4,1.6,7.8
			c0.1,0.3-0.6,3.4,0.8,3.5C241,62.7,247.2,63.3,246.8,62.2z"/>
		<path d="M171.8,46.1c-1.9-4-10.7-6.8-10.7-6.8s6.7-1.7,8.2-2.7c1.5-0.9,3.9-2.3,3.8-11c-0.2-8.7-13-7.1-15.4-7.2
			c-2.5-0.1-6.2,0.5-8.6,0.4c-2.5,0-0.1,6.9,0,10.2c0.1,3.3,0.2,12.3,0,13.6c-0.2,1.2-0.5,16-0.6,18.2c-0.1,2.2,2.8,1.8,2.8,1.8
			c2.9,0.4,3-0.6,3-0.6s-0.5-5.4,0.5-8.5c0.7-2.1-0.4-2.2-0.4-2.2s-0.8,0.4-0.6-1.4c0.2-2.3,0.3-7.1,0.3-7.1
			c1.7-0.5,9.2,3.6,11.2,4.9c2,1.3,4.4,7.7,5.2,11.6c0.8,3.9,1.4,3.1,1.4,3.1c5.3-0.2,4.3-1.1,4.3-1.1
			C175.6,58.1,173.6,50.2,171.8,46.1z M154.3,33c0.2-2-0.9-9.7-0.9-9.7c0.2-1.2,12.2-0.2,14.1,0.7c1.9,0.8,0.7,6.7-0.3,8.4
			c-0.9,1.7-10.7,3.4-11.6,3.5C154.7,35.8,154,35,154.3,33z"/>
		<path d="M203.6,17.3c-1,0.6-4.3,3.7-4.3,3.7s-3.9,3.9-4.6,4.2c-0.8,0.3-2.4,0.9-3.1,1.3c-0.7,0.4-0.2,0.8-0.2,0.8
			s-2.5,3.7-5.7,5.9c0,0-0.1-3.8,0.6-4.9c0.7-1.2,0.8-6.9,0.8-6.9s0.6-2.2-0.8-2.5c-1.4-0.3-3.2-0.1-3.2-0.1s-2.4-0.1-2,1.6
			c0.3,1.7,0.1,5.9,0.1,5.9s0.1,12.5-0.1,13c-0.2,0.5-1.3,4.5-1.2,5.6c0.1,1.1,0.4-0.1,0.6,0.5c0.2,0.6,0.6,1,0.5,3.5
			c-0.2,2.5,0.3,10,0.2,11c-0.1,1-0.9,2.9,2,2.9c2.9,0,3.5,0,3.5-2c-0.1-2.1-1.2-14.7-0.9-16.7c0.3-2,0.6-1.1,0.6-1.1
			s4.6,7.3,9.2,11.4c4.6,4,5.6,4.8,6.4,6.3c0.8,1.5,1.6,0.7,2.8,0.8c1.2,0.1,3.5,0.4,3.3-0.5c-0.2-0.9-4.4-6.2-5.8-7.4
			c-1.3-1.2-7.2-7.1-7.2-7.1s-0.8-2.1-1.2-2.5c-0.5-0.4-0.7,0.2-1.3-0.1c-0.6-0.4-3.9-4.3-4-4.4c-0.1-0.1-1.3-1.7-1.3-1.7
			s4.7-3.7,7.9-6.3s7.6-6.7,8.3-7.2c0.7-0.5,2.9-1.4,2.9-1.4s3.3-1,2.5-2C207.8,19.9,204.6,16.7,203.6,17.3z"/>
	</g>
	<g>
		<path d="M51.1,76.2h0.7v6.3h-0.7V76.2z"/>
		<path d="M55.5,76.2h0.6l2.5,3.3l0,0l2.5-3.3h0.6v6.3H61v-5.1l-2.3,3h-0.2l-2.3-3v5.2h-0.7V76.2z"/>
		<path d="M69.9,82.6l-0.6-1.5H66l-0.6,1.5h-0.8l2.7-6.3H68l2.7,6.3H69.9z M66.3,80.4H69l-1.3-3.2l0-0.1h0l0,0.1L66.3,80.4z"/>
		<path d="M74.4,82.2c-0.5-0.3-0.9-0.7-1.2-1.2c-0.3-0.5-0.4-1.1-0.4-1.7c0-0.6,0.1-1.2,0.4-1.7c0.3-0.5,0.7-0.9,1.2-1.2
			c0.5-0.3,1.1-0.4,1.7-0.4c0.5,0,0.9,0.1,1.3,0.3c0.4,0.2,0.8,0.4,1.1,0.7c0.3,0.3,0.5,0.7,0.6,1.1h-0.7c-0.2-0.5-0.5-0.8-0.9-1.1
			c-0.4-0.3-0.9-0.4-1.4-0.4c-0.5,0-0.9,0.1-1.3,0.3c-0.4,0.2-0.7,0.5-0.9,0.9c-0.2,0.4-0.3,0.8-0.3,1.3c0,0.5,0.1,0.9,0.3,1.3
			c0.2,0.4,0.5,0.7,0.9,0.9c0.4,0.2,0.8,0.3,1.3,0.3c0.5,0,0.9-0.1,1.3-0.3c0.4-0.2,0.6-0.4,0.8-0.7c0.2-0.3,0.3-0.7,0.4-1.1H76
			v-0.7h3.3c0,0.6-0.1,1.2-0.4,1.7c-0.3,0.5-0.6,0.9-1.1,1.2c-0.5,0.3-1.1,0.5-1.7,0.5C75.5,82.7,74.9,82.5,74.4,82.2z"/>
		<path d="M82.5,76.2h0.7v6.3h-0.7V76.2z"/>
		<path d="M86.9,76.2h0.6l4,5.1l0,0v-5.1h0.7v6.3h-0.6l-4-5.1l0,0v5.1h-0.7V76.2z"/>
		<path d="M96,76.2h4.2v0.7h-3.4V79h3v0.6h-3v2.2h3.5v0.7H96V76.2z"/>
	</g>
	<g>
		<path d="M136,76.2c0.4,0,0.8,0.1,1.1,0.3c0.3,0.2,0.6,0.4,0.7,0.7c0.2,0.3,0.3,0.7,0.3,1.1c0,0.4-0.1,0.8-0.3,1.1
			c-0.2,0.3-0.4,0.6-0.7,0.7c-0.3,0.2-0.7,0.3-1.1,0.3h-1.9v2.2h-0.7v-6.3H136z M136.7,79.5c0.2-0.1,0.4-0.3,0.5-0.5
			c0.1-0.2,0.2-0.5,0.2-0.7c0-0.3-0.1-0.5-0.2-0.7c-0.1-0.2-0.3-0.4-0.5-0.5c-0.2-0.1-0.4-0.2-0.7-0.2h-1.8v2.8h1.8
			C136.2,79.7,136.5,79.6,136.7,79.5z"/>
		<path d="M141.1,76.2h0.7v5.7h3.1v0.7h-3.9V76.2z"/>
		<path d="M152.4,82.6l-0.6-1.5h-3.3l-0.6,1.5h-0.8l2.7-6.3h0.7l2.7,6.3H152.4z M148.8,80.4h2.7l-1.3-3.2l0-0.1h0l0,0.1L148.8,80.4z
			"/>
		<path d="M156.8,80.1l-2.6-3.9h0.9l2.1,3.2h0l2.1-3.2h0.9l-2.6,3.9v2.4h-0.7V80.1z"/>
		<path d="M167.3,76.2h0.6l2.5,3.3l0,0l2.5-3.3h0.6v6.3h-0.7v-5.1l-2.3,3h-0.2l-2.3-3v5.2h-0.7V76.2z"/>
		<path d="M178.4,82.2c-0.5-0.3-0.9-0.7-1.2-1.2c-0.3-0.5-0.5-1.1-0.5-1.7c0-0.6,0.2-1.2,0.5-1.7c0.3-0.5,0.7-0.9,1.2-1.2
			c0.5-0.3,1.1-0.4,1.7-0.4c0.6,0,1.2,0.1,1.7,0.4c0.5,0.3,0.9,0.7,1.2,1.2c0.3,0.5,0.5,1.1,0.5,1.7c0,0.6-0.2,1.2-0.5,1.7
			c-0.3,0.5-0.7,0.9-1.2,1.2c-0.5,0.3-1.1,0.4-1.7,0.4C179.5,82.7,178.9,82.5,178.4,82.2z M181.4,81.6c0.4-0.2,0.7-0.5,1-0.9
			c0.2-0.4,0.4-0.8,0.4-1.3c0-0.5-0.1-0.9-0.4-1.3c-0.2-0.4-0.6-0.7-1-0.9c-0.4-0.2-0.8-0.3-1.3-0.3c-0.5,0-0.9,0.1-1.3,0.3
			c-0.4,0.2-0.7,0.5-1,0.9c-0.2,0.4-0.4,0.8-0.4,1.3c0,0.5,0.1,0.9,0.4,1.3c0.2,0.4,0.6,0.7,1,0.9c0.4,0.2,0.8,0.3,1.3,0.3
			C180.6,82,181,81.9,181.4,81.6z"/>
		<path d="M189.4,76.2c0.4,0,0.8,0.1,1.1,0.2c0.3,0.2,0.6,0.4,0.7,0.7c0.2,0.3,0.3,0.6,0.3,1c0,0.3-0.1,0.6-0.2,0.8
			c-0.1,0.3-0.3,0.5-0.5,0.6c-0.2,0.2-0.5,0.3-0.7,0.4l1.6,2.5h-0.8l-1.4-2.4c0,0-0.1,0-0.2,0h-1.7v2.4h-0.7v-6.3H189.4z
			 M190.1,79.3c0.2-0.1,0.4-0.3,0.5-0.5c0.1-0.2,0.2-0.4,0.2-0.7c0-0.3-0.1-0.5-0.2-0.7c-0.1-0.2-0.3-0.4-0.5-0.5
			c-0.2-0.1-0.4-0.2-0.7-0.2h-1.9v2.6h1.9C189.6,79.5,189.8,79.4,190.1,79.3z"/>
		<path d="M194.7,76.2h4.2v0.7h-3.4V79h3v0.6h-3v2.2h3.5v0.7h-4.2V76.2z"/>
	</g>
	<g>
		<path d="M121.5,80c0.1,0.4,0.1,2.8,0.8,2.5c0.5-0.2,0.2-1.1,0.2-1.5c0-0.7-0.2-1.4-0.3-2.1c-0.3-1.3-1.1-3-2.5-3.5
			c-1.3-0.5-2.8-0.8-4.2-0.4c-0.7,0.2-1.4,0.3-2.1,0.7c-0.7,0.5-1.2,0.9-1.7,1.7c-0.8,1.2-1.3,2.7-1.3,4.1c0,0.3-0.1,0.8,0.1,1
			c0.6,0.6,0.6-0.6,0.6-0.9c0.1-0.6,0.3-1.2,0.5-1.7c0.2-0.7,0.5-1.4,1-2c0.5-0.7,0.9-1.3,1.8-1.7c0.4-0.2,0.8-0.2,1.3-0.3
			c0.4-0.1,1-0.1,1.4-0.1c0.8,0.1,1.9,0.1,2.6,0.6c0.6,0.5,1.2,1,1.4,1.8l0,0C121.2,78.8,121.3,79.4,121.5,80z M110.3,82.3
			C110.3,82.3,110.3,82.3,110.3,82.3C110.3,82.3,110.3,82.3,110.3,82.3z"/>
		<path d="M107.9,81.2c0,0.2,0,0.4-0.1,0.6l0,0c0,0.1,0,0.2,0,0.3c0,0,0,0,0,0c0,0.1,0,0.1,0,0.2c0,0,0,0,0,0c0,0,0,0,0,0.1
			c0,0.2,0,0.3,0.2,0.4c0,0,0,0,0,0c0.7,0.2,0.7-1.2,0.7-1.4c0-1.2,0.4-2.3,0.9-3.4c0.5-0.9,0.9-1.9,1.7-2.7
			c1.8-1.9,4.7-2.3,7.2-1.9c1,0,1.8,0.6,2.6,1.2c0.4,0.3,0.8,0.5,1.1,0.9c1.5,1.9,1.8,4.3,2.1,6.6c0,0.3-0.1,0.5,0.2,0.6
			c0.4,0.1,0.5,0.1,0.5-0.4c-0.3-2.2-0.3-4.6-1.4-6.6c-0.3-0.5-0.8-0.9-1.2-1.4c-1.7-1.7-4.4-2-6.7-2c-1,0.1-1.8,0.3-3,0.7
			c-2.4,0.9-3.9,3.3-4.3,5.7C108.4,78.7,108,80.3,107.9,81.2z"/>
		<path d="M121.2,81.2c-0.4-2.4-0.3-4.6-3.1-5.1c-4.4-0.7-6.2,2.3-6.3,6.4c0,0.2,0.2,0.3,0.4,0.3c0.5,0.1,0.6-0.5,0.6-0.9
			c0-0.2,0.1-1,0.2-1.4c0.4-1.3,0.8-2.6,2-3.3c1.3-0.5,3.5-0.5,4.4,0.6c0.3,0.4,0.6,2.1,0.7,2.7c0,0.2,0,1.6,0.4,2
			C121.4,83.2,121.3,81.5,121.2,81.2z"/>
		<path d="M126.3,81.9c-0.3-3.2-0.8-5.4-2.3-8.1c0-0.1-0.1-0.1-0.1-0.2c-1.8-2.2-4.4-2.9-7.8-2.8l0,0c-3.3,0.3-5.7,0.9-7.7,4.2
			c0,0-2.4,3.9-1.8,7.2c0,0.4,0.6,0.6,0.8,0.3c0.1-0.1,0.1-0.4,0.1-0.5c0-0.1,0.1-3.2,0.7-4.3c0.6-1.8,1.6-3.4,3.1-4.5
			c0.4-0.5,2.5-1,3.5-1.1c1.8-0.3,3.6-0.4,5.4,0.2c2.8,1.4,4,2.9,4.8,7.3c0.1,1.3,0.1,3.2,0.9,3.1C126.3,82.7,126.4,82.3,126.3,81.9
			z"/>
		<path d="M113.4,82.7c0,0.1,0.3,0.1,0.4,0c0.2-0.1,0.2-0.1,0.2-0.3c0.1-0.5,0.1-1,0.2-1.5c0.2-1,0.2-1.9,1.3-2.4
			c0.7-0.3,1.9-0.4,2.5,0c0.4,0.3,0.5,0.7,0.6,1.1c0.1,0.6,0.3,1.1,0.4,1.6c0.1,0.3,0,0.9,0.2,1.2c0.3,0.4,0.7,0.2,0.7-0.2
			c0-0.4-0.1-0.9-0.2-1.3c-0.1-0.5-0.1-1-0.2-1.5c-0.2-0.8-0.7-1.9-1.7-2.2c-0.8-0.2-2-0.2-2.7,0.2c-1,0.5-1.5,1.7-1.7,2.7
			C113.5,80.4,113.1,82.6,113.4,82.7z"/>
		<path d="M122.9,81c0,0.3-0.1,1.8,0.6,1.6c0.6-0.1,0.3-1.6,0.2-2.1c-0.1-0.9-0.4-1.7-0.7-2.5c-0.2-0.7-0.4-1.4-0.9-2.1
			c-0.5-0.7-1.2-1.3-2-1.7c-0.4-0.2-0.8-0.3-1.1-0.5c-0.5-0.2-0.9-0.2-1.4-0.2c-1.9,0-3.7,0.3-5.2,1.3c-1.5,1-2.5,2.6-2.9,4.3
			c-0.2,0.9-0.5,1.7-0.5,2.6c0,0.3-0.1,0.7,0.2,0.9c0.4,0.3,0.6-0.2,0.7-0.5c0.1-0.3,0-0.7,0.1-1c0.1-0.4,0.3-0.9,0.4-1.3
			c0.3-0.7,0.5-1.5,0.8-2.2c0.8-1.6,2.5-2.5,4.2-3c0.6-0.1,1.1,0,1.6,0c0.5,0,1,0,1.5,0c0.7,0.1,1.6,0.5,2.1,0.9
			C122,77,122.8,79.1,122.9,81z"/>
	</g>
</g>
</svg>
