<?xml version="1.0" encoding="utf-8"?>
<!-- Generator: Adobe Illustrator 25.4.1, SVG Export Plug-In . SVG Version: 6.00 Build 0)  -->
<svg version="1.1" id="Capa_1" xmlns="http://www.w3.org/2000/svg" xmlns:xlink="http://www.w3.org/1999/xlink" x="0px" y="0px"
	 viewBox="0 0 659 156" style="enable-background:new 0 0 659 156;" xml:space="preserve">
<style type="text/css">
	.st0{enable-background:new    ;}
	.st1{fill:#FAFAFA;}
</style>
<g class="st0">
	<path class="st1" d="M68.3,36.5h30.3l35.3,89.5h-28l-6.2-18H63.9l-6.1,18H33L68.3,36.5z M94,91.5L82.5,54h-0.4L69.7,91.5H94z"/>
	<path class="st1" d="M199.9,63.3c-1.4-9.3-8.7-11.9-15.5-11.9c-17,0-23.2,14.9-23.2,29.9c0,21,11.5,29.8,26.5,29.8
		c4.6,0,9.2-0.6,13.8-1.5V92.2h-19v-17h42.3V123c-13,3.1-26.3,5-39.6,5c-9.7,0-23.1-1.5-33.5-9.3c-11.4-8.6-16.6-22.7-16.6-37
		c0-10.8,3.2-25.8,13.4-35.6c10.7-10,26.3-11.9,37.1-11.9c14,0,25.5,3,32.7,10.4c6.4,6.8,6.6,14.3,6.7,18.6H199.9z"/>
	<path class="st1" d="M242.2,36.7h67.2v17.1h-42.7v18.6h40.2v17.1h-40.2v19.1h43.6V126h-68.2V36.7z"/>
	<path class="st1" d="M324.6,36.5h34.2l30.3,66.7l-0.2-66.7h21.7V126h-33.5l-30.9-69.6l0.2,69.6h-21.8V36.5z"/>
	<path class="st1" d="M428.7,36.5h37.8c10.7,0,24.8,1.1,34.1,7.4c13.3,9.1,16.9,23.8,16.9,37.1c0,19.8-6.3,34.5-24.4,41.5
		c-9.2,3.5-20.1,3.5-26.3,3.5h-38.1V36.5z M454.1,108.8h10.7c16.5-0.1,27-7.2,27-28c0-27.2-20.3-27.2-27.9-27.2l-9.8-0.1V108.8z"/>
	<path class="st1" d="M552.4,36.5h30.3L618,126h-28l-6.2-18H548l-6.1,18h-24.8L552.4,36.5z M578.1,91.5L566.5,54h-0.4l-12.4,37.6
		H578.1z"/>
</g>
</svg>
