<svg xmlns="http://www.w3.org/2000/svg" width="2095" height="449" viewBox="0 0 2095 449"><g transform="translate(-2957 -1507)"><rect width="1048" height="225" transform="translate(4004 1507)" fill="#ffc802"/><g transform="translate(3538.709 509.267)"><path d="M1164.056,1008.733v35.96c-9.256,0-12.844,2.313-19.357,6.512-8.019,5.17-19,12.25-38.844,12.25s-30.825-7.08-38.843-12.25c-6.513-4.2-10.1-6.512-19.357-6.512s-12.841,2.313-19.353,6.512c-8.017,5.17-19,12.25-38.84,12.25s-30.824-7.08-38.841-12.25c-6.512-4.2-10.1-6.512-19.354-6.512s-12.84,2.313-19.352,6.512c-8.017,5.17-19,12.25-38.84,12.25s-30.822-7.08-38.839-12.25c-6.512-4.2-10.1-6.512-19.352-6.512v-35.96c19.842,0,30.823,7.08,38.84,12.25,6.511,4.2,10.1,6.512,19.351,6.512s12.841-2.313,19.353-6.512c8.016-5.17,19-12.25,38.839-12.25s30.823,7.08,38.841,12.25c6.512,4.2,10.1,6.512,19.354,6.512s12.84-2.313,19.352-6.512c8.017-5.17,19-12.25,38.841-12.25s30.825,7.08,38.843,12.25c6.513,4.2,10.1,6.512,19.357,6.512s12.845-2.313,19.359-6.512C1133.232,1015.813,1144.213,1008.733,1164.056,1008.733Z" fill="#ffb700"/><path d="M1164.056,1083.243v35.96c-9.256,0-12.844,2.313-19.357,6.512-8.019,5.17-19,12.249-38.844,12.249s-30.825-7.079-38.843-12.249c-6.513-4.2-10.1-6.512-19.357-6.512s-12.841,2.313-19.353,6.512c-8.017,5.17-19,12.249-38.84,12.249s-30.824-7.079-38.841-12.249c-6.512-4.2-10.1-6.512-19.354-6.512s-12.84,2.313-19.352,6.512c-8.017,5.17-19,12.249-38.84,12.249s-30.822-7.079-38.839-12.249c-6.512-4.2-10.1-6.512-19.352-6.512v-35.96c19.842,0,30.823,7.08,38.84,12.25,6.511,4.2,10.1,6.512,19.351,6.512s12.841-2.314,19.353-6.512c8.016-5.17,19-12.25,38.839-12.25s30.823,7.08,38.841,12.25c6.512,4.2,10.1,6.512,19.354,6.512s12.84-2.314,19.352-6.512c8.017-5.17,19-12.25,38.841-12.25s30.825,7.08,38.843,12.25c6.513,4.2,10.1,6.512,19.357,6.512s12.845-2.314,19.359-6.512C1133.232,1090.323,1144.213,1083.243,1164.056,1083.243Z" fill="#ffb700"/><path d="M1164.056,1157.753v35.96c-9.256,0-12.844,2.313-19.357,6.512-8.019,5.169-19,12.25-38.844,12.25s-30.825-7.081-38.843-12.25c-6.513-4.2-10.1-6.512-19.357-6.512s-12.841,2.313-19.353,6.512c-8.017,5.169-19,12.25-38.84,12.25s-30.824-7.081-38.841-12.25c-6.512-4.2-10.1-6.512-19.354-6.512s-12.84,2.313-19.352,6.512c-8.017,5.169-19,12.25-38.84,12.25s-30.822-7.081-38.839-12.25c-6.512-4.2-10.1-6.512-19.352-6.512v-35.96c19.842,0,30.823,7.08,38.84,12.25,6.511,4.2,10.1,6.511,19.351,6.511s12.841-2.313,19.353-6.511c8.016-5.17,19-12.25,38.839-12.25s30.823,7.08,38.841,12.25c6.512,4.2,10.1,6.511,19.354,6.511s12.84-2.313,19.352-6.511c8.017-5.17,19-12.25,38.841-12.25s30.825,7.08,38.843,12.25c6.513,4.2,10.1,6.511,19.357,6.511s12.845-2.313,19.359-6.511C1133.232,1164.833,1144.213,1157.753,1164.056,1157.753Z" fill="#ffb700"/></g><g transform="translate(3887.882 509.267)"><path d="M1164.056,1008.733v35.96c-9.256,0-12.844,2.313-19.357,6.512-8.019,5.17-19,12.25-38.844,12.25s-30.825-7.08-38.843-12.25c-6.513-4.2-10.1-6.512-19.357-6.512s-12.841,2.313-19.353,6.512c-8.017,5.17-19,12.25-38.84,12.25s-30.824-7.08-38.841-12.25c-6.512-4.2-10.1-6.512-19.354-6.512s-12.84,2.313-19.352,6.512c-8.017,5.17-19,12.25-38.84,12.25s-30.822-7.08-38.839-12.25c-6.512-4.2-10.1-6.512-19.352-6.512v-35.96c19.842,0,30.823,7.08,38.84,12.25,6.511,4.2,10.1,6.512,19.351,6.512s12.841-2.313,19.353-6.512c8.016-5.17,19-12.25,38.839-12.25s30.823,7.08,38.841,12.25c6.512,4.2,10.1,6.512,19.354,6.512s12.84-2.313,19.352-6.512c8.017-5.17,19-12.25,38.841-12.25s30.825,7.08,38.843,12.25c6.513,4.2,10.1,6.512,19.357,6.512s12.845-2.313,19.359-6.512C1133.232,1015.813,1144.213,1008.733,1164.056,1008.733Z" fill="#ffb700"/><path d="M1164.056,1083.243v35.96c-9.256,0-12.844,2.313-19.357,6.512-8.019,5.17-19,12.249-38.844,12.249s-30.825-7.079-38.843-12.249c-6.513-4.2-10.1-6.512-19.357-6.512s-12.841,2.313-19.353,6.512c-8.017,5.17-19,12.249-38.84,12.249s-30.824-7.079-38.841-12.249c-6.512-4.2-10.1-6.512-19.354-6.512s-12.84,2.313-19.352,6.512c-8.017,5.17-19,12.249-38.84,12.249s-30.822-7.079-38.839-12.249c-6.512-4.2-10.1-6.512-19.352-6.512v-35.96c19.842,0,30.823,7.08,38.84,12.25,6.511,4.2,10.1,6.512,19.351,6.512s12.841-2.314,19.353-6.512c8.016-5.17,19-12.25,38.839-12.25s30.823,7.08,38.841,12.25c6.512,4.2,10.1,6.512,19.354,6.512s12.84-2.314,19.352-6.512c8.017-5.17,19-12.25,38.841-12.25s30.825,7.08,38.843,12.25c6.513,4.2,10.1,6.512,19.357,6.512s12.845-2.314,19.359-6.512C1133.232,1090.323,1144.213,1083.243,1164.056,1083.243Z" fill="#ffb700"/><path d="M1164.056,1157.753v35.96c-9.256,0-12.844,2.313-19.357,6.512-8.019,5.169-19,12.25-38.844,12.25s-30.825-7.081-38.843-12.25c-6.513-4.2-10.1-6.512-19.357-6.512s-12.841,2.313-19.353,6.512c-8.017,5.169-19,12.25-38.84,12.25s-30.824-7.081-38.841-12.25c-6.512-4.2-10.1-6.512-19.354-6.512s-12.84,2.313-19.352,6.512c-8.017,5.169-19,12.25-38.84,12.25s-30.822-7.081-38.839-12.25c-6.512-4.2-10.1-6.512-19.352-6.512v-35.96c19.842,0,30.823,7.08,38.84,12.25,6.511,4.2,10.1,6.511,19.351,6.511s12.841-2.313,19.353-6.511c8.016-5.17,19-12.25,38.839-12.25s30.823,7.08,38.841,12.25c6.512,4.2,10.1,6.511,19.354,6.511s12.84-2.313,19.352-6.511c8.017-5.17,19-12.25,38.841-12.25s30.825,7.08,38.843,12.25c6.513,4.2,10.1,6.511,19.357,6.511s12.845-2.313,19.359-6.511C1133.232,1164.833,1144.213,1157.753,1164.056,1157.753Z" fill="#ffb700"/></g><g transform="translate(3189.538 509.267)"><path d="M1164.056,1008.733v35.96c-9.256,0-12.844,2.313-19.357,6.512-8.019,5.17-19,12.25-38.844,12.25s-30.825-7.08-38.843-12.25c-6.513-4.2-10.1-6.512-19.357-6.512s-12.841,2.313-19.353,6.512c-8.017,5.17-19,12.25-38.84,12.25s-30.824-7.08-38.841-12.25c-6.512-4.2-10.1-6.512-19.354-6.512s-12.84,2.313-19.352,6.512c-8.017,5.17-19,12.25-38.84,12.25s-30.822-7.08-38.839-12.25c-6.512-4.2-10.1-6.512-19.352-6.512v-35.96c19.842,0,30.823,7.08,38.84,12.25,6.511,4.2,10.1,6.512,19.351,6.512s12.841-2.313,19.353-6.512c8.016-5.17,19-12.25,38.839-12.25s30.823,7.08,38.841,12.25c6.512,4.2,10.1,6.512,19.354,6.512s12.84-2.313,19.352-6.512c8.017-5.17,19-12.25,38.841-12.25s30.825,7.08,38.843,12.25c6.513,4.2,10.1,6.512,19.357,6.512s12.845-2.313,19.359-6.512C1133.232,1015.813,1144.213,1008.733,1164.056,1008.733Z" fill="#ffb700"/><path d="M1164.056,1083.243v35.96c-9.256,0-12.844,2.313-19.357,6.512-8.019,5.17-19,12.249-38.844,12.249s-30.825-7.079-38.843-12.249c-6.513-4.2-10.1-6.512-19.357-6.512s-12.841,2.313-19.353,6.512c-8.017,5.17-19,12.249-38.84,12.249s-30.824-7.079-38.841-12.249c-6.512-4.2-10.1-6.512-19.354-6.512s-12.84,2.313-19.352,6.512c-8.017,5.17-19,12.249-38.84,12.249s-30.822-7.079-38.839-12.249c-6.512-4.2-10.1-6.512-19.352-6.512v-35.96c19.842,0,30.823,7.08,38.84,12.25,6.511,4.2,10.1,6.512,19.351,6.512s12.841-2.314,19.353-6.512c8.016-5.17,19-12.25,38.839-12.25s30.823,7.08,38.841,12.25c6.512,4.2,10.1,6.512,19.354,6.512s12.84-2.314,19.352-6.512c8.017-5.17,19-12.25,38.841-12.25s30.825,7.08,38.843,12.25c6.513,4.2,10.1,6.512,19.357,6.512s12.845-2.314,19.359-6.512C1133.232,1090.323,1144.213,1083.243,1164.056,1083.243Z" fill="#ffb700"/><path d="M1164.056,1157.753v35.96c-9.256,0-12.844,2.313-19.357,6.512-8.019,5.169-19,12.25-38.844,12.25s-30.825-7.081-38.843-12.25c-6.513-4.2-10.1-6.512-19.357-6.512s-12.841,2.313-19.353,6.512c-8.017,5.169-19,12.25-38.84,12.25s-30.824-7.081-38.841-12.25c-6.512-4.2-10.1-6.512-19.354-6.512s-12.84,2.313-19.352,6.512c-8.017,5.169-19,12.25-38.84,12.25s-30.822-7.081-38.839-12.25c-6.512-4.2-10.1-6.512-19.352-6.512v-35.96c19.842,0,30.823,7.08,38.84,12.25,6.511,4.2,10.1,6.511,19.351,6.511s12.841-2.313,19.353-6.511c8.016-5.17,19-12.25,38.839-12.25s30.823,7.08,38.841,12.25c6.512,4.2,10.1,6.511,19.354,6.511s12.84-2.313,19.352-6.511c8.017-5.17,19-12.25,38.841-12.25s30.825,7.08,38.843,12.25c6.513,4.2,10.1,6.511,19.357,6.511s12.845-2.313,19.359-6.511C1133.232,1164.833,1144.213,1157.753,1164.056,1157.753Z" fill="#ffb700"/></g><rect width="1048" height="225" transform="translate(4004 1731)" fill="#ffc802"/><g transform="translate(3538.709 733.267)"><path d="M1164.056,1008.733v35.96c-9.256,0-12.844,2.313-19.357,6.512-8.019,5.17-19,12.25-38.844,12.25s-30.825-7.08-38.843-12.25c-6.513-4.2-10.1-6.512-19.357-6.512s-12.841,2.313-19.353,6.512c-8.017,5.17-19,12.25-38.84,12.25s-30.824-7.08-38.841-12.25c-6.512-4.2-10.1-6.512-19.354-6.512s-12.84,2.313-19.352,6.512c-8.017,5.17-19,12.25-38.84,12.25s-30.822-7.08-38.839-12.25c-6.512-4.2-10.1-6.512-19.352-6.512v-35.96c19.842,0,30.823,7.08,38.84,12.25,6.511,4.2,10.1,6.512,19.351,6.512s12.841-2.313,19.353-6.512c8.016-5.17,19-12.25,38.839-12.25s30.823,7.08,38.841,12.25c6.512,4.2,10.1,6.512,19.354,6.512s12.84-2.313,19.352-6.512c8.017-5.17,19-12.25,38.841-12.25s30.825,7.08,38.843,12.25c6.513,4.2,10.1,6.512,19.357,6.512s12.845-2.313,19.359-6.512C1133.232,1015.813,1144.213,1008.733,1164.056,1008.733Z" fill="#ffb700"/><path d="M1164.056,1083.243v35.96c-9.256,0-12.844,2.313-19.357,6.512-8.019,5.17-19,12.249-38.844,12.249s-30.825-7.079-38.843-12.249c-6.513-4.2-10.1-6.512-19.357-6.512s-12.841,2.313-19.353,6.512c-8.017,5.17-19,12.249-38.84,12.249s-30.824-7.079-38.841-12.249c-6.512-4.2-10.1-6.512-19.354-6.512s-12.84,2.313-19.352,6.512c-8.017,5.17-19,12.249-38.84,12.249s-30.822-7.079-38.839-12.249c-6.512-4.2-10.1-6.512-19.352-6.512v-35.96c19.842,0,30.823,7.08,38.84,12.25,6.511,4.2,10.1,6.512,19.351,6.512s12.841-2.314,19.353-6.512c8.016-5.17,19-12.25,38.839-12.25s30.823,7.08,38.841,12.25c6.512,4.2,10.1,6.512,19.354,6.512s12.84-2.314,19.352-6.512c8.017-5.17,19-12.25,38.841-12.25s30.825,7.08,38.843,12.25c6.513,4.2,10.1,6.512,19.357,6.512s12.845-2.314,19.359-6.512C1133.232,1090.323,1144.213,1083.243,1164.056,1083.243Z" fill="#ffb700"/><path d="M1164.056,1157.753v35.96c-9.256,0-12.844,2.313-19.357,6.512-8.019,5.169-19,12.25-38.844,12.25s-30.825-7.081-38.843-12.25c-6.513-4.2-10.1-6.512-19.357-6.512s-12.841,2.313-19.353,6.512c-8.017,5.169-19,12.25-38.84,12.25s-30.824-7.081-38.841-12.25c-6.512-4.2-10.1-6.512-19.354-6.512s-12.84,2.313-19.352,6.512c-8.017,5.169-19,12.25-38.84,12.25s-30.822-7.081-38.839-12.25c-6.512-4.2-10.1-6.512-19.352-6.512v-35.96c19.842,0,30.823,7.08,38.84,12.25,6.511,4.2,10.1,6.511,19.351,6.511s12.841-2.313,19.353-6.511c8.016-5.17,19-12.25,38.839-12.25s30.823,7.08,38.841,12.25c6.512,4.2,10.1,6.511,19.354,6.511s12.84-2.313,19.352-6.511c8.017-5.17,19-12.25,38.841-12.25s30.825,7.08,38.843,12.25c6.513,4.2,10.1,6.511,19.357,6.511s12.845-2.313,19.359-6.511C1133.232,1164.833,1144.213,1157.753,1164.056,1157.753Z" fill="#ffb700"/></g><g transform="translate(3887.882 733.267)"><path d="M1164.056,1008.733v35.96c-9.256,0-12.844,2.313-19.357,6.512-8.019,5.17-19,12.25-38.844,12.25s-30.825-7.08-38.843-12.25c-6.513-4.2-10.1-6.512-19.357-6.512s-12.841,2.313-19.353,6.512c-8.017,5.17-19,12.25-38.84,12.25s-30.824-7.08-38.841-12.25c-6.512-4.2-10.1-6.512-19.354-6.512s-12.84,2.313-19.352,6.512c-8.017,5.17-19,12.25-38.84,12.25s-30.822-7.08-38.839-12.25c-6.512-4.2-10.1-6.512-19.352-6.512v-35.96c19.842,0,30.823,7.08,38.84,12.25,6.511,4.2,10.1,6.512,19.351,6.512s12.841-2.313,19.353-6.512c8.016-5.17,19-12.25,38.839-12.25s30.823,7.08,38.841,12.25c6.512,4.2,10.1,6.512,19.354,6.512s12.84-2.313,19.352-6.512c8.017-5.17,19-12.25,38.841-12.25s30.825,7.08,38.843,12.25c6.513,4.2,10.1,6.512,19.357,6.512s12.845-2.313,19.359-6.512C1133.232,1015.813,1144.213,1008.733,1164.056,1008.733Z" fill="#ffb700"/><path d="M1164.056,1083.243v35.96c-9.256,0-12.844,2.313-19.357,6.512-8.019,5.17-19,12.249-38.844,12.249s-30.825-7.079-38.843-12.249c-6.513-4.2-10.1-6.512-19.357-6.512s-12.841,2.313-19.353,6.512c-8.017,5.17-19,12.249-38.84,12.249s-30.824-7.079-38.841-12.249c-6.512-4.2-10.1-6.512-19.354-6.512s-12.84,2.313-19.352,6.512c-8.017,5.17-19,12.249-38.84,12.249s-30.822-7.079-38.839-12.249c-6.512-4.2-10.1-6.512-19.352-6.512v-35.96c19.842,0,30.823,7.08,38.84,12.25,6.511,4.2,10.1,6.512,19.351,6.512s12.841-2.314,19.353-6.512c8.016-5.17,19-12.25,38.839-12.25s30.823,7.08,38.841,12.25c6.512,4.2,10.1,6.512,19.354,6.512s12.84-2.314,19.352-6.512c8.017-5.17,19-12.25,38.841-12.25s30.825,7.08,38.843,12.25c6.513,4.2,10.1,6.512,19.357,6.512s12.845-2.314,19.359-6.512C1133.232,1090.323,1144.213,1083.243,1164.056,1083.243Z" fill="#ffb700"/><path d="M1164.056,1157.753v35.96c-9.256,0-12.844,2.313-19.357,6.512-8.019,5.169-19,12.25-38.844,12.25s-30.825-7.081-38.843-12.25c-6.513-4.2-10.1-6.512-19.357-6.512s-12.841,2.313-19.353,6.512c-8.017,5.169-19,12.25-38.84,12.25s-30.824-7.081-38.841-12.25c-6.512-4.2-10.1-6.512-19.354-6.512s-12.84,2.313-19.352,6.512c-8.017,5.169-19,12.25-38.84,12.25s-30.822-7.081-38.839-12.25c-6.512-4.2-10.1-6.512-19.352-6.512v-35.96c19.842,0,30.823,7.08,38.84,12.25,6.511,4.2,10.1,6.511,19.351,6.511s12.841-2.313,19.353-6.511c8.016-5.17,19-12.25,38.839-12.25s30.823,7.08,38.841,12.25c6.512,4.2,10.1,6.511,19.354,6.511s12.84-2.313,19.352-6.511c8.017-5.17,19-12.25,38.841-12.25s30.825,7.08,38.843,12.25c6.513,4.2,10.1,6.511,19.357,6.511s12.845-2.313,19.359-6.511C1133.232,1164.833,1144.213,1157.753,1164.056,1157.753Z" fill="#ffb700"/></g><g transform="translate(3189.538 733.267)"><path d="M1164.056,1008.733v35.96c-9.256,0-12.844,2.313-19.357,6.512-8.019,5.17-19,12.25-38.844,12.25s-30.825-7.08-38.843-12.25c-6.513-4.2-10.1-6.512-19.357-6.512s-12.841,2.313-19.353,6.512c-8.017,5.17-19,12.25-38.84,12.25s-30.824-7.08-38.841-12.25c-6.512-4.2-10.1-6.512-19.354-6.512s-12.84,2.313-19.352,6.512c-8.017,5.17-19,12.25-38.84,12.25s-30.822-7.08-38.839-12.25c-6.512-4.2-10.1-6.512-19.352-6.512v-35.96c19.842,0,30.823,7.08,38.84,12.25,6.511,4.2,10.1,6.512,19.351,6.512s12.841-2.313,19.353-6.512c8.016-5.17,19-12.25,38.839-12.25s30.823,7.08,38.841,12.25c6.512,4.2,10.1,6.512,19.354,6.512s12.84-2.313,19.352-6.512c8.017-5.17,19-12.25,38.841-12.25s30.825,7.08,38.843,12.25c6.513,4.2,10.1,6.512,19.357,6.512s12.845-2.313,19.359-6.512C1133.232,1015.813,1144.213,1008.733,1164.056,1008.733Z" fill="#ffb700"/><path d="M1164.056,1083.243v35.96c-9.256,0-12.844,2.313-19.357,6.512-8.019,5.17-19,12.249-38.844,12.249s-30.825-7.079-38.843-12.249c-6.513-4.2-10.1-6.512-19.357-6.512s-12.841,2.313-19.353,6.512c-8.017,5.17-19,12.249-38.84,12.249s-30.824-7.079-38.841-12.249c-6.512-4.2-10.1-6.512-19.354-6.512s-12.84,2.313-19.352,6.512c-8.017,5.17-19,12.249-38.84,12.249s-30.822-7.079-38.839-12.249c-6.512-4.2-10.1-6.512-19.352-6.512v-35.96c19.842,0,30.823,7.08,38.84,12.25,6.511,4.2,10.1,6.512,19.351,6.512s12.841-2.314,19.353-6.512c8.016-5.17,19-12.25,38.839-12.25s30.823,7.08,38.841,12.25c6.512,4.2,10.1,6.512,19.354,6.512s12.84-2.314,19.352-6.512c8.017-5.17,19-12.25,38.841-12.25s30.825,7.08,38.843,12.25c6.513,4.2,10.1,6.512,19.357,6.512s12.845-2.314,19.359-6.512C1133.232,1090.323,1144.213,1083.243,1164.056,1083.243Z" fill="#ffb700"/><path d="M1164.056,1157.753v35.96c-9.256,0-12.844,2.313-19.357,6.512-8.019,5.169-19,12.25-38.844,12.25s-30.825-7.081-38.843-12.25c-6.513-4.2-10.1-6.512-19.357-6.512s-12.841,2.313-19.353,6.512c-8.017,5.169-19,12.25-38.84,12.25s-30.824-7.081-38.841-12.25c-6.512-4.2-10.1-6.512-19.354-6.512s-12.84,2.313-19.352,6.512c-8.017,5.169-19,12.25-38.84,12.25s-30.822-7.081-38.839-12.25c-6.512-4.2-10.1-6.512-19.352-6.512v-35.96c19.842,0,30.823,7.08,38.84,12.25,6.511,4.2,10.1,6.511,19.351,6.511s12.841-2.313,19.353-6.511c8.016-5.17,19-12.25,38.839-12.25s30.823,7.08,38.841,12.25c6.512,4.2,10.1,6.511,19.354,6.511s12.84-2.313,19.352-6.511c8.017-5.17,19-12.25,38.841-12.25s30.825,7.08,38.843,12.25c6.513,4.2,10.1,6.511,19.357,6.511s12.845-2.313,19.359-6.511C1133.232,1164.833,1144.213,1157.753,1164.056,1157.753Z" fill="#ffb700"/></g><rect width="1048" height="225" transform="translate(2957 1507)" fill="#ffc802"/><g transform="translate(2491.709 509.267)"><path d="M1164.056,1008.733v35.96c-9.256,0-12.844,2.313-19.357,6.512-8.019,5.17-19,12.25-38.844,12.25s-30.825-7.08-38.843-12.25c-6.513-4.2-10.1-6.512-19.357-6.512s-12.841,2.313-19.353,6.512c-8.017,5.17-19,12.25-38.84,12.25s-30.824-7.08-38.841-12.25c-6.512-4.2-10.1-6.512-19.354-6.512s-12.84,2.313-19.352,6.512c-8.017,5.17-19,12.25-38.84,12.25s-30.822-7.08-38.839-12.25c-6.512-4.2-10.1-6.512-19.352-6.512v-35.96c19.842,0,30.823,7.08,38.84,12.25,6.511,4.2,10.1,6.512,19.351,6.512s12.841-2.313,19.353-6.512c8.016-5.17,19-12.25,38.839-12.25s30.823,7.08,38.841,12.25c6.512,4.2,10.1,6.512,19.354,6.512s12.84-2.313,19.352-6.512c8.017-5.17,19-12.25,38.841-12.25s30.825,7.08,38.843,12.25c6.513,4.2,10.1,6.512,19.357,6.512s12.845-2.313,19.359-6.512C1133.232,1015.813,1144.213,1008.733,1164.056,1008.733Z" fill="#ffb700"/><path d="M1164.056,1083.243v35.96c-9.256,0-12.844,2.313-19.357,6.512-8.019,5.17-19,12.249-38.844,12.249s-30.825-7.079-38.843-12.249c-6.513-4.2-10.1-6.512-19.357-6.512s-12.841,2.313-19.353,6.512c-8.017,5.17-19,12.249-38.84,12.249s-30.824-7.079-38.841-12.249c-6.512-4.2-10.1-6.512-19.354-6.512s-12.84,2.313-19.352,6.512c-8.017,5.17-19,12.249-38.84,12.249s-30.822-7.079-38.839-12.249c-6.512-4.2-10.1-6.512-19.352-6.512v-35.96c19.842,0,30.823,7.08,38.84,12.25,6.511,4.2,10.1,6.512,19.351,6.512s12.841-2.314,19.353-6.512c8.016-5.17,19-12.25,38.839-12.25s30.823,7.08,38.841,12.25c6.512,4.2,10.1,6.512,19.354,6.512s12.84-2.314,19.352-6.512c8.017-5.17,19-12.25,38.841-12.25s30.825,7.08,38.843,12.25c6.513,4.2,10.1,6.512,19.357,6.512s12.845-2.314,19.359-6.512C1133.232,1090.323,1144.213,1083.243,1164.056,1083.243Z" fill="#ffb700"/><path d="M1164.056,1157.753v35.96c-9.256,0-12.844,2.313-19.357,6.512-8.019,5.169-19,12.25-38.844,12.25s-30.825-7.081-38.843-12.25c-6.513-4.2-10.1-6.512-19.357-6.512s-12.841,2.313-19.353,6.512c-8.017,5.169-19,12.25-38.84,12.25s-30.824-7.081-38.841-12.25c-6.512-4.2-10.1-6.512-19.354-6.512s-12.84,2.313-19.352,6.512c-8.017,5.169-19,12.25-38.84,12.25s-30.822-7.081-38.839-12.25c-6.512-4.2-10.1-6.512-19.352-6.512v-35.96c19.842,0,30.823,7.08,38.84,12.25,6.511,4.2,10.1,6.511,19.351,6.511s12.841-2.313,19.353-6.511c8.016-5.17,19-12.25,38.839-12.25s30.823,7.08,38.841,12.25c6.512,4.2,10.1,6.511,19.354,6.511s12.84-2.313,19.352-6.511c8.017-5.17,19-12.25,38.841-12.25s30.825,7.08,38.843,12.25c6.513,4.2,10.1,6.511,19.357,6.511s12.845-2.313,19.359-6.511C1133.232,1164.833,1144.213,1157.753,1164.056,1157.753Z" fill="#ffb700"/></g><g transform="translate(2840.882 509.267)"><path d="M1164.056,1008.733v35.96c-9.256,0-12.844,2.313-19.357,6.512-8.019,5.17-19,12.25-38.844,12.25s-30.825-7.08-38.843-12.25c-6.513-4.2-10.1-6.512-19.357-6.512s-12.841,2.313-19.353,6.512c-8.017,5.17-19,12.25-38.84,12.25s-30.824-7.08-38.841-12.25c-6.512-4.2-10.1-6.512-19.354-6.512s-12.84,2.313-19.352,6.512c-8.017,5.17-19,12.25-38.84,12.25s-30.822-7.08-38.839-12.25c-6.512-4.2-10.1-6.512-19.352-6.512v-35.96c19.842,0,30.823,7.08,38.84,12.25,6.511,4.2,10.1,6.512,19.351,6.512s12.841-2.313,19.353-6.512c8.016-5.17,19-12.25,38.839-12.25s30.823,7.08,38.841,12.25c6.512,4.2,10.1,6.512,19.354,6.512s12.84-2.313,19.352-6.512c8.017-5.17,19-12.25,38.841-12.25s30.825,7.08,38.843,12.25c6.513,4.2,10.1,6.512,19.357,6.512s12.845-2.313,19.359-6.512C1133.232,1015.813,1144.213,1008.733,1164.056,1008.733Z" fill="#ffb700"/><path d="M1164.056,1083.243v35.96c-9.256,0-12.844,2.313-19.357,6.512-8.019,5.17-19,12.249-38.844,12.249s-30.825-7.079-38.843-12.249c-6.513-4.2-10.1-6.512-19.357-6.512s-12.841,2.313-19.353,6.512c-8.017,5.17-19,12.249-38.84,12.249s-30.824-7.079-38.841-12.249c-6.512-4.2-10.1-6.512-19.354-6.512s-12.84,2.313-19.352,6.512c-8.017,5.17-19,12.249-38.84,12.249s-30.822-7.079-38.839-12.249c-6.512-4.2-10.1-6.512-19.352-6.512v-35.96c19.842,0,30.823,7.08,38.84,12.25,6.511,4.2,10.1,6.512,19.351,6.512s12.841-2.314,19.353-6.512c8.016-5.17,19-12.25,38.839-12.25s30.823,7.08,38.841,12.25c6.512,4.2,10.1,6.512,19.354,6.512s12.84-2.314,19.352-6.512c8.017-5.17,19-12.25,38.841-12.25s30.825,7.08,38.843,12.25c6.513,4.2,10.1,6.512,19.357,6.512s12.845-2.314,19.359-6.512C1133.232,1090.323,1144.213,1083.243,1164.056,1083.243Z" fill="#ffb700"/><path d="M1164.056,1157.753v35.96c-9.256,0-12.844,2.313-19.357,6.512-8.019,5.169-19,12.25-38.844,12.25s-30.825-7.081-38.843-12.25c-6.513-4.2-10.1-6.512-19.357-6.512s-12.841,2.313-19.353,6.512c-8.017,5.169-19,12.25-38.84,12.25s-30.824-7.081-38.841-12.25c-6.512-4.2-10.1-6.512-19.354-6.512s-12.84,2.313-19.352,6.512c-8.017,5.169-19,12.25-38.84,12.25s-30.822-7.081-38.839-12.25c-6.512-4.2-10.1-6.512-19.352-6.512v-35.96c19.842,0,30.823,7.08,38.84,12.25,6.511,4.2,10.1,6.511,19.351,6.511s12.841-2.313,19.353-6.511c8.016-5.17,19-12.25,38.839-12.25s30.823,7.08,38.841,12.25c6.512,4.2,10.1,6.511,19.354,6.511s12.84-2.313,19.352-6.511c8.017-5.17,19-12.25,38.841-12.25s30.825,7.08,38.843,12.25c6.513,4.2,10.1,6.511,19.357,6.511s12.845-2.313,19.359-6.511C1133.232,1164.833,1144.213,1157.753,1164.056,1157.753Z" fill="#ffb700"/></g><g transform="translate(2142.538 509.267)"><path d="M1164.056,1008.733v35.96c-9.256,0-12.844,2.313-19.357,6.512-8.019,5.17-19,12.25-38.844,12.25s-30.825-7.08-38.843-12.25c-6.513-4.2-10.1-6.512-19.357-6.512s-12.841,2.313-19.353,6.512c-8.017,5.17-19,12.25-38.84,12.25s-30.824-7.08-38.841-12.25c-6.512-4.2-10.1-6.512-19.354-6.512s-12.84,2.313-19.352,6.512c-8.017,5.17-19,12.25-38.84,12.25s-30.822-7.08-38.839-12.25c-6.512-4.2-10.1-6.512-19.352-6.512v-35.96c19.842,0,30.823,7.08,38.84,12.25,6.511,4.2,10.1,6.512,19.351,6.512s12.841-2.313,19.353-6.512c8.016-5.17,19-12.25,38.839-12.25s30.823,7.08,38.841,12.25c6.512,4.2,10.1,6.512,19.354,6.512s12.84-2.313,19.352-6.512c8.017-5.17,19-12.25,38.841-12.25s30.825,7.08,38.843,12.25c6.513,4.2,10.1,6.512,19.357,6.512s12.845-2.313,19.359-6.512C1133.232,1015.813,1144.213,1008.733,1164.056,1008.733Z" fill="#ffb700"/><path d="M1164.056,1083.243v35.96c-9.256,0-12.844,2.313-19.357,6.512-8.019,5.17-19,12.249-38.844,12.249s-30.825-7.079-38.843-12.249c-6.513-4.2-10.1-6.512-19.357-6.512s-12.841,2.313-19.353,6.512c-8.017,5.17-19,12.249-38.84,12.249s-30.824-7.079-38.841-12.249c-6.512-4.2-10.1-6.512-19.354-6.512s-12.84,2.313-19.352,6.512c-8.017,5.17-19,12.249-38.84,12.249s-30.822-7.079-38.839-12.249c-6.512-4.2-10.1-6.512-19.352-6.512v-35.96c19.842,0,30.823,7.08,38.84,12.25,6.511,4.2,10.1,6.512,19.351,6.512s12.841-2.314,19.353-6.512c8.016-5.17,19-12.25,38.839-12.25s30.823,7.08,38.841,12.25c6.512,4.2,10.1,6.512,19.354,6.512s12.84-2.314,19.352-6.512c8.017-5.17,19-12.25,38.841-12.25s30.825,7.08,38.843,12.25c6.513,4.2,10.1,6.512,19.357,6.512s12.845-2.314,19.359-6.512C1133.232,1090.323,1144.213,1083.243,1164.056,1083.243Z" fill="#ffb700"/><path d="M1164.056,1157.753v35.96c-9.256,0-12.844,2.313-19.357,6.512-8.019,5.169-19,12.25-38.844,12.25s-30.825-7.081-38.843-12.25c-6.513-4.2-10.1-6.512-19.357-6.512s-12.841,2.313-19.353,6.512c-8.017,5.169-19,12.25-38.84,12.25s-30.824-7.081-38.841-12.25c-6.512-4.2-10.1-6.512-19.354-6.512s-12.84,2.313-19.352,6.512c-8.017,5.169-19,12.25-38.84,12.25s-30.822-7.081-38.839-12.25c-6.512-4.2-10.1-6.512-19.352-6.512v-35.96c19.842,0,30.823,7.08,38.84,12.25,6.511,4.2,10.1,6.511,19.351,6.511s12.841-2.313,19.353-6.511c8.016-5.17,19-12.25,38.839-12.25s30.823,7.08,38.841,12.25c6.512,4.2,10.1,6.511,19.354,6.511s12.84-2.313,19.352-6.511c8.017-5.17,19-12.25,38.841-12.25s30.825,7.08,38.843,12.25c6.513,4.2,10.1,6.511,19.357,6.511s12.845-2.313,19.359-6.511C1133.232,1164.833,1144.213,1157.753,1164.056,1157.753Z" fill="#ffb700"/></g><rect width="1048" height="225" transform="translate(2957 1731)" fill="#ffc802"/><g transform="translate(2491.709 733.267)"><path d="M1164.056,1008.733v35.96c-9.256,0-12.844,2.313-19.357,6.512-8.019,5.17-19,12.25-38.844,12.25s-30.825-7.08-38.843-12.25c-6.513-4.2-10.1-6.512-19.357-6.512s-12.841,2.313-19.353,6.512c-8.017,5.17-19,12.25-38.84,12.25s-30.824-7.08-38.841-12.25c-6.512-4.2-10.1-6.512-19.354-6.512s-12.84,2.313-19.352,6.512c-8.017,5.17-19,12.25-38.84,12.25s-30.822-7.08-38.839-12.25c-6.512-4.2-10.1-6.512-19.352-6.512v-35.96c19.842,0,30.823,7.08,38.84,12.25,6.511,4.2,10.1,6.512,19.351,6.512s12.841-2.313,19.353-6.512c8.016-5.17,19-12.25,38.839-12.25s30.823,7.08,38.841,12.25c6.512,4.2,10.1,6.512,19.354,6.512s12.84-2.313,19.352-6.512c8.017-5.17,19-12.25,38.841-12.25s30.825,7.08,38.843,12.25c6.513,4.2,10.1,6.512,19.357,6.512s12.845-2.313,19.359-6.512C1133.232,1015.813,1144.213,1008.733,1164.056,1008.733Z" fill="#ffb700"/><path d="M1164.056,1083.243v35.96c-9.256,0-12.844,2.313-19.357,6.512-8.019,5.17-19,12.249-38.844,12.249s-30.825-7.079-38.843-12.249c-6.513-4.2-10.1-6.512-19.357-6.512s-12.841,2.313-19.353,6.512c-8.017,5.17-19,12.249-38.84,12.249s-30.824-7.079-38.841-12.249c-6.512-4.2-10.1-6.512-19.354-6.512s-12.84,2.313-19.352,6.512c-8.017,5.17-19,12.249-38.84,12.249s-30.822-7.079-38.839-12.249c-6.512-4.2-10.1-6.512-19.352-6.512v-35.96c19.842,0,30.823,7.08,38.84,12.25,6.511,4.2,10.1,6.512,19.351,6.512s12.841-2.314,19.353-6.512c8.016-5.17,19-12.25,38.839-12.25s30.823,7.08,38.841,12.25c6.512,4.2,10.1,6.512,19.354,6.512s12.84-2.314,19.352-6.512c8.017-5.17,19-12.25,38.841-12.25s30.825,7.08,38.843,12.25c6.513,4.2,10.1,6.512,19.357,6.512s12.845-2.314,19.359-6.512C1133.232,1090.323,1144.213,1083.243,1164.056,1083.243Z" fill="#ffb700"/><path d="M1164.056,1157.753v35.96c-9.256,0-12.844,2.313-19.357,6.512-8.019,5.169-19,12.25-38.844,12.25s-30.825-7.081-38.843-12.25c-6.513-4.2-10.1-6.512-19.357-6.512s-12.841,2.313-19.353,6.512c-8.017,5.169-19,12.25-38.84,12.25s-30.824-7.081-38.841-12.25c-6.512-4.2-10.1-6.512-19.354-6.512s-12.84,2.313-19.352,6.512c-8.017,5.169-19,12.25-38.84,12.25s-30.822-7.081-38.839-12.25c-6.512-4.2-10.1-6.512-19.352-6.512v-35.96c19.842,0,30.823,7.08,38.84,12.25,6.511,4.2,10.1,6.511,19.351,6.511s12.841-2.313,19.353-6.511c8.016-5.17,19-12.25,38.839-12.25s30.823,7.08,38.841,12.25c6.512,4.2,10.1,6.511,19.354,6.511s12.84-2.313,19.352-6.511c8.017-5.17,19-12.25,38.841-12.25s30.825,7.08,38.843,12.25c6.513,4.2,10.1,6.511,19.357,6.511s12.845-2.313,19.359-6.511C1133.232,1164.833,1144.213,1157.753,1164.056,1157.753Z" fill="#ffb700"/></g><g transform="translate(2840.882 733.267)"><path d="M1164.056,1008.733v35.96c-9.256,0-12.844,2.313-19.357,6.512-8.019,5.17-19,12.25-38.844,12.25s-30.825-7.08-38.843-12.25c-6.513-4.2-10.1-6.512-19.357-6.512s-12.841,2.313-19.353,6.512c-8.017,5.17-19,12.25-38.84,12.25s-30.824-7.08-38.841-12.25c-6.512-4.2-10.1-6.512-19.354-6.512s-12.84,2.313-19.352,6.512c-8.017,5.17-19,12.25-38.84,12.25s-30.822-7.08-38.839-12.25c-6.512-4.2-10.1-6.512-19.352-6.512v-35.96c19.842,0,30.823,7.08,38.84,12.25,6.511,4.2,10.1,6.512,19.351,6.512s12.841-2.313,19.353-6.512c8.016-5.17,19-12.25,38.839-12.25s30.823,7.08,38.841,12.25c6.512,4.2,10.1,6.512,19.354,6.512s12.84-2.313,19.352-6.512c8.017-5.17,19-12.25,38.841-12.25s30.825,7.08,38.843,12.25c6.513,4.2,10.1,6.512,19.357,6.512s12.845-2.313,19.359-6.512C1133.232,1015.813,1144.213,1008.733,1164.056,1008.733Z" fill="#ffb700"/><path d="M1164.056,1083.243v35.96c-9.256,0-12.844,2.313-19.357,6.512-8.019,5.17-19,12.249-38.844,12.249s-30.825-7.079-38.843-12.249c-6.513-4.2-10.1-6.512-19.357-6.512s-12.841,2.313-19.353,6.512c-8.017,5.17-19,12.249-38.84,12.249s-30.824-7.079-38.841-12.249c-6.512-4.2-10.1-6.512-19.354-6.512s-12.84,2.313-19.352,6.512c-8.017,5.17-19,12.249-38.84,12.249s-30.822-7.079-38.839-12.249c-6.512-4.2-10.1-6.512-19.352-6.512v-35.96c19.842,0,30.823,7.08,38.84,12.25,6.511,4.2,10.1,6.512,19.351,6.512s12.841-2.314,19.353-6.512c8.016-5.17,19-12.25,38.839-12.25s30.823,7.08,38.841,12.25c6.512,4.2,10.1,6.512,19.354,6.512s12.84-2.314,19.352-6.512c8.017-5.17,19-12.25,38.841-12.25s30.825,7.08,38.843,12.25c6.513,4.2,10.1,6.512,19.357,6.512s12.845-2.314,19.359-6.512C1133.232,1090.323,1144.213,1083.243,1164.056,1083.243Z" fill="#ffb700"/><path d="M1164.056,1157.753v35.96c-9.256,0-12.844,2.313-19.357,6.512-8.019,5.169-19,12.25-38.844,12.25s-30.825-7.081-38.843-12.25c-6.513-4.2-10.1-6.512-19.357-6.512s-12.841,2.313-19.353,6.512c-8.017,5.169-19,12.25-38.84,12.25s-30.824-7.081-38.841-12.25c-6.512-4.2-10.1-6.512-19.354-6.512s-12.84,2.313-19.352,6.512c-8.017,5.169-19,12.25-38.84,12.25s-30.822-7.081-38.839-12.25c-6.512-4.2-10.1-6.512-19.352-6.512v-35.96c19.842,0,30.823,7.08,38.84,12.25,6.511,4.2,10.1,6.511,19.351,6.511s12.841-2.313,19.353-6.511c8.016-5.17,19-12.25,38.839-12.25s30.823,7.08,38.841,12.25c6.512,4.2,10.1,6.511,19.354,6.511s12.84-2.313,19.352-6.511c8.017-5.17,19-12.25,38.841-12.25s30.825,7.08,38.843,12.25c6.513,4.2,10.1,6.511,19.357,6.511s12.845-2.313,19.359-6.511C1133.232,1164.833,1144.213,1157.753,1164.056,1157.753Z" fill="#ffb700"/></g><g transform="translate(2142.538 733.267)"><path d="M1164.056,1008.733v35.96c-9.256,0-12.844,2.313-19.357,6.512-8.019,5.17-19,12.25-38.844,12.25s-30.825-7.08-38.843-12.25c-6.513-4.2-10.1-6.512-19.357-6.512s-12.841,2.313-19.353,6.512c-8.017,5.17-19,12.25-38.84,12.25s-30.824-7.08-38.841-12.25c-6.512-4.2-10.1-6.512-19.354-6.512s-12.84,2.313-19.352,6.512c-8.017,5.17-19,12.25-38.84,12.25s-30.822-7.08-38.839-12.25c-6.512-4.2-10.1-6.512-19.352-6.512v-35.96c19.842,0,30.823,7.08,38.84,12.25,6.511,4.2,10.1,6.512,19.351,6.512s12.841-2.313,19.353-6.512c8.016-5.17,19-12.25,38.839-12.25s30.823,7.08,38.841,12.25c6.512,4.2,10.1,6.512,19.354,6.512s12.84-2.313,19.352-6.512c8.017-5.17,19-12.25,38.841-12.25s30.825,7.08,38.843,12.25c6.513,4.2,10.1,6.512,19.357,6.512s12.845-2.313,19.359-6.512C1133.232,1015.813,1144.213,1008.733,1164.056,1008.733Z" fill="#ffb700"/><path d="M1164.056,1083.243v35.96c-9.256,0-12.844,2.313-19.357,6.512-8.019,5.17-19,12.249-38.844,12.249s-30.825-7.079-38.843-12.249c-6.513-4.2-10.1-6.512-19.357-6.512s-12.841,2.313-19.353,6.512c-8.017,5.17-19,12.249-38.84,12.249s-30.824-7.079-38.841-12.249c-6.512-4.2-10.1-6.512-19.354-6.512s-12.84,2.313-19.352,6.512c-8.017,5.17-19,12.249-38.84,12.249s-30.822-7.079-38.839-12.249c-6.512-4.2-10.1-6.512-19.352-6.512v-35.96c19.842,0,30.823,7.08,38.84,12.25,6.511,4.2,10.1,6.512,19.351,6.512s12.841-2.314,19.353-6.512c8.016-5.17,19-12.25,38.839-12.25s30.823,7.08,38.841,12.25c6.512,4.2,10.1,6.512,19.354,6.512s12.84-2.314,19.352-6.512c8.017-5.17,19-12.25,38.841-12.25s30.825,7.08,38.843,12.25c6.513,4.2,10.1,6.512,19.357,6.512s12.845-2.314,19.359-6.512C1133.232,1090.323,1144.213,1083.243,1164.056,1083.243Z" fill="#ffb700"/><path d="M1164.056,1157.753v35.96c-9.256,0-12.844,2.313-19.357,6.512-8.019,5.169-19,12.25-38.844,12.25s-30.825-7.081-38.843-12.25c-6.513-4.2-10.1-6.512-19.357-6.512s-12.841,2.313-19.353,6.512c-8.017,5.169-19,12.25-38.84,12.25s-30.824-7.081-38.841-12.25c-6.512-4.2-10.1-6.512-19.354-6.512s-12.84,2.313-19.352,6.512c-8.017,5.169-19,12.25-38.84,12.25s-30.822-7.081-38.839-12.25c-6.512-4.2-10.1-6.512-19.352-6.512v-35.96c19.842,0,30.823,7.08,38.84,12.25,6.511,4.2,10.1,6.511,19.351,6.511s12.841-2.313,19.353-6.511c8.016-5.17,19-12.25,38.839-12.25s30.823,7.08,38.841,12.25c6.512,4.2,10.1,6.511,19.354,6.511s12.84-2.313,19.352-6.511c8.017-5.17,19-12.25,38.841-12.25s30.825,7.08,38.843,12.25c6.513,4.2,10.1,6.511,19.357,6.511s12.845-2.313,19.359-6.511C1133.232,1164.833,1144.213,1157.753,1164.056,1157.753Z" fill="#ffb700"/></g></g></svg>