<svg xmlns="http://www.w3.org/2000/svg" width="163.421" height="90.807" viewBox="0 0 163.421 90.807">
  <g id="Grupo_488" data-name="Grupo 488" transform="translate(0 -239.01)">
    <g id="Grupo_457" data-name="Grupo 457">
      <g id="Grupo_443" data-name="Grupo 443">
        <path id="Trazado_915" data-name="Trazado 915" d="M23.9,311.3a5.377,5.377,0,1,1-5.377-5.376A5.377,5.377,0,0,1,23.9,311.3Z" fill="#00b774"/>
      </g>
      <g id="Grupo_444" data-name="Grupo 444">
        <path id="Trazado_916" data-name="Trazado 916" d="M37.04,312.492a5.377,5.377,0,1,1-5.377-5.377A5.377,5.377,0,0,1,37.04,312.492Z" fill="#00b774"/>
      </g>
      <g id="Grupo_445" data-name="Grupo 445">
        <path id="Trazado_917" data-name="Trazado 917" d="M10.753,323.245a5.377,5.377,0,1,1-5.376-5.376A5.376,5.376,0,0,1,10.753,323.245Z" fill="#00b774"/>
      </g>
      <g id="Grupo_446" data-name="Grupo 446">
        <path id="Trazado_918" data-name="Trazado 918" d="M23.9,324.441a5.377,5.377,0,1,1-5.377-5.377A5.378,5.378,0,0,1,23.9,324.441Z" fill="#00b774"/>
      </g>
      <g id="Grupo_447" data-name="Grupo 447">
        <path id="Trazado_919" data-name="Trazado 919" d="M10.753,244.387a5.377,5.377,0,1,1-5.376-5.377A5.376,5.376,0,0,1,10.753,244.387Z" fill="#00b774"/>
      </g>
      <g id="Grupo_448" data-name="Grupo 448">
        <path id="Trazado_920" data-name="Trazado 920" d="M23.9,245.582a5.377,5.377,0,1,1-5.377-5.377A5.377,5.377,0,0,1,23.9,245.582Z" fill="#00b774"/>
      </g>
      <g id="Grupo_449" data-name="Grupo 449">
        <path id="Trazado_921" data-name="Trazado 921" d="M37.04,299.05a5.377,5.377,0,1,1-5.377-5.376A5.377,5.377,0,0,1,37.04,299.05Z" fill="#00b774"/>
      </g>
      <g id="Grupo_450" data-name="Grupo 450">
        <path id="Trazado_922" data-name="Trazado 922" d="M37.04,272.166a5.377,5.377,0,1,1-5.377-5.376A5.377,5.377,0,0,1,37.04,272.166Z" fill="#00b774"/>
      </g>
      <g id="Grupo_451" data-name="Grupo 451">
        <path id="Trazado_923" data-name="Trazado 923" d="M23.9,258.725a5.377,5.377,0,1,1-5.377-5.377A5.378,5.378,0,0,1,23.9,258.725Z" fill="#00b774"/>
      </g>
      <g id="Grupo_452" data-name="Grupo 452">
        <circle id="Elipse_539" data-name="Elipse 539" cx="5.377" cy="5.377" r="5.377" transform="translate(26.286 253.348)" fill="#00b774"/>
      </g>
      <g id="Grupo_453" data-name="Grupo 453">
        <path id="Trazado_924" data-name="Trazado 924" d="M50.183,285.011a5.377,5.377,0,1,1-5.377-5.376A5.378,5.378,0,0,1,50.183,285.011Z" fill="#00b774"/>
      </g>
      <g id="Grupo_454" data-name="Grupo 454">
        <path id="Trazado_925" data-name="Trazado 925" d="M50.183,298.154a5.377,5.377,0,1,1-5.377-5.377A5.377,5.377,0,0,1,50.183,298.154Z" fill="#00b774"/>
      </g>
      <g id="Grupo_455" data-name="Grupo 455">
        <path id="Trazado_926" data-name="Trazado 926" d="M63.325,285.011a5.377,5.377,0,1,1-5.376-5.376A5.377,5.377,0,0,1,63.325,285.011Z" fill="#00b774"/>
      </g>
      <g id="Grupo_456" data-name="Grupo 456">
        <path id="Trazado_927" data-name="Trazado 927" d="M50.183,271.868a5.377,5.377,0,1,1-5.377-5.377A5.377,5.377,0,0,1,50.183,271.868Z" fill="#00b774"/>
      </g>
    </g>
    <g id="Grupo_472" data-name="Grupo 472">
      <g id="Grupo_458" data-name="Grupo 458">
        <path id="Trazado_928" data-name="Trazado 928" d="M72.514,311.3a5.376,5.376,0,1,1-5.377-5.376A5.377,5.377,0,0,1,72.514,311.3Z" fill="#00b774"/>
      </g>
      <g id="Grupo_459" data-name="Grupo 459">
        <path id="Trazado_929" data-name="Trazado 929" d="M85.657,312.492a5.376,5.376,0,1,1-5.377-5.377A5.377,5.377,0,0,1,85.657,312.492Z" fill="#00b774"/>
      </g>
      <g id="Grupo_460" data-name="Grupo 460">
        <path id="Trazado_930" data-name="Trazado 930" d="M59.371,323.245a5.377,5.377,0,1,1-5.376-5.376A5.376,5.376,0,0,1,59.371,323.245Z" fill="#00b774"/>
      </g>
      <g id="Grupo_461" data-name="Grupo 461">
        <path id="Trazado_931" data-name="Trazado 931" d="M72.514,324.441a5.376,5.376,0,1,1-5.377-5.377A5.377,5.377,0,0,1,72.514,324.441Z" fill="#00b774"/>
      </g>
      <g id="Grupo_462" data-name="Grupo 462">
        <path id="Trazado_932" data-name="Trazado 932" d="M59.371,244.387a5.377,5.377,0,1,1-5.376-5.377A5.376,5.376,0,0,1,59.371,244.387Z" fill="#00b774"/>
      </g>
      <g id="Grupo_463" data-name="Grupo 463">
        <path id="Trazado_933" data-name="Trazado 933" d="M72.514,245.582a5.376,5.376,0,1,1-5.377-5.377A5.376,5.376,0,0,1,72.514,245.582Z" fill="#00b774"/>
      </g>
      <g id="Grupo_464" data-name="Grupo 464">
        <path id="Trazado_934" data-name="Trazado 934" d="M85.657,299.05a5.376,5.376,0,1,1-5.377-5.376A5.377,5.377,0,0,1,85.657,299.05Z" fill="#00b774"/>
      </g>
      <g id="Grupo_465" data-name="Grupo 465">
        <path id="Trazado_935" data-name="Trazado 935" d="M85.657,272.166a5.376,5.376,0,1,1-5.377-5.376A5.377,5.377,0,0,1,85.657,272.166Z" fill="#00b774"/>
      </g>
      <g id="Grupo_466" data-name="Grupo 466">
        <path id="Trazado_936" data-name="Trazado 936" d="M72.514,258.725a5.376,5.376,0,1,1-5.377-5.377A5.377,5.377,0,0,1,72.514,258.725Z" fill="#00b774"/>
      </g>
      <g id="Grupo_467" data-name="Grupo 467">
        <path id="Trazado_937" data-name="Trazado 937" d="M85.657,258.725a5.376,5.376,0,1,1-5.377-5.377A5.377,5.377,0,0,1,85.657,258.725Z" fill="#00b774"/>
      </g>
      <g id="Grupo_468" data-name="Grupo 468">
        <path id="Trazado_938" data-name="Trazado 938" d="M98.8,285.011a5.377,5.377,0,1,1-5.376-5.376A5.377,5.377,0,0,1,98.8,285.011Z" fill="#00b774"/>
      </g>
      <g id="Grupo_469" data-name="Grupo 469">
        <path id="Trazado_939" data-name="Trazado 939" d="M98.8,298.154a5.377,5.377,0,1,1-5.376-5.377A5.376,5.376,0,0,1,98.8,298.154Z" fill="#00b774"/>
      </g>
      <g id="Grupo_470" data-name="Grupo 470">
        <path id="Trazado_940" data-name="Trazado 940" d="M111.943,285.011a5.376,5.376,0,1,1-5.376-5.376A5.377,5.377,0,0,1,111.943,285.011Z" fill="#00b774"/>
      </g>
      <g id="Grupo_471" data-name="Grupo 471">
        <path id="Trazado_941" data-name="Trazado 941" d="M98.8,271.868a5.377,5.377,0,1,1-5.376-5.377A5.376,5.376,0,0,1,98.8,271.868Z" fill="#00b774"/>
      </g>
    </g>
    <g id="Grupo_487" data-name="Grupo 487">
      <g id="Grupo_473" data-name="Grupo 473">
        <path id="Trazado_942" data-name="Trazado 942" d="M123.992,311.3a5.376,5.376,0,1,1-5.377-5.376A5.377,5.377,0,0,1,123.992,311.3Z" fill="#00b774"/>
      </g>
      <g id="Grupo_474" data-name="Grupo 474">
        <path id="Trazado_943" data-name="Trazado 943" d="M137.135,312.492a5.377,5.377,0,1,1-5.377-5.377A5.378,5.378,0,0,1,137.135,312.492Z" fill="#00b774"/>
      </g>
      <g id="Grupo_475" data-name="Grupo 475">
        <path id="Trazado_944" data-name="Trazado 944" d="M110.849,323.245a5.377,5.377,0,1,1-5.377-5.376A5.377,5.377,0,0,1,110.849,323.245Z" fill="#00b774"/>
      </g>
      <g id="Grupo_476" data-name="Grupo 476">
        <path id="Trazado_945" data-name="Trazado 945" d="M123.992,324.441a5.376,5.376,0,1,1-5.377-5.377A5.377,5.377,0,0,1,123.992,324.441Z" fill="#00b774"/>
      </g>
      <g id="Grupo_477" data-name="Grupo 477">
        <path id="Trazado_946" data-name="Trazado 946" d="M110.849,244.387a5.377,5.377,0,1,1-5.377-5.377A5.377,5.377,0,0,1,110.849,244.387Z" fill="#00b774"/>
      </g>
      <g id="Grupo_478" data-name="Grupo 478">
        <path id="Trazado_947" data-name="Trazado 947" d="M123.992,245.582a5.376,5.376,0,1,1-5.377-5.377A5.376,5.376,0,0,1,123.992,245.582Z" fill="#00b774"/>
      </g>
      <g id="Grupo_479" data-name="Grupo 479">
        <path id="Trazado_948" data-name="Trazado 948" d="M137.135,299.05a5.377,5.377,0,1,1-5.377-5.376A5.377,5.377,0,0,1,137.135,299.05Z" fill="#00b774"/>
      </g>
      <g id="Grupo_480" data-name="Grupo 480">
        <path id="Trazado_949" data-name="Trazado 949" d="M137.135,272.166a5.377,5.377,0,1,1-5.377-5.376A5.378,5.378,0,0,1,137.135,272.166Z" fill="#00b774"/>
      </g>
      <g id="Grupo_481" data-name="Grupo 481">
        <path id="Trazado_950" data-name="Trazado 950" d="M123.992,258.725a5.376,5.376,0,1,1-5.377-5.377A5.377,5.377,0,0,1,123.992,258.725Z" fill="#00b774"/>
      </g>
      <g id="Grupo_482" data-name="Grupo 482">
        <path id="Trazado_951" data-name="Trazado 951" d="M137.135,258.725a5.377,5.377,0,1,1-5.377-5.377A5.378,5.378,0,0,1,137.135,258.725Z" fill="#00b774"/>
      </g>
      <g id="Grupo_483" data-name="Grupo 483">
        <path id="Trazado_952" data-name="Trazado 952" d="M150.278,285.011a5.377,5.377,0,1,1-5.377-5.376A5.377,5.377,0,0,1,150.278,285.011Z" fill="#00b774"/>
      </g>
      <g id="Grupo_484" data-name="Grupo 484">
        <path id="Trazado_953" data-name="Trazado 953" d="M150.278,298.154a5.377,5.377,0,1,1-5.377-5.377A5.377,5.377,0,0,1,150.278,298.154Z" fill="#00b774"/>
      </g>
      <g id="Grupo_485" data-name="Grupo 485">
        <path id="Trazado_954" data-name="Trazado 954" d="M163.421,285.011a5.377,5.377,0,1,1-5.376-5.376A5.378,5.378,0,0,1,163.421,285.011Z" fill="#00b774"/>
      </g>
      <g id="Grupo_486" data-name="Grupo 486">
        <path id="Trazado_955" data-name="Trazado 955" d="M150.278,271.868a5.377,5.377,0,1,1-5.377-5.377A5.376,5.376,0,0,1,150.278,271.868Z" fill="#00b774"/>
      </g>
    </g>
  </g>
</svg>
