<svg xmlns="http://www.w3.org/2000/svg" width="1038.471" height="151.487" viewBox="0 0 1038.471 151.487">
  <g id="Grupo_439" data-name="Grupo 439" transform="translate(-18046.529 -1429)">
    <g id="Grupo_438" data-name="Grupo 438" transform="translate(18431 811)">
      <g id="Grupo_381" data-name="Grupo 381" transform="translate(-420.502 -390.733)" opacity="0.07">
        <g id="Grupo_24" data-name="Grupo 24" transform="translate(814.884 1008.733)">
          <path id="Trazado_84" data-name="Trazado 84" d="M1074.5,1008.733v26.737c-6.882,0-9.55,1.72-14.392,4.842-5.962,3.844-14.127,9.108-28.881,9.108s-22.919-5.264-28.881-9.108c-4.843-3.122-7.511-4.842-14.392-4.842s-9.548,1.72-14.389,4.842c-5.961,3.844-14.125,9.108-28.879,9.108s-22.918-5.264-28.879-9.108c-4.842-3.122-7.509-4.842-14.39-4.842s-9.547,1.72-14.389,4.842c-5.961,3.844-14.125,9.108-28.878,9.108s-22.917-5.264-28.878-9.108c-4.842-3.122-7.509-4.842-14.389-4.842v-26.737c14.753,0,22.918,5.264,28.879,9.108,4.841,3.122,7.508,4.842,14.388,4.842s9.548-1.72,14.389-4.842c5.96-3.844,14.125-9.108,28.878-9.108s22.918,5.264,28.879,9.108c4.842,3.122,7.509,4.842,14.39,4.842s9.547-1.72,14.389-4.842c5.961-3.844,14.125-9.108,28.879-9.108s22.919,5.264,28.881,9.108c4.843,3.122,7.51,4.842,14.392,4.842s9.551-1.72,14.394-4.842C1051.584,1014,1059.748,1008.733,1074.5,1008.733Z" transform="translate(-814.884 -1008.733)"/>
        </g>
        <g id="Grupo_25" data-name="Grupo 25" transform="translate(814.884 1064.133)">
          <path id="Trazado_85" data-name="Trazado 85" d="M1074.5,1083.243v26.737c-6.882,0-9.55,1.72-14.392,4.842-5.962,3.844-14.127,9.107-28.881,9.107s-22.919-5.263-28.881-9.107c-4.843-3.122-7.511-4.842-14.392-4.842s-9.548,1.72-14.389,4.842c-5.961,3.844-14.125,9.107-28.879,9.107s-22.918-5.263-28.879-9.107c-4.842-3.122-7.509-4.842-14.39-4.842s-9.547,1.72-14.389,4.842c-5.961,3.844-14.125,9.107-28.878,9.107s-22.917-5.263-28.878-9.107c-4.842-3.122-7.509-4.842-14.389-4.842v-26.737c14.753,0,22.918,5.264,28.879,9.108,4.841,3.121,7.508,4.842,14.388,4.842s9.548-1.721,14.389-4.842c5.96-3.844,14.125-9.108,28.878-9.108s22.918,5.264,28.879,9.108c4.842,3.121,7.509,4.842,14.39,4.842s9.547-1.721,14.389-4.842c5.961-3.844,14.125-9.108,28.879-9.108s22.919,5.264,28.881,9.108c4.843,3.121,7.51,4.842,14.392,4.842s9.551-1.721,14.394-4.842C1051.584,1088.507,1059.748,1083.243,1074.5,1083.243Z" transform="translate(-814.884 -1083.243)"/>
        </g>
        <g id="Grupo_26" data-name="Grupo 26" transform="translate(814.884 1119.533)">
          <path id="Trazado_86" data-name="Trazado 86" d="M1074.5,1157.753v26.737c-6.882,0-9.55,1.72-14.392,4.842-5.962,3.843-14.127,9.108-28.881,9.108s-22.919-5.265-28.881-9.108c-4.843-3.122-7.511-4.842-14.392-4.842s-9.548,1.72-14.389,4.842c-5.961,3.843-14.125,9.108-28.879,9.108s-22.918-5.265-28.879-9.108c-4.842-3.122-7.509-4.842-14.39-4.842s-9.547,1.72-14.389,4.842c-5.961,3.843-14.125,9.108-28.878,9.108s-22.917-5.265-28.878-9.108c-4.842-3.122-7.509-4.842-14.389-4.842v-26.737c14.753,0,22.918,5.264,28.879,9.108,4.841,3.121,7.508,4.841,14.388,4.841s9.548-1.72,14.389-4.841c5.96-3.844,14.125-9.108,28.878-9.108s22.918,5.264,28.879,9.108c4.842,3.121,7.509,4.841,14.39,4.841s9.547-1.72,14.389-4.841c5.961-3.844,14.125-9.108,28.879-9.108s22.919,5.264,28.881,9.108c4.843,3.121,7.51,4.841,14.392,4.841s9.551-1.72,14.394-4.841C1051.584,1163.017,1059.748,1157.753,1074.5,1157.753Z" transform="translate(-814.884 -1157.753)"/>
        </g>
      </g>
      <g id="Grupo_436" data-name="Grupo 436" transform="translate(-680.119 -390.733)" opacity="0.07">
        <g id="Grupo_24-2" data-name="Grupo 24" transform="translate(814.884 1008.733)">
          <path id="Trazado_84-2" data-name="Trazado 84" d="M1074.5,1008.733v26.737c-6.882,0-9.55,1.72-14.392,4.842-5.962,3.844-14.127,9.108-28.881,9.108s-22.919-5.264-28.881-9.108c-4.843-3.122-7.511-4.842-14.392-4.842s-9.548,1.72-14.389,4.842c-5.961,3.844-14.125,9.108-28.879,9.108s-22.918-5.264-28.879-9.108c-4.842-3.122-7.509-4.842-14.39-4.842s-9.547,1.72-14.389,4.842c-5.961,3.844-14.125,9.108-28.878,9.108s-22.917-5.264-28.878-9.108c-4.842-3.122-7.509-4.842-14.389-4.842v-26.737c14.753,0,22.918,5.264,28.879,9.108,4.841,3.122,7.508,4.842,14.388,4.842s9.548-1.72,14.389-4.842c5.96-3.844,14.125-9.108,28.878-9.108s22.918,5.264,28.879,9.108c4.842,3.122,7.509,4.842,14.39,4.842s9.547-1.72,14.389-4.842c5.961-3.844,14.125-9.108,28.879-9.108s22.919,5.264,28.881,9.108c4.843,3.122,7.51,4.842,14.392,4.842s9.551-1.72,14.394-4.842C1051.584,1014,1059.748,1008.733,1074.5,1008.733Z" transform="translate(-814.884 -1008.733)"/>
        </g>
        <g id="Grupo_25-2" data-name="Grupo 25" transform="translate(814.884 1064.133)">
          <path id="Trazado_85-2" data-name="Trazado 85" d="M1074.5,1083.243v26.737c-6.882,0-9.55,1.72-14.392,4.842-5.962,3.844-14.127,9.107-28.881,9.107s-22.919-5.263-28.881-9.107c-4.843-3.122-7.511-4.842-14.392-4.842s-9.548,1.72-14.389,4.842c-5.961,3.844-14.125,9.107-28.879,9.107s-22.918-5.263-28.879-9.107c-4.842-3.122-7.509-4.842-14.39-4.842s-9.547,1.72-14.389,4.842c-5.961,3.844-14.125,9.107-28.878,9.107s-22.917-5.263-28.878-9.107c-4.842-3.122-7.509-4.842-14.389-4.842v-26.737c14.753,0,22.918,5.264,28.879,9.108,4.841,3.121,7.508,4.842,14.388,4.842s9.548-1.721,14.389-4.842c5.96-3.844,14.125-9.108,28.878-9.108s22.918,5.264,28.879,9.108c4.842,3.121,7.509,4.842,14.39,4.842s9.547-1.721,14.389-4.842c5.961-3.844,14.125-9.108,28.879-9.108s22.919,5.264,28.881,9.108c4.843,3.121,7.51,4.842,14.392,4.842s9.551-1.721,14.394-4.842C1051.584,1088.507,1059.748,1083.243,1074.5,1083.243Z" transform="translate(-814.884 -1083.243)"/>
        </g>
        <g id="Grupo_26-2" data-name="Grupo 26" transform="translate(814.884 1119.533)">
          <path id="Trazado_86-2" data-name="Trazado 86" d="M1074.5,1157.753v26.737c-6.882,0-9.55,1.72-14.392,4.842-5.962,3.843-14.127,9.108-28.881,9.108s-22.919-5.265-28.881-9.108c-4.843-3.122-7.511-4.842-14.392-4.842s-9.548,1.72-14.389,4.842c-5.961,3.843-14.125,9.108-28.879,9.108s-22.918-5.265-28.879-9.108c-4.842-3.122-7.509-4.842-14.39-4.842s-9.547,1.72-14.389,4.842c-5.961,3.843-14.125,9.108-28.878,9.108s-22.917-5.265-28.878-9.108c-4.842-3.122-7.509-4.842-14.389-4.842v-26.737c14.753,0,22.918,5.264,28.879,9.108,4.841,3.121,7.508,4.841,14.388,4.841s9.548-1.72,14.389-4.841c5.96-3.844,14.125-9.108,28.878-9.108s22.918,5.264,28.879,9.108c4.842,3.121,7.509,4.841,14.39,4.841s9.547-1.72,14.389-4.841c5.961-3.844,14.125-9.108,28.879-9.108s22.919,5.264,28.881,9.108c4.843,3.121,7.51,4.841,14.392,4.841s9.551-1.72,14.394-4.841C1051.584,1163.017,1059.748,1157.753,1074.5,1157.753Z" transform="translate(-814.884 -1157.753)"/>
        </g>
      </g>
      <g id="Grupo_382" data-name="Grupo 382" transform="translate(-1199.356 -390.733)" opacity="0.07">
        <g id="Grupo_24-3" data-name="Grupo 24" transform="translate(814.884 1008.733)">
          <path id="Trazado_84-3" data-name="Trazado 84" d="M1074.5,1008.733v26.737c-6.882,0-9.55,1.72-14.392,4.842-5.962,3.844-14.127,9.108-28.881,9.108s-22.919-5.264-28.881-9.108c-4.843-3.122-7.511-4.842-14.392-4.842s-9.548,1.72-14.389,4.842c-5.961,3.844-14.125,9.108-28.879,9.108s-22.918-5.264-28.879-9.108c-4.842-3.122-7.509-4.842-14.39-4.842s-9.547,1.72-14.389,4.842c-5.961,3.844-14.125,9.108-28.878,9.108s-22.917-5.264-28.878-9.108c-4.842-3.122-7.509-4.842-14.389-4.842v-26.737c14.753,0,22.918,5.264,28.879,9.108,4.841,3.122,7.508,4.842,14.388,4.842s9.548-1.72,14.389-4.842c5.96-3.844,14.125-9.108,28.878-9.108s22.918,5.264,28.879,9.108c4.842,3.122,7.509,4.842,14.39,4.842s9.547-1.72,14.389-4.842c5.961-3.844,14.125-9.108,28.879-9.108s22.919,5.264,28.881,9.108c4.843,3.122,7.51,4.842,14.392,4.842s9.551-1.72,14.394-4.842C1051.584,1014,1059.748,1008.733,1074.5,1008.733Z" transform="translate(-814.884 -1008.733)"/>
        </g>
        <g id="Grupo_25-3" data-name="Grupo 25" transform="translate(814.884 1064.133)">
          <path id="Trazado_85-3" data-name="Trazado 85" d="M1074.5,1083.243v26.737c-6.882,0-9.55,1.72-14.392,4.842-5.962,3.844-14.127,9.107-28.881,9.107s-22.919-5.263-28.881-9.107c-4.843-3.122-7.511-4.842-14.392-4.842s-9.548,1.72-14.389,4.842c-5.961,3.844-14.125,9.107-28.879,9.107s-22.918-5.263-28.879-9.107c-4.842-3.122-7.509-4.842-14.39-4.842s-9.547,1.72-14.389,4.842c-5.961,3.844-14.125,9.107-28.878,9.107s-22.917-5.263-28.878-9.107c-4.842-3.122-7.509-4.842-14.389-4.842v-26.737c14.753,0,22.918,5.264,28.879,9.108,4.841,3.121,7.508,4.842,14.388,4.842s9.548-1.721,14.389-4.842c5.96-3.844,14.125-9.108,28.878-9.108s22.918,5.264,28.879,9.108c4.842,3.121,7.509,4.842,14.39,4.842s9.547-1.721,14.389-4.842c5.961-3.844,14.125-9.108,28.879-9.108s22.919,5.264,28.881,9.108c4.843,3.121,7.51,4.842,14.392,4.842s9.551-1.721,14.394-4.842C1051.584,1088.507,1059.748,1083.243,1074.5,1083.243Z" transform="translate(-814.884 -1083.243)"/>
        </g>
        <g id="Grupo_26-3" data-name="Grupo 26" transform="translate(814.884 1119.533)">
          <path id="Trazado_86-3" data-name="Trazado 86" d="M1074.5,1157.753v26.737c-6.882,0-9.55,1.72-14.392,4.842-5.962,3.843-14.127,9.108-28.881,9.108s-22.919-5.265-28.881-9.108c-4.843-3.122-7.511-4.842-14.392-4.842s-9.548,1.72-14.389,4.842c-5.961,3.843-14.125,9.108-28.879,9.108s-22.918-5.265-28.879-9.108c-4.842-3.122-7.509-4.842-14.39-4.842s-9.547,1.72-14.389,4.842c-5.961,3.843-14.125,9.108-28.878,9.108s-22.917-5.265-28.878-9.108c-4.842-3.122-7.509-4.842-14.389-4.842v-26.737c14.753,0,22.918,5.264,28.879,9.108,4.841,3.121,7.508,4.841,14.388,4.841s9.548-1.72,14.389-4.841c5.96-3.844,14.125-9.108,28.878-9.108s22.918,5.264,28.879,9.108c4.842,3.121,7.509,4.841,14.39,4.841s9.547-1.72,14.389-4.841c5.961-3.844,14.125-9.108,28.879-9.108s22.919,5.264,28.881,9.108c4.843,3.121,7.51,4.841,14.392,4.841s9.551-1.72,14.394-4.841C1051.584,1163.017,1059.748,1157.753,1074.5,1157.753Z" transform="translate(-814.884 -1157.753)"/>
        </g>
      </g>
      <g id="Grupo_437" data-name="Grupo 437" transform="translate(-939.737 -390.733)" opacity="0.07">
        <g id="Grupo_24-4" data-name="Grupo 24" transform="translate(814.884 1008.733)">
          <path id="Trazado_84-4" data-name="Trazado 84" d="M1074.5,1008.733v26.737c-6.882,0-9.55,1.72-14.392,4.842-5.962,3.844-14.127,9.108-28.881,9.108s-22.919-5.264-28.881-9.108c-4.843-3.122-7.511-4.842-14.392-4.842s-9.548,1.72-14.389,4.842c-5.961,3.844-14.125,9.108-28.879,9.108s-22.918-5.264-28.879-9.108c-4.842-3.122-7.509-4.842-14.39-4.842s-9.547,1.72-14.389,4.842c-5.961,3.844-14.125,9.108-28.878,9.108s-22.917-5.264-28.878-9.108c-4.842-3.122-7.509-4.842-14.389-4.842v-26.737c14.753,0,22.918,5.264,28.879,9.108,4.841,3.122,7.508,4.842,14.388,4.842s9.548-1.72,14.389-4.842c5.96-3.844,14.125-9.108,28.878-9.108s22.918,5.264,28.879,9.108c4.842,3.122,7.509,4.842,14.39,4.842s9.547-1.72,14.389-4.842c5.961-3.844,14.125-9.108,28.879-9.108s22.919,5.264,28.881,9.108c4.843,3.122,7.51,4.842,14.392,4.842s9.551-1.72,14.394-4.842C1051.584,1014,1059.748,1008.733,1074.5,1008.733Z" transform="translate(-814.884 -1008.733)"/>
        </g>
        <g id="Grupo_25-4" data-name="Grupo 25" transform="translate(814.884 1064.133)">
          <path id="Trazado_85-4" data-name="Trazado 85" d="M1074.5,1083.243v26.737c-6.882,0-9.55,1.72-14.392,4.842-5.962,3.844-14.127,9.107-28.881,9.107s-22.919-5.263-28.881-9.107c-4.843-3.122-7.511-4.842-14.392-4.842s-9.548,1.72-14.389,4.842c-5.961,3.844-14.125,9.107-28.879,9.107s-22.918-5.263-28.879-9.107c-4.842-3.122-7.509-4.842-14.39-4.842s-9.547,1.72-14.389,4.842c-5.961,3.844-14.125,9.107-28.878,9.107s-22.917-5.263-28.878-9.107c-4.842-3.122-7.509-4.842-14.389-4.842v-26.737c14.753,0,22.918,5.264,28.879,9.108,4.841,3.121,7.508,4.842,14.388,4.842s9.548-1.721,14.389-4.842c5.96-3.844,14.125-9.108,28.878-9.108s22.918,5.264,28.879,9.108c4.842,3.121,7.509,4.842,14.39,4.842s9.547-1.721,14.389-4.842c5.961-3.844,14.125-9.108,28.879-9.108s22.919,5.264,28.881,9.108c4.843,3.121,7.51,4.842,14.392,4.842s9.551-1.721,14.394-4.842C1051.584,1088.507,1059.748,1083.243,1074.5,1083.243Z" transform="translate(-814.884 -1083.243)"/>
        </g>
        <g id="Grupo_26-4" data-name="Grupo 26" transform="translate(814.884 1119.533)">
          <path id="Trazado_86-4" data-name="Trazado 86" d="M1074.5,1157.753v26.737c-6.882,0-9.55,1.72-14.392,4.842-5.962,3.843-14.127,9.108-28.881,9.108s-22.919-5.265-28.881-9.108c-4.843-3.122-7.511-4.842-14.392-4.842s-9.548,1.72-14.389,4.842c-5.961,3.843-14.125,9.108-28.879,9.108s-22.918-5.265-28.879-9.108c-4.842-3.122-7.509-4.842-14.39-4.842s-9.547,1.72-14.389,4.842c-5.961,3.843-14.125,9.108-28.878,9.108s-22.917-5.265-28.878-9.108c-4.842-3.122-7.509-4.842-14.389-4.842v-26.737c14.753,0,22.918,5.264,28.879,9.108,4.841,3.121,7.508,4.841,14.388,4.841s9.548-1.72,14.389-4.841c5.96-3.844,14.125-9.108,28.878-9.108s22.918,5.264,28.879,9.108c4.842,3.121,7.509,4.841,14.39,4.841s9.547-1.72,14.389-4.841c5.961-3.844,14.125-9.108,28.879-9.108s22.919,5.264,28.881,9.108c4.843,3.121,7.51,4.841,14.392,4.841s9.551-1.72,14.394-4.841C1051.584,1163.017,1059.748,1157.753,1074.5,1157.753Z" transform="translate(-814.884 -1157.753)"/>
        </g>
      </g>
    </g>
  </g>
</svg>
