<svg xmlns="http://www.w3.org/2000/svg" width="228.691" height="71.938" viewBox="0 0 228.691 71.938"><g transform="translate(974.462 -176.81) rotate(90)"><path d="M248.747,933.363H225.165l16.674-16.675-7.258-7.256L217.91,926.105V902.526H207.647v23.581l-16.675-16.675-7.258,7.256,16.675,16.675H176.81v10.262h23.58L183.715,960.3l7.258,7.256,16.675-16.675v23.581H217.91V950.883l16.672,16.672,7.258-7.256-16.674-16.674h23.582Z" fill="#ff585d"/><path d="M234.36,830.013H220.211l10-10-4.355-4.354-10,10V811.511H209.7V825.66l-10-10-4.355,4.354,10,10H191.2v6.157h14.148l-10,10,4.355,4.354,10-10v14.149h6.157V840.525l10,10,4.355-4.354-10-10H234.36Z" fill="#ff585d"/><path d="M225.727,756.872h-8.489l6-6-2.613-2.612-6,6v-8.488h-3.694v8.489l-6-6-2.613,2.612,6,6H199.83v3.694h8.489l-6,6,2.613,2.612,6-6v8.489h3.694v-8.488l6,6,2.613-2.612-6-6h8.489Z" fill="#ff585d"/></g></svg>