<?xml version="1.0" encoding="utf-8"?>
<!-- Generator: Adobe Illustrator 25.4.1, SVG Export Plug-In . SVG Version: 6.00 Build 0)  -->
<svg version="1.1" id="Layer_1" xmlns="http://www.w3.org/2000/svg" xmlns:xlink="http://www.w3.org/1999/xlink" x="0px" y="0px"
	 viewBox="0 0 255 302" style="enable-background:new 0 0 255 302;" xml:space="preserve">
<style type="text/css">
	.st0{enable-background:new    ;}
	.st1{fill:#FAFAFA;}
</style>
<g>
	<g class="st0">
		<path class="st1" d="M12.2,32.5c8-8.1,20.2-8.8,24.8-8.8c25.3,0,32.2,18.2,32.2,33.7c0,25.3-18,33.1-33.1,33.1
			c-16.9,0-32.6-9.3-32.6-33C3.5,53.3,4.2,40.6,12.2,32.5z M36.3,77.6C48.9,77.6,51,65.9,51,57.1c0-8.9-2.1-13.3-4-16.1
			c-2.6-3.5-6.7-4.6-10.6-4.6c-11.6,0-14.8,10-14.8,20.9C21.6,67.5,24.6,77.6,36.3,77.6z"/>
		<path class="st1" d="M121.8,45.4c-0.8-6.4-5.3-8.8-10.3-8.8c-10.6,0-13.9,9.8-13.9,21.4c0,3.9,0.1,19.9,13.7,19.9
			c9.3,0,10.3-6.8,10.6-9.2h18.3c-0.1,19.9-20.3,21.6-28.6,21.6c-6.2,0-17.1-1.1-24.1-8.4c-7-7.4-8.2-17.5-8.2-24.1
			c0-8.7,2-17.4,8-24.2c6.5-7.4,14.9-9.3,24.1-9.3c10.3,0,18.1,2.5,23.1,7.7c5.1,5.5,5.2,11.2,5.3,13.6H121.8z"/>
		<path class="st1" d="M166.4,38H147V25.5H204V38h-19.8v51h-17.8V38z"/>
		<path class="st1" d="M198.4,75.9h15.5V89h-15.5V75.9z"/>
	</g>
	<g class="st0">
		<path class="st1" d="M9.9,130.1c5.4-6.5,13.2-7.8,18.7-7.8c11.6,0,16.8,4.6,19.4,7.9c4,4.8,7.2,11.8,7.2,23.9
			c0,17.5-6.9,32.1-26.4,32.1c-7,0-14.1-2.1-18.7-7.4c-6.7-7.7-7.7-18.6-7.7-24.6C2.6,148.4,3.6,137.7,9.9,130.1z M28.9,174.6
			c2.7,0,5.5-1.3,6.8-3.6c2.6-4.8,2.6-14.9,2.6-16.2c0-3.1-0.3-10.2-1.5-14.7c-0.6-2.2-2-6.2-7.7-6.2c-4.9,0-9.2,2.1-9.2,20.6
			C19.9,167.5,21.6,174.6,28.9,174.6z"/>
		<path class="st1" d="M97.2,139.1c-0.3-2.8-1.5-4.4-3-5.4c-1.4-0.9-3-1.1-4-1.1c-4.8,0-7.4,3.6-8.7,7c-1.5,3.7-1.4,8.6-1.4,11.9
			c1.5-2.2,5.2-7.7,15.7-7.7c12.2,0,20.2,7.9,20.2,20c0,17-14.1,22.4-25.1,22.4c-7.3,0-15.8-2-21-9.9c-3.6-5.4-5.8-12.2-5.8-22
			c0-15.9,6.3-32.1,27.2-32.1c8.2,0,21.4,2.5,22,16.8H97.2z M91.3,154.3c-6.2,0-9.8,4.2-9.8,10.6c0,7.7,4.9,10,9.4,10
			c6.2,0,9.7-4.1,9.7-10.3C100.6,162.4,100.1,154.3,91.3,154.3z"/>
	</g>
	<g class="st0">
		<path class="st1" d="M3.1,268.3c13.8-10.2,25.5-19,30-25.4c1.1-1.8,2.2-4.1,2.2-7c0-5.5-4.4-6.2-6.6-6.2c-6.6,0-7,5.5-7.2,7.1H4.3
			c0-1.9,0.2-6.7,4.4-11.8c5.2-6.2,15.7-7,20.9-7c9.3,0,16,2.4,20,7.5c2.3,2.9,3.3,6.3,3.3,9.9c0,12.7-12,21.3-28.9,33.4h29V281H3.1
			V268.3z"/>
		<path class="st1" d="M70.8,226.1c5.4-6.5,13.2-7.8,18.7-7.8c11.6,0,16.8,4.6,19.4,7.9c4,4.8,7.2,11.8,7.2,23.9
			c0,17.5-6.9,32.1-26.4,32.1c-7,0-14.1-2.1-18.7-7.4c-6.7-7.7-7.7-18.6-7.7-24.6C63.5,244.4,64.5,233.7,70.8,226.1z M89.8,270.6
			c2.7,0,5.5-1.3,6.8-3.6c2.6-4.8,2.6-14.9,2.6-16.2c0-3.1-0.3-10.2-1.5-14.7c-0.6-2.2-2-6.2-7.7-6.2c-4.9,0-9.2,2.1-9.2,20.6
			C80.8,263.5,82.5,270.6,89.8,270.6z"/>
		<path class="st1" d="M124.9,268.3c13.8-10.2,25.5-19,30-25.4c1.1-1.8,2.2-4.1,2.2-7c0-5.5-4.4-6.2-6.6-6.2c-6.6,0-7,5.5-7.2,7.1
			h-17.2c0-1.9,0.2-6.7,4.4-11.8c5.2-6.2,15.7-7,20.9-7c9.3,0,16,2.4,20,7.5c2.3,2.9,3.3,6.3,3.3,9.9c0,12.7-12,21.3-28.9,33.4h29
			V281h-49.9V268.3z"/>
		<path class="st1" d="M207.1,235.7c-4.7,3.9-12,6.8-14.9,7.6v-13.6c7-2.2,11.1-4.1,17.6-9.8H224V281h-17V235.7z"/>
	</g>
</g>
</svg>
