<?xml version="1.0" encoding="utf-8"?>
<!-- Generator: Adobe Illustrator 25.4.1, SVG Export Plug-In . SVG Version: 6.00 Build 0)  -->
<!DOCTYPE svg PUBLIC "-//W3C//DTD SVG 1.1//EN" "http://www.w3.org/Graphics/SVG/1.1/DTD/svg11.dtd" [
	<!ENTITY ns_extend "http://ns.adobe.com/Extensibility/1.0/">
	<!ENTITY ns_ai "http://ns.adobe.com/AdobeIllustrator/10.0/">
	<!ENTITY ns_graphs "http://ns.adobe.com/Graphs/1.0/">
	<!ENTITY ns_vars "http://ns.adobe.com/Variables/1.0/">
	<!ENTITY ns_imrep "http://ns.adobe.com/ImageReplacement/1.0/">
	<!ENTITY ns_sfw "http://ns.adobe.com/SaveForWeb/1.0/">
	<!ENTITY ns_custom "http://ns.adobe.com/GenericCustomNamespace/1.0/">
	<!ENTITY ns_adobe_xpath "http://ns.adobe.com/XPath/1.0/">
]>
<svg version="1.1" id="Layer_1" xmlns:x="&ns_extend;" xmlns:i="&ns_ai;" xmlns:graph="&ns_graphs;"
	 xmlns="http://www.w3.org/2000/svg" xmlns:xlink="http://www.w3.org/1999/xlink" x="0px" y="0px" viewBox="0 0 273.3 613"
	 style="enable-background:new 0 0 273.3 613;" xml:space="preserve">
<style type="text/css">
	.st0{fill:#770BE8;}
	.st1{fill:#FFC802;}
	.st2{fill:#FFFFFF;}
</style>
<metadata>
	<sfw  xmlns="&ns_sfw;">
		<slices></slices>
		<sliceSourceBounds  bottomLeftOrigin="true" height="613" width="273.3" x="0" y="0"></sliceSourceBounds>
	</sfw>
</metadata>
<g id="Grupo_442" transform="translate(-666.7 -167)">
	<g id="Grupo_84" transform="translate(-708.821 -29)">
		<rect id="Rectángulo_59" x="1375.5" y="196" class="st0" width="272.9" height="444.7"/>
	</g>
	<g id="Grupo_75" transform="translate(524.421 96.876)">
		<rect id="Rectángulo_16" x="142.3" y="513.4" class="st1" width="273.3" height="18.1"/>
		<rect id="Rectángulo_17" x="142.3" y="551.3" class="st1" width="273.3" height="18.1"/>
		<rect id="Rectángulo_18" x="142.3" y="589.2" class="st1" width="273.3" height="18.1"/>
		<rect id="Rectángulo_19" x="142.3" y="627.1" class="st1" width="273.3" height="18.1"/>
		<rect id="Rectángulo_20" x="142.3" y="665" class="st1" width="273.3" height="18.1"/>
	</g>
</g>
<g>
	<path class="st2" d="M47,96.8c23.3,0,34.9,14.5,34.9,35.6c0,21.1-11.6,35.6-34.9,35.6s-34.9-14.5-34.9-35.6
		C12.1,111.3,23.7,96.8,47,96.8z M47,150.4c4.1,0,7.2-2.3,7.2-18c0-15.3-2.9-18-7.2-18c-4.3,0-7.2,2.7-7.2,18
		C39.8,148.1,42.9,150.4,47,150.4z"/>
	<path class="st2" d="M154.3,141.2c0,9.3-3.7,16-9.5,20.4c-5.8,4.3-13.7,6.4-22.1,6.4C99,168,88,153.6,88,132.1
		c-0.7-21.1,11.9-35.3,34.7-35.3c17,0,31.5,6.9,31.6,26.8h-24.5c-0.4-7.7-3.2-9.2-6.5-9.2c-6.9,0-7.6,7.1-7.6,18
		c0,10.3,0.6,18,7.3,18c3.5,0,5.8-2.1,6.2-9.2H154.3z"/>
	<path class="st2" d="M175,116.8h-16.7V98.6h60.1v18.2h-16.7v49.4H175V116.8z"/>
	<path class="st2" d="M214.9,146.9h22.7v19.3h-22.7V146.9z"/>
	<path class="st2" d="M42.7,187.4c21.1,0,30.7,14.1,30.7,35.6s-9.6,35.6-30.7,35.6S12,244.4,12,222.9S21.6,187.4,42.7,187.4z
		 M42.7,242c3.6,0,5.6-1.7,5.6-19.1s-2.1-19.1-5.6-19.1c-3.6,0-5.6,1.7-5.6,19.1S39.2,242,42.7,242z"/>
	<path class="st2" d="M115.5,207.8c0-4.1-2.2-5.1-4.7-5.1c-5,0-6.7,4-7.2,15.4c3.7-3.9,9.1-5.2,14.2-5.2c11.6,0,22.5,6.6,22.5,21.2
		c0,15.2-11.6,24.4-29.8,24.4c-20.7,0-30.9-12.6-30.9-33.6c0-25.1,11.2-37.5,32.3-37.5c14.5,0,25.3,5.2,25.3,20.4H115.5z
		 M117.7,234.6c0-6.2-2.3-8.3-6.4-8.3c-4,0-6.4,2.2-6.4,8.3c0,6.5,2.3,8.6,6.4,8.6C115.4,243.2,117.7,241,117.7,234.6z"/>
	<path class="st2" d="M13.3,329.7l15.1-9.8c14-9.2,18.6-16,18.6-20.5c0-4-2.4-5.5-5.1-5.5c-3.2,0-5.7,1.9-5.7,7.5H12.7
		c0-16.6,11.1-23.4,29.7-23.4c22.6,0,30.2,10.2,30.2,21c0,10.7-6.5,19.1-26.3,30.6v0.2h26.3v17.6H13.3V329.7z"/>
	<path class="st2" d="M110,277.9c21.1,0,30.7,14.1,30.7,35.6c0,21.4-9.6,35.6-30.7,35.6s-30.7-14.1-30.7-35.6
		C79.3,292,89,277.9,110,277.9z M110,332.6c3.6,0,5.6-1.7,5.6-19.1c0-17.4-2.1-19.1-5.6-19.1c-3.6,0-5.6,1.7-5.6,19.1
		C104.4,330.9,106.5,332.6,110,332.6z"/>
	<path class="st2" d="M147.9,329.7l15.1-9.8c14-9.2,18.6-16,18.6-20.5c0-4-2.4-5.5-5.1-5.5c-3.2,0-5.7,1.9-5.7,7.5h-23.4
		c0-16.6,11.1-23.4,29.7-23.4c22.6,0,30.2,10.2,30.2,21c0,10.7-6.5,19.1-26.3,30.6v0.2h26.3v17.6h-59.4V329.7z"/>
	<path class="st2" d="M234.3,303.3c-4.7,3.4-8.8,5.7-14.6,7.5v-19.3c7.5-2.5,14.9-6.2,19.8-11.8H260v67.6h-25.7V303.3z"/>
</g>
</svg>
