<?xml version="1.0" encoding="utf-8"?>
<!-- Generator: Adobe Illustrator 25.4.1, SVG Export Plug-In . SVG Version: 6.00 Build 0)  -->
<svg version="1.1" id="Layer_1" xmlns="http://www.w3.org/2000/svg" xmlns:xlink="http://www.w3.org/1999/xlink" x="0px" y="0px"
	 viewBox="0 0 715 279" style="enable-background:new 0 0 715 279;" xml:space="preserve">
<style type="text/css">
	.st0{fill:#010101;}
	.st1{fill-rule:evenodd;clip-rule:evenodd;fill:#010101;}
	.st2{fill:#1B171B;}
	.st3{fill:#FFFFFF;}
	.st4{fill:none;}
</style>
<g>
	<g>
		<g>
			<g>
				<g>
					<g>
						<path class="st0" d="M449.2,158.3l-0.3,0.3c-0.9,1-6,5.2-6.8,5.2c-1.3,0,1.8-5.2,1.8-6.3c0-1-1.1-2.3-2-2.3
							c-1.9,0-5.8,3-7.6,4.7c-0.8,0.7-1,0.8-0.7,0.3c1-1.7,2.5-4.4,2.5-6.3c0-2.4-2.6-2.2-2.7-2.1c-0.4,0.1-0.2,0.4-0.5,1.7
							c-0.2,0.6-0.5,1.5-0.8,2.4c-0.2,0.6-0.4,0.9-0.4,0.9c-0.8,1.2-1.7,2.2-2.9,2.5c0.2-0.7,0.3-1.4,0.3-2c0-1.5-0.7-2.2-1.4-2.2
							c-1.4,0-3.1,2.5-2,5c-0.4,1.5-2.4,4.1-3.5,4.1c-0.4,0-0.6-0.5-0.6-1.1c0-2.3,2.5-7.5,5.8-8.6c0.9-0.3,1.2,0.1,1.2-0.9
							c0-1.3-0.8-2.1-2.1-2.1c-3.3,0-7.5,5.5-7.8,10c-1.5,1.3-3.4,2.4-5.1,2.4c-1.8,0-2.6-1.2-2.6-2.9c1.7-0.6,3-1.2,4.5-2.3
							c2.1-1.6,3.1-3.3,3.1-4.7c0-1.6-1.3-2.7-3.2-2.7c-3.5,0-7.6,4.7-7.8,9.3c-3.9,1.6-10.1,4.1-13.4,3.2c-0.9-0.4-1.1-1.2-0.7-2.6
							c2.2-9.3,13.6-20.1,13.9-21.7c0.5-1.9-1.7-3.4-2.6-3.5c-2.8-0.4-12.9,15.6-15.5,23.3c-0.5,1.4-0.9,4-0.5,5.8
							c0,0,0.6,3.7,5.9,2.8c2.9-0.5,8.3-2.6,13.2-5.1c0.6,1.9,2.1,3.3,4.7,3.3c2.8,0,4.9-1.5,6.3-3c0.3,1.8,1.4,3,3.2,3
							c1.5,0,3-1,4.2-2.4c0,0,0.8-1,0.9-1.2c0.4-0.6,0.8-1.3,1.1-2c1-0.2,1.8-0.7,2.5-1.3c-1,2.5-1.9,4.8-1.9,4.9
							c0,0.8,1.4,1.8,2,1.8c1.1,0,6.7-6.1,8.4-6.7c0.1,0,0.2,0,0.1,0.2c-0.7,1.3-1.2,3-1.2,4.2c0,1.4,0.9,2.5,2.3,2.5
							c2,0,6.6-4,9.2-7.1l0.4-0.5C450.3,158.3,449.4,158.1,449.2,158.3z M415.4,154.2c0.3,0,0.5,0.1,0.5,0.5c0,1-1.9,3.3-4.6,4.5
							C412.1,156.5,414.3,154.2,415.4,154.2z"/>
						<g>
							<g>
								<path class="st0" d="M431,145.9c0.8,0.1,1.3,0.8,1.6,1.3c-3,2.7-4.5,3.4-5.4,3.3c-0.2,0-0.4-0.1-0.6-0.3
									C427,149,429.5,145.7,431,145.9z"/>
							</g>
						</g>
					</g>
				</g>
			</g>
			<g>
				<path class="st0" d="M406.2,174.6c-0.8,0-1.4-0.2-1.7-0.6c-0.3-0.4-0.5-0.9-0.5-1.8v-1.1c0-0.8,0.1-1.4,0.5-1.8
					c0.4-0.4,0.9-0.6,1.7-0.6h0.1c0.5,0,1.2,0.1,1.6,0.4c0.1,0.1,0.2,0.1,0.1,0.3l-0.3,0.7c0,0.1-0.1,0.1-0.1,0.1
					c-0.1,0-0.1,0-0.2,0c-0.4-0.2-0.7-0.3-1.1-0.3h0c-0.4,0-0.6,0.1-0.7,0.3c-0.1,0.2-0.2,0.5-0.2,1v0.6c0,0.5,0,0.9,0.2,1.1
					c0.2,0.2,0.4,0.3,0.8,0.3h0c0.3,0,0.8-0.1,1-0.2c0,0,0.1,0,0.1,0c0.1,0,0.1,0,0.2,0.2l0.1,0.6c0,0.1,0,0.1,0,0.2
					c0,0.1-0.1,0.2-0.3,0.2C407.3,174.5,406.8,174.6,406.2,174.6L406.2,174.6z"/>
				<path class="st0" d="M409.3,169.9c-0.5,0-0.7-0.3-0.7-0.7v0c0-0.5,0.2-0.7,0.7-0.7h0.1c0.5,0,0.7,0.3,0.7,0.7v0
					c0,0.5-0.2,0.7-0.7,0.7H409.3z M410.1,174.3c0,0.2-0.1,0.3-0.3,0.3H409c-0.2,0-0.3-0.1-0.3-0.3v-3.8c0-0.2,0.1-0.3,0.3-0.3h0.8
					c0.2,0,0.3,0.1,0.3,0.3V174.3z"/>
				<path class="st0" d="M413.1,170.5c0-0.2,0.1-0.3,0.3-0.3h0.8c0.2,0,0.3,0.1,0.3,0.3v2.6c0,0.5-0.1,0.9-0.4,1.2
					c-0.3,0.3-0.8,0.4-1.4,0.4c-0.7,0-1.1-0.1-1.4-0.4c-0.3-0.2-0.4-0.6-0.4-1.2v-2.6c0-0.2,0.1-0.3,0.3-0.3h0.8
					c0.2,0,0.3,0.1,0.3,0.3v2.5c0,0.2,0,0.3,0.1,0.4c0.1,0.1,0.2,0.1,0.4,0.1c0.2,0,0.3,0,0.4-0.1c0.1-0.1,0.1-0.2,0.1-0.4V170.5z"
					/>
				<path class="st0" d="M417.6,170.3v-1.5c0-0.2,0.1-0.3,0.3-0.3h0.8c0.2,0,0.3,0.1,0.3,0.3v4c0,0.7-0.1,1-0.3,1.3
					c-0.3,0.3-0.7,0.5-1.5,0.5h-0.1c-0.7,0-1.1-0.1-1.3-0.4c-0.3-0.3-0.4-0.8-0.4-1.5V172c0-0.7,0.1-1.2,0.4-1.5
					c0.2-0.2,0.6-0.4,1.1-0.4h0.1C417.1,170.2,417.4,170.2,417.6,170.3L417.6,170.3z M417.6,171.9c0-0.3,0-0.4-0.1-0.5
					c-0.1-0.1-0.2-0.1-0.4-0.1H417c-0.2,0-0.3,0.1-0.4,0.1c-0.1,0.1-0.1,0.3-0.1,0.8v0.4c0,0.4,0,0.6,0.1,0.8
					c0.1,0.1,0.2,0.1,0.4,0.1h0.1c0.2,0,0.3,0,0.4-0.1c0.1-0.1,0.1-0.2,0.1-0.4V171.9z"/>
				<path class="st0" d="M422.1,174.2c-0.2,0.3-0.6,0.4-1.1,0.4h-0.1c-0.8,0-1.4-0.5-1.4-1.3v-0.1c0-1,0.5-1.3,1.6-1.3h0.1
					c0.2,0,0.5,0,0.6,0v-0.2c0-0.2,0-0.3-0.1-0.4c-0.1-0.1-0.2-0.1-0.5-0.1c-0.3,0-0.6,0.1-1,0.1c-0.2,0.1-0.3,0-0.3-0.2l-0.1-0.5
					c0-0.1,0-0.1,0-0.2c0-0.1,0-0.2,0.2-0.2c0.4-0.1,0.9-0.2,1.4-0.2c0.7,0,1.1,0.1,1.4,0.4c0.2,0.2,0.3,0.6,0.3,1.1v2.6
					c0,0.2-0.1,0.2-0.3,0.2h-0.4c-0.2,0-0.3,0-0.3-0.2L422.1,174.2L422.1,174.2z M421.8,172.8c-0.1,0-0.3,0-0.4,0h-0.1
					c-0.4,0-0.5,0.1-0.5,0.4v0c0,0.3,0.2,0.4,0.5,0.4h0.1c0.2,0,0.3-0.1,0.4-0.1c0.1-0.1,0.1-0.2,0.1-0.4V172.8z"/>
				<path class="st0" d="M426.2,170.3v-1.5c0-0.2,0.1-0.3,0.3-0.3h0.8c0.2,0,0.3,0.1,0.3,0.3v4c0,0.7-0.1,1-0.3,1.3
					c-0.3,0.3-0.7,0.5-1.5,0.5h-0.1c-0.7,0-1.1-0.1-1.3-0.4c-0.3-0.3-0.4-0.8-0.4-1.5V172c0-0.7,0.1-1.2,0.4-1.5
					c0.2-0.2,0.6-0.4,1.1-0.4h0.1C425.8,170.2,426,170.2,426.2,170.3L426.2,170.3z M426.2,171.9c0-0.3,0-0.4-0.1-0.5
					c-0.1-0.1-0.2-0.1-0.4-0.1h-0.1c-0.2,0-0.3,0.1-0.4,0.1c-0.1,0.1-0.1,0.3-0.1,0.8v0.4c0,0.4,0,0.6,0.1,0.8
					c0.1,0.1,0.2,0.1,0.4,0.1h0.1c0.2,0,0.3,0,0.4-0.1c0.1-0.1,0.1-0.2,0.1-0.4V171.9z"/>
			</g>
			<g>
				<path class="st0" d="M406.3,177v-1.5c0-0.2,0.1-0.3,0.3-0.3h0.8c0.2,0,0.3,0.1,0.3,0.3v4c0,0.7-0.1,1-0.3,1.3
					c-0.3,0.3-0.7,0.5-1.5,0.5h-0.1c-0.7,0-1.1-0.1-1.3-0.4c-0.3-0.3-0.4-0.8-0.4-1.5v-0.7c0-0.7,0.1-1.2,0.4-1.5
					c0.2-0.2,0.6-0.4,1.1-0.4h0.1C405.8,176.9,406.1,176.9,406.3,177L406.3,177z M406.3,178.6c0-0.3,0-0.4-0.1-0.5
					c-0.1-0.1-0.2-0.1-0.4-0.1h-0.1c-0.2,0-0.3,0.1-0.4,0.1c-0.1,0.1-0.1,0.3-0.1,0.8v0.4c0,0.4,0,0.6,0.1,0.8
					c0.1,0.1,0.2,0.1,0.4,0.1h0.1c0.2,0,0.3,0,0.4-0.1c0.1-0.1,0.1-0.2,0.1-0.4V178.6z"/>
				<path class="st0" d="M410.5,180.2c0.3,0,0.7-0.1,0.9-0.1c0,0,0.1,0,0.2,0c0.1,0,0.1,0.1,0.2,0.1l0.1,0.4c0,0.1,0,0.2,0,0.2
					c0,0.1,0,0.2-0.2,0.2c-0.3,0.1-0.9,0.2-1.3,0.2h-0.2c-0.7,0-1.2-0.1-1.5-0.4c-0.3-0.3-0.4-0.8-0.4-1.5v-0.5
					c0-0.9,0.2-1.3,0.5-1.6c0.3-0.3,0.7-0.4,1.3-0.4h0.1c0.6,0,1,0.2,1.3,0.4c0.3,0.3,0.4,0.8,0.4,1.6v0.5c0,0.2-0.1,0.2-0.2,0.2h-2
					v0.1C409.7,180.1,409.8,180.2,410.5,180.2L410.5,180.2z M410.6,178.7c0.1,0,0.1,0,0.1-0.1v-0.1c0-0.2,0-0.3-0.1-0.4
					c-0.1-0.1-0.2-0.2-0.4-0.2h-0.1c-0.2,0-0.3,0-0.4,0.1c-0.1,0.1-0.1,0.2-0.1,0.5v0.2H410.6z"/>
				<path class="st0" d="M415.4,181c0,0.2-0.1,0.3-0.3,0.3h-0.8c-0.2,0-0.3-0.1-0.3-0.3v-5c0-0.3,0.1-0.4,0.4-0.4c0.4,0,0.8,0,1.4,0
					h0.1c0.8,0,1.4,0.1,1.8,0.5c0.3,0.3,0.4,0.7,0.4,1.3v0.3c0,0.7-0.2,1.1-0.5,1.4c-0.4,0.3-0.9,0.4-1.7,0.4h-0.4V181z
					 M415.9,176.7c-0.1,0-0.3,0-0.4,0c-0.1,0-0.1,0-0.1,0.1v1.4h0.4c0.3,0,0.5-0.1,0.6-0.1c0.1-0.1,0.2-0.3,0.2-0.5v-0.2
					c0-0.2,0-0.4-0.1-0.5c-0.1-0.1-0.3-0.2-0.5-0.2H415.9z"/>
				<path class="st0" d="M419.8,177.4c0.2-0.3,0.5-0.5,0.9-0.5h0.3c0.2,0,0.2,0,0.2,0.2v0.6c0,0.2-0.1,0.2-0.2,0.2h-0.3
					c-0.3,0-0.5,0.1-0.6,0.2c-0.1,0.1-0.1,0.3-0.1,0.6v2.1c0,0.2-0.1,0.3-0.3,0.3H419c-0.2,0-0.3-0.1-0.3-0.3v-3.8
					c0-0.2,0.1-0.2,0.3-0.2h0.4c0.2,0,0.3,0,0.3,0.2L419.8,177.4L419.8,177.4z"/>
				<path class="st0" d="M422.4,176.6c-0.5,0-0.7-0.3-0.7-0.7v0c0-0.5,0.2-0.7,0.7-0.7h0.1c0.5,0,0.7,0.3,0.7,0.7v0
					c0,0.5-0.2,0.7-0.7,0.7H422.4z M423.1,181c0,0.2-0.1,0.3-0.3,0.3h-0.8c-0.2,0-0.3-0.1-0.3-0.3v-3.8c0-0.2,0.1-0.3,0.3-0.3h0.8
					c0.2,0,0.3,0.1,0.3,0.3V181z"/>
				<path class="st0" d="M427.6,181c0,0.2-0.1,0.3-0.3,0.3h-0.8c-0.2,0-0.3-0.1-0.3-0.3v-2.5c0-0.2,0-0.3-0.1-0.4
					c-0.1-0.1-0.2-0.1-0.4-0.1h0c-0.2,0-0.3,0-0.4,0.1c-0.1,0.1-0.1,0.2-0.1,0.4v2.5c0,0.2-0.1,0.3-0.3,0.3h-0.8
					c-0.2,0-0.3-0.1-0.3-0.3v-3.8c0-0.2,0.1-0.2,0.3-0.2h0.4c0.2,0,0.3,0,0.3,0.2l0.1,0.2h0c0.3-0.3,0.7-0.4,1.1-0.4h0
					c0.5,0,0.8,0.1,1.1,0.4c0.3-0.3,0.7-0.4,1.1-0.4h0c0.5,0,0.8,0.1,1.1,0.4c0.2,0.2,0.3,0.6,0.3,1.2v2.6c0,0.2-0.1,0.3-0.3,0.3
					h-0.8c-0.2,0-0.3-0.1-0.3-0.3v-2.5c0-0.2,0-0.3-0.1-0.4c-0.1-0.1-0.2-0.1-0.4-0.1h0c-0.2,0-0.3,0-0.4,0.1
					c-0.1,0.1-0.1,0.2-0.1,0.4V181z"/>
				<path class="st0" d="M432.8,180.2c0.3,0,0.7-0.1,0.9-0.1c0,0,0.1,0,0.2,0c0.1,0,0.1,0.1,0.2,0.1l0.1,0.4c0,0.1,0,0.2,0,0.2
					c0,0.1,0,0.2-0.2,0.2c-0.3,0.1-0.9,0.2-1.3,0.2h-0.2c-0.7,0-1.2-0.1-1.5-0.4c-0.3-0.3-0.4-0.8-0.4-1.5v-0.5
					c0-0.9,0.2-1.3,0.5-1.6c0.3-0.3,0.7-0.4,1.3-0.4h0.1c0.6,0,1,0.2,1.3,0.4c0.3,0.3,0.4,0.8,0.4,1.6v0.5c0,0.2-0.1,0.2-0.2,0.2h-2
					v0.1C431.9,180.1,432.1,180.2,432.8,180.2L432.8,180.2z M432.8,178.7c0.1,0,0.1,0,0.1-0.1v-0.1c0-0.2,0-0.3-0.1-0.4
					c-0.1-0.1-0.2-0.2-0.4-0.2h-0.1c-0.2,0-0.3,0-0.4,0.1c-0.1,0.1-0.1,0.2-0.1,0.5v0.2H432.8z"/>
				<path class="st0" d="M435.9,177.4c0.2-0.3,0.5-0.5,0.9-0.5h0.3c0.2,0,0.2,0,0.2,0.2v0.6c0,0.2-0.1,0.2-0.2,0.2H437
					c-0.3,0-0.5,0.1-0.6,0.2c-0.1,0.1-0.1,0.3-0.1,0.6v2.1c0,0.2-0.1,0.3-0.3,0.3h-0.8c-0.2,0-0.3-0.1-0.3-0.3v-3.8
					c0-0.2,0.1-0.2,0.3-0.2h0.4c0.2,0,0.3,0,0.3,0.2L435.9,177.4L435.9,177.4z"/>
				<path class="st0" d="M440.2,180.9c-0.2,0.3-0.6,0.4-1.1,0.4H439c-0.8,0-1.4-0.5-1.4-1.3v-0.1c0-1,0.5-1.3,1.6-1.3h0.1
					c0.2,0,0.5,0,0.6,0v-0.2c0-0.2,0-0.3-0.1-0.4c-0.1-0.1-0.2-0.1-0.5-0.1c-0.3,0-0.6,0.1-1,0.1c-0.2,0.1-0.3,0-0.3-0.2l-0.1-0.5
					c0-0.1,0-0.1,0-0.2c0-0.1,0-0.2,0.2-0.2c0.4-0.1,0.9-0.2,1.4-0.2c0.7,0,1.1,0.1,1.4,0.4c0.2,0.2,0.3,0.6,0.3,1.1v2.6
					c0,0.2-0.1,0.2-0.3,0.2h-0.4c-0.2,0-0.3,0-0.3-0.2L440.2,180.9L440.2,180.9z M439.9,179.5c-0.1,0-0.3,0-0.4,0h-0.1
					c-0.4,0-0.5,0.1-0.5,0.4v0c0,0.3,0.2,0.4,0.5,0.4h0.1c0.2,0,0.3-0.1,0.4-0.1c0.1-0.1,0.1-0.2,0.1-0.4V179.5z"/>
			</g>
		</g>
		<g>
			<g>
				<path class="st0" d="M201.4,155.4c0-1.4,0.3-1.8,1.8-1.8h0.6c1.4,0,1.8,0.3,1.8,1.8v12.2c0,1.4-0.3,1.8-1.8,1.8h-0.6
					c-1.4,0-1.8-0.3-1.8-1.8V155.4z"/>
				<path class="st0" d="M223.5,162.8c0,4.9-3.3,6.9-7.5,6.9c-4.7,0-7.5-1.9-7.5-6.9v-2.5c0-4.5,2.2-7.1,6.6-7.1
					c2.2,0,3.5,0.7,4.3,1.8v-5.9c0-1.4,0.3-1.8,1.8-1.8h0.6c1.4,0,1.8,0.3,1.8,1.8V162.8z M212.7,162.7c0,2,0.5,3.1,3.4,3.1
					c2.8,0,3.4-1.1,3.4-3.1v-2.5c0-2-0.6-3.1-3.4-3.1c-2.8,0-3.4,1.1-3.4,3.1V162.7z"/>
				<path class="st0" d="M240.4,161.2c-0.2,1.4-0.6,1.7-2,1.7h-8v0.5c0,1.6,1.2,2.4,4.1,2.4c1.6,0,3.2-0.3,3.8-0.4
					c1.4-0.3,1.7,0.1,1.7,1.5v0.3c0,1.4-0.3,1.7-1.7,2c-0.6,0.2-2.1,0.4-3.8,0.4c-5.5,0-8.2-2-8.2-6.9v-2.5c0-4,1.8-7.1,7.3-7.1
					c4.6,0,6.9,2.3,6.9,6.8C240.4,160.3,240.4,160.7,240.4,161.2z M230.4,159.6h6.2v-0.5c0-1.6-1-2.4-3.1-2.4
					c-2.1,0-3.1,0.8-3.1,2.4V159.6z"/>
				<path class="st0" d="M256,164.6c0,3.3-2,5-6.8,5c-4.8,0-6.8-1.7-6.8-5c0-3.7,2.6-4.9,6.4-4.9h3.2v-1.2c0-1.6-1.3-1.9-3.3-1.9
					c-1.3,0-2.3,0.1-2.7,0.2c-1.3,0.2-1.8-0.1-1.8-1.5v-0.1c0-1.3,0.3-1.7,1.7-1.9c0.5-0.1,1.2-0.2,2.5-0.2c4.6,0,7.6,1.3,7.6,5.4
					V164.6z M251.9,162.9h-3.2c-1.5,0-2.2,0.6-2.2,1.7c0,1.5,1.3,1.6,2.7,1.6c1.4,0,2.8-0.1,2.8-1.8V162.9z"/>
				<g>
					<path class="st0" d="M261,142.6c-1,0-1.1,0.4-1.1,1.1v1.2c0,0.8,0.2,1.1,1.1,1.1c1,0,1.1-0.4,1.1-1.1v-1.2
						C262.2,143,262,142.6,261,142.6z"/>
					<path class="st0" d="M268.4,143.8l-7.5-8.1c-0.6-0.6-1.6-0.2-1.6,0.6v2.4h-12.6c-1.2,0-2.1,0.9-2.1,2.1v7.1
						c0,1.2,0.9,2.1,2.1,2.1h12.6v2.4c0,0.8,1,1.2,1.6,0.6l7.5-8.1C268.7,144.7,268.7,144.1,268.4,143.8z M252.3,146
						c0,0.8-0.2,1.2-1,1.4c-0.1,0-0.4,0.1-0.8,0.1c-2.1,0-2.9-0.7-2.9-2.4v-1.4c0-1.5,1-2.4,2.9-2.4c0.4,0,0.8,0.1,1.2,0.2
						c0.4,0.1,0.6,0.3,0.6,0.7v0.1c0,0.2,0,0.4-0.2,0.5c-0.1,0.1-0.3,0.1-0.5,0c-0.2-0.1-0.7-0.2-1.1-0.2c-1.1,0-1.5,0.3-1.5,1.1
						v1.4c0,0.5,0.2,1,1.5,1c0.1,0,0.3,0,0.3,0c0.1,0,0.1,0,0.1-0.2v-1.5c0-0.5,0.2-0.6,0.6-0.6h0.1c0.5,0,0.6,0.2,0.6,0.6V146z
						 M258,142.1c0,0.5-0.2,0.6-0.6,0.6h-1.1v4c0,0.5-0.2,0.6-0.6,0.6h-0.2c-0.5,0-0.6-0.2-0.6-0.6v-4h-1.1c-0.5,0-0.6-0.2-0.6-0.6
						V142c0-0.5,0.2-0.6,0.6-0.6h3.6C257.8,141.4,258,141.5,258,142.1L258,142.1z M263.6,145c0,1.1-0.3,2.5-2.6,2.5
						c-2.3,0-2.6-1.4-2.6-2.5v-1.2c0-1.1,0.3-2.5,2.6-2.5c2.3,0,2.6,1.4,2.6,2.5V145z"/>
				</g>
				<circle class="st0" cx="203.5" cy="148.9" r="2.5"/>
				<g>
					<g>
						<path class="st0" d="M156.8,176.9c0-0.3,0.1-0.4,0.4-0.4h0.1c0.3,0,0.4,0.1,0.4,0.4v2.6c0,0.3-0.1,0.4-0.4,0.4h-0.1
							c-0.3,0-0.4-0.1-0.4-0.4V176.9z"/>
						<path class="st0" d="M159.3,179.6c0,0.3-0.1,0.4-0.4,0.4h-0.1c-0.3,0-0.4-0.1-0.4-0.4v-1.7c0-0.9,0.5-1.4,1.6-1.4
							c1.1,0,1.5,0.5,1.5,1.4v1.7c0,0.3-0.1,0.4-0.4,0.4H161c-0.3,0-0.4-0.1-0.4-0.4v-1.7c0-0.3-0.1-0.5-0.6-0.5
							c-0.6,0-0.7,0.2-0.7,0.5V179.6z"/>
						<path class="st0" d="M163.1,179.6c0,0.3-0.1,0.4-0.4,0.4h-0.1c-0.3,0-0.4-0.1-0.4-0.4v-1.7c0-0.9,0.5-1.4,1.6-1.4
							c1.1,0,1.5,0.5,1.5,1.4v1.7c0,0.3-0.1,0.4-0.4,0.4h-0.1c-0.3,0-0.4-0.1-0.4-0.4v-1.7c0-0.3-0.1-0.5-0.6-0.5
							c-0.6,0-0.7,0.2-0.7,0.5V179.6z"/>
						<path class="st0" d="M165.9,178.5V178c0-1,0.6-1.5,1.6-1.5c1.1,0,1.6,0.5,1.6,1.5v0.5c0,1-0.6,1.5-1.6,1.5
							C166.4,180,165.9,179.5,165.9,178.5z M168.2,178c0-0.4-0.1-0.7-0.7-0.7c-0.6,0-0.7,0.2-0.7,0.7v0.5c0,0.4,0.1,0.7,0.7,0.7
							c0.6,0,0.7-0.2,0.7-0.7V178z"/>
						<path class="st0" d="M170.8,179c0.1,0.3,0.1,0.3,0.3,0.3s0.2,0,0.3-0.3l0.4-2.1c0.1-0.3,0.2-0.4,0.5-0.4h0.1
							c0.3,0,0.4,0.1,0.3,0.4l-0.5,2.2c-0.1,0.6-0.3,1-1.1,1s-1-0.3-1.1-1l-0.5-2.2c-0.1-0.3,0-0.4,0.3-0.4h0.1
							c0.3,0,0.4,0.1,0.5,0.4L170.8,179z"/>
						<path class="st0" d="M176.1,178.9c0,0.7-0.4,1.1-1.5,1.1c-1,0-1.5-0.4-1.5-1.1c0-0.8,0.6-1.1,1.4-1.1h0.7v-0.3
							c0-0.4-0.3-0.4-0.7-0.4c-0.3,0-0.5,0-0.6,0c-0.3,0-0.4,0-0.4-0.3v0c0-0.3,0.1-0.4,0.4-0.4c0.1,0,0.3,0,0.6,0
							c1,0,1.6,0.3,1.6,1.2V178.9z M175.2,178.6h-0.7c-0.3,0-0.5,0.1-0.5,0.4c0,0.3,0.3,0.4,0.6,0.4s0.6,0,0.6-0.4V178.6z"/>
						<path class="st0" d="M176.6,177.9c0-0.9,0.5-1.5,1.6-1.5c0.2,0,0.4,0,0.4,0c0.3,0.1,0.4,0.1,0.4,0.5v0.1
							c0,0.3-0.1,0.4-0.4,0.3c-0.1,0-0.2,0-0.4,0c-0.5,0-0.7,0.1-0.7,0.6v0.6c0,0.5,0.2,0.6,0.8,0.6c0.2,0,0.3,0,0.4,0
							c0.3-0.1,0.4,0,0.4,0.3v0.1c0,0.3-0.1,0.4-0.4,0.4c-0.1,0-0.3,0-0.5,0c-1.2,0-1.7-0.5-1.7-1.5V177.9z"/>
						<path class="st0" d="M179.6,176.9c0-0.3,0.1-0.4,0.4-0.4h0.1c0.3,0,0.4,0.1,0.4,0.4v2.6c0,0.3-0.1,0.4-0.4,0.4H180
							c-0.3,0-0.4-0.1-0.4-0.4V176.9z"/>
						<path class="st0" d="M181.2,178.5V178c0-1,0.6-1.5,1.6-1.5c1.1,0,1.6,0.5,1.6,1.5v0.5c0,1-0.6,1.5-1.6,1.5
							C181.7,180,181.2,179.5,181.2,178.5z M183.5,178c0-0.4-0.1-0.7-0.7-0.7c-0.6,0-0.7,0.2-0.7,0.7v0.5c0,0.4,0.1,0.7,0.7,0.7
							c0.6,0,0.7-0.2,0.7-0.7V178z M183.4,175.2c0.3,0,0.3,0.1,0.2,0.3l-0.2,0.3c-0.1,0.2-0.3,0.3-0.5,0.3h-0.1
							c-0.3,0-0.3-0.1-0.2-0.3l0.1-0.3c0.1-0.3,0.3-0.4,0.6-0.4H183.4z"/>
						<path class="st0" d="M185.9,179.6c0,0.3-0.1,0.4-0.4,0.4h-0.1c-0.3,0-0.4-0.1-0.4-0.4v-1.7c0-0.9,0.5-1.4,1.6-1.4
							c1.1,0,1.5,0.5,1.5,1.4v1.7c0,0.3-0.1,0.4-0.4,0.4h-0.1c-0.3,0-0.4-0.1-0.4-0.4v-1.7c0-0.3-0.1-0.5-0.6-0.5
							c-0.6,0-0.7,0.2-0.7,0.5V179.6z"/>
						<path class="st0" d="M189.2,179c0.3,0,0.5,0.2,0.5,0.5s-0.2,0.5-0.5,0.5s-0.5-0.2-0.5-0.5S189,179,189.2,179z"/>
						<path class="st0" d="M157.3,175c0.3,0,0.5,0.2,0.5,0.5c0,0.3-0.2,0.5-0.5,0.5s-0.5-0.2-0.5-0.5S157,175,157.3,175z"/>
						<path class="st0" d="M180.1,175c0.3,0,0.5,0.2,0.5,0.5c0,0.3-0.2,0.5-0.5,0.5s-0.5-0.2-0.5-0.5S179.8,175,180.1,175z"/>
					</g>
					<g>
						<path class="st0" d="M195.1,178.5c0,1.1-0.7,1.5-1.6,1.5c-1,0-1.6-0.4-1.6-1.5V178c0-1,0.5-1.5,1.4-1.5c0.5,0,0.8,0.1,0.9,0.4
							v-1.3c0-0.3,0.1-0.4,0.4-0.4h0.1c0.3,0,0.4,0.1,0.4,0.4V178.5z M192.7,178.5c0,0.4,0.1,0.7,0.7,0.7c0.6,0,0.7-0.2,0.7-0.7V178
							c0-0.4-0.1-0.7-0.7-0.7s-0.7,0.2-0.7,0.7V178.5z"/>
						<path class="st0" d="M198.8,178.2c0,0.3-0.1,0.4-0.4,0.4h-1.7v0.1c0,0.4,0.3,0.5,0.9,0.5c0.4,0,0.7-0.1,0.8-0.1
							c0.3-0.1,0.4,0,0.4,0.3v0.1c0,0.3-0.1,0.4-0.4,0.4c-0.1,0-0.4,0.1-0.8,0.1c-1.2,0-1.8-0.4-1.8-1.5V178c0-0.9,0.4-1.5,1.6-1.5
							c1,0,1.5,0.5,1.5,1.5C198.8,178,198.8,178.1,198.8,178.2z M196.6,177.9h1.3v-0.1c0-0.3-0.2-0.5-0.7-0.5s-0.7,0.2-0.7,0.5
							V177.9z"/>
						<path class="st0" d="M199.3,179.4c0-0.3,0.1-0.4,0.4-0.3c0.2,0,0.4,0.1,0.9,0.1c0.4,0,0.5,0,0.5-0.2c0-0.1-0.1-0.2-0.4-0.3
							l-0.6-0.3c-0.4-0.2-0.7-0.4-0.7-1c0-0.7,0.4-1,1.4-1c0.4,0,0.6,0.1,0.7,0.1c0.3,0.1,0.4,0.1,0.4,0.4v0.1
							c0,0.3-0.1,0.4-0.4,0.3c-0.1,0-0.4-0.1-0.7-0.1c-0.4,0-0.5,0.1-0.5,0.2c0,0.1,0.1,0.1,0.3,0.2l0.7,0.3c0.5,0.2,0.8,0.4,0.8,1
							c0,0.7-0.4,1-1.5,1c-0.4,0-0.7-0.1-0.9-0.1C199.3,179.9,199.3,179.8,199.3,179.4L199.3,179.4z"/>
						<path class="st0" d="M205.3,178.9c0,0.7-0.4,1.1-1.5,1.1c-1,0-1.5-0.4-1.5-1.1c0-0.8,0.6-1.1,1.4-1.1h0.7v-0.3
							c0-0.4-0.3-0.4-0.7-0.4c-0.3,0-0.5,0-0.6,0c-0.3,0-0.4,0-0.4-0.3v0c0-0.3,0.1-0.4,0.4-0.4c0.1,0,0.3,0,0.6,0
							c1,0,1.6,0.3,1.6,1.2V178.9z M204.4,178.6h-0.7c-0.3,0-0.5,0.1-0.5,0.4c0,0.3,0.3,0.4,0.6,0.4s0.6,0,0.6-0.4V178.6z"/>
						<path class="st0" d="M206.8,179.6c0,0.3-0.1,0.4-0.4,0.4h-0.1c-0.3,0-0.4-0.1-0.4-0.4v-1.9c0-0.8,0.5-1.2,1.4-1.2
							c0,0,0,0,0.1,0c0.3,0,0.3,0.1,0.3,0.4v0.1c0,0.3-0.1,0.3-0.3,0.3c0,0-0.1,0-0.1,0c-0.4,0-0.5,0.2-0.5,0.5V179.6z"/>
						<path class="st0" d="M209.1,179.6c0,0.3-0.1,0.4-0.4,0.4h-0.1c-0.3,0-0.4-0.1-0.4-0.4v-1.9c0-0.8,0.5-1.2,1.4-1.2
							c0,0,0,0,0.1,0c0.3,0,0.3,0.1,0.3,0.4v0.1c0,0.3-0.1,0.3-0.3,0.3c0,0-0.1,0-0.1,0c-0.4,0-0.5,0.2-0.5,0.5V179.6z"/>
						<path class="st0" d="M210.3,178.5V178c0-1,0.6-1.5,1.6-1.5c1.1,0,1.6,0.5,1.6,1.5v0.5c0,1-0.6,1.5-1.6,1.5
							C210.8,180,210.3,179.5,210.3,178.5z M212.7,178c0-0.4-0.1-0.7-0.7-0.7s-0.7,0.2-0.7,0.7v0.5c0,0.4,0.1,0.7,0.7,0.7
							s0.7-0.2,0.7-0.7V178z"/>
						<path class="st0" d="M214.2,175.6c0-0.3,0.1-0.4,0.4-0.4h0.1c0.3,0,0.4,0.1,0.4,0.4v3.2c0,0.4,0.1,0.5,0.3,0.5c0,0,0,0,0,0
							c0.2,0,0.2,0,0.2,0.3v0.1c0,0.3-0.1,0.3-0.2,0.4c0,0-0.1,0-0.2,0c-0.6,0-1-0.3-1-1.1V175.6z"/>
						<path class="st0" d="M216,175.6c0-0.3,0.1-0.4,0.4-0.4h0.1c0.3,0,0.4,0.1,0.4,0.4v3.2c0,0.4,0.1,0.5,0.3,0.5c0,0,0,0,0,0
							c0.2,0,0.2,0,0.2,0.3v0.1c0,0.3-0.1,0.3-0.2,0.4c0,0-0.1,0-0.2,0c-0.6,0-1-0.3-1-1.1V175.6z"/>
						<path class="st0" d="M217.8,178.5V178c0-1,0.6-1.5,1.6-1.5c1.1,0,1.6,0.5,1.6,1.5v0.5c0,1-0.6,1.5-1.6,1.5
							C218.3,180,217.8,179.5,217.8,178.5z M220.2,178c0-0.4-0.1-0.7-0.7-0.7c-0.6,0-0.7,0.2-0.7,0.7v0.5c0,0.4,0.1,0.7,0.7,0.7
							c0.6,0,0.7-0.2,0.7-0.7V178z"/>
						<path class="st0" d="M222.1,179c0.3,0,0.5,0.2,0.5,0.5s-0.2,0.5-0.5,0.5s-0.5-0.2-0.5-0.5S221.9,179,222.1,179z"/>
					</g>
					<g>
						<path class="st0" d="M227.8,178.2c0,0.3-0.1,0.4-0.4,0.4h-1.7v0.1c0,0.4,0.3,0.5,0.9,0.5c0.4,0,0.7-0.1,0.8-0.1
							c0.3-0.1,0.4,0,0.4,0.3v0.1c0,0.3-0.1,0.4-0.4,0.4c-0.1,0-0.4,0.1-0.8,0.1c-1.2,0-1.8-0.4-1.8-1.5V178c0-0.9,0.4-1.5,1.6-1.5
							c1,0,1.5,0.5,1.5,1.5C227.8,178,227.8,178.1,227.8,178.2z M225.6,177.9h1.3v-0.1c0-0.3-0.2-0.5-0.7-0.5s-0.7,0.2-0.7,0.5
							V177.9z"/>
						<path class="st0" d="M229.3,179.6c0,0.3-0.1,0.4-0.4,0.4h-0.1c-0.3,0-0.4-0.1-0.4-0.4v-1.7c0-0.9,0.5-1.4,1.5-1.4
							c0.5,0,0.8,0.1,1,0.4c0.2-0.3,0.5-0.4,1-0.4c1,0,1.4,0.5,1.4,1.4v1.7c0,0.3-0.1,0.4-0.4,0.4h-0.1c-0.3,0-0.4-0.1-0.4-0.4v-1.7
							c0-0.3-0.1-0.5-0.6-0.5c-0.5,0-0.6,0.2-0.6,0.5v1.7c0,0.3-0.1,0.4-0.4,0.4h-0.1c-0.3,0-0.4-0.1-0.4-0.4v-1.7
							c0-0.3-0.1-0.5-0.6-0.5c-0.5,0-0.6,0.2-0.6,0.5V179.6z"/>
						<path class="st0" d="M234,178c0-1.1,0.7-1.5,1.6-1.5c1,0,1.6,0.4,1.6,1.5v0.5c0,1-0.5,1.5-1.4,1.5c-0.5,0-0.8-0.1-0.9-0.4v1.3
							c0,0.3-0.1,0.4-0.4,0.4h-0.1c-0.3,0-0.4-0.1-0.4-0.4V178z M236.3,178c0-0.4-0.1-0.7-0.7-0.7c-0.6,0-0.7,0.2-0.7,0.7v0.5
							c0,0.4,0.1,0.7,0.7,0.7s0.7-0.2,0.7-0.7V178z"/>
						<path class="st0" d="M238.7,179.6c0,0.3-0.1,0.4-0.4,0.4h-0.1c-0.3,0-0.4-0.1-0.4-0.4v-1.9c0-0.8,0.5-1.2,1.4-1.2
							c0,0,0,0,0.1,0c0.3,0,0.3,0.1,0.3,0.4v0.1c0,0.3-0.1,0.3-0.3,0.3c0,0-0.1,0-0.1,0c-0.4,0-0.5,0.2-0.5,0.5V179.6z"/>
						<path class="st0" d="M243,178.2c0,0.3-0.1,0.4-0.4,0.4h-1.7v0.1c0,0.4,0.3,0.5,0.9,0.5c0.4,0,0.7-0.1,0.8-0.1
							c0.3-0.1,0.4,0,0.4,0.3v0.1c0,0.3-0.1,0.4-0.4,0.4c-0.1,0-0.4,0.1-0.8,0.1c-1.2,0-1.8-0.4-1.8-1.5V178c0-0.9,0.4-1.5,1.6-1.5
							c1,0,1.5,0.5,1.5,1.5C243,178,243,178.1,243,178.2z M240.8,177.9h1.3v-0.1c0-0.3-0.2-0.5-0.7-0.5c-0.4,0-0.7,0.2-0.7,0.5
							V177.9z"/>
						<path class="st0" d="M244.5,179.6c0,0.3-0.1,0.4-0.4,0.4H244c-0.3,0-0.4-0.1-0.4-0.4v-1.7c0-0.9,0.5-1.4,1.6-1.4
							c1.1,0,1.5,0.5,1.5,1.4v1.7c0,0.3-0.1,0.4-0.4,0.4h-0.1c-0.3,0-0.4-0.1-0.4-0.4v-1.7c0-0.3-0.1-0.5-0.6-0.5
							c-0.6,0-0.7,0.2-0.7,0.5V179.6z"/>
						<path class="st0" d="M250.5,178.5c0,1.1-0.7,1.5-1.6,1.5c-1,0-1.6-0.4-1.6-1.5V178c0-1,0.5-1.5,1.4-1.5c0.5,0,0.8,0.1,0.9,0.4
							v-1.3c0-0.3,0.1-0.4,0.4-0.4h0.1c0.3,0,0.4,0.1,0.4,0.4V178.5z M248.2,178.5c0,0.4,0.1,0.7,0.7,0.7c0.6,0,0.7-0.2,0.7-0.7V178
							c0-0.4-0.1-0.7-0.7-0.7s-0.7,0.2-0.7,0.7V178.5z"/>
						<path class="st0" d="M251.3,176.9c0-0.3,0.1-0.4,0.4-0.4h0.1c0.3,0,0.4,0.1,0.4,0.4v2.6c0,0.3-0.1,0.4-0.4,0.4h-0.1
							c-0.3,0-0.4-0.1-0.4-0.4V176.9z"/>
						<path class="st0" d="M253.8,179.6c0,0.3-0.1,0.4-0.4,0.4h-0.1c-0.3,0-0.4-0.1-0.4-0.4v-1.7c0-0.9,0.5-1.4,1.5-1.4
							c0.5,0,0.8,0.1,1,0.4c0.2-0.3,0.5-0.4,1-0.4c1,0,1.4,0.5,1.4,1.4v1.7c0,0.3-0.1,0.4-0.4,0.4h-0.1c-0.3,0-0.4-0.1-0.4-0.4v-1.7
							c0-0.3-0.1-0.5-0.6-0.5c-0.5,0-0.6,0.2-0.6,0.5v1.7c0,0.3-0.1,0.4-0.4,0.4h-0.1c-0.3,0-0.4-0.1-0.4-0.4v-1.7
							c0-0.3-0.1-0.5-0.6-0.5c-0.5,0-0.6,0.2-0.6,0.5V179.6z"/>
						<path class="st0" d="M258.5,176.9c0-0.3,0.1-0.4,0.4-0.4h0.1c0.3,0,0.4,0.1,0.4,0.4v2.6c0,0.3-0.1,0.4-0.4,0.4h-0.1
							c-0.3,0-0.4-0.1-0.4-0.4V176.9z"/>
						<path class="st0" d="M263.1,178.2c0,0.3-0.1,0.4-0.4,0.4h-1.7v0.1c0,0.4,0.3,0.5,0.9,0.5c0.4,0,0.7-0.1,0.8-0.1
							c0.3-0.1,0.4,0,0.4,0.3v0.1c0,0.3-0.1,0.4-0.4,0.4c-0.1,0-0.4,0.1-0.8,0.1c-1.2,0-1.8-0.4-1.8-1.5V178c0-0.9,0.4-1.5,1.6-1.5
							c1,0,1.5,0.5,1.5,1.5C263.1,178,263.1,178.1,263.1,178.2z M260.9,177.9h1.3v-0.1c0-0.3-0.2-0.5-0.7-0.5
							c-0.4,0-0.7,0.2-0.7,0.5V177.9z"/>
						<path class="st0" d="M264.6,179.6c0,0.3-0.1,0.4-0.4,0.4h-0.1c-0.3,0-0.4-0.1-0.4-0.4v-1.7c0-0.9,0.5-1.4,1.6-1.4
							c1.1,0,1.5,0.5,1.5,1.4v1.7c0,0.3-0.1,0.4-0.4,0.4h-0.1c-0.3,0-0.4-0.1-0.4-0.4v-1.7c0-0.3-0.1-0.5-0.6-0.5
							c-0.6,0-0.7,0.2-0.7,0.5V179.6z"/>
						<path class="st0" d="M267.1,177c0-0.3,0.1-0.4,0.3-0.4l0.3-0.1l0.1-0.5c0-0.3,0.1-0.3,0.4-0.3h0c0.3,0,0.4,0.1,0.4,0.4v0.5
							h0.8c0.3,0,0.4,0.1,0.4,0.4v0.1c0,0.3-0.1,0.4-0.4,0.4h-0.8v1.3c0,0.3,0.2,0.5,0.4,0.5c0.2,0,0.4,0,0.5,0
							c0.3-0.1,0.4,0,0.4,0.3v0.1c0,0.3-0.1,0.4-0.4,0.5c-0.1,0-0.2,0-0.5,0c-0.8,0-1.3-0.3-1.3-1.3v-1.3h-0.3
							C267.2,177.4,267.1,177.3,267.1,177L267.1,177z"/>
						<path class="st0" d="M270.3,178.5V178c0-1,0.6-1.5,1.6-1.5c1.1,0,1.6,0.5,1.6,1.5v0.5c0,1-0.6,1.5-1.6,1.5
							C270.8,180,270.3,179.5,270.3,178.5z M272.6,178c0-0.4-0.1-0.7-0.7-0.7s-0.7,0.2-0.7,0.7v0.5c0,0.4,0.1,0.7,0.7,0.7
							s0.7-0.2,0.7-0.7V178z"/>
						<path class="st0" d="M274.6,179c0.3,0,0.5,0.2,0.5,0.5s-0.2,0.5-0.5,0.5c-0.3,0-0.5-0.2-0.5-0.5S274.3,179,274.6,179z"/>
						<path class="st0" d="M251.7,175c0.3,0,0.5,0.2,0.5,0.5c0,0.3-0.2,0.5-0.5,0.5c-0.3,0-0.5-0.2-0.5-0.5S251.4,175,251.7,175z"/>
						<path class="st0" d="M258.9,175c0.3,0,0.5,0.2,0.5,0.5c0,0.3-0.2,0.5-0.5,0.5c-0.3,0-0.5-0.2-0.5-0.5S258.7,175,258.9,175z"/>
					</g>
					<g>
						<g>
							<g>
								<g>
									<g>
										<path class="st0" d="M280,178.9c0,0.7-0.4,1.1-1.5,1.1c-1,0-1.5-0.4-1.5-1.1c0-0.8,0.6-1.1,1.4-1.1h0.7v-0.3
											c0-0.4-0.3-0.4-0.7-0.4c-0.3,0-0.5,0-0.6,0c-0.3,0-0.4,0-0.4-0.3v0c0-0.3,0.1-0.4,0.4-0.4c0.1,0,0.3,0,0.6,0
											c1,0,1.6,0.3,1.6,1.2V178.9z M279.2,178.6h-0.7c-0.3,0-0.5,0.1-0.5,0.4c0,0.3,0.3,0.4,0.6,0.4c0.3,0,0.6,0,0.6-0.4V178.6z
											"/>
									</g>
								</g>
								<g>
									<g>
										<path class="st0" d="M280.6,177.9c0-0.9,0.5-1.5,1.6-1.5c0.2,0,0.4,0,0.4,0c0.3,0.1,0.4,0.1,0.4,0.5v0.1
											c0,0.3-0.1,0.4-0.4,0.3c-0.1,0-0.2,0-0.4,0c-0.5,0-0.7,0.1-0.7,0.6v0.6c0,0.5,0.2,0.6,0.8,0.6c0.2,0,0.3,0,0.4,0
											c0.3-0.1,0.4,0,0.4,0.3v0.1c0,0.3-0.1,0.4-0.4,0.4c-0.1,0-0.3,0-0.5,0c-1.2,0-1.7-0.5-1.7-1.5V177.9z"/>
									</g>
								</g>
								<g>
									<g>
										<path class="st0" d="M286.4,178.2c0,0.3-0.1,0.4-0.4,0.4h-1.7v0.1c0,0.4,0.3,0.5,0.9,0.5c0.4,0,0.7-0.1,0.8-0.1
											c0.3-0.1,0.4,0,0.4,0.3v0.1c0,0.3-0.1,0.4-0.4,0.4c-0.1,0-0.4,0.1-0.8,0.1c-1.2,0-1.8-0.4-1.8-1.5V178
											c0-0.9,0.4-1.5,1.6-1.5c1,0,1.5,0.5,1.5,1.5C286.4,178,286.4,178.1,286.4,178.2z M284.2,177.9h1.3v-0.1
											c0-0.3-0.2-0.5-0.7-0.5c-0.4,0-0.7,0.2-0.7,0.5V177.9z"/>
									</g>
								</g>
								<g>
									<g>
										<path class="st0" d="M287,175.6c0-0.3,0.1-0.4,0.4-0.4h0.1c0.3,0,0.4,0.1,0.4,0.4v3.2c0,0.4,0.1,0.5,0.3,0.5c0,0,0,0,0,0
											c0.2,0,0.2,0,0.2,0.3v0.1c0,0.3-0.1,0.3-0.2,0.4c0,0-0.1,0-0.2,0c-0.6,0-1-0.3-1-1.1V175.6z"/>
									</g>
								</g>
								<g>
									<g>
										<path class="st0" d="M291.8,178.2c0,0.3-0.1,0.4-0.4,0.4h-1.7v0.1c0,0.4,0.3,0.5,0.9,0.5c0.4,0,0.7-0.1,0.8-0.1
											c0.3-0.1,0.4,0,0.4,0.3v0.1c0,0.3-0.1,0.4-0.4,0.4c-0.1,0-0.4,0.1-0.8,0.1c-1.2,0-1.8-0.4-1.8-1.5V178
											c0-0.9,0.4-1.5,1.6-1.5c1,0,1.5,0.5,1.5,1.5C291.9,178,291.9,178.1,291.8,178.2z M289.7,177.9h1.3v-0.1
											c0-0.3-0.2-0.5-0.7-0.5c-0.4,0-0.7,0.2-0.7,0.5V177.9z"/>
									</g>
								</g>
								<g>
									<g>
										<path class="st0" d="M293.4,179.6c0,0.3-0.1,0.4-0.4,0.4h-0.1c-0.3,0-0.4-0.1-0.4-0.4v-1.9c0-0.8,0.5-1.2,1.4-1.2
											c0,0,0,0,0.1,0c0.3,0,0.3,0.1,0.3,0.4v0.1c0,0.3-0.1,0.3-0.3,0.3c0,0-0.1,0-0.1,0c-0.4,0-0.5,0.2-0.5,0.5V179.6z"/>
									</g>
								</g>
								<g>
									<g>
										<path class="st0" d="M297.4,178.9c0,0.7-0.4,1.1-1.5,1.1c-1,0-1.5-0.4-1.5-1.1c0-0.8,0.6-1.1,1.4-1.1h0.7v-0.3
											c0-0.4-0.3-0.4-0.7-0.4c-0.3,0-0.5,0-0.6,0c-0.3,0-0.4,0-0.4-0.3v0c0-0.3,0.1-0.4,0.4-0.4c0.1,0,0.3,0,0.6,0
											c1,0,1.6,0.3,1.6,1.2V178.9z M296.5,178.6h-0.7c-0.3,0-0.5,0.1-0.5,0.4c0,0.3,0.3,0.4,0.6,0.4c0.3,0,0.6,0,0.6-0.4V178.6z
											"/>
									</g>
								</g>
								<g>
									<g>
										<path class="st0" d="M297.9,177.9c0-0.9,0.5-1.5,1.6-1.5c0.2,0,0.4,0,0.4,0c0.3,0.1,0.4,0.1,0.4,0.5v0.1
											c0,0.3-0.1,0.4-0.4,0.3c-0.1,0-0.2,0-0.4,0c-0.5,0-0.7,0.1-0.7,0.6v0.6c0,0.5,0.2,0.6,0.8,0.6c0.2,0,0.3,0,0.4,0
											c0.3-0.1,0.4,0,0.4,0.3v0.1c0,0.3-0.1,0.4-0.4,0.4c-0.1,0-0.3,0-0.5,0c-1.2,0-1.7-0.5-1.7-1.5V177.9z"/>
									</g>
								</g>
								<g>
									<g>
										<path class="st0" d="M300.9,176.9c0-0.3,0.1-0.4,0.4-0.4h0.1c0.3,0,0.4,0.1,0.4,0.4v2.6c0,0.3-0.1,0.4-0.4,0.4h-0.1
											c-0.3,0-0.4-0.1-0.4-0.4V176.9z"/>
									</g>
								</g>
								<g>
									<g>
										<path class="st0" d="M302.5,178.5V178c0-1,0.6-1.5,1.6-1.5c1.1,0,1.6,0.5,1.6,1.5v0.5c0,1-0.6,1.5-1.6,1.5
											C303,180,302.5,179.5,302.5,178.5z M304.8,178c0-0.4-0.1-0.7-0.7-0.7s-0.7,0.2-0.7,0.7v0.5c0,0.4,0.1,0.7,0.7,0.7
											s0.7-0.2,0.7-0.7V178z M304.7,175.2c0.3,0,0.3,0.1,0.2,0.3l-0.2,0.3c-0.1,0.2-0.3,0.3-0.5,0.3h-0.1
											c-0.3,0-0.3-0.1-0.2-0.3l0.1-0.3c0.1-0.3,0.3-0.4,0.6-0.4H304.7z"/>
									</g>
								</g>
								<g>
									<g>
										<path class="st0" d="M307.2,179.6c0,0.3-0.1,0.4-0.4,0.4h-0.1c-0.3,0-0.4-0.1-0.4-0.4v-1.7c0-0.9,0.5-1.4,1.6-1.4
											c1.1,0,1.5,0.5,1.5,1.4v1.7c0,0.3-0.1,0.4-0.4,0.4h-0.1c-0.3,0-0.4-0.1-0.4-0.4v-1.7c0-0.3-0.1-0.5-0.6-0.5
											c-0.6,0-0.7,0.2-0.7,0.5V179.6z"/>
									</g>
								</g>
								<path class="st0" d="M310.5,179c0.3,0,0.5,0.2,0.5,0.5s-0.2,0.5-0.5,0.5c-0.3,0-0.5-0.2-0.5-0.5S310.2,179,310.5,179z"/>
							</g>
						</g>
						<path class="st0" d="M301.3,175c0.3,0,0.5,0.2,0.5,0.5c0,0.3-0.2,0.5-0.5,0.5c-0.3,0-0.5-0.2-0.5-0.5S301.1,175,301.3,175z"/>
					</g>
				</g>
			</g>
			<circle class="st0" cx="203.4" cy="149.1" r="2.5"/>
		</g>
		<g>
			<path class="st0" d="M67.2,164.2c-0.2,0-0.3,0-0.4,0.1c-0.1,0.1-0.1,0.2-0.1,0.4c0,0.2,0,0.3,0.1,0.4c0.1,0.1,0.2,0.2,0.4,0.2
				c0.1,0,0.1,0,0.2,0c0,0,0.1,0,0.1-0.1l0,0v-1l0,0C67.3,164.2,67.3,164.2,67.2,164.2z"/>
			<path class="st0" d="M63.8,165c-0.1,0-0.1,0.1-0.1,0.2c0,0.1,0,0.1,0.1,0.2c0.1,0,0.1,0.1,0.2,0.1c0,0,0.1,0,0.2,0
				c0.1,0,0.1,0,0.1,0l0,0v-0.4l-0.3,0C63.9,165,63.9,165,63.8,165z"/>
			<path class="st0" d="M69.6,164.3c-0.1-0.1-0.2-0.1-0.3-0.1c-0.1,0-0.1,0-0.2,0c-0.1,0-0.1,0.1-0.1,0.1c0,0-0.1,0.1-0.1,0.1
				c0,0,0,0.1,0,0.1l0,0.1l0.8-0.1l0,0C69.7,164.4,69.7,164.4,69.6,164.3z"/>
			<path class="st0" d="M75.8,164.3c-0.1-0.1-0.2-0.1-0.3-0.1c-0.1,0-0.1,0-0.2,0c-0.1,0-0.1,0.1-0.1,0.1c0,0-0.1,0.1-0.1,0.1
				c0,0,0,0.1,0,0.1l0,0.1l0.8-0.1l0,0C75.8,164.4,75.8,164.4,75.8,164.3z"/>
			<path class="st0" d="M57.8,164.2c-0.2,0-0.3,0-0.4,0.1c-0.1,0.1-0.1,0.2-0.1,0.4c0,0.2,0,0.3,0.1,0.4c0.1,0.1,0.2,0.2,0.4,0.2
				c0.1,0,0.1,0,0.2,0c0,0,0.1,0,0.1-0.1l0,0v-1l0,0C58,164.2,57.9,164.2,57.8,164.2z"/>
			<path class="st0" d="M52.9,165c-0.1,0-0.1,0.1-0.1,0.2c0,0.1,0,0.1,0.1,0.2c0.1,0,0.1,0.1,0.2,0.1c0,0,0.1,0,0.2,0
				c0.1,0,0.1,0,0.1,0l0,0v-0.4l-0.3,0C53,165,52.9,165,52.9,165z"/>
			<path class="st0" d="M60.3,164.3c-0.1-0.1-0.2-0.1-0.3-0.1c-0.1,0-0.1,0-0.2,0c-0.1,0-0.1,0.1-0.1,0.1c0,0-0.1,0.1-0.1,0.1
				c0,0,0,0.1,0,0.1l0,0.1l0.8-0.1l0,0C60.4,164.4,60.4,164.4,60.3,164.3z"/>
			<ellipse class="st0" cx="79" cy="153.3" rx="3.4" ry="3.4"/>
			<path class="st0" d="M66.4,128.9C52,128.8,40.2,140.5,40.1,155s11.6,26.3,26.1,26.3c14.5,0.1,26.3-11.6,26.3-26.1
				C92.6,140.7,80.9,128.9,66.4,128.9z M45.8,153.4c0-4.5,3.3-7.7,8.2-7.7c2,0,3.7,0.4,4.6,1.6c0.5,0.7,0.5,2-0.7,2.8
				c-1.1-0.6-2.2-1-3.5-1c-3.7,0-4.3,2.9-4.3,4.3c0,2.3,1.1,3.5,2.4,3.9c1.4,0.5,2.6,0.2,3-0.1V155H53c-0.1-0.2-0.5-1-0.4-2
				c0.1-0.5,0.4-1.2,1.4-1.2h4c1.1,0,1.5,0.8,1.5,1.5v4.8c0,1-0.5,1.4-1.1,1.8c-1,0.6-2.7,0.9-4.4,0.9
				C48.4,160.8,45.8,157.4,45.8,153.4z M50.3,165.4c0,0.1,0,0.1,0,0.2c0,0-0.1,0.1-0.1,0.1c0,0-0.1,0-0.1,0.1c-0.1,0-0.1,0-0.2,0.1
				c-0.1,0-0.1,0-0.2,0c-0.3,0-0.5,0-0.8-0.1c-0.2-0.1-0.3-0.1-0.4-0.2c-0.1-0.1-0.2-0.2-0.3-0.4c-0.1-0.2-0.1-0.4-0.1-0.6
				c0-0.2,0-0.4,0.1-0.6c0.1-0.2,0.2-0.3,0.3-0.4c0.1-0.1,0.3-0.2,0.4-0.3c0.2-0.1,0.3-0.1,0.5-0.1c0.3,0,0.5,0,0.6,0.1
				c0.1,0.1,0.2,0.2,0.2,0.3c0,0.1,0,0.1,0,0.2c0,0-0.1,0.1-0.1,0.1c-0.1,0-0.1-0.1-0.2-0.1c-0.1,0-0.2-0.1-0.4-0.1
				c-0.2,0-0.4,0.1-0.6,0.2c-0.1,0.1-0.2,0.3-0.2,0.6c0,0.1,0,0.3,0.1,0.4c0,0.1,0.1,0.2,0.2,0.3c0.1,0.1,0.1,0.1,0.2,0.1
				c0.1,0,0.2,0,0.3,0c0.1,0,0.1,0,0.2,0c0.1,0,0.1,0,0.1,0l0,0v-0.5h-0.5c0,0,0-0.1,0-0.1c0,0,0-0.1,0-0.1c0-0.1,0-0.2,0.1-0.2
				c0,0,0.1-0.1,0.1-0.1h0.7c0.1,0,0.1,0,0.2,0.1c0,0,0.1,0.1,0.1,0.2V165.4z M52,164.2C52,164.2,52,164.2,52,164.2
				c-0.1,0.1-0.1,0.1-0.2,0.1c-0.1,0-0.1,0-0.2,0c-0.1,0-0.1,0-0.2,0c-0.1,0-0.1,0-0.1,0l0,0v1.5c0,0-0.1,0-0.1,0
				c-0.1,0-0.2,0-0.3,0c0,0-0.1,0-0.1,0c0,0,0,0-0.1-0.1c0,0,0-0.1,0-0.2v-1.3c0-0.1,0-0.1,0-0.1c0,0,0.1-0.1,0.1-0.1
				c0,0,0.1-0.1,0.2-0.1c0.1,0,0.1-0.1,0.2-0.1c0.1,0,0.1,0,0.2-0.1c0.1,0,0.2,0,0.2,0c0.1,0,0.2,0,0.3,0.1c0.1,0,0.1,0.1,0.1,0.2
				C52.1,164.1,52.1,164.1,52,164.2z M54,165.4c0,0.1,0,0.1,0,0.2c0,0-0.1,0.1-0.1,0.1c-0.2,0.1-0.4,0.2-0.7,0.2c-0.1,0-0.3,0-0.4,0
				c-0.1,0-0.2-0.1-0.3-0.1c-0.1-0.1-0.1-0.1-0.2-0.2c0-0.1-0.1-0.2-0.1-0.3c0-0.2,0.1-0.3,0.2-0.4c0.1-0.1,0.3-0.2,0.5-0.2l0.6-0.1
				v-0.1c0-0.1,0-0.2-0.1-0.2c-0.1,0-0.2-0.1-0.3-0.1c-0.1,0-0.2,0-0.3,0c-0.1,0-0.2,0-0.2,0.1c0,0,0,0-0.1-0.1c0,0,0-0.1,0-0.1
				c0-0.1,0-0.1,0-0.1c0,0,0.1-0.1,0.1-0.1c0.1,0,0.2-0.1,0.3-0.1c0.3,0,0.5,0,0.7,0c0.1,0,0.2,0.1,0.3,0.1c0.1,0.1,0.1,0.1,0.2,0.2
				c0,0.1,0.1,0.2,0.1,0.3V165.4z M56.3,165.8C56.3,165.8,56.3,165.8,56.3,165.8c-0.2,0-0.3,0-0.4,0c0,0-0.1,0-0.1,0
				c0,0,0,0-0.1-0.1c0,0,0-0.1,0-0.2v-1c0-0.1,0-0.2-0.1-0.2c-0.1,0-0.1-0.1-0.2-0.1c-0.1,0-0.1,0-0.2,0c-0.1,0-0.1,0-0.2,0.1l0,0
				v1.5c0,0-0.1,0-0.1,0c-0.1,0-0.2,0-0.3,0c0,0-0.1,0-0.1,0c0,0,0,0-0.1-0.1c0,0,0-0.1,0-0.2v-1.3c0-0.1,0-0.1,0-0.2
				c0,0,0.1-0.1,0.1-0.1c0.1-0.1,0.2-0.1,0.3-0.2c0.1,0,0.3-0.1,0.5-0.1c0.3,0,0.5,0.1,0.7,0.2c0.2,0.1,0.2,0.3,0.2,0.6V165.8z
				 M58.7,165.4c0,0.1-0.1,0.2-0.2,0.3c-0.1,0.1-0.2,0.1-0.3,0.1c-0.1,0-0.3,0.1-0.4,0.1c-0.2,0-0.3,0-0.5-0.1
				c-0.1,0-0.3-0.1-0.3-0.2c-0.1-0.1-0.2-0.2-0.2-0.3c0-0.1-0.1-0.3-0.1-0.4c0-0.2,0-0.3,0.1-0.5c0.1-0.1,0.1-0.2,0.2-0.3
				c0.1-0.1,0.2-0.2,0.3-0.2c0.1,0,0.3-0.1,0.4-0.1c0.1,0,0.1,0,0.2,0c0,0,0.1,0,0.1,0l0.1,0v-0.7c0,0,0.1,0,0.1,0
				c0.1,0,0.2,0,0.3,0c0,0,0.1,0,0.1,0c0,0,0,0,0.1,0.1c0,0,0,0.1,0,0.2V165.4z M60.9,164.8c0,0-0.1,0.1-0.2,0.1l-1.1,0.2l0,0.1
				c0,0.1,0.1,0.2,0.2,0.2c0.2,0.1,0.5,0.1,0.7,0c0.1,0,0.2-0.1,0.2-0.1c0,0,0.1,0.1,0.1,0.1c0,0,0,0.1,0,0.1c0,0.1,0,0.2-0.1,0.2
				c-0.1,0-0.2,0.1-0.3,0.1c-0.3,0-0.5,0-0.7,0c-0.1,0-0.2-0.1-0.3-0.2c-0.1-0.1-0.2-0.2-0.2-0.3c-0.1-0.1-0.1-0.3-0.1-0.5
				c0-0.2,0-0.3,0.1-0.5c0.1-0.1,0.1-0.2,0.2-0.3c0.1-0.1,0.2-0.1,0.3-0.2c0.1,0,0.2-0.1,0.4-0.1c0.1,0,0.3,0,0.4,0.1
				c0.1,0,0.2,0.1,0.3,0.2c0.1,0.1,0.1,0.2,0.2,0.3c0,0.1,0.1,0.2,0.1,0.3C61,164.7,60.9,164.8,60.9,164.8z M62.8,165.8
				c0,0-0.1,0.1-0.1,0.1h-1.3c0,0-0.1-0.1-0.1-0.1c0,0,0-0.1,0-0.2c0,0,0-0.1,0-0.1c0-0.1,0.1-0.1,0.1-0.1l0.8-0.9h-0.8
				c0,0,0-0.1,0-0.1c0,0,0-0.1,0-0.1c0-0.1,0-0.1,0.1-0.2c0,0,0.1-0.1,0.1-0.1h1.3c0,0,0.1,0.1,0.1,0.1c0,0,0,0.1,0,0.2
				c0,0.1,0,0.1,0,0.1c0,0.1-0.1,0.1-0.1,0.1l-0.8,0.9h0.9c0,0,0,0.1,0,0.1c0,0,0,0.1,0,0.1C62.9,165.7,62.9,165.7,62.8,165.8z
				 M64.9,165.4c0,0.1,0,0.1,0,0.2c0,0-0.1,0.1-0.1,0.1c-0.2,0.1-0.4,0.2-0.7,0.2c-0.1,0-0.3,0-0.4,0c-0.1,0-0.2-0.1-0.3-0.1
				c-0.1-0.1-0.1-0.1-0.2-0.2c0-0.1-0.1-0.2-0.1-0.3c0-0.2,0.1-0.3,0.2-0.4c0.1-0.1,0.3-0.2,0.5-0.2l0.6-0.1v-0.1
				c0-0.1,0-0.2-0.1-0.2c-0.1,0-0.2-0.1-0.3-0.1c-0.1,0-0.2,0-0.3,0c-0.1,0-0.2,0-0.2,0.1c0,0,0,0-0.1-0.1c0,0,0-0.1,0-0.1
				c0-0.1,0-0.1,0-0.1c0,0,0.1-0.1,0.1-0.1c0.1,0,0.2-0.1,0.3-0.1c0.3,0,0.5,0,0.7,0c0.1,0,0.2,0.1,0.3,0.1c0.1,0.1,0.1,0.1,0.2,0.2
				c0,0.1,0.1,0.2,0.1,0.3V165.4z M68,165.4c0,0.1-0.1,0.2-0.2,0.3c-0.1,0.1-0.2,0.1-0.3,0.1c-0.1,0-0.3,0.1-0.4,0.1
				c-0.2,0-0.3,0-0.5-0.1c-0.1,0-0.3-0.1-0.3-0.2c-0.1-0.1-0.2-0.2-0.2-0.3c0-0.1-0.1-0.3-0.1-0.4c0-0.2,0-0.3,0.1-0.5
				c0.1-0.1,0.1-0.2,0.2-0.3c0.1-0.1,0.2-0.2,0.3-0.2c0.1,0,0.3-0.1,0.4-0.1c0.1,0,0.1,0,0.2,0c0,0,0.1,0,0.1,0l0.1,0v-0.7
				c0,0,0.1,0,0.1,0c0.1,0,0.2,0,0.3,0c0,0,0.1,0,0.1,0c0,0,0,0,0.1,0.1c0,0,0,0.1,0,0.2V165.4z M70.2,164.8c0,0-0.1,0.1-0.2,0.1
				l-1.1,0.2l0,0.1c0,0.1,0.1,0.2,0.2,0.2c0.2,0.1,0.5,0.1,0.7,0c0.1,0,0.2-0.1,0.2-0.1c0,0,0.1,0.1,0.1,0.1c0,0,0,0.1,0,0.1
				c0,0.1,0,0.2-0.1,0.2c-0.1,0-0.2,0.1-0.3,0.1c-0.3,0-0.5,0-0.7,0c-0.1,0-0.2-0.1-0.3-0.2c-0.1-0.1-0.2-0.2-0.2-0.3
				c-0.1-0.1-0.1-0.3-0.1-0.5c0-0.2,0-0.3,0.1-0.5c0.1-0.1,0.1-0.2,0.2-0.3c0.1-0.1,0.2-0.1,0.3-0.2c0.1,0,0.2-0.1,0.4-0.1
				c0.1,0,0.3,0,0.4,0.1c0.1,0,0.2,0.1,0.3,0.2c0.1,0.1,0.1,0.2,0.2,0.3c0,0.1,0.1,0.2,0.1,0.3C70.3,164.7,70.3,164.8,70.2,164.8z
				 M67.9,149.4c0,0,0,6.8,0,9.5c0,0.9-0.3,1.4-0.8,1.6c-0.9,0.4-2.3,0.2-3.3,0v-11.2h-4c-0.2-1.7,0-3.4,1.7-3.4
				c1.7,0,10.8,0,10.8,0c0.1,1.5,0.1,3.4-1.5,3.4C69.6,149.4,67.9,149.4,67.9,149.4z M74.1,165.8c0,0-0.1,0-0.2,0
				c-0.1,0-0.2,0-0.2-0.1c-0.1,0-0.1-0.1-0.1-0.2c0-0.3,0-0.6,0-0.8c0-0.2,0-0.5,0-0.6l0,0h-0.1l0,0c0,0.1-0.1,0.3-0.1,0.4
				c-0.1,0.2-0.1,0.4-0.2,0.6c0,0-0.1,0-0.1,0.1c-0.1,0-0.1,0-0.2,0c-0.1,0-0.2,0-0.2,0c-0.1,0-0.1-0.1-0.1-0.1
				c-0.1-0.3-0.1-0.5-0.2-0.6c0-0.2-0.1-0.3-0.1-0.4l0,0h-0.1l0,0c0,0.2,0,0.3,0,0.5s0,0.3,0,0.4c0,0.1,0,0.3,0,0.4
				c0,0.1,0,0.3,0,0.4c0,0-0.1,0-0.1,0c-0.1,0-0.1,0-0.2,0c-0.1,0-0.2,0-0.3-0.1c-0.1,0-0.1-0.1-0.1-0.2l0.1-2.2c0,0,0-0.1,0.1-0.1
				c0.1,0,0.2-0.1,0.3-0.1c0.1,0,0.2,0,0.3,0.1c0.1,0,0.1,0.1,0.2,0.2c0,0.1,0.1,0.1,0.1,0.2c0,0.1,0.1,0.2,0.1,0.3
				c0,0.1,0.1,0.2,0.1,0.3l0.1,0.3h0.1l0,0c0.1-0.2,0.1-0.5,0.2-0.7c0.1-0.2,0.1-0.4,0.2-0.5c0,0,0.1,0,0.1,0c0.1,0,0.1,0,0.2,0
				c0.1,0,0.2,0,0.3,0.1c0.1,0,0.1,0.1,0.1,0.1c0,0.1,0,0.1,0,0.3c0,0.1,0,0.3,0,0.4c0,0.1,0,0.3,0,0.5l0,0.5c0,0.2,0,0.3,0,0.4
				c0,0.1,0,0.2,0,0.3C74.1,165.8,74.1,165.8,74.1,165.8z M76.4,164.8c0,0-0.1,0.1-0.2,0.1l-1.1,0.2l0,0.1c0,0.1,0.1,0.2,0.2,0.2
				c0.2,0.1,0.5,0.1,0.7,0c0.1,0,0.2-0.1,0.2-0.1c0,0,0.1,0.1,0.1,0.1c0,0,0,0.1,0,0.1c0,0.1,0,0.2-0.1,0.2c-0.1,0-0.2,0.1-0.3,0.1
				c-0.3,0-0.5,0-0.7,0c-0.1,0-0.2-0.1-0.3-0.2c-0.1-0.1-0.2-0.2-0.2-0.3c-0.1-0.1-0.1-0.3-0.1-0.5c0-0.2,0-0.3,0.1-0.5
				c0.1-0.1,0.1-0.2,0.2-0.3c0.1-0.1,0.2-0.1,0.3-0.2c0.1,0,0.2-0.1,0.4-0.1c0.1,0,0.3,0,0.4,0.1c0.1,0,0.2,0.1,0.3,0.2
				c0.1,0.1,0.1,0.2,0.2,0.3c0,0.1,0.1,0.2,0.1,0.3C76.4,164.7,76.4,164.8,76.4,164.8z M74.9,163.3
				C74.9,163.3,74.9,163.2,74.9,163.3c0-0.1,0.1-0.1,0.1-0.2l0.5-0.4c0.1,0,0.2,0,0.3,0.1c0.1,0,0.1,0.1,0.1,0.2c0,0.1,0,0.1,0,0.2
				c0,0-0.1,0.1-0.2,0.1l-0.5,0.3c-0.1,0-0.1,0-0.2-0.1C75,163.4,74.9,163.3,74.9,163.3z M78.4,165.8c-0.1,0.1-0.1,0.1-0.2,0.1
				c-0.1,0-0.2,0-0.2-0.1c-0.1-0.1-0.1-0.1-0.2-0.2l-0.3-0.4l-0.4,0.7c0,0,0,0,0,0c0,0,0,0,0,0c-0.1,0-0.2,0-0.3-0.1
				c-0.1-0.1-0.1-0.1-0.1-0.2c0-0.1,0-0.1,0-0.2c0,0,0.1-0.1,0.2-0.2l0.4-0.4l-0.6-0.7c0-0.1,0.1-0.2,0.1-0.2
				c0.1-0.1,0.1-0.1,0.2-0.1c0.1,0,0.1,0,0.2,0.1c0,0,0.1,0.1,0.2,0.2l0.3,0.4l0.5-0.7c0.1,0,0.2,0,0.3,0.1c0.1,0,0.1,0.1,0.1,0.2
				c0,0,0,0.1,0,0.1c0,0,0,0.1,0,0.1c0,0,0,0.1-0.1,0.1l-0.1,0.1l-0.3,0.3l0.6,0.8C78.5,165.6,78.5,165.7,78.4,165.8z M79.5,165.8
				C79.4,165.8,79.4,165.8,79.5,165.8c-0.2,0-0.3,0-0.4,0c0,0-0.1,0-0.1,0c0,0,0,0-0.1-0.1c0,0,0-0.1,0-0.2v-1.7c0,0,0.1,0,0.1,0
				c0.1,0,0.2,0,0.3,0c0,0,0.1,0,0.1,0c0,0,0,0,0.1,0.1c0,0,0,0.1,0,0.2V165.8z M79.4,163.4c-0.1,0.1-0.1,0.1-0.2,0.1
				c-0.1,0-0.2,0-0.2-0.1c-0.1-0.1-0.1-0.1-0.1-0.2s0-0.2,0.1-0.2c0.1-0.1,0.1-0.1,0.2-0.1c0.1,0,0.2,0,0.2,0.1
				c0.1,0.1,0.1,0.1,0.1,0.2S79.5,163.4,79.4,163.4z M81.4,165.8c-0.1,0.1-0.2,0.1-0.4,0.1c-0.2,0-0.3,0-0.5-0.1
				c-0.1-0.1-0.3-0.1-0.3-0.2c-0.1-0.1-0.2-0.2-0.2-0.3c-0.1-0.1-0.1-0.3-0.1-0.4c0-0.2,0-0.3,0.1-0.5c0.1-0.1,0.1-0.2,0.2-0.3
				c0.1-0.1,0.2-0.2,0.3-0.2c0.1,0,0.3-0.1,0.4-0.1c0.2,0,0.3,0,0.4,0.1c0.1,0.1,0.1,0.1,0.1,0.2c0,0,0,0.1,0,0.1c0,0,0,0.1-0.1,0.1
				c0,0-0.1,0-0.1-0.1c-0.1,0-0.3,0-0.4,0c-0.1,0-0.1,0.1-0.2,0.1c-0.1,0-0.1,0.1-0.1,0.2c0,0.1,0,0.2,0,0.2c0,0.2,0.1,0.3,0.2,0.4
				c0.1,0.1,0.2,0.1,0.4,0.1c0.1,0,0.2,0,0.2,0c0.1,0,0.1,0,0.1-0.1c0,0,0.1,0.1,0.1,0.1c0,0,0,0.1,0,0.1
				C81.5,165.6,81.4,165.7,81.4,165.8z M83.7,165.3c0,0.1-0.1,0.2-0.2,0.3c-0.1,0.1-0.2,0.2-0.3,0.2c-0.1,0-0.3,0.1-0.4,0.1
				c-0.2,0-0.3,0-0.4-0.1c-0.1,0-0.2-0.1-0.3-0.2c-0.1-0.1-0.2-0.2-0.2-0.3c-0.1-0.1-0.1-0.3-0.1-0.4c0-0.2,0-0.3,0.1-0.4
				c0-0.1,0.1-0.2,0.2-0.3c0.1-0.1,0.2-0.2,0.3-0.2c0.1,0,0.3-0.1,0.4-0.1c0.2,0,0.3,0,0.4,0.1c0.1,0.1,0.2,0.1,0.3,0.2
				c0.1,0.1,0.2,0.2,0.2,0.3c0.1,0.1,0.1,0.3,0.1,0.4C83.8,165,83.7,165.1,83.7,165.3z M79,160.9c-4.2,0-7.6-3.4-7.6-7.6
				c0-4.2,3.4-7.6,7.6-7.6c4.2,0,7.6,3.4,7.6,7.6C86.6,157.5,83.2,160.9,79,160.9z"/>
			<path class="st0" d="M82.7,164.2c-0.1,0-0.2,0.1-0.3,0.2c-0.1,0.1-0.1,0.2-0.1,0.4c0,0.2,0,0.3,0.1,0.4c0.1,0.1,0.2,0.2,0.3,0.2
				c0.1,0,0.2-0.1,0.3-0.2c0.1-0.1,0.1-0.2,0.1-0.4c0-0.2,0-0.3-0.1-0.4C83,164.3,82.9,164.2,82.7,164.2z"/>
		</g>
		<g>
			<g id="Wordmark_1_">
				<path id="quickbooks_1_" class="st0" d="M570.3,172.5c-2.1,0-3.2-1.9-3.2-3.7c0-1.8,1.2-3.7,3.1-3.7c0.9,0,2,0.5,2.5,1.1
					l2.3-2.2c-1.1-1.1-2.8-1.8-4.7-1.8c-3.9,0-6.8,2.8-6.8,6.7c0,3.9,2.8,6.7,6.8,6.7c1.9,0,3.7-0.6,4.7-1.7l-2.2-2.3
					C572.3,172,571.3,172.5,570.3,172.5z M551.4,169.4c0,1.5-1,3.1-2.8,3.1c-1.4,0-2.1-1-2.1-3v-7H543v7.8c0,2.6,1.3,5.2,4.8,5.2
					c1.6,0,3-1.3,3.7-2.2h0.1v1.9h3.3v-12.6h-3.5V169.4z M557.7,175.1h3.5v-12.6h-3.5V175.1z M536.7,164L536.7,164
					c-0.6-0.5-1.9-2-4.1-2c-3.6,0-6.3,2.8-6.3,6.6c0,3.9,2.5,6.7,6.1,6.7c1.6,0,3.2-0.9,4.1-1.9h0.1v7.7h3.5v-18.9h-3.4V164z
					 M533.3,172.5c-2.2,0-3.4-1.9-3.4-3.7c0-1.8,1.1-3.7,3.4-3.7c2.1,0,3.4,1.9,3.4,3.7C536.6,170.6,535.4,172.5,533.3,172.5z
					 M612.8,162.1c-4,0-6.9,2.8-6.9,6.6c0,4,2.9,6.8,6.9,6.8c3.9,0,6.9-2.8,6.9-6.8C619.7,164.9,616.8,162.1,612.8,162.1z
					 M612.8,172.5c-2.3,0-3.3-1.9-3.3-3.7c0-1.8,1-3.7,3.3-3.7s3.3,1.9,3.3,3.7C616.1,170.5,615.1,172.5,612.8,172.5z M649.9,162.4
					h-4.5l-4.5,5.2h-0.1v-12.2h-3.5v19.6h3.5v-6.2h0.1l4.7,6.2h4.6l-5.4-6.9L649.9,162.4z M628.2,162.1c-4,0-6.9,2.8-6.9,6.6
					c0,4,2.9,6.8,6.9,6.8c3.9,0,6.9-2.8,6.9-6.8C635,164.9,632.2,162.1,628.2,162.1z M628.2,172.5c-2.3,0-3.3-1.9-3.3-3.7
					c0-1.8,1-3.7,3.3-3.7c2.3,0,3.3,1.9,3.3,3.7C631.5,170.5,630.5,172.5,628.2,172.5z M589.3,162.4h-4.5l-4.5,5.2h-0.1v-12.2h-3.5
					v19.6h3.5v-6.2h0.1l4.7,6.2h4.6l-5.4-6.9L589.3,162.4z M598.1,162.1c-1.6,0-2.8,0.7-3.9,1.7h-0.1v-8.4h-3.5v19.6h3.3v-1.8h0.1
					c0.8,1.3,2.4,2.1,4,2.1c3.6,0,6.3-2.8,6.3-6.7C604.4,164.9,601.7,162.1,598.1,162.1z M597.4,172.5c-2.1,0-3.4-1.9-3.4-3.7
					c0-1.8,1.3-3.7,3.4-3.7c2.3,0,3.4,1.9,3.4,3.7C600.8,170.6,599.6,172.5,597.4,172.5z M656.5,167.3c-1.8-0.4-2.4-0.7-2.4-1.4
					c0-1,1.3-1.2,1.8-1.2c1.1,0,2.3,0.6,2.8,1.3l2.1-2c-1-1.2-2.8-1.9-4.8-1.9c-2.5,0-5.2,1.3-5.2,4.1c0,2.4,1.9,3.2,3.8,3.6
					c2,0.5,2.7,0.8,2.7,1.6c0,1.2-1.3,1.4-1.8,1.4c-1.1,0-2.5-0.7-3.2-1.5l-2.1,2.1c1.2,1.3,3.1,2.1,5.2,2.1c3.4,0,5.4-1.6,5.4-4.3
					C660.7,168.6,658.3,167.7,656.5,167.3z"/>
				<path id="_xAE__1_" class="st0" d="M663.8,172.2c-0.8,0-1.5,0.6-1.5,1.4s0.7,1.4,1.5,1.4c0.8,0,1.5-0.6,1.5-1.4
					S664.6,172.2,663.8,172.2z M663.8,174.9c-0.7,0-1.2-0.6-1.2-1.2c0-0.7,0.5-1.2,1.2-1.2c0.7,0,1.2,0.5,1.2,1.2
					C665.1,174.3,664.5,174.9,663.8,174.9z M664.4,173.3c0-0.4-0.3-0.5-0.6-0.5h-0.6v1.6h0.3v-0.7h0.2l0.4,0.7h0.4l-0.4-0.7
					C664.3,173.7,664.4,173.6,664.4,173.3z M663.6,173.6v-0.5h0.3c0.2,0,0.3,0,0.3,0.2c0,0.2-0.2,0.2-0.4,0.2H663.6z"/>
			</g>
			<path class="st0" d="M593.5,120.3c-8.1,0-14.7,6.6-14.7,14.7c0,8.1,6.6,14.7,14.7,14.7c8.1,0,14.7-6.6,14.7-14.7
				C608.2,126.9,601.6,120.3,593.5,120.3z M592.7,144.7c-1.2,0-2.1-1-2.1-2.1c0-0.2,0-11.1,0-11.1h-2c-2,0-3.6,1.6-3.6,3.6
				c0,2,1.6,3.6,3.6,3.6h0.8v2.1h-0.8c-3.2,0-5.7-2.6-5.7-5.7c0-3.2,2.6-5.7,5.7-5.7c1.9,0,4.1,0,4.1,0V144.7z M598.4,140.8
				c-1.9,0-4.1,0-4.1,0v-15.4c1.2,0,2.1,1,2.1,2.1c0,0.2,0,11.1,0,11.1h2c2,0,3.6-1.6,3.6-3.6c0-2-1.6-3.6-3.6-3.6h-0.8v-2.1h0.8
				c3.2,0,5.7,2.6,5.7,5.7C604.1,138.2,601.6,140.8,598.4,140.8z"/>
			<path id="intuit_1_" class="st0" d="M533.2,153.8c-0.7,0-1.3,0.4-1.5,0.9h0V154h-1.1v4.8h1.2v-2.7c0-0.6,0.4-1.3,1.1-1.3
				c0.8,0,0.9,0.7,0.9,1.3v2.7h1.2v-3C535,154.8,534.4,153.8,533.2,153.8z M528.1,158.8h1.2V154h-1.2V158.8z M550,153.3
				c0.4,0,0.7-0.3,0.7-0.7c0-0.4-0.3-0.7-0.7-0.7c-0.4,0-0.7,0.3-0.7,0.7C549.3,153,549.6,153.3,550,153.3z M537.5,153.3
				c0.4,0,0.7-0.3,0.7-0.7c0-0.4-0.3-0.7-0.7-0.7c-0.4,0-0.7,0.3-0.7,0.7C536.8,153,537.1,153.3,537.5,153.3z M535.6,155h1.4v3.8
				h1.2V155h1.4V154h-3.9V155z M543.6,156.6c0,0.6-0.4,1.3-1.1,1.3c-0.8,0-0.9-0.7-0.9-1.3V154h-1.2v3c0,1,0.5,2,1.8,2
				c0.7,0,1.3-0.4,1.5-0.9h0v0.8h1.1V154h-1.2V156.6z M548.1,154v1.1h1.4v3.8h1.2V155h1.4V154H548.1z M546,158.8h1.2V154H546V158.8z
				"/>
		</g>
	</g>
	<g>
		<g>
			<path class="st0" d="M287.4,13l-10.3,19.6c-0.2,0.4-0.9,0.4-1.1,0L265.7,13c-0.1-0.2-0.3-0.3-0.5-0.3h-5c-0.3,0-0.6,0.4-0.4,0.7
				L276,43.7c0.2,0.4,0.8,0.4,1.1,0l16.2-30.3c0.2-0.3-0.1-0.7-0.4-0.7h-5C287.7,12.7,287.5,12.8,287.4,13"/>
			<path class="st0" d="M293.2,39.1l10.3-19.6c0.2-0.4,0.9-0.4,1.1,0l10.3,19.6c0.1,0.2,0.3,0.3,0.5,0.3h5c0.3,0,0.6-0.4,0.4-0.7
				L304.6,8.4c-0.2-0.4-0.8-0.4-1.1,0l-16.2,30.3c-0.2,0.3,0.1,0.7,0.4,0.7h5C292.9,39.4,293.1,39.3,293.2,39.1"/>
			<path class="st0" d="M216.2,39.4l-9.3,0c-0.3,0-0.6-0.3-0.6-0.6v-8.3c0-0.3,0.3-0.6,0.6-0.6h9.3c4.4,0,6.4,1.3,6.4,4.8
				C222.6,38.2,220.7,39.4,216.2,39.4 M206.9,17.2h9.1c3.4,0,5.1,1.4,5.1,4.1c0,2.7-1.7,4.1-5.1,4.1h-9.1c-0.3,0-0.6-0.3-0.6-0.6v-7
				C206.3,17.4,206.6,17.2,206.9,17.2 M222.9,27.1c2.1-1.1,3.5-3.4,3.5-6.3c0-4.9-3.8-8.2-9.2-8.2h-15.4c-0.3,0-0.6,0.3-0.6,0.6
				v30.1c0,0.3,0.3,0.6,0.6,0.6h14.8c7.4,0,11.3-3.2,11.3-9.4C227.8,28.5,222.9,27.1,222.9,27.1"/>
			<path class="st0" d="M247.9,39.4l-9.3,0c-0.3,0-0.6-0.3-0.6-0.6v-8.3c0-0.3,0.3-0.6,0.6-0.6h9.3c4.4,0,6.4,1.3,6.4,4.8
				C254.3,38.2,252.3,39.4,247.9,39.4 M238.6,17.2h9.1c3.4,0,5.1,1.4,5.1,4.1c0,2.7-1.7,4.1-5.1,4.1h-9.1c-0.3,0-0.6-0.3-0.6-0.6v-7
				C238,17.4,238.3,17.2,238.6,17.2 M254.5,27.1c2.1-1.1,3.5-3.4,3.5-6.3c0-4.9-3.8-8.2-9.2-8.2h-15.4c-0.3,0-0.6,0.3-0.6,0.6v30.1
				c0,0.3,0.3,0.6,0.6,0.6h14.8c7.4,0,11.3-3.2,11.3-9.4C259.4,28.5,254.5,27.1,254.5,27.1"/>
			<g>
				<path class="st0" d="M135,59.3c0-3,1.7-4.6,3.9-4.6c1.7,0,2.8,0.7,3.4,2.1l-1.3,0.8c-0.4-0.8-1-1.4-2.1-1.4
					c-1.5,0-2.4,1.3-2.4,3.2c0,2.1,0.9,3.3,2.5,3.3c1.1,0,1.8-0.7,2.2-1.7l1.3,0.6c-0.5,1.5-1.6,2.4-3.5,2.4
					C136.6,64,135,62.4,135,59.3z"/>
				<path class="st0" d="M143.7,63.9v-6.4h1.4l0.1,1h0c0.4-0.6,1.1-1.2,2.3-1.2h0.1l0.1,1.4c-0.1,0-0.3,0-0.4,0
					c-1,0-1.7,0.4-2.1,1.1v4.1H143.7z"/>
				<path class="st0" d="M148.2,60.6c0-2.4,1.7-3.4,3.1-3.4c1.4,0,2.8,0.9,2.8,3.5v0.4h-4.4c0,1.1,0.8,1.7,1.7,1.7
					c0.8,0,1.5-0.3,2-0.8l0.6,1c-0.7,0.7-1.6,1-2.7,1C149.7,64,148.2,63,148.2,60.6z M152.7,60c-0.1-0.9-0.6-1.5-1.5-1.5
					c-0.7,0-1.4,0.5-1.6,1.5H152.7z"/>
				<path class="st0" d="M154.8,62.3c0-1.4,1.2-2.3,4.2-2.6v-0.2c0-0.6-0.4-0.9-1.1-0.9c-0.8,0-1.5,0.4-2.1,0.9l-0.8-0.9
					c0.7-0.6,1.6-1.2,3.1-1.2c1.7,0,2.4,0.8,2.4,2.3v4.2h-1.3L159,63c-0.6,0.6-1.4,0.9-2.4,0.9C155.6,64,154.8,63.3,154.8,62.3z
					 M159,62.1v-1.4c-2.1,0.3-2.7,0.7-2.7,1.4c0,0.5,0.4,0.8,0.9,0.8C157.9,62.8,158.5,62.5,159,62.1z"/>
				<path class="st0" d="M161.9,63.9v-6.4h1.4l0.1,0.9c0.5-0.5,1.3-1,2.3-1c1.2,0,1.9,0.6,1.9,1.9v4.7h-1.5v-4.3
					c0-0.7-0.3-1.1-1-1.1c-0.6,0-1.2,0.3-1.7,0.8v4.5H161.9z"/>
				<path class="st0" d="M168.7,60.7c0-2.2,1.1-3.4,2.6-3.4c0.9,0,1.6,0.3,2,0.9V55l1.5-0.2v9.1h-1.4l-0.1-0.9
					c-0.4,0.5-1.1,0.9-2.1,0.9C169.8,64,168.7,62.9,168.7,60.7z M173.3,61.9v-2.6c-0.5-0.5-1-0.8-1.6-0.8c-0.9,0-1.5,0.7-1.5,2.1
					c0,1.3,0.6,2.1,1.5,2.1C172.4,62.7,172.9,62.4,173.3,61.9z"/>
				<path class="st0" d="M176,60.6c0-2.4,1.6-3.4,3.1-3.4c1.6,0,3.1,1,3.1,3.4c0,2.4-1.6,3.4-3.1,3.4C177.6,64,176,63,176,60.6z
					 M180.8,60.7c0-1.2-0.5-2.1-1.7-2.1c-1.1,0-1.7,0.8-1.7,2.1c0,1.2,0.5,2.1,1.7,2.1C180.2,62.7,180.8,61.9,180.8,60.7z"/>
				<path class="st0" d="M186.1,59.4c0-3,1.9-4.7,4.1-4.7c2.2,0,4,1.6,4,4.7c0,3-1.9,4.7-4,4.7C188,64,186.1,62.4,186.1,59.4z
					 M192.7,59.4c0-2-1-3.3-2.5-3.3c-1.5,0-2.5,1.2-2.5,3.3c0,2,1,3.3,2.5,3.3C191.7,62.7,192.7,61.4,192.7,59.4z"/>
				<path class="st0" d="M195.5,66.4v-9h1.4l0.1,0.8c0.4-0.5,1.1-1,2.1-1c1.5,0,2.6,1.1,2.6,3.3c0,2.2-1.1,3.3-2.6,3.3
					c-0.9,0-1.5-0.3-2-0.8v3L195.5,66.4z M200.1,60.6c0-1.3-0.6-2.1-1.5-2.1c-0.6,0-1.1,0.3-1.6,0.8V62c0.5,0.5,1,0.8,1.6,0.8
					C199.5,62.8,200.1,62.1,200.1,60.6z"/>
				<path class="st0" d="M202.4,60.6c0-2.4,1.6-3.4,3.1-3.4c1.6,0,3.1,1,3.1,3.4c0,2.4-1.6,3.4-3.1,3.4
					C203.9,64,202.4,63,202.4,60.6z M207.2,60.7c0-1.2-0.5-2.1-1.7-2.1c-1.1,0-1.7,0.8-1.7,2.1c0,1.2,0.5,2.1,1.7,2.1
					C206.6,62.7,207.2,61.9,207.2,60.7z"/>
				<path class="st0" d="M209.8,63.9v-6.4h1.4l0.1,1h0c0.4-0.6,1.1-1.2,2.3-1.2h0.1l0.1,1.4c-0.1,0-0.3,0-0.4,0
					c-1,0-1.7,0.4-2.1,1.1v4.1H209.8z"/>
				<path class="st0" d="M215.1,62.1v-3.5H214v-1.2h1.1v-2.2l1.5-0.2v2.4h1.7v1.2h-1.7v3.3c0,0.7,0.3,0.9,0.9,0.9
					c0.2,0,0.5,0,0.7-0.1l0.1,1.2c-0.2,0-0.8,0.1-1.2,0.1C215.8,63.9,215.1,63.5,215.1,62.1z"/>
				<path class="st0" d="M219.3,62.1v-4.7h1.5v4.3c0,0.7,0.3,1,1,1c0.6,0,1.2-0.3,1.7-0.9v-4.5h1.5v6.4h-1.4l-0.1-0.9
					c-0.5,0.5-1.3,1-2.3,1C220,64,219.3,63.4,219.3,62.1z"/>
				<path class="st0" d="M226.5,63.9v-6.4h1.4l0.1,0.9c0.5-0.5,1.3-1,2.3-1c1.2,0,1.9,0.6,1.9,1.9v4.7h-1.5v-4.3
					c0-0.7-0.3-1.1-1-1.1c-0.6,0-1.2,0.3-1.7,0.8v4.5H226.5z"/>
				<path class="st0" d="M233.7,55.7c0-0.4,0.3-0.8,0.9-0.8c0.6,0,0.9,0.3,0.9,0.8c0,0.4-0.3,0.8-0.9,0.8
					C234,56.5,233.7,56.1,233.7,55.7z M233.8,63.9v-6.4h1.5v6.4H233.8z"/>
				<path class="st0" d="M236.5,60.7c0-2.2,1.1-3.4,2.6-3.4c0.9,0,1.6,0.3,2,0.9V55l1.5-0.2v9.1h-1.4l-0.1-0.9
					c-0.4,0.5-1.1,0.9-2.1,0.9C237.6,64,236.5,62.9,236.5,60.7z M241.1,61.9v-2.6c-0.5-0.5-1-0.8-1.6-0.8c-0.9,0-1.5,0.7-1.5,2.1
					c0,1.3,0.6,2.1,1.5,2.1C240.2,62.7,240.7,62.4,241.1,61.9z"/>
				<path class="st0" d="M243.7,62.3c0-1.4,1.2-2.3,4.2-2.6v-0.2c0-0.6-0.4-0.9-1.1-0.9c-0.8,0-1.5,0.4-2.1,0.9l-0.8-0.9
					c0.7-0.6,1.6-1.2,3.1-1.2c1.7,0,2.4,0.8,2.4,2.3v4.2H248l-0.1-0.8c-0.6,0.6-1.4,0.9-2.4,0.9C244.5,64,243.7,63.3,243.7,62.3z
					 M247.9,62.1v-1.4c-2.1,0.3-2.7,0.7-2.7,1.4c0,0.5,0.4,0.8,0.9,0.8C246.8,62.8,247.5,62.5,247.9,62.1z"/>
				<path class="st0" d="M250.5,60.7c0-2.2,1.1-3.4,2.6-3.4c0.9,0,1.6,0.3,2,0.9V55l1.5-0.2v9.1h-1.4l-0.1-0.9
					c-0.4,0.5-1.1,0.9-2.1,0.9C251.6,64,250.5,62.9,250.5,60.7z M255.1,61.9v-2.6c-0.5-0.5-1-0.8-1.6-0.8c-0.9,0-1.5,0.7-1.5,2.1
					c0,1.3,0.6,2.1,1.5,2.1C254.1,62.7,254.6,62.4,255.1,61.9z"/>
				<path class="st0" d="M257.7,60.6c0-2.4,1.7-3.4,3.1-3.4c1.4,0,2.8,0.9,2.8,3.5v0.4h-4.4c0,1.1,0.8,1.7,1.7,1.7
					c0.8,0,1.5-0.3,2-0.8l0.6,1c-0.7,0.7-1.6,1-2.7,1C259.2,64,257.7,63,257.7,60.6z M262.3,60c-0.1-0.9-0.6-1.5-1.5-1.5
					c-0.7,0-1.4,0.5-1.6,1.5H262.3z"/>
				<path class="st0" d="M264.4,63l0.6-1c0.6,0.5,1.4,0.9,2.2,0.9c0.8,0,1.3-0.3,1.3-0.7c0-0.5-0.4-0.7-1.4-0.9
					c-1.4-0.3-2.4-0.6-2.4-2c0-1.1,0.9-1.9,2.4-1.9c1.2,0,1.9,0.3,2.6,0.8l-0.5,1.1c-0.6-0.4-1.3-0.7-2-0.7c-0.7,0-1.1,0.3-1.1,0.7
					c0,0.4,0.4,0.6,1.3,0.8c1.4,0.3,2.6,0.6,2.6,2c0,1.4-1.2,2-2.7,2C265.9,64,265,63.5,264.4,63z"/>
			</g>
		</g>
		<g>
			<g>
				<g>
					<g>
						<path class="st0" d="M417.7,13v2.3c0,0.2-0.1,0.3-0.3,0.3h-9.9v4.7h8.2c0.2,0,0.3,0.1,0.3,0.3v2.3c0,0.2-0.1,0.3-0.3,0.3h-8.2
							v7c0,0.2-0.1,0.3-0.3,0.3h-2.5c-0.2,0-0.3-0.1-0.3-0.3V13c0-0.2,0.1-0.3,0.3-0.3h12.7C417.6,12.8,417.7,12.9,417.7,13z"/>
						<path class="st0" d="M438,30.4h-2.7c-0.2,0-0.3-0.1-0.3-0.2c-0.4-1.4-0.8-3-1.3-4.5h-8.4c-0.5,1.5-0.9,3.1-1.3,4.5
							c0,0.2-0.1,0.2-0.3,0.2H421c-0.2,0-0.3-0.1-0.2-0.3c1.6-5.6,4-11.8,6.4-17c0.1-0.2,0.3-0.3,0.5-0.3h3.6c0.2,0,0.4,0.1,0.5,0.3
							c2.5,5.2,4.8,11.4,6.4,17C438.2,30.3,438.1,30.4,438,30.4z M432.7,22.9c-0.9-2.5-1.9-5.1-3-7.4h-0.6c-1,2.3-2.1,4.8-3,7.4
							H432.7z"/>
						<path class="st0" d="M442.4,21.7c0-5.5,3.6-9.3,8.7-9.3h0.4c3.2,0,5.7,1.6,7,4c0.1,0.2,0.1,0.3-0.1,0.4l-2.2,1.1
							c-0.2,0.1-0.3,0.1-0.4-0.1c-0.9-1.6-2.3-2.5-4.4-2.5h-0.4c-3.2,0-5.5,2.6-5.5,6.3c0,3.7,2.2,6.2,5.5,6.2h0.4
							c2.1,0,3.3-0.7,4.3-1.8c0.1-0.1,0.3-0.2,0.4-0.1l2.3,1.1c0.1,0.1,0.1,0.1,0.1,0.2s0,0.1-0.1,0.2c-1.4,2-3.9,3.3-7,3.3h-0.4
							C445.9,30.7,442.4,27.1,442.4,21.7z"/>
						<path class="st0" d="M478.6,27.8v2.3c0,0.2-0.1,0.3-0.3,0.3h-13.2c-0.2,0-0.3-0.1-0.3-0.3V13c0-0.2,0.1-0.3,0.3-0.3h13
							c0.2,0,0.3,0.1,0.3,0.3v2.3c0,0.2-0.1,0.3-0.3,0.3h-10.2v4.6h8.3c0.2,0,0.3,0.1,0.3,0.3v2.3c0,0.2-0.1,0.3-0.3,0.3h-8.3v4.6
							h10.4C478.5,27.6,478.6,27.7,478.6,27.8z"/>
						<path class="st0" d="M501.3,25.5c0,3.1-2.4,4.8-6.5,4.8h-8.6c-0.2,0-0.3-0.1-0.3-0.3V13c0-0.2,0.1-0.3,0.3-0.3h7.9
							c4.1,0,6.3,1.6,6.3,4.5c0,1.9-1,3.2-3,3.8C500.1,21.7,501.3,23.4,501.3,25.5z M493.9,15.5h-5.1v4.7h5.1c2.3,0,3.3-0.7,3.3-2.4
							S496.2,15.5,493.9,15.5z M498.2,25.3c0-1.6-1.1-2.4-3.5-2.4h-5.9v4.7h5.9C497.2,27.6,498.2,26.9,498.2,25.3z"/>
						<path class="st0" d="M506.5,21.6c0-5.3,3.5-9.1,9-9.1h0.4c5.5,0,9,3.8,9,9.1c0,5.3-3.5,9.1-9,9.1h-0.4
							C510,30.7,506.5,26.9,506.5,21.6z M516,27.8c3.6,0,5.9-2.5,5.9-6.3c0-3.8-2.3-6.3-5.9-6.3h-0.4c-3.6,0-5.9,2.5-5.9,6.3
							c0,3.8,2.3,6.3,5.9,6.3H516z"/>
						<path class="st0" d="M530.1,21.6c0-5.3,3.5-9.1,9-9.1h0.4c5.5,0,9,3.8,9,9.1c0,5.3-3.5,9.1-9,9.1h-0.4
							C533.6,30.7,530.1,26.9,530.1,21.6z M539.5,27.8c3.6,0,5.9-2.5,5.9-6.3c0-3.8-2.3-6.3-5.9-6.3h-0.4c-3.6,0-5.9,2.5-5.9,6.3
							c0,3.8,2.3,6.3,5.9,6.3H539.5z"/>
						<path class="st0" d="M570.2,30.4H567c-0.2,0-0.3-0.1-0.4-0.2c-2.3-2.7-5-5.3-7.2-7.3h-1.5v7.3c0,0.2-0.1,0.3-0.3,0.3h-2.5
							c-0.2,0-0.3-0.1-0.3-0.3V13c0-0.2,0.1-0.3,0.3-0.3h2.5c0.2,0,0.3,0.1,0.3,0.3V20h1.5c2.4-2.2,4.7-4.6,6.6-7
							c0.1-0.2,0.2-0.2,0.4-0.2h3.1c0.2,0,0.2,0.1,0.2,0.2c0,0.1,0,0.1-0.1,0.2c-2.7,3.3-5.4,6.1-7.8,8.2c3.1,2.6,6.1,5.6,8.8,8.7
							C570.5,30.2,570.4,30.4,570.2,30.4z"/>
					</g>
				</g>
			</g>
			<g>
				<path class="st1" d="M450.3,43.9c-5.1,0-9.1,3.7-9.1,8.8c0,2.6,1.1,4.9,2.8,6.5c0.1,0.1,0.2,0.3,0.2,0.5l0,1.6
					c0,0.5,0.5,0.8,1,0.6l1.8-0.8c0.2-0.1,0.3-0.1,0.5,0c0.8,0.2,1.7,0.4,2.6,0.4c5.1,0,9.1-3.7,9.1-8.8
					C459.4,47.6,455.4,43.9,450.3,43.9z M455.8,50.6l-2.7,4.2c-0.4,0.7-1.3,0.8-2,0.4l-2.1-1.6c-0.2-0.1-0.5-0.1-0.7,0l-2.9,2.2
					c-0.4,0.3-0.9-0.2-0.6-0.6l2.7-4.2c0.4-0.7,1.3-0.8,2-0.4l2.1,1.6c0.2,0.1,0.5,0.1,0.7,0l2.9-2.2
					C455.5,49.8,456,50.2,455.8,50.6z"/>
			</g>
			<g>
				<g id="WA_Logo_2_">
					<g>
						<path class="st1" d="M529.8,46.5c-1.7-1.7-4-2.7-6.4-2.7c-5,0-9,4-9,9c0,1.6,0.4,3.1,1.2,4.5l-1.3,4.7l4.8-1.3
							c1.3,0.7,2.8,1.1,4.3,1.1h0c0,0,0,0,0,0c5,0,9-4,9-9C532.5,50.5,531.5,48.2,529.8,46.5z M523.4,60.4L523.4,60.4
							c-1.4,0-2.7-0.4-3.8-1.1l-0.3-0.2l-2.8,0.7l0.8-2.8l-0.2-0.3c-0.8-1.2-1.1-2.6-1.1-4c0-4.1,3.4-7.5,7.5-7.5
							c2,0,3.9,0.8,5.3,2.2c1.4,1.4,2.2,3.3,2.2,5.3C530.9,57,527.5,60.4,523.4,60.4z M527.5,54.8c-0.2-0.1-1.3-0.7-1.5-0.7
							c-0.2-0.1-0.4-0.1-0.5,0.1c-0.2,0.2-0.6,0.7-0.7,0.9c-0.1,0.2-0.3,0.2-0.5,0.1c-0.2-0.1-1-0.4-1.8-1.1
							c-0.7-0.6-1.1-1.3-1.3-1.6c-0.1-0.2,0-0.3,0.1-0.5c0.1-0.1,0.2-0.3,0.3-0.4s0.2-0.2,0.2-0.4c0.1-0.2,0-0.3,0-0.4
							c-0.1-0.1-0.5-1.2-0.7-1.7c-0.2-0.4-0.4-0.4-0.5-0.4c-0.1,0-0.3,0-0.4,0c-0.2,0-0.4,0.1-0.6,0.3s-0.8,0.8-0.8,1.9
							c0,1.1,0.8,2.2,0.9,2.3c0.1,0.2,1.6,2.4,3.9,3.4c0.5,0.2,1,0.4,1.3,0.5c0.5,0.2,1,0.1,1.4,0.1c0.4-0.1,1.3-0.5,1.5-1.1
							c0.2-0.5,0.2-1,0.1-1.1C527.9,54.9,527.8,54.9,527.5,54.8z"/>
					</g>
				</g>
			</g>
			<g>
				<path class="st0" d="M494.6,47.1c-0.2-0.6-0.5-1.1-1-1.6c-0.5-0.5-1-0.8-1.6-1c-0.6-0.2-1.2-0.4-2.2-0.4c-1,0-1.3-0.1-3.7-0.1
					c-2.4,0-2.7,0-3.7,0.1c-1,0-1.6,0.2-2.2,0.4c-0.6,0.2-1.1,0.5-1.6,1c-0.5,0.5-0.8,1-1,1.6c-0.2,0.6-0.4,1.2-0.4,2.2
					c0,1-0.1,1.3-0.1,3.7c0,2.4,0,2.7,0.1,3.7c0,1,0.2,1.6,0.4,2.2c0.2,0.6,0.5,1.1,1,1.6c0.5,0.5,1,0.8,1.6,1
					c0.6,0.2,1.2,0.4,2.2,0.4c1,0,1.3,0.1,3.7,0.1c2.4,0,2.7,0,3.7-0.1c1,0,1.6-0.2,2.2-0.4c0.6-0.2,1.1-0.5,1.6-1
					c0.5-0.5,0.8-1,1-1.6c0.2-0.6,0.4-1.2,0.4-2.2c0-1,0.1-1.3,0.1-3.7c0-2.4,0-2.7-0.1-3.7C494.9,48.3,494.8,47.7,494.6,47.1z
					 M493.4,56.5c0,0.9-0.2,1.3-0.3,1.7c-0.2,0.4-0.4,0.7-0.7,1c-0.3,0.3-0.6,0.5-1,0.7c-0.3,0.1-0.8,0.3-1.7,0.3
					c-0.9,0-1.2,0.1-3.6,0c-2.4,0-2.7,0-3.6-0.1c-0.9,0-1.3-0.2-1.7-0.3c-0.4-0.2-0.7-0.4-1-0.7c-0.3-0.3-0.5-0.6-0.7-1
					c-0.1-0.3-0.3-0.8-0.3-1.7c0-0.9-0.1-1.2,0-3.6c0-2.4,0-2.7,0.1-3.6c0-0.9,0.2-1.3,0.3-1.7c0.2-0.4,0.4-0.7,0.7-1
					c0.3-0.3,0.6-0.5,1-0.7c0.3-0.1,0.8-0.3,1.7-0.3c0.9,0,1.2-0.1,3.6,0s2.7,0,3.6,0.1c0.9,0,1.3,0.2,1.7,0.3
					c0.4,0.2,0.7,0.4,1,0.7c0.3,0.3,0.5,0.6,0.7,1c0.1,0.3,0.3,0.8,0.3,1.7c0,0.9,0.1,1.2,0,3.6S493.4,55.6,493.4,56.5z M486.1,48.3
					c-2.5,0-4.6,2-4.6,4.6s2,4.6,4.6,4.6c2.5,0,4.6-2,4.6-4.6S488.6,48.4,486.1,48.3z M486.1,55.9c-1.6,0-3-1.3-3-3c0-1.6,1.3-3,3-3
					c1.6,0,3,1.3,3,3C489.1,54.6,487.7,55.9,486.1,55.9z M490.9,47.1c-0.6,0-1.1,0.5-1.1,1.1c0,0.6,0.5,1.1,1.1,1.1
					c0.6,0,1.1-0.5,1.1-1.1S491.5,47.1,490.9,47.1z"/>
			</g>
			<g>
				<path class="st0" d="M413.6,43.9c-5,0-9.1,4.1-9.1,9.1c0,4.5,3.3,8.3,7.7,9l0-6.3l-2.3,0l0-2.6l2.3,0l0-2c0-2.3,1.4-3.5,3.4-3.5
					c1,0,2,0.2,2,0.2l0,2.2l-1.1,0c-1.1,0-1.5,0.7-1.5,1.4l0,1.7l2.5,0l-0.4,2.6l-2.1,0l0,6.3c4.3-0.7,7.7-4.4,7.7-9
					C422.7,48,418.7,43.9,413.6,43.9z"/>
			</g>
			<g>
				<path class="st0" d="M568,47.9c-0.8-0.6-1.6-1-2.6-1.3c-0.5-0.1-1.1-0.2-1.7-0.2c-0.4,0-0.8,0-1.2,0c-2,0-3.9,0-5.9,0
					c-0.4,0-0.8,0-1.2,0c-0.6,0-1.1,0.1-1.7,0.2c-1,0.2-1.8,0.7-2.6,1.3c-1.5,1.2-2.4,3.1-2.4,5.1c0,2,0.9,3.8,2.4,5.1
					c0.8,0.6,1.6,1,2.6,1.3c0.5,0.1,1.1,0.2,1.6,0.2c0.4,0,0.8,0,1.2,0c2,0,3.9,0,5.9,0c0.4,0,0.8,0,1.2,0c0.6,0,1.1-0.1,1.7-0.2
					c1-0.2,1.8-0.7,2.6-1.3c1.5-1.2,2.4-3.1,2.4-5.1C570.4,51,569.5,49.1,568,47.9z M565.1,54.7c-0.3,0.2-0.6,0.3-1,0.4
					c-0.3,0.1-0.7,0.1-1,0.1c-2.4,0-4.8,0-7.1,0c-0.3,0-0.7,0-1-0.1c-0.3-0.1-0.7-0.2-1-0.4c-0.6-0.4-0.9-1.1-0.9-1.8
					c0-0.7,0.4-1.4,0.9-1.8c0.3-0.2,0.6-0.3,1-0.4c0.3-0.1,0.7-0.1,1-0.1c2.4,0,4.8,0,7.1,0c0.3,0,0.7,0,1,0.1
					c0.3,0.1,0.7,0.2,1,0.4c0.6,0.4,0.9,1.1,0.9,1.8C566,53.6,565.7,54.3,565.1,54.7z"/>
			</g>
		</g>
	</g>
	<g>
		<g>
			<g>
				<polygon class="st0" points="43.5,242.5 18,273 6.7,273 32.1,242.5 				"/>
				<polygon class="st0" points="58.9,242.5 33.5,273 22.1,273 47.5,242.5 				"/>
			</g>
			<g>
				<g>
					<path class="st0" d="M60,269.6v-6.1c0-1.8,1.4-3.2,3.2-3.2h9.6v3.1h-9.1c-0.3,0-0.6,0.3-0.6,0.6v5.3c0,0.3,0.3,0.6,0.6,0.6h9.1
						v3.1h-9.6c-1.8,0-3.3-1.4-3.3-3.2L60,269.6z"/>
					<polygon class="st0" points="65.7,265.3 72.8,265.3 72.8,268 71.3,268 65.7,268 					"/>
				</g>
				<path class="st0" d="M46.2,263.5c0-1.8,1.4-3.2,3.2-3.2h9.5v3.1h-9c-0.3,0-0.6,0.3-0.6,0.6v5.3c0,0.3,0.3,0.6,0.6,0.6h9v3.1
					h-9.5c-1.8,0-3.3-1.6-3.3-3.4L46.2,263.5z"/>
				<g>
					<path class="st0" d="M91.4,269.6v-6.1c0-1.8,1.4-3.2,3.2-3.2h9.6v3.1h-9.1c-0.3,0-0.6,0.3-0.6,0.6v5.3c0,0.3,0.3,0.6,0.6,0.6
						h9.1v3.1h-9.6c-1.8,0-3.3-1.4-3.3-3.2L91.4,269.6z"/>
					<polygon class="st0" points="97.1,265.3 104.3,265.3 104.3,268 102.7,268 97.1,268 					"/>
				</g>
				<path class="st0" d="M77.4,263.4v9.6h-3.1v-12.7h8.9h3.6c1.8,0,3.2,1.4,3.2,3.2v9.5h-3.2v-9c0-0.3-0.3-0.6-0.6-0.6h-2.5v9.6
					h-3.2v-9.6H77.4z"/>
				<path class="st0" d="M113,268.5l-4.1,2.6v1.9h-3.2v-2.7c0-0.5,0.3-1,0.8-1.3l3.9-2.4l-3.9-2.4c-0.5-0.3-0.7-0.8-0.8-1.3v-2.7
					h3.2v1.9l4.2,2.6l4.1-2.6v-1.9h3.2v2.7c0,0.5-0.3,1-0.8,1.3l-3.8,2.4l3.8,2.4c0.5,0.3,0.7,0.8,0.8,1.3v2.7h-3.2v-1.9L113,268.5z
					"/>
			</g>
		</g>
		<g>
			<g>
				<g>
					<path class="st0" d="M600.1,247l-0.1,0l-0.2,0.7l-4.4,10.1h-1.6l-4.4-10.1l-0.2-0.9l-0.1,0v10.9h-2.3v-14.2h3l4.6,10.7l0.2,0.9
						h0.1l0.2-0.9l4.6-10.7h3v14.2h-2.3V247z"/>
					<path class="st0" d="M616.8,252.7c0,3.2-2.5,5.3-5.7,5.3c-3.2,0-5.7-2.1-5.7-5.3v-9.1h2.3v9.1c0,2.1,1.5,3.4,3.4,3.4
						c1.9,0,3.5-1.2,3.5-3.4v-9.1h2.3V252.7z"/>
					<path class="st0" d="M622.9,243.6h2.3v10.3c0,2.5-1.7,4.1-4.2,4.1c-0.9,0-1.6-0.1-2.3-0.4l0.4-1.8c0.5,0.2,1.1,0.3,1.8,0.3
						c1.3,0,2.1-0.9,2.1-2.2V243.6z"/>
					<path class="st0" d="M628.3,257.8v-14.2h8.7v1.9h-6.4v4.1h6.1v1.9h-6.1v4.4h6.4v1.9H628.3z"/>
					<path class="st0" d="M644.2,252h-2.5v5.8h-2.3v-14.2h4.4c3.4,0,5.3,1.9,5.3,4.2c0,1.7-1,3.1-2.7,3.8l3.6,6.2h-2.6L644.2,252z
						 M641.7,245.5v4.6h2.1c2.1,0,3-0.9,3-2.3c0-1.4-1-2.3-3-2.3H641.7z"/>
					<path class="st0" d="M661.3,252h-2.5v5.8h-2.3v-14.2h4.4c3.4,0,5.3,1.9,5.3,4.2c0,1.7-1,3.1-2.7,3.8l3.6,6.2h-2.6L661.3,252z
						 M658.8,245.5v4.6h2.1c2.1,0,3-0.9,3-2.3c0-1.4-1-2.3-3-2.3H658.8z"/>
					<path class="st0" d="M668.9,257.8v-14.2h8.7v1.9h-6.4v4.1h6.1v1.9h-6.1v4.4h6.4v1.9H668.9z"/>
					<path class="st0" d="M687.8,254.1h-5.3l-1.3,3.7h-2.5l5.4-14.2h2.2l5.4,14.2h-2.5L687.8,254.1z M683.1,252.2h4l-1.7-5l-0.2-0.9
						h-0.1l-0.2,0.9L683.1,252.2z"/>
					<path class="st0" d="M693.4,243.6h2.3v12.3h6v1.9h-8.3V243.6z"/>
				</g>
			</g>
			<g>
				<g>
					<g>
						<g>
							<path class="st0" d="M633.8,263.7l0.1-0.6l3.6-0.9l-0.1,1.1L633.8,263.7z M619.1,268.5c0,1.9,1.3,3.3,3,3.3
								c0.7,0,1.3-0.1,1.8-0.3l0.3,1.1c-0.7,0.3-1.3,0.3-2.1,0.3c-2.5,0-4.4-1.9-4.4-4.5c0-2.5,1.9-4.5,4.4-4.5
								c0.8,0,1.4,0.1,2.1,0.4l-0.3,1.1c-0.5-0.2-1.1-0.3-1.8-0.3C620.4,265.2,619.1,266.7,619.1,268.5 M630.3,272.9l-2-3.5h-1.5
								v3.5h-1.4v-8.7h2.7c2.1,0,3.3,1.2,3.3,2.6c0,1-0.6,1.9-1.7,2.3l2.2,3.8H630.3z M628,265.3h-1.3v2.8h1.3
								c1.3,0,1.9-0.6,1.9-1.4C629.9,265.9,629.3,265.3,628,265.3 M638.3,272.9H633v-8.7h5.3v1.2h-3.9v2.5h3.7v1.2h-3.7v2.7h3.9
								V272.9z M639.8,272.9v-8.7h2.5c2.7,0,4.5,1.9,4.5,4.4c0,2.5-1.8,4.3-4.5,4.3H639.8z M642.3,265.3h-1.1v6.4h1.1
								c1.9,0,3.1-1.4,3.1-3.2C645.4,266.8,644.2,265.3,642.3,265.3 M648.3,264.2h1.4v8.7h-1.4V264.2z M657.2,265.3h-2.4v7.5h-1.4
								v-7.5h-2.5v-1.2h6.3V265.3z M657.9,268.5c0-2.5,1.9-4.5,4.4-4.5c2.4,0,4.4,1.9,4.4,4.5c0,2.5-1.9,4.5-4.4,4.5
								C659.9,273,657.9,271.1,657.9,268.5 M659.3,268.5c0,1.9,1.3,3.3,3,3.3c1.7,0,3-1.4,3-3.3c0-1.8-1.3-3.3-3-3.3
								C660.6,265.2,659.3,266.7,659.3,268.5 M675.4,272.9l-2-3.5h-1.5v3.5h-1.4v-8.7h2.7c2.1,0,3.3,1.2,3.3,2.6
								c0,1-0.6,1.9-1.7,2.3l2.2,3.8H675.4z M673.1,265.3h-1.3v2.8h1.3c1.3,0,1.9-0.6,1.9-1.4C675,265.9,674.4,265.3,673.1,265.3
								 M683.4,272.9h-5.3v-8.7h5.3v1.2h-3.9v2.5h3.7v1.2h-3.7v2.7h3.9V272.9z M690.4,272.9l-0.8-2.3h-3.3l-0.8,2.3h-1.5l3.3-8.7
								h1.3l3.3,8.7H690.4z M687.9,266.4l-1.1,3.1h2.5l-1.1-3.1l-0.1-0.6H688L687.9,266.4z M693.1,272.9v-8.7h1.4v7.5h3.7v1.2H693.1
								z"/>
						</g>
						<g>
							<g>
								<g>
									<path class="st0" d="M700.5,263.6v-0.8h0.4c0,0,0.1,0,0.1,0c0,0,0.1,0,0.1,0.1c0,0,0,0.1,0.1,0.1c0,0,0,0.1,0,0.1
										c0,0,0,0.1,0,0.1c0,0,0,0.1,0,0.1c0,0,0,0-0.1,0.1c0,0,0,0-0.1,0l0.2,0.3H701l-0.2-0.3h-0.3L700.5,263.6L700.5,263.6z
										 M700.6,263.2h0.3c0,0,0,0,0.1,0c0,0,0,0,0.1,0c0,0,0,0,0-0.1c0,0,0,0,0-0.1c0,0,0-0.1,0-0.1c0,0,0,0,0-0.1c0,0,0,0-0.1,0
										c0,0,0,0-0.1,0h-0.3V263.2z"/>
									<path class="st0" d="M701.1,263.7H701l-0.2-0.3h-0.2v0.3h-0.1v-0.9h0.4c0,0,0.1,0,0.1,0c0,0,0.1,0,0.1,0.1
										c0,0,0,0.1,0.1,0.1c0,0,0,0.1,0,0.1c0,0,0,0.1,0,0.1c0,0,0,0.1,0,0.1c0,0,0,0-0.1,0.1c0,0,0,0-0.1,0L701.1,263.7z
										 M701,263.6L701,263.6l-0.2-0.3l0,0c0,0,0.1,0,0.1,0c0,0,0,0,0.1-0.1c0,0,0,0,0-0.1c0,0,0-0.1,0-0.1c0,0,0-0.1,0-0.1
										c0,0,0-0.1,0-0.1c0,0,0,0-0.1-0.1c0,0-0.1,0-0.1,0h-0.3v0.8h0v-0.3h0.3L701,263.6z M700.8,263.3h-0.3v-0.4h0.3
										c0,0,0.1,0,0.1,0c0,0,0,0,0.1,0c0,0,0,0,0,0.1c0,0,0,0.1,0,0.1c0,0,0,0.1,0,0.1c0,0,0,0,0,0.1
										C701,263.2,700.9,263.2,700.8,263.3C700.9,263.3,700.9,263.3,700.8,263.3z M700.6,263.2h0.3c0,0,0,0,0.1,0c0,0,0,0,0,0
										c0,0,0,0,0-0.1c0,0,0,0,0-0.1c0,0,0,0,0-0.1c0,0,0,0,0-0.1c0,0,0,0,0,0c0,0,0,0-0.1,0h-0.2V263.2z"/>
								</g>
							</g>
							<g>
								<path class="st0" d="M700.7,264.2c-0.5,0-1-0.4-1-1c0-0.5,0.4-1,1-1c0.5,0,1,0.4,1,1C701.7,263.7,701.3,264.2,700.7,264.2z
									 M700.7,262.4c-0.4,0-0.8,0.4-0.8,0.8c0,0.4,0.4,0.8,0.8,0.8c0.4,0,0.8-0.4,0.8-0.8C701.5,262.8,701.2,262.4,700.7,262.4z"
									/>
							</g>
						</g>
					</g>
				</g>
				<g>
					<path class="st0" d="M586.6,264.3h3.1c2.1,0,3.3,1.2,3.3,2.7c0,1.5-1.2,2.7-3.3,2.7h-1.7v3.2h-1.4V264.3z M587.9,265.4v3h1.7
						c1.3,0,1.9-0.6,1.9-1.5c0-0.9-0.6-1.5-1.9-1.5H587.9z"/>
					<path class="st0" d="M598.2,264.1c2.4,0,4.4,1.9,4.4,4.4s-1.9,4.4-4.4,4.4c-2.4,0-4.4-1.9-4.4-4.4S595.8,264.1,598.2,264.1z
						 M598.2,271.8c1.7,0,3-1.4,3-3.3c0-1.8-1.2-3.3-3-3.3c-1.7,0-3,1.5-3,3.3C595.2,270.4,596.5,271.8,598.2,271.8z"/>
					<path class="st0" d="M606.9,269.4h-1.5v3.5H604v-8.6h2.7c2.1,0,3.2,1.2,3.2,2.6c0,1-0.6,1.9-1.6,2.3l2.2,3.8h-1.6L606.9,269.4z
						 M605.4,265.4v2.8h1.3c1.3,0,1.8-0.6,1.8-1.4c0-0.8-0.6-1.4-1.8-1.4H605.4z"/>
				</g>
			</g>
		</g>
		<g>
			<rect id="XMLID_416_" x="458" y="241.3" class="st2" width="81.9" height="24.9"/>
			<path class="st2" d="M464.4,272.6c-0.2,0-0.7,0-0.7-0.7v-2.1h-0.4v2.1c0,0.9,0.7,1,1.1,1c0.4,0,1.1-0.1,1.1-1v-2.1h-0.4v2.1
				C465.1,272.5,464.6,272.6,464.4,272.6 M468.2,270.2c0.3,0,0.5,0,0.8,0.2V270c-0.2-0.1-0.5-0.2-0.8-0.2c-0.9,0-1.1,0.5-1.1,0.9
				c0,0.5,0.3,0.8,1,0.8h0c0.4,0.1,0.6,0.1,0.6,0.5c0,0.3-0.2,0.6-0.7,0.6c-0.4,0-0.6-0.1-0.9-0.2v0.4c0.2,0.1,0.6,0.2,0.9,0.2
				c0.9,0,1.2-0.5,1.2-1c0-0.6-0.4-0.8-1-0.9c-0.4-0.1-0.6-0.1-0.6-0.4C467.6,270.4,467.7,270.2,468.2,270.2 M472.6,271.1h-1.3v-0.9
				h1.4v-0.4h-1.9v3.1h1.9v-0.4h-1.4v-1h1.3V271.1z M475.3,272.9c1,0,1.3-0.7,1.3-1.5c0-0.9-0.3-1.5-1.3-1.5h-0.9v3.1H475.3z
				 M474.8,270.3h0.5c0.6,0,0.8,0.5,0.8,1.1c0,0.7-0.2,1.1-0.8,1.1h-0.5V270.3z M480.4,272.9h1c0.8,0,1.1-0.4,1.1-0.9
				c0-0.3-0.1-0.6-0.4-0.7c0.2-0.1,0.3-0.4,0.3-0.6c0-0.5-0.2-0.8-1-0.8h-1V272.9z M481.9,270.7c0,0.2-0.1,0.4-0.5,0.4h-0.6v-0.9
				h0.6C481.8,270.3,481.9,270.5,481.9,270.7 M480.8,271.5h0.6c0.4,0,0.6,0.2,0.6,0.5c0,0.2-0.1,0.5-0.6,0.5h-0.6V271.5z
				 M486.1,269.9h-0.5l-0.8,1.4l-0.8-1.4h-0.5l1.1,1.8v1.3h0.4v-1.3L486.1,269.9z M489.9,271.8h0.5c0.8,0,1.1-0.5,1.1-1
				c0-0.5-0.3-1-1.1-1h-1v3.1h0.4V271.8z M489.9,270.3h0.6c0.5,0,0.6,0.3,0.6,0.5c0,0.3-0.1,0.6-0.6,0.6h-0.6V270.3z M493.5,271.7
				h0.7l0.6,1.3h0.5c-0.2-0.4-0.5-0.9-0.7-1.4c0.4-0.1,0.5-0.4,0.5-0.8c0-0.6-0.2-0.9-1-0.9h-1v3.1h0.4V271.7z M493.5,270.3h0.6
				c0.5,0,0.5,0.2,0.5,0.5c0,0.3-0.1,0.5-0.5,0.5h-0.6V270.3z M499.1,271.4c0-0.8-0.1-1.6-1.2-1.6c-1,0-1.2,0.8-1.2,1.6
				c0,0.8,0.1,1.6,1.2,1.6C499,273,499.1,272.2,499.1,271.4 M498.7,271.4c0,0.6-0.1,1.2-0.7,1.2c-0.6,0-0.7-0.5-0.7-1.2
				c0-0.6,0.1-1.2,0.7-1.2C498.6,270.2,498.7,270.8,498.7,271.4 M502.5,271.1h-1.3v-0.9h1.4v-0.4h-1.8v3.1h0.4v-1.4h1.3V271.1z
				 M506,271.1h-1.3v-0.9h1.4v-0.4h-1.9v3.1h1.9v-0.4h-1.4v-1h1.3V271.1z M508.8,270.2c0.3,0,0.5,0,0.8,0.2V270
				c-0.2-0.1-0.5-0.2-0.8-0.2c-0.9,0-1.1,0.5-1.1,0.9c0,0.5,0.3,0.8,1,0.8h0c0.4,0.1,0.6,0.1,0.6,0.5c0,0.3-0.2,0.6-0.7,0.6
				c-0.5,0-0.6-0.1-0.9-0.2v0.4c0.2,0.1,0.6,0.2,0.9,0.2c0.9,0,1.2-0.5,1.2-1c0-0.6-0.4-0.8-1-0.9c-0.4-0.1-0.6-0.1-0.6-0.4
				C508.1,270.4,508.3,270.2,508.8,270.2 M512.4,270.2c0.3,0,0.5,0,0.8,0.2V270c-0.2-0.1-0.5-0.2-0.8-0.2c-0.9,0-1.1,0.5-1.1,0.9
				c0,0.5,0.3,0.8,1,0.8h0c0.4,0.1,0.6,0.1,0.6,0.5c0,0.3-0.2,0.6-0.7,0.6c-0.5,0-0.6-0.1-0.9-0.2v0.4c0.2,0.1,0.6,0.2,0.9,0.2
				c0.9,0,1.2-0.5,1.2-1c0-0.6-0.4-0.8-1-0.9c-0.4-0.1-0.6-0.1-0.6-0.4C511.8,270.4,511.9,270.2,512.4,270.2 M515.6,269.9h-0.4v3.1
				h0.4V269.9z M519.7,271.4c0-0.8-0.1-1.6-1.2-1.6c-1,0-1.2,0.8-1.2,1.6c0,0.8,0.1,1.6,1.2,1.6C519.6,273,519.7,272.2,519.7,271.4
				 M519.3,271.4c0,0.6-0.1,1.2-0.7,1.2c-0.6,0-0.7-0.5-0.7-1.2c0-0.6,0.1-1.2,0.7-1.2C519.2,270.2,519.3,270.8,519.3,271.4
				 M523.6,272.9v-3.1h-0.4l0,2.2l-1.4-2.2h-0.3v3.1h0.4l0-2.2l1.4,2.2H523.6z M525.6,272.9l0.3-0.8h1l0.3,0.8h0.5l-1.1-3.1h-0.3
				l-1.1,3.1H525.6z M526.8,271.7H526l0.4-1.2L526.8,271.7z M529.6,269.9h-0.4v3.1h1.8v-0.4h-1.4V269.9z M533.5,270.2
				c0.3,0,0.5,0,0.8,0.2V270c-0.2-0.1-0.5-0.2-0.8-0.2c-0.9,0-1.1,0.5-1.1,0.9c0,0.5,0.3,0.8,1,0.8h0c0.4,0.1,0.6,0.1,0.6,0.5
				c0,0.3-0.2,0.6-0.7,0.6c-0.5,0-0.6-0.1-0.9-0.2v0.4c0.2,0.1,0.6,0.2,0.9,0.2c0.9,0,1.2-0.5,1.2-1c0-0.6-0.4-0.8-1-0.9
				c-0.4-0.1-0.6-0.1-0.6-0.4C532.9,270.4,533,270.2,533.5,270.2"/>
			<path class="st3" d="M530.6,250.9H530l1.2-2.6h1.5L530.6,250.9L530.6,250.9z M464.9,248.2v1.3h3v9.7h1.3v-9.7h3v-1.3H464.9z
				 M481.3,259.2h-1.7l-2.3-4.7c-0.1,0-0.3,0-0.4,0h-2.2v4.6h-1.4v-11h3.5c1.4,0,2.3,0.3,2.9,0.9c0.6,0.6,0.8,1.4,0.8,2.3
				c0,1.4-0.5,2.5-1.9,2.9L481.3,259.2z M477.1,249.5h-2.4v3.8h2.4c1.8,0,2-0.8,2-1.9C479.1,250.3,479,249.5,477.1,249.5
				 M488.7,249.5v-1.3h-6.4v11h6.6v-1.3h-5.2V254h4.7v-0.2v-1.1h-4.7v-3.2H488.7z M493.7,252.9c-0.8-0.1-1.5-0.2-1.9-0.4
				c-0.4-0.2-0.6-0.5-0.6-1.2c0-1.1,0.3-1.9,2.4-1.9c1,0,1.8,0.1,2.7,0.5l0.2,0.1v-1.3l-0.1,0c-0.6-0.3-1.5-0.5-2.9-0.5
				c-1.5,0-2.5,0.4-3.1,1.1c-0.6,0.6-0.7,1.4-0.7,2.1c0,1.8,1,2.6,3.6,2.9c0.9,0.1,1.5,0.2,1.8,0.5c0.3,0.2,0.5,0.6,0.5,1.3
				c0,1.2-0.5,2.1-2.7,2.1c-1.5,0-2.3-0.4-3-0.6l-0.2-0.1v1.3l0.1,0c0.7,0.3,2.1,0.6,3.1,0.6h0c1.6,0,2.7-0.4,3.3-1.1
				c0.6-0.7,0.8-1.5,0.8-2.3C497.2,253.9,495.8,253.1,493.7,252.9 M514.4,252.3c-0.4-0.4-1-0.5-1.8-0.5c-0.7,0-1.4,0.3-2.2,0.8
				c-0.4-0.5-1.1-0.8-2-0.8c-0.6,0-1.2,0.2-1.8,0.5l-0.1-0.4h-1v7.2h1.1v-5.9c0.5-0.3,1-0.4,1.8-0.4c0.8,0,1.3,0.2,1.3,1.1v5.2h1.1
				v-5.9c0.5-0.3,1-0.4,1.8-0.4c0.8,0,1.3,0.2,1.3,1.1v5.2h1.1v-5.2C515,253.2,514.8,252.6,514.4,252.3 M525.3,252.3
				c-0.4-0.4-1-0.5-1.8-0.5c-0.7,0-1.5,0.3-2.2,0.8c-0.4-0.5-1.1-0.8-2-0.8c-0.6,0-1.2,0.2-1.8,0.5l-0.1-0.4h-1v7.2h1.1v-5.9
				c0.5-0.3,1-0.4,1.8-0.4c0.8,0,1.3,0.2,1.3,1.1v5.2h1.1v-5.9c0.5-0.3,1-0.4,1.8-0.4c0.8,0,1.3,0.2,1.3,1.1v5.2h1.1v-5.2
				C526,253.2,525.7,252.6,525.3,252.3 M504.1,255.7h-4.6c0,1.7,1,2.4,2.1,2.5c0.6,0,1.2,0,1.8-0.6l0.6,0.8
				c-0.7,0.6-1.4,0.8-2.4,0.8c-2,0-3.2-1.5-3.2-3.6v-0.4c0-2.6,1.7-3.5,2.9-3.5C503.2,251.7,504.3,253.1,504.1,255.7 M501.3,252.6
				c-1.2,0-1.8,1-1.8,2.1h3.5C503.1,253.9,502.7,252.6,501.3,252.6 M533,255.7h-4.6c0,1.7,1,2.4,2.1,2.5c0.6,0,1.2,0,1.8-0.6
				l0.6,0.8c-0.7,0.6-1.4,0.8-2.4,0.8c-2,0-3.2-1.5-3.2-3.6v-0.4c0-2.6,1.7-3.5,2.9-3.5C532.2,251.7,533.2,253.1,533,255.7
				 M530.3,252.6c-1.2,0-1.8,1-1.8,2.1h3.5C532.1,253.9,531.6,252.6,530.3,252.6 M534.2,260.5H534l-0.3-0.4h-0.2v0.4h-0.1v-0.9h0.4
				c0.1,0,0.2,0,0.2,0.1c0.1,0,0.1,0.1,0.1,0.2c0,0.1,0,0.1-0.1,0.2c0,0-0.1,0.1-0.2,0.1L534.2,260.5z M533.9,260
				C533.9,260,533.9,260,533.9,260c0.1,0,0.1,0,0.1-0.1c0,0,0,0,0-0.1c0,0,0-0.1,0-0.1c0,0,0,0,0,0c0,0,0,0-0.1,0c0,0,0,0-0.1,0
				h-0.2v0.3L533.9,260C533.8,260,533.8,260,533.9,260 M534.6,260.1c0,0.4-0.4,0.8-0.8,0.8c-0.4,0-0.8-0.4-0.8-0.8
				c0-0.4,0.4-0.8,0.8-0.8C534.2,259.3,534.6,259.6,534.6,260.1 M534.5,260.1c0-0.4-0.3-0.7-0.7-0.7c-0.4,0-0.7,0.3-0.7,0.7
				c0,0.4,0.3,0.7,0.7,0.7C534.2,260.7,534.5,260.5,534.5,260.1"/>
			<rect id="XMLID_372_" x="458" y="241.3" class="st0" width="81.9" height="24.9"/>
			<g id="XMLID_144_">
				<g>
					<path class="st0" d="M464.4,272.6c-0.2,0-0.7,0-0.7-0.7v-2.1h-0.4v2.1c0,0.9,0.7,1,1.1,1c0.4,0,1.1-0.1,1.1-1v-2.1h-0.4v2.1
						C465.1,272.5,464.6,272.6,464.4,272.6 M468.2,270.2c0.3,0,0.5,0,0.8,0.2V270c-0.2-0.1-0.5-0.2-0.8-0.2c-0.9,0-1.1,0.5-1.1,0.9
						c0,0.5,0.3,0.7,1,0.8h0c0.4,0.1,0.6,0.1,0.6,0.5c0,0.3-0.2,0.6-0.7,0.6c-0.4,0-0.6-0.1-0.9-0.2v0.4c0.2,0.1,0.6,0.2,0.9,0.2
						c0.9,0,1.2-0.5,1.2-1c0-0.6-0.4-0.8-1-0.9c-0.4-0.1-0.6-0.1-0.6-0.4C467.6,270.4,467.7,270.2,468.2,270.2 M472.6,271.1h-1.3
						v-0.9h1.4v-0.4h-1.9v3.1h1.9v-0.4h-1.4v-1h1.3V271.1z M475.3,272.9c1,0,1.3-0.7,1.3-1.5c0-0.9-0.3-1.5-1.3-1.5h-0.9v3.1H475.3z
						 M474.8,270.3h0.5c0.6,0,0.8,0.5,0.8,1.1c0,0.7-0.2,1.1-0.8,1.1h-0.5V270.3z M480.4,272.9h1c0.8,0,1.1-0.4,1.1-0.9
						c0-0.3-0.1-0.6-0.4-0.7c0.2-0.1,0.3-0.4,0.3-0.6c0-0.5-0.2-0.8-1-0.8h-1V272.9z M481.9,270.7c0,0.2-0.1,0.4-0.5,0.4h-0.6v-0.9
						h0.6C481.8,270.3,481.9,270.5,481.9,270.7 M480.8,271.5h0.6c0.4,0,0.6,0.2,0.6,0.5c0,0.2-0.1,0.5-0.6,0.5h-0.6V271.5z
						 M486.1,269.8h-0.5l-0.8,1.4l-0.8-1.4h-0.5l1.1,1.8v1.3h0.4v-1.3L486.1,269.8z M489.9,271.8h0.5c0.8,0,1.1-0.5,1.1-1
						c0-0.5-0.3-1-1.1-1h-1v3.1h0.4V271.8z M489.9,270.3h0.6c0.5,0,0.6,0.3,0.6,0.5c0,0.3-0.1,0.6-0.6,0.6h-0.6V270.3z M493.5,271.7
						h0.7l0.6,1.3h0.5c-0.2-0.4-0.5-0.9-0.7-1.4c0.4-0.1,0.5-0.4,0.5-0.8c0-0.6-0.2-0.9-1-0.9h-1v3.1h0.4V271.7z M493.5,270.3h0.6
						c0.5,0,0.5,0.2,0.5,0.5c0,0.3-0.1,0.5-0.5,0.5h-0.6V270.3z M499.1,271.4c0-0.8-0.1-1.6-1.2-1.6c-1,0-1.2,0.8-1.2,1.6
						c0,0.8,0.1,1.6,1.2,1.6C499,273,499.1,272.2,499.1,271.4 M498.7,271.4c0,0.6-0.1,1.2-0.7,1.2c-0.6,0-0.7-0.5-0.7-1.2
						c0-0.6,0.1-1.2,0.7-1.2C498.6,270.2,498.7,270.8,498.7,271.4 M502.5,271.1h-1.3v-0.9h1.4v-0.4h-1.8v3.1h0.4v-1.4h1.3V271.1z
						 M506,271.1h-1.3v-0.9h1.4v-0.4h-1.9v3.1h1.9v-0.4h-1.4v-1h1.3V271.1z M508.8,270.2c0.3,0,0.5,0,0.8,0.2V270
						c-0.2-0.1-0.5-0.2-0.8-0.2c-0.9,0-1.1,0.5-1.1,0.9c0,0.5,0.3,0.7,1,0.8h0c0.4,0.1,0.6,0.1,0.6,0.5c0,0.3-0.2,0.6-0.7,0.6
						c-0.5,0-0.6-0.1-0.9-0.2v0.4c0.2,0.1,0.6,0.2,0.9,0.2c0.9,0,1.2-0.5,1.2-1c0-0.6-0.4-0.8-1-0.9c-0.4-0.1-0.6-0.1-0.6-0.4
						C508.1,270.4,508.3,270.2,508.8,270.2 M512.4,270.2c0.3,0,0.5,0,0.8,0.2V270c-0.2-0.1-0.5-0.2-0.8-0.2c-0.9,0-1.1,0.5-1.1,0.9
						c0,0.5,0.3,0.7,1,0.8h0c0.4,0.1,0.6,0.1,0.6,0.5c0,0.3-0.2,0.6-0.7,0.6c-0.5,0-0.6-0.1-0.9-0.2v0.4c0.2,0.1,0.6,0.2,0.9,0.2
						c0.9,0,1.2-0.5,1.2-1c0-0.6-0.4-0.8-1-0.9c-0.4-0.1-0.6-0.1-0.6-0.4C511.8,270.4,511.9,270.2,512.4,270.2 M515.6,269.8h-0.4
						v3.1h0.4V269.8z M519.7,271.4c0-0.8-0.1-1.6-1.2-1.6c-1,0-1.2,0.8-1.2,1.6c0,0.8,0.1,1.6,1.2,1.6
						C519.6,273,519.7,272.2,519.7,271.4 M519.3,271.4c0,0.6-0.1,1.2-0.7,1.2c-0.6,0-0.7-0.5-0.7-1.2c0-0.6,0.1-1.2,0.7-1.2
						C519.2,270.2,519.3,270.8,519.3,271.4 M523.6,272.9v-3.1h-0.4l0,2.2l-1.4-2.2h-0.3v3.1h0.4l0-2.2l1.4,2.2H523.6z M525.6,272.9
						l0.3-0.8h1l0.3,0.8h0.5l-1.1-3.1h-0.3l-1.1,3.1H525.6z M526.8,271.7H526l0.4-1.2L526.8,271.7z M529.6,269.8h-0.4v3.1h1.8v-0.4
						h-1.4V269.8z M533.5,270.2c0.3,0,0.5,0,0.8,0.2V270c-0.2-0.1-0.5-0.2-0.8-0.2c-0.9,0-1.1,0.5-1.1,0.9c0,0.5,0.3,0.7,1,0.8h0
						c0.4,0.1,0.6,0.1,0.6,0.5c0,0.3-0.2,0.6-0.7,0.6c-0.5,0-0.6-0.1-0.9-0.2v0.4c0.2,0.1,0.6,0.2,0.9,0.2c0.9,0,1.2-0.5,1.2-1
						c0-0.6-0.4-0.8-1-0.9c-0.4-0.1-0.6-0.1-0.6-0.4C532.9,270.4,533,270.2,533.5,270.2"/>
				</g>
			</g>
			<rect id="XMLID_143_" x="458" y="241.3" class="st4" width="81.9" height="24.9"/>
			<path class="st3" d="M530.6,250.9H530l1.2-2.6h1.5L530.6,250.9L530.6,250.9z M464.9,248.2v1.3h3v9.7h1.3v-9.7h3v-1.3H464.9z
				 M481.3,259.2h-1.7l-2.3-4.7c-0.1,0-0.3,0-0.4,0h-2.2v4.6h-1.4v-11h3.5c1.4,0,2.3,0.3,2.9,0.9c0.6,0.6,0.8,1.4,0.8,2.3
				c0,1.4-0.5,2.5-1.9,2.9L481.3,259.2z M477.1,249.5h-2.4v3.8h2.4c1.8,0,2-0.8,2-1.9C479.1,250.3,479,249.5,477.1,249.5
				 M488.7,249.5v-1.3h-6.4v11h6.6v-1.3h-5.2V254h4.7v-0.2v-1.1h-4.7v-3.2H488.7z M493.7,252.9c-0.8-0.1-1.5-0.2-1.9-0.4
				c-0.4-0.2-0.6-0.5-0.6-1.2c0-1.1,0.3-1.9,2.4-1.9c1,0,1.8,0.1,2.7,0.5l0.2,0.1v-1.3l-0.1,0c-0.6-0.3-1.5-0.5-2.9-0.5
				c-1.5,0-2.5,0.4-3.1,1.1c-0.6,0.6-0.7,1.4-0.7,2.1c0,1.8,1,2.6,3.6,2.9c0.9,0.1,1.5,0.2,1.8,0.5c0.3,0.2,0.5,0.6,0.5,1.3
				c0,1.2-0.5,2.1-2.7,2.1c-1.5,0-2.3-0.4-3-0.6l-0.2-0.1v1.3l0.1,0c0.7,0.3,2.1,0.6,3.1,0.6h0c1.6,0,2.7-0.4,3.3-1.1
				c0.6-0.7,0.8-1.5,0.8-2.3C497.2,253.9,495.8,253.1,493.7,252.9 M514.4,252.3c-0.4-0.4-1-0.5-1.8-0.5c-0.7,0-1.4,0.3-2.2,0.8
				c-0.4-0.5-1.1-0.8-2-0.8c-0.6,0-1.2,0.2-1.8,0.5l-0.1-0.4h-1v7.2h1.1v-5.9c0.5-0.3,1-0.4,1.8-0.4c0.8,0,1.3,0.2,1.3,1.1v5.2h1.1
				v-5.9c0.5-0.3,1-0.4,1.8-0.4c0.8,0,1.3,0.2,1.3,1.1v5.2h1.1v-5.2C515,253.2,514.8,252.6,514.4,252.3 M525.3,252.3
				c-0.4-0.4-1-0.5-1.8-0.5c-0.7,0-1.5,0.3-2.2,0.8c-0.4-0.5-1.1-0.8-2-0.8c-0.6,0-1.2,0.2-1.8,0.5l-0.1-0.4h-1v7.2h1.1v-5.9
				c0.5-0.3,1-0.4,1.8-0.4c0.8,0,1.3,0.2,1.3,1.1v5.2h1.1v-5.9c0.5-0.3,1-0.4,1.8-0.4c0.8,0,1.3,0.2,1.3,1.1v5.2h1.1v-5.2
				C526,253.2,525.7,252.6,525.3,252.3 M504.1,255.7h-4.6c0,1.7,1,2.4,2.1,2.5c0.6,0,1.2,0,1.8-0.6l0.6,0.8
				c-0.7,0.6-1.4,0.8-2.4,0.8c-2,0-3.2-1.5-3.2-3.6v-0.4c0-2.6,1.7-3.5,2.9-3.5C503.2,251.7,504.3,253.1,504.1,255.7 M501.3,252.6
				c-1.2,0-1.8,1-1.8,2.1h3.5C503.1,253.9,502.7,252.6,501.3,252.6 M533,255.7h-4.6c0,1.7,1,2.4,2.1,2.5c0.6,0,1.2,0,1.8-0.6
				l0.6,0.8c-0.7,0.6-1.4,0.8-2.4,0.8c-2,0-3.2-1.5-3.2-3.6v-0.4c0-2.6,1.7-3.5,2.9-3.5C532.2,251.7,533.2,253.1,533,255.7
				 M530.3,252.6c-1.2,0-1.8,1-1.8,2.1h3.5C532.1,253.9,531.6,252.6,530.3,252.6 M534.2,260.5H534l-0.3-0.4h-0.2v0.4h-0.1v-0.9h0.4
				c0.1,0,0.2,0,0.2,0.1c0.1,0,0.1,0.1,0.1,0.2c0,0.1,0,0.1-0.1,0.2c0,0-0.1,0.1-0.2,0.1L534.2,260.5z M533.9,260
				C533.9,260,533.9,260,533.9,260c0.1,0,0.1,0,0.1-0.1c0,0,0,0,0-0.1c0,0,0-0.1,0-0.1c0,0,0,0,0,0c0,0,0,0-0.1,0c0,0,0,0-0.1,0
				h-0.2v0.3L533.9,260C533.8,260,533.8,260,533.9,260 M534.6,260.1c0,0.4-0.4,0.8-0.8,0.8c-0.4,0-0.8-0.4-0.8-0.8
				c0-0.4,0.4-0.8,0.8-0.8C534.2,259.3,534.6,259.6,534.6,260.1 M534.5,260.1c0-0.4-0.3-0.7-0.7-0.7c-0.4,0-0.7,0.3-0.7,0.7
				c0,0.4,0.3,0.7,0.7,0.7C534.2,260.7,534.5,260.5,534.5,260.1"/>
		</g>
		<g>
			<path class="st0" d="M217.1,260.5l2.2-1.9c-1.9-2.5-4.4-3.8-7.4-3.8c-5.1,0-9.2,4.1-9.2,9.1c0,5,4.1,9,9,9c1.3,0,2.5-0.3,3.6-0.8
				c1.1-0.5,2.1-1.2,2.9-2.1c0.8-0.9,1.3-1.8,1.5-2.9c0.2-0.9,0.4-2,0.3-3.3l0-0.5h-7.9v2.8h4.9c-0.1,1.1-0.7,2-1.7,2.8
				c-1.1,0.9-2.3,1.3-3.7,1.3c-1.6,0-3-0.7-4.3-1.9c-1.2-1.2-1.8-2.6-1.8-4.3c0-1.8,0.6-3.3,1.9-4.6c1.2-1.2,2.7-1.8,4.3-1.8
				C214,257.6,215.7,258.6,217.1,260.5z"/>
			<path class="st0" d="M195.8,255.1h-1.5l-7.7,17.7h3.2l1.7-3.9c0-0.1,0.1-0.2,0.1-0.3c0.1,0,0.2,0.1,0.3,0.1
				c0.9,0.4,2.1,0.6,3.2,0.6c1.1,0,2.2-0.2,2.8-0.4c0.3-0.1,0.4-0.2,0.5-0.2c0,0.1,0.1,0.2,0.1,0.3l1.6,3.9h3.2L195.8,255.1z
				 M197.1,266.2c-0.6,0.2-1.3,0.3-2,0.3c-0.7,0-1.4-0.1-2.1-0.3c-0.1,0-0.3-0.1-0.4-0.1c0.1-0.1,0.1-0.3,0.2-0.4l2.2-5.4l2.2,5.4
				c0,0.1,0.1,0.2,0.2,0.4L197.1,266.2z"/>
			<path class="st0" d="M177.3,257.2c-1.7-1.4-4.1-2.1-7.3-2.1h-3.8v17.6h3.7c3.2,0,5.7-0.7,7.4-2.2c1.9-1.7,2.9-3.9,2.9-6.6
				C180.3,261.2,179.3,258.9,177.3,257.2z M175.5,268.4c-1.1,1-2.9,1.6-5.4,1.6h-0.8v-12h0.8c2.5,0,4.2,0.5,5.3,1.5
				c1.3,1.1,2,2.7,2,4.5C177.4,265.7,176.7,267.2,175.5,268.4z"/>
			<rect x="182.6" y="255.1" class="st0" width="2.9" height="17.6"/>
			<polygon class="st0" points="224.9,264.5 231.1,264.5 231.1,261.8 224.9,261.8 224.9,257.9 231.6,257.9 231.6,255.1 222,255.1 
				222,272.7 231.7,272.7 231.7,269.9 224.9,269.9 			"/>
			<path class="st0" d="M248.4,257.5c-1.8-1.8-3.9-2.7-6.5-2.7c-2.5,0-4.7,0.9-6.4,2.7c-1.8,1.8-2.7,3.9-2.7,6.4
				c0,5.1,4.1,9.1,9.1,9.1c5.1,0,9.1-4,9.1-9.1C251.1,261.4,250.2,259.3,248.4,257.5z M246.4,268.4c-1.2,1.2-2.7,1.8-4.4,1.8
				c-3.5,0-6.2-2.9-6.2-6.3c0-1.7,0.6-3.3,1.8-4.5c1.2-1.2,2.7-1.8,4.4-1.8c1.7,0,3.2,0.6,4.4,1.8c1.2,1.2,1.8,2.7,1.8,4.5
				C248.2,265.7,247.6,267.1,246.4,268.4z"/>
		</g>
		<g>
			<g>
				<g id="_x36_67TRx.tif_1_">
					<g>
						<g>
							<path class="st0" d="M381.2,264.5C381.2,264.5,381.2,264.5,381.2,264.5c0.3,0.1,0.6,0.1,0.8,0.2c0.3,0.1,0.6-0.1,0.7-0.4
								c0-0.1,0.1-0.2,0.1-0.3c0.3-0.8,0.7-1.5,1.5-2c0.7-0.4,1.4-0.9,2-1.4c1.4-1.1,2.3-2.4,2.4-4.3c0.1-1.6-0.5-2.9-1.9-3.9
								c-1.3-0.9-2.8-1.3-4.4-1.2c-2.1,0.1-3.6,1.1-4.3,3.1c-0.2,0.4,0,0.8,0.5,0.9c0.5,0.1,1.1,0.2,1.6,0.3c0.5,0.1,0.7,0,0.9-0.4
								c0.3-0.6,0.7-1,1.4-1.2c0.6-0.2,1.3-0.1,1.9,0.1c0.8,0.3,1.2,0.8,1.3,1.6c0.1,0.6,0,1.1-0.2,1.7c-0.3,0.7-0.8,1.2-1.4,1.6
								c-0.6,0.4-1.2,0.8-1.8,1.2c-1.2,0.8-1.9,1.9-2.2,3.3c-0.1,0.4,0.1,0.7,0.5,0.8C380.7,264.4,380.9,264.4,381.2,264.5z
								 M382.4,268.5c0.2-1-0.5-2-1.5-2.2c-1-0.2-2,0.5-2.2,1.5c-0.2,1,0.5,2,1.5,2.2C381.2,270.2,382.2,269.5,382.4,268.5z"/>
						</g>
						<g>
							<path class="st0" d="M381.2,264.5c-0.3-0.1-0.5-0.1-0.8-0.2c-0.4-0.1-0.6-0.4-0.5-0.8c0.3-1.4,1-2.5,2.2-3.3
								c0.6-0.4,1.2-0.8,1.8-1.2c0.6-0.4,1.1-0.9,1.4-1.6c0.2-0.5,0.3-1.1,0.2-1.7c-0.1-0.8-0.6-1.3-1.3-1.6
								c-0.6-0.2-1.2-0.3-1.9-0.1c-0.6,0.2-1.1,0.6-1.4,1.2c-0.2,0.5-0.4,0.5-0.9,0.4c-0.5-0.1-1.1-0.2-1.6-0.3
								c-0.4-0.1-0.6-0.5-0.5-0.9c0.7-2,2.2-3,4.3-3.1c1.6-0.1,3.1,0.3,4.4,1.2c1.3,0.9,1.9,2.2,1.9,3.9c-0.1,1.8-1,3.2-2.4,4.3
								c-0.6,0.5-1.3,0.9-2,1.4c-0.8,0.5-1.2,1.2-1.5,2c0,0.1-0.1,0.2-0.1,0.3c-0.1,0.3-0.4,0.4-0.7,0.4
								C381.7,264.6,381.5,264.5,381.2,264.5C381.2,264.5,381.2,264.5,381.2,264.5z"/>
						</g>
						<g>
							<path class="st0" d="M382.4,268.5c-0.2,1-1.2,1.7-2.2,1.5c-1-0.2-1.7-1.2-1.5-2.2c0.2-1,1.2-1.7,2.2-1.5
								C382,266.5,382.6,267.5,382.4,268.5z"/>
						</g>
					</g>
				</g>
				<g>
					<path class="st0" d="M382.6,273c-0.8,0-1.7-0.1-2.5-0.2c-6.9-1.4-11.3-8.1-10-14.9c1.4-6.9,8.1-11.3,14.9-10
						c3.3,0.7,6.2,2.6,8.1,5.4c1.9,2.8,2.6,6.2,1.9,9.5l0,0c-0.7,3.3-2.6,6.2-5.4,8.1C387.5,272.3,385.1,273,382.6,273z
						 M382.6,249.4c-5.1,0-9.6,3.6-10.7,8.8c-1.2,5.9,2.7,11.6,8.5,12.8c2.8,0.6,5.8,0,8.2-1.6c2.4-1.6,4.1-4.1,4.6-6.9l0,0
						c0.6-2.8,0-5.8-1.6-8.2c-1.6-2.4-4.1-4.1-6.9-4.6C384,249.5,383.3,249.4,382.6,249.4z"/>
				</g>
			</g>
			<g>
				<path class="st0" d="M312.4,253.4c0-0.3,0.1-0.5,0.3-0.7c0.2-0.2,0.4-0.3,0.7-0.3c0.2,0,0.4,0,0.5,0.1c0.1,0.1,0.2,0.2,0.4,0.4
					l11,15.6v-15.2c0-0.3,0.1-0.5,0.3-0.7c0.2-0.2,0.4-0.3,0.7-0.3c0.3,0,0.5,0.1,0.7,0.3c0.2,0.2,0.3,0.4,0.3,0.7v18.5
					c0,0.3-0.1,0.5-0.3,0.7c-0.2,0.2-0.4,0.3-0.7,0.3c-0.2,0-0.4-0.1-0.6-0.2c-0.1-0.1-0.3-0.3-0.4-0.5l-11-15.5v15.2
					c0,0.3-0.1,0.5-0.3,0.7c-0.2,0.2-0.4,0.3-0.7,0.3c-0.3,0-0.5-0.1-0.7-0.3c-0.2-0.2-0.3-0.4-0.3-0.7V253.4z"/>
				<path class="st0" d="M330.6,259.1c-0.2-0.3-0.3-0.5-0.3-0.7c0-0.3,0.1-0.5,0.3-0.7c0.2-0.2,0.4-0.3,0.7-0.3
					c0.3,0,0.5,0.1,0.7,0.3l6,6.1l6-6.1c0.2-0.2,0.4-0.3,0.7-0.3c0.3,0,0.5,0.1,0.7,0.3c0.2,0.2,0.3,0.4,0.3,0.7
					c0,0.3-0.1,0.5-0.3,0.7l-6,6.1l6,6.1c0.2,0.2,0.3,0.5,0.3,0.7s-0.1,0.5-0.3,0.7c-0.2,0.2-0.4,0.3-0.7,0.3
					c-0.3,0-0.5-0.1-0.7-0.3l-6-6l-6,6c-0.2,0.2-0.4,0.3-0.7,0.3c-0.3,0-0.5-0.1-0.7-0.3c-0.2-0.2-0.3-0.4-0.3-0.7s0.1-0.5,0.3-0.7
					l6-6.1L330.6,259.1z"/>
				<path class="st0" d="M349,259.1c-0.2-0.3-0.3-0.5-0.3-0.7c0-0.3,0.1-0.5,0.3-0.7c0.2-0.2,0.4-0.3,0.7-0.3c0.3,0,0.5,0.1,0.7,0.3
					l6,6.1l6-6.1c0.2-0.2,0.4-0.3,0.7-0.3c0.3,0,0.5,0.1,0.7,0.3c0.2,0.2,0.3,0.4,0.3,0.7c0,0.3-0.1,0.5-0.3,0.7l-6,6.1l6,6.1
					c0.2,0.2,0.3,0.5,0.3,0.7s-0.1,0.5-0.3,0.7c-0.2,0.2-0.4,0.3-0.7,0.3c-0.3,0-0.5-0.1-0.7-0.3l-6-6l-6,6
					c-0.2,0.2-0.4,0.3-0.7,0.3c-0.3,0-0.5-0.1-0.7-0.3c-0.2-0.2-0.3-0.4-0.3-0.7s0.1-0.5,0.3-0.7l6-6.1L349,259.1z"/>
				<path class="st0" d="M369.5,253.4c0-0.3,0.1-0.5,0.3-0.7c0.2-0.2,0.4-0.3,0.7-0.3c0.3,0,0.5,0.1,0.7,0.3
					c0.2,0.2,0.3,0.4,0.3,0.7v3.9h2.1c0.3,0,0.5,0.1,0.7,0.3c0.2,0.2,0.3,0.4,0.3,0.7c0,0.3-0.1,0.5-0.3,0.7s-0.4,0.3-0.7,0.3h-2.1
					v12.6c0,0.3-0.1,0.5-0.3,0.7c-0.2,0.2-0.4,0.3-0.7,0.3s-0.5-0.1-0.7-0.3c-0.2-0.2-0.3-0.4-0.3-0.7v-12.6h-2.1
					c-0.3,0-0.5-0.1-0.7-0.3c-0.2-0.2-0.3-0.4-0.3-0.7c0-0.3,0.1-0.5,0.3-0.7c0.2-0.2,0.4-0.3,0.7-0.3h2.1V253.4z"/>
			</g>
		</g>
	</g>
</g>
</svg>
