<svg xmlns="http://www.w3.org/2000/svg" width="333.082" height="437.468" viewBox="0 0 333.082 437.468"><g transform="translate(2.552 370.652)"><path d="M51.8,1276.358H67.018v2.875H55.163v7.611H66.447v2.842H55.163v8.118H67.287v2.977H51.8Z" transform="translate(-51.804 -1275.885)" fill="#fafafa"/><path d="M90.554,1276.358h3.325v21.414h11.284v3.01H90.554Z" transform="translate(-67.65 -1275.885)" fill="#fafafa"/><path d="M144.191,1276.358h14.441v2.875H147.617v7.611h10.378v2.842H147.617v11.1h-3.426Z" transform="translate(-89.583 -1275.885)" fill="#fafafa"/><path d="M177.77,1276.358h15.214v2.875H181.129v7.611h11.284v2.842H181.129v8.118h12.124v2.977H177.77Z" transform="translate(-103.314 -1275.885)" fill="#fafafa"/><path d="M217.911,1293.323c.067,1.691.269,4.837,5.844,4.837,5.038,0,5.676-3.146,5.676-4.363,0-2.74-2.183-3.282-5.575-4.128-3.695-.913-5.34-1.319-6.583-2.164a5.527,5.527,0,0,1-2.519-4.8c0-4.974,4.668-7.138,9.236-7.138,1.612,0,4.87.27,6.818,2.4a6.288,6.288,0,0,1,1.478,4.161h-3.493c-.168-3.045-2.72-3.722-5.105-3.722-3.358,0-5.373,1.523-5.373,3.958,0,2.165,1.411,2.91,4.366,3.62,5.777,1.488,6.414,1.624,7.825,2.571a5.615,5.615,0,0,1,2.418,4.871c0,4.33-3.359,7.612-9.572,7.612-1.847,0-5.609-.3-7.523-2.775a7.675,7.675,0,0,1-1.411-4.938Z" transform="translate(-118.3 -1275.563)" fill="#fafafa"/><path d="M260.386,1300.782v-21.548h-8.127v-2.875h19.58v2.875h-8.128v21.548Z" transform="translate(-133.774 -1275.885)" fill="#fafafa"/><path d="M293.85,1276.358h3.359v24.424H293.85Z" transform="translate(-150.781 -1275.885)" fill="#fafafa"/><path d="M320.835,1300.782h-3.694l-8.632-24.424h3.728l6.885,20.872,7.255-20.872h3.392Z" transform="translate(-156.776 -1275.885)" fill="#fafafa"/><path d="M356.276,1276.358h3.594l9.807,24.424h-3.661l-2.62-6.359H352.145l-2.62,6.359h-3.459Zm-3.057,15.324h9.169l-4.467-11.976Z" transform="translate(-172.133 -1275.885)" fill="#fafafa"/><path d="M394.929,1276.358h3.325v21.414h11.285v3.01h-14.61Z" transform="translate(-192.115 -1275.885)" fill="#fafafa"/><path d="M448.168,1276.358h7.019c3.258,0,7.087,0,9.774,3.18a14.114,14.114,0,0,1,2.989,9.235c0,5.277-2.183,8.525-4.031,10.013-2.384,2-5.374,2-8.934,2h-6.818Zm3.359,21.65h3.291c2.318,0,4.736-.135,6.348-1.353,3.09-2.334,3.191-6.325,3.191-7.746,0-.914-.067-5.075-2.351-7.612-1.545-1.725-3.493-2.131-6.449-2.131h-4.03Z" transform="translate(-213.885 -1275.885)" fill="#fafafa"/><path d="M491.576,1276.358H506.79v2.875H494.934v7.611h11.285v2.842H494.934v8.118h12.125v2.977H491.576Z" transform="translate(-231.635 -1275.885)" fill="#fafafa"/><path d="M530.326,1276.358h3.325v21.414h11.285v3.01h-14.61Z" transform="translate(-247.481 -1275.885)" fill="#fafafa"/><path d="M51.8,1345.8H67.018v2.876H55.163v7.61H66.447v2.842H55.163v8.119H67.287v2.977H51.8Z" transform="translate(-51.804 -1303.986)" fill="#fafafa"/><path d="M90.383,1345.8h5.945l6.851,20.128,7.02-20.128h5.541v24.424h-3.291v-21.988l-7.96,21.988H101.3l-7.657-21.853v21.853H90.383Z" transform="translate(-67.58 -1303.986)" fill="#fafafa"/><path d="M146.974,1345.8H155.1c2.956,0,4.971.17,6.617,1.962a6.643,6.643,0,0,1,1.78,4.736,6.48,6.48,0,0,1-1.914,4.77c-1.276,1.286-2.955,2.1-7.322,2.1h-3.93v10.859h-3.358Zm3.358,10.723h4c2.217,0,5.609-.168,5.609-4.161,0-3.822-3.157-3.822-4.9-3.822h-4.7Z" transform="translate(-90.721 -1303.986)" fill="#fafafa"/><path d="M184.644,1345.8h8.665c1.242,0,3.8,0,5.575,1.15a5.744,5.744,0,0,1,2.687,4.973,6.074,6.074,0,0,1-1.713,4.33,5.987,5.987,0,0,1-2.855,1.59c2.318.609,3.359,1.658,3.694,4.7a32.761,32.761,0,0,0,1.511,7.679h-3.593a42.371,42.371,0,0,1-1.109-6.461c-.4-3.552-1.242-4.567-5.306-4.567h-4.232v11.028h-3.325Zm3.258,10.52h5.306a7.8,7.8,0,0,0,3.191-.541,3.476,3.476,0,0,0,1.646-3.18c0-3.958-3.493-3.958-4.837-3.958H187.9Z" transform="translate(-106.125 -1303.986)" fill="#fafafa"/><path d="M225.041,1345.8h15.214v2.876H228.4v7.61h11.284v2.842H228.4v8.119h12.124v2.977H225.041Z" transform="translate(-122.644 -1303.986)" fill="#fafafa"/><path d="M263.9,1345.8h4.668L280.5,1366v-20.2h3.09v24.424h-4.3l-12.326-20.737v20.737H263.9Z" transform="translate(-138.536 -1303.986)" fill="#fafafa"/><path d="M310.78,1345.8h7.02c3.257,0,7.086,0,9.774,3.18a14.116,14.116,0,0,1,2.989,9.235c0,5.278-2.184,8.525-4.031,10.014-2.384,2-5.373,2-8.934,2H310.78Zm3.359,21.651h3.291c2.317,0,4.736-.136,6.348-1.354,3.09-2.334,3.191-6.326,3.191-7.746,0-.914-.067-5.074-2.351-7.612-1.545-1.725-3.493-2.131-6.449-2.131h-4.03Z" transform="translate(-157.704 -1303.986)" fill="#fafafa"/><path d="M354.871,1345.8h3.359v24.424h-3.359Z" transform="translate(-175.734 -1303.986)" fill="#fafafa"/><path d="M373.848,1345.8h5.945l6.851,20.128,7.02-20.128h5.541v24.424h-3.291v-21.988l-7.96,21.988h-3.191l-7.657-21.853v21.853h-3.258Z" transform="translate(-183.494 -1303.986)" fill="#fafafa"/><path d="M430.438,1345.8H433.8v24.424h-3.359Z" transform="translate(-206.635 -1303.986)" fill="#fafafa"/><path d="M448.621,1345.8h15.214v2.876H451.98v7.61h11.285v2.842H451.98v8.119H464.1v2.977H448.621Z" transform="translate(-214.07 -1303.986)" fill="#fafafa"/><path d="M487.485,1345.8h4.668l11.923,20.2v-20.2h3.09v24.424h-4.3l-12.326-20.737v20.737h-3.056Z" transform="translate(-229.963 -1303.986)" fill="#fafafa"/><path d="M537.26,1370.227v-21.548h-8.128V1345.8h19.581v2.876h-8.128v21.548Z" transform="translate(-246.993 -1303.986)" fill="#fafafa"/><path d="M569.927,1348a10.769,10.769,0,0,1,8.094-3.281c6.717,0,10.948,4.33,10.948,12.618,0,6.5-2.586,13.024-11.218,13.024-8.262,0-10.949-5.92-10.949-12.618C566.8,1354.974,567.274,1350.881,569.927,1348Zm2.552,17.253a7.584,7.584,0,0,0,10.747,0c1.982-2.435,2.183-6.292,2.183-7.95,0-5.548-1.813-9.743-7.355-9.743-6.146,0-7.725,4.973-7.725,9.98C570.329,1360.217,570.8,1363.161,572.479,1365.258Z" transform="translate(-262.397 -1303.549)" fill="#fafafa"/></g><g transform="translate(0)"><g transform="translate(0 14.861)"><path d="M47.555,679.433a.612.612,0,0,1,.586-.9h3.516a.635.635,0,0,1,.586.382l6.618,14.929H59.1l6.618-14.929a.633.633,0,0,1,.586-.382h3.515a.612.612,0,0,1,.586.9L59.723,702.8a.62.62,0,0,1-.586.382h-.345a.619.619,0,0,1-.586-.382Z" transform="translate(-47.486 -678.183)" fill="#fafafa"/><path d="M97.4,679.19a.681.681,0,0,1,.655-.66h3.206a.681.681,0,0,1,.655.66v22.983a.681.681,0,0,1-.655.66H98.051a.681.681,0,0,1-.655-.66Z" transform="translate(-67.895 -678.183)" fill="#fafafa"/><path d="M130.943,677.947a11.619,11.619,0,0,1,8.341,3.229.648.648,0,0,1,.035.972l-2.1,2.187a.55.55,0,0,1-.862,0,8.118,8.118,0,0,0-5.308-2.049,8.063,8.063,0,0,0,.035,16.109,8.233,8.233,0,0,0,5.273-1.979.631.631,0,0,1,.862,0l2.137,2.222a.664.664,0,0,1-.035.937,11.784,11.784,0,0,1-8.376,3.368,12.5,12.5,0,0,1,0-25Z" transform="translate(-76.525 -677.947)" fill="#fafafa"/><path d="M168.565,682.7h-5.274a.657.657,0,0,1-.656-.659V679.19a.657.657,0,0,1,.656-.66h15.063a.657.657,0,0,1,.654.66v2.847a.656.656,0,0,1-.654.659H173.08v19.477a.68.68,0,0,1-.655.66h-3.206a.68.68,0,0,1-.654-.66Z" transform="translate(-94.573 -678.183)" fill="#fafafa"/><path d="M211.277,677.947A12.5,12.5,0,1,1,198.9,690.48,12.431,12.431,0,0,1,211.277,677.947Zm0,20.484a7.986,7.986,0,1,0-7.893-7.951A7.973,7.973,0,0,0,211.277,698.431Z" transform="translate(-109.403 -677.947)" fill="#fafafa"/><path d="M298.953,679.19a.68.68,0,0,1,.655-.66h3.206a.68.68,0,0,1,.654.66v22.983a.681.681,0,0,1-.654.66h-3.206a.681.681,0,0,1-.655-.66Z" transform="translate(-150.316 -678.183)" fill="#fafafa"/><path d="M317.678,701.694l10.72-23.365a.618.618,0,0,1,.586-.382h.345a.588.588,0,0,1,.586.382l10.616,23.365a.613.613,0,0,1-.586.9h-3a.991.991,0,0,1-1-.695l-1.689-3.75H323.952l-1.689,3.75a1.042,1.042,0,0,1-1,.695h-3A.613.613,0,0,1,317.678,701.694Zm14.891-7.395-3.448-7.638h-.1L325.64,694.3Z" transform="translate(-157.945 -677.947)" fill="#fafafa"/><g transform="translate(120.405 0.347)"><path d="M274.546,704.174l-.59-2.5a.8.8,0,0,0-1.094-.546c-.895.453-2.552,1.045-3.784.32a3.161,3.161,0,0,1-.871-.791l-4.1-7.655a7.652,7.652,0,0,0,5.1-7.009,7.488,7.488,0,0,0-7.51-7.46h-9.853a.656.656,0,0,0-.654.659V702.16a.657.657,0,0,0,.654.66h3.17a.68.68,0,0,0,.654-.66v-8.848h3.824l.614,1.231,2.99,6,.507,1.017.027.057c.115.229.23.461.347.693l.1.2s.007.01.009.014a6.772,6.772,0,0,0,2.623,3.014c2.791,1.643,7.405-.442,7.405-.442A.732.732,0,0,0,274.546,704.174ZM255.7,689.6v-6.9h5.616a3.439,3.439,0,0,1,3.411,3.366,3.522,3.522,0,0,1-3.411,3.539Z" transform="translate(-251.189 -678.53)" fill="#fafafa"/></g></g><g transform="translate(187.569)"><path d="M395.328,666.878a1.187,1.187,0,0,1-.185.636,1.706,1.706,0,0,1-.705.635,3.831,3.831,0,0,1-1.114.486l-3.23.9-3.118.972-1.15.375-4.788,1.57-.5.169a.766.766,0,0,0-.5.392,3.4,3.4,0,0,0-.185.823,5.015,5.015,0,0,1-.148.673l-.372,1.234a26.472,26.472,0,0,1-1,3.028,4.659,4.659,0,0,0-.3.9.157.157,0,0,0,0,.15.072.072,0,0,0,.111.038q2.376-.6,4.083-1.047,1.225-.373,2.636-.673,1.447-.337,1.93-.486.63-.113,1.633-.262a3.592,3.592,0,0,0,1.262-.411l.371-.186a3.25,3.25,0,0,1,.482-.076,1.383,1.383,0,0,1,1,.449,5.529,5.529,0,0,1,.371.561.986.986,0,0,1,.074.673,3.044,3.044,0,0,1-.52.971,3.463,3.463,0,0,1-.928.785,11.24,11.24,0,0,1-1.855.785q-2.451.672-3.638,1.047-.632.15-1.819.523-3.75,1.122-5.791,1.907c-.073.025-.384.125-.928.3a1.118,1.118,0,0,0-.705.748q-.556,1.608-1.744,4.748-.3.748-.817,2.243-.372,1.009-.891,2.392t-1.225,3.141q-.371.824-.593,1.233a2.094,2.094,0,0,1-1.856,1.159h-.186a1.581,1.581,0,0,1-.965-.3,2.374,2.374,0,0,1-.928-1.458.935.935,0,0,1,0-.524,6.552,6.552,0,0,1,.167-.673c.062-.2.117-.374.167-.524l2.45-7.365.334-1.047a2.1,2.1,0,0,0,.074-.485.987.987,0,0,0-.037-.3.941.941,0,0,0-.5.15,2,2,0,0,1-.352.187q-.706.374-1.522.86a2.043,2.043,0,0,1-.928.224,1.779,1.779,0,0,1-.408-.037,1.34,1.34,0,0,1-.78-.374,1.138,1.138,0,0,1-.408-.748,3.1,3.1,0,0,1-.037-.561,2.791,2.791,0,0,1,.705-1.869,13.824,13.824,0,0,1,1.856-1.757,15.38,15.38,0,0,1,3.489-1.794l.408-.112a.9.9,0,0,0,.594-.673l.816-3.029.409-1.571c.025-.049.069-.155.13-.318a.491.491,0,0,0-.056-.467h-.074a.66.66,0,0,0-.334.113,1.564,1.564,0,0,1-.3.149c-.1.051-.192.1-.278.15s-.155.088-.2.112a3.585,3.585,0,0,0-1.261,1.009,1.442,1.442,0,0,1-1.188.561,3.078,3.078,0,0,1-.557-.074,1.8,1.8,0,0,1-.854-.636,1.989,1.989,0,0,1-.483-1.271,3.174,3.174,0,0,1,.074-.523,4.976,4.976,0,0,1,1.856-2.58,7.911,7.911,0,0,1,2.376-1.309q1.818-.6,2.042-.673,5.567-1.645,8.351-2.43l1-.262q4.639-1.307,7.238-1.869.222-.075,2.264-.449l.928-.187a.982.982,0,0,1,.3-.037,1.707,1.707,0,0,1,.928.411A1.026,1.026,0,0,1,395.328,666.878Zm-25.5,20.712-.038.111C369.915,687.652,369.928,687.615,369.829,687.59Z" transform="translate(-364.818 -658.093)" fill="#fafafa"/><path d="M427.319,694.883q0,1.422-1.912,3.627a18.913,18.913,0,0,1-4.677,3.851,10.274,10.274,0,0,1-5.214,1.645,5.236,5.236,0,0,1-3.452-1.234,7.581,7.581,0,0,1-2.228-3.963,8.648,8.648,0,0,1-.371-2.692,16.455,16.455,0,0,1,.687-4.58,14.618,14.618,0,0,1,1.837-4.094,19.611,19.611,0,0,1,2.97-3.514,8.176,8.176,0,0,1,2.3-1.421,4.951,4.951,0,0,1,2.042-.448A4.527,4.527,0,0,1,423.236,684a2.913,2.913,0,0,1,.483,1.271,6.18,6.18,0,0,1,.074.748,4.8,4.8,0,0,1-.186,1.272,9.255,9.255,0,0,1-1.855,3.476,18.633,18.633,0,0,1-3.972,3.664,11.23,11.23,0,0,1-3.044,1.458q-.52.112-.835.953a4.7,4.7,0,0,0-.316,1.664,1.579,1.579,0,0,0,.111.673,2.514,2.514,0,0,0,2.339,1.795,6.8,6.8,0,0,0,3.953-1.758,34.478,34.478,0,0,0,4.472-4.261l.891-1.01a1.026,1.026,0,0,1,.742-.336,1.157,1.157,0,0,1,.928.448A1.292,1.292,0,0,1,427.319,694.883Zm-11.469-2.355a5.206,5.206,0,0,0,1.485-.935,8.42,8.42,0,0,0,2.636-3.4c.024-.05.074-.174.149-.374v-.075c0-.2-.038-.3-.112-.3a.642.642,0,0,0-.26.037,4.623,4.623,0,0,0-1.448,1.2l-.593.748a22.541,22.541,0,0,0-1.745,2.58A1.334,1.334,0,0,0,415.849,692.528Z" transform="translate(-383.075 -664.75)" fill="#fafafa"/><path d="M445.971,691.63l-.3.711q-.112.224-.335.785a7.648,7.648,0,0,1-.482,1.009A15.35,15.35,0,0,1,443,696.827a4.794,4.794,0,0,1-1.522,1.2.979.979,0,0,1-.445.112,1.393,1.393,0,0,1-.761-.224,1.276,1.276,0,0,1-.5-.561,1.726,1.726,0,0,1-.148-.6.945.945,0,0,1,.112-.412c.1-.173.21-.392.335-.654s.234-.479.333-.654a18.627,18.627,0,0,0,1.967-4.636,4.075,4.075,0,0,0,.186-1.122,2.036,2.036,0,0,0-.037-.448.419.419,0,0,0-.2-.318.469.469,0,0,0-.39-.019,3.814,3.814,0,0,0-1.187.636,8.958,8.958,0,0,0-2.376,3.028,5.66,5.66,0,0,0-.556,1.907c-.025.125-.056.262-.093.411a1.736,1.736,0,0,0-.056.411,1.169,1.169,0,0,1-.018.186c-.013.075-.006.125.018.15q.037.113.223.935a4.043,4.043,0,0,0,.259,1.047,23.637,23.637,0,0,0,1.968,3.739q.186.3.445.691t.595.916a15.142,15.142,0,0,1,1.67,4.3,6.854,6.854,0,0,1,.186,1.5,4.989,4.989,0,0,1-.26,1.645,5.7,5.7,0,0,1-1.818,2.579,15.552,15.552,0,0,1-1.337.9,4.213,4.213,0,0,1-2,.561h-.259a4.024,4.024,0,0,1-2.227-.673,4.189,4.189,0,0,1-1.522-1.757,4.419,4.419,0,0,1-.334-1.682,7.717,7.717,0,0,1,.148-1.2,13.179,13.179,0,0,1,1.855-4.375,4.366,4.366,0,0,1,.668-.8q.408-.392.557-.542a1.258,1.258,0,0,1,.148-.131.373.373,0,0,0,.111-.131q.223-.261.037-.448a5.568,5.568,0,0,0-.37-.561,11.793,11.793,0,0,1-1.355-2.168q-.537-1.122-1.391-3.29a6.4,6.4,0,0,1-.446-2.393,6.975,6.975,0,0,1,.112-1.271,11.092,11.092,0,0,1,.817-2.767,12.75,12.75,0,0,1,2.6-3.664,8.315,8.315,0,0,1,3.415-2.206q.3-.074.742-.149t.742-.149a.921.921,0,0,1,.52,0l.668.112a3.737,3.737,0,0,1,1.67.635,4.423,4.423,0,0,1,2.042,3.739v.636A5.777,5.777,0,0,1,445.971,691.63Zm-6.644,15.478a14.3,14.3,0,0,0-.668-1.607q0-.113-.112,0a1.326,1.326,0,0,0-.445.43,4.059,4.059,0,0,0-.334.617,12.217,12.217,0,0,0-1.188,3.7v.075a.715.715,0,0,0,.093.355.273.273,0,0,0,.241.169l.3.074a1.225,1.225,0,0,0,.371.075,1.958,1.958,0,0,0,1.318-.542,1.705,1.705,0,0,0,.613-1.327,4.505,4.505,0,0,1,.037-.635A4.383,4.383,0,0,0,439.327,707.108Z" transform="translate(-392.782 -665.386)" fill="#fafafa"/><path d="M451.978,691.025a9.873,9.873,0,0,1,.186-1.589c0-.024.037-.312.111-.86a7.464,7.464,0,0,1,.223-1.159q.261-1.982,1.15-5.87l1.336-5.421q.594-2.393.817-3.178.3-.9.594-2.093.742-2.729,1.039-3.514.3-.971.482-1.42a.349.349,0,0,0-.259-.262,2.451,2.451,0,0,0-.52.038,21.91,21.91,0,0,0-6.087,2.206,4.046,4.046,0,0,0-1.559,1.308,1.089,1.089,0,0,1-.3.261.957.957,0,0,1-.705.3,1.082,1.082,0,0,1-.668-.262,1.816,1.816,0,0,1-.743-1.532,2.775,2.775,0,0,1,.371-1.421,7.325,7.325,0,0,1,1.336-1.532,10.039,10.039,0,0,1,4.009-1.869,45.583,45.583,0,0,1,5.568-1.122,7.615,7.615,0,0,0,1.076-.262.893.893,0,0,0,.3-.224l.186-.373,1.373-2.991a22.229,22.229,0,0,1,2.339-3.963,3.953,3.953,0,0,1,1.225-1.047,1.189,1.189,0,0,1,.519-.15,2.578,2.578,0,0,1,.483-.037,2.033,2.033,0,0,1,1.967,1.047,5.117,5.117,0,0,1,.408,1.309,2.051,2.051,0,0,1-.074.411,12.37,12.37,0,0,1-.928,2.954l-.965,2.28v.038a.217.217,0,0,0,.073.149.214.214,0,0,0,.15.074,10.757,10.757,0,0,1,1.187.075q.669.075.929.112l.816.112a6.321,6.321,0,0,1,2.933.972,2.158,2.158,0,0,1,.779,1.122v.112a2.092,2.092,0,0,1-.074.411,1.561,1.561,0,0,1-.705.785,1.108,1.108,0,0,1-.78.112l-.26-.112a4.88,4.88,0,0,0-2.264-.449l-4.045.038a.489.489,0,0,0-.52.374l-.334.6-.965,2.168q-.89,1.907-1.522,3.439-1.077,2.693-2.041,5.907-.3,1.122-.594,1.981-1.151,3.665-2.561,9.459-.334,1.346-.557,2.8a4.659,4.659,0,0,0-.111,1.047,3.007,3.007,0,0,0,.186,1.084v.149a1.338,1.338,0,0,1-.037.374,2.334,2.334,0,0,1-.52.972,1.7,1.7,0,0,1-1.224.561,2.439,2.439,0,0,1-.743-.149,2.033,2.033,0,0,1-1.485-1.944c-.024-.323-.037-.735-.037-1.233C451.942,691.979,451.955,691.611,451.978,691.025Z" transform="translate(-398.456 -652.985)" fill="#fafafa"/></g></g><g transform="translate(0 78.604)"><path d="M102.9,972.412,73.2,893.8h-.543l.724,78.612H47.486V843.276H79.357l29.517,79.707h.543l-.543-79.707h24.99V972.412Z" transform="translate(-47.486 -808.59)" fill="#fafafa"/><path d="M488.767,1065.849H457.982l-15.755-86.638h-.362l-15.574,86.638H395.506L371.422,936.713h29.517l13.219,89.921h.725l13.944-89.921H456.9l14.487,89.921h.543l13.037-89.921h28.069Z" transform="translate(-179.95 -846.4)" fill="#fafafa"/><path d="M73.093,785.015H47.486v31.22H73.381Z" transform="translate(-47.486 -785.015)" fill="#fafafa"/><path d="M133.074,816.236h30.965v-31.22h-42.76Z" transform="translate(-77.661 -785.015)" fill="#fafafa"/><path d="M217.8,800.69a65.323,65.323,0,0,0-9.688,21.34,116.4,116.4,0,0,0,.09,55.813,67.565,67.565,0,0,0,9.779,21.614,44.984,44.984,0,0,0,15.483,13.863,39.69,39.69,0,0,0,5.52,2.431,46.044,46.044,0,0,1,15.034-2.391,45.263,45.263,0,0,1,14.951,2.42,39.772,39.772,0,0,0,5.6-2.459,45.031,45.031,0,0,0,15.483-13.863,67.642,67.642,0,0,0,9.779-21.614,106.806,106.806,0,0,0,3.44-28,104.769,104.769,0,0,0-3.44-27.815,66.767,66.767,0,0,0-9.779-21.34A44.511,44.511,0,0,0,274.57,787.01a40.124,40.124,0,0,0-4.423-2H237.715a39.662,39.662,0,0,0-4.432,2A44.462,44.462,0,0,0,217.8,800.69Zm17.836,33.56a48.415,48.415,0,0,1,3.622-12.494,22.7,22.7,0,0,1,6.157-8.3,13.252,13.252,0,0,1,8.6-3.01,12.905,12.905,0,0,1,8.511,3.01,23.273,23.273,0,0,1,6.066,8.3,50.891,50.891,0,0,1,3.713,12.494,90.345,90.345,0,0,1,1.268,15.595,91.875,91.875,0,0,1-1.268,15.686,50.8,50.8,0,0,1-3.713,12.586,24.194,24.194,0,0,1-6.066,8.39,12.665,12.665,0,0,1-8.511,3.1,13,13,0,0,1-8.6-3.1,23.571,23.571,0,0,1-6.157-8.39,48.38,48.38,0,0,1-3.622-12.586,98.387,98.387,0,0,1-1.177-15.686A96.747,96.747,0,0,1,235.636,834.25Z" transform="translate(-111.799 -785.015)" fill="#fafafa"/><path d="M431.564,873.282l15.575-86.638h.362l15.755,86.638H494.04l16.586-88.267H484.311L477.2,834.068h-.543l-7.9-49.052h-40.99l-7.606,49.052h-.725l-7.211-49.052h-27.9l16.462,88.267Z" transform="translate(-185.223 -785.015)" fill="#fafafa"/><path d="M108.874,1063.62l.543,79.706h-.543L79.357,1063.62H47.486v91.823H73.037l-.38-41.3H73.2l15.6,41.3h45.062V1063.62Z" transform="translate(-47.486 -897.753)" fill="#fafafa"/><path d="M290.053,1119.5a67.638,67.638,0,0,0,9.779-21.614,106.8,106.8,0,0,0,3.44-28,104.762,104.762,0,0,0-3.44-27.815,66.774,66.774,0,0,0-9.779-21.34,44.513,44.513,0,0,0-15.483-13.679,40.212,40.212,0,0,0-5.6-2.414,46.582,46.582,0,0,1-29.985-.028,39.785,39.785,0,0,0-5.7,2.441,44.463,44.463,0,0,0-15.483,13.679,65.33,65.33,0,0,0-9.688,21.34,116.4,116.4,0,0,0,.09,55.812,67.562,67.562,0,0,0,9.779,21.614,45.507,45.507,0,0,0,12.479,12.067h47.111A45.561,45.561,0,0,0,290.053,1119.5Zm-17.745-33.925a50.81,50.81,0,0,1-3.713,12.585,24.2,24.2,0,0,1-6.066,8.391,12.667,12.667,0,0,1-8.511,3.1,13,13,0,0,1-8.6-3.1,23.579,23.579,0,0,1-6.157-8.391,48.387,48.387,0,0,1-3.622-12.585,98.4,98.4,0,0,1-1.177-15.686,96.745,96.745,0,0,1,1.177-15.595,48.412,48.412,0,0,1,3.622-12.494,22.7,22.7,0,0,1,6.157-8.3,13.252,13.252,0,0,1,8.6-3.009,12.905,12.905,0,0,1,8.511,3.009,23.274,23.274,0,0,1,6.066,8.3,50.887,50.887,0,0,1,3.713,12.494,90.342,90.342,0,0,1,1.268,15.595A91.885,91.885,0,0,1,272.307,1085.57Z" transform="translate(-111.799 -873.874)" fill="#fafafa"/><path d="M400.939,1162.877H371.422l6.1,32.729h28.224Z" transform="translate(-179.95 -937.917)" fill="#fafafa"/><path d="M555.484,1195.607h26.664l6.15-32.729H560.229Z" transform="translate(-255.216 -937.917)" fill="#fafafa"/><path d="M493.1,1162.877H465.029l-5.075,32.729h38.417Z" transform="translate(-216.152 -937.917)" fill="#fafafa"/></g></svg>