<svg xmlns="http://www.w3.org/2000/svg" width="912.438" height="168.015" viewBox="0 0 912.438 168.015">
  <g id="Grupo_6" data-name="Grupo 6" transform="translate(-70.562 -192.73)">
    <g id="Grupo_4" data-name="Grupo 4">
      <g id="Grupo_3" data-name="Grupo 3">
        <path id="Trazado_1" data-name="Trazado 1" d="M70.8,248.381a2.116,2.116,0,0,1,2.039-3.117H85.074a2.21,2.21,0,0,1,2.039,1.318l23.026,51.57h.84l23.026-51.57a2.2,2.2,0,0,1,2.039-1.318h12.23a2.116,2.116,0,0,1,2.039,3.117l-37.177,80.712a2.154,2.154,0,0,1-2.039,1.319h-1.2a2.155,2.155,0,0,1-2.039-1.319Z" fill="#fff"/>
        <path id="Trazado_2" data-name="Trazado 2" d="M173.205,247.541a2.356,2.356,0,0,1,2.277-2.277h11.155a2.357,2.357,0,0,1,2.278,2.277v79.393a2.359,2.359,0,0,1-2.278,2.279H175.482a2.358,2.358,0,0,1-2.277-2.279Z" fill="#fff"/>
        <path id="Trazado_3" data-name="Trazado 3" d="M259.9,244.064c12.113,0,20.867,3.838,29.022,11.153a2.231,2.231,0,0,1,.121,3.359l-7.316,7.554a1.919,1.919,0,0,1-3,0,28.372,28.372,0,0,0-18.468-7.076c-15.351,0-26.745,12.833-26.745,27.944,0,14.991,11.515,27.7,26.865,27.7a28.774,28.774,0,0,0,18.348-6.836,2.208,2.208,0,0,1,3,0l7.437,7.675a2.285,2.285,0,0,1-.121,3.238A41.166,41.166,0,0,1,259.9,330.412a43.174,43.174,0,1,1,0-86.348Z" fill="#fff"/>
        <path id="Trazado_4" data-name="Trazado 4" d="M328,259.654H309.654a2.278,2.278,0,0,1-2.281-2.278v-9.835a2.277,2.277,0,0,1,2.281-2.277h52.408a2.276,2.276,0,0,1,2.277,2.277v9.835a2.277,2.277,0,0,1-2.277,2.278H343.711v67.279a2.358,2.358,0,0,1-2.277,2.28H330.279A2.359,2.359,0,0,1,328,326.934Z" fill="#fff"/>
        <path id="Trazado_5" data-name="Trazado 5" d="M425.009,244.064a43.174,43.174,0,1,1-43.053,43.293A43.1,43.1,0,0,1,425.009,244.064Zm0,70.757a27.584,27.584,0,1,0-27.463-27.464A27.64,27.64,0,0,0,425.009,314.821Z" fill="#fff"/>
        <path id="Trazado_6" data-name="Trazado 6" d="M587.714,247.541a2.357,2.357,0,0,1,2.278-2.277h11.155a2.356,2.356,0,0,1,2.277,2.277v79.392a2.357,2.357,0,0,1-2.277,2.279H589.992a2.358,2.358,0,0,1-2.278-2.279Z" fill="#fff"/>
        <path id="Trazado_7" data-name="Trazado 7" d="M626.321,326.094l37.3-80.711a2.152,2.152,0,0,1,2.039-1.319h1.2a2.043,2.043,0,0,1,2.039,1.319l36.936,80.711a2.117,2.117,0,0,1-2.039,3.118H693.361c-1.8,0-2.637-.719-3.477-2.4l-5.878-12.952H648.148l-5.875,12.952a3.617,3.617,0,0,1-3.48,2.4H628.36A2.117,2.117,0,0,1,626.321,326.094Zm51.81-25.544-11.995-26.384h-.359L654.023,300.55Z" fill="#fff"/>
        <g id="Grupo_2" data-name="Grupo 2">
          <path id="Trazado_8" data-name="Trazado 8" d="M570.752,333.846,568.7,325.2a2.775,2.775,0,0,0-3.8-1.884c-3.113,1.565-8.877,3.611-13.164,1.106a11,11,0,0,1-3.031-2.734l-14.26-26.442c10.426-4.194,17.74-13.185,17.74-24.212a25.964,25.964,0,0,0-26.133-25.77H491.762a2.275,2.275,0,0,0-2.277,2.276v79.35a2.276,2.276,0,0,0,2.277,2.278h11.029a2.358,2.358,0,0,0,2.277-2.278V296.326h13.3l2.133,4.249,10.406,20.732,1.763,3.514c.031.065.062.132.092.2.4.791.8,1.593,1.208,2.395l.34.677c.008.015.023.032.032.047,1.987,3.833,4.369,7.633,9.127,10.413,9.711,5.674,25.764-1.528,25.764-1.528A2.523,2.523,0,0,0,570.752,333.846ZM505.188,283.5V259.646h19.537a11.925,11.925,0,0,1,11.867,11.628A12.208,12.208,0,0,1,524.725,283.5Z" fill="#fff"/>
        </g>
      </g>
    </g>
    <g id="Grupo_5" data-name="Grupo 5">
      <path id="Trazado_9" data-name="Trazado 9" d="M829.323,223.077a4.071,4.071,0,0,1-.645,2.2,5.922,5.922,0,0,1-2.453,2.195,13.416,13.416,0,0,1-3.874,1.679l-11.237,3.1L800.266,235.6l-4,1.292L779.6,242.32l-1.744.582a2.661,2.661,0,0,0-1.744,1.356,11.676,11.676,0,0,0-.645,2.841,16.751,16.751,0,0,1-.517,2.324l-1.292,4.262a91.094,91.094,0,0,1-3.486,10.46,15.892,15.892,0,0,0-1.032,3.1.534.534,0,0,0,0,.517.252.252,0,0,0,.385.129q8.266-2.064,14.206-3.616,4.262-1.29,9.171-2.325,5.035-1.161,6.715-1.679,2.195-.387,5.682-.9a12.517,12.517,0,0,0,4.391-1.421l1.292-.644a11.29,11.29,0,0,1,1.677-.26,4.827,4.827,0,0,1,3.489,1.55,19.254,19.254,0,0,1,1.29,1.937,3.39,3.39,0,0,1,.259,2.325,10.5,10.5,0,0,1-1.809,3.358,12.034,12.034,0,0,1-3.229,2.713,39.209,39.209,0,0,1-6.455,2.711q-8.524,2.324-12.657,3.616-2.2.517-6.328,1.808-13.046,3.875-20.147,6.587-.386.129-3.229,1.033a3.867,3.867,0,0,0-2.454,2.583q-1.934,5.553-6.068,16.4-1.035,2.584-2.841,7.748-1.3,3.488-3.1,8.264t-4.262,10.848q-1.293,2.846-2.066,4.262a7.291,7.291,0,0,1-6.458,4h-.645a5.525,5.525,0,0,1-3.357-1.035,8.18,8.18,0,0,1-3.229-5.035,3.185,3.185,0,0,1,0-1.809,22.58,22.58,0,0,1,.58-2.324c.214-.688.407-1.293.581-1.809l8.523-25.44,1.164-3.617a7.3,7.3,0,0,0,.257-1.677,3.423,3.423,0,0,0-.128-1.036,3.279,3.279,0,0,0-1.745.519,6.924,6.924,0,0,1-1.225.645q-2.456,1.291-5.3,2.97a7.147,7.147,0,0,1-3.229.775,6.117,6.117,0,0,1-1.42-.128,4.676,4.676,0,0,1-2.713-1.292,3.934,3.934,0,0,1-1.421-2.584,10.808,10.808,0,0,1-.128-1.937,9.6,9.6,0,0,1,2.453-6.456,47.807,47.807,0,0,1,6.458-6.07,53.633,53.633,0,0,1,12.139-6.2l1.42-.387a3.132,3.132,0,0,0,2.066-2.325l2.841-10.46,1.42-5.424c.086-.172.238-.537.453-1.1a1.685,1.685,0,0,0-.193-1.614h-.26a2.316,2.316,0,0,0-1.161.388,5.589,5.589,0,0,1-1.033.516c-.345.174-.668.345-.968.516s-.54.3-.712.388a12.462,12.462,0,0,0-4.39,3.488,5.027,5.027,0,0,1-4.133,1.937,10.719,10.719,0,0,1-1.937-.259,6.267,6.267,0,0,1-2.97-2.2,6.841,6.841,0,0,1-1.68-4.391,10.8,10.8,0,0,1,.26-1.809,17.179,17.179,0,0,1,6.458-8.91,27.59,27.59,0,0,1,8.264-4.52q6.325-2.065,7.1-2.325,19.371-5.681,29.057-8.394l3.488-.9q16.141-4.52,25.183-6.457.775-.256,7.877-1.55l3.229-.646a3.391,3.391,0,0,1,1.032-.129,5.97,5.97,0,0,1,3.23,1.421A3.534,3.534,0,0,1,829.323,223.077ZM740.6,294.624l-.131.385Q741.119,294.753,740.6,294.624Z" fill="#fff"/>
      <path id="Trazado_10" data-name="Trazado 10" d="M877.1,296.818q0,4.911-6.65,12.528a65.754,65.754,0,0,1-16.272,13.3q-9.622,5.682-18.144,5.682a18.3,18.3,0,0,1-12.01-4.261q-5.168-4.263-7.75-13.69a29.621,29.621,0,0,1-1.292-9.3,56.467,56.467,0,0,1,2.391-15.82,50.3,50.3,0,0,1,6.392-14.14A67.819,67.819,0,0,1,834.1,258.98a28.5,28.5,0,0,1,8.007-4.908,17.337,17.337,0,0,1,7.1-1.55q8.91,0,13.687,6.717a9.979,9.979,0,0,1,1.68,4.39,20.942,20.942,0,0,1,.257,2.583,16.443,16.443,0,0,1-.644,4.391,31.931,31.931,0,0,1-6.456,12.01,64.722,64.722,0,0,1-13.821,12.656,39.142,39.142,0,0,1-10.589,5.037q-1.809.385-2.905,3.294a16.148,16.148,0,0,0-1.1,5.746,5.43,5.43,0,0,0,.385,2.325q2.714,6.2,8.138,6.2,5.937,0,13.754-6.07a119.633,119.633,0,0,0,15.56-14.723l3.1-3.488a3.582,3.582,0,0,1,2.582-1.161,4.035,4.035,0,0,1,3.229,1.549A4.454,4.454,0,0,1,877.1,296.818ZM837.2,288.683a18.135,18.135,0,0,0,5.166-3.229,29.105,29.105,0,0,0,9.169-11.751c.085-.172.259-.6.518-1.292v-.259c0-.687-.13-1.032-.387-1.032a2.252,2.252,0,0,0-.9.128,16.061,16.061,0,0,0-5.037,4.134l-2.066,2.583a78.172,78.172,0,0,0-6.07,8.91A4.585,4.585,0,0,0,837.2,288.683Z" fill="#fff"/>
      <path id="Trazado_11" data-name="Trazado 11" d="M908.229,283.388l-1.032,2.454q-.39.774-1.164,2.712a26.465,26.465,0,0,1-1.678,3.486,53.084,53.084,0,0,1-6.458,9.3,16.642,16.642,0,0,1-5.294,4.131,3.431,3.431,0,0,1-1.549.388,4.863,4.863,0,0,1-2.649-.774,4.407,4.407,0,0,1-1.744-1.937,5.947,5.947,0,0,1-.517-2.067,3.238,3.238,0,0,1,.388-1.421c.343-.6.731-1.356,1.164-2.261s.816-1.656,1.161-2.258a64.085,64.085,0,0,0,6.844-16.013,13.946,13.946,0,0,0,.647-3.875,7.088,7.088,0,0,0-.128-1.549,1.447,1.447,0,0,0-.712-1.1,1.637,1.637,0,0,0-1.356-.065,13.311,13.311,0,0,0-4.131,2.195,30.97,30.97,0,0,0-8.267,10.461,19.447,19.447,0,0,0-1.937,6.587q-.128.645-.323,1.42a5.9,5.9,0,0,0-.193,1.421,4.168,4.168,0,0,1-.064.645c-.046.259-.024.43.064.516.086.259.342,1.335.776,3.229a13.876,13.876,0,0,0,.9,3.617,81.578,81.578,0,0,0,6.846,12.914q.647,1.035,1.55,2.389t2.067,3.163a52,52,0,0,1,5.811,14.853,23.564,23.564,0,0,1,.645,5.166,17.135,17.135,0,0,1-.9,5.682,19.645,19.645,0,0,1-6.327,8.909,53.934,53.934,0,0,1-4.65,3.1,14.752,14.752,0,0,1-6.975,1.937h-.9a14.079,14.079,0,0,1-7.748-2.325,14.507,14.507,0,0,1-5.294-6.07,15.194,15.194,0,0,1-1.161-5.811,26.262,26.262,0,0,1,.516-4.133,45.328,45.328,0,0,1,6.456-15.111,15.082,15.082,0,0,1,2.325-2.774q1.42-1.356,1.937-1.873a4.565,4.565,0,0,1,.516-.452,1.3,1.3,0,0,0,.388-.452q.774-.9.128-1.549a19.154,19.154,0,0,0-1.289-1.94,40.706,40.706,0,0,1-4.714-7.488q-1.871-3.876-4.843-11.365a22.01,22.01,0,0,1-1.551-8.265,23.936,23.936,0,0,1,.388-4.391,38.091,38.091,0,0,1,2.841-9.557,44.038,44.038,0,0,1,9.04-12.656,28.938,28.938,0,0,1,11.881-7.619q1.032-.258,2.584-.517t2.582-.516a3.214,3.214,0,0,1,1.808,0l2.325.387a13.057,13.057,0,0,1,5.811,2.2q7.1,5.038,7.1,12.915v2.2A19.832,19.832,0,0,1,908.229,283.388Zm-23.117,53.466a49.313,49.313,0,0,0-2.325-5.554q0-.389-.388,0a4.643,4.643,0,0,0-1.549,1.485,13.97,13.97,0,0,0-1.161,2.132,41.913,41.913,0,0,0-4.134,12.783v.26a2.472,2.472,0,0,0,.324,1.227.953.953,0,0,0,.84.581l1.033.257a4.269,4.269,0,0,0,1.289.259,6.841,6.841,0,0,0,4.586-1.872,5.878,5.878,0,0,0,2.132-4.586,15.522,15.522,0,0,1,.128-2.194A15.028,15.028,0,0,0,885.112,336.854Z" fill="#fff"/>
      <path id="Trazado_12" data-name="Trazado 12" d="M909.388,324.133a33.891,33.891,0,0,1,.647-5.49c0-.083.129-1.075.386-2.969a25.789,25.789,0,0,1,.776-4q.906-6.846,4-20.276l4.65-18.726q2.066-8.264,2.841-10.977,1.032-3.1,2.068-7.232,2.58-9.426,3.614-12.14,1.032-3.356,1.68-4.907a1.207,1.207,0,0,0-.9-.9,8.529,8.529,0,0,0-1.808.13q-12.786,2.841-21.181,7.619a14.033,14.033,0,0,0-5.423,4.52,3.752,3.752,0,0,1-1.033.9,3.34,3.34,0,0,1-2.453,1.034,3.775,3.775,0,0,1-2.325-.9,6.259,6.259,0,0,1-2.584-5.295,9.522,9.522,0,0,1,1.292-4.908,25.318,25.318,0,0,1,4.65-5.294q5.164-4.261,13.946-6.457a160.049,160.049,0,0,1,19.372-3.875,26.658,26.658,0,0,0,3.746-.9,3.094,3.094,0,0,0,1.033-.774l.644-1.291L941.8,210.68a76.571,76.571,0,0,1,8.138-13.689,13.759,13.759,0,0,1,4.261-3.617,4.185,4.185,0,0,1,1.807-.516,9.039,9.039,0,0,1,1.68-.128q4.906,0,6.843,3.615a17.564,17.564,0,0,1,1.421,4.52,7.174,7.174,0,0,1-.257,1.421,42.626,42.626,0,0,1-3.229,10.2l-3.358,7.878v.13a.909.909,0,0,0,.776.774,38.153,38.153,0,0,1,4.131.258q2.327.261,3.229.388l2.841.387a22.082,22.082,0,0,1,10.2,3.357,7.453,7.453,0,0,1,2.71,3.876v.386a7.174,7.174,0,0,1-.257,1.421,5.408,5.408,0,0,1-2.453,2.713,3.89,3.89,0,0,1-2.713.386l-.9-.386a17.083,17.083,0,0,0-7.879-1.551l-14.075.13a1.7,1.7,0,0,0-1.809,1.291l-1.163,2.067-3.358,7.489q-3.1,6.588-5.294,11.881-3.748,9.3-7.1,20.4-1.035,3.875-2.066,6.845-4.005,12.658-8.911,32.673-1.164,4.65-1.937,9.687a15.931,15.931,0,0,0-.388,3.614,10.308,10.308,0,0,0,.647,3.746v.516a4.516,4.516,0,0,1-.131,1.292A8.045,8.045,0,0,1,921.4,337.5a5.917,5.917,0,0,1-4.26,1.937,8.475,8.475,0,0,1-2.584-.516,7.026,7.026,0,0,1-5.166-6.716q-.125-1.677-.128-4.261C909.26,327.426,909.3,326.156,909.388,324.133Z" fill="#fff"/>
    </g>
  </g>
</svg>
