<svg xmlns="http://www.w3.org/2000/svg" xmlns:xlink="http://www.w3.org/1999/xlink" width="219" height="219" viewBox="0 0 219 219">
  <defs>
    <clipPath id="clip-path">
      <rect id="Rectángulo_88" data-name="Rectángulo 88" width="219" height="219" transform="translate(-1170 -3753)" fill="#fafafa" stroke="#707070" stroke-width="1"/>
    </clipPath>
  </defs>
  <g id="Enmascarar_grupo_2" data-name="Enmascarar grupo 2" transform="translate(1170 3753)" clip-path="url(#clip-path)">
    <g id="Grupo_151" data-name="Grupo 151" transform="translate(-2049.97 -4753.733)">
      <g id="Grupo_24" data-name="Grupo 24">
        <path id="Trazado_84" data-name="Trazado 84" d="M1164.056,1008.733v35.96c-9.256,0-12.844,2.313-19.357,6.512-8.019,5.17-19,12.25-38.844,12.25s-30.825-7.08-38.843-12.25c-6.513-4.2-10.1-6.512-19.357-6.512s-12.841,2.313-19.353,6.512c-8.017,5.17-19,12.25-38.84,12.25s-30.824-7.08-38.841-12.25c-6.512-4.2-10.1-6.512-19.354-6.512s-12.84,2.313-19.352,6.512c-8.017,5.17-19,12.25-38.84,12.25s-30.822-7.08-38.839-12.25c-6.512-4.2-10.1-6.512-19.352-6.512v-35.96c19.842,0,30.823,7.08,38.84,12.25,6.511,4.2,10.1,6.512,19.351,6.512s12.841-2.313,19.353-6.512c8.016-5.17,19-12.25,38.839-12.25s30.823,7.08,38.841,12.25c6.512,4.2,10.1,6.512,19.354,6.512s12.84-2.313,19.352-6.512c8.017-5.17,19-12.25,38.841-12.25s30.825,7.08,38.843,12.25c6.513,4.2,10.1,6.512,19.357,6.512s12.845-2.313,19.359-6.512C1133.232,1015.813,1144.213,1008.733,1164.056,1008.733Z" fill="#fafafa"/>
      </g>
      <g id="Grupo_25" data-name="Grupo 25">
        <path id="Trazado_85" data-name="Trazado 85" d="M1164.056,1083.243v35.96c-9.256,0-12.844,2.313-19.357,6.512-8.019,5.17-19,12.249-38.844,12.249s-30.825-7.079-38.843-12.249c-6.513-4.2-10.1-6.512-19.357-6.512s-12.841,2.313-19.353,6.512c-8.017,5.17-19,12.249-38.84,12.249s-30.824-7.079-38.841-12.249c-6.512-4.2-10.1-6.512-19.354-6.512s-12.84,2.313-19.352,6.512c-8.017,5.17-19,12.249-38.84,12.249s-30.822-7.079-38.839-12.249c-6.512-4.2-10.1-6.512-19.352-6.512v-35.96c19.842,0,30.823,7.08,38.84,12.25,6.511,4.2,10.1,6.512,19.351,6.512s12.841-2.314,19.353-6.512c8.016-5.17,19-12.25,38.839-12.25s30.823,7.08,38.841,12.25c6.512,4.2,10.1,6.512,19.354,6.512s12.84-2.314,19.352-6.512c8.017-5.17,19-12.25,38.841-12.25s30.825,7.08,38.843,12.25c6.513,4.2,10.1,6.512,19.357,6.512s12.845-2.314,19.359-6.512C1133.232,1090.323,1144.213,1083.243,1164.056,1083.243Z" fill="#fafafa"/>
      </g>
      <g id="Grupo_26" data-name="Grupo 26">
        <path id="Trazado_86" data-name="Trazado 86" d="M1164.056,1157.753v35.96c-9.256,0-12.844,2.313-19.357,6.512-8.019,5.169-19,12.25-38.844,12.25s-30.825-7.081-38.843-12.25c-6.513-4.2-10.1-6.512-19.357-6.512s-12.841,2.313-19.353,6.512c-8.017,5.169-19,12.25-38.84,12.25s-30.824-7.081-38.841-12.25c-6.512-4.2-10.1-6.512-19.354-6.512s-12.84,2.313-19.352,6.512c-8.017,5.169-19,12.25-38.84,12.25s-30.822-7.081-38.839-12.25c-6.512-4.2-10.1-6.512-19.352-6.512v-35.96c19.842,0,30.823,7.08,38.84,12.25,6.511,4.2,10.1,6.511,19.351,6.511s12.841-2.313,19.353-6.511c8.016-5.17,19-12.25,38.839-12.25s30.823,7.08,38.841,12.25c6.512,4.2,10.1,6.511,19.354,6.511s12.84-2.313,19.352-6.511c8.017-5.17,19-12.25,38.841-12.25s30.825,7.08,38.843,12.25c6.513,4.2,10.1,6.511,19.357,6.511s12.845-2.313,19.359-6.511C1133.232,1164.833,1144.213,1157.753,1164.056,1157.753Z" fill="#fafafa"/>
      </g>
    </g>
  </g>
</svg>
