<?xml version="1.0" encoding="utf-8"?>
<!-- Generator: Adobe Illustrator 25.4.1, SVG Export Plug-In . SVG Version: 6.00 Build 0)  -->
<svg version="1.1" id="Capa_1" xmlns="http://www.w3.org/2000/svg" xmlns:xlink="http://www.w3.org/1999/xlink" x="0px" y="0px"
	 viewBox="0 0 1918 418" style="enable-background:new 0 0 1918 418;" xml:space="preserve">
<style type="text/css">
	.st0{enable-background:new    ;}
</style>
<g class="st0">
	<path d="M80.4,260.9c0.3,9.6,1,37.1,40.4,37.1c5.6,0,35.4,0,35.4-27.1c0-11.3-4.6-18.9-20.5-23.2l-58.6-15.2
		c-16.5-4.3-59.2-15.6-59.2-65.5c0-38.7,29.1-74.8,100.6-74.8c93.3,0,97.3,50.6,97.6,76.1h-67.2c0-7.3,0.3-33.1-31.4-33.1
		c-19.2,0-31.4,10.9-31.4,25.2c0,17.5,14.6,21.8,24.2,24.5l44.7,11.6c31.8,8.3,69.5,18.2,69.5,68.8c0,53.3-45.7,77.1-105.6,77.1
		c-24.8,0-64.9-4-86.7-28.5c-17.5-19.2-17.9-42.7-18.2-53H80.4z"/>
	<path d="M263.1,98H373c18.5,0,42.7,0,62.2,12.2c20.2,12.2,33.8,33.8,33.8,64.9c0,42-26.8,60.2-36.1,65.2
		c-18.5,10.3-47.3,10.3-60.2,10.3l-43,0.3V337h-66.5V98z M329.7,205.3h29.5c16.2,0,42.4,0,42.4-32.1c0-29.1-23.5-30.8-42.7-30.8
		h-29.1V205.3z"/>
	<path d="M500.8,98.7h179.4v45.7H566.3V194h107.2v45.7H566.3v51h116.5V337h-182V98.7z"/>
	<path d="M795.7,98h80.8l94.3,239H896l-16.5-48h-95.7l-16.2,48h-66.2L795.7,98z M864.2,245l-30.8-100.3h-1L799.4,245H864.2z"/>
	<path d="M999.6,98h67.2v104.9L1143.3,98h78.4l-82.4,105.3l89,133.7h-82.1l-79.4-127.1V337h-67.2V98z"/>
	<path d="M1254.8,98.7h179.4v45.7h-113.9V194h107.2v45.7h-107.2v51h116.5V337h-182V98.7z"/>
	<path d="M1474.3,98h110.6c43,0,59.2,2.6,73.5,17.2c7.3,7.3,16.5,20.5,16.5,46.3c0,26.1-10.6,37.4-21.8,44.4
		c-15.2,9.6-29.8,11.3-36.4,12.2v1.3c46.3,1.3,49,21.8,54.3,58.6c2.3,16.2,5.6,42,11.3,58.9h-71.8c-4-14.6-5.6-32.8-7.9-54
		c-3-28.8-4-39.4-33.8-39.4h-27.8V337h-66.5V98z M1540.8,200.6h24.8c14.6,0,21.8,0,27.5-2c14.6-4.6,17.5-19.5,17.5-27.1
		c0-29.5-25.8-29.5-45-29.5h-24.8V200.6z"/>
	<path d="M1772.2,260.9c0.3,9.6,1,37.1,40.4,37.1c5.6,0,35.4,0,35.4-27.1c0-11.3-4.6-18.9-20.5-23.2l-58.6-15.2
		c-16.5-4.3-59.2-15.6-59.2-65.5c0-38.7,29.1-74.8,100.6-74.8c93.3,0,97.3,50.6,97.6,76.1h-67.2c0-7.3,0.3-33.1-31.4-33.1
		c-19.2,0-31.4,10.9-31.4,25.2c0,17.5,14.6,21.8,24.2,24.5l44.7,11.6c31.8,8.3,69.5,18.2,69.5,68.8c0,53.3-45.7,77.1-105.6,77.1
		c-24.8,0-64.9-4-86.7-28.5c-17.5-19.2-17.9-42.7-18.2-53H1772.2z"/>
</g>
</svg>
