<?xml version="1.0" encoding="utf-8"?>
<!-- Generator: Adobe Illustrator 25.4.1, SVG Export Plug-In . SVG Version: 6.00 Build 0)  -->
<svg version="1.1" id="Layer_1" xmlns="http://www.w3.org/2000/svg" xmlns:xlink="http://www.w3.org/1999/xlink" x="0px" y="0px"
	 viewBox="0 0 1862 431" style="enable-background:new 0 0 1862 431;" xml:space="preserve">
<style type="text/css">
	.st0{enable-background:new    ;}
</style>
<g class="st0">
	<path d="M83.1,269.3c0.3,9.9,1,38.3,41.7,38.3c5.8,0,36.6,0,36.6-28c0-11.6-4.8-19.5-21.2-23.9l-60.5-15.7
		c-17.1-4.4-61.2-16.1-61.2-67.7c0-40,30.1-77.3,104-77.3c96.4,0,100.5,52.3,100.9,78.7h-69.4c0-7.5,0.3-34.2-32.5-34.2
		c-19.8,0-32.5,11.3-32.5,26c0,18.1,15,22.6,25,25.3l46.2,12c32.8,8.5,71.8,18.8,71.8,71.1c0,55.1-47.2,79.7-109.1,79.7
		c-25.6,0-67-4.1-89.6-29.4c-18.1-19.8-18.5-44.1-18.8-54.7H83.1z"/>
	<path d="M318.7,150h-75.2v-48.9h221.3V150h-76.9v198h-69.1V150z"/>
	<path d="M529.1,101.1h83.4L710,348h-77.3l-17.1-49.6h-98.8L500,348h-68.4L529.1,101.1z M599.9,252.9l-31.8-103.6h-1l-34.2,103.6
		H599.9z"/>
	<path d="M753.1,150h-75.2v-48.9h221.3V150h-76.9v198h-69.1V150z"/>
	<path d="M923.1,101.1h70.5V348h-70.5V101.1z"/>
	<path d="M1064,128.4c31.1-31.5,78.3-34.2,96.4-34.2c98.5,0,125.2,70.8,125.2,131c0,98.5-69.8,128.6-128.6,128.6
		c-65.7,0-126.9-36.3-126.9-128.2C1030.1,209.2,1032.8,159.9,1064,128.4z M1157.7,303.5c48.9,0,57.1-45.1,57.1-79.3
		c0-34.5-8.2-51.6-15.7-62.6c-9.9-13.7-26-17.8-41-17.8c-45.1,0-57.5,39-57.5,81.4C1100.5,264.6,1112.2,303.5,1157.7,303.5z"/>
	<path d="M1324.2,101.1h94.4l83.4,184l-0.7-184h59.8V348h-92.3l-85.2-191.9l0.7,191.9h-60.2V101.1z"/>
	<path d="M1669.3,269.3c0.3,9.9,1,38.3,41.7,38.3c5.8,0,36.6,0,36.6-28c0-11.6-4.8-19.5-21.2-23.9l-60.5-15.7
		c-17.1-4.4-61.2-16.1-61.2-67.7c0-40,30.1-77.3,104-77.3c96.4,0,100.5,52.3,100.9,78.7h-69.4c0-7.5,0.3-34.2-32.5-34.2
		c-19.8,0-32.5,11.3-32.5,26c0,18.1,15,22.6,25,25.3l46.2,12c32.8,8.5,71.8,18.8,71.8,71.1c0,55.1-47.2,79.7-109.1,79.7
		c-25.6,0-67-4.1-89.6-29.4c-18.1-19.8-18.5-44.1-18.8-54.7H1669.3z"/>
</g>
</svg>
