<?xml version="1.0" encoding="utf-8"?>
<!-- Generator: Adobe Illustrator 25.4.1, SVG Export Plug-In . SVG Version: 6.00 Build 0)  -->
<svg version="1.1" id="Capa_1" xmlns="http://www.w3.org/2000/svg" xmlns:xlink="http://www.w3.org/1999/xlink" x="0px" y="0px"
	 viewBox="0 0 250 100" style="enable-background:new 0 0 250 100;" xml:space="preserve">
<style type="text/css">
	.st0{fill:#070707;}
</style>
<path class="st0" d="M81.3,55.9c0.1-0.3,0.4-0.8,0.5-1l6-14.6L93.7,55c0.1,0.2,0.3,0.6,0.4,1l-0.7,0.1c-1.7,0.4-3.6,0.7-5.5,0.7
	c-1.9,0-3.7-0.2-5.6-0.7C82,56.1,81.5,55.9,81.3,55.9z M19.9,33.6c6.7,0,11.5,1.4,14.4,4c3.6,3.1,5.3,7.2,5.3,12.4
	c0,4.9-1.7,9-5.1,12.1c-3,2.8-7.8,4.3-14.6,4.3h-2.2V33.6H19.9z M227.7,37.8c3.4,3.3,5,7.4,5,12.2c0,4.8-1.7,8.8-5,12.2
	c-3.3,3.3-7.3,5-12,5c-9.4,0-17-7.8-17-17.2c0-4.7,1.7-8.9,5-12.2c3.3-3.3,7.3-4.9,12-4.9C220.3,32.8,224.3,34.5,227.7,37.8z
	 M148,40.7l6-5.1c-5.1-6.9-12-10.3-20.1-10.3c-13.8,0-24.9,11-24.9,24.8c0,13.5,11.1,24.6,24.6,24.6c3.4,0,6.7-0.7,9.8-2.2
	c3.1-1.4,5.7-3.3,7.9-5.8c2.1-2.3,3.4-5,4.2-7.9c0.6-2.4,1-5.4,0.8-9l-0.1-1.4h-21.6V56h13.3c-0.3,3-1.9,5.5-4.6,7.7
	c-2.9,2.4-6.2,3.5-9.9,3.5c-4.3,0-8.2-1.8-11.7-5.3c-3.2-3.3-4.8-7.2-4.8-11.7c0-4.8,1.7-9,5.1-12.4c3.3-3.3,7.2-4.9,11.8-4.9
	C139.5,32.8,144.1,35.5,148,40.7z M97.2,63.5l4.4,10.5h8.7L89.9,25.9h-4L65,74h8.7l4.6-10.7c0.1-0.3,0.1-0.5,0.2-0.7
	c0.2,0.1,0.5,0.2,0.8,0.3c2.6,1,5.6,1.5,8.7,1.5c3,0,5.9-0.6,7.6-1.2c0.9-0.3,1.2-0.4,1.4-0.6C97,62.9,97.2,63.4,97.2,63.5z
	 M19.6,74c8.8,0,15.6-2,20.1-6.1c5.2-4.7,7.8-10.6,7.8-17.9c0-7.6-2.7-13.7-8-18.2c-4.5-3.9-11.2-5.8-19.8-5.8H9.5V74H19.6z
	 M54,26.1V74h7.9V26.1H54z M169.3,51.6H186v-7.5h-16.8V33.6h18.3v-7.6h-26.1V74h26.2v-7.6h-18.3V51.6z M198.1,32.5
	c-4.9,4.8-7.3,10.7-7.3,17.5c0,13.8,11.1,24.7,24.9,24.7c13.8,0,24.9-10.8,24.9-24.7c0-6.8-2.5-12.6-7.3-17.5
	c-4.8-4.9-10.7-7.3-17.6-7.3C208.8,25.3,202.9,27.7,198.1,32.5z"/>
</svg>
