<?xml version="1.0" encoding="utf-8"?>
<!-- Generator: Adobe Illustrator 25.4.1, SVG Export Plug-In . SVG Version: 6.00 Build 0)  -->
<svg version="1.1" id="Capa_1" xmlns="http://www.w3.org/2000/svg" xmlns:xlink="http://www.w3.org/1999/xlink" x="0px" y="0px"
	 viewBox="0 0 250 100" style="enable-background:new 0 0 250 100;" xml:space="preserve">
<g>
	<g>
		<g id="_x36_67TRx.tif_1_">
			<g>
				<g>
					<path d="M200.9,61.5C200.9,61.5,200.9,61.5,200.9,61.5c0.8,0.1,1.5,0.3,2.3,0.5c0.8,0.1,1.6-0.3,1.9-1.1
						c0.1-0.3,0.2-0.5,0.3-0.8c0.8-2.3,2-4.2,4.1-5.5c1.9-1.2,3.8-2.4,5.5-3.8c3.9-3,6.4-6.8,6.6-11.9c0.2-4.5-1.5-8.2-5.2-10.7
						c-3.7-2.5-7.9-3.5-12.3-3.3c-5.7,0.3-9.9,3-11.9,8.5c-0.4,1.2,0,2.2,1.3,2.5c1.5,0.3,3,0.6,4.6,0.9c1.3,0.3,1.9,0,2.4-1.2
						c0.8-1.7,2-2.7,3.8-3.2c1.8-0.5,3.5-0.2,5.2,0.4c2.1,0.8,3.3,2.2,3.6,4.5c0.2,1.6,0,3.2-0.6,4.7c-0.8,1.9-2.2,3.3-3.9,4.4
						c-1.6,1.1-3.3,2.2-4.9,3.3c-3.3,2.3-5.3,5.3-6.2,9.2c-0.2,1.1,0.3,1.9,1.4,2.1C199.4,61.3,200.2,61.4,200.9,61.5z M204.3,72.8
						c0.6-2.9-1.3-5.6-4.1-6.2c-2.8-0.6-5.6,1.3-6.2,4.1c-0.6,2.8,1.3,5.6,4.1,6.2C201,77.5,203.7,75.6,204.3,72.8z"/>
				</g>
				<g>
					<path d="M200.9,61.5c-0.7-0.1-1.5-0.3-2.2-0.4c-1.1-0.2-1.6-1.1-1.4-2.1c0.8-3.9,2.9-7,6.2-9.2c1.6-1.1,3.3-2.2,4.9-3.3
						c1.7-1.1,3.1-2.5,3.9-4.4c0.6-1.5,0.8-3.1,0.6-4.7c-0.3-2.2-1.5-3.7-3.6-4.5c-1.7-0.6-3.4-0.9-5.2-0.4c-1.7,0.5-3,1.5-3.8,3.2
						c-0.6,1.3-1.1,1.5-2.4,1.2c-1.5-0.3-3.1-0.6-4.6-0.9c-1.2-0.3-1.7-1.3-1.3-2.5c2.1-5.5,6.2-8.2,11.9-8.5
						c4.4-0.2,8.6,0.7,12.3,3.3c3.7,2.6,5.4,6.2,5.2,10.7c-0.2,5.1-2.7,8.9-6.6,11.9c-1.8,1.4-3.6,2.6-5.5,3.8
						c-2.1,1.3-3.3,3.2-4.1,5.5c-0.1,0.3-0.2,0.5-0.3,0.8c-0.3,0.8-1,1.2-1.9,1.1C202.5,61.9,201.7,61.7,200.9,61.5
						C200.9,61.5,200.9,61.5,200.9,61.5z"/>
				</g>
				<g>
					<path d="M204.3,72.8c-0.6,2.9-3.3,4.7-6.2,4.1c-2.8-0.6-4.7-3.4-4.1-6.2c0.6-2.8,3.4-4.7,6.2-4.1
						C203.1,67.1,204.9,69.9,204.3,72.8z"/>
				</g>
			</g>
		</g>
		<g>
			<path d="M204.9,85.2c-2.3,0-4.6-0.2-7-0.7c-19-3.8-31.4-22.4-27.7-41.4c3.8-19,22.4-31.4,41.4-27.7c9.2,1.8,17.2,7.2,22.4,15
				c5.2,7.8,7.1,17.2,5.3,26.4l0,0c-1.8,9.2-7.2,17.2-15,22.4C218.5,83.2,211.7,85.2,204.9,85.2z M204.8,19.8
				c-14.1,0-26.7,10-29.6,24.3c-3.3,16.3,7.4,32.3,23.7,35.5c7.9,1.6,16,0,22.7-4.5c6.7-4.5,11.3-11.3,12.8-19.2l0,0
				c1.6-7.9,0-16-4.5-22.7c-4.5-6.7-11.3-11.3-19.2-12.8C208.7,20,206.7,19.8,204.8,19.8z"/>
		</g>
	</g>
	<g>
		<path d="M10,30.9c0-0.8,0.3-1.4,0.8-2c0.5-0.5,1.2-0.8,2-0.8c0.7,0,1.1,0.1,1.5,0.4c0.3,0.3,0.7,0.6,1,1.1L45.9,73V30.9
			c0-0.8,0.3-1.4,0.8-2c0.5-0.5,1.2-0.8,2-0.8c0.8,0,1.4,0.3,2,0.8c0.5,0.5,0.8,1.2,0.8,2v51.4c0,0.8-0.3,1.4-0.8,2s-1.2,0.8-2,0.8
			c-0.7,0-1.2-0.2-1.6-0.6c-0.4-0.4-0.8-0.8-1.1-1.3L15.5,40.1v42.2c0,0.8-0.3,1.4-0.8,2c-0.5,0.5-1.2,0.8-2,0.8
			c-0.8,0-1.4-0.3-2-0.8S10,83,10,82.2V30.9z"/>
		<path d="M60.7,46.6c-0.6-0.7-0.9-1.4-0.9-2c0-0.8,0.3-1.5,0.9-2c0.6-0.5,1.2-0.7,2-0.7c0.8,0,1.4,0.2,1.9,0.7l16.6,16.9l16.6-16.9
			c0.5-0.5,1.1-0.7,1.9-0.7c0.7,0,1.3,0.2,1.9,0.7c0.6,0.5,0.8,1.1,0.8,2c0,0.8-0.3,1.5-0.8,2L85,63.5l16.7,16.8
			c0.5,0.7,0.8,1.3,0.8,2c0,0.7-0.3,1.3-0.8,1.9c-0.6,0.5-1.2,0.8-1.9,0.8c-0.8,0-1.4-0.3-2-0.9L81.1,67.4L64.5,84.1
			c-0.5,0.6-1.2,0.9-2,0.9c-0.7,0-1.4-0.3-1.9-0.8c-0.6-0.5-0.8-1.2-0.8-1.9c0-0.7,0.3-1.4,0.8-2l16.6-16.8L60.7,46.6z"/>
		<path d="M111.6,46.6c-0.6-0.7-0.9-1.4-0.9-2c0-0.8,0.3-1.5,0.9-2c0.6-0.5,1.2-0.7,2-0.7c0.8,0,1.4,0.2,1.9,0.7l16.6,16.9
			l16.6-16.9c0.5-0.5,1.1-0.7,1.9-0.7c0.7,0,1.3,0.2,1.9,0.7c0.6,0.5,0.8,1.1,0.8,2c0,0.8-0.3,1.5-0.8,2l-16.6,16.8l16.7,16.8
			c0.5,0.7,0.8,1.3,0.8,2c0,0.7-0.3,1.3-0.8,1.9c-0.6,0.5-1.2,0.8-1.9,0.8c-0.8,0-1.4-0.3-2-0.9l-16.6-16.7l-16.6,16.7
			c-0.5,0.6-1.2,0.9-2,0.9c-0.7,0-1.4-0.3-1.9-0.8c-0.6-0.5-0.8-1.2-0.8-1.9c0-0.7,0.3-1.4,0.8-2l16.6-16.8L111.6,46.6z"/>
		<path d="M168.4,30.9c0-0.8,0.3-1.4,0.8-2c0.5-0.5,1.2-0.8,2-0.8c0.8,0,1.4,0.3,2,0.8c0.5,0.5,0.8,1.2,0.8,2v10.9h5.9
			c0.8,0,1.4,0.3,2,0.8c0.5,0.5,0.8,1.2,0.8,2c0,0.8-0.3,1.4-0.8,2c-0.5,0.5-1.2,0.8-2,0.8h-5.9v35c0,0.8-0.3,1.4-0.8,2
			c-0.5,0.5-1.2,0.8-1.9,0.8s-1.4-0.3-1.9-0.8c-0.5-0.5-0.8-1.2-0.8-2v-35h-5.9c-0.8,0-1.4-0.3-2-0.8c-0.5-0.5-0.8-1.2-0.8-2
			c0-0.8,0.3-1.4,0.8-2c0.5-0.5,1.2-0.8,2-0.8h5.9V30.9z"/>
	</g>
</g>
</svg>
