<?xml version="1.0" encoding="utf-8"?>
<!-- Generator: Adobe Illustrator 25.4.1, SVG Export Plug-In . SVG Version: 6.00 Build 0)  -->
<svg version="1.1" id="Capa_1" xmlns="http://www.w3.org/2000/svg" xmlns:xlink="http://www.w3.org/1999/xlink" x="0px" y="0px"
	 viewBox="0 0 100 100" style="enable-background:new 0 0 100 100;" xml:space="preserve">
<g>
	<path d="M52.05,66.73c-0.3,0-0.53,0.09-0.69,0.27c-0.16,0.18-0.24,0.44-0.24,0.8c0,0.34,0.08,0.61,0.22,0.79
		c0.15,0.18,0.37,0.28,0.66,0.28c0.1,0,0.19-0.02,0.28-0.05c0.08-0.03,0.15-0.07,0.2-0.11l0.03-0.03v-1.81l-0.04-0.03
		C52.34,66.77,52.21,66.73,52.05,66.73z"/>
	<path d="M45.88,68.2c-0.12,0.07-0.18,0.17-0.18,0.31c0,0.13,0.05,0.24,0.15,0.32c0.1,0.08,0.24,0.12,0.45,0.12
		c0.09,0,0.19-0.01,0.3-0.03c0.12-0.02,0.2-0.05,0.26-0.09l0.04-0.02v-0.77l-0.64,0.06C46.11,68.1,45.99,68.14,45.88,68.2z"/>
	<path d="M56.56,66.85c-0.11-0.12-0.28-0.18-0.49-0.18c-0.13,0-0.25,0.02-0.35,0.07c-0.1,0.05-0.18,0.11-0.24,0.18
		c-0.06,0.07-0.11,0.16-0.14,0.25c-0.03,0.09-0.05,0.18-0.05,0.27l-0.01,0.11l1.48-0.25l-0.01-0.08
		C56.73,67.08,56.67,66.96,56.56,66.85z"/>
	<path d="M67.78,66.85c-0.11-0.12-0.28-0.18-0.49-0.18c-0.13,0-0.25,0.02-0.35,0.07c-0.1,0.05-0.18,0.11-0.24,0.18
		c-0.06,0.07-0.11,0.16-0.14,0.25c-0.03,0.09-0.05,0.18-0.05,0.27l-0.01,0.11l1.48-0.25l-0.01-0.08
		C67.95,67.08,67.89,66.96,67.78,66.85z"/>
	<path d="M34.94,66.73c-0.3,0-0.53,0.09-0.69,0.27c-0.16,0.18-0.24,0.45-0.24,0.8c0,0.34,0.08,0.61,0.22,0.79
		c0.15,0.18,0.37,0.28,0.66,0.28c0.1,0,0.19-0.02,0.28-0.05c0.08-0.03,0.15-0.07,0.2-0.11l0.03-0.03v-1.81l-0.04-0.02
		C35.24,66.77,35.1,66.73,34.94,66.73z"/>
	<path d="M25.88,68.2c-0.12,0.07-0.18,0.17-0.18,0.31c0,0.13,0.05,0.24,0.15,0.32c0.1,0.08,0.24,0.12,0.45,0.12
		c0.09,0,0.19-0.01,0.3-0.03c0.12-0.02,0.2-0.05,0.26-0.09l0.04-0.02v-0.77l-0.64,0.06C26.11,68.1,25.98,68.14,25.88,68.2z"/>
	<path d="M39.46,66.85c-0.11-0.12-0.28-0.18-0.49-0.18c-0.13,0-0.25,0.02-0.35,0.07c-0.1,0.05-0.18,0.11-0.24,0.18
		c-0.06,0.07-0.11,0.16-0.14,0.25c-0.03,0.09-0.05,0.18-0.05,0.27l-0.01,0.11l1.48-0.25l-0.01-0.08
		C39.63,67.08,39.57,66.96,39.46,66.85z"/>
	<ellipse cx="73.75" cy="46.75" rx="6.31" ry="6.21"/>
	<path d="M50.73,1.96C24.19,1.84,2.58,23.24,2.46,49.77s21.28,48.14,47.81,48.27c26.53,0.12,48.14-21.28,48.27-47.81
		C98.66,23.69,77.26,2.08,50.73,1.96z M12.95,46.88c0-8.31,6.08-14.08,15.03-14.08c3.6,0,6.81,0.8,8.35,2.89
		c0.89,1.2,0.91,3.72-1.29,5.12c-1.97-1.1-4.04-1.91-6.37-1.91c-6.82,0-7.92,5.27-7.93,7.84c-0.01,4.25,2.1,6.4,4.46,7.21
		c2.58,0.89,4.77,0.34,5.59-0.11v-4.07h-4.63c-0.17-0.32-0.92-1.88-0.68-3.71c0.12-0.94,0.71-2.14,2.5-2.14h7.32
		c2.02,0,2.73,1.38,2.73,2.73v8.84c0,1.9-0.86,2.62-1.99,3.25c-1.91,1.03-4.89,1.73-8.14,1.73C17.6,60.48,12.95,54.18,12.95,46.88z
		 M21.18,68.93c0,0.14-0.02,0.25-0.07,0.31c-0.05,0.07-0.13,0.14-0.24,0.2c-0.07,0.04-0.15,0.08-0.25,0.11
		c-0.1,0.04-0.21,0.07-0.34,0.1c-0.12,0.03-0.25,0.05-0.39,0.07c-0.5,0.06-0.98,0.01-1.4-0.13c-0.31-0.1-0.57-0.25-0.8-0.45
		c-0.22-0.2-0.4-0.45-0.53-0.74c-0.13-0.3-0.2-0.65-0.2-1.04c0-0.41,0.07-0.78,0.22-1.09c0.14-0.31,0.33-0.56,0.57-0.77
		c0.23-0.2,0.51-0.36,0.81-0.46c0.31-0.1,0.62-0.15,0.95-0.15c0.46,0,0.83,0.08,1.1,0.23c0.25,0.14,0.38,0.32,0.38,0.55
		c0,0.12-0.03,0.22-0.08,0.31c-0.05,0.07-0.1,0.13-0.16,0.18c-0.12-0.07-0.27-0.14-0.44-0.21c-0.2-0.08-0.42-0.12-0.67-0.12
		c-0.45,0-0.81,0.14-1.07,0.4c-0.27,0.27-0.4,0.64-0.4,1.1c0,0.25,0.04,0.47,0.11,0.65c0.07,0.19,0.17,0.34,0.3,0.46
		c0.12,0.12,0.27,0.21,0.43,0.27c0.16,0.06,0.33,0.09,0.51,0.09c0.12,0,0.22-0.01,0.32-0.03c0.09-0.02,0.17-0.05,0.22-0.08
		l0.04-0.02v-0.87h-0.84c-0.02-0.05-0.04-0.1-0.06-0.17c-0.03-0.09-0.04-0.18-0.04-0.27c0-0.16,0.03-0.28,0.1-0.35
		c0.07-0.07,0.15-0.1,0.26-0.1h1.28c0.13,0,0.22,0.03,0.29,0.1c0.07,0.07,0.1,0.17,0.1,0.31V68.93z M24.35,66.59
		c-0.01,0.05-0.03,0.09-0.05,0.13c-0.09,0-0.19,0.01-0.28,0.02c-0.11,0.01-0.23,0.03-0.33,0.05c-0.11,0.02-0.21,0.04-0.3,0.07
		c-0.1,0.03-0.18,0.05-0.25,0.09l-0.05,0.02v2.66c-0.04,0.01-0.1,0.02-0.16,0.03c-0.2,0.03-0.44,0.03-0.61,0
		c-0.07-0.01-0.14-0.04-0.19-0.08c-0.05-0.04-0.09-0.09-0.11-0.16c-0.03-0.07-0.04-0.17-0.04-0.29v-2.35c0-0.11,0.02-0.2,0.06-0.27
		c0.04-0.08,0.09-0.14,0.16-0.2c0.07-0.06,0.17-0.12,0.28-0.17c0.11-0.05,0.24-0.1,0.37-0.14c0.13-0.04,0.27-0.07,0.41-0.1
		c0.14-0.02,0.28-0.03,0.43-0.03c0.22,0,0.4,0.04,0.53,0.13c0.12,0.08,0.17,0.21,0.17,0.4C24.38,66.47,24.37,66.53,24.35,66.59z
		 M27.97,68.97c0,0.12-0.03,0.21-0.09,0.28c-0.07,0.08-0.15,0.15-0.24,0.21c-0.31,0.19-0.76,0.29-1.34,0.29
		c-0.26,0-0.5-0.03-0.7-0.08c-0.2-0.05-0.38-0.12-0.52-0.22c-0.14-0.1-0.25-0.22-0.33-0.37c-0.08-0.15-0.12-0.33-0.12-0.53
		c0-0.34,0.09-0.59,0.28-0.77c0.19-0.18,0.5-0.29,0.91-0.34l1.07-0.12v-0.13c0-0.18-0.08-0.32-0.24-0.4
		c-0.14-0.07-0.34-0.11-0.6-0.11c-0.2,0-0.39,0.02-0.58,0.06c-0.17,0.04-0.32,0.09-0.46,0.14c-0.04-0.04-0.07-0.09-0.1-0.15
		c-0.04-0.08-0.06-0.17-0.06-0.27c0-0.12,0.03-0.21,0.08-0.27c0.05-0.07,0.14-0.13,0.25-0.18c0.14-0.06,0.31-0.1,0.5-0.12
		c0.49-0.06,0.92-0.05,1.28,0.04c0.21,0.06,0.4,0.14,0.55,0.25c0.15,0.11,0.26,0.25,0.34,0.42c0.08,0.17,0.12,0.37,0.12,0.6V68.97z
		 M32.23,69.63c-0.04,0.01-0.1,0.02-0.16,0.03c-0.2,0.03-0.44,0.03-0.61,0c-0.07-0.01-0.14-0.04-0.19-0.08
		c-0.05-0.04-0.09-0.09-0.11-0.16c-0.03-0.07-0.04-0.17-0.04-0.29v-1.85c0-0.19-0.05-0.33-0.16-0.42c-0.1-0.09-0.24-0.13-0.42-0.13
		c-0.11,0-0.22,0.01-0.32,0.04c-0.11,0.03-0.2,0.07-0.28,0.13l-0.03,0.03v2.7c-0.04,0.01-0.1,0.02-0.16,0.03
		c-0.2,0.03-0.44,0.03-0.61,0c-0.07-0.01-0.14-0.04-0.19-0.08c-0.05-0.04-0.09-0.09-0.11-0.16c-0.03-0.07-0.04-0.17-0.04-0.29v-2.35
		c0-0.12,0.02-0.22,0.07-0.3c0.05-0.08,0.13-0.15,0.22-0.22c0.16-0.12,0.37-0.22,0.62-0.29c0.25-0.08,0.53-0.11,0.84-0.11
		c0.55,0,0.97,0.12,1.26,0.37c0.29,0.24,0.43,0.58,0.43,1.01V69.63z M36.5,68.87c0,0.22-0.1,0.39-0.3,0.52
		c-0.14,0.1-0.32,0.18-0.55,0.25c-0.22,0.07-0.48,0.11-0.78,0.11c-0.32,0-0.6-0.05-0.85-0.14c-0.25-0.09-0.46-0.22-0.63-0.39
		c-0.17-0.17-0.3-0.37-0.39-0.61c-0.09-0.24-0.13-0.51-0.13-0.81c0-0.33,0.05-0.62,0.15-0.87c0.1-0.24,0.23-0.44,0.4-0.6
		c0.17-0.16,0.37-0.28,0.6-0.35c0.23-0.08,0.48-0.12,0.75-0.12c0.09,0,0.19,0.01,0.28,0.03c0.09,0.02,0.16,0.04,0.22,0.06L35.39,66
		v-1.34c0.04-0.01,0.1-0.02,0.17-0.03c0.21-0.03,0.44-0.03,0.61,0c0.07,0.01,0.14,0.04,0.19,0.08c0.05,0.04,0.08,0.09,0.11,0.15
		c0.03,0.07,0.04,0.17,0.04,0.29V68.87z M40.57,67.78c-0.08,0.08-0.2,0.13-0.35,0.16l-1.97,0.31l0.03,0.1
		c0.06,0.19,0.19,0.34,0.38,0.44c0.35,0.18,0.84,0.17,1.24,0.05c0.17-0.05,0.31-0.11,0.42-0.17c0.05,0.04,0.1,0.1,0.13,0.16
		c0.05,0.08,0.07,0.17,0.07,0.25c0,0.2-0.09,0.35-0.27,0.45c-0.15,0.08-0.33,0.14-0.52,0.17c-0.52,0.08-0.96,0.05-1.36-0.08
		c-0.24-0.08-0.46-0.21-0.64-0.37c-0.18-0.16-0.32-0.37-0.43-0.62c-0.1-0.25-0.16-0.55-0.16-0.89c0-0.33,0.05-0.62,0.16-0.86
		c0.1-0.24,0.24-0.43,0.41-0.58c0.17-0.15,0.36-0.26,0.58-0.34c0.22-0.07,0.44-0.11,0.67-0.11c0.26,0,0.49,0.04,0.7,0.12
		c0.21,0.08,0.39,0.19,0.54,0.33c0.15,0.14,0.27,0.3,0.35,0.5c0.08,0.19,0.13,0.41,0.13,0.63C40.69,67.59,40.65,67.71,40.57,67.78z
		 M44.13,69.52c-0.06,0.06-0.14,0.1-0.25,0.1H41.4c-0.06-0.06-0.11-0.13-0.15-0.21c-0.04-0.09-0.06-0.19-0.06-0.3
		c0-0.09,0.02-0.18,0.06-0.27c0.04-0.1,0.1-0.19,0.17-0.27l1.42-1.73h-1.52c-0.02-0.05-0.04-0.1-0.06-0.16
		c-0.03-0.08-0.04-0.17-0.04-0.26c0-0.16,0.03-0.27,0.09-0.34c0.06-0.06,0.14-0.1,0.25-0.1h2.35c0.06,0.06,0.11,0.13,0.15,0.21
		c0.04,0.09,0.06,0.19,0.06,0.3c0,0.09-0.02,0.18-0.06,0.27c-0.05,0.1-0.1,0.19-0.17,0.27l-1.38,1.72h1.61
		c0.02,0.05,0.04,0.1,0.06,0.16c0.03,0.08,0.04,0.17,0.04,0.26C44.22,69.35,44.19,69.46,44.13,69.52z M47.97,68.97
		c0,0.12-0.03,0.21-0.09,0.28c-0.07,0.08-0.15,0.15-0.24,0.21c-0.31,0.19-0.76,0.29-1.34,0.29c-0.26,0-0.5-0.03-0.7-0.08
		c-0.2-0.05-0.38-0.12-0.52-0.22c-0.14-0.1-0.25-0.22-0.33-0.37c-0.08-0.15-0.12-0.33-0.12-0.53c0-0.34,0.09-0.59,0.28-0.77
		c0.19-0.18,0.5-0.29,0.91-0.34l1.07-0.12v-0.13c0-0.18-0.08-0.32-0.24-0.4c-0.14-0.07-0.34-0.11-0.6-0.11
		c-0.2,0-0.39,0.02-0.58,0.06c-0.17,0.04-0.32,0.09-0.46,0.14c-0.04-0.04-0.07-0.09-0.1-0.15c-0.04-0.08-0.06-0.17-0.06-0.27
		c0-0.12,0.03-0.21,0.08-0.27c0.05-0.07,0.14-0.13,0.25-0.18c0.14-0.06,0.31-0.1,0.5-0.12c0.49-0.06,0.92-0.05,1.28,0.04
		c0.21,0.06,0.4,0.14,0.55,0.25c0.15,0.11,0.26,0.25,0.34,0.42c0.08,0.17,0.12,0.37,0.12,0.6V68.97z M53.61,68.87
		c0,0.22-0.1,0.39-0.3,0.52c-0.14,0.09-0.32,0.18-0.55,0.25c-0.22,0.07-0.48,0.11-0.78,0.11c-0.32,0-0.6-0.05-0.85-0.14
		c-0.25-0.09-0.46-0.22-0.63-0.39c-0.17-0.17-0.3-0.37-0.39-0.61c-0.09-0.24-0.13-0.51-0.13-0.81c0-0.33,0.05-0.62,0.15-0.87
		c0.1-0.24,0.23-0.44,0.4-0.6c0.17-0.16,0.37-0.28,0.6-0.35c0.23-0.08,0.48-0.12,0.75-0.12c0.09,0,0.19,0.01,0.28,0.03
		c0.09,0.02,0.16,0.04,0.22,0.06L52.49,66v-1.34c0.04-0.01,0.1-0.02,0.17-0.03c0.21-0.03,0.44-0.03,0.61,0
		c0.07,0.01,0.14,0.04,0.19,0.08c0.05,0.04,0.08,0.09,0.11,0.15c0.03,0.07,0.04,0.17,0.04,0.29V68.87z M57.67,67.78
		c-0.08,0.08-0.2,0.13-0.35,0.16l-1.97,0.31l0.03,0.1c0.06,0.19,0.19,0.34,0.38,0.44c0.35,0.18,0.84,0.17,1.24,0.05
		c0.17-0.05,0.31-0.11,0.42-0.17c0.05,0.04,0.1,0.1,0.13,0.16c0.05,0.08,0.07,0.17,0.07,0.25c0,0.2-0.09,0.35-0.27,0.45
		c-0.15,0.08-0.33,0.14-0.52,0.17c-0.52,0.08-0.96,0.05-1.36-0.08c-0.24-0.08-0.46-0.21-0.64-0.37c-0.18-0.16-0.32-0.37-0.42-0.62
		c-0.1-0.25-0.16-0.55-0.16-0.89c0-0.33,0.05-0.62,0.16-0.86c0.1-0.24,0.24-0.43,0.41-0.58c0.17-0.15,0.36-0.26,0.57-0.34
		c0.22-0.07,0.44-0.11,0.67-0.11c0.26,0,0.49,0.04,0.7,0.12c0.21,0.08,0.39,0.19,0.54,0.33c0.15,0.14,0.27,0.3,0.35,0.5
		c0.08,0.19,0.13,0.41,0.13,0.63C57.79,67.59,57.75,67.71,57.67,67.78z M53.38,39.58c0,0,0,12.44,0,17.43c0,1.65-0.53,2.57-1.53,3
		c-1.6,0.69-4.29,0.4-6.07,0.01V39.58H38.4C38,36.4,38.42,33.4,41.59,33.4c3.18,0,19.87,0,19.87,0c0.23,2.69,0.19,6.19-2.81,6.19
		C56.49,39.58,53.38,39.58,53.38,39.58z M64.71,69.65c-0.09,0.02-0.2,0.03-0.34,0.03c-0.18,0-0.33-0.03-0.44-0.09
		c-0.1-0.05-0.16-0.16-0.17-0.33c-0.03-0.56-0.05-1.08-0.06-1.54c-0.01-0.46-0.02-0.84-0.03-1.15l0-0.08h-0.19l-0.02,0.07
		c-0.05,0.2-0.12,0.46-0.22,0.76c-0.1,0.31-0.21,0.7-0.34,1.16c-0.05,0.04-0.12,0.08-0.21,0.1c-0.09,0.03-0.21,0.05-0.33,0.05
		c-0.17,0-0.31-0.02-0.42-0.06c-0.09-0.04-0.15-0.1-0.18-0.19c-0.14-0.46-0.26-0.83-0.35-1.12c-0.09-0.28-0.16-0.53-0.21-0.74
		l-0.02-0.07H61l0,0.08c-0.02,0.31-0.03,0.59-0.03,0.85c-0.01,0.25-0.01,0.5-0.02,0.74c0,0.24-0.01,0.48-0.02,0.73
		c-0.01,0.23-0.02,0.48-0.03,0.76c-0.05,0.02-0.12,0.03-0.19,0.04c-0.1,0.02-0.2,0.03-0.3,0.03c-0.21,0-0.36-0.03-0.47-0.1
		c-0.1-0.06-0.14-0.16-0.14-0.32l0.22-3.98c0.03-0.04,0.09-0.1,0.22-0.17c0.12-0.07,0.3-0.11,0.53-0.11c0.25,0,0.45,0.04,0.59,0.12
		c0.13,0.08,0.23,0.2,0.29,0.37c0.05,0.12,0.09,0.27,0.15,0.43c0.05,0.16,0.11,0.33,0.16,0.5c0.05,0.17,0.1,0.34,0.15,0.51
		l0.15,0.52h0.17l0.02-0.06c0.12-0.44,0.24-0.86,0.36-1.27c0.11-0.39,0.22-0.72,0.32-1c0.06-0.03,0.15-0.06,0.24-0.08
		c0.11-0.03,0.24-0.04,0.38-0.04c0.23,0,0.42,0.04,0.57,0.11c0.13,0.06,0.21,0.15,0.23,0.26c0.02,0.1,0.04,0.26,0.06,0.48
		c0.02,0.22,0.05,0.46,0.07,0.73c0.03,0.27,0.05,0.56,0.08,0.86l0.07,0.87c0.02,0.28,0.04,0.54,0.06,0.77
		c0.01,0.2,0.02,0.36,0.03,0.48C64.85,69.61,64.78,69.63,64.71,69.65z M68.89,67.78c-0.08,0.08-0.2,0.13-0.35,0.16l-1.97,0.31
		l0.03,0.1c0.06,0.19,0.19,0.34,0.38,0.44c0.35,0.18,0.84,0.17,1.24,0.05c0.17-0.05,0.31-0.11,0.42-0.17
		c0.05,0.04,0.1,0.1,0.13,0.16c0.05,0.08,0.07,0.17,0.07,0.25c0,0.2-0.09,0.35-0.27,0.45c-0.15,0.08-0.33,0.14-0.52,0.17
		c-0.52,0.08-0.96,0.05-1.36-0.08c-0.24-0.08-0.46-0.21-0.64-0.37c-0.18-0.16-0.32-0.37-0.42-0.62c-0.1-0.25-0.16-0.55-0.16-0.89
		c0-0.33,0.05-0.62,0.16-0.86c0.1-0.24,0.24-0.43,0.41-0.58c0.17-0.15,0.36-0.26,0.57-0.34c0.22-0.07,0.44-0.11,0.67-0.11
		c0.26,0,0.49,0.04,0.7,0.12c0.21,0.08,0.39,0.19,0.54,0.33c0.15,0.14,0.27,0.3,0.35,0.5c0.08,0.19,0.13,0.41,0.13,0.63
		C69.01,67.59,68.97,67.71,68.89,67.78z M66.29,65c0-0.05,0.01-0.1,0.04-0.15c0.02-0.05,0.07-0.1,0.13-0.14l1.01-0.76
		c0.23,0,0.39,0.05,0.49,0.14c0.1,0.09,0.15,0.19,0.15,0.31c0,0.12-0.03,0.21-0.09,0.29c-0.06,0.08-0.17,0.17-0.32,0.25l-0.95,0.52
		c-0.12-0.02-0.22-0.07-0.31-0.16C66.33,65.2,66.29,65.11,66.29,65z M72.66,69.56c-0.11,0.1-0.24,0.15-0.39,0.15
		c-0.17,0-0.3-0.05-0.4-0.15c-0.11-0.1-0.22-0.23-0.32-0.39l-0.48-0.71l-0.82,1.22c-0.01,0-0.03,0-0.04,0c-0.03,0-0.05,0-0.07,0
		c-0.24,0-0.41-0.05-0.53-0.15c-0.11-0.09-0.17-0.21-0.17-0.34c0-0.11,0.02-0.21,0.08-0.29c0.05-0.09,0.15-0.22,0.29-0.39l0.65-0.78
		l-1.03-1.25c0.04-0.16,0.11-0.3,0.21-0.41c0.1-0.11,0.23-0.16,0.38-0.16c0.14,0,0.25,0.03,0.33,0.1c0.09,0.08,0.18,0.19,0.29,0.34
		l0.55,0.75l0.85-1.2c0.24,0,0.43,0.05,0.57,0.14c0.14,0.09,0.2,0.2,0.2,0.34c0,0.06-0.01,0.11-0.02,0.16
		c-0.02,0.05-0.04,0.1-0.07,0.15c-0.03,0.06-0.08,0.12-0.13,0.19l-0.19,0.25l-0.54,0.63l1.01,1.38
		C72.83,69.33,72.76,69.46,72.66,69.56z M74.57,69.63c-0.05,0.01-0.11,0.02-0.17,0.03c-0.21,0.04-0.43,0.03-0.6,0
		c-0.07-0.01-0.14-0.04-0.19-0.08c-0.05-0.04-0.09-0.09-0.11-0.16c-0.03-0.07-0.04-0.17-0.04-0.29v-3.12
		c0.05-0.01,0.11-0.02,0.17-0.03c0.21-0.04,0.43-0.03,0.6,0c0.07,0.01,0.14,0.04,0.19,0.08c0.05,0.04,0.09,0.09,0.11,0.16
		c0.03,0.07,0.04,0.17,0.04,0.29V69.63z M74.46,65.28c-0.11,0.12-0.26,0.18-0.45,0.18c-0.19,0-0.34-0.06-0.45-0.18
		c-0.11-0.12-0.17-0.27-0.17-0.44c0-0.18,0.06-0.32,0.17-0.44c0.11-0.12,0.26-0.18,0.45-0.18c0.19,0,0.34,0.06,0.45,0.18
		c0.11,0.12,0.17,0.27,0.17,0.44C74.63,65.01,74.57,65.16,74.46,65.28z M78.04,69.57c-0.18,0.11-0.44,0.16-0.77,0.16
		c-0.31,0-0.59-0.05-0.83-0.14c-0.25-0.09-0.46-0.22-0.63-0.39c-0.17-0.17-0.31-0.37-0.41-0.6c-0.1-0.23-0.15-0.5-0.15-0.78
		c0-0.33,0.05-0.63,0.16-0.87c0.1-0.25,0.24-0.45,0.42-0.61c0.18-0.16,0.39-0.28,0.62-0.36c0.23-0.08,0.49-0.12,0.75-0.12
		c0.34,0,0.61,0.06,0.79,0.19c0.17,0.12,0.26,0.27,0.26,0.45c0,0.08-0.02,0.17-0.06,0.24c-0.03,0.06-0.07,0.11-0.1,0.16
		c-0.08-0.03-0.16-0.07-0.26-0.1c-0.25-0.08-0.55-0.09-0.81,0.01c-0.12,0.05-0.23,0.11-0.33,0.2c-0.09,0.09-0.17,0.2-0.22,0.33
		c-0.05,0.13-0.08,0.28-0.08,0.46c0,0.35,0.1,0.62,0.3,0.79c0.19,0.18,0.43,0.27,0.71,0.27c0.16,0,0.3-0.02,0.42-0.06
		c0.09-0.03,0.18-0.06,0.26-0.1c0.07,0.06,0.13,0.12,0.16,0.18c0.04,0.07,0.06,0.16,0.06,0.27C78.29,69.33,78.21,69.47,78.04,69.57z
		 M82.34,68.64c-0.09,0.24-0.22,0.45-0.38,0.61c-0.16,0.16-0.36,0.29-0.59,0.37c-0.23,0.09-0.49,0.13-0.78,0.13
		c-0.29,0-0.55-0.05-0.78-0.14c-0.23-0.09-0.43-0.22-0.59-0.38c-0.17-0.17-0.29-0.37-0.39-0.61c-0.09-0.24-0.14-0.52-0.14-0.82
		c0-0.3,0.05-0.57,0.14-0.81c0.09-0.24,0.22-0.44,0.39-0.61c0.16-0.17,0.36-0.3,0.59-0.38c0.23-0.09,0.49-0.14,0.78-0.14
		c0.29,0,0.55,0.05,0.78,0.14c0.23,0.09,0.43,0.22,0.6,0.39c0.16,0.17,0.29,0.37,0.39,0.61c0.09,0.24,0.14,0.51,0.14,0.8
		C82.48,68.11,82.43,68.39,82.34,68.64z M73.75,60.67c-7.73,0-13.99-6.25-13.99-13.96c0-7.71,6.26-13.96,13.99-13.96
		c7.73,0,13.99,6.25,13.99,13.96C87.75,54.42,81.48,60.67,73.75,60.67z"/>
	<path d="M80.58,66.73c-0.24,0-0.43,0.1-0.56,0.29c-0.13,0.18-0.19,0.44-0.19,0.77c0,0.34,0.06,0.6,0.19,0.78
		c0.14,0.19,0.33,0.29,0.57,0.29c0.24,0,0.43-0.1,0.56-0.3c0.12-0.19,0.18-0.45,0.18-0.78c0-0.33-0.06-0.59-0.19-0.77
		C81.01,66.83,80.82,66.73,80.58,66.73z"/>
</g>
</svg>
