<?xml version="1.0" encoding="utf-8"?>
<!-- Generator: Adobe Illustrator 25.4.1, SVG Export Plug-In . SVG Version: 6.00 Build 0)  -->
<svg version="1.1" id="Capa_1" xmlns="http://www.w3.org/2000/svg" xmlns:xlink="http://www.w3.org/1999/xlink" x="0px" y="0px"
	 viewBox="0 0 250 100" style="enable-background:new 0 0 250 100;" xml:space="preserve">
<g>
	<g>
		<g>
			<path d="M30.04,25.76l-0.26-0.04l-0.44,1.53L19.78,48.9h-3.54L6.68,27.24l-0.52-1.83l-0.26,0.04V48.9H1V18.34h6.46l9.96,22.97
				l0.48,1.88h0.26l0.48-1.88l9.91-22.97h6.37V48.9h-4.89V25.76z"/>
			<path d="M66.02,37.99c0,6.86-5.41,11.35-12.36,11.35c-6.94,0-12.31-4.5-12.31-11.35V18.34h4.89v19.65c0,4.59,3.28,7.25,7.42,7.25
				c4.06,0,7.47-2.66,7.47-7.25V18.34h4.89V37.99z"/>
			<path d="M79.21,18.34h4.89v22.1c0,5.37-3.62,8.91-9.08,8.91c-1.88,0-3.49-0.3-5.02-0.96l0.79-3.84c1.14,0.44,2.4,0.7,3.89,0.7
				c2.88,0,4.54-1.83,4.54-4.8V18.34z"/>
			<path d="M90.87,48.9V18.34h18.73v4.1H95.76v8.78h13.14v4.1H95.76v9.48h13.84v4.1H90.87z"/>
			<path d="M125.07,36.5h-5.37v12.4h-4.89V18.34h9.48c7.38,0,11.44,4.15,11.44,9.08c0,3.58-2.05,6.64-5.85,8.12l7.77,13.36h-5.54
				L125.07,36.5z M119.7,22.44v9.96h4.59c4.45,0,6.55-2.01,6.55-4.98c0-2.93-2.1-4.98-6.55-4.98H119.7z"/>
			<path d="M161.88,36.5h-5.37v12.4h-4.89V18.34h9.48c7.38,0,11.44,4.15,11.44,9.08c0,3.58-2.05,6.64-5.85,8.12l7.77,13.36h-5.54
				L161.88,36.5z M156.51,22.44v9.96h4.59c4.45,0,6.55-2.01,6.55-4.98c0-2.93-2.1-4.98-6.55-4.98H156.51z"/>
			<path d="M178.39,48.9V18.34h18.73v4.1h-13.84v8.78h13.14v4.1h-13.14v9.48h13.84v4.1H178.39z"/>
			<path d="M219.09,40.91H207.6l-2.79,7.99h-5.33l11.53-30.57h4.67l11.53,30.57h-5.33L219.09,40.91z M209,36.89h8.69l-3.75-10.83
				l-0.44-2.01h-0.26l-0.44,2.01L209,36.89z"/>
			<path d="M231.23,18.34h4.89V44.8H249v4.1h-17.77V18.34z"/>
		</g>
	</g>
	<g>
		<g>
			<g>
				<g>
					<path d="M102.7,61.63l0.29-1.22l7.72-1.87l-0.29,2.33L102.7,61.63z M71.04,72.03c0,4.09,2.78,7.12,6.43,7.12
						c1.45,0,2.73-0.14,3.88-0.62l0.64,2.38c-1.47,0.59-2.86,0.75-4.52,0.75c-5.36,0-9.42-4.15-9.42-9.64
						c0-5.49,4.07-9.64,9.42-9.64c1.66,0,3.05,0.16,4.52,0.78l-0.64,2.36c-1.07-0.4-2.41-0.62-3.88-0.62
						C73.83,64.91,71.04,68.17,71.04,72.03 M95.11,81.4l-4.31-7.6h-3.29v7.6h-3V62.66h5.81c4.52,0,7.01,2.54,7.01,5.57
						c0,2.19-1.26,4.07-3.59,4.98l4.76,8.19H95.11z M90.32,65.17h-2.81v6.1h2.81c2.73,0,4.01-1.23,4.01-3.05
						C94.33,66.43,93.05,65.17,90.32,65.17 M112.4,81.4h-11.48V62.66h11.48v2.52h-8.49v5.38h8.06v2.52h-8.06v5.81h8.49V81.4z
						 M115.59,81.4V62.66h5.38c5.81,0,9.69,4.04,9.69,9.37c0,5.33-3.88,9.37-9.69,9.37H115.59z M120.97,65.17h-2.38v13.71h2.38
						c4.1,0,6.69-2.92,6.69-6.85C127.66,68.31,125.07,65.17,120.97,65.17 M133.95,62.66h3V81.4h-3V62.66z M153.15,65.17h-5.17V81.4
						h-3V65.17h-5.33v-2.52h13.49V65.17z M154.73,72.03c0-5.49,4.18-9.64,9.48-9.64c5.14,0,9.5,4.15,9.5,9.64
						c0,5.49-4.18,9.64-9.5,9.64C158.9,81.66,154.73,77.52,154.73,72.03 M157.73,72.03c0,4.09,2.7,7.12,6.48,7.12
						c3.69,0,6.5-3.03,6.5-7.12c0-3.86-2.7-7.12-6.5-7.12C160.43,64.91,157.73,68.17,157.73,72.03 M192.27,81.4l-4.31-7.6h-3.29v7.6
						h-3V62.66h5.81c4.52,0,7.01,2.54,7.01,5.57c0,2.19-1.26,4.07-3.59,4.98l4.77,8.19H192.27z M187.47,65.17h-2.81v6.11h2.81
						c2.73,0,4.02-1.23,4.02-3.05C191.49,66.43,190.2,65.17,187.47,65.17 M209.56,81.4h-11.48V62.66h11.48v2.51h-8.49v5.38h8.06
						v2.51h-8.06v5.81h8.49V81.4z M224.74,81.4l-1.71-4.9h-7.04l-1.71,4.9H211l7.07-18.74h2.87L228,81.4H224.74z M219.17,67.4
						l-2.33,6.64h5.33l-2.3-6.64l-0.27-1.23h-0.16L219.17,67.4z M230.47,81.4V62.66h3v16.22h7.9v2.52H230.47z"/>
				</g>
				<g>
					<g>
						<g>
							<path d="M246.37,61.5v-1.83h0.77c0.08,0,0.15,0.02,0.22,0.05c0.07,0.03,0.12,0.08,0.17,0.13c0.05,0.05,0.09,0.12,0.11,0.18
								c0.03,0.07,0.04,0.14,0.04,0.21c0,0.07-0.01,0.13-0.03,0.19c-0.02,0.06-0.05,0.12-0.08,0.16c-0.04,0.05-0.08,0.09-0.13,0.12
								c-0.05,0.03-0.1,0.06-0.17,0.07l0.45,0.7h-0.2l-0.43-0.67h-0.54v0.67H246.37z M246.55,60.66h0.6c0.05,0,0.1-0.01,0.15-0.03
								c0.04-0.02,0.08-0.05,0.11-0.09c0.03-0.04,0.05-0.08,0.07-0.13c0.02-0.05,0.03-0.1,0.03-0.16c0-0.06-0.01-0.11-0.03-0.16
								c-0.02-0.05-0.05-0.09-0.08-0.13c-0.03-0.04-0.07-0.07-0.12-0.09c-0.05-0.02-0.09-0.03-0.14-0.03h-0.58V60.66z"/>
							<path d="M247.81,61.54h-0.31l-0.43-0.67h-0.47v0.67h-0.27v-1.92h0.82c0.09,0,0.17,0.02,0.24,0.06
								c0.07,0.04,0.13,0.08,0.18,0.14c0.05,0.06,0.09,0.12,0.12,0.2c0.03,0.07,0.04,0.15,0.04,0.22c0,0.07-0.01,0.14-0.03,0.21
								c-0.02,0.07-0.05,0.12-0.09,0.18c-0.04,0.06-0.09,0.1-0.14,0.14c-0.03,0.02-0.07,0.04-0.12,0.06L247.81,61.54z M247.54,61.45
								h0.1l-0.44-0.69l0.06-0.01c0.06-0.01,0.11-0.03,0.15-0.06c0.05-0.03,0.08-0.07,0.12-0.11c0.03-0.04,0.06-0.1,0.08-0.15
								c0.02-0.06,0.03-0.11,0.03-0.18c0-0.06-0.01-0.13-0.04-0.19c-0.02-0.06-0.06-0.12-0.1-0.17c-0.04-0.05-0.1-0.09-0.16-0.12
								c-0.06-0.03-0.12-0.04-0.2-0.04h-0.73v1.73h0.09v-0.67h0.61L247.54,61.45z M247.15,60.71h-0.64v-0.92h0.63
								c0.06,0,0.11,0.01,0.16,0.04c0.05,0.03,0.1,0.06,0.13,0.1c0.04,0.04,0.06,0.09,0.09,0.14c0.02,0.06,0.03,0.11,0.03,0.18
								c0,0.06-0.01,0.11-0.03,0.17c-0.02,0.05-0.04,0.1-0.08,0.15c-0.04,0.05-0.08,0.08-0.13,0.11
								C247.26,60.7,247.21,60.71,247.15,60.71z M246.6,60.62h0.55c0.05,0,0.09-0.01,0.13-0.03c0.04-0.02,0.07-0.05,0.1-0.08
								c0.03-0.04,0.05-0.08,0.06-0.12c0.02-0.05,0.02-0.09,0.02-0.14c0-0.05-0.01-0.1-0.03-0.14c-0.02-0.05-0.04-0.09-0.07-0.12
								c-0.03-0.03-0.06-0.06-0.1-0.08c-0.04-0.02-0.08-0.03-0.12-0.03h-0.54V60.62z"/>
						</g>
					</g>
					<g>
						<path d="M246.93,62.66c-1.14,0-2.07-0.93-2.07-2.07c0-1.14,0.93-2.07,2.07-2.07c1.14,0,2.07,0.93,2.07,2.07
							C249,61.73,248.07,62.66,246.93,62.66z M246.93,58.87c-0.95,0-1.72,0.77-1.72,1.72c0,0.95,0.77,1.71,1.72,1.71
							c0.95,0,1.72-0.77,1.72-1.71C248.64,59.64,247.87,58.87,246.93,58.87z"/>
					</g>
				</g>
			</g>
		</g>
		<g>
			<path d="M1,62.86h6.65c4.61,0,7.1,2.52,7.1,5.77c0,3.28-2.49,5.77-7.1,5.77H3.97v6.99H1V62.86z M3.97,65.35v6.57h3.68
				c2.81,0,4.13-1.38,4.13-3.28c0-1.85-1.32-3.28-4.13-3.28H3.97z"/>
			<path d="M26.09,62.59c5.09,0,9.4,4.11,9.4,9.53c0,5.43-4.13,9.53-9.4,9.53c-5.24,0-9.38-4.11-9.38-9.53
				C16.71,66.7,20.84,62.59,26.09,62.59z M26.09,79.17c3.66,0,6.44-2.99,6.44-7.05c0-3.81-2.68-7.05-6.44-7.05
				c-3.73,0-6.41,3.23-6.41,7.05C19.68,76.18,22.35,79.17,26.09,79.17z"/>
			<path d="M44.87,73.88h-3.26v7.52h-2.97V62.86h5.75c4.48,0,6.94,2.52,6.94,5.51c0,2.17-1.24,4.03-3.55,4.93l4.71,8.1h-3.36
				L44.87,73.88z M41.61,65.35v6.04h2.78c2.7,0,3.97-1.22,3.97-3.02c0-1.77-1.27-3.02-3.97-3.02H41.61z"/>
		</g>
	</g>
</g>
</svg>
