<?xml version="1.0" encoding="utf-8"?>
<!-- Generator: Adobe Illustrator 25.4.1, SVG Export Plug-In . SVG Version: 6.00 Build 0)  -->
<svg version="1.1" id="Capa_1" xmlns="http://www.w3.org/2000/svg" xmlns:xlink="http://www.w3.org/1999/xlink" x="0px" y="0px"
	 viewBox="0 0 250 100" style="enable-background:new 0 0 250 100;" xml:space="preserve">
<style type="text/css">
	.st0{fill:#070707;}
	.st1{fill:#0A0A0A;}
</style>
<g>
	<polygon class="st0" points="83.12,14.62 29.22,79.3 5.11,79.3 59.01,14.62 	"/>
	<polygon class="st0" points="115.73,14.62 61.84,79.3 37.73,79.3 91.63,14.62 	"/>
</g>
<g>
	<g>
		<path class="st1" d="M118,72.15V59.14c0-3.75,3.04-6.79,6.8-6.79h20.42v6.56h-19.36c-0.71,0-1.29,0.58-1.29,1.29v11.19
			c0,0.71,0.58,1.35,1.29,1.35h19.36v6.56h-20.3c-3.75,0-6.88-2.98-6.88-6.74L118,72.15z"/>
		<polygon class="st1" points="130.07,63.01 145.22,63.01 145.22,68.63 141.96,68.63 130.07,68.63 		"/>
	</g>
	<path class="st1" d="M88.79,59.14c0-3.75,3.04-6.79,6.79-6.79h20.15v6.56H96.64c-0.71,0-1.29,0.58-1.29,1.29v11.19
		c0,0.71,0.58,1.35,1.29,1.35h19.09v6.56H95.7c-3.75,0-6.91-3.39-6.91-7.15L88.79,59.14z"/>
	<g>
		<path class="st1" d="M184.57,72.15V59.14c0-3.75,3.04-6.79,6.8-6.79h20.42v6.56h-19.36c-0.71,0-1.29,0.58-1.29,1.29v11.19
			c0,0.71,0.58,1.35,1.29,1.35h19.36v6.56h-20.3c-3.75,0-6.89-2.98-6.89-6.74L184.57,72.15z"/>
		<polygon class="st1" points="196.64,63.01 211.78,63.01 211.78,68.63 208.56,68.63 196.64,68.63 		"/>
	</g>
	<path class="st1" d="M154.81,58.91V79.3h-6.56V52.35h18.92h7.55c3.75,0,6.8,3.04,6.8,6.79V79.3h-6.68V60.2
		c0-0.71-0.58-1.29-1.29-1.29h-5.39V79.3h-6.68V58.91H154.81z"/>
	<path class="st1" d="M230.36,69.77l-8.75,5.51v4.01h-6.79v-5.65c0.06-1.1,0.65-2.15,1.64-2.75l8.2-5.07l-8.2-5.07
		c-0.99-0.61-1.58-1.66-1.64-2.75v-5.65h6.79v4.01l8.8,5.51l8.75-5.51v-4.01h6.79V58c-0.06,1.1-0.65,2.15-1.64,2.75l-8.02,5.04
		l8.02,5.1c0.99,0.61,1.58,1.66,1.64,2.75v5.65h-6.79v-4.01L230.36,69.77z"/>
</g>
</svg>
