<?xml version="1.0" encoding="utf-8"?>
<!-- Generator: Adobe Illustrator 25.4.1, SVG Export Plug-In . SVG Version: 6.00 Build 0)  -->
<svg version="1.1" id="Capa_1" xmlns="http://www.w3.org/2000/svg" xmlns:xlink="http://www.w3.org/1999/xlink" x="0px" y="0px"
	 viewBox="0 0 250 100" style="enable-background:new 0 0 250 100;" xml:space="preserve">
<style type="text/css">
	.st0{fill:#111010;}
	.st1{fill:#020202;}
	.st2{clip-path:url(#SVGID_00000054252125439563067460000002312932816701581714_);fill:#FFFFFF;}
</style>
<g>
	<rect x="11.6" y="5.4" class="st0" width="226.8" height="89.1"/>
	<rect x="16.7" y="10.6" class="st1" width="216.5" height="78.9"/>
	<g>
		<defs>
			<rect id="SVGID_1_" x="16.2" y="10" width="217.7" height="80"/>
		</defs>
		<clipPath id="SVGID_00000053505676777374815040000014841346229382205317_">
			<use xlink:href="#SVGID_1_"  style="overflow:visible;"/>
		</clipPath>
		<path style="clip-path:url(#SVGID_00000053505676777374815040000014841346229382205317_);fill:#FFFFFF;" d="M213.5,33.6h-1.6
			l3.4-7.4h4.4L213.5,33.6L213.5,33.6z M38.3,73c-0.6,0-1.8-0.1-1.8-1.8v-5.3h-1.1v5.5c0,2.3,1.9,2.7,2.9,2.7c1,0,2.9-0.4,2.9-2.7
			v-5.5H40v5.3C40,72.9,38.9,73,38.3,73 M48.2,66.9c0.7,0,1.3,0.1,2.2,0.5v-1.1c-0.5-0.2-1.2-0.4-2.2-0.4c-2.3,0-2.8,1.4-2.8,2.4
			c0,1.4,0.7,2,2.6,2.2h0c1.2,0.1,1.6,0.3,1.6,1.2c0,0.8-0.4,1.5-1.9,1.5c-1.2,0-1.6-0.2-2.4-0.5v1.1c0.6,0.3,1.6,0.5,2.3,0.5
			c2.4,0,3-1.4,3-2.5c0-1.6-0.9-2.1-2.6-2.3c-1.1-0.1-1.7-0.2-1.7-1.1C46.5,67.5,46.8,66.9,48.2,66.9 M59.6,69.3h-3.4V67h3.7v-1.1
			h-4.8v8h4.8v-1.1h-3.7v-2.5h3.4V69.3z M66.5,74c2.7,0,3.4-1.7,3.4-4c0-2.3-0.8-4-3.4-4h-2.3v8H66.5z M65.4,67h1.2
			c1.7,0,2.2,1.2,2.2,2.9c0,1.7-0.5,2.9-2.2,2.9h-1.2V67z M79.8,74h2.7c2.1,0,2.8-1,2.8-2.3c0-0.8-0.3-1.5-1-1.9
			c0.5-0.4,0.8-1,0.8-1.6c0-1.2-0.6-2.2-2.6-2.2h-2.6V74z M83.7,68.1c0,0.6-0.2,1.1-1.2,1.1h-1.6V67h1.5
			C83.5,67,83.7,67.6,83.7,68.1 M80.9,70.3h1.6c1.1,0,1.5,0.4,1.5,1.3c0,0.6-0.2,1.3-1.5,1.3h-1.6V70.3z M94.6,65.9h-1.3l-2.1,3.8
			l-2.1-3.8h-1.3l2.9,4.7V74h1.1v-3.3L94.6,65.9z M104.4,70.9h1.4c2.1,0,2.8-1.2,2.8-2.5c0-1.3-0.7-2.5-2.8-2.5h-2.5v8h1.1V70.9z
			 M104.4,67h1.4c1.3,0,1.5,0.8,1.5,1.4c0,0.6-0.2,1.4-1.5,1.4h-1.4V67z M113.8,70.6h1.7l1.6,3.3h1.4c-0.6-1.1-1.3-2.4-1.9-3.5
			c1-0.4,1.3-1.1,1.3-2.2c0-1.4-0.6-2.3-2.7-2.3h-2.6v8h1.1V70.6z M113.8,67h1.6c1.2,0,1.3,0.6,1.3,1.3c0,0.7-0.2,1.3-1.3,1.3h-1.6
			V67z M128.5,70c0-2.1-0.4-4.2-3-4.2c-2.7,0-3.1,2.1-3.1,4.2c0,2.1,0.4,4.2,3.1,4.2C128.1,74.1,128.5,72,128.5,70 M127.3,70
			c0,1.7-0.2,3.1-1.9,3.1c-1.7,0-1.9-1.4-1.9-3.1c0-1.7,0.2-3.1,1.9-3.1C127.1,66.9,127.3,68.3,127.3,70 M137.2,69.3H134V67h3.6
			v-1.1h-4.7v8h1.1v-3.6h3.2V69.3z M146.3,69.3h-3.4V67h3.7v-1.1h-4.8v8h4.8v-1.1h-3.7v-2.5h3.4V69.3z M153.6,66.9
			c0.7,0,1.3,0.1,2.2,0.5v-1.1c-0.5-0.2-1.2-0.4-2.2-0.4c-2.3,0-2.8,1.4-2.8,2.4c0,1.4,0.7,2,2.6,2.2h0c1.2,0.1,1.6,0.3,1.6,1.2
			c0,0.8-0.4,1.5-1.9,1.5c-1.2,0-1.6-0.2-2.4-0.5v1.1c0.6,0.3,1.6,0.5,2.3,0.5c2.4,0,3-1.4,3-2.5c0-1.6-0.9-2.1-2.6-2.3
			c-1.1-0.1-1.7-0.2-1.7-1.1C151.9,67.5,152.2,66.9,153.6,66.9 M163,66.9c0.7,0,1.3,0.1,2.2,0.5v-1.1c-0.5-0.2-1.2-0.4-2.2-0.4
			c-2.3,0-2.8,1.4-2.8,2.4c0,1.4,0.7,2,2.6,2.2h0c1.2,0.1,1.6,0.3,1.6,1.2c0,0.8-0.4,1.5-1.9,1.5c-1.2,0-1.6-0.2-2.4-0.5v1.1
			c0.6,0.3,1.6,0.5,2.3,0.5c2.4,0,3-1.4,3-2.5c0-1.6-0.9-2.1-2.6-2.3c-1.1-0.1-1.7-0.2-1.7-1.1C161.4,67.5,161.7,66.9,163,66.9
			 M171.3,65.9h-1.1v8h1.1V65.9z M182,70c0-2.1-0.4-4.2-3.1-4.2c-2.7,0-3,2.1-3,4.2c0,2.1,0.4,4.2,3,4.2C181.6,74.1,182,72,182,70
			 M180.8,70c0,1.7-0.2,3.1-1.9,3.1c-1.7,0-1.9-1.4-1.9-3.1c0-1.7,0.2-3.1,1.9-3.1C180.6,66.9,180.8,68.3,180.8,70 M192,74v-8h-1.1
			l0,5.8l-3.7-5.8h-0.9v8h1.1l0-5.8l3.7,5.8H192z M197.3,74l0.7-2.1h2.7l0.7,2.1h1.2l-2.9-8.2h-0.8l-2.9,8.2H197.3z M200.3,70.8h-2
			l1-3.2L200.3,70.8z M207.7,65.9h-1.1v8h4.6v-1.1h-3.5V65.9z M217.9,66.9c0.7,0,1.3,0.1,2.2,0.5v-1.1c-0.5-0.2-1.2-0.4-2.2-0.4
			c-2.3,0-2.8,1.4-2.8,2.4c0,1.4,0.7,2,2.6,2.2h0c1.2,0.1,1.6,0.3,1.6,1.2c0,0.8-0.4,1.5-1.9,1.5c-1.2,0-1.6-0.2-2.4-0.5v1.1
			c0.6,0.3,1.6,0.5,2.3,0.5c2.4,0,3-1.4,3-2.5c0-1.6-0.9-2.1-2.6-2.3c-1.1-0.1-1.7-0.2-1.7-1.1C216.3,67.5,216.5,66.9,217.9,66.9
			 M27,25.9v3.6h8.4v27.5h3.8V29.5h8.4v-3.6H27z M73.5,57.1h-4.7l-6.6-13.2c-0.4,0-0.7,0-1.1,0h-6.2v13.2H51V25.9h10
			c3.9,0,6.5,0.8,8.2,2.4c1.7,1.6,2.3,3.9,2.3,6.5c0,3.9-1.4,7.1-5.4,8.3L73.5,57.1z M61.6,29.5h-6.8v10.7h6.8
			c5.2-0.1,5.6-2.2,5.7-5.4C67.3,31.7,66.9,29.6,61.6,29.5 M94.5,29.5v-3.6H76.2v31.1h18.6v-3.6H80.1V42.3h13.4v-0.5v-3.1H80.1v-9.2
			H94.5z M108.8,39.1c-2.4-0.3-4.2-0.6-5.4-1.2c-1.1-0.6-1.7-1.5-1.7-3.5c0.1-3,1-5.3,6.8-5.4c3,0,5.1,0.4,7.8,1.5l0.7,0.3v-3.8
			l-0.3-0.1c-1.7-0.8-4.3-1.5-8.1-1.5c-4.3,0-7.1,1.3-8.7,3.1c-1.6,1.8-2,4-2,5.8c-0.1,5.1,3,7.5,10.2,8.3c2.5,0.3,4.2,0.7,5.2,1.4
			c1,0.7,1.4,1.7,1.4,3.7c-0.1,3.4-1.5,6-7.7,6c-4.2,0-6.4-1-8.4-1.7l-0.6-0.2v3.6l0.3,0.1c2,0.9,5.8,1.6,8.7,1.7h0
			c4.6,0,7.6-1.3,9.4-3.2c1.8-1.9,2.4-4.3,2.4-6.4C118.7,41.9,114.8,39.8,108.8,39.1 M233.8,90H16.2V10h217.7V90z M232.7,11.1H17.3
			v77.7h215.4V11.1z M167.5,37.4c-1.2-1-2.9-1.6-5.1-1.6c-2,0-4.1,0.8-6.2,2.2c-1.1-1.5-3-2.2-5.7-2.2c-1.6,0-3.3,0.5-5,1.5
			l-0.4-1.1h-2.8v20.5h3.2V39.8c1.5-0.8,2.8-1.1,5-1.1c2.2,0,3.6,0.7,3.6,3.2v14.8h3.2V39.8c1.4-0.7,2.7-1.1,5-1.1
			c2.3,0,3.6,0.7,3.6,3.2v14.8h3.2V42C169.3,40,168.7,38.4,167.5,37.4 M198.6,37.4c-1.2-1-2.9-1.6-5-1.6c-2,0-4.1,0.8-6.2,2.2
			c-1.1-1.5-3-2.2-5.7-2.2c-1.6,0-3.3,0.5-5,1.5l-0.4-1.1h-2.8v20.5h3.2V39.8c1.5-0.8,2.8-1.1,5-1.1c2.2,0,3.6,0.7,3.6,3.2v14.8h3.2
			V39.8c1.4-0.7,2.7-1.1,5-1.1c2.3,0,3.6,0.7,3.6,3.2v14.8h3.2V42C200.4,40,199.8,38.4,198.6,37.4 M138.3,47.1h-13.1
			c0.1,4.8,2.7,6.9,5.9,7.1c1.8,0,3.3-0.1,5.1-1.7l1.7,2.3c-1.9,1.7-4,2.3-6.8,2.3c-5.7,0-9.2-4.2-9.2-10.4v-1.1
			c0-7.5,4.9-10,8.2-10C135.8,35.7,138.7,39.9,138.3,47.1 M130.4,38.4c-3.4,0-5.2,2.9-5.2,6.1h9.9C135.5,42,134.2,38.4,130.4,38.4
			 M220.5,47.1h-13.1c0.1,4.8,2.7,6.9,5.9,7.1c1.8,0,3.3-0.1,5.1-1.7l1.7,2.3c-1.9,1.7-4,2.3-6.8,2.3c-5.7,0-9.2-4.2-9.2-10.4v-1.1
			c0-7.5,4.9-10,8.2-10C218.1,35.7,221,39.9,220.5,47.1 M212.6,38.4c-3.4,0-5.2,2.9-5.2,6.1h9.9C217.7,42,216.5,38.4,212.6,38.4
			 M223.7,60.3h-0.5l-0.8-1.2H222v1.2h-0.4v-2.9h1.1c0.3,0,0.6,0.1,0.8,0.2c0.2,0.1,0.2,0.3,0.2,0.6c0,0.3-0.1,0.5-0.2,0.6
			c-0.1,0.1-0.3,0.2-0.5,0.2L223.7,60.3z M222.7,58.7c0.1,0,0.2,0,0.2-0.1c0.1,0,0.1-0.1,0.2-0.1c0-0.1,0.1-0.1,0.1-0.3
			c0-0.1,0-0.2-0.1-0.2c0-0.1-0.1-0.1-0.1-0.1c-0.1,0-0.1-0.1-0.2-0.1c-0.1,0-0.2,0-0.2,0H222v0.9h0.5
			C222.5,58.7,222.6,58.7,222.7,58.7 M224.9,58.9c0,1.4-1.1,2.5-2.5,2.5c-1.4,0-2.5-1.1-2.5-2.5c0-1.4,1.1-2.5,2.5-2.5
			C223.8,56.4,224.9,57.5,224.9,58.9 M224.5,58.9c0-1.1-0.9-2.1-2-2.1c-1.1,0-2.1,0.9-2.1,2.1c0,1.1,0.9,2,2.1,2
			C223.6,60.9,224.5,60,224.5,58.9"/>
	</g>
</g>
</svg>
