<?xml version="1.0" encoding="utf-8"?>
<!-- Generator: Adobe Illustrator 25.4.1, SVG Export Plug-In . SVG Version: 6.00 Build 0)  -->
<svg version="1.1" id="Capa_1" xmlns="http://www.w3.org/2000/svg" xmlns:xlink="http://www.w3.org/1999/xlink" x="0px" y="0px"
	 viewBox="0 0 100 100" style="enable-background:new 0 0 100 100;" xml:space="preserve">
<g>
	<g>
		<g>
			<g>
				<path d="M96.64,51.38l-0.41,0.43c-1.38,1.58-9.39,8.16-10.56,8.16c-2.07,0,2.76-8.06,2.76-9.78c0-1.58-1.73-3.6-3.11-3.6
					c-2.97,0-8.98,4.75-11.81,7.34c-1.17,1.15-1.59,1.29-1.04,0.43c1.52-2.66,3.87-6.83,3.87-9.78c0-3.81-4.07-3.38-4.28-3.31
					c-0.62,0.22-0.28,0.65-0.83,2.66c-0.32,1-0.76,2.32-1.3,3.82c-0.37,0.94-0.68,1.41-0.68,1.41c-1.25,1.82-2.64,3.45-4.49,3.93
					c0.33-1.1,0.51-2.16,0.51-3.11c0-2.35-1.06-3.39-2.19-3.39c-2.25,0-4.82,3.85-3.07,7.83c-0.63,2.35-3.76,6.39-5.45,6.39
					c-0.69,0-0.88-0.78-0.88-1.76c0-3.52,3.88-11.74,9.02-13.44c1.38-0.39,1.88,0.2,1.88-1.37c0-2.02-1.32-3.33-3.32-3.33
					c-5.14,0-11.68,8.64-12.12,15.63c-2.32,2.05-5.34,3.78-8.02,3.78c-2.75,0-4-1.82-4-4.45c2.66-0.9,4.73-1.8,6.97-3.53
					c3.32-2.56,4.77-5.19,4.77-7.3c0-2.48-2.02-4.22-4.99-4.22c-5.41,0-11.84,7.4-12.2,14.45c-6.06,2.56-15.83,6.36-20.94,5.04
					c-1.44-0.68-1.69-1.81-1.17-3.99c3.46-14.55,21.15-31.3,21.76-33.88c0.71-2.97-2.61-5.31-4.1-5.51
					c-4.3-0.63-20.16,24.33-24.13,36.34c-0.7,2.13-1.4,6.24-0.86,8.99c0,0,0.89,5.84,9.22,4.33c4.54-0.82,12.99-3.98,20.57-8
					c0.87,3.01,3.3,5.12,7.37,5.12c4.43,0,7.63-2.4,9.87-4.7c0.48,2.85,2.22,4.73,5.06,4.73c2.38,0,4.7-1.57,6.57-3.72
					c0,0,1.29-1.6,1.44-1.83c0.65-1,1.23-2.06,1.7-3.13c1.58-0.36,2.85-1.06,3.88-1.97c-1.53,3.93-2.95,7.42-2.95,7.65
					c0,1.29,2.14,2.88,3.18,2.88c1.73,0,10.43-9.57,13.05-10.5c0.21-0.07,0.28,0.07,0.14,0.36c-1.1,2.09-1.93,4.68-1.93,6.55
					c0,2.23,1.45,3.88,3.52,3.88c3.18,0,10.29-6.29,14.36-11.03l0.55-0.72C98.44,51.38,96.92,51.09,96.64,51.38z M43.94,44.96
					c0.51,0,0.79,0.23,0.79,0.75c0,1.58-2.89,5.19-7.23,7C38.73,48.58,42.2,44.96,43.94,44.96z"/>
				<g>
					<g>
						<path d="M68.26,31.99c1.18,0.19,1.95,1.3,2.45,2.01c-4.67,4.28-7.04,5.38-8.39,5.16c-0.38-0.06-0.68-0.23-0.92-0.5
							C61.96,36.87,65.9,31.61,68.26,31.99z"/>
					</g>
				</g>
			</g>
		</g>
	</g>
	<g>
		<path d="M29.54,76.76c-1.28,0-2.16-0.29-2.72-0.91c-0.54-0.59-0.74-1.46-0.74-2.78V71.4c0-1.32,0.22-2.18,0.76-2.76
			c0.56-0.63,1.44-0.93,2.72-0.93h0.09c0.85,0,1.87,0.22,2.56,0.6c0.2,0.11,0.25,0.23,0.16,0.49l-0.43,1.14
			c-0.05,0.14-0.12,0.2-0.22,0.2c-0.08,0-0.17-0.03-0.25-0.07c-0.56-0.29-1.12-0.46-1.72-0.46h-0.05c-0.57,0-0.93,0.15-1.12,0.49
			c-0.2,0.34-0.25,0.84-0.25,1.62v0.97c0,0.83,0.07,1.39,0.37,1.74c0.24,0.27,0.61,0.42,1.23,0.42h0.05c0.47,0,1.18-0.18,1.62-0.38
			c0.07-0.03,0.13-0.05,0.21-0.05c0.1,0,0.18,0.07,0.24,0.29l0.22,0.98c0.03,0.11,0.04,0.19,0.04,0.26c0,0.16-0.08,0.26-0.39,0.38
			c-0.6,0.24-1.46,0.44-2.22,0.44H29.54z"/>
		<path d="M34.47,69.45c-0.76,0-1.06-0.41-1.06-1.13v-0.07c0-0.72,0.3-1.13,1.06-1.13h0.16c0.76,0,1.06,0.41,1.06,1.13v0.07
			c0,0.72-0.3,1.13-1.06,1.13H34.47z M35.59,76.24c0,0.26-0.09,0.39-0.44,0.39h-1.2c-0.35,0-0.44-0.14-0.44-0.39v-5.88
			c0-0.26,0.09-0.39,0.44-0.39h1.2c0.35,0,0.44,0.14,0.44,0.39V76.24z"/>
		<path d="M40.38,70.36c0-0.26,0.09-0.39,0.44-0.39h1.2c0.35,0,0.44,0.14,0.44,0.39v4.03c0,0.86-0.18,1.42-0.59,1.8
			c-0.47,0.44-1.19,0.57-2.22,0.57c-1.03,0-1.75-0.14-2.22-0.57c-0.4-0.38-0.59-0.94-0.59-1.8v-4.03c0-0.26,0.09-0.39,0.44-0.39h1.2
			c0.35,0,0.44,0.14,0.44,0.39v3.84c0,0.33,0.04,0.5,0.14,0.63c0.1,0.12,0.31,0.18,0.57,0.18c0.26,0,0.47-0.05,0.57-0.18
			c0.1-0.12,0.14-0.31,0.14-0.63V70.36z"/>
		<path d="M47.29,70.09v-2.27c0-0.26,0.09-0.39,0.44-0.39h1.21c0.35,0,0.43,0.14,0.43,0.39v6.19c0,1.07-0.17,1.61-0.51,1.99
			c-0.47,0.53-1.1,0.76-2.36,0.76h-0.22c-1.11,0-1.67-0.22-2.1-0.61c-0.48-0.44-0.68-1.21-0.68-2.3v-1.09c0-1.12,0.16-1.8,0.65-2.29
			c0.37-0.37,0.99-0.63,1.74-0.63h0.16c0.51,0,0.93,0.1,1.21,0.24H47.29z M47.29,72.5c0-0.41-0.05-0.59-0.16-0.72
			c-0.1-0.14-0.31-0.22-0.61-0.22h-0.13c-0.27,0-0.48,0.08-0.6,0.23c-0.17,0.2-0.18,0.53-0.18,1.28v0.6c0,0.68,0.03,1.01,0.2,1.2
			c0.1,0.12,0.31,0.19,0.6,0.19h0.14c0.25,0,0.43-0.05,0.56-0.18c0.13-0.14,0.18-0.35,0.18-0.65V72.5z"/>
		<path d="M54.37,76.08c-0.26,0.41-0.89,0.68-1.71,0.68h-0.2c-1.31,0-2.12-0.72-2.12-2.1v-0.15c0-1.52,0.82-2.01,2.57-2.01h0.09
			c0.34,0,0.72,0.03,0.91,0.05v-0.29c0-0.27-0.04-0.46-0.22-0.6c-0.16-0.11-0.35-0.15-0.78-0.15c-0.46,0-1.01,0.1-1.52,0.23
			c-0.33,0.08-0.4-0.03-0.44-0.26l-0.1-0.72c-0.01-0.1-0.03-0.22-0.03-0.27c0-0.18,0.05-0.27,0.31-0.35c0.55-0.16,1.35-0.3,2.23-0.3
			c1.05,0,1.72,0.22,2.14,0.67c0.34,0.37,0.5,0.9,0.5,1.7v4.04c0,0.27-0.1,0.38-0.44,0.38h-0.61c-0.3,0-0.4-0.07-0.48-0.31
			l-0.08-0.25H54.37z M53.92,73.96c-0.14-0.03-0.44-0.04-0.63-0.04h-0.14c-0.6,0-0.85,0.11-0.85,0.61v0.05
			c0,0.5,0.27,0.63,0.73,0.63h0.09c0.3,0,0.5-0.09,0.61-0.2c0.14-0.14,0.18-0.3,0.18-0.67V73.96z"/>
		<path d="M60.83,70.09v-2.27c0-0.26,0.09-0.39,0.44-0.39h1.21c0.35,0,0.43,0.14,0.43,0.39v6.19c0,1.07-0.17,1.61-0.51,1.99
			c-0.47,0.53-1.1,0.76-2.36,0.76h-0.22c-1.11,0-1.67-0.22-2.1-0.61c-0.48-0.44-0.68-1.21-0.68-2.3v-1.09c0-1.12,0.16-1.8,0.65-2.29
			c0.37-0.37,0.99-0.63,1.74-0.63h0.16c0.51,0,0.93,0.1,1.21,0.24H60.83z M60.83,72.5c0-0.41-0.05-0.59-0.16-0.72
			c-0.1-0.14-0.31-0.22-0.61-0.22h-0.13c-0.27,0-0.48,0.08-0.6,0.23c-0.17,0.2-0.18,0.53-0.18,1.28v0.6c0,0.68,0.03,1.01,0.2,1.2
			c0.1,0.12,0.31,0.19,0.6,0.19h0.14c0.25,0,0.43-0.05,0.56-0.18c0.13-0.14,0.18-0.35,0.18-0.65V72.5z"/>
	</g>
	<g>
		<path d="M29.73,80.58v-2.27c0-0.26,0.09-0.39,0.44-0.39h1.21c0.35,0,0.43,0.14,0.43,0.39v6.19c0,1.07-0.17,1.61-0.51,1.99
			c-0.47,0.53-1.1,0.76-2.36,0.76h-0.22c-1.11,0-1.67-0.22-2.1-0.61c-0.48-0.44-0.68-1.21-0.68-2.3v-1.09c0-1.12,0.16-1.8,0.65-2.29
			c0.37-0.37,0.99-0.63,1.74-0.63h0.16c0.51,0,0.93,0.1,1.21,0.24H29.73z M29.73,82.99c0-0.41-0.05-0.59-0.16-0.72
			c-0.1-0.14-0.31-0.22-0.61-0.22h-0.13c-0.27,0-0.48,0.08-0.6,0.23c-0.17,0.2-0.18,0.53-0.18,1.28v0.6c0,0.68,0.03,1.01,0.2,1.2
			c0.1,0.12,0.31,0.19,0.6,0.19h0.14c0.25,0,0.43-0.05,0.56-0.18c0.13-0.14,0.18-0.35,0.18-0.65V82.99z"/>
		<path d="M36.31,85.5c0.42,0,1.06-0.1,1.38-0.18c0.07-0.01,0.16-0.04,0.25-0.04c0.12,0,0.21,0.1,0.24,0.23l0.1,0.68
			c0.03,0.14,0.05,0.27,0.05,0.37c0,0.18-0.07,0.27-0.34,0.37c-0.52,0.19-1.33,0.33-1.97,0.33h-0.25c-1.03,0-1.83-0.23-2.27-0.69
			c-0.52-0.54-0.65-1.24-0.65-2.34v-0.76c0-1.36,0.34-2.1,0.78-2.5c0.43-0.39,1.11-0.61,2.05-0.61h0.18c0.94,0,1.62,0.27,1.97,0.68
			c0.46,0.53,0.63,1.27,0.63,2.44v0.71c0,0.29-0.12,0.38-0.38,0.38h-3.13v0.11c0,0.64,0.3,0.84,1.21,0.84H36.31z M36.39,83.13
			c0.12,0,0.16-0.05,0.16-0.18v-0.22c0-0.27-0.04-0.48-0.13-0.63c-0.12-0.18-0.31-0.25-0.6-0.25h-0.12c-0.24,0-0.43,0.05-0.55,0.19
			c-0.13,0.15-0.2,0.38-0.2,0.73v0.34H36.39z"/>
		<path d="M43.99,86.71c0,0.33-0.16,0.42-0.46,0.42h-1.28c-0.31,0-0.46-0.1-0.46-0.42v-7.82c0-0.45,0.13-0.57,0.57-0.61
			c0.56-0.05,1.31-0.07,2.21-0.07h0.16c1.31,0,2.22,0.23,2.76,0.8c0.39,0.42,0.59,1.02,0.59,1.97v0.46c0,1.03-0.29,1.74-0.82,2.15
			c-0.6,0.46-1.46,0.65-2.64,0.65h-0.63V86.71z M44.67,80.04c-0.18,0-0.42,0.01-0.57,0.03c-0.08,0.01-0.1,0.07-0.1,0.16v2.15h0.68
			c0.5,0,0.8-0.08,0.97-0.23c0.17-0.15,0.24-0.42,0.24-0.8v-0.34c0-0.34-0.07-0.57-0.22-0.72c-0.16-0.16-0.42-0.24-0.81-0.24H44.67z
			"/>
		<path d="M50.71,81.2c0.31-0.53,0.74-0.73,1.46-0.73h0.52c0.27,0,0.38,0.07,0.38,0.38v0.99c0,0.3-0.09,0.38-0.35,0.38h-0.39
			c-0.5,0-0.81,0.1-0.99,0.29c-0.17,0.18-0.22,0.49-0.22,0.94v3.29c0,0.26-0.09,0.39-0.44,0.39h-1.2c-0.35,0-0.44-0.14-0.44-0.39
			v-5.89c0-0.27,0.1-0.38,0.44-0.38h0.63c0.3,0,0.4,0.07,0.47,0.31l0.1,0.42H50.71z"/>
		<path d="M54.84,79.95c-0.76,0-1.06-0.41-1.06-1.13v-0.07c0-0.72,0.3-1.13,1.06-1.13h0.16c0.76,0,1.06,0.41,1.06,1.13v0.07
			c0,0.72-0.3,1.13-1.06,1.13H54.84z M55.96,86.74c0,0.26-0.09,0.39-0.44,0.39h-1.2c-0.35,0-0.44-0.14-0.44-0.39v-5.88
			c0-0.26,0.09-0.39,0.44-0.39h1.2c0.35,0,0.44,0.14,0.44,0.39V86.74z"/>
		<path d="M62.96,86.74c0,0.26-0.09,0.39-0.44,0.39h-1.2c-0.35,0-0.44-0.14-0.44-0.39v-3.85c0-0.31-0.04-0.5-0.14-0.63
			c-0.1-0.12-0.31-0.18-0.57-0.18h-0.03c-0.26,0-0.47,0.05-0.57,0.18c-0.1,0.12-0.14,0.3-0.14,0.63v3.85c0,0.26-0.09,0.39-0.44,0.39
			h-1.2c-0.35,0-0.44-0.14-0.44-0.39v-5.89c0-0.27,0.1-0.38,0.44-0.38h0.61c0.3,0,0.4,0.05,0.48,0.31l0.08,0.26h0.04
			c0.42-0.46,1.02-0.69,1.79-0.69h0.05c0.76,0,1.28,0.16,1.72,0.63c0.42-0.41,1.04-0.63,1.78-0.63h0.05c0.77,0,1.32,0.19,1.66,0.56
			c0.35,0.38,0.48,0.88,0.48,1.8v4.04c0,0.26-0.09,0.39-0.44,0.39h-1.2c-0.35,0-0.44-0.14-0.44-0.39v-3.85
			c0-0.31-0.04-0.5-0.14-0.63c-0.1-0.12-0.31-0.18-0.57-0.18h-0.03c-0.26,0-0.47,0.05-0.57,0.18c-0.1,0.12-0.14,0.3-0.14,0.63V86.74
			z"/>
		<path d="M71,85.5c0.42,0,1.06-0.1,1.38-0.18c0.07-0.01,0.16-0.04,0.25-0.04c0.12,0,0.21,0.1,0.24,0.23l0.1,0.68
			c0.03,0.14,0.05,0.27,0.05,0.37c0,0.18-0.07,0.27-0.34,0.37c-0.52,0.19-1.33,0.33-1.97,0.33h-0.25c-1.03,0-1.83-0.23-2.27-0.69
			c-0.52-0.54-0.65-1.24-0.65-2.34v-0.76c0-1.36,0.34-2.1,0.78-2.5c0.43-0.39,1.11-0.61,2.05-0.61h0.18c0.94,0,1.62,0.27,1.97,0.68
			c0.46,0.53,0.63,1.27,0.63,2.44v0.71c0,0.29-0.12,0.38-0.38,0.38h-3.13v0.11c0,0.64,0.3,0.84,1.21,0.84H71z M71.08,83.13
			c0.12,0,0.16-0.05,0.16-0.18v-0.22c0-0.27-0.04-0.48-0.13-0.63c-0.12-0.18-0.31-0.25-0.6-0.25h-0.12c-0.24,0-0.43,0.05-0.55,0.19
			c-0.13,0.15-0.2,0.38-0.2,0.73v0.34H71.08z"/>
		<path d="M75.95,81.2c0.31-0.53,0.74-0.73,1.46-0.73h0.52c0.27,0,0.38,0.07,0.38,0.38v0.99c0,0.3-0.09,0.38-0.35,0.38h-0.39
			c-0.5,0-0.81,0.1-0.99,0.29c-0.17,0.18-0.22,0.49-0.22,0.94v3.29c0,0.26-0.09,0.39-0.44,0.39h-1.2c-0.35,0-0.44-0.14-0.44-0.39
			v-5.89c0-0.27,0.1-0.38,0.44-0.38h0.63c0.3,0,0.4,0.07,0.47,0.31l0.1,0.42H75.95z"/>
		<path d="M82.63,86.57c-0.26,0.41-0.89,0.68-1.71,0.68h-0.2c-1.31,0-2.12-0.72-2.12-2.1v-0.15c0-1.52,0.82-2.01,2.57-2.01h0.09
			c0.34,0,0.72,0.03,0.91,0.05v-0.29c0-0.27-0.04-0.46-0.22-0.6c-0.16-0.11-0.35-0.15-0.78-0.15c-0.46,0-1.01,0.1-1.52,0.23
			c-0.33,0.08-0.4-0.03-0.44-0.26l-0.1-0.72c-0.01-0.1-0.03-0.22-0.03-0.27c0-0.18,0.05-0.27,0.31-0.35c0.55-0.16,1.35-0.3,2.23-0.3
			c1.04,0,1.72,0.22,2.14,0.67c0.34,0.37,0.5,0.9,0.5,1.7v4.04c0,0.27-0.1,0.38-0.44,0.38h-0.61c-0.3,0-0.4-0.07-0.48-0.31
			l-0.08-0.25H82.63z M82.18,84.45c-0.14-0.03-0.44-0.04-0.63-0.04h-0.14c-0.6,0-0.85,0.11-0.85,0.61v0.05
			c0,0.5,0.27,0.63,0.73,0.63h0.09c0.3,0,0.5-0.09,0.61-0.2c0.14-0.14,0.18-0.3,0.18-0.67V84.45z"/>
	</g>
</g>
</svg>
