<?xml version="1.0" encoding="utf-8"?>
<!-- Generator: Adobe Illustrator 25.4.1, SVG Export Plug-In . SVG Version: 6.00 Build 0)  -->
<svg version="1.1" id="Capa_1" xmlns="http://www.w3.org/2000/svg" xmlns:xlink="http://www.w3.org/1999/xlink" x="0px" y="0px"
	 viewBox="0 0 250 100" style="enable-background:new 0 0 250 100;" xml:space="preserve">
<style type="text/css">
	.st0{fill:#070707;}
</style>
<g>
	<path class="st0" d="M202.78,18.23l-13.46,25.63c-0.29,0.56-1.12,0.56-1.41,0l-13.47-25.63c-0.14-0.26-0.4-0.42-0.69-0.42h-6.51
		c-0.44,0-0.72,0.47-0.52,0.86l21.21,39.7c0.29,0.55,1.08,0.55,1.38,0l21.21-39.7c0.21-0.39-0.07-0.86-0.51-0.86h-6.52
		C203.18,17.82,202.92,17.98,202.78,18.23"/>
	<path class="st0" d="M210.43,52.43l13.46-25.63c0.29-0.56,1.12-0.56,1.41,0l13.47,25.63c0.14,0.26,0.4,0.42,0.69,0.42h6.51
		c0.44,0,0.72-0.47,0.52-0.86l-21.21-39.7c-0.29-0.55-1.08-0.55-1.38,0l-21.21,39.7c-0.21,0.39,0.08,0.86,0.52,0.86h6.52
		C210.03,52.85,210.29,52.69,210.43,52.43"/>
	<path class="st0" d="M109.71,52.85l-12.14,0c-0.43,0-0.78-0.35-0.78-0.78V41.19c0-0.43,0.35-0.78,0.78-0.78h12.14
		c5.78,0,8.37,1.64,8.37,6.22S115.56,52.85,109.71,52.85 M97.58,23.74h11.97c4.41,0,6.66,1.89,6.66,5.36c0,3.49-2.24,5.37-6.66,5.37
		H97.58c-0.43,0-0.78-0.35-0.78-0.78v-9.17C96.8,24.09,97.15,23.74,97.58,23.74 M118.42,36.72c2.81-1.4,4.57-4.45,4.57-8.19
		c0-6.38-4.97-10.71-12-10.71H90.81c-0.43,0-0.78,0.35-0.78,0.78v39.42c0,0.43,0.35,0.78,0.78,0.78h19.3
		c9.66,0,14.75-4.16,14.75-12.29C124.85,38.55,118.42,36.72,118.42,36.72"/>
	<path class="st0" d="M151.12,52.85l-12.14,0c-0.43,0-0.78-0.35-0.78-0.78V41.19c0-0.43,0.35-0.78,0.78-0.78h12.14
		c5.78,0,8.37,1.64,8.37,6.22S156.96,52.85,151.12,52.85 M138.98,23.74h11.97c4.41,0,6.66,1.89,6.66,5.36
		c0,3.49-2.24,5.37-6.66,5.37h-11.97c-0.43,0-0.78-0.35-0.78-0.78v-9.17C138.2,24.09,138.55,23.74,138.98,23.74 M159.82,36.72
		c2.81-1.4,4.57-4.45,4.57-8.19c0-6.38-4.97-10.71-12-10.71h-20.18c-0.43,0-0.78,0.35-0.78,0.78v39.42c0,0.43,0.35,0.78,0.78,0.78
		h19.3c9.66,0,14.75-4.16,14.75-12.29C166.25,38.55,159.82,36.72,159.82,36.72"/>
	<g>
		<path class="st0" d="M3.43,78.89c0-3.86,2.21-6.07,5.1-6.07c2.23,0,3.61,0.97,4.42,2.72l-1.68,1c-0.46-1.1-1.32-1.89-2.73-1.89
			c-2,0-3.12,1.65-3.12,4.23c0,2.72,1.18,4.37,3.23,4.37c1.46,0,2.42-0.87,2.88-2.19l1.72,0.78c-0.7,1.94-2.13,3.19-4.59,3.19
			C5.61,85.02,3.43,82.86,3.43,78.89z"/>
		<path class="st0" d="M14.85,84.8v-8.42h1.8l0.16,1.37h0.02c0.51-0.79,1.4-1.54,2.97-1.54h0.08l0.17,1.8
			c-0.13-0.03-0.38-0.03-0.51-0.03c-1.29,0-2.19,0.59-2.73,1.49v5.34H14.85z"/>
		<path class="st0" d="M20.7,80.59c0-3.16,2.27-4.39,4.02-4.39c1.83,0,3.7,1.13,3.7,4.56v0.46h-5.77c0.06,1.48,1.02,2.19,2.29,2.19
			c1.05,0,1.95-0.44,2.61-1.08l0.78,1.29c-0.95,0.91-2.05,1.35-3.5,1.35C22.65,84.98,20.7,83.69,20.7,80.59z M26.62,79.78
			c-0.1-1.24-0.75-1.99-1.92-1.99c-0.97,0-1.84,0.64-2.03,1.99H26.62z"/>
		<path class="st0" d="M29.39,82.72c0-1.86,1.56-3,5.5-3.45v-0.25c0-0.78-0.46-1.21-1.46-1.21c-1.1,0-1.94,0.48-2.72,1.13
			l-1.06-1.19c0.89-0.83,2.1-1.54,4.04-1.54c2.18,0,3.12,1.08,3.12,3.05v5.55h-1.75l-0.16-1.08c-0.81,0.83-1.84,1.21-3.1,1.21
			C30.41,84.93,29.39,84.1,29.39,82.72z M34.89,82.45v-1.86c-2.72,0.38-3.59,0.97-3.59,1.81c0,0.67,0.46,1.02,1.19,1.02
			C33.49,83.42,34.29,83.05,34.89,82.45z"/>
		<path class="st0" d="M38.71,84.8v-8.42h1.8l0.16,1.19c0.62-0.7,1.64-1.37,3.04-1.37c1.53,0,2.48,0.8,2.48,2.46v6.13h-1.94v-5.56
			c0-0.94-0.38-1.41-1.29-1.41c-0.84,0-1.56,0.43-2.29,1.1v5.88H38.71z"/>
		<path class="st0" d="M47.62,80.64c0-2.92,1.43-4.43,3.37-4.43c1.14,0,2.07,0.4,2.65,1.13v-4.15l1.95-0.29v11.9h-1.8l-0.16-1.11
			c-0.57,0.72-1.43,1.24-2.69,1.24C49.04,84.93,47.62,83.56,47.62,80.64z M53.65,82.27v-3.43c-0.68-0.67-1.27-1.02-2.08-1.02
			c-1.19,0-1.99,0.91-1.99,2.8c0,1.73,0.76,2.7,2.02,2.7C52.41,83.32,53.06,82.88,53.65,82.27z"/>
		<path class="st0" d="M57.11,80.59c0-3.1,2.05-4.39,4.12-4.39c2.05,0,4.1,1.29,4.1,4.39c0,3.08-2.05,4.39-4.1,4.39
			C59.18,84.98,57.11,83.67,57.11,80.59z M63.39,80.61c0-1.56-0.68-2.73-2.16-2.73c-1.41,0-2.16,1.06-2.16,2.73
			c0,1.61,0.65,2.73,2.16,2.73C62.65,83.34,63.39,82.21,63.39,80.61z"/>
		<path class="st0" d="M70.31,78.92c0-3.96,2.46-6.1,5.31-6.1c2.83,0,5.29,2.15,5.29,6.1c0,3.96-2.46,6.1-5.29,6.1
			C72.77,85.02,70.31,82.88,70.31,78.92z M78.94,78.92c0-2.67-1.34-4.28-3.32-4.28c-1.99,0-3.32,1.61-3.32,4.28s1.34,4.32,3.32,4.32
			C77.6,83.24,78.94,81.59,78.94,78.92z"/>
		<path class="st0" d="M82.58,88.12V76.38h1.8l0.16,1.1c0.57-0.7,1.43-1.27,2.69-1.27c1.92,0,3.34,1.45,3.34,4.37
			c0,2.92-1.43,4.35-3.37,4.35c-1.14,0-2.02-0.35-2.65-1.05v3.96L82.58,88.12z M88.6,80.59c0-1.75-0.76-2.72-2.02-2.72
			c-0.81,0-1.46,0.44-2.05,1.05v3.45c0.68,0.67,1.27,1.02,2.08,1.02C87.82,83.39,88.6,82.55,88.6,80.59z"/>
		<path class="st0" d="M91.61,80.59c0-3.1,2.05-4.39,4.12-4.39c2.05,0,4.1,1.29,4.1,4.39c0,3.08-2.05,4.39-4.1,4.39
			C93.68,84.98,91.61,83.67,91.61,80.59z M97.89,80.61c0-1.56-0.68-2.73-2.16-2.73c-1.41,0-2.16,1.06-2.16,2.73
			c0,1.61,0.65,2.73,2.16,2.73C97.14,83.34,97.89,82.21,97.89,80.61z"/>
		<path class="st0" d="M101.35,84.8v-8.42h1.8l0.16,1.37h0.02c0.51-0.79,1.4-1.54,2.97-1.54h0.08l0.17,1.8
			c-0.13-0.03-0.38-0.03-0.51-0.03c-1.29,0-2.19,0.59-2.73,1.49v5.34H101.35z"/>
		<path class="st0" d="M108.32,82.48v-4.56h-1.43v-1.54h1.43v-2.81l1.94-0.29v3.1h2.18v1.54h-2.18v4.26c0,0.91,0.38,1.19,1.18,1.19
			c0.32,0,0.62-0.06,0.86-0.13l0.16,1.54c-0.24,0.05-1.02,0.13-1.54,0.13C109.13,84.91,108.32,84.31,108.32,82.48z"/>
		<path class="st0" d="M113.77,82.51v-6.13h1.95v5.61c0,0.89,0.37,1.33,1.27,1.33c0.84,0,1.56-0.44,2.29-1.11v-5.83h1.95v8.42h-1.8
			l-0.16-1.18c-0.62,0.67-1.64,1.35-3.02,1.35C114.72,84.98,113.77,84.18,113.77,82.51z"/>
		<path class="st0" d="M123.23,84.8v-8.42h1.8l0.16,1.19c0.62-0.7,1.64-1.37,3.04-1.37c1.53,0,2.48,0.8,2.48,2.46v6.13h-1.94v-5.56
			c0-0.94-0.38-1.41-1.29-1.41c-0.84,0-1.56,0.43-2.29,1.1v5.88H123.23z"/>
		<path class="st0" d="M132.54,74.09c0-0.59,0.4-1.03,1.11-1.03c0.73,0,1.14,0.44,1.14,1.03c0,0.59-0.41,1.03-1.14,1.03
			C132.94,75.12,132.54,74.68,132.54,74.09z M132.7,84.8v-8.42h1.94v8.42H132.7z"/>
		<path class="st0" d="M136.26,80.64c0-2.92,1.43-4.43,3.37-4.43c1.14,0,2.07,0.4,2.65,1.13v-4.15l1.95-0.29v11.9h-1.8l-0.16-1.11
			c-0.57,0.72-1.43,1.24-2.69,1.24C137.68,84.93,136.26,83.56,136.26,80.64z M142.29,82.27v-3.43c-0.68-0.67-1.27-1.02-2.08-1.02
			c-1.19,0-1.99,0.91-1.99,2.8c0,1.73,0.76,2.7,2.02,2.7C141.05,83.32,141.7,82.88,142.29,82.27z"/>
		<path class="st0" d="M145.69,82.72c0-1.86,1.56-3,5.5-3.45v-0.25c0-0.78-0.46-1.21-1.46-1.21c-1.1,0-1.94,0.48-2.72,1.13
			l-1.06-1.19c0.89-0.83,2.1-1.54,4.04-1.54c2.18,0,3.12,1.08,3.12,3.05v5.55h-1.75l-0.16-1.08c-0.81,0.83-1.84,1.21-3.1,1.21
			C146.71,84.93,145.69,84.1,145.69,82.72z M151.19,82.45v-1.86c-2.72,0.38-3.59,0.97-3.59,1.81c0,0.67,0.46,1.02,1.19,1.02
			C149.79,83.42,150.58,83.05,151.19,82.45z"/>
		<path class="st0" d="M154.54,80.64c0-2.92,1.43-4.43,3.37-4.43c1.14,0,2.07,0.4,2.65,1.13v-4.15l1.95-0.29v11.9h-1.8l-0.16-1.11
			c-0.57,0.72-1.43,1.24-2.69,1.24C155.96,84.93,154.54,83.56,154.54,80.64z M160.57,82.27v-3.43c-0.68-0.67-1.27-1.02-2.08-1.02
			c-1.19,0-1.99,0.91-1.99,2.8c0,1.73,0.76,2.7,2.02,2.7C159.33,83.32,159.98,82.88,160.57,82.27z"/>
		<path class="st0" d="M164.03,80.59c0-3.16,2.27-4.39,4.02-4.39c1.83,0,3.7,1.13,3.7,4.56v0.46h-5.77
			c0.06,1.48,1.02,2.19,2.29,2.19c1.05,0,1.95-0.44,2.61-1.08l0.78,1.29c-0.95,0.91-2.05,1.35-3.5,1.35
			C165.99,84.98,164.03,83.69,164.03,80.59z M169.96,79.78c-0.1-1.24-0.75-1.99-1.92-1.99c-0.97,0-1.84,0.64-2.03,1.99H169.96z"/>
		<path class="st0" d="M172.7,83.64l0.75-1.32c0.76,0.65,1.81,1.15,2.91,1.15c1.05,0,1.68-0.33,1.68-0.92
			c0-0.68-0.49-0.92-1.89-1.21c-1.78-0.37-3.15-0.84-3.15-2.65c0-1.49,1.24-2.48,3.1-2.48c1.51,0,2.53,0.43,3.42,1.07l-0.68,1.38
			c-0.79-0.57-1.68-0.91-2.59-0.91c-0.95,0-1.41,0.35-1.41,0.86c0,0.56,0.46,0.81,1.72,1.08c1.89,0.38,3.34,0.83,3.34,2.61
			c0,1.84-1.61,2.67-3.54,2.67C174.72,84.96,173.51,84.36,172.7,83.64z"/>
	</g>
</g>
</svg>
