<?xml version="1.0" encoding="utf-8"?>
<!-- Generator: Adobe Illustrator 25.4.1, SVG Export Plug-In . SVG Version: 6.00 Build 0)  -->
<svg version="1.1" id="Capa_1" xmlns="http://www.w3.org/2000/svg" xmlns:xlink="http://www.w3.org/1999/xlink" x="0px" y="0px"
	 viewBox="0 0 250 100" style="enable-background:new 0 0 250 100;" xml:space="preserve">
<style type="text/css">
	.st0{fill:#1A171B;}
	.st1{fill:#FFFFFF;}
	.st2{fill:#050505;}
	.st3{fill:none;}
</style>
<g>
	<rect id="XMLID_308_" x="5.2" y="13.6" class="st0" width="239.6" height="72.8"/>
	<path class="st1" d="M217.4,41.8h-1.6l3.5-7.6h4.5L217.4,41.8L217.4,41.8z M25.5,33.9v3.7h8.7V66h3.9V37.6h8.7v-3.7H25.5z M73.3,66
		h-4.9l-6.8-13.6c-0.4,0-0.7,0-1.1,0h-6.4V66h-4v-32h10.3c4,0,6.7,0.9,8.4,2.5c1.7,1.6,2.3,4,2.3,6.7c0,4-1.5,7.3-5.5,8.6L73.3,66z
		 M61.1,37.6h-7v11h7c5.4-0.1,5.8-2.3,5.9-5.5C66.9,39.9,66.5,37.7,61.1,37.6 M94.9,37.6v-3.7H76.1v32h19.2v-3.7H80.1V50.8h13.8
		v-0.5v-3.2H80.1v-9.5H94.9z M109.6,47.5c-2.5-0.3-4.3-0.6-5.5-1.2c-1.1-0.7-1.7-1.6-1.7-3.6c0.1-3.1,1-5.5,7-5.6
		c3.1,0,5.2,0.4,8,1.6l0.7,0.3v-3.9l-0.3-0.1c-1.8-0.8-4.5-1.5-8.4-1.5c-4.5,0-7.3,1.3-8.9,3.1c-1.7,1.8-2.1,4.1-2.1,6
		c-0.1,5.3,3,7.7,10.5,8.6c2.6,0.3,4.3,0.7,5.3,1.5c1,0.7,1.4,1.8,1.4,3.8c-0.1,3.5-1.5,6.1-7.9,6.2c-4.3,0-6.6-1-8.7-1.7l-0.6-0.2
		v3.7l0.3,0.1c2.1,0.9,6,1.7,9,1.7h0c4.7,0,7.8-1.3,9.6-3.2c1.8-1.9,2.4-4.4,2.4-6.6C119.9,50.4,115.8,48.2,109.6,47.5 M170,45.7
		c-1.2-1.1-3-1.6-5.2-1.6c-2.1,0-4.2,0.8-6.4,2.3c-1.1-1.5-3.1-2.3-5.8-2.3c-1.6,0-3.4,0.5-5.2,1.5l-0.4-1.1h-2.9v21h3.3V48.2
		c1.5-0.8,2.8-1.2,5.2-1.2c2.3,0,3.7,0.7,3.7,3.3v15.2h3.3V48.2c1.5-0.7,2.8-1.2,5.2-1.2c2.3,0,3.7,0.7,3.7,3.3v15.2h3.3V50.5
		C171.9,48.4,171.2,46.8,170,45.7 M202,45.7c-1.2-1.1-3-1.6-5.2-1.6c-2.1,0-4.2,0.8-6.4,2.3c-1.2-1.5-3.1-2.3-5.8-2.3
		c-1.6,0-3.4,0.5-5.2,1.5l-0.4-1.1h-2.9v21h3.3V48.2c1.5-0.8,2.8-1.2,5.2-1.2c2.3,0,3.7,0.7,3.7,3.3v15.2h3.3V48.2
		c1.5-0.7,2.8-1.2,5.2-1.2c2.3,0,3.7,0.7,3.7,3.3v15.2h3.3V50.5C203.9,48.4,203.2,46.8,202,45.7 M140,55.7h-13.5
		c0.1,4.9,2.8,7.1,6.1,7.3c1.8,0,3.4-0.1,5.3-1.7l1.7,2.3c-2,1.7-4.1,2.4-7,2.4c-5.9,0-9.4-4.3-9.4-10.7v-1.1c0-7.7,5-10.2,8.4-10.2
		C137.4,44,140.5,48.3,140,55.7 M131.9,46.7c-3.5,0-5.4,3-5.4,6.2h10.2C137.1,50.5,135.8,46.7,131.9,46.7 M224.6,55.7h-13.5
		c0.1,4.9,2.8,7.1,6.1,7.3c1.8,0,3.4-0.1,5.3-1.7l1.7,2.3c-2,1.7-4.1,2.4-7,2.4c-5.9,0-9.4-4.3-9.4-10.7v-1.1c0-7.7,5-10.2,8.4-10.2
		C222.1,44,225.1,48.3,224.6,55.7 M216.5,46.7c-3.5,0-5.4,3-5.4,6.2h10.2C221.7,50.5,220.4,46.7,216.5,46.7 M227.9,69.9h-0.4
		l-0.7-1.2h-0.4v1.2h-0.4v-2.7h1c0.3,0,0.5,0.1,0.7,0.2c0.2,0.1,0.2,0.3,0.2,0.6c0,0.2-0.1,0.4-0.2,0.5c-0.1,0.1-0.3,0.2-0.5,0.2
		L227.9,69.9z M227,68.4c0.1,0,0.2,0,0.2-0.1c0.1,0,0.1-0.1,0.2-0.1c0-0.1,0.1-0.1,0.1-0.3c0-0.1,0-0.2-0.1-0.2
		c0-0.1-0.1-0.1-0.1-0.1c-0.1,0-0.1,0-0.2-0.1c-0.1,0-0.1,0-0.2,0h-0.6v0.9h0.4C226.8,68.4,226.9,68.4,227,68.4 M229.1,68.6
		c0,1.3-1,2.3-2.3,2.3c-1.3,0-2.3-1-2.3-2.3c0-1.3,1-2.3,2.3-2.3C228.1,66.3,229.1,67.3,229.1,68.6 M228.7,68.6
		c0-1.1-0.9-1.9-1.9-1.9c-1.1,0-1.9,0.9-1.9,1.9c0,1.1,0.9,1.9,1.9,1.9C227.9,70.5,228.7,69.7,228.7,68.6"/>
	<rect id="XMLID_200_" x="5.2" y="13.6" class="st2" width="239.6" height="72.8"/>
	<rect id="XMLID_124_" x="5.2" y="13.6" class="st3" width="239.6" height="72.8"/>
	<path class="st1" d="M217.4,41.8h-1.6l3.5-7.6h4.5L217.4,41.8L217.4,41.8z M25.5,33.9v3.7h8.7V66h3.9V37.6h8.7v-3.7H25.5z M73.3,66
		h-4.9l-6.8-13.6c-0.4,0-0.7,0-1.1,0h-6.4V66h-4v-32h10.3c4,0,6.7,0.9,8.4,2.5c1.7,1.6,2.3,4,2.3,6.7c0,4-1.5,7.3-5.5,8.6L73.3,66z
		 M61.1,37.6h-7v11h7c5.4-0.1,5.8-2.3,5.9-5.5C66.9,39.9,66.5,37.7,61.1,37.6 M94.9,37.6v-3.7H76.1v32h19.2v-3.7H80.1V50.8h13.8
		v-0.5v-3.2H80.1v-9.5H94.9z M109.6,47.5c-2.5-0.3-4.3-0.6-5.5-1.2c-1.1-0.7-1.7-1.6-1.7-3.6c0.1-3.1,1-5.5,7-5.6
		c3.1,0,5.2,0.4,8,1.6l0.7,0.3v-3.9l-0.3-0.1c-1.8-0.8-4.5-1.5-8.4-1.5c-4.5,0-7.3,1.3-8.9,3.1c-1.7,1.8-2.1,4.1-2.1,6
		c-0.1,5.3,3,7.7,10.5,8.6c2.6,0.3,4.3,0.7,5.3,1.5c1,0.7,1.4,1.8,1.4,3.8c-0.1,3.5-1.5,6.1-7.9,6.2c-4.3,0-6.6-1-8.7-1.7l-0.6-0.2
		v3.7l0.3,0.1c2.1,0.9,6,1.7,9,1.7h0c4.7,0,7.8-1.3,9.6-3.2c1.8-1.9,2.4-4.4,2.4-6.6C119.9,50.4,115.8,48.2,109.6,47.5 M170,45.7
		c-1.2-1.1-3-1.6-5.2-1.6c-2.1,0-4.2,0.8-6.4,2.3c-1.1-1.5-3.1-2.3-5.8-2.3c-1.6,0-3.4,0.5-5.2,1.5l-0.4-1.1h-2.9v21h3.3V48.2
		c1.5-0.8,2.8-1.2,5.2-1.2c2.3,0,3.7,0.7,3.7,3.3v15.2h3.3V48.2c1.5-0.7,2.8-1.2,5.2-1.2c2.3,0,3.7,0.7,3.7,3.3v15.2h3.3V50.5
		C171.9,48.4,171.2,46.8,170,45.7 M202,45.7c-1.2-1.1-3-1.6-5.2-1.6c-2.1,0-4.2,0.8-6.4,2.3c-1.2-1.5-3.1-2.3-5.8-2.3
		c-1.6,0-3.4,0.5-5.2,1.5l-0.4-1.1h-2.9v21h3.3V48.2c1.5-0.8,2.8-1.2,5.2-1.2c2.3,0,3.7,0.7,3.7,3.3v15.2h3.3V48.2
		c1.5-0.7,2.8-1.2,5.2-1.2c2.3,0,3.7,0.7,3.7,3.3v15.2h3.3V50.5C203.9,48.4,203.2,46.8,202,45.7 M140,55.7h-13.5
		c0.1,4.9,2.8,7.1,6.1,7.3c1.8,0,3.4-0.1,5.3-1.7l1.7,2.3c-2,1.7-4.1,2.4-7,2.4c-5.9,0-9.4-4.3-9.4-10.7v-1.1c0-7.7,5-10.2,8.4-10.2
		C137.4,44,140.5,48.3,140,55.7 M131.9,46.7c-3.5,0-5.4,3-5.4,6.2h10.2C137.1,50.5,135.8,46.7,131.9,46.7 M224.6,55.7h-13.5
		c0.1,4.9,2.8,7.1,6.1,7.3c1.8,0,3.4-0.1,5.3-1.7l1.7,2.3c-2,1.7-4.1,2.4-7,2.4c-5.9,0-9.4-4.3-9.4-10.7v-1.1c0-7.7,5-10.2,8.4-10.2
		C222.1,44,225.1,48.3,224.6,55.7 M216.5,46.7c-3.5,0-5.4,3-5.4,6.2h10.2C221.7,50.5,220.4,46.7,216.5,46.7 M227.9,69.9h-0.4
		l-0.7-1.2h-0.4v1.2h-0.4v-2.7h1c0.3,0,0.5,0.1,0.7,0.2c0.2,0.1,0.2,0.3,0.2,0.6c0,0.2-0.1,0.4-0.2,0.5c-0.1,0.1-0.3,0.2-0.5,0.2
		L227.9,69.9z M227,68.4c0.1,0,0.2,0,0.2-0.1c0.1,0,0.1-0.1,0.2-0.1c0-0.1,0.1-0.1,0.1-0.3c0-0.1,0-0.2-0.1-0.2
		c0-0.1-0.1-0.1-0.1-0.1c-0.1,0-0.1,0-0.2-0.1c-0.1,0-0.1,0-0.2,0h-0.6v0.9h0.4C226.8,68.4,226.9,68.4,227,68.4 M229.1,68.6
		c0,1.3-1,2.3-2.3,2.3c-1.3,0-2.3-1-2.3-2.3c0-1.3,1-2.3,2.3-2.3C228.1,66.3,229.1,67.3,229.1,68.6 M228.7,68.6
		c0-1.1-0.9-1.9-1.9-1.9c-1.1,0-1.9,0.9-1.9,1.9c0,1.1,0.9,1.9,1.9,1.9C227.9,70.5,228.7,69.7,228.7,68.6"/>
</g>
</svg>
