<?xml version="1.0" encoding="utf-8"?>
<!-- Generator: Adobe Illustrator 25.4.1, SVG Export Plug-In . SVG Version: 6.00 Build 0)  -->
<svg version="1.1" id="Capa_1" xmlns="http://www.w3.org/2000/svg" xmlns:xlink="http://www.w3.org/1999/xlink" x="0px" y="0px"
	 viewBox="0 0 250 100" style="enable-background:new 0 0 250 100;" xml:space="preserve">
<g>
	<g>
		<path d="M74,45.3c0-2.2,0.5-2.8,2.8-2.8h0.9c2.2,0,2.8,0.5,2.8,2.8v19.1c0,2.2-0.5,2.8-2.8,2.8h-0.9c-2.2,0-2.8-0.5-2.8-2.8V45.3z
			"/>
		<path d="M108.7,56.9c0,7.7-5.2,10.8-11.7,10.8c-7.4,0-11.8-3-11.8-10.8V53c0-7,3.5-11.1,10.3-11.1c3.4,0,5.5,1.1,6.7,2.8v-9.3
			c0-2.2,0.5-2.8,2.8-2.8h0.9c2.2,0,2.8,0.5,2.8,2.8V56.9z M91.7,56.8c0,3.1,0.7,4.9,5.3,4.9c4.4,0,5.4-1.7,5.4-4.9v-3.9
			c0-3.1-0.9-4.9-5.4-4.9c-4.4,0-5.3,1.7-5.3,4.9V56.8z"/>
		<path d="M135.1,54.5c-0.3,2.3-0.9,2.7-3.2,2.7h-12.5v0.7c0,2.6,1.9,3.7,6.4,3.7c2.6,0,5-0.5,6-0.7c2.2-0.4,2.6,0.1,2.6,2.4v0.5
			c0,2.2-0.4,2.7-2.6,3.2c-0.9,0.2-3.2,0.6-6,0.6c-8.7,0-12.8-3.1-12.8-10.8V53c0-6.3,2.9-11.1,11.5-11.1c7.2,0,10.8,3.6,10.8,10.6
			C135.2,53,135.2,53.6,135.1,54.5z M119.4,52h9.7v-0.7c0-2.5-1.6-3.7-4.9-3.7c-3.2,0-4.8,1.3-4.8,3.7V52z"/>
		<path d="M159.7,59.8c0,5.2-3.1,7.9-10.7,7.9c-7.5,0-10.7-2.7-10.7-7.8c0-5.8,4.1-7.7,10-7.7h5v-1.9c0-2.6-2.1-3-5.1-3
			c-2,0-3.5,0.2-4.3,0.3c-2.1,0.3-2.8-0.1-2.8-2.3v-0.2c0-2.1,0.5-2.7,2.7-3c0.7-0.1,1.9-0.2,4-0.2c7.2,0,11.9,2,11.9,8.5V59.8z
			 M153.3,57.1h-5.1c-2.4,0-3.5,0.9-3.5,2.7c0,2.4,2,2.6,4.2,2.6c2.2,0,4.4-0.2,4.4-2.9V57.1z"/>
		<g>
			<path d="M167.6,25.3c-1.5,0-1.8,0.6-1.8,1.8v2c0,1.2,0.3,1.8,1.8,1.8c1.5,0,1.8-0.6,1.8-1.8v-2C169.4,25.8,169.1,25.3,167.6,25.3
				z"/>
			<path d="M179.1,27.1l-11.7-12.6c-0.9-0.9-2.5-0.3-2.5,1v3.7h-19.8c-1.8,0-3.3,1.5-3.3,3.3v11.2c0,1.8,1.5,3.3,3.3,3.3h19.8v3.8
				c0,1.3,1.6,1.9,2.5,1L179.1,29C179.6,28.5,179.6,27.6,179.1,27.1z M153.9,30.6c0,1.2-0.3,2-1.6,2.2c-0.2,0-0.6,0.1-1.2,0.1
				c-3.2,0-4.5-1.1-4.5-3.8v-2.2c0-2.4,1.6-3.7,4.5-3.7c0.7,0,1.3,0.1,1.9,0.3c0.6,0.2,0.9,0.4,0.9,1.2v0.1c0,0.3,0,0.6-0.2,0.8
				c-0.2,0.2-0.5,0.1-0.7,0c-0.3-0.1-1.1-0.3-1.7-0.3c-1.7,0-2.3,0.4-2.3,1.8v2.2c0,0.8,0.3,1.5,2.3,1.5c0.2,0,0.4,0,0.5,0
				c0.2,0,0.2,0,0.2-0.3v-2.3c0-0.7,0.2-1,1-1h0.1c0.7,0,1,0.2,1,1V30.6z M162.8,24.4c0,0.7-0.2,1-1,1h-1.7v6.4c0,0.7-0.2,1-1,1
				h-0.3c-0.7,0-1-0.2-1-1v-6.4h-1.7c-0.7,0-1-0.2-1-1v-0.1c0-0.7,0.2-1,1-1h5.6c0.7,0,1,0.2,1,1V24.4z M171.6,29
				c0,1.7-0.4,3.9-4,3.9c-3.6,0-4-2.2-4-3.9v-2c0-1.7,0.4-3.9,4-3.9c3.6,0,4,2.2,4,3.9V29z"/>
		</g>
		<circle cx="77.3" cy="35.1" r="3.9"/>
		<g>
			<g>
				<path d="M4,79.1c0-0.5,0.1-0.6,0.6-0.6h0.2c0.5,0,0.6,0.1,0.6,0.6v4.1c0,0.5-0.1,0.6-0.6,0.6H4.6c-0.5,0-0.6-0.1-0.6-0.6V79.1z"
					/>
				<path d="M8,83.3c0,0.5-0.1,0.6-0.6,0.6H7.2c-0.5,0-0.6-0.1-0.6-0.6v-2.7c0-1.4,0.8-2.2,2.4-2.2c1.7,0,2.4,0.7,2.4,2.2v2.7
					c0,0.5-0.1,0.6-0.6,0.6h-0.2c-0.5,0-0.6-0.1-0.6-0.6v-2.7c0-0.5-0.1-0.8-1-0.8c-0.9,0-1,0.3-1,0.8V83.3z"/>
				<path d="M13.9,83.3c0,0.5-0.1,0.6-0.6,0.6h-0.2c-0.5,0-0.6-0.1-0.6-0.6v-2.7c0-1.4,0.8-2.2,2.4-2.2c1.7,0,2.4,0.7,2.4,2.2v2.7
					c0,0.5-0.1,0.6-0.6,0.6h-0.2c-0.5,0-0.6-0.1-0.6-0.6v-2.7c0-0.5-0.1-0.8-1-0.8c-0.9,0-1,0.3-1,0.8V83.3z"/>
				<path d="M18.2,81.6v-0.9c0-1.5,0.9-2.4,2.6-2.4c1.8,0,2.5,0.8,2.5,2.4v0.9c0,1.5-0.9,2.4-2.5,2.4C19.1,84,18.2,83.2,18.2,81.6z
					 M21.9,80.8c0-0.7-0.2-1.1-1.1-1.1s-1.2,0.4-1.2,1.1v0.9c0,0.7,0.2,1.1,1.2,1.1s1.1-0.4,1.1-1.1V80.8z"/>
				<path d="M26,82.3c0.1,0.4,0.2,0.4,0.4,0.4s0.4,0,0.4-0.4l0.7-3.2c0.1-0.5,0.2-0.6,0.7-0.6h0.2c0.5,0,0.6,0.1,0.5,0.6l-0.8,3.4
					C28,83.4,27.8,84,26.4,84c-1.4,0-1.6-0.5-1.8-1.5l-0.8-3.4c-0.1-0.5,0-0.6,0.5-0.6h0.2c0.5,0,0.6,0.1,0.7,0.6L26,82.3z"/>
				<path d="M34.3,82.3c0,1.1-0.7,1.7-2.3,1.7c-1.6,0-2.3-0.6-2.3-1.7c0-1.2,0.9-1.7,2.2-1.7h1.1v-0.4c0-0.6-0.4-0.7-1.1-0.7
					c-0.4,0-0.8,0-0.9,0.1c-0.5,0.1-0.6,0-0.6-0.5v0c0-0.5,0.1-0.6,0.6-0.7c0.2,0,0.4-0.1,0.9-0.1c1.6,0,2.6,0.4,2.6,1.8V82.3z
					 M32.9,81.7h-1.1c-0.5,0-0.8,0.2-0.8,0.6c0,0.5,0.4,0.6,0.9,0.6s0.9,0,0.9-0.6V81.7z"/>
				<path d="M35.1,80.7c0-1.4,0.9-2.3,2.6-2.3c0.3,0,0.6,0,0.7,0.1c0.4,0.1,0.6,0.2,0.6,0.7v0.1c0,0.5-0.1,0.6-0.6,0.5
					c-0.2,0-0.4-0.1-0.7-0.1c-0.8,0-1.2,0.2-1.2,1v1c0,0.8,0.4,1,1.3,1c0.2,0,0.5,0,0.7-0.1c0.5-0.1,0.6,0,0.6,0.5v0.1
					c0,0.5-0.1,0.6-0.6,0.7C38.3,84,38,84,37.7,84c-1.8,0-2.6-0.8-2.6-2.3V80.7z"/>
				<path d="M39.8,79.1c0-0.5,0.1-0.6,0.6-0.6h0.2c0.5,0,0.6,0.1,0.6,0.6v4.1c0,0.5-0.1,0.6-0.6,0.6h-0.2c-0.5,0-0.6-0.1-0.6-0.6
					V79.1z"/>
				<path d="M42.2,81.6v-0.9c0-1.5,0.9-2.4,2.6-2.4c1.8,0,2.5,0.8,2.5,2.4v0.9c0,1.5-0.9,2.4-2.5,2.4C43,84,42.2,83.2,42.2,81.6z
					 M45.9,80.8c0-0.7-0.2-1.1-1.1-1.1s-1.2,0.4-1.2,1.1v0.9c0,0.7,0.2,1.1,1.2,1.1s1.1-0.4,1.1-1.1V80.8z M45.8,76.4
					c0.5,0,0.5,0.1,0.3,0.5l-0.4,0.5c-0.2,0.3-0.4,0.4-0.8,0.4h-0.2c-0.4,0-0.5-0.1-0.3-0.5l0.2-0.4c0.2-0.4,0.4-0.6,0.9-0.6H45.8z"
					/>
				<path d="M49.7,83.3c0,0.5-0.1,0.6-0.6,0.6h-0.2c-0.5,0-0.6-0.1-0.6-0.6v-2.7c0-1.4,0.8-2.2,2.4-2.2c1.7,0,2.4,0.7,2.4,2.2v2.7
					c0,0.5-0.1,0.6-0.6,0.6h-0.2c-0.5,0-0.6-0.1-0.6-0.6v-2.7c0-0.5-0.1-0.8-1-0.8c-0.9,0-1,0.3-1,0.8V83.3z"/>
				<path d="M54.9,82.3c0.5,0,0.8,0.4,0.8,0.8S55.4,84,54.9,84s-0.8-0.4-0.8-0.8S54.4,82.3,54.9,82.3z"/>
				<path d="M4.7,76.1c0.5,0,0.8,0.4,0.8,0.8s-0.4,0.8-0.8,0.8c-0.5,0-0.8-0.4-0.8-0.8S4.3,76.1,4.7,76.1z"/>
				<path d="M40.5,76.1c0.5,0,0.8,0.4,0.8,0.8s-0.4,0.8-0.8,0.8s-0.8-0.4-0.8-0.8S40,76.1,40.5,76.1z"/>
			</g>
			<g>
				<path d="M64.1,81.7c0,1.7-1.1,2.3-2.5,2.3c-1.6,0-2.6-0.7-2.6-2.3v-0.9c0-1.5,0.8-2.4,2.2-2.4c0.7,0,1.2,0.2,1.5,0.6v-2
					c0-0.5,0.1-0.6,0.6-0.6h0.2c0.5,0,0.6,0.1,0.6,0.6V81.7z M60.4,81.6c0,0.7,0.2,1.1,1.1,1.1c1,0,1.2-0.4,1.2-1.1v-0.9
					c0-0.7-0.2-1.1-1.2-1.1s-1.1,0.4-1.1,1.1V81.6z"/>
				<path d="M69.8,81.1c-0.1,0.5-0.2,0.6-0.7,0.6h-2.7v0.2c0,0.6,0.4,0.8,1.4,0.8c0.6,0,1.1-0.1,1.3-0.1c0.5-0.1,0.6,0,0.6,0.5v0.1
					c0,0.5-0.1,0.6-0.6,0.7c-0.2,0.1-0.7,0.1-1.3,0.1c-1.9,0-2.8-0.7-2.8-2.3v-0.9c0-1.4,0.6-2.4,2.5-2.4c1.6,0,2.3,0.8,2.3,2.3
					C69.8,80.8,69.8,80.9,69.8,81.1z M66.4,80.6h2.1v-0.2c0-0.5-0.4-0.8-1.1-0.8s-1,0.3-1,0.8V80.6z"/>
				<path d="M70.6,83c0-0.5,0.1-0.6,0.6-0.5c0.3,0.1,0.7,0.2,1.5,0.2c0.6,0,0.8-0.1,0.8-0.3c0-0.2-0.1-0.3-0.7-0.5l-1-0.4
					c-0.7-0.3-1.1-0.6-1.1-1.5c0-1,0.6-1.6,2.2-1.6c0.6,0,1,0.1,1.1,0.1c0.5,0.1,0.6,0.2,0.6,0.7v0.1c0,0.5-0.1,0.6-0.6,0.5
					c-0.2-0.1-0.6-0.1-1.1-0.1c-0.6,0-0.8,0.1-0.8,0.3c0,0.2,0.1,0.2,0.4,0.4l1.1,0.4c0.8,0.3,1.2,0.7,1.2,1.6
					c0,1.1-0.6,1.6-2.3,1.6c-0.6,0-1.1-0.1-1.3-0.1c-0.5-0.1-0.6-0.2-0.6-0.7V83z"/>
				<path d="M80.1,82.3c0,1.1-0.7,1.7-2.3,1.7c-1.6,0-2.3-0.6-2.3-1.7c0-1.2,0.9-1.7,2.2-1.7h1.1v-0.4c0-0.6-0.4-0.7-1.1-0.7
					c-0.4,0-0.8,0-0.9,0.1c-0.5,0.1-0.6,0-0.6-0.5v0c0-0.5,0.1-0.6,0.6-0.7c0.2,0,0.4-0.1,0.9-0.1c1.6,0,2.6,0.4,2.6,1.8V82.3z
					 M78.8,81.7h-1.1c-0.5,0-0.8,0.2-0.8,0.6c0,0.5,0.4,0.6,0.9,0.6s0.9,0,0.9-0.6V81.7z"/>
				<path d="M82.5,83.3c0,0.5-0.1,0.6-0.6,0.6h-0.2c-0.5,0-0.6-0.1-0.6-0.6v-2.9c0-1.3,0.8-1.9,2.2-1.9c0,0,0.1,0,0.1,0
					c0.4,0,0.5,0.2,0.5,0.7v0.1c0,0.5-0.1,0.5-0.5,0.5c0,0-0.1,0-0.1,0c-0.7,0-0.8,0.3-0.8,0.7V83.3z"/>
				<path d="M86.1,83.3c0,0.5-0.1,0.6-0.6,0.6h-0.2c-0.5,0-0.6-0.1-0.6-0.6v-2.9c0-1.3,0.8-1.9,2.2-1.9c0,0,0.1,0,0.1,0
					c0.4,0,0.5,0.2,0.5,0.7v0.1c0,0.5-0.1,0.5-0.5,0.5c0,0-0.1,0-0.1,0c-0.7,0-0.8,0.3-0.8,0.7V83.3z"/>
				<path d="M88,81.6v-0.9c0-1.5,0.9-2.4,2.6-2.4c1.8,0,2.5,0.8,2.5,2.4v0.9c0,1.5-0.9,2.4-2.5,2.4C88.8,84,88,83.2,88,81.6z
					 M91.7,80.8c0-0.7-0.2-1.1-1.1-1.1c-1,0-1.2,0.4-1.2,1.1v0.9c0,0.7,0.2,1.1,1.2,1.1c1,0,1.1-0.4,1.1-1.1V80.8z"/>
				<path d="M94,77c0-0.5,0.1-0.6,0.6-0.6h0.2c0.5,0,0.6,0.1,0.6,0.6v5c0,0.6,0.1,0.7,0.5,0.7c0,0,0,0,0.1,0c0.3,0,0.4,0.1,0.4,0.5
					v0.2c0,0.4-0.1,0.5-0.4,0.6c-0.1,0-0.1,0-0.3,0c-0.9,0-1.6-0.5-1.6-1.7V77z"/>
				<path d="M96.9,77c0-0.5,0.1-0.6,0.6-0.6h0.2c0.5,0,0.6,0.1,0.6,0.6v5c0,0.6,0.1,0.7,0.5,0.7c0,0,0,0,0.1,0
					c0.3,0,0.4,0.1,0.4,0.5v0.2c0,0.4-0.1,0.5-0.4,0.6c-0.1,0-0.1,0-0.3,0c-0.9,0-1.6-0.5-1.6-1.7V77z"/>
				<path d="M99.7,81.6v-0.9c0-1.5,0.9-2.4,2.6-2.4c1.8,0,2.5,0.8,2.5,2.4v0.9c0,1.5-0.9,2.4-2.5,2.4C100.6,84,99.7,83.2,99.7,81.6z
					 M103.4,80.8c0-0.7-0.2-1.1-1.1-1.1c-1,0-1.2,0.4-1.2,1.1v0.9c0,0.7,0.2,1.1,1.2,1.1c1,0,1.1-0.4,1.1-1.1V80.8z"/>
				<path d="M106.5,82.3c0.5,0,0.8,0.4,0.8,0.8S107,84,106.5,84c-0.5,0-0.8-0.4-0.8-0.8S106.1,82.3,106.5,82.3z"/>
			</g>
			<g>
				<path d="M115.4,81.1c-0.1,0.5-0.2,0.6-0.7,0.6H112v0.2c0,0.6,0.4,0.8,1.4,0.8c0.6,0,1.1-0.1,1.3-0.1c0.5-0.1,0.6,0,0.6,0.5v0.1
					c0,0.5-0.1,0.6-0.6,0.7c-0.2,0.1-0.7,0.1-1.3,0.1c-1.9,0-2.8-0.7-2.8-2.3v-0.9c0-1.4,0.6-2.4,2.5-2.4c1.6,0,2.3,0.8,2.3,2.3
					C115.5,80.8,115.5,80.9,115.4,81.1z M112,80.6h2.1v-0.2c0-0.5-0.4-0.8-1.1-0.8s-1,0.3-1,0.8V80.6z"/>
				<path d="M117.8,83.3c0,0.5-0.1,0.6-0.6,0.6H117c-0.5,0-0.6-0.1-0.6-0.6v-2.7c0-1.4,0.8-2.2,2.3-2.2c0.7,0,1.3,0.2,1.6,0.7
					c0.3-0.4,0.9-0.7,1.6-0.7c1.6,0,2.3,0.7,2.3,2.2v2.7c0,0.5-0.1,0.6-0.6,0.6h-0.2c-0.5,0-0.6-0.1-0.6-0.6v-2.7
					c0-0.5-0.1-0.8-0.9-0.8c-0.8,0-0.9,0.3-0.9,0.8v2.7c0,0.5-0.1,0.6-0.6,0.6h-0.2c-0.5,0-0.6-0.1-0.6-0.6v-2.7
					c0-0.5-0.1-0.8-0.9-0.8c-0.7,0-0.9,0.3-0.9,0.8V83.3z"/>
				<path d="M125.1,80.7c0-1.7,1.1-2.3,2.5-2.3c1.6,0,2.6,0.7,2.6,2.3v0.9c0,1.5-0.8,2.4-2.2,2.4c-0.7,0-1.2-0.2-1.5-0.6v2
					c0,0.5-0.1,0.6-0.6,0.6h-0.2c-0.5,0-0.6-0.1-0.6-0.6V80.7z M128.8,80.8c0-0.7-0.2-1.1-1.1-1.1c-1,0-1.2,0.4-1.2,1.1v0.9
					c0,0.7,0.2,1.1,1.2,1.1c1,0,1.1-0.4,1.1-1.1V80.8z"/>
				<path d="M132.6,83.3c0,0.5-0.1,0.6-0.6,0.6h-0.2c-0.5,0-0.6-0.1-0.6-0.6v-2.9c0-1.3,0.8-1.9,2.2-1.9c0,0,0.1,0,0.1,0
					c0.4,0,0.5,0.2,0.5,0.7v0.1c0,0.5-0.1,0.5-0.5,0.5c0,0-0.1,0-0.1,0c-0.7,0-0.8,0.3-0.8,0.7V83.3z"/>
				<path d="M139.2,81.1c-0.1,0.5-0.2,0.6-0.7,0.6h-2.7v0.2c0,0.6,0.4,0.8,1.4,0.8c0.6,0,1.1-0.1,1.3-0.1c0.5-0.1,0.6,0,0.6,0.5v0.1
					c0,0.5-0.1,0.6-0.6,0.7c-0.2,0.1-0.7,0.1-1.3,0.1c-1.9,0-2.8-0.7-2.8-2.3v-0.9c0-1.4,0.6-2.4,2.5-2.4c1.6,0,2.3,0.8,2.3,2.3
					C139.3,80.8,139.3,80.9,139.2,81.1z M135.8,80.6h2.1v-0.2c0-0.5-0.4-0.8-1.1-0.8s-1,0.3-1,0.8V80.6z"/>
				<path d="M141.6,83.3c0,0.5-0.1,0.6-0.6,0.6h-0.2c-0.5,0-0.6-0.1-0.6-0.6v-2.7c0-1.4,0.8-2.2,2.4-2.2c1.7,0,2.4,0.7,2.4,2.2v2.7
					c0,0.5-0.1,0.6-0.6,0.6h-0.2c-0.5,0-0.6-0.1-0.6-0.6v-2.7c0-0.5-0.1-0.8-1-0.8c-0.9,0-1,0.3-1,0.8V83.3z"/>
				<path d="M151.1,81.7c0,1.7-1.1,2.3-2.5,2.3c-1.6,0-2.6-0.7-2.6-2.3v-0.9c0-1.5,0.8-2.4,2.2-2.4c0.7,0,1.2,0.2,1.5,0.6v-2
					c0-0.5,0.1-0.6,0.6-0.6h0.2c0.5,0,0.6,0.1,0.6,0.6V81.7z M147.4,81.6c0,0.7,0.2,1.1,1.1,1.1c1,0,1.2-0.4,1.2-1.1v-0.9
					c0-0.7-0.2-1.1-1.2-1.1c-1,0-1.1,0.4-1.1,1.1V81.6z"/>
				<path d="M152.2,79.1c0-0.5,0.1-0.6,0.6-0.6h0.2c0.5,0,0.6,0.1,0.6,0.6v4.1c0,0.5-0.1,0.6-0.6,0.6h-0.2c-0.5,0-0.6-0.1-0.6-0.6
					V79.1z"/>
				<path d="M156.2,83.3c0,0.5-0.1,0.6-0.6,0.6h-0.2c-0.5,0-0.6-0.1-0.6-0.6v-2.7c0-1.4,0.8-2.2,2.3-2.2c0.7,0,1.3,0.2,1.6,0.7
					c0.3-0.4,0.9-0.7,1.6-0.7c1.6,0,2.3,0.7,2.3,2.2v2.7c0,0.5-0.1,0.6-0.6,0.6h-0.2c-0.5,0-0.6-0.1-0.6-0.6v-2.7
					c0-0.5-0.1-0.8-0.9-0.8c-0.8,0-0.9,0.3-0.9,0.8v2.7c0,0.5-0.1,0.6-0.6,0.6h-0.2c-0.5,0-0.6-0.1-0.6-0.6v-2.7
					c0-0.5-0.1-0.8-0.9-0.8c-0.7,0-0.9,0.3-0.9,0.8V83.3z"/>
				<path d="M163.6,79.1c0-0.5,0.1-0.6,0.6-0.6h0.2c0.5,0,0.6,0.1,0.6,0.6v4.1c0,0.5-0.1,0.6-0.6,0.6h-0.2c-0.5,0-0.6-0.1-0.6-0.6
					V79.1z"/>
				<path d="M170.8,81.1c-0.1,0.5-0.2,0.6-0.7,0.6h-2.7v0.2c0,0.6,0.4,0.8,1.4,0.8c0.6,0,1.1-0.1,1.3-0.1c0.5-0.1,0.6,0,0.6,0.5v0.1
					c0,0.5-0.1,0.6-0.6,0.7c-0.2,0.1-0.7,0.1-1.3,0.1c-1.9,0-2.8-0.7-2.8-2.3v-0.9c0-1.4,0.6-2.4,2.5-2.4c1.6,0,2.3,0.8,2.3,2.3
					C170.9,80.8,170.9,80.9,170.8,81.1z M167.4,80.6h2.1v-0.2c0-0.5-0.4-0.8-1.1-0.8s-1,0.3-1,0.8V80.6z"/>
				<path d="M173.2,83.3c0,0.5-0.1,0.6-0.6,0.6h-0.2c-0.5,0-0.6-0.1-0.6-0.6v-2.7c0-1.4,0.8-2.2,2.4-2.2c1.7,0,2.4,0.7,2.4,2.2v2.7
					c0,0.5-0.1,0.6-0.6,0.6h-0.2c-0.5,0-0.6-0.1-0.6-0.6v-2.7c0-0.5-0.1-0.8-1-0.8c-0.9,0-1,0.3-1,0.8V83.3z"/>
				<path d="M177.1,79.3c0-0.4,0.1-0.6,0.5-0.6l0.4-0.1l0.1-0.8c0.1-0.4,0.2-0.5,0.6-0.5h0.1c0.4,0,0.6,0.1,0.6,0.6v0.8h1.2
					c0.5,0,0.6,0.1,0.6,0.6v0.1c0,0.5-0.1,0.6-0.6,0.6h-1.2V82c0,0.5,0.3,0.7,0.7,0.7c0.4,0,0.6,0,0.7-0.1c0.5-0.1,0.6,0,0.6,0.4
					v0.1c0,0.5-0.1,0.7-0.6,0.8c-0.1,0-0.4,0.1-0.7,0.1c-1.2,0-2.1-0.5-2.1-2v-2.1h-0.4C177.2,79.8,177.1,79.7,177.1,79.3
					L177.1,79.3z"/>
				<path d="M182.1,81.6v-0.9c0-1.5,0.9-2.4,2.6-2.4c1.8,0,2.5,0.8,2.5,2.4v0.9c0,1.5-0.9,2.4-2.5,2.4
					C182.9,84,182.1,83.2,182.1,81.6z M185.8,80.8c0-0.7-0.2-1.1-1.1-1.1c-1,0-1.2,0.4-1.2,1.1v0.9c0,0.7,0.2,1.1,1.2,1.1
					c1,0,1.1-0.4,1.1-1.1V80.8z"/>
				<path d="M188.9,82.3c0.5,0,0.8,0.4,0.8,0.8s-0.4,0.8-0.8,0.8s-0.8-0.4-0.8-0.8S188.4,82.3,188.9,82.3z"/>
				<path d="M152.9,76.1c0.5,0,0.8,0.4,0.8,0.8s-0.4,0.8-0.8,0.8s-0.8-0.4-0.8-0.8S152.5,76.1,152.9,76.1z"/>
				<path d="M164.3,76.1c0.5,0,0.8,0.4,0.8,0.8s-0.4,0.8-0.8,0.8s-0.8-0.4-0.8-0.8S163.8,76.1,164.3,76.1z"/>
			</g>
			<g>
				<g>
					<g>
						<g>
							<g>
								<path d="M197.4,82.3c0,1.1-0.7,1.7-2.3,1.7c-1.6,0-2.3-0.6-2.3-1.7c0-1.2,0.9-1.7,2.2-1.7h1.1v-0.4c0-0.6-0.4-0.7-1.1-0.7
									c-0.4,0-0.8,0-0.9,0.1c-0.5,0.1-0.6,0-0.6-0.5v0c0-0.5,0.1-0.6,0.6-0.7c0.2,0,0.4-0.1,0.9-0.1c1.6,0,2.6,0.4,2.6,1.8V82.3z
									 M196,81.7h-1.1c-0.5,0-0.8,0.2-0.8,0.6c0,0.5,0.4,0.6,0.9,0.6c0.5,0,0.9,0,0.9-0.6V81.7z"/>
							</g>
						</g>
						<g>
							<g>
								<path d="M198.2,80.7c0-1.4,0.9-2.3,2.6-2.3c0.3,0,0.6,0,0.7,0.1c0.4,0.1,0.6,0.2,0.6,0.7v0.1c0,0.5-0.1,0.6-0.6,0.5
									c-0.2,0-0.4-0.1-0.7-0.1c-0.8,0-1.2,0.2-1.2,1v1c0,0.8,0.4,1,1.3,1c0.2,0,0.5,0,0.7-0.1c0.5-0.1,0.6,0,0.6,0.5v0.1
									c0,0.5-0.1,0.6-0.6,0.7c-0.1,0-0.4,0.1-0.7,0.1c-1.8,0-2.6-0.8-2.6-2.3V80.7z"/>
							</g>
						</g>
						<g>
							<g>
								<path d="M207.4,81.1c-0.1,0.5-0.2,0.6-0.7,0.6H204v0.2c0,0.6,0.4,0.8,1.4,0.8c0.6,0,1.1-0.1,1.3-0.1c0.5-0.1,0.6,0,0.6,0.5
									v0.1c0,0.5-0.1,0.6-0.6,0.7c-0.2,0.1-0.7,0.1-1.3,0.1c-1.9,0-2.8-0.7-2.8-2.3v-0.9c0-1.4,0.6-2.4,2.5-2.4
									c1.6,0,2.3,0.8,2.3,2.3C207.4,80.8,207.4,80.9,207.4,81.1z M204,80.6h2.1v-0.2c0-0.5-0.4-0.8-1.1-0.8s-1,0.3-1,0.8V80.6z"/>
							</g>
						</g>
						<g>
							<g>
								<path d="M208.3,77c0-0.5,0.1-0.6,0.6-0.6h0.2c0.5,0,0.6,0.1,0.6,0.6v5c0,0.6,0.1,0.7,0.5,0.7c0,0,0,0,0.1,0
									c0.3,0,0.4,0.1,0.4,0.5v0.2c0,0.4-0.1,0.5-0.4,0.6c-0.1,0-0.1,0-0.3,0c-0.9,0-1.6-0.5-1.6-1.7V77z"/>
							</g>
						</g>
						<g>
							<g>
								<path d="M215.9,81.1c-0.1,0.5-0.2,0.6-0.7,0.6h-2.7v0.2c0,0.6,0.4,0.8,1.4,0.8c0.6,0,1.1-0.1,1.3-0.1c0.5-0.1,0.6,0,0.6,0.5
									v0.1c0,0.5-0.1,0.6-0.6,0.7c-0.2,0.1-0.7,0.1-1.3,0.1c-1.9,0-2.8-0.7-2.8-2.3v-0.9c0-1.4,0.6-2.4,2.5-2.4
									c1.6,0,2.3,0.8,2.3,2.3C216,80.8,216,80.9,215.9,81.1z M212.5,80.6h2.1v-0.2c0-0.5-0.4-0.8-1.1-0.8s-1,0.3-1,0.8V80.6z"/>
							</g>
						</g>
						<g>
							<g>
								<path d="M218.3,83.3c0,0.5-0.1,0.6-0.6,0.6h-0.2c-0.5,0-0.6-0.1-0.6-0.6v-2.9c0-1.3,0.8-1.9,2.2-1.9c0,0,0.1,0,0.1,0
									c0.4,0,0.5,0.2,0.5,0.7v0.1c0,0.5-0.1,0.5-0.5,0.5c0,0-0.1,0-0.1,0c-0.7,0-0.8,0.3-0.8,0.7V83.3z"/>
							</g>
						</g>
						<g>
							<g>
								<path d="M224.6,82.3c0,1.1-0.7,1.7-2.3,1.7c-1.6,0-2.3-0.6-2.3-1.7c0-1.2,0.9-1.7,2.2-1.7h1.1v-0.4c0-0.6-0.4-0.7-1.1-0.7
									c-0.4,0-0.8,0-0.9,0.1c-0.5,0.1-0.6,0-0.6-0.5v0c0-0.5,0.1-0.6,0.6-0.7c0.2,0,0.4-0.1,0.9-0.1c1.6,0,2.6,0.4,2.6,1.8V82.3z
									 M223.3,81.7h-1.1c-0.5,0-0.8,0.2-0.8,0.6c0,0.5,0.4,0.6,0.9,0.6s0.9,0,0.9-0.6V81.7z"/>
							</g>
						</g>
						<g>
							<g>
								<path d="M225.5,80.7c0-1.4,0.9-2.3,2.6-2.3c0.3,0,0.6,0,0.7,0.1c0.4,0.1,0.6,0.2,0.6,0.7v0.1c0,0.5-0.1,0.6-0.6,0.5
									c-0.2,0-0.4-0.1-0.7-0.1c-0.8,0-1.2,0.2-1.2,1v1c0,0.8,0.4,1,1.3,1c0.2,0,0.5,0,0.7-0.1c0.5-0.1,0.6,0,0.6,0.5v0.1
									c0,0.5-0.1,0.6-0.6,0.7c-0.1,0-0.4,0.1-0.7,0.1c-1.8,0-2.6-0.8-2.6-2.3V80.7z"/>
							</g>
						</g>
						<g>
							<g>
								<path d="M230.2,79.1c0-0.5,0.1-0.6,0.6-0.6h0.2c0.5,0,0.6,0.1,0.6,0.6v4.1c0,0.5-0.1,0.6-0.6,0.6h-0.2
									c-0.5,0-0.6-0.1-0.6-0.6V79.1z"/>
							</g>
						</g>
						<g>
							<g>
								<path d="M232.6,81.6v-0.9c0-1.5,0.9-2.4,2.6-2.4c1.8,0,2.5,0.8,2.5,2.4v0.9c0,1.5-0.9,2.4-2.5,2.4
									C233.4,84,232.6,83.2,232.6,81.6z M236.3,80.8c0-0.7-0.2-1.1-1.1-1.1s-1.2,0.4-1.2,1.1v0.9c0,0.7,0.2,1.1,1.2,1.1
									s1.1-0.4,1.1-1.1V80.8z M236.2,76.4c0.5,0,0.5,0.1,0.3,0.5l-0.4,0.5c-0.2,0.3-0.4,0.4-0.8,0.4h-0.2c-0.4,0-0.5-0.1-0.3-0.5
									l0.2-0.4c0.2-0.4,0.4-0.6,0.9-0.6H236.2z"/>
							</g>
						</g>
						<g>
							<g>
								<path d="M240,83.3c0,0.5-0.1,0.6-0.6,0.6h-0.2c-0.5,0-0.6-0.1-0.6-0.6v-2.7c0-1.4,0.8-2.2,2.4-2.2c1.7,0,2.4,0.7,2.4,2.2
									v2.7c0,0.5-0.1,0.6-0.6,0.6h-0.2c-0.5,0-0.6-0.1-0.6-0.6v-2.7c0-0.5-0.1-0.8-1-0.8c-0.9,0-1,0.3-1,0.8V83.3z"/>
							</g>
						</g>
						<path d="M245.3,82.3c0.5,0,0.8,0.4,0.8,0.8s-0.4,0.8-0.8,0.8s-0.8-0.4-0.8-0.8S244.8,82.3,245.3,82.3z"/>
					</g>
				</g>
				<path d="M230.8,76.1c0.5,0,0.8,0.4,0.8,0.8s-0.4,0.8-0.8,0.8s-0.8-0.4-0.8-0.8S230.4,76.1,230.8,76.1z"/>
			</g>
		</g>
	</g>
	<circle cx="77.1" cy="35.4" r="3.9"/>
</g>
</svg>
