<?xml version="1.0" encoding="utf-8"?>
<!-- Generator: Adobe Illustrator 25.4.1, SVG Export Plug-In . SVG Version: 6.00 Build 0)  -->
<svg version="1.1" id="Capa_1" xmlns="http://www.w3.org/2000/svg" xmlns:xlink="http://www.w3.org/1999/xlink" x="0px" y="0px"
	 viewBox="0 0 250 100" style="enable-background:new 0 0 250 100;" xml:space="preserve">
<g>
	<g>
		<g>
			<g>
				<g>
					<path d="M45.4,63.9l0.3-1.3l8.3-2l-0.3,2.5L45.4,63.9z M11.2,75.1c0,4.4,3,7.7,6.9,7.7c1.6,0,2.9-0.1,4.2-0.7l0.7,2.6
						c-1.6,0.6-3.1,0.8-4.9,0.8C12.4,85.5,8,81,8,75.1c0-5.9,4.4-10.4,10.2-10.4c1.8,0,3.3,0.2,4.9,0.8l-0.7,2.5
						c-1.2-0.4-2.6-0.7-4.2-0.7C14.2,67.4,11.2,70.9,11.2,75.1 M37.2,85.2L32.5,77H29v8.2h-3.2V65H32c4.9,0,7.6,2.7,7.6,6
						c0,2.4-1.4,4.4-3.9,5.4l5.1,8.8H37.2z M32,67.7h-3v6.6h3c2.9,0,4.3-1.3,4.3-3.3C36.3,69.1,35,67.7,32,67.7 M55.8,85.2H43.4V65
						h12.4v2.7h-9.1v5.8h8.7v2.7h-8.7v6.3h9.1V85.2z M59.3,85.2V65h5.8c6.3,0,10.4,4.4,10.4,10.1c0,5.7-4.2,10.1-10.4,10.1H59.3z
						 M65.1,67.7h-2.6v14.8h2.6c4.4,0,7.2-3.1,7.2-7.4C72.3,71.1,69.5,67.7,65.1,67.7 M79.1,65h3.2v20.2h-3.2V65z M99.7,67.7h-5.6
						v17.5h-3.2V67.7h-5.7V65h14.5V67.7z M101.4,75.1c0-5.9,4.5-10.4,10.2-10.4c5.5,0,10.2,4.5,10.2,10.4c0,5.9-4.5,10.4-10.2,10.4
						C105.9,85.5,101.4,81,101.4,75.1 M104.7,75.1c0,4.4,2.9,7.7,7,7.7c4,0,7-3.3,7-7.7c0-4.2-2.9-7.7-7-7.7
						C107.6,67.4,104.7,70.9,104.7,75.1 M141.9,85.2l-4.6-8.2h-3.5v8.2h-3.2V65h6.3c4.9,0,7.6,2.7,7.6,6c0,2.4-1.4,4.4-3.9,5.4
						l5.1,8.8H141.9z M136.7,67.7h-3v6.6h3c2.9,0,4.3-1.3,4.3-3.3C141.1,69.1,139.7,67.7,136.7,67.7 M160.6,85.2h-12.4V65h12.4v2.7
						h-9.1v5.8h8.7v2.7h-8.7v6.3h9.1V85.2z M176.9,85.2l-1.8-5.3h-7.6l-1.8,5.3h-3.5l7.6-20.2h3.1l7.6,20.2H176.9z M170.9,70.1
						l-2.5,7.2h5.7l-2.5-7.2l-0.3-1.3h-0.2L170.9,70.1z M183.1,85.2V65h3.2v17.5h8.5v2.7H183.1z"/>
				</g>
				<g>
					<g>
						<g>
							<path d="M200.2,63.7v-2h0.8c0.1,0,0.2,0,0.2,0.1c0.1,0,0.1,0.1,0.2,0.1c0.1,0.1,0.1,0.1,0.1,0.2c0,0.1,0,0.1,0,0.2
								c0,0.1,0,0.1,0,0.2c0,0.1-0.1,0.1-0.1,0.2c0,0.1-0.1,0.1-0.1,0.1c-0.1,0-0.1,0.1-0.2,0.1l0.5,0.8h-0.2L201,63h-0.6v0.7H200.2
								z M200.4,62.8h0.6c0.1,0,0.1,0,0.2,0c0,0,0.1-0.1,0.1-0.1c0,0,0.1-0.1,0.1-0.1c0-0.1,0-0.1,0-0.2c0-0.1,0-0.1,0-0.2
								c0-0.1-0.1-0.1-0.1-0.1c0,0-0.1-0.1-0.1-0.1c0,0-0.1,0-0.2,0h-0.6V62.8z"/>
							<path d="M201.8,63.8h-0.3l-0.5-0.7h-0.5v0.7h-0.3v-2.1h0.9c0.1,0,0.2,0,0.3,0.1c0.1,0,0.1,0.1,0.2,0.2
								c0.1,0.1,0.1,0.1,0.1,0.2c0,0.1,0,0.2,0,0.2c0,0.1,0,0.2,0,0.2c0,0.1-0.1,0.1-0.1,0.2c0,0.1-0.1,0.1-0.2,0.1
								c0,0-0.1,0-0.1,0.1L201.8,63.8z M201.5,63.7h0.1l-0.5-0.7l0.1,0c0.1,0,0.1,0,0.2-0.1c0,0,0.1-0.1,0.1-0.1
								c0,0,0.1-0.1,0.1-0.2c0-0.1,0-0.1,0-0.2c0-0.1,0-0.1,0-0.2c0-0.1-0.1-0.1-0.1-0.2c0-0.1-0.1-0.1-0.2-0.1c-0.1,0-0.1,0-0.2,0
								h-0.8v1.9h0.1V63h0.7L201.5,63.7z M201.1,62.9h-0.7v-1h0.7c0.1,0,0.1,0,0.2,0c0.1,0,0.1,0.1,0.1,0.1c0,0,0.1,0.1,0.1,0.2
								c0,0.1,0,0.1,0,0.2c0,0.1,0,0.1,0,0.2c0,0.1,0,0.1-0.1,0.2c0,0-0.1,0.1-0.1,0.1C201.2,62.9,201.1,62.9,201.1,62.9z
								 M200.5,62.8h0.6c0,0,0.1,0,0.1,0c0,0,0.1-0.1,0.1-0.1c0,0,0.1-0.1,0.1-0.1c0-0.1,0-0.1,0-0.2c0-0.1,0-0.1,0-0.2
								c0-0.1,0-0.1-0.1-0.1c0,0-0.1-0.1-0.1-0.1c0,0-0.1,0-0.1,0h-0.6V62.8z"/>
						</g>
					</g>
					<g>
						<path d="M200.8,65c-1.2,0-2.2-1-2.2-2.2c0-1.2,1-2.2,2.2-2.2c1.2,0,2.2,1,2.2,2.2C203.1,64,202.1,65,200.8,65z M200.8,60.9
							c-1,0-1.8,0.8-1.8,1.9c0,1,0.8,1.8,1.8,1.8c1,0,1.8-0.8,1.8-1.8C202.7,61.7,201.9,60.9,200.8,60.9z"/>
					</g>
				</g>
			</g>
		</g>
	</g>
	<g>
		<path d="M35.4,22.5l-0.2,0l-0.4,1.4l-9,20.4h-3.3l-9-20.4l-0.5-1.7l-0.2,0v22.1H8V15.5h6.1l9.4,21.7L24,39h0.2l0.5-1.8L34,15.5h6
			v28.9h-4.6V22.5z"/>
		<path d="M69.4,34.1c0,6.5-5.1,10.7-11.7,10.7s-11.6-4.2-11.6-10.7V15.5h4.6v18.5c0,4.3,3.1,6.8,7,6.8c3.8,0,7-2.5,7-6.8V15.5h4.6
			V34.1z"/>
		<path d="M81.8,15.5h4.6v20.9c0,5.1-3.4,8.4-8.6,8.4c-1.8,0-3.3-0.3-4.7-0.9l0.7-3.6c1.1,0.4,2.3,0.7,3.7,0.7
			c2.7,0,4.3-1.7,4.3-4.5V15.5z"/>
		<path d="M92.8,44.4V15.5h17.7v3.9H97.4v8.3h12.4v3.9H97.4v8.9h13.1v3.9H92.8z"/>
		<path d="M125.1,32.7H120v11.7h-4.6V15.5h8.9c7,0,10.8,3.9,10.8,8.6c0,3.4-1.9,6.3-5.5,7.7l7.3,12.6h-5.2L125.1,32.7z M120,19.4
			v9.4h4.3c4.2,0,6.2-1.9,6.2-4.7c0-2.8-2-4.7-6.2-4.7H120z"/>
		<path d="M159.8,32.7h-5.1v11.7h-4.6V15.5h8.9c7,0,10.8,3.9,10.8,8.6c0,3.4-1.9,6.3-5.5,7.7l7.3,12.6h-5.2L159.8,32.7z M154.7,19.4
			v9.4h4.3c4.2,0,6.2-1.9,6.2-4.7c0-2.8-2-4.7-6.2-4.7H154.7z"/>
		<path d="M175.4,44.4V15.5h17.7v3.9H180v8.3h12.4v3.9H180v8.9h13.1v3.9H175.4z"/>
		<path d="M213.8,36.8h-10.8l-2.6,7.5h-5l10.9-28.9h4.4l10.9,28.9h-5L213.8,36.8z M204.3,33h8.2l-3.5-10.2l-0.4-1.9h-0.2l-0.4,1.9
			L204.3,33z"/>
		<path d="M225.2,15.5h4.6v25H242v3.9h-16.8V15.5z"/>
	</g>
</g>
</svg>
