<?xml version="1.0" encoding="utf-8"?>
<!-- Generator: Adobe Illustrator 25.4.1, SVG Export Plug-In . SVG Version: 6.00 Build 0)  -->
<svg version="1.1" id="Capa_1" xmlns="http://www.w3.org/2000/svg" xmlns:xlink="http://www.w3.org/1999/xlink" x="0px" y="0px"
	 viewBox="0 0 250 100" style="enable-background:new 0 0 250 100;" xml:space="preserve">
<style type="text/css">
	.st0{fill-rule:evenodd;clip-rule:evenodd;}
</style>
<g>
	<g>
		<g>
			<g>
				<path d="M23.5,15.1v3.4c0,0.2-0.1,0.4-0.4,0.4H8.7v6.9h11.9c0.2,0,0.4,0.1,0.4,0.4v3.4c0,0.2-0.1,0.4-0.4,0.4H8.7v10.1
					c0,0.2-0.1,0.4-0.4,0.4H4.7c-0.2,0-0.4-0.1-0.4-0.4V15.1c0-0.2,0.1-0.4,0.4-0.4h18.4C23.3,14.7,23.5,14.9,23.5,15.1z"/>
				<path d="M52.9,40.3h-4c-0.2,0-0.4-0.1-0.4-0.3c-0.5-2.1-1.2-4.3-1.9-6.5H34.4c-0.7,2.2-1.4,4.4-1.9,6.5
					c-0.1,0.2-0.2,0.3-0.4,0.3h-3.8c-0.3,0-0.4-0.1-0.3-0.4c2.3-8.1,5.8-17.1,9.3-24.7c0.2-0.3,0.4-0.5,0.7-0.5h5.2
					c0.3,0,0.5,0.1,0.7,0.5c3.6,7.5,7,16.5,9.3,24.7C53.3,40.1,53.1,40.3,52.9,40.3z M45.2,29.5c-1.3-3.7-2.8-7.4-4.3-10.7H40
					c-1.5,3.4-3,7-4.3,10.7H45.2z"/>
				<path d="M59.4,27.7c0-7.9,5.2-13.5,12.7-13.5h0.5c4.7,0,8.3,2.4,10.2,5.8c0.1,0.2,0.1,0.4-0.1,0.5l-3.2,1.6
					c-0.2,0.1-0.5,0.1-0.6-0.2c-1.4-2.3-3.4-3.6-6.4-3.6h-0.5c-4.7,0-7.9,3.7-7.9,9.1c0,5.4,3.2,9.1,7.9,9.1h0.5
					c3.1,0,4.9-1,6.2-2.6c0.2-0.2,0.4-0.2,0.6-0.1l3.3,1.6c0.1,0.1,0.2,0.2,0.2,0.3c0,0.1,0,0.2-0.1,0.3c-2,3-5.7,4.8-10.1,4.8H72
					C64.4,40.7,59.4,35.5,59.4,27.7z"/>
				<path d="M111.9,36.5v3.4c0,0.2-0.1,0.4-0.4,0.4H92.4c-0.2,0-0.4-0.1-0.4-0.4V15.1c0-0.2,0.1-0.4,0.4-0.4h18.8
					c0.2,0,0.4,0.1,0.4,0.4v3.4c0,0.2-0.1,0.4-0.4,0.4H96.4v6.6h12.1c0.2,0,0.4,0.1,0.4,0.4v3.3c0,0.2-0.1,0.4-0.4,0.4H96.4v6.7
					h15.2C111.8,36.2,111.9,36.3,111.9,36.5z"/>
				<path d="M144.9,33.3c0,4.5-3.4,7-9.5,7h-12.6c-0.2,0-0.4-0.1-0.4-0.4V15.1c0-0.2,0.1-0.4,0.4-0.4h11.4c5.9,0,9.1,2.3,9.1,6.6
					c0,2.8-1.4,4.7-4.3,5.5C143.2,27.7,144.9,30.1,144.9,33.3z M134.2,18.7h-7.4v6.9h7.4c3.3,0,4.8-1.1,4.8-3.4
					S137.5,18.7,134.2,18.7z M140.5,32.9c0-2.4-1.6-3.4-5-3.4h-8.6v6.9h8.6C138.9,36.3,140.5,35.3,140.5,32.9z"/>
				<path d="M152.6,27.5c0-7.7,5.1-13.3,13.1-13.3h0.5c8,0,13.1,5.5,13.1,13.3c0,7.7-5.1,13.3-13.1,13.3h-0.5
					C157.7,40.7,152.6,35.2,152.6,27.5z M166.2,36.6c5.2,0,8.5-3.6,8.5-9.1c0-5.5-3.3-9.1-8.5-9.1h-0.5c-5.2,0-8.5,3.6-8.5,9.1
					c0,5.5,3.3,9.1,8.5,9.1H166.2z"/>
				<path d="M186.8,27.5c0-7.7,5.1-13.3,13.1-13.3h0.5c8,0,13.1,5.5,13.1,13.3c0,7.7-5.1,13.3-13.1,13.3h-0.5
					C191.9,40.7,186.8,35.2,186.8,27.5z M200.5,36.6c5.2,0,8.5-3.6,8.5-9.1c0-5.5-3.3-9.1-8.5-9.1h-0.5c-5.2,0-8.5,3.6-8.5,9.1
					c0,5.5,3.3,9.1,8.5,9.1H200.5z"/>
				<path d="M245.1,40.3h-4.7c-0.3,0-0.4-0.1-0.6-0.3c-3.3-3.9-7.2-7.8-10.5-10.6h-2.1v10.5c0,0.2-0.1,0.4-0.4,0.4h-3.6
					c-0.2,0-0.4-0.1-0.4-0.4V15.1c0-0.2,0.1-0.4,0.4-0.4h3.6c0.2,0,0.4,0.1,0.4,0.4v10.1h2.2c3.6-3.2,6.8-6.7,9.5-10.2
					c0.2-0.2,0.3-0.3,0.5-0.3h4.5c0.2,0,0.3,0.1,0.3,0.3c0,0.1,0,0.2-0.1,0.3c-3.9,4.8-7.8,8.8-11.4,11.9c4.5,3.8,8.8,8.1,12.7,12.7
					C245.5,40.1,245.4,40.3,245.1,40.3z"/>
			</g>
		</g>
	</g>
	<g>
		<path class="st0" d="M70.9,59.9c-7.4,0-13.2,5.4-13.2,12.8c0,3.8,1.6,7.2,4.1,9.5c0.2,0.2,0.3,0.5,0.4,0.8l0.1,2.3
			c0,0.7,0.8,1.2,1.5,0.9l2.6-1.2c0.2-0.1,0.5-0.1,0.7-0.1c1.2,0.3,2.5,0.5,3.8,0.5C78.3,85.5,84,80,84,72.7
			C84.1,65.3,78.3,59.9,70.9,59.9z M78.8,69.7l-3.9,6.1c-0.6,1-1.9,1.2-2.9,0.5L69,74.1c-0.3-0.2-0.7-0.2-1,0l-4.2,3.2
			c-0.6,0.4-1.3-0.2-0.9-0.8l3.9-6.1c0.6-1,1.9-1.2,2.9-0.5l3.1,2.3c0.3,0.2,0.7,0.2,1,0l4.2-3.2C78.4,68.5,79.2,69.1,78.8,69.7z"/>
	</g>
	<g>
		<g id="WA_Logo_3_">
			<g>
				<path class="st0" d="M186.4,63.7c-2.5-2.5-5.8-3.9-9.3-3.9c-7.2,0-13.1,5.9-13.1,13.1c0,2.3,0.6,4.6,1.7,6.6l-1.9,6.8l7-1.8
					c1.9,1,4.1,1.6,6.3,1.6h0c0,0,0,0,0,0c7.2,0,13.1-5.9,13.1-13.1C190.2,69.5,188.9,66.2,186.4,63.7z M177.1,83.9L177.1,83.9
					c-2,0-3.9-0.5-5.6-1.5l-0.4-0.2l-4.1,1.1l1.1-4l-0.3-0.4c-1.1-1.7-1.7-3.7-1.7-5.8c0-6,4.9-10.9,10.9-10.9
					c2.9,0,5.7,1.1,7.7,3.2c2.1,2.1,3.2,4.8,3.2,7.7C188,79,183.1,83.9,177.1,83.9z M183.1,75.7c-0.3-0.2-1.9-1-2.2-1.1
					c-0.3-0.1-0.5-0.2-0.7,0.2c-0.2,0.3-0.8,1.1-1,1.3c-0.2,0.2-0.4,0.2-0.7,0.1c-0.3-0.2-1.4-0.5-2.6-1.6c-1-0.9-1.6-1.9-1.8-2.3
					s0-0.5,0.1-0.7c0.1-0.1,0.3-0.4,0.5-0.6c0.2-0.2,0.2-0.3,0.3-0.5c0.1-0.2,0.1-0.4,0-0.6c-0.1-0.2-0.7-1.8-1-2.4
					c-0.3-0.6-0.5-0.6-0.7-0.6c-0.2,0-0.4,0-0.6,0s-0.6,0.1-0.9,0.4c-0.3,0.3-1.1,1.1-1.2,2.7c0,1.6,1.2,3.2,1.3,3.4
					c0.2,0.2,2.3,3.5,5.6,5c0.8,0.3,1.4,0.5,1.9,0.7c0.8,0.3,1.5,0.2,2.1,0.1c0.6-0.1,1.9-0.8,2.2-1.6c0.3-0.8,0.3-1.4,0.2-1.6
					C183.6,76,183.4,75.9,183.1,75.7z"/>
			</g>
		</g>
	</g>
	<g>
		<path d="M135.1,64.6c-0.3-0.9-0.8-1.6-1.5-2.3c-0.7-0.7-1.4-1.2-2.3-1.5c-0.8-0.3-1.8-0.5-3.1-0.6c-1.4-0.1-1.8-0.1-5.3-0.1
			c-3.5,0-4,0-5.3,0.1c-1.4,0.1-2.3,0.3-3.1,0.6c-0.9,0.3-1.6,0.8-2.3,1.5c-0.7,0.7-1.2,1.4-1.5,2.3c-0.3,0.8-0.5,1.8-0.6,3.1
			c-0.1,1.4-0.1,1.8-0.1,5.3c0,3.5,0,4,0.1,5.3c0.1,1.4,0.3,2.3,0.6,3.1c0.3,0.9,0.8,1.6,1.5,2.3c0.7,0.7,1.4,1.2,2.3,1.5
			c0.8,0.3,1.8,0.5,3.1,0.6c1.4,0.1,1.8,0.1,5.3,0.1c3.5,0,4,0,5.3-0.1c1.4-0.1,2.3-0.3,3.1-0.6c0.9-0.3,1.6-0.8,2.3-1.5
			c0.7-0.7,1.2-1.4,1.5-2.3c0.3-0.8,0.5-1.8,0.6-3.1c0.1-1.4,0.1-1.8,0.1-5.3c0-3.5,0-4-0.1-5.3C135.7,66.4,135.5,65.4,135.1,64.6z
			 M133.4,78.3c-0.1,1.3-0.3,2-0.4,2.4c-0.2,0.6-0.5,1-1,1.5c-0.5,0.5-0.9,0.7-1.5,1c-0.5,0.2-1.1,0.4-2.4,0.4
			c-1.4,0.1-1.8,0.1-5.2,0.1c-3.5,0-3.9,0-5.2-0.1c-1.3-0.1-2-0.3-2.4-0.4c-0.6-0.2-1-0.5-1.5-1c-0.5-0.5-0.7-0.9-1-1.5
			c-0.2-0.5-0.4-1.1-0.4-2.4c-0.1-1.4-0.1-1.8-0.1-5.2s0-3.9,0.1-5.2c0.1-1.3,0.3-2,0.4-2.4c0.2-0.6,0.5-1,1-1.5
			c0.5-0.5,0.9-0.7,1.5-1c0.5-0.2,1.1-0.4,2.4-0.4c1.4-0.1,1.8-0.1,5.2-0.1c3.5,0,3.9,0,5.2,0.1c1.3,0.1,2,0.3,2.4,0.4
			c0.6,0.2,1,0.5,1.5,1c0.5,0.5,0.7,0.9,1,1.5c0.2,0.5,0.4,1.1,0.4,2.4c0.1,1.4,0.1,1.8,0.1,5.2C133.5,76.5,133.5,77,133.4,78.3z
			 M122.8,66.4c-3.7,0-6.7,3-6.7,6.7s3,6.7,6.7,6.7c3.7,0,6.7-3,6.7-6.7C129.5,69.4,126.5,66.4,122.8,66.4z M122.8,77.4
			c-2.4,0-4.3-1.9-4.3-4.3s1.9-4.3,4.3-4.3c2.4,0,4.3,1.9,4.3,4.3C127.2,75.5,125.2,77.4,122.8,77.4z M129.8,64.6
			c-0.9,0-1.6,0.7-1.6,1.6s0.7,1.6,1.6,1.6c0.9,0,1.6-0.7,1.6-1.6C131.3,65.3,130.6,64.6,129.8,64.6z"/>
	</g>
	<g>
		<path d="M17.5,60c-7.3,0-13.2,5.9-13.2,13.2c0,6.6,4.8,12.1,11.1,13l0-9.2l-3.4,0l0-3.8l3.4,0l0-2.9c0-3.3,2-5.1,5-5.1
			c1.4,0,2.9,0.3,2.9,0.3l0,3.2l-1.7,0c-1.6,0-2.2,1-2.2,2.1l0,2.5l3.7,0L22.7,77l-3.1,0l0,9.2c6.3-1,11.1-6.4,11.2-13
			C30.7,65.9,24.8,60,17.5,60z"/>
	</g>
	<g>
		<path d="M241.9,65.7c-1.1-0.9-2.4-1.5-3.8-1.8c-0.8-0.2-1.6-0.3-2.4-0.3c-0.6,0-1.2,0-1.8,0c-2.9,0-5.7,0-8.6,0
			c-0.6,0-1.2,0-1.8,0c-0.8,0-1.6,0.1-2.4,0.3c-1.4,0.3-2.7,0.9-3.8,1.8c-2.2,1.8-3.5,4.5-3.5,7.4c0,2.9,1.3,5.6,3.5,7.4
			c1.1,0.9,2.4,1.5,3.8,1.8c0.8,0.2,1.6,0.3,2.4,0.3c0.6,0,1.2,0,1.8,0c2.9,0,5.7,0,8.6,0c0.6,0,1.2,0,1.8,0c0.8,0,1.6-0.1,2.4-0.3
			c1.4-0.3,2.7-0.9,3.8-1.8c2.2-1.8,3.5-4.5,3.5-7.4C245.4,70.2,244.1,67.5,241.9,65.7z M237.7,75.6c-0.4,0.3-0.9,0.5-1.4,0.6
			c-0.5,0.1-1,0.1-1.5,0.1c-3.5,0-6.9,0-10.4,0c-0.5,0-1,0-1.5-0.1c-0.5-0.1-1-0.3-1.4-0.6c-0.8-0.6-1.4-1.5-1.3-2.6
			c0-1,0.5-2,1.4-2.6c0.4-0.3,0.9-0.5,1.4-0.6c0.5-0.1,1-0.1,1.5-0.1c3.5,0,6.9,0,10.4,0c0.5,0,1,0,1.5,0.1c0.5,0.1,1,0.3,1.4,0.6
			c0.8,0.6,1.4,1.5,1.3,2.6C239,74.1,238.5,75.1,237.7,75.6z"/>
	</g>
</g>
</svg>
